<svg xmlns="http://www.w3.org/2000/svg" viewBox="0 0 1266.1 848" style="enable-background:new 0 0 1266.1 848"><g><g><path d="m418 428c.7-1.2 1.2-2.8 2.2-3.5 2.7-1.8 2.4-3.8 1.1-6.3-1-1.9-1.8-3.9-2.7-5.8-1.9-4.1-3.8-8.1-5.7-12.2-3.6-24.7-9.4-48.8-21.7-70.9-1.2-3-2.4-6-3.7-9-2.3-6.3-4.8-12.6-6.7-19-2.2-7.4-7.3-14.2-5.7-22.6.1-.3-1.5-1-2.3-1.5-.3-.3-.7-.6-1-.9-.7-4.7-1.4-9.3-2.1-14-.7-.6-.6-1.4-.6-2.1.2.7.4 1.4.6 2.1-.1-1.3-.1-2.6-.2-3.9-.1-.7-.2-1.4-.4-2.1 0-.7 0-1.4-.4-2.1-.1-1.2-.2-2.5-.3-3.7-1-6.6-2-13.3-3-19.9-.9-2.7-1.8-5.4-2.7-8.1-1-3.1-2-6.1-3.1-9.2.1-.3 0-.6-.2-.8-.3-.7-.5-1.4-.8-2-.7-.6-.8-1.2-.3-1.9-1.3-1.5-2.3-3.8-3.9-4.5-8.9-4-18-7.6-27-11.3.5.9.9 2 1.3 3.1-.5-.9-.9-1.9-1.3-3.1-6-6.1-11.9-12.2-17.9-18.2 1.7-1.3 3.5-2.5 5.2-3.8.8-1.9 1.6-3.7 2.3-5.6 1.5-2.7 2.4-5.7 3.6-8.5 1.7-5.2 3.7-10.3 4.8-15.6.8-3.7.2-7.7.3-11.6.2-1 .4-2 .6-2.9.7-1.1 1.3-2.1 2-3.2 1-5.5 5.3-2 8-2.9 3.3-1 6.7-1.7 10-2.5-2.3-2.8-4.7-5.7-7-8.5-2.9-1.3-5.9-2.7-8.8-4-1.4-1.3-2.9-2.5-4.3-3.8-.5-2.1-1-4.3-1.5-6.4 0-.2-.1-.5-.2-.8-.1-1.6-.2-3.2-.3-4.8 0-.3.1-.7.1-1 0-1 0-2 0-3-.2.3-.3.6-.5 1 .1-.4.2-.7.5-1 .5-6.7-2.3-11.6-8.1-14.9-8.9-.4-17.9-.8-26.8-1.2-8.8-.3-17 1.9-24.9 6-3.5 1.8-6.8 4.1-10.2 6.1-.7.6-1.4 1.3-2.1 1.9-.7 1.2-1.9 2.5-1.9 3.8-.2 9-.1 18-.2 27-.8 1.2-2.4 2.6-2.1 3.5 1.1 4.2 2.5 8.4 3.9 12.5.1.4.2.8.4 1.2.1.5.2.9.3 1.4.2-.2.5-.3.7-.5.6.9 1.3 1.8 1.9 2.7 0 2.2 0 4.3 0 6.5-.2 0-.2.2-.3.3.1-.1.2-.2.2-.3 2 3 4.1 6 6.1 9 .2 1 .4 2 .6 3-.3 0-.6 0-.9.2-.1-.2-.2-.4-.3-.7-.2.2-.3.4-.5.6h-.1c-.5.5-1.3.4-1.9.8-1.6 1.9-4.3 3.7-4.7 5.8-2.1 12.7-10.7 19.6-21.3 24.7-10.9 5.3-22 10.2-32.9 15.4-1.6.8-3.5 2.4-3.9 3.9-1.8 7.4-3.1 14.8-4.6 22.3-.3 1-.5 2-.8 2.9-.7 10.9-1.2 21.9-2.2 32.8-.7 8.1-1.1 16.3-6.7 23-.6.7-.6 2.1-.7 3.2-.7 8.4-1.1 16.8-2 25-1.2 11.5-2.9 23-4.3 34.6.8 1.5.7 3.3.3 4.8-1.1 4.5 0 8.7 1.6 12.8.3.5.8.9 1.3 1.1 4.4 20 8.6 40 13 60 1.5 6.9 3.5 13.8 5.3 20.7.6 2.5 1.6 4.3 4.1 1.3.2 1.7.8 3.5.7 5.2-.3 3.8-1.8 7.7-1.1 11.2 1.3 6.9 3.7 13.5 5.7 20 2.7 5.6 6 10.7 12 13.4 3.3 0 6.7 0 10 0 .6.1 1.1.1 1.6.2.2.1.4.2.6.3-.5.5-.7 1.2-.7 2.1-1.9 4.7-1.1 9.7-1.1 14.6.2 21 .1 42.5.1 63.7 0 2.2.2 4.4-1 6.3-2.9 4.5-2.7 9.8-3.6 14.8 0 1.6.1 3.3.1 4.9-5.4 7.7-9.1 16.5-11 25.4-1.9 8.9-1.6 18.2-2.6 27.3-1.4 13.4-1.2 27-4.3 40-.6 2.4-.4 4.7.7 6.8 2.3 4.2 4.5 8.5 8.2 11.9.4.3.9.5 1.3.8.1 1.1.2 2.3.3 3.4-.3.8-.2 1.5.2 2.3 1.1 2.4 3.2 4.8 3 7.1-.2 3.1-.6 6.1-1 9.2-.2 1-.3 2-.4 3.1-.5 3.6-1.1 7.2-1.5 10.7-.8 7.3-1.5 14.7-2.3 22 .4 8 .9 15.9 1.3 23.9.9 2.4 1.8 4.7 2.8 7.1.5.2.9.5 1 1v.1c2.2 1.3 4.5 2.5 6.7 3.8s0 0 0 0c.3.2.7.3 1.1.4 2.9 1.1 6.1 3 8.5 2.2 3.4-1 5.2 1.2 7.5 1.2.3 0 .6 0 .8 0 .3 0 .6 0 .9 0 1.7-.1 3.5-.3 5.2-.5 2.5-.4 5-.9 7.5-1.3 6.2-.3 9.5-3 9.9-8 .3-3.2 1.7-6.9.6-9.6-2.9-7.5-7.1-14.5-10.3-21.9-1.6-3.6-2.2-7.7-3.3-11.6.9-1.2.9-2.3-.4-3.2-.2 0-.4 0-.6 0 0-.9-.1-1.8-.1-2.7.1 0 .3 0 .5 0 .3-.4.5-.9.7-1.4.4-3.5 1-7.1-1.1-10.3-.3-.4-.6-.7-1-1 0-8-.1-16-.1-24 .2-.1.4-.1.6-.2 4.2-5.5 9.6-10.2 11.6-17.2.9-3 1.5-6-.8-8.5-2.6-2.9-3.1-6.1-2.8-9.7 1.3-18.4 3-36.7 4.9-55 .1-1.1.2-2.1.2-3.2.8-2.5 1.2-5.4 3.4-7.1 6.3-5 8.2-11.7 7.9-19.4-.2-3.3.1-6.7 1.2-9.9 3.7-11.2 6.7-22.7 10.2-34 3.2-10.3 6.3-20.6 8.7-30.6 1 3.1-.4 7.4 2.4 10.7.2 0 .3.1.5.2-1.3 1.5-1 3.3-.7 5.1.2 1 .5 1.9.6 3 .1 1.5.2 3 .5 4.4.4 1.2.5 2.4.5 3.6 0 1.7 0 3.5.4 5.2.2 1 .5 1.9.5 2.9.1 1.7.1 3.4.5 5.1.3.9.5 1.9.5 2.9.1 1.5.2 2.9.5 4.4.4 1.2.5 2.4.5 3.6 0 1.7 0 3.5.4 5.2.3 1.2.6 2.3.6 3.6.1 2-.2 3.9-.9 5.7-.2.8-.5 1.5-.9 2.1-2.6 3-3.4 6.3-2.6 10.2.5 2.4.2 5-.3 7.4-1 6.1-1.7 12.2-2.2 18.3-.4 3.7-1.2 7.6 1.1 11 1.1 5.2 2.2 10.3 3.3 15.5.9 4.1 1.5 7.5-3.2 10.6-2.9 2-4.8 6.4-2.1 10.6 3.6 5.5 5.7 11.5 5.2 18.2.8 1.4 1.6 2.8 2.5 4.2 0 2.1.1 4.2.1 6.2 0 .6-.1 1.3-.1 2-.2 4.4 1.1 9-1.1 13.2-3.8 7.2-3.3 14.8-2.4 22.5 0 .7 0 1.3 0 2-.1 0-.3.1-.4.2-.1 4.8-.7 9.7.6 14.6 1.3.7 2.5 1.3 3.8 2 5.9 3 11.7 7.2 18.4 1.7.3-.3 1.2.1 1.9.2 4.7.9 8.4 3.1 11.6 6.9 2.8 3.4 6.2 7.3 10 8.5 7.8 2.6 16 3.5 24 5.1 1.2-.8 2.4-2.3 3.7-2.4 3-.3 6.1.1 9.2.2 2.3-2 4.5-4 6.8-6.1.4-1.4.8-2.8 1.3-4.3.1 0 .2-.1.3-.1-.1-.2-.1-.3-.2-.5 0-.4 0-.8 0-1.1 1.8-7.5.2-11.7-6.1-15.6-2-1.2-4.1-2.2-6.1-3.3-1.1.1-2.1-.2-3-.5 1 .2 2 .4 3 .5-5-3-10-6.1-15-9.1-1-.7-1.9-1.3-2.9-2-1.7-.8-3.3-1.5-5-2.3.2-.2.2-.4.1-.6 0 0 0 0 0 0-.4-1-.8-2-1.2-3.1-.3-1-.7-1.9-1-2.9-.1-.3-.4-.4-.7-.4-.6 0-1-.3-1.2-.9-4.4-2.3-5.3-6.6-6.3-10.9-.2-.4-.5-.7-.7-1.1-.3-.7-.6-1.4-1-2.1-.1-.6-.1-1.2-.2-1.8 0-.3 0-.7 0-1-.4-3.7-.8-7.3-1.1-11 .6-.9 1.7-1.8 1.7-2.7.1-1.6 2-4.3-1.7-4.6-.3-.3-.6-.6-.9-.9 5.1-1.3 7.8-4.2 10-9.4 3.3-7.4-2.7-9.1-5.1-13-.2-.3-.5-.4-.7-.6 0-2.2 0-4.4-.1-6.6.9-16.8 1.8-33.5 2.7-50 .1-1.3.3-2.5.4-3.8.1-2-.4-4.2.4-5.9 1.8-4 3.1-7.8 1.5-12 .3-.9.7-1.8.9-2.8 1.9-11.8 3.8-23.5 5.5-35 2.3-15.7 4.4-31.4 6.6-47-.1-1-.2-1.9-.3-2.9 0-1 0-2 0-3-.4-5.7-1-11.4.3-17 .6-13.6 1.2-27 1.8-40.8 0-.3.1-.8 0-1-3.9-4.4-1.4-9.4-1.3-14 1.2-2 2.3-4.1 3.5-6.1.6-2 1.1-3.9 1.7-5.9-.2-.3-.3-.7-.3-1.1.1.3.2.7.3 1.1 0-1.6 0-3.2 0-5.2-1.4.5-2.5.8-3.5 1.2-6.5 3-6.5 3-7.5-3.9-.1-.8-.5-1.6-.7-2.3.2-.2.2-.4 0-.6-.1-1-.2-2-.3-3 .4-1.1.7-2.2 1.1-3.3 1.7-5.4 3.4-10.8 5.6-17.6 6.7 15.4 13 30 19.5 44.7 0 .2 0 .4 0 .7 0 .4 0 .9.1 1.3.6 1.4.7 3.2 2.9 3.1.1 0 .1 0 .2 0-.4 2 1.5 1.9 2.8 2 2.2.3 3.4 1.2 3.4 3.4.2 4.4 1.2 8.8-.8 13-1.1 5.1-2.2 10.3-1.4 15.6.1.2.2.3.3.5-.3-.1-.6-.1-.9 0-2.2-.6-4.3-1.2-6.5-1.9-.2 1.4-.4 2.8-.7 4.2.4.5.8 1.1 1.2 1.6-5.9 1.4-2.2 4.6-1.3 7.3.3 0 .6.1.8.3.2.1.4.1.6.2-.2-.1-.4-.2-.6-.3.3.3.6.6.8.9 7.2 5.5 14.7 8.6 23 3 4.4-1.5 7.8-3.9 7.8-9.1 0-1.3.1-2.6.1-4-.2.4-.3.9-.5 1.3 0-.5.1-1 .5-1.3 1-1.9.9-4.2 2-6v.1c.8-7.4.8-14.7 0-22l.1.1c-1.8-3.2 1-7-1.6-10 .8-1.1.7-1.8.6-2.6m-191-66c-1.3 6-3 11.8-3.3 17.9-.9-3.7-1.6-7.5-1.9-11.2-.8-10.2-.9-20.5 2.8-30.4.1-.2.1-.4.2-.6 1.4.4 2.7.8 4.1 1.3.1.3.1.6.2 1 1.4 7.5-.6 14.8-2.1 22" style="fill:#e3e7e5"/><g><path d="m206 608c0-1.6-.1-3.3-.1-4.9.9-5 .6-10.2 3.6-14.8 1.2-1.9 1-4.1 1-6.3 0-21 .1-42.5-.1-63.7 0-4.9-.8-9.8 1.1-14.6-.2-2.7 2.4-3.1 3.7-4.5.4-.3.8-.5 1.3-.5 3.7 2.4 5-1.7 7.4-2.7 2.2 3 1.7 5.6-1.4 7.6-1.2.8-2.4 1.8-1.6 3.2 2.9 5.1 1.1 10.4.6 15.6-.1 1.3-.3 2.6.4 5.2 1.9-3.8 2.2-7.1 2.5-10 .4-4.1 2.2-6 6.4-5.8 6 .3 11.9-1.4 17.9-1.1 4.2.2 5.7-2.6 6.6-6.1 2-7.8 2.1-7.9 9.7-8.1 2.2-.1 4.1-.6 4.7-2.9.7-2.8-1.6-2.7-3.3-3.3-3.9-1.4-4.2-2.5-1.7-6.6 8.2-.8 16.3-3.2 24.6-1.8 4.1.7 6.1-2.6 9-4.3-1.9 1-3.8 1-5.6-.4-.6-3.2 1.7-3 3.7-2.8 2.4.3 5 .7 5.9 3.6.7 2.7-1.2 4.2-2.9 5.7-1.8 1.6-3.8 2.9-5.5 4.7-.3.3-.7.7-1 1-3.7 7.7-7.7 15.3-9.7 23.6-.1.4-.8 1-.4 1.1 6.5 3 2.4 8.7 3.4 13 .4 1.9 0 4 .4 6 .4 1.1.6 2.2.6 3.3 0 1.5.1 3-1.4 3.9-2.1 1.2-2.1-1.7-3.5-2-2.8-3.3-1.4-7.6-2.4-10.7-2.4 10-5.5 20.3-8.7 30.6-3.5 11.3-6.6 22.7-10.2 34-1.1 3.2-1.4 6.6-1.2 9.9.4 7.7-1.6 14.4-7.9 19.4-2.2 1.8-2.5 4.6-3.4 7.1 0 1.1-.1 2.1-.2 3.2-1.9 18.3-3.7 36.7-4.9 55-.2 3.6.2 6.9 2.8 9.7 2.3 2.5 1.7 5.4.8 8.5-2 7-7.4 11.7-11.6 17.2-8.5 3.6-17.3 4.5-26.3 2.3-4-1.6-8.4-2.4-12-4.8-3.6-3.3-5.9-7.6-8.2-11.9-1.2-2.1-1.3-4.4-.7-6.8 3.2-13.2 3-26.8 4.3-40 .9-9.1.7-18.4 2.6-27.3 1.9-9 5.6-17.8 11-25.5" style="fill:#3a3640"/><path d="m241 412c0 .3-.1.6-.2 1-.5.6-.5 1.3 0 1.9v.1c.5.7.7 1.7 1.5 1.9 5.4.9 9.9 4.3 15.3 5.5 3.5.7 6.4-.2 9.3-1.7 1 .1 1.9.2 2.9.3 1.3 1.5.5 2.4-.8 3.3.1.1.3.1.5.2 1.8-.3.9-2.6 2.3-3.2 1-.1 1.9-.2 2.9-.3 3 2.7 6.4 3.3 10.3 2.7 3.9-.6 7.9-1.5 10.9 2.3.5.5.9 1 1.2 1.6.9 1.5 2.2.8 3.4.5 1.3-.2 2.5-.3 3.8-.6.4-.1.9-.1 1.3 0 .4.2.8.4 1.1.7.1.2.2.4.3.6-.4 1-.8 2.1-1.2 3.1-.4.3-.8.6-1.3.8-6.1.7-12.3-.8-18.4.1-1.6.2-4.5-.1-2.5-3.3.2-.3.6-.3.6-.3-.3-.1-.6-.2-1-.1-2.9.8-5.5-1-8.4-.6 8.1 5.8 17.6 8.3 27 11-4.3 2.7-8.6 2.3-12.8.8-4.5-1.6-9.2-3.1-13.4-5.4-3.1-1.7-5.7-1.6-7.5 1.9-5.7 11.6-15.9 14.8-27.8 14.6-2.2 0-4.3.1-6.5.1-3.9.1-5.9 1.6-5.3 5.7-.3.7-.7 1.2-1.5 1-.4-.2-.7-.4-1-.8-.3-.3-.5-.6-.7-1-.3-.5-.5-1-.8-1.5-.2-.3-.5-.5-.7-.7-.3-.2-.6-.4-.9-.6-.3-.2-.6-.4-1-.6-.3-.2-.6-.4-1-.7-.2-.1-.3-.2-.5-.3-.4-.2-.7-.4-1.1-.7-3.6-2-3-6.9-6.4-9-.6-.2-1.3-.4-1.9-.6-6-1.5-11.3.5-16.6 3.2-3.4 1.7-6.5 3.8-9.9 5.6-.4.2-.9.4-1.4.4-.2 0-.5 0-.7 0-2.5 2.9-3.4 1.1-4.1-1.3-1.8-6.9-3.8-13.7-5.3-20.7-4.5-20.3-8.8-40.6-13.2-60.9.6 0 1.2 0 1.8 0 .2-.2.6-.7.7-.6 2.8 1 4.6 3.9 8.8 1.1 2.2-1.4 7.6 1 11 2.7 4.4 2.2 8.2 5.4 12.3 8.1.9.5 2.1.5 3.2.7 2-.2 2 1.5 2.1 2.6.2 4.5 1.6 8.7 3.2 14 0-4.8 1.5-8.2 2.5-11.7-.4-7.4 1.8-14.4 3.3-21.5 1.5-7.3 3.5-14.5 2-22-.2-.8-.4-1.6-.4-2.4.1-2-1.5-4.2.5-6.1.1-.1.3-.2.3-.4.1-5.3 2.2-7.6 7.8-5.8.6.2 2.6-1.3 2.6-2-.2-4.5 3.1-4.9 6-4.8 4.7.1 6.2-2.3 6.2-6.4 0-3.6-.7-7.2 4.2-8.9 1.2-.4 1.7-4.3 1.7-6.6.2-8.8.9-9.8 10-10.2 4.7-.2 9.4.1 14.2.4.6 0 1.2 1 1.8 1.6.6 6.8-2.3 13-3.7 19.5-4.3 17-9.2 34-12.2 51.6-.8 4.8-1.5 9.7-2.5 14.5-.4 1.8-.6 3.6-2.3 4.7 0 .9 0 1.8 0 2.7.4 3.3.6 6.6-2 9.3-.7 6.2-1.4 12.5-2.2 18.7.3.2.4.5.3.8 0 .3-.1.4-.2.4" style="fill:#41383f"/><g><path d="m400 474c-.1 5.2-3.5 7.6-7.8 9.1-8.6 5.6-16 2.5-23-3-.1-.4-.3-.9-.5-1.3-1.6-2.3-.4-3.3 1.8-3.8 1.7-.3 3.3.3 4.9.4 5 .2 9.7-.4 12.2-5.6.6-1.3 1.4-2.7 3.6-2.9.7 2.5.6 5.2.6 7.1.7-4.3-.7-8.8-2.4-13.3-.7-2-1.9-3.8-1.1-6.2.4-1.1-1.1.4-1.3-.5-.7-.1-.1-3.4-1.9-.9-2.1 3.1-2.4 6.8-2.6 10.4-.1 2.9.8 6-1.2 8.7-1.7 1-3.1.6-3.8-1.2-.5-1.4-1.3-2.5-2.1-3.7-.8-5.3.3-10.4 1.4-15.6 1.9-4.3 1-8.7.8-13 0-2.2-1.2-3.1-3.4-3.4-1.4-.2-3.6 0-2.6-2.7 1.4-.8 2.9-.9 4.3-.8 2.6.3 4.2-.7 5.5-3.1 2-3.5 13.2-6.9 17.2-5.6 1.9.6 2.8 1.7 2.1 3.7-3.6 2.1-4.3 5-3.6 9.2 1.7 9.6 4.6 19 2.5 29-.5 2.4-.8 4.9-1.5 7.3-.2.6-.3 1.1-.2.5.3.1.6.1 1-.1.8.3 1 .9 1.3 1.3" style="fill:#d2bfa9"/><path d="m374 778c-2.3 2-4.5 4-6.8 6.1-3.1-.1-6.1-.4-9.2-.2-1.3.1-2.5 1.6-3.7 2.4-8.1-1.6-16.4-2.5-24-5.1-3.9-1.3-7.3-5.2-10-8.5-3.2-3.8-6.8-6.1-11.6-6.9-.6-.1-1.5-.5-1.9-.2-6.7 5.6-12.5 1.4-18.4-1.7-1.3-.6-2.5-1.3-3.8-2-1.3-4.9-.7-9.8-.6-14.6 1-.5 1.6-.2 2.1.3 6.9 8.4 16.5 12 26.4 15.2 3.7 1.2 7.1 2.8 10 5.3 13.7 11.6 29.5 12.3 46 8.6 2-.4 4.5-2.5 5.6 1.3" style="fill:#b4944f"/><path d="m387 454c.3-1.3.6-2.6.9-3.9.4.7.8 1.4 1.2 2.1.2 2.1.2 4.2.5 6.2.7 4.9 1.7 9.7 2.2 14.6.1 1.3-1.2 2.8-2.3 3.9.5-3 1-6 1.5-9-.3-.2-.7-.4-1-.6-2.3 4.2-4.1 8.9-9.7 9-2.7 0-5.5 0-8.2-.3-2.8-.3-4.7.1-3.2 3.6-.3-.2-.6-.3-.9-.4-.2-.2-.5-.3-.8-.3-.9-2.7-4.6-5.9 1.3-7.3-.4-.5-.8-1.1-1.2-1.6 3.3-2.2 5.2 1.5 7.7 2 1-1.7-2.4-2.6-.6-4.3.5-.1.9-.1 1.3.1.7.5 1.5.9 2.2 1.4 1 .9 1.9 1.9 2.9 2.8.2 0 .5 0 .7-.1 4.1-.6 5.5-2.5 4.1-6.1-.5-1.3-.9-2.5-.9-3.8 0-2.9-.7-6 2.3-8" style="fill:#9a8673"/><path d="m368 479c.3.1.6.3.9.4 0 0-.1.4-.1.4-.3-.2-.5-.5-.8-.8" style="fill:#e3e7e5"/><path d="m174 228c1.5-7.4 2.8-14.9 4.6-22.3.4-1.5 2.3-3.1 3.9-3.9 10.9-5.3 22-10 32.9-15.4 10.5-5.2 19-12 21.3-24.7.3-2.1 3-3.9 4.7-5.8.6-.4 1.3-.4 1.9-.8.4-.3.7-.3.9.1.6.5 1 1.1 1.1 1.8-1.9 5.1.3 9 3.4 13 6.4 8.3 12.2 16.9 15.9 26.9 1.1 3 3 5.5 5.9 7.1-1.8 5.2-1.8 5.2 3.5 6.9 2.1.7 3.7 1.5.5 3.1-2.9.3-4.3 2-5.7 4.7-4.4 8.3-3.6 17-2.9 25.8 1.1 12.4 1.4 24.8 2.7 37 0 2.8-.5 5.6-1.9 8.1-1.6 1.1-3.4.6-4.8.1-4.8-2-9.5-.7-14.2-.3-4.1.4-6.3 2.5-6.1 6.8.2 4.4 0 8.6-4.4 11.3-1.9 1.2-1.5 3.5-1.6 5.5-.5 5.7-1.6 7-7.3 8.2-1.5.3-3.5.4-3.9 1.8-1.7 6.3-6.6 4.7-11.2 4.8-.3 1.6 1 4-1.5 5.2-1.3-.3-1.4-1.4-1.7-2.4-.2-1-.4-2-.8-3-.2-.5-.4-1-.5-1.5-.7-5.5-.9-11 3-15.6 1.8 1.6.6 3.5.8 5.2.3-3.5.7-7.2 1.8-10.7.2-.4.4-.7.8-1-.1-.1-.3 0-.7.1-.3-.2-.6-.4-.8-.7-.3-.8-.3-1.6-.1-2.5.1-.7.3-1.3.4-2 .2-1.1.3-2.3 1.1-3.2.7-.3 1.1 0 1.5.5 0-.5-.4-.8-.6-1.2-.6-.8-.8-1.7-.9-2.6-.2-1.8-.1-3.6.3-5.4.1-.8.3-1.6.4-2.4.2-4.6.2-9.2 1.3-13.8.4-1.9.7-3.9 2.5-5.2 2.1.3 1.8 2 1.9 3.5 0 1.2-.5 2.3-.4 3.5.7 7.9 0 10.7 10.5 9.9 4.1-.3 8.3.1 12.7-1.1-2.2-.4-4.1-1.1-6-2-10.6-5.7-11.2-7-9-18.9.2-1.3.9-2.5.7-4.2-2.7.8-4 2.7-5.2 4.9-1 1.8-1.4 4.2-3.9 4.8-2.4-1.8-2.1-3.8-.8-6.1 1.7-3 4.2-5.1 6.4-6.2-1.2.8-3.2 1.7-5.4 2.4-2.7.9-7 .6-4.5 5.7-4.3 6.5-1.1 15.9-8.4 21.3-1.9 1.4-1.3 3.2-.1 4.8 2.8 3.6 2.9 7.6 1.8 11.8-2.8 10.7-3.4 21.9-6.4 32.6-.4 1.5-.7 3-2.6 3-3.9 0-3.7 2.9-3.2 5.1 1 4.4 1.1 8.5-.4 12.7-1.1 3-.5 5.4 2.2 6.8-.1.7-.3 1.1-.6 1.1-5.1 1.2-5.2 1.2-3.3 6.1 1 2.5 1.3 5.2 2 7.7.2.9.4 1.8.8 2.6.4.8.8 1.7.5 2.7-2.6 2.7-4.2-.1-5.8-1.3-5.3-4-10.7-8-17.5-8.9-1-.1-2.3-.8-2.9-.3-3.8 3.4-6.7 0-9.9-1-.5 0-1-.1-1.5-.1-.8-.2-1.4-.6-1.9-1.3-1.6-4.1-2.7-8.3-1.6-12.8.4-1.5.5-3.2-.3-4.8 1.5-11.5 3.1-23 4.3-34.6.9-8.4 1.3-16.8 2-25 .1-1.1.1-2.4.7-3.2 5.6-6.7 6-15 6.7-23 1-10.9 1.5-21.9 2.2-32.8.2-1 .5-1.9.7-2.9" style="fill:#3d353a"/><path d="m233 116c0-9 0-18 .2-27 0-1.3 1.2-2.5 1.9-3.8.7-.6 1.4-1.3 2.1-1.9 3.4-2.1 6.7-4.3 10.2-6.1 7.8-4.1 16-6.3 24.9-6 8.9.4 17.9.8 26.8 1.2-1 3.5.4 6.8.9 10.2.2 1.3.4 3.1-1 3.5-1.9.5-2.5-1.4-2.7-2.8-.5-3.2-1.9-6-4-8.4-.7-.8-1.6-1.4-2.6-.8-1.2.6-.5 1.7-.3 2.6 1.4 5.3 3.5 10.4 2.3 16-.3 1.3.6 1.8 1.7 1.9 1.5.3 3 .6 4.1-.8.8-1 .7-2.6 2.1-3.5 2.3.5 1.5 3.5 3.2 4.4.6.1 1.1.2 1.7-.1.9-.9.7-2.3 1.5-3.3.4-.3.8-.3 1.1 0 .1 1.6.2 3.2.3 4.8.9 2.9-1.3 2.5-2.8 2.6-3 .1-6-.2-8.9.2-1 .1-2.2.4-2.1 1.6.1 1.3 1.3 1.3 2.3 1.4 4.5.2 8.9.7 13.3 1.6 1.4 1.3 2.9 2.5 4.3 3.8.4.8 1.7.4 1.8 1.4.1 1.3-1.2 1.8-2 1.7-5.6-1-10.3 2.1-15.4 3-2.8.5-4.4 1.5-5.3 4.1-13 2.4-25.9 4.2-38-3.4-.6-.4-1.2-.8-1.8-1.1-.4-.1-.9-.2-1.3-.2-5.1.1-9.9 2.2-15 2.8-1.1-.1-1.8 2.4-3.5.5" style="fill:#606e78"/><path d="m197 778c.8-7.3 1.5-14.7 2.3-22 2.4-.1 2.5 1.6 2.5 3.4 0 3.8.1 7.6 0 11.4.1.7 1-.1.3.1-.2.1-.3-.1-.3-.4.7-8.1-1.3-16-1.1-24.3.1-2.5.7-4.9 1.2-7.3.6-3 2.9-3.3 5.4-3 2.5.3 3.2 2.2 2.9 4.4-.2 2-.8 3.9-.4 5.9 1.7.3 2.9-.6 4.1-1.4 1.2-.8 2.7-1.4 3.8-.7 4.3 3 8.8 1.7 13.3 1.1 2.1-.2 4 .2 5.4 2 2 3.3 1.4 6.8 1.1 10.3-.1.5-.4.9-.7 1.4-2-.3-1.2 3.4-3.2 2.5-3.3-1.6-7.1-1.4-10.4-3-1.2-.6-1-1.5.2-2.1.2-.1 1.9.9.7-.7 1.5-2.9 4.5-1.2 6.5-2.2 1.5-.7 4.2-.6 1.8-3.3-.2-.4-.1-.8.1-1.2-.5.1 0 .6-.3.8 1.4 4.3-2.3 3.9-4.3 3.9-3.4 0-6.9-.6-10.3-1.8-2-.7-3.9-.8-5.6 1 2.3.9 5.8-1.3 6.7 2.6-.4 1.5-1.5 2-3 1.9 0 .3.4.2.4.4.3 1.2.7 2.3 1.1 3.5.7 1.8-2 2.3-2.4 4.1 1.4 1.4 4.2.3 5.1 2.3 1.2 2.5-2.1 2.9-2.5 4.8 1.8.1 2.9-1.3 4.5-1.7 1.4-.5 3.2-1.4 4.1.2.9 1.7-1.2 2.3-2.3 3.1-.9.7-2 1.2-3 1.8-3.2 1.6-4.9 3.9-3.5 7.7.5 1.2.7 2.5-.6 3.7 3.8-3.1 7.5-6.2 12.8-3.6 1.6 2.4 1.3 5.1.5 7.6-.2.8-.7 1.4.6 1.5.6.4 1 .9 1 1.7-1.2 2.2-3.5 1.5-5.3 2-2.2.6-4.3 1.4-4.9 3.7-.7 2.5 1.3 4 3 5.3 3.6 2.6 7.6 4.1 12.2 3.3 1.5-.2 3-.5 4.5-.5.8 0 1.8.1 2.1.9.4 1.2-.7 1.8-1.5 2.2-1.6.9-3.4 1.4-5.1 2-.5.1-1 .2-1.5.2-3.1-.5-6.3-.4-9.4-.3-8.9.3-16.6-2.7-23-8.8-1.2-1.2-2.7-1.9-4.2-2.5-.5-7.9-.9-15.9-1.4-23.9" style="fill:#ae813f"/><path d="m198 802c1-.1 2.5-.7 2.9-.2 8.1 8.8 18.3 11.3 29.7 10.4 1.4-.1 2.8.5 4.2.8.4 2.5-.6 4.6-3.2 4.4-2.7-.3-6.4 2.4-8.1-1.9-.6-1.4-1.3-2.3-2.3-1.1-2.9 3.6-5.8 2.6-9 .6-1.1-.7-2.6-.2-3.8-.9-2.2-1.3-4.5-2.5-6.7-3.8v-.1c-.1-.5-.6-.8-1-1-.9-2.5-1.8-4.8-2.7-7.2" style="fill:#bfa75c"/><path d="m201 809c.3.3.7.7 1 1-.3-.3-.6-.7-1-1" style="fill:#afc3c1"/><path d="m303 96c-1.4-1.4-2.8-2.9-3.8-3.8-.9 5-1.4 5.1-11 2.3 4.9-3.5 1.7-7.8 1.5-11.7-.1-2.3-1.2-4.4-1.8-6.7-.3-1.2-.4-2.5-.6-3.7 2 .4 4.8.2 5.7 1.4 1.9 2.5 2.7 5.8 4 8.7.4 1 .9 1.9 2.1 2.6-.6-2.7-.7-5.6-1.8-8-1.3-2.6-.4-3.7 1.6-4.8 5.8 3.3 8.6 8.2 8.1 14.9-.7.6-.1 2-1.5 2.2-1.2-.5-.9-1.5-1-2.4.1-1.3-.2-2.6 0-3.1 0 .8 0 2.3 0 3.8.4 2.9 1.7 6-1.4 8.3" style="fill:#86939e"/><path d="m374 778c-1.2-.2-2.6-.7-3.7-.4-17.5 4.6-33.7 3.4-48.8-8.2-6-4.6-14.2-6.2-21-9.7-5.7-3-11-6.9-16-10.2 0 3.3 0 7.8 0 12.4-.1-5.6-.1-11.2-.2-16.8-.9-7.7-1.4-15.4 2.4-22.5 2.2-4.3.9-8.8 1.1-13.2.3-6.8.4-7.1 7-6.7.7 0 1.3-.1 2 .1 2.7.4 6.3-2.2 8 .3 1.9 2.8 2.1 6.7 1.8 10.4.4-2.5 0-4.8-.6-7-.9-3.7.8-4.9 4.1-4.9 3.2 0 6.5 1.1 9.5 0-.9-.4-2.5.8-3.5-1.2 3.1-2.8 7.8-1.1 10.9-3.5 3.7.3 1.8 2.9 1.7 4.6 0 .9-1.1 1.8-1.7 2.7-.2 1.1-.5 2.2-1.6 2.9-.2.1-1.8-.1-.7.7 2.6 1.8 2.1 4 1.5 6.3-.3.2-.6 0-.7 0-.4.1-.3.3.2.3.9 0 1.8-.1 2.4.8 0 .3 0 .7 0 1-.5.7-1.2 1.3.2 1.8.3.7.6 1.4 1 2.1-5.3 2.1-10.7 3.6-17.5 4.3 3 1.9 5.3 2.2 6.9.5 3.2-3.3 7.1-3.7 11.2-3.7 1 4.2 1.9 8.6 6.3 10.9-1.9 1.3-4.1.2-5.4.6 2-.5 4.6.8 7.3.7.3 1 .7 1.9 1 2.9.4 1 .8 2.1 1.2 3.1-2.5.9-5.2 1.2-7.8 1.7-1.6.3-4 1.7-4.7-.8-.7-2.2 1.1-3.6 3.9-4.5-3.5.7-4.7 4.4-8.2 3.7 1.6.7 3.2.8 3.7 2.7.2.8.9 1.7 1.7 1.7 5 0 7.8 3.5 11 6.4 2.1 1.8 5.3 4.1 7-1.4 1-3.1 3.6-.7 5.5-.3 3.3.9.8 2.3.4 3.6-1.2 7 4.1 13.6 11 13.7 1.8 0 3.6 0 5.5 0 5.9.1 5.9.2 5.9 6.3 0 .4 0 .8 0 1.1 0 .2-.1.4-.1.6-.4 1.3-.8 2.7-1.2 4.1" style="fill:#a06d34"/><path d="m237 765c1.1 3.9 1.7 7.9 3.3 11.6 3.2 7.4 7.4 14.4 10.3 21.9 1.1 2.7-.3 6.4-.6 9.6-.2.1-.4.1-.7.2-3 .8-4.3.4-2.7-3 2.7-5.6-1.7-15.4-7.6-17-3.8-1.1-6.3-2.9-5.7-7.3.5-1 1.3-1.5 2.4-1.7-3-.9-6.1-1-9.2-.4-1.6.3-3.2.7-4.9.9-1 .1-2.2.3-2.6-.8-.4-1.3.7-2.1 1.8-2.6 4-1.7 8-2.7 11.7-2.1-3.4 1.3-5.5-2.9-8.9-3.6-.5-.1-.8-.4-1-.8 0-.5.2-.9.6-1.2.7-.7 1.9-.8 2.4-2.1-1.9-1.5-4 .2-6-.2-1-.2-2.2-.2-2.5-1.2-.4-1.2.7-1.8 1.6-2.2 4.4-1.7 8.7-5 13.5-1.1 1.3 1 2.9-.1 4.4.2 1.3.7 1.3 1.8.4 3" style="fill:#a9874e"/><path d="m209 814c1.9.4 3.7.8 5.6 1.3.6.2 1.5.8 1.8.6 4.3-2.8 7.8-1 11.9.9 2.9 1.4 6-.2 7.1-3.9.4 0 .7 0 1.1.1 1.5.4 2.5 1.7 3.8 2.5.1.2.2.4.4.5-4.8.7-9.7 2-14.4 1.8-2.3-.1-4.2-2.2-7.5-1.2-3 .8-6.6-1.6-9.8-2.6" style="fill:#7a6f4b"/><path d="m250 808c-.4 5.1-3.7 7.7-9.9 8 0 0-.1-.2-.1-.2 3.1-2.9 5.4-6.8 9.9-7.9v.1" style="fill:#a9874e"/><path d="m400 427c-.8-1-1.8-3-2.5-2.9-4.7.8-9.3 2-13.9 3.1-.4.1-1.2.5-1.2.8-.7 8.6-7.2 4.5-11.4 5.2-2.2.1-2.3-1.7-2.9-3.1-.1-.4-.1-.9-.1-1.3 0-.2 0-.4 0-.7-6.4-14.7-12.8-29.4-19.5-44.7-2.1 6.8-3.9 12.2-5.6 17.6-2 .1-1.9-1.6-2.2-2.7-.8-3.8-1.7-7.4-4.9-10-1.4-1.1-.9-2.6-.6-4.1 1.1-5.5 2.3-11 2.6-16.6 1.6-7 1.3-14.2.3-21-1.5-10-1.3-20.5-3.4-30.5-.5-2.5-.8-4.9-2.6-6.8-3.3-10.7-7.7-21-12.5-31-.2-.5-.4-.9-.6-1.4-8-17.8-13-36.4-16.5-56-.6-3.2-1.5-6.5-4.5-8.6-1.4-.7-2.7-1.6-1-3.3 1.8-1.8 2.1-3.9 1.9-6.3 0-1.1-.3-2.2-.8-3.2-2.7-4.1-6.2-7.3-10.6-9.3-.9-2.9-.4-5.9-1.2-8.8-.2-1.8-.2-3.6 1.2-4.8-3.7-.8-8.4.9-10.5-4.3 1.3-1.9 3-.6 4.5-.4 4.4.5 8.8 1.5 13-.6.6-.4 1.3-.7 2-.7.8.2 1.2.7 1 1.6-1.8 1.3-3.5 2.6-5.3 3.8h.1c6 6.1 11.9 12.2 17.9 18.2 2.5 8.1 9.3 10.5 16.6 12.5 5.6 1.5 11.5 2.4 15.5 7.4.2.2.2.5.2.8-.2 5 .8 9.9 1.2 14.8.6 8.2-.7 16.2-3.3 25 3.2-2.2 3.1-5.5 5.4-6.9 2.7 1.1 1.3 4 2.6 5.6 1.3.2 1.5-1.8 2.9-1.4.1 1.2.2 2.5.3 3.7.5 1.1.3 2.3.3 3.5-.1.5-.2.9-.5 1.3-.8 1.8-3.5 2.3-2.3 5.6.7 1.8-3.3 2.7-5 4.5 1.4.3 3.3-1.1 4.2.7.6 1.4-.7 2.4-1.5 3.4-1.4 1.8-3.5 3-4.6 5.4 4.6.2 8.1-2.8 12.3-2.2.3.3.7.6 1 .9.5.9 0 1.6-.6 2.2-4.9 4.6-4.5 9.9-1.6 15.2 2.9 5.3 4.3 11 6.9 16.5 1.4 2.9.9 5.1-1.8 6.8-1.2.8-3 1.4-2.6 3.2.4 1.9 2.3 2.8 4 3.4 2.3.8 5.2-1.3 7.3 1.4.2.2 2.4-1 1.3-2.8-.3-.4-.4-.8-.6-1.3-.1-1-.1-1.9.8-2.4.9-.5 1.4.2 1.7.9 1.2 3 2.4 6 3.7 9-3.1 3.2-7.1 3.6-12 3.5 2.5.2 4.2.1 5.7.7 2.9 1.2 3.4 4 .7 5.6-4.2 2.4-2.6 4.2 0 6.3 1.3 1.1 2.4 2.3 3.2 3.8 1.7 3.3 4.5 5.3 8 6.3 1.4.4 2.9.9 4.1 1.8 1 .7 1.7 1.7 1.4 3-.3 1.4-1.3 1.8-2.5 2.1-2.5.5-5-.1-7.5.3 0 1.8 1.4 2.7 2.3 3.7 4.8 5 5.9 11.6 6.8 17.8 1.1 7.7 4.7 12.8 11.5 16 .6 2.1-3.1 3.2-2.1 3.8 3.6 2 3.1 7.6 7.7 8.4.9 1.9 1.7 3.9 2.7 5.8 1.3 2.5 1.6 4.4-1.1 6.3-1.1.7-1.5 2.3-2.2 3.5-1.6-.9-1.6-1.8-.8-2.8" style="fill:#433b42"/><path d="m296 171c-.3.3-.7.7-1 1-5.7 2.6-10.5-.6-15-2.9-3.7-1.8-2.4-6.1-1.7-9.5.5-3 1.9-5 5.6-5.2 4.3-.3 8.5-.5 12.8.3-4.8-.9-9.6-.8-14.8 0 .6-3.1 2.4-3.5 4.1-3.9 1.3-.4 2.5-.7 3.3-2 1-1.8 1-3.6-.6-6.5-.1-.5.1-.9.6-1-.6 0-.7.3-.6.8.2 2.3-.1 4.1-3.1 3.6-2.2-.9-2.8-3.1-3.6-5.1-3.5-8.7-9.5-10.4-17-4.8-1.2.9-2.3 1.9-3.5 2.7-4.1 2.8-6.3 2-7.3-2.9-.6-3.1-1.7-6-2.4-9.1-3.2-5.4-.1-10.3 1-15.4h.4c.5.1.8.4 1.2.6 7.8 5.9 16.8 6.4 26 5.7 4-.3 8-.9 12-1.3.8-.9 1.9-1.2 2.6-.3 1.6 2.1-.4 3.6-1 5.2 1-.9 1.8-3.1 3.7-2.2 2 1 .5 2.8.2 4.3 1.1-2 1.4-5 2.9-6 3.2-2.1 3.4-8 8.8-7.2 1.3 1.7 1 3.8 1.2 5.8.8 6.3.7 6.3-5.4 7.8-2.7.6-4.3 2.3-5.3 4.8-.5.3.7.6.1.2-.2-.1-.1-.3.2-.4 3.7-1.7 6.9.1 7.1 4.1-1 .9-2 1.7-3.4 1.9-.8.2-1.8.7-1.4 1.6 2.2 4.6 1.3 9.2.2 13.8 2.6-5.2 4.5-10.5 3.9-16.3.8-.6.8-1.7 1.7-2.2 0 3.9.5 7.9-.3 11.6-1.1 5.3-3.2 10.4-4.8 15.6-2.1 4.6-3.2 9.6-7.4 12.9" style="fill:#d1bda7"/><g style="fill:#5d5155"><path d="m395 402c-6.8 0-9.4-5.1-11.6-10.2-1.3-3.1-2.5-6.6-2.3-9.9.3-6.6-3.9-10.7-7.2-15.4-.8-1.1-1.4-2.3-2.2-3.5 1.2 0 2.5 0 3.7 0 1.8 0 3.7.2 5.5 0 1-.1 1.9-.9 2.8-1.3-.8-.8-1.5-2.1-2.3-2.2-8.7-.7-11.3-9-16.8-13.5-2.4-2-1.7-4.4 1.4-5.7 1-.4 1.8-1.3 2.7-2-1-.7-1.9-1.6-3-2-1.5-.6-3.2-.9-4.8-2.2 2.7-.2 6.2.6 7.9-.8 1.6-1.3 1.8-3.7 4.6-2.1 12 22 17.9 46 21.6 70.8"/><path d="m370 322c-.6.7-1.2 1.3-1.8 2 .7 1.2 1.4 2.4 2.1 3.6-1.7.4-3.5.7-5.2 1.1.4-3.8-2-.8-3-1.2-2.8-1.2-5.6-2.6-8.4-3.9.8-1.4 1.3-3.4 2.5-4 3.7-2 4.1-4.2 2.2-7.9-3.3-6.4-6.2-13-9.1-19.7-.3-.8-.2-2.6.2-2.7 2.4-.9 2.7-1.7.3-3-.2-.1-.1-1.6.3-2 1.6-1.9 3.4-3.6 5.2-5.3.8.5 2.4 1.2 2.3 1.5-1.6 8.4 3.5 15.2 5.7 22.6 1.9 6.3 4.5 12.6 6.7 18.9"/></g><path d="m308 131c-.4.7-.8 1.3-1.2 2-.3-.1-.4-.3-.4-.5 0-.2.1-.3.1-.3.8-4.3-3.8-1.8-4.8-3.9-.9.6-1.8 1.1-2.6 1.6-1.2-3.7.9-7.7 5.4-7.6 5.8 0 5.5-2.7 4.6-6.7-.4-1.7-.4-3.6-.6-5.4 4.5-1.4 8.9-.9 13.3.8 2.3 2.8 4.7 5.7 7 8.5-3.3.8-6.7 1.5-10 2.5-2.7.8-7-2.6-8 2.9-2.1.2-2.7 1.3-2 3.2-.4.9-.6 1.9-.8 2.9" style="fill:#676f76"/><path d="m351 252c-.3.7-.5 1.6-.9 2.2-.6.9-1.4 1.6-2 2.3-.6-.9-1.6-1.7-1.8-2.6-.3-1.6-.1-3.3-.1-5.2-2 3.1-3.9 6-5.7 8.8-.5-.2-1-.4-1.4-.6.5-3.5 1.1-6.9 1.4-10.4.4-7.5.6-15 1-22.5.2-3.1.6-6.2.9-9.3 1 3.1 2 6.1 3.1 9.2.1 3-.1 6 2.7 8.1.8 6.7 1.8 13.3 2.8 20" style="fill:#5c5155"/><path d="m342 214c-9-3.3-18.2-6.2-26.8-10.4-2.6-1.3-3.5-6.2-5.2-9.5 9 3.7 18 7.3 27 11.3 1.7.7 2.6 3 3.9 4.5-.6.7-.4 1.4.3 1.9.3.9.6 1.5.8 2.2" style="fill:#5c5055"/><path d="m400 427c.1.9.1 1.8.2 2.7.1.7.2 1.5.3 2.2 2.6 3-.2 6.9 1.6 10l-.1-.1c.8 7.4.8 14.7 0 22v-.1c-1.1 1.9-1 4.2-2 6.1v-.1c-1 .7 0 2.2-1.1 2.9-.5 1-.9 2-1.4 3-.2 0-.4 0-.6 0 .4-4.1.4-8.3 1.3-12.3 1.8-7.7-.5-15-1.6-22.5-.4-2.9-1-5.9-1.5-8.8-.6-3.6.8-5.7 4.9-5.2" style="fill:#fbe7cd"/><path d="m354 278c-3.7 1.3-7.4 2.7-11.2 3.8-.9.3-2.1-.5-3.1-.8.4-.8.6-1.8 1.3-2.4 2.3-2.1 4.8-4 7.2-6-.3-.4-.7-.8-1-1.2-2.2.4-4.3.9-6.5 1.3-.2-.3-.3-.5-.5-.8 2.7-2.1 5.3-4.1 8.5-6.6-1.7.1-2.8.2-5.1.3 2.9-2.3 5.1-4 7.3-5.6 1.2 1.1-.3 2.9 1 3.9.7 4.7 1.4 9.4 2.1 14" style="fill:#5d4f56"/><path d="m322 111c-4.4-.3-8.8-.5-13.3-.8-4.3.8-3.5 3.5-1.7 7.1-1.9-1.1-3.1-1.7-4.2-2.3-2.1 3.9-4.2 7.8-6.3 11.8-.4-.2-.8-.3-1.2-.5.7-2.1 1.4-4.3 2.5-7.7-2.4 2.1-3.7 3.4-6.3 5.7 1.1-2.9 1.9-4.6 2.3-6.3.1-.4-1.2-1.1-1.8-1.7-.2-2.9 1.3-4.1 4.1-4.2 1.1 0 2.3-.3 3.3-.6 4.2-1.5 8.3-3.8 13-2.3.2-.7.4-1.4.7-2.1 3 1.2 5.9 2.6 8.8 3.9" style="fill:#74593a"/><path d="m309 103c-5.5-.1-11-.1-16.5-.4-.5 0-1.5-2.1-1.2-2.6.7-1.2 2-2.7 3.1-2.8 3.6-.3 7.2 0 10.9-.1.7 0 1.3-.8 2-1.3.6 2.4 1.2 4.8 1.7 7.2" style="fill:#88939d"/><path d="m401 414c-1.7 2-2.8.7-3.9-.6-1.8-2.3-1.3-6.7-6-6.3.1-.8 0-1.9.4-2.3 1.1-1.1 2.5-2 3.8-2.9 1.9 4 3.8 8 5.7 12" style="fill:#5d5155"/><path d="m296 171c2-4.6 4.1-9.3 6.1-13.9.3.3.7.7 1 1-2 4.7-3.9 9.4-5.9 14-.3-.4-.8-.8-1.2-1.2" style="fill:#8e8375"/><path d="m348 232c-.7.3-1.5.6-2.2.9-.1-3-.3-6-.4-9.1.9 2.8 1.8 5.5 2.6 8.2" style="fill:#908889"/><path d="m402 464c0-7.4 0-14.7 0-22 0 7.4 0 14.8 0 22" style="fill:#a29787"/><path d="m309 128c-1.2-.9-2.3-1.7-3.5-2.6 0-.4.1-.8.1-1.2 1.8.2 3.6.4 5.4.6-.7 1.1-1.4 2.2-2 3.2" style="fill:#bbac97"/><path d="m305 87c.4.7.8 1.5 1.2 2.2.4.3.7.6.9 1 0 .3-.1.7-.1 1-.2 0-.4 0-.7-.1-1.4 1.4 0 3.4-1 4.9-.7 0-1.4 0-2.1 0 .3-2.9.7-5.9 1-8.8.1-.4.4-.4.8-.2" style="fill:#88939d"/><path d="m402 442c-.5-3.4-1-6.7-1.6-10 .6 3.3 1.1 6.7 1.6 10" style="fill:#a29787"/><path d="m400 470c.7-2 1.4-4 2-6.1-.7 2.1-1.3 4.1-2 6.1" style="fill:#afa59b"/><path d="m352 264c-.3-1.3-.7-2.6-1-3.9.3-.5.6-.5.9 0 0 1.3.1 2.6.1 3.9" style="fill:#433b42"/><path d="m399 473c.4-1 .8-2 1.1-2.9 0 1.3-.1 2.6-.1 4-.3-.4-.7-.8-1-1.1" style="fill:#afa59b"/><path d="m352 260h-.4-.4c0-1.4.1-2.8.1-4.2.2 1.4.4 2.8.7 4.2" style="fill:#5c5155"/><path d="m307 90c-.3-.3-.6-.7-.9-1 .3-.7.6-1.3.9-2 .1 1 .1 2 0 3" style="fill:#acc1be"/><path d="m341 212c-.1-.6-.2-1.3-.3-1.9.2.6.3 1.2.3 1.9" style="fill:#433b42"/><path d="m285 697c.5-6.7-1.6-12.6-5.2-18.2-2.7-4.2-.8-8.6 2.1-10.6 4.6-3.1 4.1-6.5 3.2-10.6-1.1-5.2-2.2-10.3-3.3-15.5-2.3-3.5-1.4-7.4-1.1-11 .6-6.1 1.2-12.2 2.2-18.3.4-2.5.8-5 .3-7.4-.9-3.9 0-7.2 2.6-10.2.4-.7.7-1.4.9-2.1.6-1.9 1-3.8.9-5.7 0-1.2-.3-2.4-.6-3.6-.4-1.7-.4-3.4-.4-5.2 0-1.2-.2-2.4-.5-3.6-.3-1.4-.4-2.9-.5-4.4-.1-1-.3-1.9-.5-2.9-.4-1.7-.3-3.4-.5-5.1 0-1-.3-1.9-.5-2.9-.4-1.7-.4-3.5-.4-5.2 0-1.2-.2-2.4-.5-3.6-.3-1.5-.4-2.9-.5-4.4-.1-1-.4-2-.6-3-.3-1.8-.6-3.7.9-5.3.8.4 1.5.9 2.3 1.3.3-1.1.8-2.1.7-3.2 0-1.1-.6-2.2-.9-3.3 1.2-1.6-.2-3.6 1-5.2 3.1.7 3.1 3.1 2.9 5.4-.2 2.2-.2 4.3.1 6.4 1 6.6 2.8 8.7 9.3 10.5.5.1 1 .3 1.5.3 7.9.9 11.5 5.4 14 13 2.4 7.4 1.6 15 4.3 22.3 1.3 3.6-2.5 5.3-4.7 7.5-.3.4-.6.7-1 1-.6.5-1.5.6-1.9 1.4 1 .6 1.9-.1 2.9 0 2.6-.2 5.3-.1 7.9-.1 4.2.1 8.2.1 11.7-2.9 1.4-1.3 3-1.3 2.1 1.5 1.6 4.3.3 8.2-1.5 12-.8 1.7-.3 3.9-.4 5.9-.1 1.3-.3 2.5-.4 3.8-2.6-.5-1.8-2.8-2.1-4.4-.3-1.5.4-3.7-1.7-4.3-2.2-.6-3.6.9-5 2.5-3.5 3.9-3.7 8.6-3.3 13.3.2 2.9.3 5.6-1.2 8.2-1.2 1.9-1.2 4.1-1.2 6.3 0 5.3 0 10.6 0 16 0 3-.4 5.9 3.1 7.7 1.9.9 1.2 2.8-.3 4.1-1.6 1.4-3.7 2-5.7 2.7 5.3.3 5.3.3 2.9 4.5-.1.1.4 0 .6.1 2.2.7 1.9 2.4 1.5 4.1-.6.9-1.6 1-2.6.9 1.1.3 1.9-.1 2.6-.8 3.2-1.5 6.6-2.3 9.8-3.7.3.2.6.4.7.6 2.5 3.9 8.5 5.6 5.1 13-2.4 5.2-5 8.1-10 9.4-3.3 1.2-7.2-.4-10 3-.9 1.1-2.8-.4-4.2-.4-1.3-.1-3.1-.9-3.8-.1-2.1 2.2-3.3 1.6-4.9-.5-.6-.7-1.9-.4-2.8-.5-2.7 0-5.5-.1-7.8-1.4-3.1-1.8-5.2-.8-7.5.9" style="fill:#362f3a"/><path d="m330 673c-2.4 4-6.5 3.7-10.2 4.1.1-3.3-1.4-4.8-5.4-3.9 2.1-1.2 3.5-2.1 5-3-2.1-.6-4.2-1.1-7-1.9 2.6-1.3 5-2.3 7.2-3.5.8-.4 1.3-1.4 1.9-2.1-.8-.4-1.7-.7-2.3-1.3-.9-.9-2.2-2-2.2-3-.2-8-.2-16 0-23.9 0-1.5 1.1-3.1 1.7-4.6.4-1.1 1.1-2.1 1.1-3.2.3-3.5.3-7.1.4-10.6.1-4.6 2.5-8.5 6.2-10 4-1.6 5.2-.8 5.5 3.7.1 2.1.5 4.2.8 6.2-.9 16.8-1.8 33.5-2.7 50-1.2 2.3-1 4.5.1 6.7h-.1" style="fill:#4d4553"/><path d="m375 772c-.1-4-2-5.8-6.2-5-1.6.3-3.3.2-4.9 0-2.4-.2-5.9.2-6.8-1.2-2.8-3.9-4.6-8.5-6.7-12.8-.2-.3.9-1.2 1.3-1.9 2.1-1.3 4.1-.2 6 .6 1.6.7 3.2 1.6 5.1 1.4 2 1.1 4.2 2.1 6.1 3.3 6.3 3.9 7.9 8.1 6.1 15.6" style="fill:#c3954a"/><path d="m363 753c-3.7-.7-7.4-1.3-11-2 .2-.7.3-1.4.5-2.1-1.5 0-3.8-.5-4.2.2-3.2 5-6.1 5.2-10.5.7-2.2-2.3-3.6-5.8-8.2-4.2-.9.3-3.6-1.8-3.8-3.1-.4-2-.5-2.2-2.1-1.1-.3.2-1.7-.7-1.7-1 0-1 .3-2.7.9-2.9 3.2-1.3 6.6-2.2 9.9-3.2.4-.1.9.2 1.6.4-2.3 1.6-4.4 3-7.6 5.3 5.6-.4 9.5-.7 13.4-.9-1.4 2-3.5 2.1-5.4 2.3-.8 0 0 .4 0 .4 2.2-1.2 3.2.3 4.1 1.9.4.2.7.4 1.1.5 2.6-.1 5.2-1.8 7.9-.2 5.1 2.9 10 6 15.2 9" style="fill:#815626"/><path d="m300 696c1.7.7 3.4 1.4 5.1 2.1.3.1.5.3.8.4.6-3.9 3.4-1.1 5.1-1.6 2.2-.6 4.5 1 7-1.5 1.3-1.3 5.3.1 8 .3.3.3.6.6.9.9-1.6 1.1-3.1 2.5-4.8 3.1-1.5.5-3.2.1-4.9.8 1.9.2 3.9.4 5.8.6 0 .5 0 .9 0 1.4-4.6 0-9.2-.2-13.8.2-1 .1-2.5 2-2.5 3.2-.2 2.9.4 5.9-.2 8.9-.5-2.9-1.1-5.8-1.3-8.7-.2-2.7-1.1-3.3-3.8-2.8-2.9.5-6 .8-8.8.3-2.9-.6-3.6.2-3.5 2.8.1 4 .1 8 0 12-.1 1.6-.6 3.1-.9 4.7-.1-7.3-.3-14.6-.4-21.9 1.5-1.4 3.1-.5 4.6-.2 5.8 1 6.3.7 7.6-5" style="fill:#6d4c25"/><path d="m330 721c-1.4.4-2.9.7-4.3 1.1-2.2.7-4.5.3-5.8 3.5-.4 1.1-5.8.3-9 .4.5-1.3.7-3.6 1.4-3.7 5.6-1 11.3-1.7 16.9-2.4.3.4.6.7.8 1.1" style="fill:#724a1e"/><path d="m348 744c-3 .4-5.9.7-8.9 1.1v-.1c-2-1.8-3.7-4.2-7.2-2.8 2.8-1 5.6-2 8.4-3 .2.2.1.4-.1.6.3.9 1.1 1.5 1.8 2.1.3.2.3 1.1 1 .5.7-.3 1.5-.2 2.2-.3.9.5 1.9 1.2 2.8 1.9" style="fill:#a06d34"/><path d="m325 714c2.6-3.3.5-5-2.2-6.3 1.4-1.3 2.7-2.4 4.1-3.6.4 3.7.8 7.3 1.1 11-1-.4-2-.8-3-1.1" style="fill:#724a1e"/><g style="fill:#815626"><path d="m338 733c-3.7 0-7.4 0-11.2 0 0-.4 0-.9.1-1.3 3.1 0 6.1 0 9.2 0 .2.5.6.9 1.2.9.3 0 .5.1.7.4"/><path d="m345 742c-1 .4-2 .7-3.1 1.1-.6-1.1-1.3-2.2-1.9-3.3 1.7.7 3.3 1.5 5 2.2"/></g><path d="m330 673c-.4-2.6-.8-5.2-1.1-7.8.4.4.7.7 1.1 1.1 0 2.2 0 4.4 0 6.7" style="fill:#362f3a"/><path d="m328 718c-.4-.1-.9-.3-1.3-.4.4-.5.7-.9 1.1-1.4.1.6.2 1.2.2 1.8" style="fill:#724a1e"/><path d="m337 733c-.4-.3-.8-.6-1.2-.9.4.3.8.6 1.2.9" style="fill:#a06d34"/><path d="m375 774c-.1-.2 0-.4.1-.6.1.2.1.3.2.5-.1 0-.2.1-.3.1" style="fill:#c3954a"/><path d="m349 430c-.2 4.8-2.7 9.7 1.3 14 .2.2.1.6 0 1-.6 13.6-1.2 27-1.8 40.8-1.3 5.7-.7 11.3-.3 17 0 1 0 2 0 3-.3.6-.5 1.5-1.1 1.5-4.3.2-7.2 2.7-10 5.7-.6-.2-1.2-.7-1.9-.6-4.2.6-8 .9-11.2-3-2.5-3.1-6.6-5-6.8-9.9-.1-2-2.1-2.8-3.7-3.7-1.1-.6-2.7-1.3-2-2.9.6-1.4 2.2-1.5 3.5-1.1 3.6 1 7.3.2 10.9.5-.3-.1-.6-.1-1-.1-8.3.1-12.5-2.7-15.7-10.3-1.2-3 1.4-4.1 2.8-5.7 7.4-4.7 15.6-5.3 24-4.8-3-.9-6.5 1.4-9.1-2.1-.8-1-2.5.3-3.6.8-3.2 1.5-6.4 2.9-9.8 3.7-1.5.4-3.6 1.4-4.5-.6-.9-2 1.3-2.6 2.8-3.6-2.2.5-3.1 3.5-5.5 2-1.6-1-1.5-3-1.3-4.6 1.4-10.4 1.3-20.9 0-31-.1-1.1 0-2.3.5-3.4 1.1-1.2.1-3.4 2-4.2 4.7-1.1 9.7-1.1 14-3.4 1-.4 2.1-.6 3.1-.4 5.2 4.2 11.2 4.6 17.6 4.1 2.4 0 4.8-.4 6.7 1.5" style="fill:#3e3b49"/><path d="m338 368c-.5 5.5-1 11-1.6 16.5-.1.8-.8 2.1-.7 2.1 5.9 3 4.7 9.5 7 14.3-.4 1.1-.7 2.2-1.1 3.3-2.6 1.5-4.1-.6-5.9-1.7-1.7-4.9-2-5-7.1-2.7-2.1.9-4.1 2-6.1 3.1-7.3.9-14.3 3.2-20.5 7.1-3.8 2.3-8.4 2.1-12 4.5-2.2 1.6-4.7 2.7-7.1 3.9-.4.2-.8.4-1.2.6-.6.3-1.2.5-1.7.8-.4.2-.8.4-1.2.6-1.4.6-2.9 1.1-4.3 1.6-.9.3-1.9.4-2.8.4-.8.1-1.5 0-2.3 0-1.1 0-2.1-.2-3.2-.4-2.6-.8-5.7-.4-7.9-4 5.8-.4 11.2.4 16.5-.6-11 1.5-21.8-.4-32.7-1.2-.6-.2-1.1-.5-1.5-.9-.5-.8-.6-1.6-.4-2.5.2-.6.6-.9 1.2-1.1 7.2-.7 14 2.1 21 2.7 8.8.8 17.6.5 26-3.8.2-.1-.9-.4-.4.1-10 4.9-20.6 4.4-31 2.2 7.1-1.4 14.3-2.1 21.5-2.9-12.6 1.1-25 3.3-37.8 1.3-2.2-6.4-.2-12.5 1.5-18.6 4.2-1.9 7.4.6 10 3 1.6 1.4.1 2.1-1.5 1.6 14.4 3.6 27.7-2.4 37.9-4.2-7.5.5-18.4-1.2-29-3.9-3.5-.9-6.9-2.4-10.6-2.9-2.1-.3-3.8-1.2-4.7-3.2-.3-1.1-.3-2.1.5-3.1 7.9.8 15.5 3.7 23.4 4.2 7.1.5 14.2 1.2 21.3-.9 4.7-1.4 9.8.2 15-1 .2 0-.9-.5-.5.1-2.7.1-5.4 1.1-9.1-.8 3.3-1.4 5.7-.8 8-.9-9.9.7-19.3-1.7-28.5-4.7-2-.7-4.2-1.1-5.6-3-.1-.6.1-1.1.6-1.4 4.8-1.8 9.5.3 14.2.6 12.9.8 25.7 2.6 38.6.6 3.3-.5 5.9-1.8 8.5-3.8 2-1.6 3.9-3.8 7-3.1.8.4.9 1.2.4 2.1" style="fill:#a09a9c"/><path d="m337 513c1.1-3.9 2.3-7.6 7.7-5.7.8.3 2-.8 3.1-1.3.1 1 .2 1.9.3 2.9-2.2 15.7-4.3 31.4-6.6 47-1.7 11.8-3.7 23.5-5.5 35-.2.9-.6 1.9-.9 2.8-.3-.4-.6-.8-.9-1.2-2.6 4.6-7 4.2-11.3 4.1-3.6 0-7.2 0-10.8 0-1.6-1-1.5-2 0-3 3.8-2.9 7.2-6.4 11.2-9.1 1.9-1.3 2.8-2.7 1.7-5-.9-1.8-.8-3.6.3-5.2 7.7-11 7.3-23.8 8.4-36 .7-7.8 2-15.4 2.3-23-.1-.9.3-1.6 1-2.2" style="fill:#4f4854"/><path d="m349 430c-4.7.1-9.6 1-14.2.2-3.7-.7-7-3.3-10.5-5.1-2.2-3.8-1.1-8-1.8-12-.3-2.1 1.5-2.7 3.4-2.3 2.8.5 5.4 1.5 7.8 3.1.4.3.8.6 1.1.9 3.9 1.7 8.1 1.1 12 1.8 1.2 3.8-2.4 3.8-4.1 5.3-1 .9-3.4.9-2.5 3 .7 1.8 2.6 1.7 4.3 1.4 2.8-.5 4.8-2.8 7.6-3.2.1 0 .2.2.3.3 0 .2 0 .3 0 .5-1.2 2-2.3 4.1-3.5 6.1" style="fill:#ba773a"/><path d="m334 415c-2.7-1-5.4-2.1-8.2-3-2-.7-3-.3-2.7 2.3.5 3.6.5 7.2.8 10.8-.8.3-1.6.5-2.5.8-3-3-1.4-6.9-1.8-10.4-.3-1.9.4-3.7.2-5.5-.2-.9-.4-1.9.4-2.6 1.5-1.2 3.2-1.4 5-1.6 3.4-.4 6.8-.6 9-3.9.4-.6 1.2-.3 1.7.2 1.9.7 3.9 1.4 5.8 2.1.1 1 .2 2 .3 3-.7.5-1.3 1.1-2.1 1.1-4.4.1-6.1 2.5-5.9 6.7" style="fill:#714e32"/><path d="m352 424c-2.7 1.3-5.2 3.3-8 3.7-1.9.3-4.1-1.6-6.1-2.6 1-1.2 1.9-2.6 3.1-3.7 1.8-1.6 3.9-2.9 5.9-4.3 1.4-2 3.6-2.6 5.7-3.2 1.4 1.2.3 2.9 1.1 4.2-.5 2-1.1 3.9-1.7 5.9" style="fill:#db9b4c"/><path d="m334 415c-2.1-6.8-1.7-7.2 8.1-7.9.2.2.2.4 0 .6-.1.7-.1 1.3-.1 2 .9 7.8-.4 8.6-8 5.3" style="fill:#b87c45"/><path d="m368 466c2.3.7 4.7 1.4 7 2 .5.6 1.2 1.1 1.5 1.8.4 1.2.4 2.5.6 3.7-1.2-.2-2.5-.2-3.6-.6-2.1-.8-4.1-1.8-6.1-2.8.2-1.3.4-2.7.6-4.1" style="fill:#d2bfa9"/><path d="m334 415c.8.1 1.7.1 2.5.3 5.5 1.3 5.8 1 5-4.4-.1-1 .4-2 .7-3.1.3.8.6 1.5.7 2.3 1 6.9.9 6.9 7.5 3.9 1-.5 2.1-.7 3.5-1.2 0 2 0 3.6 0 5.2-1.5-5.8-4.4-1.7-6.8-.9-3.7 0-7.4.1-11.2-.1-.7-.1-1.3-1.3-1.9-2" style="fill:#714e32"/><path d="m348 503c.1-5.7.2-11.3.3-17-.1 5.6-.2 11.3-.3 17" style="fill:#3a3640"/><path d="m387 454c-.5 2.9-.9 5.9-1.4 8.8-.6 1.6.2 3.3-.3 4.8-.7 2.1-.8 5.2-4.5 4.3.4-5.6.4-11.2 1.3-16.7.4-2.3 2.7-4.2 4.1-6.3.4.3.8.5 1.2.8-.1 1.5-.3 2.9-.4 4.3" style="fill:#f9e5cb"/><path d="m378 452c0-4.6.1-9.3.1-13.9-.1 4.6-.1 9.3-.1 13.9" style="fill:#8e8377"/><path d="m381 472c1.6-3 3.2-6.1 4.8-9.1 0 2.6 3.8 4.3 1.1 7.9-2 2.6-3.2 3.7-5.9 1.2" style="fill:#d2bfa9"/><path d="m287 181c.4 3.3.7 6.5 1.1 9.8 1 .6 2.1 1.2 2.5 2.3 1.5 3.8 4.5 5.3 8.2 6.1.3.9.6 1.8.9 2.8-1.7 2.9-4.7 3.5-7.7 4-5.9 1-11.9.6-17.9.3-1.7-.1-3.2-.7-4.3-2.2-1.4-.8-3.7-1.2-4.2-2.3-5.7-13-13.5-24.9-21.8-36.5-1.3-1.7.1-5.4.3-8.1.4-.6.2-1.4.6-2.1-.2-1-.4-2-.6-3 0-2.9-3.3-6.4 1.4-8.5.4-.1 1.2-.1 1.3-.4.1-.5-.1-.6-.1-.2 0 .3-.2.5-.6.5-4.8.1-6.1-3.9-8.1-7-.6-.9-1.3-1.8-1.9-2.7-.5-.1-.8-.4-1-.9-1.2-2.7-.5-5.5-.8-8.3-.4-3.5 1.8-4.5 7-3.7-.6-1.3-3.7.5-3-2 .5-1.8 2.5-1.9 4.3-1.3 2.6.9 4 2.8 5 5.2 1.2 2.9 2.8 5.7 2.8 9-.2 3.2.4 6.3.1 9.5.2 11.2 4.8 20.5 12.5 28.5 2.1 2.1 4.8 2.9 7.6 3.4 1.3.2 2.6.3 4 .5 7 .9 7.9 2.1 6.3 8.9-.2.7-.6 1.5-.1 2.3 0 .6 1.1-.1.4.1-.3.1-.4 0-.4-.2-.4-1 .1-2 .4-2.8.5-1.3.1-3.2 2.1-3.5 2-.5 2.8 1.2 3.7 2.5" style="fill:#d1bba6"/><path d="m249 132c-1.2-3.6-2.1-7.3-3.8-10.6-1.2-2.3-3.5-3.9-7.3-1.7 2 .3 3.2.6 4.6.8-.6.3-.8.6-1.1.6-5.2-.4-7.2 2.1-6.5 7.1.2 1.6 0 3.3 0 5-1.5-4.6-3.1-9.1-4.3-13.7-.2-.9 1.4-2.3 2.1-3.5 5.1-1.5 10.2-3.1 15.3-4.5 1.3-.4 2.8-.1 4.2-.1.8 2.8 1 5.4-1.1 7.9-.6.7.2 2.5.3 3.8.1 1.1.3 2.2.5 3.3-.2 4.5-.2 4.5-2.9 5.6" style="fill:#96774c"/><path d="m247 143c-4.2 2-2.8 5.7-2.8 9-2.1-3-4.1-6-6.2-9.1.1-2.1.1-4.2.1-6.4 2.9 2.2 5.9 4.4 8.9 6.5" style="fill:#85785f"/><path d="m235 133c.3.3.7.6 1 .9-.2.2-.5.3-.7.5-.1-.5-.2-1-.3-1.4" style="fill:#96774c"/><g style="fill:#85785f"><path d="m245 155c-.2.7-.4 1.4-.6 2.1-.1-.6-.2-1.3-.3-1.9.3-.1.6-.2.9-.2"/><path d="m243 155c-.6.3-1.2.6-1.9.8.7-.3 1.3-.6 1.9-.8"/><path d="m238 143c-.1.1-.1.3-.2.4.1-.1.2-.3.2-.4"/><path d="m244 155c-.3 0-.5 0-.8-.1.2-.2.3-.4.5-.6.1.3.2.5.3.7"/></g><path d="m298 211c1 .9 2.7 1.6 3 2.7 2.8 10.5 5.1 21 8.2 31.5 2.7 9.2 6.3 18 9.5 27 .5 1.5.9 3.1 1.4 4.7-1.1 1.3-2.6 1.4-4.1 1.4-14-.7-27.6 2.7-41 4.6-2.6.4-5.3 1-7.6-1-1-15-1.2-30-3.3-45-1.2-8.6 3.7-14.9 4.8-22.5.1-.7 4.3-.8 6.5-1.2 7.7-.4 15.4-.6 23-2.1" style="fill:#9b9597"/><path d="m207 386c-1.1 4.4-2.2 8.9-3.4 13.8-3.9-5.8-3.6-13-5.5-19.6-.3-.7-.7-1.3-1-2-.6-.5-.3-1.5-1-2-.7-2.7-1.1-5.5-2.1-8.1-2.7-7.1-2.6-7.5 4.7-7.4-8.2-.9-2.7-5.7-2.9-8.7-.3-3.7.2-7.4.2-11 0-2-.4-4-.1-6 0-.3 2.3-.2 3.5-.6 1-.3 2.5-.8 2.6-1.4 2.2-11.3 4.1-22.8 6.5-34 .8-3.8.6-6.8-1.8-9.8-2.1-2.5-3.1-4.5.7-7 5.7-3.8 4.4-10.7 5.6-16.4.3-1.5-1.6-3.7 1.9-2.7-.1-.6 0-1.2-.3-1.7-1.7-3-1.6-4.5 2.5-5.2 4.1-.7 8-2.5 12.7-4.1-4.1 4.8-11.6 6.4-9.7 14.2-1 6.7-2 13.3-3 20-.3.3-.6.7-1 1 0 2 0 4 0 6-1 .8.1 2.3-1 3 0 1.3 0 2.7 0 4-.3.3-.6.7-1 1 0 1 0 2-.1 3 0 2.5-.3 4.9-2 7-.7 5.4-1.4 10.9-2.1 16.3.5 4.1-1.7 7.4-2.7 11-.1.5-.3 1-.5 1.4-3.7 9.9-3.6 20-2.8 30.4.5 5.3 1.6 10.6 3.1 15.7" style="fill:#54474b"/><path d="m267 282c6.5-.8 13-1.7 19.6-2.3 11-1 22.3-1.8 33.5-2.7h-.1c1.1 2.1-.4 2.9-1.9 3.1-11.4 1.2-21.8 7.4-32.4 6.9 4.7-.6 10.6-.5 16.5-.4 2 0 5.2-.5 5.5 2 .3 2.7-2.9 2.6-4.9 2.9-10 1.3-20 3.2-30 1-.5-.1-1-.1-1.6.6.8 1.5 2.3 1.3 3.7 1.5 8.7 1.5 17.6.7 26.4 1 2.1.1 5.3-.5 5.6 1.8.4 3-3.1 2.9-5.2 3.1-7.2.9-14.5 2.1-21.8 1.5-2.2-.2-4.3.4-6.6 1.7 2.1 2 4.9 2.2 7.1 3.5 1.1.7 2.5 1.4 2.1 3-.4 1.6-1.9 2-3.2 1.8-6-.8-12.2-.7-18-3.1 1.6-6.3 3.2-12.7 4.8-19 .3-2.6.7-5.2 1.1-7.9" style="fill:#727072"/><path d="m220 266c1.2-2 2.1-4.2 3.5-5.9 1.5-1.9 3.4-3.5 5.3-4.9.7-.6 2.1-.3 3.1-.5-.3 1-.9 1.9-1 2.9-.4 5.3-2.2 11-.4 15.6 1.2 3.2 7.2 4.7 11 6.7 1.7.9 3.8 1 5.8 2.5-2.2.4-4.4.9-6.7 1.2-4 .5-8 1.2-12 1.1-7.3-.1-10.9-5.1-9.6-12.8.5-2 .7-3.9 1-5.9" style="fill:#54474b"/><path d="m298 211c-7.4 3.6-15 4.2-23 2.1-.5-.3-1.1-.7-1.7-.9-.6-.2-1.3-.2-1.9 0-3.6.7-3-2.2-3.9-4.1-1.5-3 1.1-2.9 2.4-3.9 10 1.2 20 2.3 29.8-2.2 0 3 2 6.7-2.7 8.4 0 0 0 .4 0 .4.4.1.7.1 1 .2" style="fill:#999091"/><path d="m206 338c1.3-3.6 2.5-7.2 3.8-10.8 0 .3.1.6.3.8.3.7.3 1.5.7 2.2.1.9.2 1.8.2 2.8.2 2 .4 4.1.7 6.1-2.2 1.1-3.9-.4-5.7-1.1" style="fill:#939ea5"/><g style="fill:#41383f"><path d="m212 311c.7-2.3 1.3-4.6 2-7 .3 0 .7 0 1 0-.9 5.1-1.7 10-2.6 15.2-.4 0-.8-.1-1.2-.1.3-2.7.5-5.4.8-8.1"/><path d="m215 296c.3-1 .7-2 1-3 .3.9.6 1.8.8 2.7.1.5-.2 1-.3 1.5-.6-.5-1-.8-1.5-1.2"/><path d="m211 330c-.2-.7-.5-1.4-.7-2.2.2.8.5 1.5.7 2.2"/><path d="m218 287c.1.1.4.2.4.2-.1.3-.2.5-.3.8-.1-.1-.4-.2-.4-.2 0-.2.1-.5.3-.8"/><path d="m215 304c.1-.4.2-.9.4-1.3-.2.4-.3.9-.4 1.3"/><path d="m218 289c-.1.3-.2.6-.3.8-.1-.2-.4-.5-.3-.7.1-.3.4-.4.7-.6-.1.2-.1.3-.1.5"/><path d="m196 376c.3.7.6 1.3 1 2-.3-.7-.7-1.3-1-2"/><path d="m216 287c.3-.3.6-.7 1-1-.3.3-.7.7-1 1"/><path d="m214 301c.3-.3.6-.7 1-1-.3.3-.7.7-1 1"/></g><path d="m228 458c-.4-2-.7-4.1-1.2-6.9 3.7-.4 7.7-.9 11.8-1.3 3.1-.3 6.3-.3 9.4-.5 9.2-.5 15.5-5.5 19.3-13.5 2.3-4.8 5-4.4 9.1-2.5 7.2 3.3 14.3 7.3 22.7 6.4.6-.1 1.3-.2 3-.4-10.7-1.3-19.6-4.6-27.8-9.4-.8-.5-1.4-1.5-2.1-2.2 1-.6 2.2-2 3.1-1.8 4 .7 8 1.9 13.2 3.1-2.4.6-3.6.8-4.8 1.1 0 .5 0 1.1 0 1.6 7.1 0 14.2 0 21.3 0 .8 10.8 2.6 21.6.7 32.5-.5 2.8-1.1 5.9 1.4 8.9 2.1 2.5-.8 5.6-5.1 5.6-2.5-3.6-6.5-4.5-9-2.1-1.1 1.4-2.9 1.8-4.5 1.9-10.2.4-20.5 2.4-30.6-1.3-1.1-.4-2.3-.5-3.4-.5 2.9.4 16 4.7 18 6.1-5.4.6-10.3.2-15.2.3-3.2-.4-6.5-.3-9-.9 2.4.7 5.7.5 8.9.9 2.6.3 5.3-.6 7.8.5-1.1 2.5-2.1 4.7 2.3 5.1 1.6.1 3.1 1.9 4.7 2.9-1.7 2-3.2 4.1-5.2 5.8-.6.5-2.3.1-3.4-.3-4.2-1.2-5.8 1-6.4 4.7-.3 1.6-.7 3.2-1 4.8-.9 4-3.5 5-7.4 5-6.5 0-12.9.4-19.4 1.1-1.2.1-2.7 1.8-3.1 3.1-1.1 3.8-1.6 7.7-2.6 11.5-.2.8-1.6 1.3-2.4 1.9-.4-.9-1.1-1.7-1-2.6.3-4.8.8-9.6 1.2-14.4.1-.8.5-1.8.2-2.4-2.3-3.3-5.9-6.7 1.5-8.4.4-.1-.1-3.9-.2-5.9-1.7-.1-1.9-1.5-2.2-2.8.1-1.2-.3-2.4 0-3.6.1-.2.4-.4.1-.7.1.3-.1.5-.5.5-.4 0-.8-.2-1.2-.5-.6-.9-.6-1.7 0-2.5 1.6-1.1 1-2.5.5-4-1.1-3.6-.1-7.2-.3-10.8-.1-1.4.9-2.5 2.7-1.9 1.6 3.2 3.5 6.2 3.9 9.9.3.5.5 1.1.6 1.7.1.4-.6 1 .3 1.2.5.3.7.8.7 1.3-.2 1-.6 1.8-1.5 2.2-.3-.2-.5-.1-.6.2.3-.1.5-.2.8 0 2.6-.8 5.1.5 7.6.3.9 0 1.7-.2 2.6-.3 2.2.3 4.2 1.4 6.6 1.1-6.5-.4-8.7-2.6-10-10.2-.3-1.8-.4-3.6-2-4.8-2.2-4-3.7-8.7-2.9-13.8" style="fill:#3e3b49"/><path d="m221 493c.6 1 1.1 2.1 1.7 3.1-.3 1.5-.6 3-.9 4.5-1.9-.5-3.9-1-5.8-1.6v-.1c-.6 2.5-1.6 4.1-4.4 2.3-.5-.1-1-.1-1.5-.2-1-2.7-3.8-1.4-5.5-2.5-.2-.4-1.2-.3-.6-1.2-.7.8.8 1.1.5 1.8-1 2.2-2.8 1.1-4.4 1.2-.9-.7-1.9-1.3-2.2-2.5-.2-.6 1.1-1 .3-1-6.2 0-6.6-5-7.6-9.1-.6-2.3-1.4-4.5-1.8-5.9.6.9 1 2.7 1.5 4.5.6 2.1-.4 2.6-2.2 1.3-2-6.7-4.4-13.4-5.7-20-.7-3.5.9-7.5 1.1-11.2.1-1.7-.4-3.4-.7-5.2 0 0 .1-.1.1-.1.4-.1.7-.4 1-.7 7-4.5 13.7-9.8 22.5-10 1.9-.1 3.9.5 5.8.8-6 2.1-5.9 2.1-5.9 8.8 0 3.9.8 7.6 1.9 11.2.4 1.3.9 2.8 2.6 2.5 1.7-.2 1.7-1.8 1.9-3.1.6-4.9 1.7-9.7-2.6-13.9-2.8-2.8-1.5-4.3 3.9-5.1 1.1 1.7 2.1 3.5 3.3 5.1 1.1 1.6 2.4 3.1 3.6 4.6.4.3.8.6 1.1 1 .3.3.6.5.9.7.2.3.4.4.7.4.6.1 1 .5 1.3 1.1v-.1c.8.3.5 1.4 1.3 1.7v.1c.2.4.5.8.8 1.1.3.4.6.8.9 1.2 1.2 4.6 2.5 9.2 3.7 13.9 1 .4 1.1 1.4 1.3 2.2.1 1.2-.3 2.5.4 3.6.3.8.1 1.6.5 2.4.2.6.6 1.1.7 1.8 0 .5 0 .9-.1 1.3-.2.7-.6 1.3-1 1.8-2.6 2.1-4.8 2-6.3-1.3-.3-.3-.6-.7-.9-1-.7-.1-.8-.4-.3-.9-.2-.3-.5-.7-.7-1-1.6-2.5.4-5.6-1.5-8.1-.2-2.4 1-4.6.3-7.2-.8-3.2-2.2-3.1-4.3-1.3-2.7 4.8-.9 9.9-.9 14.9 0 2.6 2.1 5 .4 7.7.3.7.5 1.3.8 2 .4 1.2 1.2 2.4.9 3.9" style="fill:#d2bfaa"/><path d="m235 722c.1 8.7.1 17.4.2 26-4.2-3.3-8.8.2-13-.8-1.4-.3-3.7.4-4.2-.2-2.4-3.8-3-.5-4.6.6-1.2.8-3.3.2-5.3.2.2-2.1.6-4.4.5-6.6-.1-1.4-1-2.8-1.5-4.1-1.6 1-4.4 1.7-4.6 2.9-.8 4.7-1.1 9.5-1 14.3.1 6.2.7 12.4 1.2 18.7-.5 0-.9 0-1.4 0 0-3.8.2-7.7-.1-11.5-.1-1.8-1.3-3.5-1.9-5.2 1-7.7 2.4-15.3 2.9-23 .2-2.3-1.9-4.7-3-7.1-.6-1.1-.5-2.1.3-3.2 6.5 6.9 6.5 6.9 9.8.2 7.2-.3 14.5-.6 21.7-.9 1.3-.2 2.7-.3 4.1-.4" style="fill:#765429"/><g style="fill:#292530"><path d="m302 479c3-1.4 6.7-2.2 3.4-6.9-.8-1.2-.4-3.2-.4-4.9 0-11.7 0-23.5 0-35 .4 0 .7 0 1.1 0 .3 8.4.8 16.9.9 25.3.1 3.6-.7 7.2-.9 10.9-.1 1.1.4 2.2.6 3.2 1-.4 2.1-.7 3-1.3 1.6-1.1 3-2.4 4.4-3.7.4.3.7.7 1.1 1-2.3 1.5-4.6 3-7 4.5.5.7 1 1.4 1.6 2.1 4.9-1.9 9.8-3.8 14.7-5.8 2.8-1.1 2.7-1.1 4.1 1.8.3.6 1.6.9 2.5.9 2.6.1 5.2 0 7.4-.5-8.9 2.2-17.7 4.4-26.6 6.6-5.2 4-5.2 4-.7 9.6 1.1 1.4 1.7 2.9 1.1 4.6-.6 1.7-2.1 1-3.4 1.2-2.2.3-4.3 1.6-7.3 1 2.3 4.3 5.5 6.5 8.5 9 2 1.6 5.5 3.5 3.7 6.1-1.8 2.7-4.3-.7-6.3-1.7-3.6-1.8-7.2-3.3-10.5-5.6-1.4-1-3.2-1.7-4.5 0-3.2 4-6.6 7.8-5.8 13.7.6 4.3 1.5 8.9-.8 13-.3 1.7-.7 3.3-1 5 0-6 0-12 0-18-.5 0-1-.1-1.5-.1-.4.9-.8 1.8-1.2 2.7-.5-.1-1-.2-1.5-.4 1.3-4.2 2.3-8.4 3.8-12.5 1.6-4.3 3.5-8.6 5.4-12.7.7-1.5 1.9-2.7 2.9-4 3.2-2.9 6.2-5.9 9.2-8.9"/><path d="m256 483c5 0 9.9 0 15 0-7.2-2.1-14-4.1-20.6-6 13.9 0 28 0 42.5 0 2.1 0 4.1 0 6.2 0-3.6 3.4-5.5 9.4-12.3 5.5-2.2-1.3-6 .4-9.1.6-4.2.4-8.5.7-12.7 1-3 0-6 0-9 0-.4-.4-.3-.8-.1-1.1"/></g><path d="m209 723c-.3 2.6 1 6.3-3 6.6-3.5.2-6.6-1.3-6.6-5.9-.1.7-.3 1.5-.4 2.2-.2-2.3-.4-4.6-.7-6.9 3.6 1.4 7.2 2.7 10.7 4" style="fill:#957d41"/><path d="m188 488c.5-.6 1.4-1.3 1.3-1.8-.3-1.9-1-3.7-.5-5.8 1.1 3.6 1.8 7.4 3.4 10.7 1.1 2.2 3.7 3.5 5.4 5.4 1 1.1 1.6 2.6 2.5 3.9.5.4.5.8-.1 1.1-6-2.8-9.3-7.8-12-13.5" style="fill:#8d8278"/><path d="m200 501c0-.4.1-.7.1-1.1 1.3-.6 2.6-1.2 4-1.9 1.9 1.3 6.5-3 6.1 3-3.5 0-6.9 0-10.2 0" style="fill:#867b6f"/><path d="m305 96c.3-1.6.7-3.2 1-4.9-.3 1.7-.6 3.3-1 4.9" style="fill:#acc1be"/><path d="m254 112c-.4-.2-.8-.4-1.2-.6.3.1.7.4 1.2.6" style="fill:#96774c"/><path d="m250 808c-3.3 2.6-6.6 5.3-9.9 7.9-1.3-1-2.7-1.9-4-2.9 2-1.2 4.1-2.3 6.1-3.5-.1.3-.1.6-.2 1-5.4-.8-10.9-1.5-16.3-2.5-1.2-.2-2.5-1.1-3.2-2.1-1.3-1.9-3.6-5.1-3-5.9 1.5-2.2 4.4-3.5 6.9-4.8 1.4-.7 3.1-.7 4.7-1 4.9-2 9.1 1.3 13.8 1.7.7-.1.1-.9.2-.2 0 .2-.1.3-.4.2-4.7-1.3-9.5-2.4-14.4-2.6-.9.3-1.8.6-2.1.7.3-3.2.7-6.5 1-9.7-.7-1.5-4-1.9-2.7-4 1.2-1.9 3.9-1.3 6-.7.8.2 1.3.9 1.7 1.7.1 3.8 2.3 5.6 5.8 6 3.7.4 5.9 2 6.5 6 .4 2.5 2.8 4.8 3 7.3.2 2.3-1.3 4.7-2.1 7 .4-.1 1.5.1 2.6.4" style="fill:#d0a654"/><path d="m234 781c-2.2-.4-4.5-.8-6.8-1.2.7 1.8 1.2 3 1.8 4.2-3.4.5-7.9-1.9-9.7 3.6-.2.6-3.4.2-5.2.3.6-1.2 2-2.7 1.6-3.4-2.5-5.2-.2-8 4.2-10.2 1.8-.9 3.5-1.8 5-3.3-1 .3-2 .5-3.1.8-.6-1.3-.6-2.3 1.3-2.1 4.3 1.5 8.5 3 12.8 4.5-5.5 1-11 1.9-16.4 2.8 0 .4.1.8.1 1.2 6.3 0 13-4.3 19 1.7-1.9.6-3.3.8-4.7 1.1" style="fill:#7f5322"/><path d="m223 770c-.4.7-.9 1.4-1.3 2.1-2.5.9-5.1 1.7-7.6 2.6 1.5-2.1 3-4.3 4.4-6.3-2-.7-4.3-1.6-6.7-2.5 1.1-1.5 2.2-3 3.3-4.6 0 0-.6-1.2-1.4-2.8-.3.1-1.7.4-3 .6-.1-.3-.2-.6-.2-.8 2.4-.7 4.7-1.4 7.1-2.2 2.1-1.7 4.2-1.7 6.4-.1 1.9.3 3.8.6.1 1.2-.4.1-.9.2-.9.3 3 1.1 6.3 2.4 9.6 3.3.8.2 1.9-1.1 2.9-1.7.1 1 .1 2 .2 3-1 .3-2.5 1.2-3 .8-5.6-4.4-10-.5-14.9 2 3.3 0 6.7 0 10 0 .2.5.3 1.1.5 1.6-1.9.9-3.8 1.7-5.7 2.6-.4-.5.1-1.2-.2-1.7 0-.1-.2-.1-.2 0 0 .6.1 1.2.5 1.7-.1.3 0 .6.1.9" style="fill:#784f1c"/><path d="m224 756c-2.1 0-4.3 0-6.4.1-1.2-.5-2.4-1.3-3.7-1.6-1.6-.3-3.3-.2-4.9-.3.1-.6-.1-1.7.2-1.8 2-.8 4.1-2.2 6.1-2.1 3.4.2 6.8 1.1 10 2.2 3.6 1.2 5.8.6 6.3-3.5v.1c1 1.1 1.9 2.2 2.9 3.3-1.2.5-2.4 1.1-3.6 1.5-2.4.8-4.8 1.4-7.1 2.1" style="fill:#765429"/><path d="m230 793c5.5-.7 10.5.6 15.2 3.3-4.8-.8-9.5-1.5-14.3-2.3-.3-.3-.6-.7-.9-1" style="fill:#956a17"/><path d="m232 749c.2-.1.3-.3.5-.4-.2.1-.3.3-.5.4" style="fill:#765429"/><path d="m305 87c-.3.1-.5.2-.8.2 0-1.6 0-3.2 0-4.8.3 0 .6 0 .8 0 0 1.5 0 3 0 4.6" style="fill:#acc1be"/><path d="m319 708c-1.1.8-1.3 2.3-2.2 2.8-1.4.9-3.5 1.1-5.3 1.2-.7 0-1.5-1.3-2.2-1.9 1.1-.7 2.1-1.8 3.2-2 2.2-.3 4.3-.1 6.5-.1" style="fill:#5b3016"/><path d="m318 716c-.9.4-1.9.8-2.9 1.2.8.4 1.6.8 2.4 1.1-.1.3-.2.6-.3.9-2.2-.6-4.5-1.1-6.7-1.8-.1 0 .3-2.5.5-2.5 2.3-.2 4.5-.1 6.8-.1.2.3.2.7.2 1.2" style="fill:#522d12"/><path d="m321 704c-.3-.1-.5-.3-.7-.4.3-.1.5-.3.8-.3.3 0 .5.2.8.3-.4.2-.7.3-.9.4" style="fill:#6d4c25"/><path d="m339 736c-.5.3-1.1.6-1.7.8 0 0-.2-.4-.3-.6.7 0 1.3-.1 2-.2" style="fill:#815626"/><path d="m325 714c-.4-.1-.9-.2-1.3-.3.4.1.9.2 1.3.3" style="fill:#724a1e"/><path d="m300 696c1.8 4.7.2 7.2-4.6 6.7-2.6-.3-5.1-1.2-7.7-1.8-.8-1.4-1.6-2.8-2.5-4.2.5-1.5 1-2.9 1.4-3.9 4.6 1.1 9 2.1 13.4 3.2" style="fill:#a06d34"/><path d="m235 765c-1.4.5-2.7 1.1-4.1 1.5-.1 0-.5-1-.8-1.5 1.4-.4 2.9-.8 4.3-1.2.2.4.4.8.6 1.2" style="fill:#784f1c"/><path d="m261 309c6.8.6 13.6 1.2 20.3 1.8.1-.4.2-.7.3-1.1-4.2-2-8.3-3.9-12.5-5.9.1-.6.1-1.2.2-1.8 12.3-1.1 24.5-2.1 36.8-3.2 0-.6 0-1.2 0-1.7-1.7 0-3.3 0-5 0-9.6-.3-19-.8-28.8-.9-3.4 0-3.6-2.2-4.2-4.4 1.5-.2 2.9-.6 4.4-.7 9.1-.2 18-.2 27-.5 2.5-.1 5-.8 7.3-2.3-8.7 0-17.3 0-26 0 0-.3-.1-.7-.1-1 2.2-.5 4.3-.9 6.5-1.4 10.3-2.3 20.6-4.6 30.8-7 .7-.2 1.2-1.3 1.8-1.9 5 10 10.7 19.7 12 31 2 3 .6 6.3.1 9.2-1.6 10-.4 19.8 2.6 29.5 1.5 4.9 3.6 9.7 3.4 15-.3 2.5-1.8 3.7-4.3 3.7-1.6 0-3.2.2-4.8.6-14.3 2.4-28.8 2.5-43 2.3-5.3.5-10.5-1-14.5-1.5 4.3.2 9.3 2.7 14.8 3.1.7.1 1.8.5 1.7 1.5-.2 1.3-1.3 1.3-2.3 1.2-7.3-.5-14.5-1.2-21.6-2.9-2.6-.6-5.2-1-7.8-1.5-5.2-.9-7.4-3.3-7.2-7.4 2.8-12.9 5.6-25.7 8.5-38.6 1-4.4 2.3-8.8 3.5-13.3" style="fill:#a09a9c"/><path d="m289 141c1.8 1.6 3.7 3.2 5.4 4.7-1.7.3-5 .2-3.8 4.4.1.3-1.9 1.5-3 1.8-1.5.5-3.1.6-4.6 1.3 5.3.3 10.6.5 16 .8 0 .4 0 .8 0 1.1-4.9 0-9.9-.1-14.8 0-5.5.2-4.6 4.7-5.1 8-.5 3.2-.1 5.7 4.4 6 3.9.3 7.7 1.8 11.6 2.8-4.5.4-8.9 1-13.4 1.3-1.5.1-3.1-.9-4.6-1.3-13-3.1-24.5-10.7-26.3-23.6-.6-4 1.5-5 4.5-5.7 1.9 6.4 7.7 9.9 11.3 15 1 1.5.5 4.8 3.3 4.1 2.4-.5 2.4-3.4 3-5.4.4-1.3.7-2.6.9-3.9 1-6.5 3.5-9.3 11.2-7.6 3.4.5 2.8-2 3-3.9.3-.2.7-.2 1 .1" style="fill:#b09981"/><path d="m337 362c-1.4-5.4-2.4-11-4.2-16.3-4.3-12.5-3-25-.8-37.5 1.3 1.8 3.5 3.6 3.7 5.5 1.4 10 2.4 20 3.2 30 .6 7.1.7 14.2.8 21.3 0 1-1.1 2-1.7 3-.1-.6-.2-1.2-.4-1.8-1-1.1.5-2.9-.6-4.2" style="fill:#ab3a24"/><path d="m255 143c-5.7 2.6-2.9 6.9-1.8 10.5 1.8 6 6.7 9.5 11.9 12.4 3.9 2.2 8 4 12 6.1 3.7 1.5 7.3 3.1 11 4.7-.2.9-.6 2.6-1 4.4-4.5-2.7-4.5-2.7-7 5 .1-1.6-.1-3.3.4-4.8 1.3-4.2-.5-6.2-4.4-6-14.7.5-20-10.2-24.7-21-1.7-3.9-1.6-8.7-2.3-13 2.8-2.3 4.4-.7 5.8 1.9" style="fill:#826c58"/><path d="m299 199c-5.5 1.1-6 .7-10.7-8.3 3.9-1.7 5 2 7 3.8 1.5 1.3 2.5 3 3.7 4.5" style="fill:#a18e7b"/><path d="m393 409c1.1 2.6 2.3 5.2 3.2 7.9.2.5-.5 1.3-.8 2-.5-.5-1.4-.9-1.6-1.5-.7-2.6-1.1-5.3-1.6-8 .3-.1.6-.2.8-.4" style="fill:#5d5155"/><path d="m292 176c-.1-.1-.3-.2-.4-.3.1 0 .2 0 .3.1 0 0 0 .1.1.2" style="fill:#e2e7e5"/><path d="m369 429c-.2-.3-.5-.6-.7-1 .2.4.4.7.7 1" style="fill:#e3e7e5"/><path d="m255 143c-2-.6-4-1.3-5.9-1.9 0-3.1 0-6.2 0-9.2.6-1.3 1.2-2.7 1.9-4 .3-.6.7-1.2 1.1-1.8.9 3 2.1 6 2.8 9 .8 3.8 1.6 5.6 5.6 2.3 2.8-2.3 6.3-4.2 9.7-5.5 4.9-1.9 9.9.7 11.9 5.6 1 2.4 2 4.9 3 7.3-1.6.2-3.2.4-4.8.7-3.5.7-4.6 3.2-5 6.6-.4 3.1-1.3 6.2-2.6 9-.5 1.2-2.3 2.1-3.7 2.5-.4.1-1.5-1.8-2.2-2.9-1.5-2.2-2.4-5.3-4.4-6.4-4.8-2.5-6.2-6.7-7.4-11.3" style="fill:#c8af95"/><path d="m307 132c.1.3.2.5.2.8 2.4 7.3-2.3 13.2-3.9 19.8-1.3-2.7-3.5-5-.7-8.2.9-1 0-3.7-.3-5.6-.3-1.8-1.1-3.5-1.7-5.4 2.2-.5 4.3-1 6.4-1.4" style="fill:#f4ddc5"/><path d="m281 126c-.6-.1-1.3-.4-1.9-.4-.8.1-1.5.4-2.2.6.4-.7.6-1.6 1.2-2.1.6-.5 1.4-.7 2.7-1.3-1.9 0-3.3 0-5.4 0 5.3-3.5 10-2.3 14.7-.9.4.1.5 1.2.8 1.8-3 1.2-5.2 4.7-9.2 3-.5-.1-.7-.3-.7-.7" style="fill:#806b56"/><path d="m298 144c-.1-1.7 0-3.5-.4-5.1-.3-1.5-1.1-2.9-1.5-4.4-.1-.3.7-1.1 1.2-1.2.4-.1 1.1.6 1.3 1 .9 2.1 2.4 4.2 2.3 6.3 0 1.7-1.9 3.4-3 5 .1-.5.1-1 .1-1.6" style="fill:#f4ddc5"/><path d="m297 159c-1.7.4-3.5.8-5.2 1-.5.1-1.1-.8-1.6-1.2 2.1-.6 4.2-1.3 6.3-1.9.2.7.3 1.4.5 2.1" style="fill:#9e866e"/><path d="m299 157c-.1 0-.3.1-.3.1-.1-.1-.1-.2-.1-.3.2 0 .3-.1.5-.1-.1 0-.1.1-.1.3" style="fill:#b09981"/><path d="m298 144c-.1-.1-.3-.2-.4-.2.1 0 .3.1.4.2" style="fill:#f4ddc5"/><path d="m289 141c-.3 0-.7 0-1 0 .3 0 .7 0 1 0" style="fill:#c8af95"/><path d="m281 126c-.4 0-.7.1-1.1.1.2-.3.3-.5.5-.8.2.3.4.5.6.7" style="fill:#806b56"/><path d="m368 324c-.4.5-.8 1-1.2 1.5-.1-.1-.2-.2-.3-.3.5-.4 1-.8 1.5-1.2" style="fill:#433b42"/><path d="m286 528c-.3-5.1-1.8-10.5-.6-15.3 1.2-5 4.9-9.5 7.8-14 .2-.4 2.7.4 3.9 1 5.4 2.9 10.8 6 16 9 .5-.5 1-1.1 1.5-1.6-1.9-1.4-3.9-2.6-5.6-4.2-2.9-2.5-5.6-5.1-8.3-7.8-.5-.5-.1-2.8.1-2.8 3.4-.6 6.8-.9 10.9-1.4-.4-1-.7-2.8-1.7-3.8-5.6-5.2-5.3-7.2 2-10-.5 2-3 2.8-.6 6.4 4 6.1 7.4 10.5 15.7 8.1-.1.5-.2.9-.4 1.4-5 0-9.9 0-14.9 0 4.3 2.2 6.8 4.4 7 9.7.1 2.3 4.8 4.2 6.7 6.8 2.5 3.5 5.2 2.5 8.3 1.7.8-.2 2 1.2 3.1 1.8-1.4 16-2.4 32-4.4 47.9-.6 4.7-3.4 9.3-5.8 13.5-1.4 2.4-2.1 3.8-.1 6 .6.6.5 3.1-.1 3.5-4.8 3.5-9.8 6.7-14.7 10 5.5-4.2 3.5-9.5 3.3-15.2-.2-8.3-3.6-15.4-5.9-22.8-.6-2-5.5-2.8-8.5-3.9-2.4-.9-5.3-1-7.5-2.3-5.1-3-7.1-9.3-6.2-15.5.5-1.9-.6-4.1-1.1-6.2" style="fill:#3a3640"/><path d="m320 609c-1.5 3.2-3.9 4.1-7.5 2.1 2.5-.7 5-1.4 7.5-2.1" style="fill:#4d4553"/><path d="m312 594c0 1 0 2 0 3-1.2-.3-2.5-.5-3.7-.8 1.2-.7 2.5-1.5 3.7-2.2" style="fill:#3a3640"/><path d="m320 677c-.9.4-1.9.7-2.8 1.1-.1-.3-.1-.5-.2-.8 1-.1 2-.2 3-.3" style="fill:#4d4553"/><g style="fill:#3a3640"><path d="m285 554c-.2-1.1-.5-2.1-.7-3.2.2 1 .5 2.1.7 3.2"/><path d="m292 590c-.1-.3-.4-.5-.4-.8 0-.2.2-.5.4-.7.1.2.4.5.4.7 0 .3-.3.5-.4.8"/><path d="m289 587c-.3-1-.5-2.1-.8-3.1.3 1.1.6 2.1.8 3.1"/><path d="m288 578c-.2-1.1-.5-2.1-.7-3.2.2 1.1.5 2.2.7 3.2"/><path d="m288 595c0-.7.1-1.5.1-2.2 0 .8-.1 1.5-.1 2.2"/><path d="m287 570c-.2-.8-.4-1.5-.6-2.3.2.8.4 1.6.6 2.3"/><path d="m286 562c-.2-.8-.4-1.5-.6-2.3.1.7.3 1.5.6 2.3"/><path d="m284 546c-.2-.8-.5-1.5-.7-2.3.2.8.4 1.6.7 2.3"/></g><path d="m320 609c.1-.1.2-.3.2-.4 0 .1-.1.3-.2.4" style="fill:#4d4553"/><path d="m303 700c-.1.1-.2.2-.3.3-.1-.1-.2-.3-.2-.4 0-.1.2-.2.2-.3.2.2.3.3.3.4" style="fill:#362f3a"/><g style="fill:#815626"><path d="m339 745c.2-.1.3-.3.5-.4-.2.1-.3.3-.5.4"/><path d="m342 743c-.1.1-.1.3-.2.4.1-.1.1-.3.2-.4"/></g><path d="m321 414c.2 3.9.4 7.8.6 11.8-4.8 1-9.5 2-14.3 3 0 0 0 .1 0 .1-.5-.3-.7-.7-.7-1.3.4-8.3 6.6-14 14.4-13.6" style="fill:#c3bfbf"/><path d="m337 506c-1.3-1.6-2.2-2.7-3.1-3.7.8-.5 1.7-1.4 2.5-1.3 1 .1 1.9 1 2.9 1.6-.7.9-1.4 1.9-2.3 3.4" style="fill:#3a3640"/><path d="m337 362c.3 1.4.6 2.9.8 4.3-1 .5-2.2.7-3 1.4-10 9.6-22.7 7.6-34.8 7.2-10.4-.4-20.7-1.8-31-2.7 11.7 5.4 24 7.5 37 8.9-2.9 0-5.8 0-8.7 0 0 .3 0 .7-.1 1 3.3 0 6.5 0 9.8 0 0 .3 0 .5 0 .8-2.7.3-5.5.3-8.2.9-15.8 3.6-31.5 3.1-47-.9-2.2-.6-4.3-1.6-6.5-2.5 1.2-6.4 2.5-12.8 3.7-19.3-.2 4.9 4.4 5.4 7.2 6.1 7.2 2.1 14.7 3.1 22 4.4 2.9.5 5.8.4 10 .6-8.5-2.1-15.6-3.8-22.7-5.5 0-.4.1-.8.1-1.1 6.5.5 12.9 1.1 19.4 1.6 15 1.6 30 1.7 44.8-2.3 1.5-.2 3.1-.1 4.5-.6 1.1-.3 1.9-1.5 2.7-2.3" style="fill:#757476"/><path d="m243 392c.7-3.1 1.3-6.2 2-9.3 5.9 2 11.7 4.7 17.8 5.8 10.6 1.8 21.4 2.7 31.5 3.9-5.3 1.4-11.5 2.8-17.6 4.7-8.7 2.7-17.4 3.3-26 .8-1-.3-2-.9-2.7-2 1.3.3 2.7.5 4 .8.1-.2.2-.5.3-.7-3.1-1.3-6.1-2.7-9.1-4" style="fill:#737171"/><path d="m296 427c-2.5-3.7-6.4-1.8-9.7-2.2-4-.5-8.1-.6-12-.9.4-.6.7-1.3 1.1-1.9.1-.1.2-.3.2-.4 0-.1-.2-.2-.3-.4 1.4-.6 2.8-1.3 4.2-1.9.4.2.7.2 1-.1.4-.3.7-.6 1.1-.8.5.3.9.5.8-.4 2.3-1.3 4.6-2.7 6.9-4 6-.5 7 .3 7.6 5.8.1 1.1.4 2.2.6 3.3-.1 1.4 0 2.9-1.4 3.9" style="fill:#b2773f"/><path d="m336 402c-2.2 4.5-6.4 4.6-10.6 4.9-1.8.1-3.5.7-5.3 1.1-2.6 2.2-10.6 3.2-13 1.6-2.2-1.5-.7-2.6.7-3.1 5.1-2 10-4.5 15.7-3.9.7.1-.3-.1.3-.2-.1-.3-.7 0-.8-.5 4.2-2.1 8.4-4.3 13.5-6.8-.2 3.2-.4 5.1-.5 6.9" style="fill:#b9b5b4"/><path d="m267 421c-1.1 2.9-3.2 4.1-6.1 3.2-4.3-1.3-8.5-3.1-12.8-4.5-1.6-.5-3.4-.6-5-.7-2.8-.2-3.6-1.3-2.2-3.8 11.7.8 23.3 1.6 35 2.4 0 .2 0 .5 0 .7-5.3 0-10.6 0-15.8 0 0 .2-.1.3-.1.5 2.3.8 4.7 1.5 7 2.2" style="fill:#8a664e"/><path d="m246 399c7.9 1.8 15.7 3.6 23.6 5.3 2.2.5 4.4.3 7.3.5-1.7 1.1-3 2.8-4.5 2.8-7.7.4-15.6 2.3-22.7-2.4-1.1-.7-2.3-1.2-3.6-1.7-3.9-1.4-3-2.9-.1-4.5" style="fill:#757173"/><path d="m241 412c0-.4 0-.8 0-1.2 13.3-.4 26.6-.8 39.9-1.2 0 .1.1.3.1.4-7.7.8-15.3 1.6-23 2.4 0 .4.1.8.1 1.2 11-1.1 21.9-2.1 32-3.1-7 4.7-18.5 6.8-28 4.9-6.9-1.3-13.9-2.3-20.9-3.4" style="fill:#6f6b6c"/><path d="m323 402c1.3.1 2.5.3 4.4.4-4.1.7-7.6 1-10.9 1.9-3.3.8-6.5 2.2-9.8 3.4.1.5.1 1 .2 1.6 4.4-.4 8.8-.7 13-1.1.3.6.7 1.3 1 1.9-.2.2-.4.4-.6.6-5.5 1.9-11.2 3.3-17 2.8-4.1-.3-6.4 1-6 5.5.1 1.5-.1 3-1.5 4-.3-.6-.9-1.2-.8-1.7 1.1-5.2-2.1-6.8-6.3-7.5 3.6-1.4 7.2-2.7 10.8-4.1 4.8-2 9.5-4.3 14.4-6.1 2.9-1 6-1.1 9.1-1.6" style="fill:#746b6a"/><path d="m298 397c6.3-1.5 12.6-3 18.9-4.5.1.5.2 1.1.3 1.6-6.4 1-12.8 1.9-19 2.9" style="fill:#6d686a"/><path d="m298 397c-5.7 1.7-11.4 3.4-17.2 5.1-.1-.5-.2-1.1-.4-1.6 5.9-1.2 11.8-2.4 17.6-3.5" style="fill:#6b6668"/><path d="m272 421c0 1 .2 2.1-.2 2.9-.3.7-1.2 1.4-2 1.5-.5.1-1.1-.8-1.7-1.3.5-.5 1.2-.9 1.6-1.6.3-.5.2-1.2.3-1.9.7.2 1.3.3 2 .4" style="fill:#3e3b49"/><path d="m325 388c2.3-.4 4.5-.8 6.8-1.3 0 .4.1.8.1 1.2-2.3.1-4.6.1-6.9.1" style="fill:#433b42"/><path d="m282 418c.6.4 1.1.9 1.7 1.3-.4.2-1 .8-1.1.7-.5-.4-1-1-1.4-1.5.3-.2.5-.4.8-.5" style="fill:#3e3b49"/><path d="m325 388c-1.3.4-2.6.7-3.9 1.1-.1-.3-.1-.5-.2-.8 1.4-.1 2.8-.2 4.1-.3" style="fill:#433b42"/><path d="m241 415c0-.6 0-1.3 0-1.9 0 .6 0 1.2 0 1.9" style="fill:#8a664e"/><path d="m280 419c-.3 0-.7.1-1 .1.4 0 .7-.1 1-.1" style="fill:#3e3b49"/><path d="m246 399c-.1-.1-.3-.3-.4-.4.1 0 .2 0 .3.1 0 .1 0 .2.1.3" style="fill:#757173"/><path d="m327 419c-.3.1-.6.4-.8.3-.2-.1-.2-.5-.4-.8.3-.1.6-.4.8-.3.2.1.3.6.4.8" style="fill:#714e32"/><path d="m321 414c-3.8 1.9-8 3.3-11.2 6-1.8 1.6-1.9 5.2-2.7 7.9-.4.4-.7.3-1-.1-.3 0-.7 0-1 0-2.2-5.4-1.1-9.5 3.5-12.4 3.8-2.5 7.9-4.2 12.3-5.3 0 0 .3-.2.3-.2-.1 1.3-.1 2.7-.2 4.1" style="fill:#6e696a"/><path d="m247 143c.1-.1.1-.3.2-.4-.1.1-.1.2-.2.4" style="fill:#85785f"/><path d="m253 441c1.3 4.5-2 5.7-5.8 6.1-5.9.6-11.9.9-17.8 1.3-3 .2-3.8-1.1-3-3.9 1.1-3.6.9-8.4 3.2-10.7 1.8-1.7 6.6-.4 10-.4 2.3 0 4.7-.1 7 0 2.6.1 6.5 4.6 6.3 7.6" style="fill:#3e3b49"/><path d="m321 410c-2.4 1.3-4.7 3-7.2 3.9-6.6 2.4-9.6 6.8-8.5 13.8-1.2.3-2.4.6-3.7.9-1.4-.5-3.1.6-4.3-.7-.4-.4-.8-.8-1.2-1.2 0-1.3.1-2.6.1-3.9.6-10.8.6-10.7 11.8-11 4.3-.2 8.7-1.1 13-1.7" style="fill:#c0c0bf"/><path d="m214 441c-.5.4-1 1.1-1.6 1.3-.8.3-1.8.3-2.6.4.4 1 .6 2.2 1.3 2.9 3.5 4 5 13.4 2.5 17.8-.5.9-2 2-2.6 1.8-1.4-.5-3.4-1.7-3.6-2.8-1-6.3-2-12.7-2.1-19 0-5 4.8-1.4 7-2.8.6.2 1.2.3 1.7.5" style="fill:#fbe8cf"/><path d="m264 434c-2.4-1.3-4.8-3.9-7.1-3.8-5.9.4-10.9-1-15.4-4.5-.6-.5-1.3-1.7-1.1-2.3.2-.7 1.5-1.5 2.2-1.4 3.8.5 7.7 1.2 11.5 2 3.2.6 6.3 1.4 9.5 2 5.1.9 5.7 2.2 2.5 6.4-.6.7-1.4 1.1-2.1 1.6" style="fill:#3e3b49"/><path d="m215 440c-2.3-.7-3.7-1.1-5.1-1.5-2-.5-5.6-.6-5.7-1.3-.7-4.3-1.1-8.7-.6-13 .3-2.3 4.3-2 5.6.9 2.1 4.6 3.7 9.4 5.8 14.9" style="fill:#615559"/><path d="m264 434c-.9 1.5-1.7 3.2-2.8 4.5-1.3 1.5-3 2.6-4.6 3.8.1-2.5-.3-5.2.3-7.6.8-2.7 2.8-3.5 5.1-1.1.4.5 1.3.3 2 .4" style="fill:#3e3b49"/><path d="m212 341c-2.1-.6-4.2-1.3-6.2-1.9 0-.3.1-.6.1-.9 1.9.4 3.8.7 5.8 1.1 0 .5.1 1.1.3 1.7" style="fill:#d4dfe5"/><g style="fill:#3e3b49"><path d="m297 428c1.4.2 2.9.5 4.3.7-1.5.4-3.4 2.9-4.3-.7"/><path d="m241 431c1.6 0 3.1 0 4.7 0 0 .2 0 .3 0 .5-1.6 0-3.1 0-4.7 0 0-.2 0-.4 0-.5"/><path d="m226 456c-.4-.6-.9-1.2-1.3-1.7.4.6.8 1.2 1.3 1.7"/><path d="m226 441c-.1 0-.3.1-.4.1-.1-.1-.1-.3-.1-.4.1 0 .3-.1.4-.1.1.1.1.2.1.4"/></g><path d="m163 369c-.1.2-.2.5-.3.7-.1-.3-.2-.5-.3-.8 0-.1 0-.3 0-.5.1.2.4.4.6.6" style="fill:#3d353a"/><g style="fill:#3e3b49"><path d="m223 453c-.3-.2-.6-.5-.9-.7.3.3.6.5.9.7"/><path d="m225 454c-.4-.4-.9-.7-1.3-1.1.5.4.9.7 1.3 1.1"/><path d="m227 457c-.3-.4-.5-.7-.8-1.1.2.3.5.7.8 1.1"/><path d="m306 428c.3 0 .7 0 1 .1.1.3.2.6.2.9-.4-.3-.8-.6-1.2-1"/><path d="m222 452c-.4-.3-.7-.6-1.1-1 .3.4.7.7 1.1 1"/></g><path d="m184 450c-.3.2-.6.4-1 .7.3-.2.6-.5 1-.7" style="fill:#8da6b4"/><path d="m273 288c-1.3 0-2.7 0-4 0 0-.1 0-.3 0-.4 1.3 0 2.7 0 4 0 0 .1 0 .3 0 .4" style="fill:#41383f"/><g style="fill:#3a3640"><path d="m219 487c-.8-6.8-1.5-13.6-2.3-20.4-.3-2.3.5-3.8 3.2-3.6.4.5.1.9-.1 1.4-.2.5-.2.9 0 1.4.8 1.2 2.1 2 2.3 3.6-.1.2-.2.4-.2.6-.6.4-1.8.9-1.8 1.3.2 4.1.3 8.3 1.2 12.3.5 2.5.2 3.5-2.3 3.4"/><path d="m227 484c2.1 2 4.2 2.5 6.3 0 .1-.4.3-.8.5-1.1-.1-.2-.1-.4 0-.5-.2-.4-.4-.8-.6-1.2-.1-.9-.3-1.8-.4-2.7-.8-1 0-2.3-.6-3.3-.2-1-.4-2-.6-3 .8 1.4 1.8 2.8 2.4 4.3 1.1 2.8 1.4 6.3 3.3 8.4 1.6 1.8 4.9 2 7.5 3.5-3.3-.4-6.5-.8-9.8-1.3 0 0-.4-.2-.4-.2 0 0-.1-.4-.1-.4s-.2.4-.2.4c0 0-.4.2-.4.2-3.2 1.6-6.1.5-9-1 .7-.7 1.4-1.4 2.1-2.1"/><path d="m256 483c0 .4 0 .7 0 1.1-4.6.5-8.9 0-12.5-3.6 4.2.8 8.3 1.6 12.5 2.5"/><path d="m224 472c.3 3 .6 6 .9 9.1-1.1-3.7-2.1-7.3-3.2-11l.2-.2c1.5 0 2.2.7 2.1 2.1"/><path d="m221 493c-.4-1.3-.7-2.6-1.1-4 .4 0 .7 0 1.1 0 0 1.3 0 2.7 0 4"/><path d="m226 482c.2.3.3.6.3.9-.6 0-1.2-.1-1.8-.1.5-.2 1-.5 1.5-.8"/><path d="m225 486c-.1-.1-.3-.2-.4-.2.1 0 .3.1.4.2"/><path d="m235 487c-.3 0-.7 0-1 0 .3-.5.7-.5 1 0"/><path d="m221 489c.1-.1.2-.3.2-.4 0 .1-.1.3-.2.4"/></g><path d="m224 472c-.7-.7-1.3-1.4-2-2.1-1.3-1.6-2.6-3.2-3.8-4.8.1-.4.3-.7.7-1 .3-.4.7-.7 1-1.1 1-.8 1.9-1.6 3.3-2.6.9 4 4.4 7.4.8 11.6" style="fill:#f7e4cf"/><path d="m211 493c-1.7-4.7-3.3-9.4-5-14 .6-.2 1.1-.4 1.7-.6 1.7 4.7 3.3 9.5 5 14.2-.6.2-1.2.4-1.7.5" style="fill:#8a765f"/><path d="m216 494c-.8.7-1.2 1.3-1.8 1.4-.3.1-.8-.7-1.2-1.1.3-.3.6-.7 1-.7.6-.1 1.2.2 2 .4" style="fill:#6f5848"/><path d="m232 475c.2 1.1.4 2.2.6 3.3-.2-1.1-.4-2.2-.6-3.3" style="fill:#3e3b49"/><path d="m204 498c-.3-.4-.5-.7-.8-1.1.2-.1.4-.2.6-.3 0 .5.1 1 .2 1.4" style="fill:#867b6f"/><g style="fill:#3e3b49"><path d="m233 481c.2.4.4.8.6 1.2-.2-.4-.4-.8-.6-1.2"/><path d="m234 483c-.2.4-.4.7-.5 1.1.2-.4.3-.7.5-1.1"/></g><path d="m216 499c-.2-.1-.5-.1-.7-.2.1-.2.2-.3.3-.5.1.2.3.5.4.7" style="fill:#3a3640"/><path d="m223 741c-1.9-.1-3.8-.2-5.8-.4 3.3-.7 6.9-.8 9.6-2.4 3-1.8 4.3.9 6.5 1.3.1 0 .2 2.9-.1 2.9-3.3.9-6.6 1.9-9.9 1.9-3.6.1-7.1-.8-10.7-1.3-.8-.1-1.5-.5-2.2-.8.8-.4 1.6-1.1 2.4-1 3.4.2 6.8.7 10.2 1.1 0-.3 0-.8 0-1.3" style="fill:#c49b50"/><path d="m214 736c5.2-1.3 10.2-2.7 15.3-3.8 1.4-.3 3 .4 4.5.6-1.4 1.1-2.8 2.9-4.3 3-5.1.4-10.3.2-15.5.2" style="fill:#bc9457"/><path d="m293 488c.1.1.3.1.4.2-.1-.1-.3-.1-.4-.2" style="fill:#3a3640"/><path d="m223 769c-.7-.8-1.5-1.7-2.2-2.5 1.3.4 4.9-1.2 2.2 2.5" style="fill:#a9874e"/><path d="m282 363c15.6-1.7 31.7-3.5 47.7-5.2.7-.1 1.5-.3 2 .1 1.3.9 2.4 2.1 3.6 3.1-1.3.6-2.5 1.5-3.8 1.6-7.9.7-15.8 1.5-23.8 1.5-8.9.1-17.7-.7-25.7-1.1" style="fill:#797777"/><path d="m330 365c-.7.5-1.4 1.2-2.1 1.4-14.2 3.3-28.4 4.4-42.7.9 14.9-.8 29.9-1.5 44.8-2.3" style="fill:#575556"/><path d="m269 372c-.7-.1-1.3-.1-2-.2.1-.2.2-.4.3-.6.6.3 1.1.5 1.7.8" style="fill:#a09a9c"/><path d="m219 464c-.2.3-.4.6-.7 1 .3-.4.5-.7.7-1" style="fill:#d2bfaa"/><path d="m235 487c-.3 0-.7 0-1 0 .2-.4.3-.9.5-1.3.2.4.3.9.5 1.3" style="fill:#3e3b49"/></g></g></g></g></svg>