<svg xmlns="http://www.w3.org/2000/svg" viewBox="0 0 1266.1 848" style="enable-background:new 0 0 1266.1 848"><g><path d="m487 708c-.4-3.3-.6-6.7-1.1-9.9-.4-2.1-1.8-4-1.8-6 .1-15.7.8-31 .6-47 0-4.6-2.1-9.2-3.2-13.8-.8-.8-1.6-1.6-2.3-2.4 0 0 0 0 0 0-.8-.3-1.6-.7-2.4-1-.2-.3-.5-.3-.8-.3-2.4-.4-4.7-.8-7.1-1.2.9-2.2 1.8-4.3 2.6-6.5 2.9-11.8-1.2-20.9-10.7-27.9 0-1.9 0-3.7 0-5.6 0 0 0 0 0 0-1.1-7-2.3-13.9-3.4-20.9-.8-2.2-.9-4 2-4.6 4.2-.8 5-4.1 6.2-7.8 2.4-7.6-.3-16.4 5.2-23.3.6-.8-.1-2.6-.2-3.9-.2-2.1-.3-4.1-.5-6.2 11.8-2.6 19-10.4 18.5-22.7-.3-5.1-1.6-10.2-2.4-15.3 0 0-.1-.1-.1-.1 1.7-3.3-.2-7 1.1-10.3 0-.4 0-.8-.1-1.2-.3-2.2-.9-4.5-.9-6.7-.2-7.9.5-15.9-.3-23.8-1.8-17.7-7.2-34-15.9-49.9-3.6-6.5-8.3-10.5-16.2-10.7-5.7-.2-11.3-1.4-17-2.2.5-.9.8-2.1 1.5-2.6 6.2-4.3 9.6-10.4 10.7-17.6 1-6.2 1.1-12.6 1.5-18.9.3-.3.3-.7.1-1.2 1-3.1 2.1-6.2 3.2-9.2 2.9-8.1 6-16 8.5-24.3 1.2-3.9 1.3-8.2 1.9-12.3 1.5-5.8 2.9-11.5 4.4-17.3-.5-5.3-.6-10.6.1-15.9-.7-2-1.4-4-2.1-5.9-2.6-5.8-6.5-8.3-12.8-8.1 1.4-1.2 1.4-3.2 2.2-4.6.5-1.1.9-2.2 1.4-3.3.6-4.9.1-9.4-4.6-12.3-2.7-1.7-5.4-3.3-8.1-4.9-1.2-1.3-2.3-2.5-3.5-3.8.8-2.9 3-6.3 2.2-8.7-3.5-10.8-7.7-21.3-12-31.8-.8-2-3.4-3.3-5.1-5-2.7-2.3-5.4-4.7-8.1-7-4-10-5.9-11.2-16-10.2-4-12.2-9-23.6-21.9-29 1.7-1.4 3.5-2.7 4.9-4.4.8-1 .9-2.6 1.3-3.9-.1-.3-.1-.6 0-.9-2-2.7-4.1-5.4-6.1-8.1-1.1-1.1-2.2-3-3.4-3.2-5.7-.7-9.6 2.4-12.8 6.8-1.3.7-2.7 1.4-4 2.1-.2.1-.3.2-.5.2-5.7 2.9-11.4 5.8-17 8.8-.8.1-1.6.3-2.4.4-2.1.3-4.2.6-6.2 1-2.7.4-5.3.8-8 1.3.4-1.6.9-3.3 1.3-4.9-.6-.9-1.2-1.7-1.8-2.6-5.7.3-7.9 4.2-9.2 9-1.3 4.8-2.7 9.5-4.1 14.2-.7 1.6-1.3 3.3-2 4.9 0 0 0 0 0 0-.1.8-.2 1.5-.2 2.3 2.4 1.9 4.2 3.5 2.5 7.3-.8 1.9 1.5 5 2.2 7.6.3 1.1 0 2.4 0 3.6-2.2 2.6-1.1 4.8.9 6.8.4.8.8 1.7 1.2 2.5 1.3 1.5 2.7 2.9 3.8 4.5.2.2-.9 1.4-1.4 2.1-.7.5-2 1.1-1.9 1.4 1.7 6.9 3.5 13.8 5.2 20.7 2.8 1.8 5.6 3.6 8.3 5.3-5.5 8-3.8 16.3-1.4 24.7 0 .5 0 1 0 1.5-4.1 3.6-8.5 7-12.2 11-2.7 2.9-4.3 6.8-6.4 10.2-.2.3-.5.6-.7.9-1.6 1.5-3.9 2.8-4.7 4.6-2.2 5.4-3.9 11-5.7 16.6 1.1 2.3 2.1 4.5 3.2 6.8.9 3.7 1.7 7.4 2.6 11-.4 7-1 13.9-1.2 20.9-.1 3.6-.7 6.3-3.6 8.9-2.8 2.5-4.6 6.3-6.8 9.5-3.6 6.6-4.8 13.8-3 20.8 1.3 4.9 1.7 9.1-.6 13.6-1.1 0-2.2 0-3.3 0-.8-.8-1.6-1.5-2.4-2.3-3.4-3.1-6.8-6.1-10.3-9.2-4.3-5.3-8.3-4.9-10.5 1-1.8 1.8-3.8 3.4-5.4 5.3-1.9 2.3-3.2 5.2-5.4 7.2-2.2 2-5.1 3.2-7.7 4.9-9.5 6.3-9.4 6.3-17-1.2-5.6.8-5.4 4.1-3.8 8.3.7 1.8 1 3.7 1.5 5.5.1.1.1.2.2.2l-.2-.3c-2.4 7.3-1.6 14.3 1.9 21 .1.3.2.6.5.9 2.7 4.4.6 6.5-3.5 8.1-2.1.8-3.9 2.2-5.8 3.3-3.7 2.4-1.9 4.8 0 7.2 2.1.2 4.5 1.2 6.3.5 4.2-1.7 8-4.1 12-6.3 3.3 5.4 6.6 10.9 10.2 16 .5.7 3.2.5 4.5-.2.8-.4 1.2-2.6.9-3.7-2.1-7.2-.2-9.8 7.6-9.9 1.1 1.2 2.2 2.3 3.3 3.5.4.2.6.5.8.9-.3-.3-.5-.6-.8-.9-.3 2-.6 4-1 6-.6 2.9-1.4 5.9-2.1 8.8-.3.1-.7.1-1 0-.5 1.2-1 2.3-1.4 3.5-3 3.7-2.9 7.5-1 11.6.5 1.1.7 2.5.5 3.7-.6 2.8-1.5 5.6-2.3 8.4.3.1.6.2 1 .3.5-.7 1-1.4 1-1.3 1.1 2.3 2.2 4.8 3.4 7.3.4 1.4.6 3 1.2 4.3 2.3 4.6 3.9 9.7 10 10.6.8-.3 1.7-.7 2.5-1 .9-.6 1.8-1.3 2.7-1.9 1.7.4 3.6 1.4 5.1 1 2.9-.9 5.5-2.6 8.3-4 1.5 3.5 3 7 4.5 10.6.2-.3.3-.5.5-.8-.1.3-.2.6-.5.8.8 3.4 1.6 6.9 2.4 10.3-5.2 4.4-5.3 8.8-.7 17-.4 0-.6.2-.6.6-5.6 7.3-3.7 15.7 3.7 16.7h.4c1.3.5 2.6.5 3.9.5.7.1 1.5.3 2.1.6 1.2.5 1.8 2.2 2.7 3.4.1-.7.3-1.4.4-2 0 .7 0 1.4-.4 2-.4 2.7-.9 5.5-1.3 8.2.6-.3 1.1-.6 1.7-.9-.4.5-.9.8-1.7.9-2.3 1.1-4.5 2.3-6.8 3.4.8.2 1.6.5 2.4.7-.9 0-1.7-.2-2.4-.7-.1 3-.1 5.9-.2 8.9-4.9 9.3-5.6 19.4-5.6 29.6 0 .2 0 .5-.1.7-.2 7.5-.7 15-.4 22.5.1 3.2 1.9 6.3 2.9 9.4v-.1c-.1 6.9.1 7.6 3.6 10.4.7 1.2 1.3 2.3 2 3.5-9.9-.8-12.8 2.6-10.7 12 1.5 6.7 3 13.4 3.7 20 .8 7.3.6 14.6-4.4 20.7-.5 1-.9 2.1-1.4 3.1-.5.7-1 1.5-1.1 2.5-1.6 1.6-3.1 3.2-4.7 4.8-2.2 1.1-4.4 2.3-6.6 3.4-2.3 1.5-4.6 3.1-7 4.6-1.5 1.1-3 2.4-4.5 3.5-.4 2.6-4.2 5.5.5 7.5 2.7 1.1 5.6 1.5 7.9 2-.8 1.4-1.7 3-2.6 4.6.1.3.1.5 0 .8-.4 0-.9 0-1.3.1-2.4.2-4.8.2-7.1.6-.5.1-.8 1.5-1.1 2.3-1 1.2-1.7 2.8-3 3.4-5.6 2.8-6.1 7.5-6.2 13 0 3.4-1.5 6.9-2.3 10.3-.7 1.5-2 3.1-2 4.6-.1 3.5.5 7 .7 10.5 1.8.1 3.6-.1 5.3.4 5.6 1.6 11 3.5 16.6 5.3 1.2.8 2.3 2.2 3.5 2.2 6.3.2 12.6.2 18.9 0 1.5-.1 2.9-1.4 4.4-2.1-.3-.7-.7-1.4-1-2.1.4-.5.7-1 1.1-1.5 9.4-7.3 19.4-13.2 31-15.6 3.5-.7 6.7-2.5 10-3.8 4.2-2.1 7.7-9.5 5.3-14.5-2.7-5.6-1.3-10.7-1.1-16 .1-2.2-.2-4.8.9-6.4 4.3-6.4 5.5-12.7 1.9-19.8-.4-.8.5-2.2.9-3.3 5.5-.9 2.7-6.2 4.6-9 .1-.8.2-1.6.3-2.3.4-3.1.5-6.3.7-9.4 2.8-6.5 5.6-12.9 8.3-19.4 1.7-4.2 3.4-8.4 5-12.6 3.3-6.1 2.4-12.2.4-18.4-.2 0-.5 0-.7-.1-1.5-3.5-3-6.9-4.6-10.4.5-2.5 2.3-5.9 1.2-7.5-3.5-5.2.3-10.9-2.6-16.8-2.9-5.8-.7-14.2-.7-21.5 5-1.8 7.6-5 6.4-10.5 4.4.1 9-.5 13.2.5 7.9 1.9 14.4-.9 15.9-8 .4 1.8.7 3.6 1.1 5.5-1.6 2.9-3.2 5.8-4.8 8.7-.4.5-.7.9-1.1 1.4.1 7.7.1 15.4.2 23 .1-1.9.2-3.8.4-5.6.1 1.9.1 3.8-.4 5.6.2.4.3.8.5 1.1 6.7 18 13.5 36 20 54-1.7 2.2-3.3 4.4-5 6.7.1.6.2 1.3.3 1.9-.1 1.3.2 2.5.6 3.7.4 2.9.9 5.8 1.8 8.5 3.1 10.6 8.4 20.5 8.4 32 0 15.7-.8 31-11.3 43.9-.6.7-.3 2.1-.5 3.1-.6.1-1.1.3-1.7.4-.6 2.9-1.3 5.8-1.9 8.7 0 3.9 2.2 4.9 5.8 5 2.6.1 5.2 1.2 7.9 1.9-1.1 1.4-2.2 2.7-3.3 4.1-1.4-.2-2.8-.4-4.1-.6-.1 2.9-.3 5.8-.2 8.7 0 .7.9 1.3 1.5 2 .5-.8 1-1.5 1.4-2.3.4.4.8.9 1.2 1.3 0 .2 0 .4 0 .6-.8 2.8-1.6 5.6-2.4 8.4.1.5.3.9.4 1.4-.5 2-.7 4.1-1.5 6-4.3 10-.7 16.9 10 19 1.4.5 2.7 1.5 4.1 1.5 10.4.3 20.9.4 31 .6 3-1.5 6.1-2.9 9.1-4.4 1.5-2.2 3-4.3 4.4-6.6 5.7-9.7 9.4-20 10.4-31 .5-1.7.6-3.4.4-5.4.1-1.7.3-3.5.4-5.2-.6-5.3-.7-10.6.1-15.9 0-3.1 0-6.2 0-9.3 1.9-2.1 3.8-4.1 5.6-6.2 5.1-5.6 4.5-11.7 1.6-17.9.1-1.2.4-2.8.6-4.5m-176-262c-.7 1.5-.8 3.3-.9 5.1-.4 2.1.9 4.6-1.6 6.2-1 .8-2.6 1-3.4 2-7.7 2.2-8.4 3.5-8.2 16.5-3.1-6.1-2.5-20.8 1.5-25 3.2-3.4 5-7.2 6-11.5.1-1 .1-2 0-2.9 1.7-4.7 3.3-9.4 5-14.2 4 7.6 5.5 15.4 1.6 23.8" style="fill:#e5e5e5"/><g><path d="m357 113c-.4 1.3-.5 2.9-1.3 3.9-1.4 1.7-3.3 2.9-4.9 4.4-12 3.3-13.4 7.2-6 16.4 1.6 16.6-9.6 25.8-20.5 35-1.5.5-2.9.6-4.4.1-3.4-1.4-2-5.3-4.1-7.5-.8-1.6-1-3.3-1.4-5-.1-.8.1-1.6.5-2.4 4.5-4 .2-6.5-1.5-9.5-1.3-2.5-.3-5.5-1.5-8.1-.4-1.1-.7-2.2-.2-3.3.6-.6 1.4-.9 2.3-1 .8 0 1.6.1 2.3.4 1.1.7 1.8.7 1.9-.9.1-1.2 1.6-2.6-.5-3.4-3.1-.5-5.8 0-7.5 3.1-3 1.5-6.5 2.5-6 7-.2.8-.6 1.6-1.1 2.2-2.6 1.8-5.1 1.4-7.2-.8-1.1-1.1-2.2-2.2-3.8-2.4-.5-.1-1.1-.3-1.6-.5-.7-.4-1.4-.9-2-1.4-.6-.6-1-1.3-1.2-2.1 0-2 .3-3.8 2.2-4.8.5-.1 1.1 0 1.6.1 8.3 2.2 18.4-3.4 22.3-12.4 0-.5 0-1 0-1.4 5.7-2.9 11.4-5.8 17-8.8 2-1.3 5-.6 6.6-3 2.9-2.5 6.1-4.1 10-4 5.4.8 6.6 6.4 9.8 9.9" style="fill:#738c9a"/><path d="m290 133c-.6 1.5-1.2 2.9-1.8 4.4-1.6 1.7-3.2 1.7-4.7-.1 1.4-4.7 2.7-9.5 4.1-14.2 1.3-4.8 3.5-8.7 9.2-9 .5.9.6 1.8-.1 2.6-1.5 1.7-1.8 2.9-1.1 4.3.1.8.1 1.6.1 2.5 0 1.1.2 2.2 0 3.2-2.9 1.3-3.3 4.7-5.7 6.3" style="fill:#a09286"/><path d="m290 133c-.2-3.7.7-6.6 5.1-6.8 4-5.8 10.3-5.9 16.3-6.9.8-.1 1.6-.3 2.4-.4.4.2.8.4 1.2.6-5.4 9.5-14.4 12.4-24.4 13.6h-.6" style="fill:#6b4337"/><path d="m286 163c0-1.2.3-2.5 0-3.6-.7-2.6-3-5.7-2.2-7.6 1.6-3.8-.1-5.4-2.5-7.3.1-.8.2-1.5.2-2.3.7-.6 1.5-.8 2.4-.4 3.2 2.7 5 5.9 4 10.3-.6 2.5.6 4.7 2.1 6.7.7 1.2 1.2 2.5 1.1 3.9-1.3 2.6-.7 5.5-1.2 8.3-.4.7-1 1.2-1.8 1.4-.4-.8-.8-1.7-1.2-2.5-2.1-2.1-3.2-4.3-.9-6.9" style="fill:#958975"/><path d="m348 104c-3.5 1.1-7 2.2-10.4 3.3-.7.7-1.4.6-2.2.1 3.1-4.4 7.1-7.5 12.8-6.8 1.2.1 2.3 2.1 3.4 3.2-1.1 1-2.3.7-3.6.2" style="fill:#fcedc5"/><path d="m311 119c-5.4 2.3-10.9 4.6-16.3 6.9-.4-.7-.7-1.4-1.1-2.1.9-1 1.1-3 3.2-2.6 4.7-.7 9.4-1.4 14.2-2.2" style="fill:#e4e17b"/><path d="m348 104c1.2-.1 2.4-.2 3.6-.3 2 2.7 4.1 5.4 6.1 8.1-.1.3-.1.6 0 .9-.8-.5-1.7-.9-2.4-1.5-2.5-2.3-4.9-4.8-7.3-7.2" style="fill:#5b6464"/><path d="m284 142c-.8-.1-1.5-.1-2.3-.2.7-1.6 1.3-3.3 2-4.9 1.6 0 3.2.1 4.7.1.4.5.8 1 1.2 1.6-.4 2.4-3 2.2-4.2 3.6-.4.1-.9 0-1.4-.2" style="fill:#b0b719"/><path d="m294 122c-2-3.7 1.2-5.6 2.7-8.1.6.9 1.2 1.7 1.8 2.6-1.4 1.9-1.7 4.7-4.5 5.5" style="fill:#5e88a8"/><path d="m294 122c1.5-1.8 3-3.7 4.6-5.5-.4 1.6-.9 3.3-1.3 4.9-1.1.9-2.1 1.7-3.2 2.6 0-.6 0-1.3-.1-2" style="fill:#94e3f6"/><path d="m335 108c.7 0 1.4-.1 2.2-.1-2.2.8-4.4 1.6-6.7 2.5 1.5-.8 3-1.6 4.5-2.4" style="fill:#c67059"/><path d="m381 785c.8-2.8 1.6-5.6 2.4-8.4.2.1.5.3.5.2 3.8-6.4 4.3-6.4 9.9-1 1.8 1.3 3.8 1.9 5.9 2.2.6.1 1.2.3 1.7.6 4.7.8 7.1 3.4 6.5 8.4-.7 5.7-3.9 9.4-8.6 9.9-1.3.1-2.7.1-4 .1-9.6-.3-12.8-2.8-13.9-10.6-.1-.5-.2-1-.4-1.4" style="fill:#896452"/><path d="m270 778c-.4.5-.7 1-1.1 1.5-.6 1-1.3 2-2.5 2.2-7.8 1.1-15.5 2.3-23.3-.1-5.5-1.8-11-3.7-16.6-5.3-1.6-.5-3.5-.3-5.3-.4-.3-3.5-.8-7-.7-10.5 0-1.6 1.3-3.1 2-4.6.7 2.9.4 5.9.9 8.3.1-3.5-2-8.2 2.1-11.2 2.6-1.9 3.4 2.3 5.6 2.7 3.8 5.7 3.8 6.2-.7 11-.5 2.2 1.7 2 2.6 3 1.5.9 3.3.8 4.8 1.4 8.4 2.3 17 1.1 25.5 1.1 2.4-.1 4.7-.9 6.7.8" style="fill:#816157"/><path d="m381 786c2.3 6.5 7 9.3 13.7 9.1 2.6 1.3 5.6-.5 8.1 1.1-.7 3-3.2 2.5-5.3 2.8-2.9.5-6-.7-8.7.9-1.6 1-3.3-.1-5 .2 4.9 6 8.5 6.9 13.8 3.7 4.2 3.4 2 5.8-1.3 8.1-2.3-.3-4.6.1-6.8-.9-10.7-2.2-14.3-9.1-10-19 .8-1.8 1-3.9 1.5-5.9" style="fill:#4a4948"/><path d="m390 811c2.5-.1 5-.1 7.6-.2 2.7-1.6 5.8-1.8 8.8-1.8 7.8-.2 15.7.8 23.4-1.4 1.7-.5 3.4-.3 4.8 1.1-3 1.5-6.1 2.9-9.1 4.4-10.4-.2-20.9-.3-31-.6-1.5 0-2.8-1-4.2-1.5" style="fill:#b0322a"/><path d="m243 781c8.6-.7 17.2-1.4 25.8-2.1.3.7.7 1.4 1 2.1-1.5.7-2.9 2.1-4.4 2.1-6.3.2-12.6.2-18.9 0-1.2.1-2.3-1.3-3.5-2.1" style="fill:#ebe6ab"/><path d="m246 490c-.8.3-1.7.7-2.5 1-6.5-4.7-9.3-11.4-8.4-19 .6-5 1-9.5-2.1-13.7.6-4.8 4.4-7.8 6.5-11.8 3.7-7 3.8-8-2.1-13.2-1.9-1.7-.3-4.1-2.2-5.4-1.1-1.2-2.2-2.3-3.3-3.5-1.5-1.3-6.9.3-3.5-4.8.5-.8-1.2-1.1-2.1-1.2-3-.1-5.6.9-8.1 2.4-1.2.7-2.6 1.1-3.6-.3-.8-1.1 0-2.1.6-3.1 3.9-5.9 3.9-5.9-1.5-10.8-1.1-1-1.9-2.4-3.3-3.1-1.8-.6-3.5.1-5.3-.1-1.2-.2-2.1-.7-2.3-2 1.8-4.3 6.5-4.7 9.6-7.3 2.1-1.7 4.9-2.7 7.2-4.3 7.2-4.7 14.8-8.6 22.3-12.6 1.5-.7 3.1-1.3 4.8-1.4 2 0 4.1.5 5.2 1.9 3.4 4.3 6.7 3.2 10.2.5.7-.6 1.6-1 2.5-1.4 2.6-1.2 5.6-1.4 8-3.1 6.2-3.9 13-7 18.8-11.5.5-.3.9-.5 1.5-.7 1.3-.3 2.7-.3 4 .2 1.2.7 2.5 1.4 1.8 3.1-4.2 2.9-8.1 6.4-12.9 8.3-8.6 3.5-14.3 11-22 15.8-.9.6-2.2 1.5-.8 2.7 1.1.9 2.1 0 2.8-1 2.2-3.4 4.7-5.7 8.7-2.5.6 2.5.7 5.7 4.8 3.7 1.6-.9.7-2 .1-3-.6-1.4-1.8-2.6-1.8-4.3 5.5-6.1 13.6-7.4 20.6-10.7 1.4-.3 2.8 0 4.1.3 4.4.4 7.5-4.3 12-3.3.5.3.7.8.8 1.3-.4 1.8-1.9 2.6-3.2 3.5-1.1.7-2.3 1.3-3.5 1.8-1 .3-2 .7-3 .9-.5.1-1 .2-1.5.2-2 .2-4-.2-5.9.8-2.9 1.2-4.8 3.6-6.8 5.8-6.2 8.4-3.2 21.4 6.1 26 2.2 1.1 4.7 1.7 6.3 3.7.4.8.4 1.6.2 2.5-2 3-5.4 4.2-8.3 5.9-4.9 1.3-9.2-.2-13.2-2.8-2.1-2.1-3.6-4.9-6.5-6.3-3.2-1.6-1.7-5.2-3.1-7.7 1.5 3.4.2 5.6-2.9 6.9-3.9 1.7-3.6 4-1.7 7.3 3.2 5.5 7.9 10.4 7.2 17.5-1 4.4-2.8 8.2-6 11.5-4 4.2-4.6 18.9-1.5 25-.2-13 .5-14.3 8.3-16.5.8 0 1.7-.3 2.2.1 5.1 3.6 10.8 5.5 17 6.3 1.8.2 2.4 2.2 2.6 4 .2 1.9 0 3.8.8 5.6.2.6.3 1.2.4 1.8.4 10.5.4 10.5-9.6 8.3-1.5-.3-2.9-.8-4.2-1.6-.5-.2-1-.4-1.5-.4-5.4 3.6-5.7 9.1-4.5 14.5.5 2.5 1.2 5.2 2.5 7.5 1 2 1.8 4 2 6.2 0 1.2-.5 2.2-1.4 3-5.9 4.8-6.8 10.3-3 17.2 2.6 4 7 4.7 11 6.2 1.9.7 4.1.6 5.8 1.9 1.2 1.6-.1 2.3-1 3.2-1.5 2.7-3.4 4-6.3 1.7-1.4-1.1-2.9-1.7-4.7-1.7-1.2 0-2.4-.2-3.5-.7-2.9-.9-6 .3-8.8-.8h-.4c-1.2-1.1-2-2.5-1.9-4 .3-4.4-1.5-8.4-1.8-12.7 0-.4.2-.6.6-.6 1.2-5.7.4-11.4.7-17 .2-4.5 1.2-9.1-.9-13.5.1-4.1-3-5.7-6-7.4-2.7 1.4-5.4 3.1-8.3 4-1.5.5-3.4-.6-5.1-1-2.1-1.8-3.8-3.7-4-6.6.9-4.5 3-8.8 2.4-14.4-1.4 2-1.6 3.9-2.8 5.3-3 4.3-.8 8.3 1.1 12 .7 1.8 1.6 3.5.4 5.5" style="fill:#23303a"/><path d="m211 401c2.6 1.9 6.1 3.4 7.4 6 1.2 2.5.3 6.3-.3 9.4-.2 1.1-2.1 1.9-3.7 3.3 4.8-1.3 8.6-2.6 12.6-3.4 1.2-.2 2.8.7 4 1.4.3.2.1 2.1-.3 2.4-4.3 2.7 1 2.6 1.1 4-7.8.1-9.7 2.7-7.6 9.9.3 1.1-.2 3.3-.9 3.7-1.2.6-4 .9-4.5.2-3.6-5.2-6.8-10.7-10.2-16 1.7-2.2 3-4.3.5-7-2.2-2.4-1-5 0-7.5 1.1-2 .3-4.5 1.9-6.3" style="fill:#3b485d"/><path d="m199 373c7.7 7.5 7.7 7.5 17 1.2 2.5-1.7 5.5-2.8 7.7-4.9 2.2-2 3.4-4.9 5.4-7.2 1.6-1.9 3.6-3.6 5.4-5.3 3.5.2 7.3 2.1 10.5-1 3.4 3.1 6.8 6.1 10.3 9.2.6 1.8-.9 2.3-1.9 3.1-2.4 1.2-4.7 2.6-7.3 3.2-.6 0-1.1-.1-1.6-.2-1.3-.7-2.2-1.6-2.5-3.1 0-.7.1-1.4.7-2 .4-.4 1.1-.2 1.2-.9-.4.4-1 .3-1.5.3-3.4-1.7-5.9.2-8.2 2.2-9 7.7-19.5 13-29.9 18.4-2.1 1.1-4.3 2.6-7 1.4-.2-.2-.4-.4-.5-.6-.5-1.8-.8-3.7-1.5-5.5-1.7-4.2-1.9-7.5 3.6-8.3" style="fill:#5e5352"/><path d="m235 427c1.6 1.6 2.9 3.8 4.8 4.7 5.5 2.9 5.1 6.9 2.6 11.3-2.5 4.6-5.5 9-8.3 13.5-1.7 1.2 1.1 4.6-2.4 4.9-1.3-4.6-6-8.4-2.9-13.9 2-1.4 1.5-4.1 3-5.8.7-2.9 1.4-5.9 2.1-8.8.5-1.9.8-3.9 1.1-5.9" style="fill:#414b5a"/><path d="m210 408c.5 2.4.2 5.3 1.5 7.1 3.2 4.3 1.9 6.1-2.7 6.9-4 2.1-7.8 4.6-12 6.3-1.7.7-4.2-.3-6.3-.5-1-2.4-2-4.8 0-7.2 2-.9 3.4 2.4 5.2 1.1 2.5-2 4.9-4.1 7.6-6 1-.7 0-2.2-.5-3.1-1-2-2.3-3.9-3.6-5.8-1.5-3-1.8-5.6 2.5-6.2.6 0 1.1.2 1.6.6.8.4 1.7.8 2.5 1.2-1 3.8 1.5 4.8 4.2 5.6" style="fill:#2a3d4c"/><path d="m200 406c1.9 2.7 3.8 5.4 5.6 8.2.2.3.1 1.3-.2 1.5-2.7 2.6-5.2 5.7-8.4 7.4-1.2.6-4.2-2.1-6.4-3.3 1.9-1.1 3.8-2.5 5.8-3.3 4-1.6 6.2-3.7 3.5-8.1-.7-.8-.6-1.6.1-2.4" style="fill:#4f444c"/><path d="m200 406c0 .8 0 1.6-.1 2.4-3.9-7-4.8-14.2-2.4-21.9 0 0 .1.3.1.3.4.4.8.9.9 1.4.3 1.1.2 2.2 0 3.3.4-2.5 1.6-4.5 4.2-3.9 2.3.6 2.9 3 2.4 5.1-.6 2.6-.4 5.7-3 7.6-2.5 1.2-3.4 3-2.1 5.7" style="fill:#4d4a4f"/><path d="m232 442c-.8 2-1.6 3.9-2.4 5.9-.6-.8-.6-1.6-.1-2.4.5-1.2 1-2.3 1.4-3.5.4 0 .8 0 1.1 0" style="fill:#b3563f"/><path d="m190 420c0 2.4 0 4.8 0 7.2-1.9-2.4-3.7-4.8 0-7.2" style="fill:#4f444c"/><path d="m302 206c-2.8-1.8-5.6-3.6-8.3-5.3-.7-2 1-2.7 2-3.7 2.7-1.7 5.6-2.6 8.8-2.7 4.6-.2 9.1.8 13.7 1.2 1.1.1 2.2.3 3.4.5 3.7.7 5.5-.5 4.4-4.6-1.2-4.8-.9-9.4 1.9-13.7 3.2-4.4 7.5-6.2 12.8-4.8 5.3 1.4 6.4 5.8 7.3 10.4.3 1.7.7 3.4.2 5.1-1.3 4.1.2 6.3 4.5 6.5 2.7 1.2 5.2.5 7.7-.5 2-.8 4-1.1 6.2-.6 9.2 4.1 11 11.7 5.3 19.8-3.1 4.3-7.4 7-11.7 9.9-2.7 1.8-5.5 3.4-7.8 5.7-.4.4-1 .6-1.5.7-5-2.8-6.6-7.1-4.8-12.9 1.1-3.7 3.2-6.9 5-10.3 1.3-2.5.6-3.5-2.2-3.2-3 .3-5.4 1.9-7.6 3.7-8.2 6.6-17.8 8.1-28 7.7-2.9-.1-5.2-1.1-6.5-3.8-.8-1.6-2.2-2.6-3.6-3.6-.6-.6-1-1-1.2-1.5" style="fill:#273643"/><path d="m302 206c.4-.1.7 0 .9.2 2.4 6.2 6.5 9.1 13.6 8.8 7.6-.3 9.5 3.5 5.8 9.9-.9 1.6-1.5 3.2-1.4 4.9.4 7.1-2.3 14-.4 21 .3 1.3.6 2.8-.7 3.7-1.4 1-3 .3-4.3-.5-1.4-.7-2.4-1.9-3.6-2.9-3.3-3.4-5-7.8-7.7-11.6-.6-1.4-1.2-2.9-1.9-4.3-.2-.5-.4-1-.5-1.5-.3-1.2.4-2.6-1.2-3.3-2.4-8.2-4.1-16.5 1.4-24.5" style="fill:#9f7a6c"/><path d="m281 255c.2-.3.5-.6.7-.9 3-1.1 3.4 1.4 4.2 3.1.9 2 1.1 4.3 1.8 6.5 1 4.2 3 8.1 3.5 11.5 1.2-9.8 4.1-19.7 10.3-28.4.8-1.1 2-1.8 3.5-1.1.4.4.7.8.8 1.4-.4 5.3-3.3 9.8-5.5 14.3-4.8 10-2 19.3 1.3 29 5.1-3.2 6-10.3 12.2-11.7 5.3 2.9 10.3 6.2 13.7 11.5 0 2.2-1.4 4.7.9 6.6-.1.4-.2.9-.5 1-6.8 1.3-13.3 4-20 4.9-4.4.6-7.5-1.2-9.2-5.3-1.4-1.4-2-3.2-2.3-5.1-.8-4.5-2.7-8.1-6.7-10.7-3-1.9-3.4-5.6-4.8-8.4-.4 1.5-.6 3.2-2.8 2.6-1.2-1.5-1.9-3.4-2.9-5-1.8-5.7-.3-10.9 2-16" style="fill:#3c4e61"/><path d="m287 264c-1.6-3.4-3.3-6.9-4.9-10.3 2.1-3.4 3.8-7.3 6.4-10.2 3.7-4 8.1-7.4 12.2-11 1.3.5 1.4 2 2.4 2.7 1.9 3.9 1.2 7.3-1.4 10.7-3.8 5-7.4 10.3-10.8 15.6-.8 1.4-1.6 3.1-3.9 2.5" style="fill:#9c786d"/><path d="m281 255c-.4 5.4-.8 10.8-1.2 16.3 1.6 1.5.7 3.7 1.5 5.4 1.1 2.6 2 5.3-.5 7.3-2.3 1.8-4.7-.1-6.9-.9-1.1-2.3-2.1-4.5-3.2-6.8 1.9-5.6 3.5-11.2 5.7-16.6.7-1.9 3-3.2 4.6-4.7" style="fill:#9b7865"/><path d="m288 172c.3-.4.6-.9 1-1.3 5 3.3 10.8 2.1 16.2 2.8.4.4.7.9.8 1.4-2 4.3-7.1 3.8-10 6.5-.5.2-1.1.3-1.6.4-1.2 0-2.2-.4-3.2-1.1-.6-.6-1.1-1.2-.6-2.2.5-.7 1.6-1.9 1.4-2.1-1.2-1.5-2.6-2.9-3.9-4.4" style="fill:#7b7076"/><path d="m290 179c.4.5.9 1 1.3 1.4 2 5.9 2.5 12.2 4.4 18-.8.9-1.6 1.7-2.3 2.6-1.8-6.9-3.6-13.8-5.2-20.7-.2-.3 1.1-.9 1.8-1.4" style="fill:#958177"/><path d="m303 235c-.8-.9-1.6-1.8-2.4-2.7 0-.5 0-1 0-1.5.4-.4.7-.8 1.1-1.2.4 1.7.8 3.5 1.3 5.4" style="fill:#505b66"/><path d="m351 228c3.8-2.8 7.6-5.6 11.3-8.5 2.5-2 5.3-3.9 7.3-6.3 6.2-7.4 4.8-13.6-3.7-18.5-2.3-1-2-2.8-1.5-4.8 1.8-7.9 6-13.7 14-16.2 1.3-.4.8-1.5 1.3-2.2 4.7-5.9 10.3-7.6 17.2-4.2 1.8 1.6 4.3 3 5.1 5 4.3 10.5 8.5 21 12 31.8.8 2.4-1.4 5.8-2.2 8.7-7 4.5-15 4.9-22.8 5.2-10.5.4-19.4 3.4-25.9 12-.2.3-.5.6-.8.8-6.5 6.9-8.6 6.3-11.3-2.8" style="fill:#4d5e6e"/><path d="m351 228c.4.3 1 .6 1.3 1.1 1.1 1.7 2.1 3.5 3.1 5.2 2.1-1.6 4.6-2.9 6.1-4.9 7.3-9.7 17-12.7 28.8-13 6.9-.3 13.7-3 20.6-4.6.2 0 .6.7.9 1.1 1.2 1.3 2.3 2.5 3.5 3.8.1 2.2-1.5 1.8-2.8 1.8-9.8-.6-19.4 1.2-29 2.4-6.7.9-12.4 3.9-16.8 9.1-3 3.5-7.1 5.8-9.5 9.9-4.6 7.8-6.2 15.9-2.8 24.6 2.2 2.3 2.3 8 7.9 4.9 1.4-3 .3-6.1.8-9.1.6-3.9.2-8.2 4.4-10.5 2.6 1.3 1.9 3.6 1.6 5.5-.6 3.8-.3 7.5-.2 11.3-1.5-26.6 19.7-43.7 42.7-34-2.1-4.7-5.7-5.7-10-4.6-12.7 3.1-24.8 7.1-30.7 20.4-.5 1-1.2 2-2.7 1.6-2.8-4 0-7.4 1.7-10.6 4.5-8.9 32.8-21.7 44.6-16 2.1 1 4.3 1.8 5.9 3.4 1.7 1.6 3.8 3.7 1.7 5.8-2.1 2.1-3.5-.9-5.2-1.8 1.5 2.8 3.2 5.8 1.1 9-1.2 1.8-2.9 1.6-4.6.6-8.9-8.4-18.6-5.9-27.6-.8-9 5.1-13.6 13.4-12 24 1 7.2 2 14.4 3.4 21.5.5 2.4 1.2 4.9-.4 7.2-2.6 1-2.7-1.4-3.6-2.7-.9-4.8-3.6-7.2-8.6-7.6-2.8-.2-5.6-1.4-7.7-3.5-.8-.8-1.7-1.9-1.1-3 .7-1.4 1.9-.7 3-.3 1.5.5 3.1.7 4.3 1.6 3.3 2.2 2.2-5.3 5.6-2.4-.3-.3-.9-.9-1.1-.8-3.7 1.8-7.4 2.7-11.4.7-1.2-.6-2.9-.8-3.4-2-2-4.7-5.3-3.4-8.7-2.1-6.1.1-9.7-3.5-12.5-8.5-.7-.5-1.3-.5-2.1-.2-8.3 4-14.3 2.4-19.4-5.5-1.9-3-3.8-6.2-5.1-9.5 0-.4-.1-.8-.1-1.3-2.3-3.7-2.2-4.8 0-6.9 2.3 3.9 4.6 7.7 6.9 11.6.8.8 1.1 2 1.8 2.9 4.9 6.8 9.6 7.6 15.6 1.7 6.2-6.1 11.5-13.2 19-18 2.7-1.7.7-5.2 2.7-7.2.3-.4.3-.8.3-1.3" style="fill:#364859"/><path d="m354 266c-4.9-11.3-1.4-25 7.7-33 6.3-5.5 11.5-12.3 20.4-13.6 9.2-1.3 18.4-2.4 27.7-3.4 2-.2 4.1.5 6.2.7 2.7 1.6 5.4 3.3 8.1 4.9 4.7 2.9 5.3 7.4 4.6 12.3-.5 1.1-.9 2.2-1.4 3.3-.9 1.5-.8 3.6-2.4 4.8-.4.3-.9.5-1.4.7-3.3-.4-6.7 1.6-9.9-.5-.5-1.3.1-2 1.2-2.5 5.3.5 3.5-3.2 2.8-5.4-.8-2.5-2.5-4.6-3.1-7.8 2.5 1.9 5 3.8 7.6 5.8-1.5-5.5-9.4-10.2-15.8-8.9-10.5 2-20.7 5-29.5 11.7-5.1 3.9-7.7 8.8-8 15-1.1 4.2-2.5 8.4-3.4 12.6-.7 3-.8 6.1-1.2 9.2-1.9-1.8-1.6-4.1-1.7-6.4-.1-2.1-.1-4.2-1.5-6-1.1-1.5-2.4-3.6-4.3-3.2-2 .5-1 2.9-1.2 4.5-.1 1.9.1 3.9-1.5 5.3" style="fill:#4d5f6e"/><path d="m344 138c-3.5-1.8-8.1-4.5-6.2-8.3 2-3.9 7-6.4 10.8-9.4.2-.2 1.5.9 2.3 1.4 13 5.4 18 16.8 21.9 29 2.5 3.5 1.8 8.2 4.1 11.7-1.6 4.6-3.3.7-5 .1-.4-.4-.8-.8-1.2-1.2-.5-.7-.9-1.4-1.1-2.2-.6-2.5 1.1-5.1-.4-7.6-.6-1.4-1.7-2.4-2.9-3.3-.8-.6-1.6-1.2-2.3-1.9-1-1-1.9-2.2-3.4-2.8-.5-.3-.9-.6-1.3-.9-1-1-1.5-2.2-1.8-3.5-1.8-5.9-2.2-6-6.6-2.1-1.1 1-2.1 2.1-3.6 2.6-1.5.5-2.5-.5-3.3-1.6" style="fill:#273740"/><path d="m377 163c-4-3.3-3.5-7.9-3.5-12.4 10-1 11.9.1 16 10.2 0 3.7-3.2 6.4-8.4 7-3.8.4-3.5-2.6-4.1-4.8" style="fill:#4d5c68"/><path d="m377 163c1.2 1.2 2.5 2.4 3.7 3.6 2.2-3 7.9-.7 8.8-5.8 2.7 2.3 5.4 4.7 8.1 7-6.7-2.5-11.9 1.2-17.2 4.5-.2-.2-.3-.4-.5-.6-.5-.2.1-1.6-.4-1-1.7 1.9-3.2 3.1-5.8 1.6-2.6-2.6-1.5-6.1-2.3-9.1 0-.9.2-1.8.9-2.4 1.6.7 3.1 1.4 4.7 2.2" style="fill:#394654"/><path d="m290 133c2.9-1.4 5.8-3.7 8.8-3.9 7.1-.6 10.4-6.6 15.7-9.7.5.4 1.4 1 1.3 1.1-4.3 7.4-10.5 12.5-18.8 14.4-2.1.5-4.7-1.2-7-1.9" style="fill:#2b3a56"/><path d="m344 138c1.1.3 2.3.6 3.4 1 .7 17.2-11.7 27-21.7 38-1.7-1.3-1.7-3.1-1.3-4.9 3.1-3.3 6.3-6.6 9.4-9.9 5.1-5.5 10-11.2 9.1-19.6-.2-1.6.7-3.3 1.1-4.9" style="fill:#526979"/><path d="m325 172c.3 1.5.7 3 1 4.5-1 1.6-2.8 1.7-4.3 2.2-.8.2-1.7.3-2.5.3-5 .6-9.7 0-13.7-3.6.1-.4.1-.7.1-1.1.3-.5.8-.9 1.3-1.1 1.7-.7 3.5-.5 5.2-.6 2.8-.9 5.6-.8 8.5-.5 1.4.1 2.9 0 4.4-.1" style="fill:#2c3d43"/><path d="m320 172c-2.8.5-5.6 1-8.4 1.5-1.3-.6-2.8-1.1-3.3-2.7-.7-2.7-.8-5.4.3-8 .7-1.1 1.6-1.7 2.9-1.7 2.4 1.2.9 3.8 2 5.4.2-.1-.1-.2 0-.3-.1-.8.2-1.3.7-1.8.8-.3 1.5-.2 2.2.4 1.2 2.5 2.4 4.9 3.6 7.2" style="fill:#8aa249"/><path d="m292 140c1.5.6 3 1.1 4.5 1.7 2.2.9 4.5 1.7 6.7 2.6.2.2.4.4.5.7-.5 4.4-5.6 3.1-7.3 5.9-4.8 1.7-7.7.1-8.9-4.8 0-.6.2-1.1.5-1.6 3.8-.7 3.8-.7 4-4.5" style="fill:#647138"/><path d="m303 144c0-.7.1-1.5.1-2.2 2-2.8 3.6-6 7.6-6.5 1.2.3 2.4.6 1.8 2.3.3.6.7 1.1 1 1.7.9 1.7.6 3.3-.5 4.8-2.4 1-4.9 1.3-7.4 1.9-1.1-.2-1.8-1.1-2.5-1.9l-.1-.1" style="fill:#56731f"/><path d="m312 162c-.8.3-1.6.7-2.4 1-5.8-1-7.2-3.1-5.5-8.5 3.5-1.1 6 1.9 9.2 2.2.5.1 1 .3 1.5.6.4.3.7.7.8 1.3 0 .5-.1 1.1-.1 1.6-.1.5-.3.9-.7 1.3-.8.5-1.7.9-2.8.5" style="fill:#475949"/><path d="m312 138c-.7-.6-1.4-1.1-2.1-1.7-.7 0-.8-.3-.5-.9-.2-8.3 5.8-3.8 9.3-4.5 1 4.1-3 4.5-4.8 6.5-.7.3-1.3.4-1.9.6" style="fill:#8bb21c"/><path d="m315 149c1.6 2 3.4 4 4.5 6.2.2.5-2.1 2.2-3.3 3.4 0 0-.4-.3-.4-.3-1.2-2.3-3.5-3.8-4.6-6.2.2-1.8 1.9-2.1 3.1-2.8.2-.2.4-.3.7-.3" style="fill:#82a444"/><path d="m292 140c1.2 1.5 2.5 3.1 4.6 5.8-3.5-.6-5.9-1-8.3-1.5-1.7-3 .1-3.9 2.5-4.4.5-.1.8 0 1.2.1" style="fill:#b1a616"/><path d="m314 137c1.6-2.2 3.2-4.3 4.8-6.5 4.8 1.9 1.4 3.7-.1 5.5-.4.9-.9 1.6-2 1.1-.9 0-1.8-.1-2.7-.1" style="fill:#98ae63"/><path d="m310 135c.2.3.4.6.5.9-2.4 2-4.8 3.9-7.2 5.9-.3-4.9 1.5-7.5 6.7-6.8" style="fill:#555c60"/><path d="m312 145c.4-1.7.8-3.5 1.2-5.2.4 3.1.7 6.3 1.1 9.4-4 .5-3.7-1.5-2.3-4.2" style="fill:#82a444"/><path d="m291 140c-.8 1.5-1.7 2.9-2.5 4.4 0 0-.4.2-.4.2-1.7 0-2.6-1.1-3.2-2.5 1.6-1 3.2-2.1 4.8-3.1.4.3.9.6 1.3 1" style="fill:#f3e932"/><path d="m317 137c.7-.4 1.3-.7 2-1.1.5 1 1 2 1.5 2.9-1.2-.6-2.3-1.2-3.5-1.8" style="fill:#7e984d"/><path d="m315 161c.3-.2.6-.5 1-.7.4 1.6.8 3.3 1.2 4.9-.7 0-1.4 0-2.2 0-1.5-1.4-1.3-2.8 0-4.2" style="fill:#82a444"/><path d="m306 174c-.3 0-.6.1-1 .2-1.8.2-3.7.3-5.5.6-4.6.9-8.5.5-11-4.1.4-2.7.8-5.5 1.1-8.2 1.1-.7 2.1-.3 3.1.1 6.7 0 11.9 2.5 14.7 8.9.5 1.3-.3 2-1.4 2.5" style="fill:#ccb69d"/><path d="m284 142c1.1.8 2.1 1.7 3.2 2.5.4 5.1 4.3 5.6 8.2 6.1.5 1.9-.8 3.2-1.6 4.7-1.7 1.3-3 3.2-5.1 4.1-1.1-1.8-3.5-3.9-3.1-5.3 1.2-4.5-.3-8.1-2.3-11.7.1-.1.4-.3.7-.4" style="fill:#c2b2a0"/><path d="m289 159c1.5-1.6 3-3.1 4.5-4.7 1.4-1 2.6-.6 3.7.6.1.2.2.5.4.7.1.5 0 1-.2 1.5-.9.8-1 2-1 3.1-.6 1.4-1.3 2.6-2.3 3.6-.4.3-.9.3-1.4.2-.9-.5-1.8-1.1-2.7-1.6-.3-1.2-.6-2.3-1-3.4" style="fill:#747517"/><path d="m434 809c-12.3.7-24.7 1.4-37 2.1 0-2.2-.1-4.4-.1-6.6-3.6-.5-6.8-1.8-9.1-4.7 1.7-.8 3.3-1.9 5-2.2 3.3-.6 6.6-.8 9.9-1.2 1.4-2 3.8-2.4 5.8-3.6 5-2.9 5.3-5.2 1.3-9.1-.8-.8-1.7-1.6-2-2.7 2.9-5.8 6.3-6.9 12.7-4.3 14.3 5.7 21.3-3.6 28-15 1 4.1 1.1 6.8.3 9.5-1 11.2-4.7 21.5-10.4 31-1.3 2.3-2.9 4.4-4.4 6.6" style="fill:#273133"/><path d="m449 771c-.1-2.3-.2-4.5-.3-7-6.6 14.3-17 19.3-28.6 13.8-4.8-3.7-10.4-5.7-15.9-8.2-2.5-1.1-5.6-1.1-7.3-3.8 1.9-3.9 5.3-1.8 7.8-1.9-2.4-.5-5.2-.4-7.9-1-1.1-.3-2.3-.9-2.4-2.2-.1-1.7 1.2-2.2 2.6-2.3 5.9.3 11.8 1.4 17.5-.7 1-.5 2.1-.8 3.2-1 1.6-.1 2.9-.9 4.2-1.7 4.4-2.4 7-6.7 11-9.6 3.1-2.7 4.2-6.6 5.7-10 1-2.1 1.1-5.5 4.6-4.6 4.8 1.2 5.8 4.9 4.5 10 1.2-2.3-1-4.8 2-5.5 0 3.1 0 6.2 0 9.3-.8 5.3-.7 10.6-.1 15.9 0 3.4-.3 7-.6 10.5" style="fill:#626b67"/><path d="m450 735c-.5 1.9-1.1 3.8-1.6 5.7.4-.4.7-.7 1.1-1.1-2.2-2.7-4.5-5.5-6.7-8.2-1 1.6-1.9 3.2-2.9 4.8-.9-.1-1.4-.6-1.7-1.4-.2-1.1 0-2.1.3-3.2.3-1.4.8-2.6 1-4.1 1.5-6.8 2.3-13.5.5-20.4-.5-1.8-.6-3.8.2-5.6 8.2-1.7 11-7.8 11.8-15 1.8-17 1.9-34-.7-51-.3-2-2.7-4.8 1.3-6.1 1.1 4.6 3.2 9.2 3.2 13.8.1 15.7-.5 31-.6 47 0 2 1.5 4 1.8 6 .6 3.3.8 6.6 1.1 9.9-.3 1.7-.5 3.3-.8 5 2.9 6.3 3.5 12.4-1.6 17.9-2 2.2-3.8 4.3-5.7 6.3" style="fill:#4f5f6d"/><path d="m450 761c0-5.3.1-10.6.1-15.9 0 5.3 0 10.6-.1 15.9" style="fill:#273133"/><path d="m242 731c.4 0 .9 0 1.3-.1 1.3-1.4 3-1.6 4.7-1.6 2.5 0 2.5-1.7 2.7-3.4.5-1.2 1.5-1.6 2.6-1.7 1.7 0 3.3.5 5 .9 4.5 2.5 9.1 4.9 13.6 7.6.4 5-3.2 7.8-6.1 11-2.3 3.1-4.9 3.1-7.9.9-1.8-1.4-4.1-2.2-5.4-4.2-2.1-3.4-4.7-5.9-8.7-6.9-1.1-.4-2.2-1.2-1.8-2.6" style="fill:#85999d"/><path d="m230 761c-.9.1-2 .6-2.8.2-1-.5-1.6-1.5-2.5-2.4-.4 1.6-1.2 3.2-1.2 4.8 0 3 .3 6 .5 9-.8 0-1.5 0-2.3 0 0-3.9 0-7.9 0-11.8.8-3.4 2.3-6.9 2.3-10.3.1-5.5.6-10.2 6.2-13 1.2-.6 2-2.3 3-3.4.9.2 1.4.7 1.8 1.5.1 2.3-.7 4.2-2.4 5.7-1.5 1-3.2 1.8-4 3.8-2.3 6.2-.1 9.1 6.4 8.5 2.6-.2 5.2-.9 7.8-1 1.2 0 2.4.4 3.3 1.3 0 .2.2.5.1.5-4.3 4.6-10 6.1-16.2 6.6" style="fill:#5b5657"/><path d="m235 736c-.4-.6-.9-1.3-1.3-1.9.4-.8.6-2.3 1.1-2.3 2.3-.4 4.7-.5 7.1-.6 8 .8 10.7 8.9 16.8 12.5 3.3 2 4.5 1.4 6.3-1 3-2.4 5.5-2.4 7.2 1.5 1 2.5 3.7 2.5 5.4 3.9.4.5.5 1 .3 1.6-7.8 3.8-16 2.3-23-3.9-3.5-3.1-6.1-7.4-10.8-9.2-1.6-.6-3.3-.2-4.8-1-1.8-2.4-2.6 1.8-4.2.4" style="fill:#597f88"/><path d="m254 725c-.7.4-1.5.8-2.2 1.2-1.5 3.7-4.8 3.7-8.1 3.8.9-1.6 1.8-3.1 2.6-4.6-2.3-.6-5.3-.9-7.9-2-4.8-2-1-4.9-.5-7.5 1.5-1.1 3-2.4 4.5-3.5 2.3-1.5 4.6-3.1 7-4.6 2.2-1.1 4.4-2.3 6.6-3.4-1.5 5.4-6.4 7.4-10.2 10.5-.9.6-1.8 1.2-3 2.7 3.3.3 6.3.7 9 1.9 1.2.5 2.3 1.1 3.3 1.9 2.3 2 1.3 3-1.1 3.6" style="fill:#626b71"/><path d="m243 730c2.7-1.3 5.4-2.6 8.1-3.8 2.1 3 1.1 4.5-2.4 4.7-1.9.1-3.8 0-5.7-.1.1-.3.1-.5 0-.8" style="fill:#dbbcba"/><path d="m242 712c-1.5 1.2-3 2.3-4.5 3.5 1.5-1.1 3-2.3 4.5-3.5" style="fill:#7a839c"/><path d="m362 593c-.2-.4-.3-.8-.5-1.1 1.4-5.3-1.1-10.6.4-15.9.9-4 3.9-1.2 5.6-1.9-1.2-.5-2.9-.4-4.2-1.5-.4-.5-.6-1-.7-1.7.7-6.9.7-7 7-6.1 7.4 1 14.6 2.9 22 2.5 2.9-.2 5 1.7 6.4 4.1 3.9 7.6 5.2 16.5 11.2 23 2.9 4.3 6.3 8.1 9.7 12 3.4 3.8 7 7.6 7.3 13.2-4.3 2.8-5.9 2.2-7.8-3.1 1.1 7.7-.1 14.5-7.1 19-1.9.6-4.4.2-5 2.8-.4 1.8 1.3 2 2.5 2.4 2.5.7 4.7 1.6 2 4.5-1.5 1.6-2.9 3.1-1.5 5.4 1.4 2.3 3.5 3.3 6.2 3.1 2.5-.2 5.6-1.5 6.1 2.8-.8 1.9-2.5 2.2-4.2 2.3-10.4.5-20.6 0-30.4-3.9-2.4-1.5-3.5-3.7-3.1-6.6 1.2-1.9 3.2-1.9 5.1-1.8 3.3.3 4.5-1 4.1-4.3-.9-8.2-2.3-16.2-2.7-24.4-.2-3-2.1-5.3-4.4-7.1-6.6-5.5-13.5-10.6-19-17-1.2-1.3-2.2-1.1-3.4-.3-.6.1-1.1 0-1.5-.4" style="fill:#8da1a8"/><path d="m375 747c.6-.1 1.1-.3 1.7-.4 4.4-6.7 8.6-13.4 10.3-21.4 3-14.4 4.1-28.6-.8-42.9-2.6-7.6-5.7-15-7.7-22.8-.5-1.9-1.1-3.7-.4-5.6.2-.9.6-1.7 1.6-2.1 6.6 4.1 12.5 9.2 19 13.5 2.5 1.7 2.9 4.9 3.3 7.8.4 3.2 1.3 6.4 1.6 9.6 3.9 14.6 1.3 28.6-3.9 42-.8 2.1-1.1 4.4-1.9 6.6-1.4 3.9-2.4 7.9-4 11.7-1.2 2.9-2.7 5.4-5.6 6.8-2.3 1-4.6 1.8-7 2.4-6.1 1.8-7.2.7-6.2-5.6" style="fill:#e3d1b2"/><path d="m397 766c8.8 1.6 16.7 4.8 22.8 11.7-5.1-3.5-8.2 0-11.4 3.3-3.1-.5-6-2-9.2-2.2-1.8-1.1-4-1-5.8-2.2-2.5-.2-6.1.8-5-4.4-1.4 1.6-2.8 3.3-4.2 4.9 0 0-.8-.6-1.2-.9 0-.2 0-.4 0-.6-.8-1.9.5-3.2 1.3-4.7 1.5-2.2 3.4-4.1 5.9-5.1 2.2-.8 4.6-1.9 6.8.2" style="fill:#3b4a4f"/><path d="m379 654c2.7 9.3 5 18.7 8.2 27.8 5 14.2 4.2 28.4 1.2 42.8-1.8 8.5-5.1 16.4-11.4 22.6.1-1.1-.1-2.4.5-3.1 10.5-13 11.3-28 11.3-43.9 0-11.5-5.2-21.4-8.4-32-1.4-4.6-1.8-9.4-2.7-14.2.4-.5.9-.5 1.3 0" style="fill:#a08d7d"/><path d="m362 593c.6 0 1.2 0 1.8 0 2.1.7 2.7 2.6 3.3 4.4 4.7 14.8 10 29.5 16.2 43.8.8 1.8 1.4 3.5.5 5.5-.4.6-.9.7-1.6.4-6.7-18-13.4-36-20-54" style="fill:#a99985"/><path d="m375 747c-.2 5.2 1.8 6.3 6.4 3.8 1.9-1.1 4.3-1.1 6.5-1.6 2 1.1 5.1.7 5.5 3.9.4 2.5-1 3.8-3.3 4.3-5.2.4-10.4.5-15.6-.5-.6-.3-1-.7-1.4-1.2.7-2.9 1.3-5.8 1.9-8.7" style="fill:#8aa4a6"/><g style="fill:#e8e8e8"><path d="m382 775c-.5.8-1 1.5-1.4 2.3-.5-.7-1.4-1.3-1.5-2-.1-2.9.1-5.8.2-8.7 1.4.2 2.8.4 4.1.6 1.2 2.9.9 5.5-1.4 7.8"/><path d="m373 756c.4.1.7.2 1.1.2 4.7 3.3 10 .6 15 2 .7.7 1 1.6 1 2.5-.1 1.3-.5 2.4-1.9 2.9-.7.1-1.2-.2-1.6-.8-2.6-.7-5.2-1.8-7.9-1.9-3.5 0-5.6-1-5.7-4.9"/></g><path d="m363 575c-.4 5.7-.8 11.5-1.1 17.2-.1-7.7-.1-15.4-.2-23 .4-.5.7-.9 1.1-1.4 1.5 1.3 0 3.4 1.2 4.8 0 .2 0 .5 0 .7 0 .9-.3 1.5-1 1.8" style="fill:#a97775"/><path d="m382 647c.3.1.5.1.8 0 .8 0 1.1.4 1.1 1.2.9 1.9 1.7 3.7 2.6 5.6-.2.2-.4.4-.6.5-2.6 1.3-4-2.1-6.4-1.7-.4.3-.8.7-1.3 1-.4 0-.9 0-1.3 0 1.8-2.1 3.5-4.3 5.1-6.6" style="fill:#53686b"/><path d="m387 763c.4 0 .9.1 1.3.1 2.2 4-3.6 5.7-2.7 9.4-.7 1.2-1.5 2.5-2.2 3.7-.4-.4-.8-.9-1.2-1.3.5-2.6 1-5.2 1.5-7.8 1.1-1.4 2.2-2.7 3.3-4.1" style="fill:#a18386"/><path d="m278 749c.1-.3.2-.6.3-.9 6-3.4 11.6-7.5 18.3-9.5 1.6 3.5-1.3 4.4-3.4 5.7-.8 1.2-2.1 2-3.1 3.2 2.1-.2 2-2.4 3.3-3.3 1.5-.7 2.8-.1 3.4 1.1 2.8 5 6.6 5 11 2.5.8-.5 1.8-.7 2.7-.6.5.2 1 .5 1.3.9-.1 6-5.6 6-8.5 8.2 0 0 .6-.1 1.2-.4.7-.3 1.3-.8 2-1.1 1.4-.8 2.7-2.7 4.5-1.3 1.4 1.1 1 3.1.5 4.7-3.3 1.3-6.6 3.1-10 3.8-11.9 2.4-21.9 8.3-31.4 15.6-11.2 1.5-22.3 3-33-1 5.1-3.9 5.1-4.5-.1-8.5-1.6-1.2-3.3-2.5-2.6-4.6.7-2.3 2.9-1.1 4.5-1.1 1 0 1.9-.1 2.8-.5 4.6-2.1 9.1-2.7 13.8.8.6-4.9-3-6.7-5.1-9.3-.5-2.3.9-3.7 2.6-4.9 7.1.3 11.9 4.1 15 10.2.7 1.4.8 3.7 3.3 3.1 2.2-.6 1.9-2.5 1.8-4.2-.1-1.2.7-2.3.5-3.3-.9-3.9 1.6-4.7 4.6-5.3" style="fill:#303b3e"/><path d="m311 748c-1.7.8-3.2 1.9-5 2.5-4.4 1.5-8.4 2-10.3-3.8-.3-.9-2-1.4-3-2.1 1.1-2 2.3-4 3.4-6.1 1.1-5.4 5.5-8.4 8.7-12.3 6.5-5.1 4.4-12.2 4.8-19.3-3.2.9-4.1 3.6-5.8 5.4-1.2 1.3-2.2 4-4.7 1.5.7-6.9 6.1-11 9.6-16.4 3-4.4 1.6-10 4.1-14.6.4-.4.9-.7 1.4-.7 3.5 1.2 5.1 3 2.7 6.7-1.4 2.1-1.7 4.6-2.2 6.9.4 2.9 5.4-2.1 4.5 2.8-.3 1.1-1.2 2.5-.9 3.3 3.6 7.1 2.3 13.4-1.9 19.8-1.1 1.6-.8 4.3-.9 6.4-.2 5.3-1.7 10.5 1.1 16 2.4 4.9-1.1 12.3-5.3 14.5-.5-1.3-1.1-2.5-1.5-3.5-3.4 1.1-7.2 2.4-11.3 3.8 4.3-3.9 8.4-7.3 12.5-10.8l.3-.2-.3.2" style="fill:#394850"/><path d="m319 698c0-.2 0-.5-.1-.5-1.9-.2-3.7-.4-5.6-.6.4-2.9-.2-6.8 1.5-8.5 3-3 .5-4.4-.4-6.5-3.2-5.6-1.1-11.6-1.4-17.5.4-1.8 1.3-3.1 3.3-3.4.6.3 1 .7 1.2 1.4-.1 5.6-.6 11.3.3 16.5.9.4 1.4.4 1.5 0 4.4-10.3 9.6-20 14.2-30.4 1.5-3.4.8-7.1 1-10.7.2-3.7-.9-7.6 1.4-11 .5-.4 1.1-.4 1.6 0 .2.1.4.1.7.1 1.9 6.2.8 12.3-.4 18.4-1.7 4.2-3.3 8.4-5 12.6-2.7 6.5-5.5 12.9-8.3 19.4-.3 3.1-.3 6.3-.7 9.4-.1.8-.2 1.6-.3 2.3-1.8 3 1.1 8.2-4.5 9.1" style="fill:#4a6479"/><g style="fill:#5f463d"><path d="m400 779c3.1.8 6.2 1.5 9.2 2.2 2.4 1.9 7.3 2.2 6.1 6.8-1.5 5.8-6.7 7.3-11.9 8.3-2.7-.4-5.4-.7-8-1.1 2.9-.8 6.8-.8 8.5-2.6 5.3-5.7 3.7-10.3-3.9-13.6"/><path d="m394 777c1.9.7 3.8 1.5 5.8 2.2-2-.7-3.9-1.4-5.8-2.2"/></g><path d="m250 754c6.2.2 5.6 5.8 7.6 9.5-1.4.4-3.5 1.6-4 1.1-4.4-4-8.5-2.3-12.9-.1-1.5.7-3.7-.2-6.8-.4 1.6 1.5 2.7 3.4 3.9 3.5 4.6.4 3.7 4.4 4.9 6.9-2.1.9-4.2 1.7-6.2 2.6-1.5-.4-3-.8-4.4-1.2.8-3.2-3.2-2.5-3.8-4.6 5.5-2.3 4.3-6.2 2.4-10.3 5.4-2.3 10.8-4.6 16.2-6.8.8-1.2 1.9-1.1 3.1-.2" style="fill:#38464b"/><path d="m228 771c5 .8 5.5 1.4 3.8 4.6-.4-2.2-6.8.5-3.8-4.6" style="fill:#303b3e"/><path d="m388 800c3 1.6 6.1 3.2 9.1 4.7-.9 4.7-3.1 5.8-7.1 2.8-1.8-1.3-4.2-1.9-5.8-3.3-1.4-1.2-2-3.2-3-4.9 1.7.1 3.4.2 5.1.3.6 0 1.2.3 1.7.4" style="fill:#755647"/><path d="m274 283c.2-.5.6-1.5.6-1.5 6.8 2.2 6.8 2.2 5.6-4.6-.3-1.9-.2-3.8-.3-5.7.8 1.6 1.6 3.2 2.4 4.8 1.6 1 2.3 2.6 1.9 4.3-.9 3.9.3 7.4 1.3 11 .2.7.4 1.4.6 2.2 3.2 10.6 3.4 10.7 13.3 9.2 2.8 1 3.5 3.1 1.9 5.4-2.2 3.2-2.5 7.1-4 10.6-5.6 1.6-7.5.3-7.7-5 0-1.1 1.3-2.7-.9-3.1-3.2-3-3.1-8-6.9-10.6-.9-.8-1.7-1.8-2.5-2.7-.9-1.1-1.9-2-2.7-3.2-.9-3.7-1.7-7.4-2.6-11" style="fill:#505156"/><path d="m277 294c1.2.8 2.3 1.5 3.5 2.3 1.5 4 1.5 7.9.7 12.2-1.1 6.3-1.4 12.8-1.6 19-.6 2.7-1.5 5.2-3.8 6.8-2.5 1.9-2.3 5-3.5 7.5-.7 1.5-.9 3.7-2.9 3.8-1.9.2-2.7-1.7-3.5-3.2-.9-6.5 4.3-10.2 6.4-14.6-2.1 1.4-2.2 5.1-5.1 6.7-1 0-1.4-.6-1.8-1.4 2.2-3.2 3.9-7 6.8-9.5 2.9-2.6 3.6-5.3 3.6-8.9.2-7 .8-14 1.2-20.9" style="fill:#797f74"/><path d="m266 342c.8.7 1.7 1.5 2.4 2.1 1.8-3.4 3.7-6.8 5.6-10.3 1.9 2 .9 4.3.3 6.4-1.7 7-3.9 13.8-6.7 20.9 3.6.2 5.2-3.5 8.2-3.5 1.1.4 1.6 1.4 1.9 2.5-2.6 5.2-8 6.5-12.6 8.7-.5.1-1 .1-1.6.1-1-.3-1.9-.7-2.4-1.7 2.2-4.5 1.8-8.7.6-13.6-1.8-7.1-.7-14.3 3-20.8.4.4.8.8 1.2 1.1 1.6 3-1.6 5.2-1.3 8-.8 3.1-.8 6.2-.2 9.3.1.3.2.7.3 1.1.1.6 0 1.1.1 1.7.4-.3.2-.9.4-1.3 2-2.9.3-5.8-.1-8.6 0-.9.2-1.6.9-2.1" style="fill:#556367"/><path d="m246 356c-1.8 4.9-4.1 5.1-10.5 1 2.2-5.8 6.2-6.2 10.5-1" style="fill:#453c39"/><path d="m262 367c.7.3 1.5.5 2.2.8-1.6 3.8-4 3.4-6.8 1.4-.3-1.1.2-1.8 1.2-2.2 1.2 0 2.3 0 3.4 0" style="fill:#18352e"/><path d="m258 367c-.3.5-.5.9-.8 1.4-.4.1-.9.2-1.4.2-1.1-.3-2.4-.4-2.7-1.8.8-.7 1.6-1.3 2.4-2 .9.7 1.7 1.4 2.5 2.2" style="fill:#7f8b84"/><path d="m266 595c0-10.2.7-20.3 5.6-29.6 3.1-1.1 4.8-.3 4.4 3.3-1 4.5 4 2.4 5 4.6 2.7 2.4 4.9 5.1 7.7 7.4 3.6 2.9 4.8 6.5 3.6 11-2.6 6.9-1.5 14-1.7 21-.2 7.5-.8 8.6-8 10-3.3.7-3.1 2.7-3.3 5-.3 3.4.5 7-2.6 9.6-1.5.9-3 .5-4.5 0-2.9-2.6-3.1-6.3-3.8-9.8v.1c-1.6-4.5-1.7-9.1-2.4-13.7 0-4.2 0-8.5 0-12.7-.1-1.8.3-3.7-.1-5.5.1-.4.2-.6.1-.9" style="fill:#e0ccac"/><path d="m291 591c.7-3.7-.1-6.4-3.4-8.9-3-2.2-5.2-5.5-7.8-8.3 0-3.2-4.2-2.2-4.9-4.8-1.2-1.2-2.4-2.4-3.6-3.6.1-3 .1-5.9.2-8.9 2.5 1.8 5.9-.6 8.2 1.9 1 1.9-.1 3.1-1.4 4.2-.3 2.2 1.5 1.1 2.2 1.2 2.1.2 4.2.1 6.3.1 12.6 0 15.3 2.2 18.6 14.7 1.2 3.4 2.1 6.9 2.7 10.4 1.1 5.9 3.5 11 7.6 15.5 1.8 2 3.2 4.2 3.9 6.8.3 1.3.3 3.7-.4 3.7-3.1-.2-1.7 2-2.1 3.3-.6 1.9-1.9 2.8-3.9 2.8-.6-.1-1.1-.5-1.4-1-2.3-6.7-7.8-8.5-14-9.2-3.2-.3-7 .7-8.6-3.6 0-5.3.3-10.8 1.8-16.3" style="fill:#8b9fa6"/><path d="m280 559c-2.6-.8-5.2-1.6-7.9-2.4 2.3-1.1 4.5-2.3 6.8-3.4 2.1-.2 2.4-2.8 4.4-3.2.5-.1 1.1-.1 1.6 0 1.1.2 2.1.6 3.1.9 9.3 2.5 18.2-1.6 27.3-1.6 3.8-.5 7.6-.1 11.4-.2 3.8-.3 7 .7 9.2 4.1 1.8 2.4 1.8 5.1 1.6 7.9 1.2 5.5-1.4 8.7-6.4 10.5-.9.3-1.6 1.5-2.5 1.3-2.7-.5-6.4 2.4-7.9-.5-1.2-2.3 2.9-3.3 4.4-5 1.5-1.7 2.9-3.5 3.5-4.4-1.8 3.5-5.6 6.7-10 9-1.8 1-3.9 2.2-5.9.9-2.2-1.4-.4-3.5-.5-5.2 0-.5.1-1-.2-1.4-.4 1.1 1.1 3.5-1.9 3.1-1.4-7.6-6.6-7.9-12.9-7.5-5.8.2-11.8.6-17-2.9" style="fill:#455b63"/><path d="m232 462c.6-1.6 1.2-3.1 1.8-4.7 5.1 4.6 2.9 10.2 2.3 15.7-.8 7.1 3.5 12.3 6.8 17.9-6.2-.9-7.8-6-10-10.6-.6-1.3-.8-2.8-1.2-4.3-1.3-4.6-3.2-9.4.4-14" style="fill:#4c302c"/><path d="m267 523c4.1 2.2 3.6 6.1 3.6 9.9-.1 2.3.1 4.6.1 6.9-7.4-1.2-9.3-9.5-3.7-16.8" style="fill:#5d3f3b"/><path d="m232 462c-.1 4.7-.3 9.4-.4 14-1.2-2.5-2.3-5-3.4-7.3.1-.1-.4.6-1 1.3-.3-.1-.6-.2-1-.3.8-2.8 1.7-5.6 2.3-8.4.2-1.1 0-2.6-.5-3.7-1.9-4.1-2-8 1-11.6 0 .8.1 1.6.1 2.4-3.1 5.4 2.6 9 2.9 13.6" style="fill:#f2f2d0"/><path d="m269 506c2.9 3.7 2.5 13-.7 17-4.6-8.3-4.5-12.7.7-17" style="fill:#5d3f3b"/><path d="m245 482c.9 2 1.9 4 2.8 6-.9.6-1.8 1.3-2.7 1.9-1.3-3.1-3.1-6.1-3.8-9.3-.7-3-3.6-6.7 1.2-9.1 3.8 2.9.4 7.3 2.5 10.5" style="fill:#59958c"/><path d="m269 491c3.6 4.8 2.2 9.6.1 14.4-.8-3.4-1.6-6.9-2.4-10.3 1.2-1.1-.4-3.7 2.3-4.1" style="fill:#743833"/><path d="m269 491c-.8 1.4-1.5 2.7-2.3 4.1-1.5-3.5-3-7-4.5-10.6 4.2.1 8.3.3 6.8 6.5" style="fill:#efc8c6"/><path d="m284 550c-1.6.9-3.1 1.7-4.7 2.6.4-2.7.9-5.5 1.3-8.2 1.1-1.4-.3-3.3 1-4.6 1.1 0 2.3 0 3.4 0 1 3.5-.7 6.8-1 10.2" style="fill:#4d3534"/><path d="m281 540c-.3 1.5-.7 3.1-1 4.6-.9-1.2-1.5-2.9-2.7-3.4-1.8-.8-4-.8-6-1.1 3.2 0 6.4-.1 9.7-.1" style="fill:#5d3f3b"/><path d="m295 422c2.7-1.6 5.3-3.2 8-4.7.9-1.6 2.3-1.8 3.9-1.6 6.2.6 11.5-.9 16-5.6 1.8-1.9 4.2-3.2 6.7-4.2 1.9-.5 3.7-1.2 5.7-.7 4.1.5 5.1 3.3 5.1 6.9 0 8.2 0 16.4 0 24.5 0 2.1-.2 4.2.6 6.2 1.1 6.2.8 11.9-3.7 17-4.3 4.9-4.5 11.6-6 17.6-.1 9.4-2 12.4-9 13.8-.9 0-1.8-.1-2.6-.4-5.7-3.7-11-7.8-16.2-12.3-1.4-1.2-2.6-2.8-4.9-2.2-.5.1-1 0-1.3-.4-.1-.4-.1-.7-.2-1.1-1.2-15.7-3.2-31-3.9-47 0-2.1.6-4.1 1.8-5.9" style="fill:#4d617d"/><path d="m297 476c.3 0 .6 0 1 .1 1.4.8 1.6 2.3 1.8 3.7 0 2.4 1.8 3.8 3.2 5.3 2.5 2.4 5.6 2.8 8.8 3 2.4.1 4.8.3 6.9 1.8.8 0 1.7.1 2.5.1 2.1 1 4.1.8 5.8-.8 1.3-1.2 2.7-1.4 4.1-.4 1.4 1.1 2.8 2.5 1.4 4.3-.8 1.1-.3.6.3.5 4.9-.4 5.8 2.7 5.5 6.6-.2 2.1-.6 4.4.8 6.1 6.2 7.9 3.3 16.3 1.7 24.6-2.1 3.7-4.6 7-8.3 9.3-.8.4-1.7.6-2.7.7-2.5 0-4.9.2-7.3 1-5.5.6-11 .3-16.6 0-2.1-.5-4.2-1.1-6.4-1.2-.6-.1-1.2-.3-1.8-.6-1-1.6-4.2-1.8-3.1-4.7 3.9-2.2 8.2-1.1 12.3-1.3 4.7-.2 9.4-.6 14-3.7-3.4-2.3-7-2.3-10-3.6-2.5-1.1-5.7-1.3-6.7-4.6.4-2.6 2.5-1.9 4-1.9 6.2.1 11.9-1.6 16-2.7-6.5 3.2-15.6 1.6-24 4.2-.6.1-1.2.1-1.7-.1-1.4-.5-3.3-.9-2.9-2.8.4-1.8 2.3-1.6 3.8-1.4.9.1 1.7.7 2.6.2.7 0-.1-1.1.1-.3.8 4.3-13.8-6.9-18.9-14.6-.7-1.1-1.3-2.3-2.2-3.3-1-4.5-1-4.5 3.9-4.4.4-4.8-3.9-9.2-1-14.2 4.4 1.3 8.8 2.6 12.8 3.7.1-2.3.1-5.5.1-8.6" style="fill:#455c64"/><path d="m295 422c.4 9.3-.7 18.9 1.6 27.7 2.3 8.7-.3 16.8.6 25 .3-7.9-4.5-10-11.3-10.2-2.4-.1-5.6.3-5.8-3.8 0-.5-3.2-.8-5-1.2.4-2.2 2.7-2.2 4.1-3.3 2.5-1.6 1.2-4.1 1.6-6.2.1-1.7.2-3.6.9-5.1 4-8.6 2.3-16.7-2-24.5.4-1.5 1.4-1.7 2.7-1.1 4.2.9 8.4 1.7 12.6 2.5" style="fill:#455665"/><path d="m275 388c-3.3-.6-6.9-2.3-7.6 3.4-.1 1-2.5 2.4-3.7 2.3-1.3-.2-2.9-1.7-3.4-3.1-.3-.7 1-2.5 2.1-3.3 10.2-7.2 20.4-14.3 30.8-21.3 1.7-1.1 3.8-1.6 5.7-2.3 1.9-3.3 5.4-4.4 8.6-5.9 1.8-.9 4-1.2 5.4-2.8 1.1-1.3 2-2.7 3.4-3.7 9.2-5.4 18.4-10.7 27.7-15.9 3-1.6 5.9-2.7 9.1-.7 1.7 2.9-.9 4.1-2.4 5.7-2.9 4-8.3 3-11.6 6.1-1.2 1.1-2.7 1.7-4.2 2.4-5.5 2.2-10 5.8-14.9 9-5 2.6-9.6 6-14.6 8.5-3.4 1.7-3.8 5.5-6.4 7.6-2.8 1.5-5.7 2.9-8.5 4.4-4.1 2.2-8.1 4.4-12.2 6.6.5 3-.6 3.8-3.3 3" style="fill:#7d9392"/><path d="m202 401c.3-2 .7-4 .8-6 .1-1.9-.1-3.8-.2-5.7-1.2 1.2-2.3 2.4-3.5 3.6-.4.4-.7.8-1.6 1.8 0-2.9 0-5.1 0-7.3 13.9-5 26.3-12.5 37.7-21.7 2.6-2.1 5.2-4.9 8.1-.4-.1 1.1-1.9 2.2 0 3.3.8.7 1.6 1.4 2.4 2.1.8.9-3.2 3.3 1.2 3.3 2 0 1.6 1.7.2 2.7-1.5.4-3 .8-4.5 1.3-8.1 3-16 6.2-22 12.7-5.7 3.4-11.5 6.8-17.2 10.3-.6 0-.9 0-1.3 0" style="fill:#2f3e50"/><path d="m331 539c.7-.1 1.5-.1 2.2-.2.9-.4 1.4.1 1.8.7.3 1.6 1.5 1.3 2.6 1.2 1.1.3 2 .9 2.6 1.8 3.6 8.5 5.1 9.4 13.3 8.3 3.5-.5 5.5-2.1 5.7-5.9.1-2.6-.5-5.5 2-7.4.9-.3 1.7.1 2.5.6 1.8 1.5 2.5 3.7 3.8 5.5 2.4 3.4 2.1 6.5-.6 9.6-1.5 7.1-7.9 9.9-15.9 8-4.2-1-8.8-.4-13.2-.5-.8-2.3-1.5-4.6-2.3-6.8.2-.8.7-1.5.8-2.3.1-.8.1-1.7-.2-2.5-2.9.4-5.7.6-8.5 1.2-4.2 0-8.4.1-12.6.1-5.5 1.2-11 .3-16.5.5-.7-.1-1.1-.6-1.1-1.3 2-2.9 5-1.9 7.8-2.2 2.4-.3 4.9.8 7.2-.6 1.3-2.3-.7-2.8-2-3.6-5.3-.9-11 1.5-16-2 .8-.8 1.5-1.5 2.3-2.3.2-.2.3-.3.5-.5.7-.2 1.3 0 1.9.5.4 0 .7 0 1.1.1 1.8 1.3 4.1-.1 5.9 1.1 6.1 0 12.2 0 18.2.1 2-1.5 4.5 0 6.7-1.2" style="fill:#1e2b32"/><path d="m303 415c-14.6-3.5-16.8-12.2-16.9-24 0-2.3 2.8-4.6 4.3-6.9.8.6 1.4 1.5 1.2 2.4-.9 5.1 1.5 7.6 6.3 8.3 2 2.7 3.8 5.7 6 8.3 3.4 4 7.7 5.8 12.7 6.8 1.5.3 3.9.5 3.5 2.8-.3 1.5-1.8 2.8-3.7 3.1-4.5.3-9 1.3-13.4-.7" style="fill:#405267"/><path d="m247 377c-.4-.6-.8-1.7-1.2-1.7-1.6-.1-3.2.1-5-.8 1.6-1.2 3.2-2.3 4.9-3.5 0 0 .1.5.1.5 4.2 1.3 7.1-3.4 11.2-2.6.2.1.5.2.7.3 2.1-.2 4.2-.4 6.3-.6 0 0 .1.4.1.4 5.6-1.2 10-4.7 15.2-6.9 4.7-2 8.9-5.8 14.6-4.9.9 3.9-2.7 4.8-4.8 5.9-7.6 4.2-14.5 9.6-22.4 13.3-.7.3-1 1.1-1.4 1.8-1.7.9-3.3 1.8-5 2.8-3 1.7-6 4.7-8.1-1.3-.4-1.3-3.3-1.8-5.2-2.7" style="fill:#7f8b84"/><path d="m280 421c-2 5.7-4 11.3-6 17-.8-6.8-4.9-12-8.5-17.5-2-3-3-6.1 1.6-7.7 3.4-1.2 6-2.5 3.9-6.9-.4-.8.3-2.1.7-4.2 1.2 3.2 1.8 5.4 2.8 7.3.9 1.7 2.3 3.2 3.5 4.8 1.4 1.9 2.8 3.7 4.2 5.6-.7.6-1.4 1.1-2.2 1.6" style="fill:#374b62"/><path d="m314 547c-1.5.8-2.9 2.1-4.4 2.2-4.3.3-8.6.1-12.9.1-4 2.7-8.6-.5-12.7 1.2-.3 0-.7-.1-1-.2-2.3-3.7-1-7 1-10.3 1.5.5 3.8.5 4.3 1.5 2.2 4 3.4.6 4.9-.4 6.1.4 12.3.8 18.4 1.2-1 2.6 1.3 3.4 2.4 4.7" style="fill:#25323d"/><path d="m247 422c-1.9-2.7-4.2-4.6-4.8-7-.8-3.3 4.7-11 7.9-12 .8-.2 2.1.6 3 1.2 1.3.8 2.6 1.8 3.8 2.7.9.7 1.8 1.4 2.8 2.1-.7.8-1.3 2-2.2 2.3-3.4 1-5.6 2.6-6.2 6.5 0 1.2-2.1 2.2-4.3 4.2" style="fill:#3d5265"/><path d="m285 481c.9 4.5 1.7 8.9 2.6 13.4.3 1.5.6 2.9.9 4.4-1.3-.6-2.5-1.3-3.9-1.8-.6-.3-1.4-.2-2.1-.3.1.7.2 1.5.4 2.2 1.3 4.4 3.9 8.5 2.9 13.4-2.6 2.1-2-1.2-3-1.8-.8-1.9-1.5-3.8-2.3-5.7-1.1-7.2-3.2-14.3.4-21.5.7-1.4 1-2.8 2.9-2.9.4.2.8.4 1.2.6" style="fill:#86706c"/><path d="m303 415c5.4-.8 11.3 1.9 17.3-3.1-12-1.2-19.9-6.7-23-17.5.2-.2.4-.4.6-.5.5-.1 1-.1 1.6 0 1.8 1.2 2.3 3.5 3.8 5 5.7 7.2 12.9 10 22 7.4 1.3-.4 2.6-.6 3.9 0 .2.2.4.4.6.6-5.1 3.3-10 7.2-15.5 9.7-3.1 1.4-7.3.5-11 .6-.1-.7-.1-1.5-.1-2.2" style="fill:#2d3d51"/><path d="m297 394c-6.4 2-7.9.8-7-5.9.2-1.5.2-3 .2-4.6 2.3-2 4.5-3.9 6.7-5.9.8-.1 1.8.2 1.8.9-.2 5.1 1.4 10.5-1.8 15.2l.1.3" style="fill:#87706a"/><path d="m304 377c.4 0 .7 0 1.1.1 3.6 3.1 5.9 7 7.1 11.6-2.8 2.5-6.1 3.5-9.8 3.3-3.7-1.7-4.7-4.8-3.8-8.5.8-2.9.8-6.7 5.4-6.5" style="fill:#8e6f6e"/><path d="m315 370c-4.2 1.6-8.3 3.3-12.5 4.9-1.1-2.8.7-4.3 2.5-5.7 2.7-2.1 5.9-3.5 8.6-5.6 2.4-1.1 4.5-2.9 7-3.9 2.9-1 5.4-1 5.5 3.1-1 3.3-4.6 3.8-6.7 5.9-1.3 1-2.6 2-4.4 1.3" style="fill:#829492"/><path d="m265 378c1.2-1.5 2.2-3.4 3.8-4.5 8.2-5.5 16.5-10.8 24.7-16.2.2-1.1 1-1.8 1.9-2.3 2.1-.9 3.9-2.3 5.8-3.5 2.8-.7 4 .9 4.5 3.3-.1.9-.6 1.5-1.4 1.8-4.6.4-7.5 4.4-11.8 5.3-5.1 3.5-10.5 6.5-15.8 9.5-1.4.8-3.2 1.3-3.7 3.2-2.7 1.1-5.3 2.3-8 3.4" style="fill:#55462f"/><path d="m314 365c-3.9 3.3-7.7 6.7-11.6 10-1.3-.4-2.5-.7-3.8-1.1 0-4.4 2.2-7.3 6.1-9.3 4.8-2.5 9.5-5.3 14.3-8 .5-.3 1-.3 1.5-.1.1 4-3.6 4.6-5.9 5.8-3.5 1.8-6.9 3.8-9.9 5.6 2.6-.7 4.5-4 8-3.9.6.2 1 .5 1.3 1" style="fill:#4b5e61"/><path d="m245 482c-4.7-2.6-1.3-7.1-2.4-10.5.4-1.2.7-2.5 1.3-3.7.6-1.4 1.5-2.6 2.2-4 .8 1.6 2.4 3.3 2.2 4.7-.7 4.6-2.1 9-3.3 13.5" style="fill:#563d3a"/><path d="m282 510c.7.8 1.5 1.6 2.2 2.5 2.7 4.8 2.5 5.9-2 6.2-2.8.2-3.1 1.3-3.1 3.5 0 2.4.3 4.9-.6 7.3-.2.5-.6 1-1.1 1.3-4.8-5.1-2.2-10.9-1.1-16.2.4-1.9 3.7-3.1 5.7-4.6" style="fill:#385857"/><path d="m312 388c-2.3-3.8-4.7-7.5-7-11.3.8-.4 1.7-.8 2.5-1.2 2.7 1.5 2.8 5.1 5.7 7 1.3-3.7-1.6-5.8-2.4-8.4 1.2-.7 2.4-1.5 3.5-2.2.5-.3 1-.4 1.5 0 1.1 1.6 1.5 3.4 2.2 5.1 3.2 7.2 2.8 8.1-4.4 11.4-.6.1-1.2-.1-1.6-.4" style="fill:#71534c"/><path d="m278 531c0-.4 0-.8.1-1.3 5.2-.3 10 .2 14 4.2-1.2.6-1.2.6-2.8.3 2.3 2 6.5.7 7.1 4.7-6.9-.7-14-1.1-18.4-7.9" style="fill:#455c64"/><path d="m220 391c0-.9-.4-2.4-.1-2.6 6.5-3.8 13.2-7.6 19.9-11.2.5-.2 1.5.7 2.3 1-7.4 4.3-14.8 8.6-22 12.8" style="fill:#82949f"/><path d="m311 374c1.7 2.6 3.5 5.2 4.9 8 .2.4-1.4 2-2.4 2.5-.5.2-2-.7-2.4-1.4-1.3-2.5-2.3-5.1-3.4-7.7 1.1-.4 2.2-.9 3.3-1.4" style="fill:#8d6f6a"/><path d="m283 480c-1.1 3.8-2.7 7.6-3.2 11.5-.6 4.2-.1 8.6-.1 12.9-4.2-7.8-4.1-15.6.2-23.3.3-.7 2-.7 3.1-1.1" style="fill:#455c64"/><path d="m304 356c.5-.4 1-.8 1.5-1.2 1.2-2.1 3.1-2.9 4.3-.6.9 1.7 2.4.4 3.2 1.4.2.2.3.4.5.6-5.1 2.6-10 5.2-15.2 7.8-.8-.8-1.5-1.7-2.3-2.5-.1-.9.5-1.4 1.2-1.7 1.2-.3 2.3-.8 3-1.9 1.1-1.1 2.1-2.1 3.8-1.9" style="fill:#2f374e"/><path d="m304 377c-5.3 3.4-5.7 9.1-1.2 14.7-.1.2-.2.5-.3.7-.5.6-1.2 1.1-1.9 1.3-.7.2-1.5 0-2.3.3-.4 0-.9 0-1.3 0 0-5.4 0-10.8 0-16 2.3-.3 4.7-.6 7-.9" style="fill:#71534c"/><path d="m210 408c-2-.2-3.9-.4-5.9-.6.6-1.6 1.1-3.3 1.7-4.9 1.8-.4 3.6-.8 5.4-1.2-.4 2.3-.8 4.5-1.2 6.7" style="fill:#708fa0"/><path d="m275 388c1-1 2.1-1.9 3.1-2.9.9.9 1.9 1.9 2.8 2.8.8 1.6.8 3.3-.1 4.9-.9.3-1.8.8-2.7.8-1.6 0-3.2-.4-4.7-.7.5-1.7 1-3.3 1.6-4.9" style="fill:#87a0a9"/><path d="m273 374c0-.6-.2-1.6.1-1.8 6.5-3.7 13-7.3 19.5-10.9-6.6 4.2-13 8.5-19.6 12.7" style="fill:#855c4d"/><path d="m288 407c-2.7 1.7-4.5 3.3-6.6 4-.7.3-2.2-1.6-3.3-2.5 2.1-1.5 4-3.2 6.3-4.4.4-.1 1.8 1.5 3.6 2.9" style="fill:#8e989a"/><path d="m285 400c-3.3 1.9-5.4 3.2-7.7 4.1-.5.2-1.6-1.3-2.5-2.1 2-1.5 3.9-3.1 6-4.3.6-.2 2 1 4.2 2.3" style="fill:#85a4a6"/><path d="m304 356c-1 .8-2 1.6-3.1 2.4-.8 1.7-2.5 1.6-3.9 2.2-.3.3-.6.6-1 .9-1.1.1-2.2.3-3.3.4 3.6-2.5 6.1-6.7 11.3-5.9" style="fill:#916a5b"/><path d="m287 416c-.6-.7-1.3-1.4-1.9-2 1.3-1 2.4-2.3 3.9-3 .5-.2 2.4 1.2 2.3 1.7-.3 1.8-1.1 3.5-1.8 5.2-.8-.6-1.6-1.2-2.5-1.9" style="fill:#8c9fa1"/><path d="m255 473c-.7-2.2-2.4-5 2.3-4 .8 1 1.1 2.2.9 3.5-.2.6-.5 1.1-1.1 1.5-.9.2-1.8.2-2.1-1" style="fill:#b9f09f"/><path d="m316 372c-.4 0-.8-.1-1.2-.1 0-.5.1-1.1.1-1.6 1-.7 2.1-1.4 3.1-2 2 .7 3.6 1.6 2.3 4.1-1.4.8-2.9 1-4.3-.4" style="fill:#425269"/><path d="m257 473c.1-.5.2-1.1.4-1.6 2.9.5.8 3.2 1.9 4.5 0 1.1-.1 2.1-.1 3.2-.6-.4-1.2-.7-1.8-1.1-.9-1.7-1.6-3.3-.4-5" style="fill:#e2bd80"/><path d="m259 476c-.6-1.5-1.2-3-1.9-4.5-.1-1-.1-2.1-.2-3.1.7 2.6 1.4 5.1 2.1 7.6" style="fill:#bd3f30"/><path d="m280 393c0-1.6.1-3.2.1-4.9 2.5 1.7 2.8 3.4-.1 4.9" style="fill:#743623"/><path d="m257 473c.1 1.7.2 3.3.3 5-.8-1.9-1.6-3.8-2.4-5.7.7.2 1.4.4 2.1.7" style="fill:#6ed9f0"/><path d="m222 423c-1.8 0-3.6 0-5.3 0 .1-.5.2-1.4.3-1.4 1.7-.1 3.3-.1 5-.1 0 .5 0 1 0 1.5" style="fill:#23303a"/><path d="m257 368c-2.5 1.3-4.8 2.9-7.5 3.8-1 .3-2.5-.8-3.7-1.2 2.6-1.3 5.2-2.6 7.8-3.9 1.1.4 2.3.9 3.4 1.3" style="fill:#c6baa3"/><path d="m243 368c-1.3.4-2.6.8-3.9 1.2-.2-.3-.4-.7-.6-1 1.5-1.2 3-2.3 4.5-3.5 1.1-.4 2.3-.8 4.2-1.5-1.8 2.1-3 3.4-4.2 4.8" style="fill:#7a9c9d"/><path d="m351 230c1.9 4.9 0 7.7-4.3 10.7-4.9 3.4-8.8 8.3-13.2 12.5-2.8 2.6-5.4 5.5-8.7 7.2-5.2 2.7-11.5-2.3-13-9.8 2.1 1.5 4.3 3 6.9 4.8 0-8.3-.3-15.9.2-23.5.2-3.1 2.2-6 3.3-9 .3-1 1-2.6.6-2.9-1.4-1.2-3-2.3-4.7-2.7-3.3-.7-6.9-.3-10-1.2-4.2-1.3-6.7-4.3-5.3-9.1 2 .8 4.9-.1 5.2 3.7.1 1.2 3.2 2.9 5.1 3 10.6.7 20.4-1.4 28.8-8.5 2-1.7 5-2.2 7.7-2.9 1.5-.4 3.1.1 4.7.2-.5 1.6-1 3.2-1.7 4.7-1.4 3.1-3 6.2-4.5 9.2-2.8 5.3-1.6 9.8 3 13.6" style="fill:#4c5d6d"/><path d="m321 177c1.6-.3 3.1-.7 4.7-1 4.8-6 9.3-12.2 14.4-17.9 2.8-3.1 4.4-6.1 4.5-10.5 0-3.2 2-6.4 3.1-9.6 1.1-1.2 2.2-2.6 3.4-3.7 1.5-1.2 3.2-2.2 4.8-3.3 1 2.4 2.1 4.8 3.1 7.2-9.2 5.2-11 13-8.7 22.7.6 2.3.5 4.9 1.2 7.3.8 3.5 1.7 7 2 10.6.2 2.8.2 5.5-3.3 6.3-1.5.2-2.7-.3-3.8-1.2-.1-.2-.2-.3-.2-.5-.8-12.7-11.4-12.4-18.2-5.2-2.6 1.8-5.4 3.3-7-1.2" style="fill:#738c9a"/><path d="m296 198c-1-1.4-2.6-2.8-2.9-4.3-.8-4.5-1-9.2-1.5-13.8.7.4 1.4.7 2.2 1.1 1.6 1.6 2-.7 3.1-.9 7.4-2.4 16 4.2 16.2 12.2 0 2.1-.9 3.1-3.1 3.1-1.9 0-3.8-.5-5.6.5-2.8.5-5.6 1.3-8.4 2.1" style="fill:#c7b4a4"/><path d="m304 196c8.7-2.6 8.5-2.4 3.5-10.8-3.1-5.1-6.9-5.8-12-4-.5.2-.9.1-1-.5 3.5-1.8 6.9-3.6 10.4-5.4 4.7.7 9.3 1.4 14 2.1 2.8 6.6 3.1 13-.2 19.7-4.9-.3-9.8-.7-14.7-1.1" style="fill:#738c9a"/><path d="m380 172c.9 1.2 1.8 2.4 3.5 4.7-6.7-3.5-10.4.8-12.7 4.4-2.6 3.9-3.1 9.2-4.5 13.8-2.5.6-5.5.5-7.5 1.9-2.7 1.9-4.4.9-6.4-.7-1.7-1.1-4-2.2-2.8-4.6 1-1.9 1.4-5.5 5.2-4.1 1.9.7 2.4 2.8 4.4 3.9 3.3-4.4 3.4-10.8 8.4-14.2 4.1-1.6 7.3-5.7 12.4-5.1" style="fill:#3a4f5c"/><path d="m319 197c.1-6.6.1-13 .2-19.7.6 0 1.3-.1 1.9-.1 2.4.5 4.8 1 7.2 1.4-.3 4.4-1.2 8.9-.6 13 .7 4.9.1 6.4-4.8 6-1.4 0-2.7-.5-3.9-.7" style="fill:#80937f"/><path d="m355 188c-4.5 1.7-5.3 4.3-2.2 8.1-6.8-.6-7.5-1.6-5.7-7.7.3-1.2 0-2.5 0-3.8 1.1 0 2.3 0 3.4 0 1 1.8 6-1.7 4.5 3.4" style="fill:#5d717e"/><path d="m317 213c-2.1-.7-4.2-1.4-6.2-2.2-.2-.1.1-1.3.2-2 2.2.7 4.4 1.3 6.7 2-.3.7-.5 1.4-.7 2.2" style="fill:#4c5d6d"/><path d="m305 239c0 2.3 0 4.6 0 6.9-2.7 4.2-6 8.1-7.9 12.6-4 9.4-4.1 12.6-3.3 22-5.6-4.6-5.4-10.9-7.1-16.4 5.2-7.4 10.5-14.6 15.4-22 1.1-1.7.5-4.4.7-6.6.7 1.2 1.5 2.3 2.2 3.5" style="fill:#505b66"/><path d="m316 353c-.8 1.1-1.6 2.3-2.4 3.4 0 0-.1-.1-.1-.1-.9-1-2.5-1.3-2.9-2.7-2-6.4-5.8-5.5-10.2-2.7-2.9 1.2-5.8 2.5-8.4 4.3-4.6 2.1-8.3 6.5-14 5.8-.5-.8-1-1.6-1.5-2.5.1-7 1.6-13.6 6.3-19 2.3-2.6 4.1-5.4 5.3-8.7 1.3-2.3 2.1-4.8 3.3-7.1.7-3.2 4.5-3.1 5.9-5.6.8-3.3 1.8-6.6 2.4-9.9.3-1.7-.1-3.5-.2-5.2-1.8-2.3-1.9-4.5.1-6.7.5.2 1.5.3 1.5.5.5 6.1 5.9 4.3 8.5 4 6.4-.7 12.5-2.9 18.8-4.5 3.7-3.6 8.8-3.3 13.3-4.2 8.9-1.8 18-2.8 27-3.9 1.9-.2 3.8-.5 5.4 1 .8 1.2 1.6 2.4 2.4 3.6 3.1 3.4 3.4 7.9 2.8 11.9-1.1 7.5-1.2 15.2-3 22.6-1.1 1.9-1.2 4-1.9 6-.6.5-1.4.7-2.2.6-1.4-.3-2.8-.2-4 .8-2.5.2-5.3.9-5.7-3 2.2-2 3.9-4.1 3.1-7.3 0-1.3.7-2.7-.4-3.9-.3-.3-.5-.7-.8-1-.6-.7-1.2-1.3-2.1-1.5-6.6-2.2-10.2 2.5-14.2 6.3-.7.4-1.5.6-2.3.6-5.7.6-9.4 4.2-12.8 8.3-.5.3-1 .4-1.5.4-5.5.5-9.7 3-12.2 8-.2.7-.5 1.4-.9 2.1-.9 1.5-2.4 3 .2 4.4 0 .5-.2 1-.4 1.4-.6.7-1.5 1.2-2 1.9-.2.7-.3 1.1-.3 1.6" style="fill:#293845"/><path d="m374 289c-15.3 2.4-30.5 4.7-45.8 7.1-9-.2-1.4-3.7-1.2-5.8 1.2-4.7 4.7-8.2 6.4-12.7 1.5-2.4 2.9-5 4.9-7.1 2-.7 4.1-.3 6.1-.9 1.9-1.2 3.9-2.4 5.3-3.3 2.6 2.5 4.9 5.5 7.9 7.3 1.6 1 5.3 1.2 6.5 0 4.6-4.1 6 .7 8.5 2.5.3.2 0 1.3 0 2.9-2.3-1.6-4-2.8-7.1-4.9 1.6 2.5 2.3 3.7 3.7 5.9-4.8-1.5-8.7-2.7-12.5-3.9-.1.4-.3.7-.4 1.1 3.3 1.3 6.6 3.4 9.9 3.6 5.6.4 7.9 2.8 7.8 8.2" style="fill:#4d607d"/><path d="m305 247c1.6 2 3.1 4.1 4.8 6 3 3.3 5.8 7.3 9.6 9.3 2.2 1.2 6.2-.8 9.3-1.7 1.4-.4 2.7-3.7 3.9.2-.4 1.6-.2 3.4-.9 5-2 1.9-3.9 3.9-6.5 5-4.4 1.7-6.1 7.2-11 8.3-4.2 4.8-8.5 9.5-12.8 14.4-7.3-14-6.7-27.6.8-40.9.9-1.8 1.8-3.7 2.8-5.6" style="fill:#4b607b"/><path d="m314 279c3.5-3 7-6.1 10.5-9.1 3.9.9 4.8-2.8 6.8-4.7.4-1.5.7-3 1.1-4.6 2.1 5.3 6.3 8 11.6 9.3-2 .5-4 .9-6 1.4-.9.7-1.7 1.6-2.6 2.3-1.2.9-1.5 2.2-1.7 3.6 0 .2 0 .5 0 .7-.3 5.4-3.3 9.3-7 12.8-4.2-4-8.5-7.8-12.7-11.7" style="fill:#263540"/><path d="m299 296c0 2.2-.1 4.5-.1 6.7-9.5 4.7-9.6 4.7-13.5-5.7-.7-1.7-.9-3.6-1.4-5.5-1.6-6.9-1.1-13.8 0-20.7 0-.2 0-.4.1-.6.2-.3.5-.5.7-.7 1.2 3 1.6 7.3 3.7 8.6 7.1 4.3 8.3 11.3 10.5 17.9" style="fill:#7e848a"/><path d="m285 271c0 6.9 0 13.8 0 20.7-.7-5.4-1.4-10.7-2.2-16 .7-1.5 1.4-3 2.2-4.6" style="fill:#407d87"/><path d="m285 163c-.3.9-.7 1.9-1 2.8-.4-.3-.7-.6-1.1-.9.7-.6 1.4-1.3 2.1-1.9" style="fill:#f2f2f2"/><path d="m295 181c.3.2.7.3 1 .5-.2 1.3-.4 2.7-.7 4-.5-1.3-1-2.6-1.5-4 .5-.1.8-.3 1.2-.5" style="fill:#ddee40"/><path d="m362 538c-.4 2.7-1.2 5.5-1.1 8.2.2 3.8-1.5 5.9-5 6.2-3.9.4-8 .7-11.9.2-1.4-.2-3-2.3-3.8-4-.9-1.8-.9-4-1.3-6.1-2.8-4.1.1-7.8 1.1-11.5.7-5.8 1.5-11.7 2.1-17.5.1-.8-.4-1.9-1-2.5-3.7-3.4-5.1-7.2-3.8-12.4.3-1.4-4.2-3.6-4.6-5.8-1-4.8-2.8-4.3-6.1-2.4-1.1.6-3.1-.4-4.7-.6 6.5-.8 7.8-2.9 8-12.7 3.5-1.5 5.9 1.6 8.9 2.2 2.2 2.5 4.9 4.1 8.1 5 6.8 2 13 5.4 20 6.8 1.4.3 3.4.9 3.1 2.8-.3 1.8-2.3 1.8-3.8 1.7-5.3-.3-10-2.4-14.6-4.5 13.3 7.5 27.3 8 41.7 3.5 1.1-.3 2-1.1 2.7-2.1 1.2-1.8 2.7-3 5-3.2 5.3.1 7.2-2.7 6.6-7.6-1-8.5 2.5-16.9.4-25.6-.7-2.9-1.1-5-4.5-5.4-2.1-.2-3.3-1.8-3.7-3.9 0-.6.2-1.1.6-1.5 2.1-1.6 4.5-2 7-2 2.6 0 1.8.4 2.9 3.5.8 2.3 2.1 4.4 2.5 7 1.5 9-1.3 17.9-.7 26.8.1 2-1.1 4.8 3.2 3.3 1.3-.4 2.9 3.4 5.6 2.1 11-.4 19.6 7.5 20 18.6.1 4.6.1 9.2.7 13.7.2 2.1.3 4.1.5 6.2.1 1.3.8 3.1.2 3.9-5.5 7-2.8 15.7-5.2 23.3-1.2 3.7-2 6.9-6.2 7.8-3 .6-2.9 2.4-2 4.6.9 4.8-3.7 3.7-5.7 5.5-4.8 3-10 .9-15 1.2-1.7.1-2.4-1.6-3.1-2.9-.9-1.7-1.3-3.9-3.5-4.7-1.9-1.1-3.6.2-5.4.4-9.5.8-18.8.9-27.8-3-.6-.4-.8-1-.5-1.7-.4-1.8-.7-3.6-1.1-5.5 2.1-5.6-1.4-9.7-3.7-14.2.4-1.3-1.2-3.3 1.1-3.8 1.7-.4 2.9 1.1 3.5 2.5 4.1 8.8 12 9.6 20.3 9.8 3.8.1 5.6-1.4 5.5-5.4-.1-8.2-.1-16.4 0-24.6 0-3.9-1.2-5.5-5.4-4.9-7 1-14 1.3-21 .5-3.4-.4-5.3.9-6.2 4.4-1.3 4.9-2 9.7.6 14.4 1.1 1.8 1.9 3.8.6 5.9" style="fill:#25323d"/><path d="m441 518c-.8-2.6-2.5-5.2-2.3-7.7.5-8-1.1-15.2-7.7-20-3-2.1-7.2-2.4-10.9-3.6-.9-2.7-1.2-5.5-3.1-7.9-1.9-2.4-1.1-5 .4-7.4 1.6-2.6 3.5-5 3.2-9.3-1.4 3.6-2.9 3.7-4.3.9-1.3-2.8-2.3-5.9-2-8.8.8-7.1-1.6-13.5-3.5-20-1.1-3.9-.8-6.7 3.3-8.3 3.4-3.7 1.1-7.1-.7-10.3-2.5-4.5-6.5-7.8-9.9-11.6-.6-1.3-.3-2.9-1.3-4.1-1-1.6-1.9-3.1-1.3-5.1 1.5-2.4 3.4-1.2 5-.3 8.8 5.3 18.4 9.4 26 16.5 1.3 1.2 3 3.2 4.8 1.2 1.8-2 1.5-5.2-.7-6-5.1-1.7-5.7-6.7-8.6-10-6.6-7.6-15-12.3-24.6-15-.8-.3-1.5-.7-2.1-1.2-1-1-2.1-2-1.8-3.6 1.1-2 2.8-2.8 4.9-3.1 1.7-.2 2.5 1.1 3.6 2 5.7.8 11.3 2 17 2.2 7.9.2 12.6 4.2 16.2 10.7 8.6 15.6 14 32 15.9 49.9.8 7.9.2 15.9.3 23.8 0 2.2.6 4.5.9 6.7-2.5 2.6-5.6 4.5-8.8 6.3-2 1.1-3.6 2.5-2.4 5 1.2 2.4 3.2 1.1 5 .5 1.7-.6 3.5-1.9 5.3-.2.8 5.1 2.1 10 2.4 15.3 1 12.2-6.5 19.9-18.3 22.6" style="fill:#222e32"/><path d="m435 289c-.6 4.1-.7 8.4-1.9 12.3-2.5 8.2-5.7 16.2-8.5 24.3-1.1 3.1-2.1 6.1-3.2 9.2.5 1.1-.2 1.5-1 1.8-4.8-3.1-9.9-4-15.5-2.4-2.2.6-3.5 1.1-3.1 3.6.3 1.6.7 3.2 1.1 4.8.4 1.7.4 3.5.3 5.3-.1 2.5-1.4 4.2-3.5 5.5-2.4 1.5-5 2.9-7 4.9-4.1 4-9.1 3.1-13.9 2.7-6.5-.3-6.5-.3-6.6 6 0 1.7 0 3.4 0 5.1-.2 2.4.7 5.7-2 6.6-2.8.9-4.6-2-6.2-4-.9-1.2-1.8-2.4-2.5-3.8-2-8.2.5-15.4 4.9-22 2.4-3.7 6-6.3 8.2-10 1.9-2.8 4.6-5.3 3.4-9.3-.3-1.1.1-2.4 1.5-2.7 5-1 5.7-5.3 6.7-9.1 2.7-9.7 2.3-19.7 3.2-29.6.4-4.2-.1-8.4.2-12.6.1-1.5.7-3 1.1-4.5 3.9-14.4 18.6-23.7 31.8-20.3 7.7 2 12.7 8.1 13 16 .4 7.4-.2 14.9-.5 22.3" style="fill:#26333d"/><path d="m453 630c.4 4 1.1 8 1.1 11.9.1 16 .3 32-.4 48-.2 4.3-3.5 8.7-5.8 12.7-2.2 3.9-4.5-.2-6.7-.6-2.7-.2-3.2-2.5-3.8-4.4-3.1-8.7-5.1-17.5-1.2-26.6.2-1.6 1.3-2.7 1.8-4.1 1.4-4.1-.1-6.8-4.4-7.7-1.5-.3-3-.6-3.9-2 .9-4.2 4-4 7-3.2 2.3.6.6-.9.9-1.4.3-3.4 2.2-6.1 4.3-8.6 2.6-3 4-6.4 4.1-10.3.8-2.7 1.5-5.6 4.7-6.6.7.9 1.5 1.7 2.3 2.5" style="fill:#657b92"/><path d="m435 289c-.5-2.3-1.3-4.5-1.4-6.8-.1-6.1.7-12.3 0-18.3-.9-7.8-8.5-13-17.9-12.5-9.5.5-22.3 9.5-23.5 20-4.8-.4-3.7-4-3.4-6.7.5-4.3 2.3-8.4 2.8-12.7.3-1.5 1.2-2.5 2.7-3 1.1-.3 2.3-.2 3.3-.9 7.8-5 16.6-6 25.6-6.3l.3-.2c6.8-.5 10.9 2 13.7 8.1.7 2 1.4 4 2.1 5.9-.7 5.3-.6 10.6-.1 15.9-1.3 5.9-2.8 11.6-4.2 17.4" style="fill:#505e6e"/><path d="m379 360c9.4 3.1 14.8-4.4 21.5-8.2 1-.6 1.3-2.4 1.9-3.7.5-1.9 1.3-3.9-.7-5.6-.2-1.5-.5-2.9-.7-4.4 4.7-4.2 10.8-5.2 16.2-2.6 1.2.6 2.1 1.7 3.6 1.2.4-.4.8-.9 1.3-1.3-.5 6.7-.5 13.5-1.5 20-1.1 7.1-4.5 13.3-10.7 17.6-.7.5-1 1.7-1.5 2.6-1.2-.3-2.5-.7-3.7-1-.4-2.5 1.8-3.2 3.2-4.2 8-5.7 9.8-14.3 11-23 .4-3.2-1.4-5.5-3.9-7.2-2.1-1.4-3.4-1.5-4.6 1.5-4.7 11-11.3 20-23.8 23.3-1.1.3-2 1.1-2.8 1.9-2.8 2.7-5.2 2.2-7.2-.9 1.2 4.1 2.9 8 6 11 .7.7.9 1.7.2 2.6-1.1.7-2.2.8-3.5.4-4.5-2.8-6.8-6.9-6.8-12.2-.1-4.5 1.4-7.7 6.5-8" style="fill:#4c5f67"/><path d="m432 590c9.5 7 13.7 16 10.7 27.9-2.3 2-3.5 1.2-4.2-1.4-.7-2.7-1.3-5.5-4.5-6.5-4.2-1.8-7.7-4.3-9.6-8.6.2-2.6-3.5-4.2-1.9-7.1 2.9-2 5.9-3.9 9.5-4.3" style="fill:#435b65"/><path d="m434 609c4.7-.1 4.7 3.8 6 6.8.5 1 1.8 1.7 2.8 2.5-.9 2.2-1.8 4.3-2.6 6.5 1.6 3.8 3.5 7.6 3.4 11.9-.1 2.5-.4 4.9-3.2 5.8-1.7-1.8-.2-3.6-.3-5.3-.2 1.8-1.2 3.7-.1 5.5 3.9-2.6 4.6-5.2 2.9-11.5-1.3-4.9-1.1-5.2 4.4-5.1.3-.1.6 0 .8.3-.1 2.7-2.1 5.2-1.2 8-1.1 3.3-1.8 6.7-3.3 9.7-1.5 3.1-3.8 5.8-5.8 8.6-2.3 1.5-5 1.8-7.7 1.7-1-.7-.9-1.9-.2-2.4 6.3-5 5.3-12.3 6.1-18.9.5-8.2 1.6-16.3-2-24" style="fill:#344550"/><path d="m457 480c-1.9.8-3.8 1.9-5.8 2.1-2 .2-5 .2-5.9-1-1.8-2.5-2.2-5.7 1.8-7.4 3.7-1.6 7.2-3.5 10.8-5.3 0 .4 0 .8.1 1.2-1.3 3.4.6 7.1-1.1 10.4" style="fill:#485f66"/><path d="m423 568c2-1.2 3.9-2.5 5.9-3.7 1.1 7 2.3 13.9 3.4 20.9-1.6 1.6.6 5.5-2.6 5.6-3.3.1-3.3-3.6-3.3-5.7-.1-4.6-3.1-7.7-4.7-11.5-.5-2.1.1-3.9 1.3-5.6" style="fill:#3f5666"/><path d="m447 626c-4.1 0-4.6 1.8-3.5 5.5 2.4 7.9 1.6 9.7-5.4 14.5.4-4.4.7-8.8 1.1-13.2.3 0 .6 0 1 0 0 2.8 0 5.5 0 8.3.5 0 1 0 1.6 0-.2-3.5-.2-6.9-.5-10.4-.2-2-.8-4-1.3-5.9 2.3.3 4.7.8 7 1.2" style="fill:#4f5f6d"/><path d="m423 573c2.4 5.3 4.7 10.6 7.1 15.9.5-1 1.3-2.7 2.2-4.4 0 1.9 0 3.7 0 5.6-3.1 1.6-6.2 3.1-9.3 4.7-1.7-3.2 2.7-4.4 2.3-7.6-.6-4.7-1.8-8.8-5.3-12.2-1.1-1.1-2.9-3-1.2-4.3 2.2-1.8 3.1.9 4.2 2.3" style="fill:#25323d"/><path d="m447 634c-1.2-2.9-3.6-6 1.2-8 .8.3 1.6.7 2.4 1-1.2 2.4-2.4 4.7-3.6 7" style="fill:#4f5f6d"/><path d="m440 272c0-5.3 0-10.6.1-15.9-.1 5.3-.1 10.6-.1 15.9" style="fill:#14464c"/><path d="m457 480c.4-3.5.8-7 1.1-10.4-.3 3.4-.7 6.9-1.1 10.4" style="fill:#222e32"/><path d="m395 250c-.7.8-1.5 1.5-2.2 2.3-2.2 7.6-4.7 15.2-1.5 23-1 14.3-1.9 28.6-3.2 42.8-.3 2.9-1.8 5.9-3.4 8.4-.7 1.2-2.9 1.5-4.5 2.3 2.4 4.2-1.5 7.4-4.5 10.8-4-1-4.8-3.7-3.7-7.4.7.1 1.4.1 2.1.2.5-.5 1.1-.8 1.8-.9 1.4-1.2-.7-1.8-.4-2.9 0-.3 0-.5 0-.8 0-4.3-1.3-9 .1-12.8 2.9-7.7 2-15.2.9-22.9-1.2-8.5-2.3-17-3.7-25.5-2.8-17.3 6.2-30 23.4-33 7.3-1.4 13.7-.6 18.4 5.8-.4.7-.8 1.4-1.2 2.2-6 3.6-12.4 5.7-18.4 8.5" style="fill:#7e868d"/><path d="m369 250c5.7-13.6 17-19.7 30.5-23 8.7-2.2 11.9-2.5 16.8 10-12.3-8.9-24-6-34.5 1.3-11.4 7.9-12 20.3-9.7 33-.6.2-1.1.3-1.7.5-.8-2-2.4-3.9-2.4-5.9 0-5.2.6-10.5 1-15.8" style="fill:#4d5f6e"/><path d="m354 266c0-1.7-.3-3.5 0-5.1.4-2.7 1.2-5.3 1.8-8 2.8 2.9 6.6 5.3 8.3 8.8 1.4 2.8.3 6.7.3 10.2-6.1 2.5-7.8-2.4-10.4-5.9" style="fill:#9d7c73"/><path d="m346 254c1.4 3.1 2.5 5.2 3.2 7.4.2.5-1.2 1.5-1.8 2.2-1.1-2.1-2.4-4.3-3.3-6.5-.1-.4.8-1.3 1.9-3.1" style="fill:#746070"/><path d="m395 250c6.1-2.8 12.2-5.5 18.2-8.3 3.4.1 6.8.2 10.2.2-.4.6-.8 1.7-1.1 1.7-8.5-1.5-15.7 2-22.9 5.6-1.2.7-2.9.6-4.4.8" style="fill:#414a4f"/><path d="m372 160c.1.8.1 1.6.2 2.4.1 6.2-1.9 8.7-8.1 10.2-6.8 1.7-10.9.2-13.3-4.8-.9-5.8-1.7-11.7-1.6-17.6.1-6.3 5.5-10.2 11.5-8.8.3.1.6.2.9.2.2 2.9-2.5 3-4 4.2-4.7 3.6-6 8.5-3.1 12.8 3.1 4.6 9.4 5.8 14 2.7 1.1-.7 1.9-1.9 3.5-1.3" style="fill:#738c9a"/><path d="m372 161c-4.3 4.3-10.4 6-14.5 3.8-4.3-2.2-6.9-7.7-6-12.5 1-5.7 6.1-7.2 10-9.8 1.2 1.1 2.4 2.2 3.7 3.2-2 2.4-6.1 1.3-7.8 4.3-.4.6-.8 1.2-1.2 1.9-.4.8-1.2 2-.5 2.5 1.2.7 1.7-.9 2.6-1.4 3-2 5.5-4.7 9-5.9 1.1 1.2 2.1 2.5 3.2 3.7-.6 5.5-6.4 6.7-9.1 10.8 3.7 1.7 6-3 9.3-1.9.5.5.9.9 1.2 1.3" style="fill:#576477"/><path d="m371 159c-2.8 1.5-5.6 3.1-8.5 4.3-.9.3-2.3-.8-3.5-1.2.5-1 .8-2.2 1.6-2.9 3.3-3.1 6.8-6.1 10.2-9.1 0 3 .1 6 .2 8.9" style="fill:#7c9199"/><path d="m361 142c-7.9.8-10.5 3.5-10.4 11.3.1 5.1.6 10.2 1 15.4-.4.5-.7.5-1 0-.8-6.6-2.4-13.2-2-19.6.4-5.7 5.6-8.6 11-10 .4.9.9 1.9 1.4 3" style="fill:#486a75"/><path d="m356 149c1.9-4.2 5.8-3.3 9.3-3.5.7.4 1.5.8 2.2 1.3-2.6 2.3-5.3 4.5-7.9 6.8-1.9-1-2.9-2.7-3.6-4.6" style="fill:#778e9a"/><path d="m351 129c-1.5 2-2.6 3.5-3.7 5-1.2-1.4-2.4-2.9-3.6-4.3 1.4-1.1 2.8-2.4 4.4-3.2.4-.1 1.6 1.4 2.9 2.5" style="fill:#506775"/><path d="m350 169c.3 0 .7 0 1 0 7.4 6.7 18.4 3.7 21-5.7.7 3 1.5 6.1 2.2 9.1-.8 3.1-3.9 3.8-5.8 5.7-2 3.7-4.1 7.4-6.2 11-1.1 1.9-2.3 3.7-3.5 5.5-1-1.5-2-3-3-4.4-.4-.6-.8-1.3-1.2-1.9-1.5-1.1-3-2.3-4.5-3.4.7-1.6 2.1-3.3 2-4.9-.3-3.7-1.3-7.4-2-11" style="fill:#293742"/><path d="m369 178c1.9-1.9 3.9-3.8 5.8-5.7 2.5-1.5 5.1-3 8.7-5-1.4 2.3-2.2 3.6-3 5-3.9 1.9-7.7 3.8-11.5 5.7" style="fill:#4d5e6e"/><path d="m306 174c.3-.7.7-1.4 1-2.1.8-.7 1.6-.8 2.5-.1.7.6 1.4 1.2 2.2 1.7-1.9.1-3.8.3-5.7.5" style="fill:#7b7076"/><path d="m310 172c-.8 0-1.7.1-2.5.1-.2 0-.4 0-.6-.1-5.5-5.1-7.6-6.2-14-7.6.3-.1.6-.2.9-.3 2.4-1.8 5-3.5 4.3-7.2.8-3.1 2.8-4.5 6-4.3.5.2 1 .4 1.4.8.3.5.2 1-.3 1.4-2.1 4.8 1.7 6.3 4.7 8.3.2 2.9.2 5.9.2 8.9" style="fill:#728c9e"/><g style="fill:#738c9a"><path d="m315 161c0 1.4 0 2.8 0 4.2-.1.8-.1 1.5-.2 2.3-.8-1.8-1.6-3.6-2.3-5.4.9-.4 1.7-.7 2.5-1.1"/><path d="m314 167c.8 1.1 1.6 2.1 2.3 3.2-.6.3-1.1.5-1.7.8-.1-1.4-.3-2.7-.6-4"/></g><path d="m297 156c-1.2-.4-2.5-.8-3.7-1.2.8-1.4 1.5-2.7 2.3-4.1 1.4-1.3 2.7-2.6 4.1-3.8 1-.8 2.1-1.5 3.2-2.3.8.4 1.6.7 2.5 1.1 1.3 1.9 3.3 3.3 3.7 5.8-.1 1.6-1.1 2.4-2.5 2.8-.6.1-1.1-.1-1.5-.4-4-3.8-5.6.9-8.1 2.1" style="fill:#90b31a"/><path d="m309 151c-1.1-2-2.3-3.9-3.4-5.9 2.1-1.6 4.2-3.4 6.6-.6.8 1.4 1.6 2.8 2.4 4.2-1.1.9-2.2 1.7-3.2 2.6-.9.5-1.7.4-2.4-.3" style="fill:#798c96"/><path d="m305 154c.4 0 .8-.1 1.2-.1 6.1-1.2 7.3-.5 8.1 4.5-3.1-1.1-6.3-2.2-9.4-3.3 0-.4.1-.8.1-1.1" style="fill:#9aa54e"/><path d="m315 158c-.6-5.3-5-3.7-8.1-4.5.8-.7 1.6-1.5 2.5-2.2.8.1 1.6.2 2.4.3 1.4 2.2 2.7 4.4 4.1 6.6-.4 0-.6-.1-.9-.2" style="fill:#576c0b"/><path d="m297 156c2.7-5.7 4.5-6.2 8-2.2-2.3 1.1-4.5 2.2-6.8 3.3-.4.3-.7.3-1-.1-.1-.4-.1-.7-.2-1" style="fill:#9aa54e"/><path d="m297 157c.3.1.7.1 1 .1 2.4 5.1-.2 6.7-4.8 7 .8-1.3 1.7-2.5 2.5-3.8.3-.9-.1-2 .8-2.8.2 0 .4-.2.5-.5" style="fill:#4a5a61"/><path d="m297 157c-.3.9-.6 1.8-.8 2.8-.9-.7-1.7-1.4-2.6-2.1 1.1-.2 2.3-.4 3.4-.7" style="fill:#a1a45e"/><path d="m389 761c0-.7 0-1.5-.1-2.2-.1-1 .4-1.6 1-2.2 3.6-1.9 3.8-3.4-.4-4.7-.8-.2-1.2-1.4-1.8-2.1 2.7-5.8 5.5-11.5 8.2-17.3 4.7-2.1 10-2.9 13.7-7.1 1.8-2.1 4.3-2.9 6.4-.6 2.2 2.4 4.1 1.6 6.6.4 3.3-1.6 6.2-3.7 9.2-5.7 4-2.7 6.1-1.6 7 3.2.5 2.4.5 4.9 1.5 7.2-.4 1.1-.7 2.3-1.1 3.4-5 1.4-8.3 4.2-9 9.7-.7 5.6-5.8 8.7-8 13.5-1.2.7-2.3 1.5-3.5 2.2-4.2-2.8-4.3-6.7-2.8-11 1.4-3.1 0-5.6-1.6-8.1-5.4-2-6.7 3.3-6.8 5.5-.2 6.7-4.1 10.2-8.6 13.8-.6.6-1.3.9-2.2 1-2.9 1.1-1.9 1.9.3 2.2 4.6.7 9.1 1.1 13.8 2.7-4.6.6-9.2 1.2-13.8 1.9-2.4.4-4.7.9-7.1 1.3-.9-2.2 2.4-5.1-.9-7" style="fill:#819195"/><path d="m418 747c.4 3.8.8 7.6 1.1 11.4-1.1 0-2.3.1-3.4.1-5.8 1.7-11.5 1.8-17.3 0 1-1.3 1.7-2.8 3-3.7 2.8-2.1 5.2-3.8 4.2-8.2-.9-3.8 5.1-10 8.8-10 .4 0 .8 1.6 1.2 2.4-.6.7-1.2 1.4-2 2-1.4.9-2.1 2.2-1.5 3.8.6 1.7 2.1 1.9 3.7 1.8.8-.1 1.6-.1 2.2.5" style="fill:#798284"/><path d="m423 756c1.2-2.6 2.5-5.2 3.7-7.9 1.2-2.7 2.5-5.5 3.2-8.3 1.3-5.5 5.3-8.4 10.2-7.1-.3.9-.6 1.7-.9 2.6-.3 4.5-2.4 8.1-5.1 11.5-3.8 3-7.4 6.1-11 9.2" style="fill:#708081"/><path d="m398 759c5.8 0 11.5 0 17.3 0-.8.7-1.5 2-2.3 2-5.4-.2-10.8-.6-16.3-.9.5-.4.9-.8 1.3-1.1" style="fill:#43817c"/><path d="m434 747c1.7-3.8 3.4-7.7 5.1-11.5.4.4.8.8 1.2 1.1-2.1 3.4-4.2 6.9-6.3 10.4" style="fill:#38423d"/><path d="m441 730c-1-2.3-2.9-4.6-3-7-.2-5-2.5-3.7-5-2.2-3.7 2.2-7 5-10.8 6.9-1.5.7-5.1.3-5.6-.7-2.7-5.3-4.4-1.2-6.3.4-.3.3-.2 1.1-.5 1.6-.4.7-.9 1.2-1.3 1.8-4.8-5.6-6.8 8.3-11.8 1.7 1.9-6.8 3.4-13.7 5.7-20.3 2.6-7.4 2.1-14.5.6-21.9-.5-2.4-.5-4.9-.7-7.4 1.4-2 0-4.1-.1-6.1-.1-4.4 2.2-6.4 6.7-5.1 1.1.3 2.2 1.2 3.1.2 4.2-4.6 9.7-3.8 15-3.4 2.9.1 5.1 2.5 8.1 2.2.5 0 1 .2 1.5.5.5.6 1.5 1.4 1.4 1.7-5.6 10.6-.8 20 3.1 29.7 2.3 9.2 3.1 18.3-.1 27.4" style="fill:#90a3a9"/><g style="fill:#6b7d8f"><path d="m450 705c-2.4 3.4 2.9 9.7-4.7 10.8-2-9-1.9-9.1 4.7-10.8"/><path d="m444 728c.4-2.6.3-5 1.2-6.9.5-1.2 2.4-2 3.8-2.7.3-.1 1.5.8 1.5 1-.4 1.3-.8 2.7-1.6 3.7-1.4 1.6-3.1 3-4.9 4.9"/></g><path d="m244 714c3.7-3.1 7.4-6.2 11.2-9.3 1.6-1.6 3.1-3.2 4.7-4.8.4-2.8 3.1-4.2 4-6.6 4.7-6.1 4.8-13.3 4-20.3-.8-6.9-1.7-13.9-3.9-20.6-.8-2.4-1.5-5.3 1.6-7.1 6.8 4 13.8 7.3 21.8 8.3 2.1.3 3.6 2.5 3.8 4.6.7 8 3.9 15.5 3.8 23.6-2.3 8.2-7.4 14.9-12.3 21.6-1.4 1.8-2.8 3.6-3.9 5.6-2.5 3.3-4.8 6.9-8.8 8.7-8.5 2.8-16.6-.6-24.8-1.9-1-.1-1.3-.9-1.2-1.8" style="fill:#dfccb0"/><path d="m266 646c-.1 2.7-.6 5.4-.3 8.1 1.1 8.3 3.4 16.5 3.4 24.7 0 5.3-3.3 10.5-5.1 15.8-.6.7-1.1.6-1.5-.1 5-6.1 5.2-13.4 4.4-20.7-.8-6.8-2.2-13.5-3.7-20-2.1-9.4.8-12.8 10.7-12 4.4-.1 8.8.9 13.3.7 7.1 1.4 14.4.2 21.6 1.3 1.9.5 3.7 1 5.5 1.7 2.6 1.9 5.3 3.7 3.9 7.6-3.5 1-5.7-1.8-8.6-2.7-1.3-1.2-2.8-1-4.3-1-12.5.2-24.9-.6-37-3.6-.9-.4-1.6 0-2.3.4" style="fill:#616c74"/><path d="m287 643c-4.2-.8-8.5-1.5-12.7-2.3-.7-1.2-1.4-2.3-2-3.5-.6-.5-.6-.9 0-1.4 1.5 0 3 0 4.5 0 3.8-1.9 7.2-1.4 10.3 1.4-.6 2 1 3.9-.1 5.8" style="fill:#73a39a"/><path d="m267 614c.4 4.6.8 9.2 1.2 13.7-1-3.1-2.8-6.3-2.9-9.4-.3-7.5.2-15 .4-22.5.4 1.5.7 2.9 1.1 4.4-.6 4.5-.8 9.2.2 13.8" style="fill:#5b7078"/><path d="m272 636c0 .5 0 .9 0 1.4-3.5-2.8-3.7-3.5-3.6-10.4 1.3 3 2.5 6 3.6 9" style="fill:#616c74"/><path d="m263 694c.5 0 1 .1 1.5.1-1.3 1.8-2.7 3.7-4 5.5.9-1.8 1.7-3.7 2.5-5.6" style="fill:#5d5859"/><path d="m271 716c2.3-2.7 4.6-5.4 7-8.1 2.5-2 4.7-.9 6.7.6 3 2.2 4.6 1.5 6.9-1.5 3.3-4.5 4-10.6 9.2-13.9 2.6-1.6 4.5-4.4 8-2.7 4.2 2.1 1.2 5.3 1 8-3.5 5-7 9.9-10.4 14.9-1.8 0-1.3-1.4-1.7-3.2-1.7 4.3-4.3 6.3-8.3 7.7-3.8 1.4-6.1 6.1-10.6 7.3-.5.1-.9.9-.7 1.4.9 1.8 1.7 3.5-.9 4.7-2.8 1.3-5.4.4-7.5-1.4-3.4-2.8-7-4.2-11.4-3.7-1.5-.4-3-.8-4.6-1.3 3.4-3.6-2.1-2.5-2.3-4.3 2.1-3.1 5.3-3.1 8.5-3.1 3.8.1 7.7 1.2 11-1.4" style="fill:#778485"/><path d="m258 726c4-2.2 7.4-2.3 11 1.5 1.8 1.9 5.2 2.2 7.9 3.3.2-.5.4-1.1.6-1.6-1-.8-1.9-1.6-2.9-2.5 1.2-1.3 2.3-2.9 3.7-4 2.4-1.9 5-3.5 7.5-5.2.3-.2.5-.9.7-.9 6.8.2 8.3-6.9 13.5-10.3-.4 2.8-.6 4.9-.9 6.9.8-.2 1.9-.1 2.3-.7 1.7-2 2.9-4.4 4.7-6.3.9-1 2.6-1.2 4-1.8.3 1.3.9 2.6.8 3.9-.3 6.8 2.1 14.4-5.6 19-4.6 0-9.4-.9-13.7 1.4-5.4 2.9-11.2 4.4-17 6-1.3.1-2.2-.5-2.8-1.6-4.6-2.4-9.2-4.7-13.7-7.1" style="fill:#697573"/><path d="m272 733c.8.3 1.7.6 2.5.9 6.3-1.2 12.5-2.5 17.6-6.8 4.5-2.8 9-3.2 13.5 0-3.1 3.7-6.3 7.4-9.4 11.2-6 3.2-12 6.4-18 9.7-3.4-.3-7.8 1-7.7-5 0-.3-3.4-.6-5.2-.9 2.2-3.1 4.5-6.1 6.8-9.1" style="fill:#7b8b8f"/><path d="m278 749c-3.5 2.4-4.5 6.3-3.3 9.6 1.6 4.5-1.6 4.7-3.8 5.2-1.2.3-3.8-1.4-4.1-2.6-1.8-7.5-8.4-9.1-14-12-3.1-9-11.3-7.1-17.9-8.6-.2-.2-.4-.4-.6-.7.4-1.4.8-2.8 1.1-4.3 1.1-.5 2.3-1 3.4-1.5 1.9 2.6 3.9.4 5.9 0 2.1 1.5 4.6 2.7 6.2 4.6 7.2 8.9 15.8 13 27 10.4" style="fill:#38464b"/><path d="m243 754c-4.3.7-8.6 1.4-12.9 2-.8.1-2.5-.4-2.5-.7-.3-3.9-.9-8-.1-11.8.3-1.5 4.1-2.3 6.3-3.4 0 0 0 .1 0 .1 2.3.8 4.7.9 7.2 1.2 6.5.6 7.9 3.2 4.8 9-.8 1.4-1.8 2.5-2.8 3.6" style="fill:#906f5d"/><path d="m243 754c.5-1.8.6-4 1.7-5.3 3.4-4.3.3-5-2.9-6-2.7-.8-5.4-1.6-8-2.5 2.1 0 4.2 0 6.3 0 9 .1 9 .1 12.2 9.2-.8 1.5-1.6 3.1-2.5 4.6-1.1 0-2.2.1-3.3.1-1.2 0-2.4 0-3.5-.1" style="fill:#70534c"/><path d="m244 734c-2.3 1.3-4.6 2.5-6.9 3.8-.2-.4-.5-.7-.7-1.1.6-.9 1.2-1.9 1.7-2.8 1.9.1 3.9.1 5.9.1" style="fill:#777b93"/><path d="m271 716c-1.2.7-2.4 1.9-3.7 2.1-5.2 1-10.5 1.7-15.8 2.6-3.9-.6-7.8-1.3-12.6-2.1 2.1-1.8 3.9-3.3 5.7-4.8 8.8.7 17.6 1.4 26.4 2.2" style="fill:#7da6a7"/><path d="m311 569c.1-1.5.1-3 .3-5.7.8 1.8 1.5 2.6 1.4 3.2-1.6 8.1 3.5 4.9 6.3 3.3 3-1.7 5.4-4.5 7.8-7 1.4-1.4 2.5-3.2 4.1-5.3.1 4.4.1 4.4-9.4 14.6 3.2-.2 6.4-.4 9.5-.7 0 7.3-2.2 15.7.7 21.5 3 5.9-.8 11.6 2.6 16.8 1 1.5-.8 4.9-1.2 7.5.1 1.9-.2 3.8-.1 5.7.7 11.7-3.4 17.6-14.6 21.3-1.7.4-3.5.9-4.6-1.2-.2-3.2 1.5-5.5 3.8-7.4.9-.3 1.7 0 2.5.3 5.5-.8 7.3-2.5 7.5-7.9.2-6.3-.2-12.6.4-18.8.3-2.7-1.3-4.7-3-6.5-3.5-3.8-7.1-7.5-10-11.8-4.2-6.7-7.8-13.6-4-21.9" style="fill:#394d5a"/><path d="m318 642c10.9-3.3 14.5-9.3 13-20.9-.2-1.4 1.2-3.1 1.9-4.6 1.5 3.5 3 6.9 4.6 10.4-.5 0-.9.1-1.4.1-2.1 7.7-4 15.3-4.2 23.5-.2 6.4-5.2 11-8.5 16.3-1 1.5-3.6 2.8-5.6 1.4-1.9-1.3-.9-3.4-.2-5.2.3-3.3 3-5.6 3.4-8.9.4-4.4-1.5-8.2-3.1-12" style="fill:#586d80"/><path d="m367 559c.1.3 0 .6-.1.8 1.1 2.6 3.4 3.3 5.9 3.8 6.1 1.3 12.3 1.7 18.6 1.6 2.5 0 4.4-.7 5.3-3.2 1.6 0 3.2 0 4.8 0 3.7 4.3-1.1 6.6-2.2 9.8-.5 1-.9 2.1-2.3 1.8-1.9-1.5-3.5-4-5.6-4.4-7-1.2-14.4-1.1-21.3-2.7-6.1-1.4-7.5.5-6.8 5.9-.4-1.6-.8-3.2-1.2-4.8 1.7-2.8 3.3-5.7 4.9-8.6" style="fill:#596570"/><path d="m338 646c.1-6.1.2-12.3.4-18.4 2.1 6.2 2.9 12.3-.4 18.4" style="fill:#a5eafc"/><path d="m324 687c.2-3.1.5-6.3.7-9.4-.2 3.1-.5 6.2-.7 9.4" style="fill:#cec9d4"/><path d="m384 648c-.4-.4-.8-.8-1.1-1.2-2.3-6.2-4.6-12.4-6.8-18.6-4.2-11.8-8.3-23.7-12.4-35.5 0-1.3 0-2.5 0-3.7 8.6 7.3 17 14.3 25 21.7 1.9 1.7 3 4.9 3.4 7.5 1.2 8.7 1.5 17.4 2.8 26 .6 4.1-.3 4.8-4.1 3.9-2.3-.6-4.6-.2-6.9-.2" style="fill:#e2cead"/><path d="m411 634c4-3.5 7.3-7.2 6.2-13.2-.3-1.8-.1-3.6-.1-4.4 3 .9 5.9 1.8 8.8 2.6 1.6-.4 1.8.8 2 1.9-.6 2.5.8 4.6 1.5 6.9.7 6.8-3.1 12.6-4.4 19-.5 1.8-.3 3.6-.8 5.4-.6 1.2-1.5 2.1-2.9 2.4-1.4.1-3-.2-4.3.3-4.8 1.7-7.5-.8-9.7-4.5-2-3.4-.3-5.3 2.8-6.5-.5-.7-1.1-1.3-1.6-2 .7-2.6 1.4-5.3 2.5-7.9" style="fill:#839396"/><path d="m427 622c-.4-.8-.7-1.6-1.1-2.4-5-6.7-9.9-13.3-14.9-20-.9-1.2-1.6-2.5-2.4-3.8-.4-.7-.6-1.4-.7-2.2 1.6-3.8 4.5.2 6.5-1.1 1.9.4 2.4 2.6 4.2 3.1.5.2.9.5 1.4.7 1.4 1.8 3.9 2.5 4.6 5 3.1 2.6 6.1 5.3 9.2 7.9 5 4.9 5.1 10.9 4 17.2-.4 2.2-.4 4.5-.5 6.7-5.9.8-7.9-2.7-8.6-7.7 0-.7 0-1.4.5-1.9-.6.2-.8 1.1-1.6 1-1.2-.6-1.3-1.5-.6-2.5" style="fill:#67798d"/><path d="m421 655c.8-.7 1.5-1.5 2.3-2.2.9 2.1 1.3 4.1-.1 6.1-11.5 4.4-23 3.8-34-1-1.6-.7-2.9-1.9-2.5-4 0 0 .1-.1.1-.1 9.8 1.2 19.6 2.5 29.4 3.4 1.6.2 3.4-1.4 5-2.2" style="fill:#66767e"/><path d="m411 634c1.4 3.3 1.2 6.1-2.3 8-1.5-1.2-4.2-2.5-4.2-3.7 0-3.9 3.1-4.6 6.5-4.3" style="fill:#6c7675"/><path d="m409 593c0 .9 0 1.8-.1 2.7-2.8-5.2-5.6-10.4-8.4-15.6-1.1-2.1-2-4.4-2.9-6.6.3-.7.7-1.5 1-2.2 1.1-.3 2 .3 2.3 1.2 2.4 6.9 6.5 13.2 8.1 20.5" style="fill:#565a6c"/><path d="m363 575c.3-.6.7-1.2 1-1.7 3 .5 6 .9 9 1.4-.1.5-.2 1.5-.2 1.5-2.7-.1-5.5-.2-8.2-.4-.6-.1-1.1-.5-1.6-.8" style="fill:#1f383e"/><path d="m387 654c2.8 1.5 5.4 3.8 8.3 4.4 9.5 1.9 19 3.1 28.5-.8.7-3.2 2.7-3.9 5.6-3 2.7-.6 5.5-1.1 8.2-1.7 1.2 1.3 2.4 2.6 2.9 3.1-3.7.5-7.3 1-11 1.5 0 1.6-.8 3-1.2 4.5-.4 1.2-.7 2.3-.4 3.6.1.5.2 1 .2 1.5 0 .8-.2 1.4-.9 1.9-1.4.3-2.8.7-4.2 1-3.2.8-7.5.5-9.3 2.6-3.3 3.6-4.9 3.7-6.9-2-1 2.5-1.5 3.9-2.1 5.2-.5-1-.9-1.9-1.3-2.8-.5 3.4-1 6.5-1.5 9.7 0-.2-.1-.4-.1-.6-.1-10.2-4.3-17.6-13.9-22-3.1-1.4-5.3-4.8-7.9-7.3 2.4.4 4.7.8 7 1.2" style="fill:#899c9f"/><path d="m389 761c8.2 1.2 1.7 4.5 1.1 7-1.6 1.5-3.2 3-4.8 4.5.1-1.7-.2-3.5.3-5 .4-1.5 1.6-2.9 2.4-4.3.3-.8.6-1.5 1-2.2" style="fill:#ccbcb3"/><path d="m390 756c-.3.7-.7 1.5-1 2.2-5.1.3-10.8 3.7-14.9-2.4 5.3.1 10.6.2 15.9.2" style="fill:#a18386"/><path d="m293 745c2.2 4.8-1.8 4.8-4.5 5.6-.5.1-1.6-.5-1.7-.9-.2-.5.2-1.6.7-1.9 1.8-1 3.7-1.9 5.5-2.8" style="fill:#394850"/><path d="m310 699c0-1.1.2-2.2-.1-3.2-.3-1.3-.8-3.4-1.6-3.7-1.3-.4-3.4 0-4.5.9-5.4 4-7.7 10.2-10.8 15.8-2.3 4.3-4.4 5.1-8.4 2.3-1.9-1.3-4.3-1.8-6.5-2.7 5.4-8.5 10.7-16.9 16-25.4 4.1-4.5 9.1-7.6 15-9.1 1.7-.4 4.4-.8 5 2.2-.2 2.4.5 4.8-.5 7.2-1.2 5.2-2.4 10.4-3.7 15.7" style="fill:#869599"/><path d="m313 683c-.1-2.8-.2-5.6-.3-8.3-3.3-6.1-3.1-8.1 1.3-10.3 0 6.1 0 12.2.1 18.3-.4 0-.8.2-1.1.3" style="fill:#7c6453"/><path d="m311 748c.3-.9.7-1.9 1-2.8.3.2.5.3.8.5-.6.8-1.2 1.6-1.8 2.3" style="fill:#303b3e"/><path d="m314 664c-5 2.9.3 7-1.3 10.3-5.9-.3-10 2.9-14.4 6.2-1.3 1-3.2 1.2-4.8 1.8-1.3-8.2-2.4-16.5-4.1-24.6-.3-1.6-3.1-3.7-4.8-3.8-7.5-.3-14-2.3-18.7-8.5 2.4-.4 4.7-1.1 7.1-1 11.8.7 23.6 1.6 35 2.4 2 .1 3.1.1 1.1 2.1 0 .8 0-.2.1.6.3 2.5-1.9 5.8 1.3 7.2 3.6 1.6 4.4-2.8 6.5-4.3-1-2.2-2.1-4.5-3.1-6.7 2.6-2.1 4-.2 5.4 1.6 1.3 2.3 1.3 4.8 1.4 7.3-.8 2.9-.7 6.3-4.8 6.8-.7.9-1.4 1.7-2.2 2.6" style="fill:#8d9fa5"/><path d="m319 663c-.4 1.4-.9 2.8-1.6 5.1 4.2-1.4 5.7-3.7 8.1-6.4 7.3-8.1 3-18.6 7.3-26.9 1.2-2.4 2.4-5 3.5-7.5 1.1 13.4-.6 26-8.6 37.6-3.2 4.5-4.2 10.6-6.4 15.9-.4 1-2.1 2.5-2.5 2.3-1.2-.6-2.9-1.9-2.9-2.9.1-5.7.6-11.3 1-17 .5-.9 1.3-.9 2.1-.2" style="fill:#697b92"/><path d="m319 663c-.8.1-1.5.2-2.3.3-.1-.5-.1-1.1-.2-1.6 1.3-2.2 2.5-4.5 3.8-6.7.9-2.6.5-4.9-1.4-6.8-1.4-.7-2.9-1.5-4.3-2.2-1.6-.4-3.1-.8-4.7-1.2.6-2.3 2.2-3 4.4-2.7 1.3.1 2.5.2 3.8.3 4.6 3.5 6.2 10.4 3.5 15.7-.8 1.6-1.7 3.2-2.6 4.9" style="fill:#40505c"/><path d="m289 331c-1.7 3-3.7 5.9-5.1 9-2.8 6.1-5.2 12.3-7.8 18.5-3.3 2.4-6.6 4.8-10.9 7.9 3.3-11.8 6.1-21.9 8.9-32 1.1-2 2.3-4 3.4-5.9 2.6-1.8 2.4-4.7 2.4-7.3.1-6.1.4-12.2.9-18.3.1-1.5-.2-3.1 1.3-4.2 2.3 3.9 4.6 7.7 6.9 11.6.1 3.6.2 7.2 1.2 10.7.2 2.3.1 4.9-1.5 6.3-2 1.8.8 2.5.3 3.8" style="fill:#7f8387"/><path d="m282 298c-.1 8.6-.2 17.2-.2 25.9 0 3.2-1 4.8-4.4 3.9.8-10.7 1.5-21.4 2.3-32 .7.7 1.5 1.5 2.3 2.3" style="fill:#da9e93"/><path d="m289 321c0-3.8.1-7.7.1-11.5.9-.8 1.9-1.6 2.6-2.2 0 3.2-.3 6.3.2 9.3.1.6 3.3.7 5 1-.5 1.2-.8 2.5-1.6 3.4-.8 1-2.1 1.6-3.2 2.4-2.6 1.5-2.2-1.4-3.1-2.4" style="fill:#443b35"/><path d="m266 342c0 .7-.1 1.5-.1 2.2.8 3.1 1.4 6.1 0 9.2-.4.5-.8.9-1.2 1.4-.4-.8-.8-1.6-1.3-2.4-.7-3.5-.6-7.1-.1-10.6.8-2.6 1.7-5.3 2.5-7.9 2.6-3.4 5.2-6.8 7.7-10.2.2.2.4.3.6.5-2.6 5.9-5.3 11.9-8.1 17.8" style="fill:#b3aa9e"/><path d="m278 361c4.6-2.3 9.1-4.7 13.7-7 2.3-1 4.3-1.2 4.6 2.2-.8.4-1.6.9-2.4 1.3-8.3 3.6-16.6 7.2-24.9 10.7-1.5.6-3.2.6-4.9.8 4.6-2.7 9.3-5.4 13.9-8" style="fill:#c9c0ab"/><path d="m266 354c0-3.1 0-6.1 0-9.2 2 3.1 3.2 6.2 0 9.2" style="fill:#797f74"/><path d="m264 342c0 3.5 0 7.1.1 10.6 0-3.5 0-7-.1-10.6" style="fill:#7e99ab"/><path d="m287 639c-3.4-.8-6.8-1.7-10.2-2.5.4-4.1.8-8.2 1.1-12.3.2-2.6.6-4.3 4-3.6 5.1 1.1 7.2-.8 7.5-5.8.6-8 1.4-16 2.2-24-.3 5.8-.6 11.5-.8 17.3 3.4 9.2 1.9 18.6 1.1 28-.2 2.2-1.9 4.2-4.9 2.9" style="fill:#d3bf9f"/><path d="m275 569c1.6.4 3.3.6 4.9 1.1 3.4 1.2 1.7 2.5 0 3.7-1.7-.4-3.3-.8-5-1.3-.8-.3-1.5-.9-2.2-1.3.8-.8 1.5-1.5 2.3-2.2" style="fill:#1b364b"/><path d="m267 614c0-4.6-.1-9.3-.1-13.9 0 4.6 0 9.2.1 13.9" style="fill:#7a839c"/><path d="m287 639c1.2-1.8 3.2-3.5 3.3-5.4.4-8.5.3-17 .4-25.6 3.5.4 7.1.8 10.6 1 6.9.4 11.8 4.9 12 11.4-4 .7-2.6 3.8-2.3 6.3 1.2-1.8.5-4.5 2.4-6 1.9-3.1 3.8-6.1 5.6-9.2 3.4-.1 2.9 2.9 3.8 4.8.3 4.7.9 9.4-.7 14-.8 2.2-1.6 4.3-3.9 5.3-1.3 2.2-2.5 4.4-3.8 6.5-1.5.9-2.9 1.8-4.4 2.7-7.7-.4-15.4-.8-23-1.2-1.3-1.1-2.5-2.3-4.3-3.9 1.6-.2 3-.5 4.3-.7" style="fill:#7a878a"/><path d="m321 616c-.8-1.5-1.5-3-2.3-4.5-1.6-2.3-3.5-4.4-4.7-6.9-2.8-5.7-5.3-11.5-7.7-17.4-1.1-2.6-1.5-5.5-2.2-8.2 1.3-2.6-.5-4.8-1.1-7.1-.6-2.2-.9-4.3-.3-6.2-8.2-.6-16-1.7-24-1.9-.9 0-1.7-.8-1.2-2 .7-1.1 1.5-2.1 2.2-3.2 8.3.3 16.6.4 24.9 1.3 1.9.2 3.7 2.9 5.1 4.8.8 1.1.8 2.8 1.1 4.2-1.4 11.7 4 20.7 11.9 28 5.2 5.1 8.6 10 6.7 17.8-1 4-.2 8.4-.2 12.6-.1 5.4-2.8 9-7.9 10.6-.5.2-1.5-.9-2.2-1.3.7-2.9.9-6.2 5.4-6.5-3.2-2-2.9-5-2.6-8 .4-2.2 1.4-4.5-.7-6.4" style="fill:#627386"/><path d="m278 562c7.3 1 14.5 2.1 21.8 3 .5.1 1-1.1 1.7-1.3 1.3-.4 2.6-.6 4-.9 0 1.3.1 2.7 0 4-.1 2.7-.2 5.4-.3 8.2-.1 1.4-.3 2.8-.5 4.3-3.1-12.3-4.5-13.3-17-13.7-4.5-.1-8.9-.6-13.6-2 1.3-.6 2.6-1.1 3.9-1.6" style="fill:#5a616e"/><path d="m297 550c5.8 0 11.5 0 17.3 0-5.7.5-11.4 1.1-17 1.6.7.5 1.4.9 2 1.4-.1.3-.2.5-.2.8-4.2-.9-8.3-1.8-12.5-2.7 3.4-1.7 6.9-1.7 10.5-1.1" style="fill:#25323d"/><g style="fill:#23303a"><path d="m297 550c-3.5.4-7 .8-10.5 1.2-.7-.4-1.5-.7-2.2-1.1 1.8-1.6 2.6-6.1 6.4-1.6.9 1.1 4.2.3 6.3.3 0 .4 0 .8 0 1.2"/><path d="m337 553c-.8.4-1.6.8-2.4 1.2-2.6-1.2-5.3-2.4-7.9-3.6 2.4-1.3 4.7-2.8 7.2-3.7.7-.2 2.1 1.7 3.1 2.6-1.2 1.2-.9 2.3 0 3.5"/></g><path d="m337 479c-2.7-.8-5.3-1.5-8-2.3 1.6-7.8 3.1-15.4 8.7-21.9 2.1-2.4 1.1-7.6 1.6-11.5-.3-3.2-2-6.6 1-9.4 2.9 2.6 1.8 6.1 2 9.3.1 1.8-.9 3.7 1 5.1 6.2-.8 11.7-7 12.4-15 .8-9.7.7-19.5-1.1-29-1.1-6-5.7-4.3-9.5-4.4-2.2.6-1.9 2.7-2.7 4.2-.6 1.1-1.3 1.9-2.5 2.3-2.1-.3-4.3 0-6.4-.8-1.5.4-3 .7-4.6 1.1-.3-3.1-1.4-5.7-3.3-8.2-2.3-2.9-4.7-6-3.9-10.2.4-.4.9-.6 1.5-.7 1.9.1 3.1 1.2 4.1 2.6 2 3.5 3.7 7.1 6.2 10.3.8 1 2 2.1 3.4.9 1.1-.9.3-2.1-.2-3.1-1.5-3.1-4.4-5.3-5.3-8.8 0-.6 0-1.1.2-1.7.6-1.1 1.5-1.5 2.8-1.3 3.2 1.7 3.8 6 7.9 7.9-.8-4.7-3.9-7.5-6-10.8-.4-.4-.7-.9-1-1.3-2.1-5.2-1.5-7.5 2.6-10 3.9-2.4 7.2-1.8 10.5 1.9 2 2.3 3.5 4.9 5 7.6 1.5 2.7 3.6 4.9 6.5 6 .4.4.6.9.7 1.5.1 3.5-2 6.5-1.7 10 .4 5 .7 5.3 5.2 3 2.9-1.5 5.8-4.1 9.4-1.6-.1 4-3.8 4.2-6.2 5.5-7.1 4-8 5.9-6 14.8 2.6-1 3.9-3.5 5.9-5 1.9-1.5 3.3-3.8 6.3-2.9.4.4.7.8.8 1.4-1.5 4.4-5.8 6.4-8.6 9.8-3.8 4.6-3.6 5.7 1.2 8.9 3.2 2.2 7.3 2.2 10.4 4.5.2 1.3-.3 2.2-1.3 2.9-4.2 1.8-7.5-.6-10.6-2.5-3.3-2-5-1.3-6.5 2.1-2.8 6.9-6.5 12.9-14.7 14.5-2.7.5-3.6 3.4-4.2 5.7-1.2 5.3-4 10.4-2.3 16 .6 1 .1 2-.7 2.7" style="fill:#2e4152"/><path d="m319 489c-4.5-.4-9.1-.5-13.5-1.2-1.4-.2-2.5-2.2-3.8-3.4-.9-1.7-2.1-3.2-3.2-4.6-.1-1.5-.1-3-.2-4.5.8-.7 2.1-2 2.2-1.9 6.1 5.1 12.3 10.3 18.5 15.6" style="fill:#9b8184"/><path d="m341 434c-.4 3.1-.7 6.1-1.1 9.2-.4-3.3-1-6.6-1.1-9.9-.2-6.8-.3-13.7 0-20.5.2-3.9-.8-6.4-4.7-7.5 2.3 0 4.5-.1 6.8-.2 1.3 1 1.8 2.4 1.9 3.9.5 7 .5 14 0 20.9 0 1.6-.5 3-1.8 4.1" style="fill:#3d5066"/><path d="m291 534c-4.5-1.6-9.1-3.2-13.6-4.8 0-2.1-.1-4.2-.1-6.2 0-6.8 0-6.8 7.2-5.8-.1-1.7-.3-3.3-.4-5-.7-4.7-1.4-9.4-2.1-14.2 6 5.7 11.9 11.3 17.9 16.9 1.1 1 2.4 1.6 4 2.6-2.5.1-4.7.2-8.6.4 2.7 1.1 3.8 1.6 4.9 2 1.6.2 3.4-.3 4.8 1.2 5.1 1.9 10.3 3.7 15.3 5.7 1.3.5 2.4 1.4 3.6 2.1-1 1-1.8 2.8-3 3-6.9 1.2-13.8 2.1-20.7 2.9-1.9.2-3.8.1-5.7.1-1.4.8-2.9 1.5-3.5-.9" style="fill:#967864"/><path d="m305 522c-1.6-.4-3.2-.8-4.8-1.2 5.6-.8 11.2-1.2 16.7-2.3 4.7-1 9.2-2.8 14.5-4.4-1.6 1.3-2.8 3-4.4 3.4-5.5 1.4-11 2.3-16.6 3.5-1.8.2-3.6.6-5.4 1" style="fill:#293940"/><path d="m340 531c-.4 3.8-.7 7.7-1.1 11.5-.8-.4-1.5-.8-2.3-1.1-1 .1-1.7-.4-2.3-1.2-.4-.4-.9-.8-1.3-1.2 2.3-2.7 4.7-5.4 7-8" style="fill:#23303a"/><path d="m291 534c1.2.3 2.4.7 3.6 1 1.2 1.1 2.4 2.3 3.5 3.4-.8 0-1.6 0-2.4 0-2-1-4-2-5.9-3-.3-.2-.3-.9-.5-1.3.6-.1 1.1-.1 1.7-.1" style="fill:#25323d"/><path d="m298 480c1.1 1.5 2.2 3.1 3.2 4.6-1-1.5-2.1-3-3.2-4.6" style="fill:#4d617d"/><g style="fill:#25323d"><path d="m331 539c-2.3.3-4.6.7-6.9 1 2.3-.3 4.6-.7 6.9-1"/><path d="m305 540c-2-.4-3.9-.7-5.9-1.1 2 .4 3.9.8 5.9 1.1"/></g><path d="m280 457c.7-2.5 1.3-5 2-7.4-.7 2.4-1.4 4.9-2 7.4" style="fill:#a25947"/><path d="m361 388c-1.8-.6-4.3-.7-5.4-2-2.5-3-4.2-6.7-6.4-10-2.2-3.3-4.8-5.4-9-2.9-4.1 2.4-5 5.3-2.2 9.2-.8.7-1.9.9-2.6.2-4.5-3.5-10-5.4-13.8-9.9-1-3.6-.4-5.9 3.7-7.4 4.1-1.6 5.6.7 7.3 3.3 1.1 1.6 1.9 3.6 4.4 2.3 2.4-1.2 2.5-3.3 1.4-5.4-1.6-3-1.5-6.3-2.1-9.4-.2-1-.1-2 .7-2.7.9-.6 1.9-1.2 2.5-2.2.2-.4.5-.8.8-1.2 2.3-4.1 7-6 9.1-10.3 1.2-1.4 2.4-2.9 3.6-4.3.4-.3.8-.4 1.3-.4 1.4.2 2.7.1 3.9-.7 1.2-.7 1.8-2.2 3.1-2.9.8-.2 1.5-.1 2.1.5 1.8.7 3.6 1.4 5.4 2.1 4.2 4.9 1.7 9.9.2 14.9-4.3 6.7-6.3 14-5.6 22-1.8.5-2.4-.9-3.2-1.9-1.2-2-1.8-4.9-5.4-2.4-3.1 2.1-1.8 4-.3 6.2 2.4 3.4 4.4 7.1 6.6 10.7.7 1.1 3.2 3-.1 4.5" style="fill:#425269"/><path d="m312 365c-3.5 2-7.1 4-10.6 6-.3-.4-.5-.8-.8-1.1 6.6-4.3 13-8.5 19.7-12.8 3.9-4.3 9.7-5.8 13.9-9.6 1.1-.5 2.2-1 3.3-1.6 1.4-1.2 3.4-3.2 4.6-1.3 1.8 2.7-1.4 4-3.1 5.5-8.8 5.4-17.6 10.7-27 14.9" style="fill:#869694"/><path d="m354 335c-.4 0-.8 0-1.2.1-2.9.6-6 .7-8.5 2-9.4 4.9-18.7 10.2-28 15.3-.5-.4-.9-.8-1.4-1.2.9-1 2.4-1.4 3.4-2.3h.1c5.7-6.2 13.8-8.6 20.7-12.9 3.3-2.1 6.7-4.5 10.8-4.9 1.9.5 3.4 1.5 4.3 3.2-.1.2-.2.4-.2.7" style="fill:#2f374e"/><path d="m338 349c1.5-1.1 3-2.3 4.5-3.4-.2-.3-.4-.7-.6-1-1.4.4-2.7.8-4.1 1.2 1.2-1 2.3-2.4 3.6-3.1 2.5-1.3 5.1-2.2 7.7-3.2-3 3.9-6 7.8-9 11.7-1.3-.2-2.6-.3-2.1-2.2" style="fill:#384552"/><path d="m334 347c-4.6 3.2-9.3 6.4-13.9 9.6-.5-.1-1-.1-1.5-.2 5.1-3 10.2-6.2 15.4-9.4" style="fill:#41585b"/><path d="m362 538c-.8-1.9-1.3-4.1-2.4-5.8-4.6-6.9-.6-13.3 1-19.7.2-.7 2.4-1.1 3.7-1.1 8.5-.3 17-.4 25.5-.8 3.7-.2 5.7.4 5.6 4.8-.3 9.8-.2 19.5 0 29 .1 3.9-1.4 5.2-5 4.9-3-.2-6.1 0-9.1-.4-7.9-1.1-14.2-4.5-16-14.6-1.2 2.7-1.6 3.7-2.1 4.7-.3-.5-.7-.9-1.1-1.3" style="fill:#455c66"/><g style="fill:#23303a"><path d="m320 545c0-1.1 0-2.3 0-3.4 1.6 1.6 4.2.5 5.7 2.3 1.7 2.7 1 4.3-2.2 5.2-2.8.8-4.8.8-4.7-2.9.5-.3 1.3-.4 1.2-1.2"/><path d="m314 547c-1.6-.1-3.3-.2-5.9-.3 1.6-1.9 2.6-3.1 3.6-4.3.8 1.6 1.6 3.1 2.3 4.6"/></g><g style="fill:#25323d"><path d="m326 543c-1.9-.8-3.8-1.5-5.7-2.3 1.8.8 3.7 1.5 5.7 2.3"/><path d="m334 540c.8.4 1.5.8 2.3 1.2-1 .8-2 1.6-3.1 2.4.3-1.2.6-2.4.8-3.6"/></g><path d="m332 542c-.7 1.1-1.1 1.6-1.5 2.2-.4-.5-1-.9-1-1.4 0-.6.6-1.2 1.1-1.5.1-.1.8.4 1.4.7" style="fill:#23303a"/><g style="fill:#25323d"><path d="m320 545c.6.5 1.1 1 1.7 1.4-.9-.1-1.9-.2-2.8-.3.3-.3.7-.7 1.1-1.1"/><path d="m337 553c-1.8-1.1-3.4-2.3 0-3.4 0 1.1 0 2.2 0 3.4"/></g><g style="fill:#3d5066"><path d="m322 388c2.5 4.2 5.2 8.3 7.3 12.7.7 1.5-.2 3.8-.4 5.7-6.7 2.4-13.5 3.5-19.8-.4-3-1.9-5.3-5.1-7.8-7.7 0-.3 0-.5 0-.8 0-2-.7-4.2 1-5.9 0 0 .1-.4.1-.4 3.1-1.1 6.2-2.2 9.2-3.3.3 0 .7 0 1 0 3.3-.9 6.3-2.5 9.4.1"/><path d="m298 394c.7-.3 1.4-.7 2.1-1 1.4 1.7 2.1 3.5 1.3 5.7-1.1-1.5-2.2-3.1-3.4-4.7"/></g><path d="m336 356c1.4 4.2 3.4 8.4 4 12.7.2 1.5-3.2 3.6-5.3 4.9-.5.3-2.5-1.3-3.4-2.4-1.9-2.3-1.8-6.2-7-4.4-3.6 1.2-2.6 3.4-3.3 5.4-.4.3-.8.3-1.1-.1-.9-1.2-1.7-2.4-2.6-3.6 2.3-1.5 4.6-3 7-4.5 1.1-1 1.7-2.5 3.2-3.2 2.8-1.6 5.2-4 8.5-4.8" style="fill:#384552"/><path d="m328 362c-1.2.7-2.4 1.3-3.7 2 .6-3.1-.7-4-3.5-2.6-2.6 1.3-5 2.7-7.6 4-.6-.1-1.1-.2-1.7-.3 8.5-5.3 17-10.6 25.7-15.8.7.7 1.4 1.4 2.1 2.1-.6.8-1.1 1.8-2.4 1.6-3.2 2.7-8.7 3.1-8.9 9" style="fill:#4e5e5e"/><path d="m299 349c3.2-1.5 6.4-2.9 9-4.1 1.7 3.8 3.3 7.4 4.9 10.9-2 .3-3.9.7-6.3 1.1.6-1.3 1-2.3 1.5-3.2-1.1.3-2.1.5-3.2.8-1.3-.7-2.6-1.4-3.8-2.1-2.3-.1-2.4-1.6-2.1-3.4" style="fill:#4b5c71"/><path d="m299 349c.7 1.1 1.4 2.2 2.2 3.3-1.8 1.1-3.6 2.2-5.5 3.4-1.5-.7-3.1-1.4-4.6-2.2 2.6-1.5 5.3-3 7.9-4.5" style="fill:#8f8e95"/><path d="m320 372c.4.1.7.1 1.1.1 5.4 3.5 10.7 6.9 16 10.4 1.4 2.6 0 3.8-2.2 4.7-.8.3-1.7.7-2.5 1-3 .7-5.9-4.9-9-.2-.4.1-.8.1-1.3.2-3.1 0-6.1 0-9.2.1 1-.8 2.4-1.4 3-2.4.9-1.6 1.9-3.6 1.7-5.3-.3-2.8-1.5-5.6-2.3-8.3 1.6-.1 3.1-.2 4.6-.3" style="fill:#886a68"/><path d="m297 360c1.3-.7 2.6-1.4 3.9-2.2-1.3.8-2.6 1.5-3.9 2.2" style="fill:#55462f"/><path d="m302 398c-.4-1.9-.8-3.8-1.3-5.7.8-.3 1.5-.6 2.3-.9-.3 2.2-.6 4.4-1 6.6" style="fill:#2d3d51"/><path d="m350 332c-10.7 5.8-21.5 11.6-32 17.5-1.5-.7-2.9-1.4-4-2 1.1-1.7 2.6-3.9 4-6.1.8-1.1 1.5-2.2 3.2-1.6 2.9 3 3.6-1.3 5.5-1.7.9-.7 1.8-1.2 2.8-1.6 9.9-4 18.5-10.4 27.9-15.2 2.4-1.2 4.6-3.8 7.7-1.8 1.6 1 2.5 2.1.9 3.9-1.2 1.4-2.8 2.3-4.3 3.3-.4.3-.9.5-1.3.7-1.3.6-2.7 1.1-3.8 2-1 .7-1.8 1.6-2.8 2.2-1.2.7-2.4.7-3.6.4" style="fill:#9c6048"/><path d="m365 319c-10 5.4-20 10.8-30 16-1.8 1-3.8 1.6-5.7 2.3-1.4-2.7-1-4.5 2.4-4.7 4.1-1.2 7.2-3.9 10.4-6.6 1.1-.9 1.8-2.4 3.5-2.6.6 0 1.3-.1 1.9-.1 5.7-1.6 10.2-6 16.2-6.8.5.9.9 1.6 1.3 2.4" style="fill:#483a30"/><path d="m310 304c0 4.3.2 8.4-.1 12.4-.1 1.4-1.8 2.7-2.8 4.1-.7-1.4-1.7-2.6-2.2-4.1-.3-1 .2-2.3-.1-3.3-1.8-7.5-1.7-7.7 5.2-9.1" style="fill:#614c49"/><path d="m368 349c-.1-5-.1-9.9-.2-14.9 1.3-.4 2.5-.9 3.8-1.3 1.2 2.5 2.5 4.9 3.7 7.4-2.4 2.9-4.9 5.9-7.3 8.8" style="fill:#7c898c"/><path d="m364 317c-5.5 2.2-9.2 8.3-16.2 6.8 3.7-6.6 7.4-8.2 16.2-6.8" style="fill:#4b5e76"/><path d="m346 324c-4.1 3.6-8.2 7.1-12.4 10.6-.1.1-1-.9-1.5-1.4 3.1-5.4 7.3-9 13.9-9.2" style="fill:#606062"/><path d="m332 333c-.8 1.6-1.6 3.1-2.4 4.7-.7.4-1.4.8-2.2 1.2-1.8 1-3.6 2.6-5.9 1.1-1.1.4-2.2.8-3.4 1.1 1.8-6.2 7.6-7.2 12.3-9.6.3 0 1.1 1 1.6 1.5" style="fill:#505a6d"/><path d="m363 332c-.7 0-1.4-.1-2.1-.1-2-1.8-1.7-3.7-.2-5.7 1.4-1 3.2-1.3 4.5-2.5.5-.2.9-.1 1.3.3 3.1 4.5 1.2 6.8-3.5 8" style="fill:#506177"/><path d="m289 321c1.1.8 2.2 1.6 3.3 2.4-1.1 2.3-2.1 4.6-3.2 6.9-1 .5-2 .9-3.6 1.7 1.2-4 2.3-7.5 3.5-11" style="fill:#5f5d5c"/><path d="m377 333c-1 0-1.9.1-2.9.1-.8-1.9-2.6-4 1.3-4.5 0 0-.1-.1-.1-.1.9 1.4 2.2 2.7 1.7 4.5" style="fill:#7c898c"/><path d="m366 324c-.4 0-.8 0-1.2 0-.4-.3-.5-.6-.3-.8.1-.3.3-.4.4-.4 0-1.1 0-2.3-.1-3.4 4.2.5 3.2 2.4 1.2 4.6" style="fill:#483a30"/><path d="m318 349c-1.1.8-2.2 1.5-3.4 2.3 1.2-.8 2.3-1.6 3.4-2.3" style="fill:#4b5c71"/><path d="m335 272c1.1-.3 2.1-.7 3.2-1-1.5 2.2-2.9 4.4-4.4 6.5-1.5-2.2 0-3.8 1.2-5.5" style="fill:#798a98"/><path d="m332 265c-1.2 5.5-3.2 6.9-6.8 4.7 2.3-1.6 4.5-3.2 6.8-4.7" style="fill:#757f89"/><path d="m335 272c-.4 1.8-.8 3.7-1.2 5.5.5-1.8.9-3.7 1.2-5.5" style="fill:#4d607d"/><g style="fill:#465d65"><path d="m337 479c-3-8.3.4-15.7 3.4-23 .5-1.2 1.8-3 2.8-3 8.5-.3 11.2-6.6 14.3-12.8.7-1.4 1.6-2.6 2-4.1.8-3 2.2-2 4.1-1.1 4.1 1.9 8.3 3.4 12.5 5.1 3.1.1 3.6 2.6 3.8 4.8.6 6.8 1.6 13.5 2.5 20.3.4 3.2.4 6.5-.8 9.6-1.3 3.3-1.3 6.7-1.3 10 .1 6.4.5 6.8 7.2 7.5 1.9.3 3.9.1 5.8.2 1.4.1 2.5.7 3.6 1.5-13.6 8.5-44.5 5.9-51-6.4 7.4 2.5 14.6 4.8 21.8 7.2.1-.4.3-.8.4-1.2-8.1-2.9-16-6.1-24.4-8.4-3.6-1.2-5.6-2.8-6.6-6.2"/><path d="m416 427c-3.6 1.1-4.8 2.9-3.1 6.9 3.3 7.9 3.5 16.4 4.3 24.8.2 1.8.8 3.5 2.1 5-.1-2-.3-4-.4-6 4.1 2.4 5.2 6.7 2.5 11.2-2.4 4-6.4 7.7-.3 12 .8.6-.4 3.8-.6 5.8-1.9.7-3.8 1.4-6.4 2.4.7-1.9 1.1-3.2 1.6-4.6-.2-.1-.4-.3-.6-.4-1.3 1.4-2.6 2.8-4.4 4.7 0-7 0-13.6 0-20 0-6.2.5-12.5 0-18.6-.1-1.4-3.2-2.6-5.3-4.3 1.7-.2 3.2-.5 4.7-.7 0-.3-.1-.7-.1-1-3.3.4-6.7.8-10 1.2-4 1.1-6.8-.2-7.6-4.4-1.7-8.4-2.2-16.9-3.3-25.3-.2-1.4.3-2.6 1.8-3.2.6-.2 1.2-.2 1.8-.1 2 .4 3.7 1.5 5.6 2.1 6.6 3.1 11.5 8.8 17.7 12.6"/></g><path d="m393 413c-.8.8-2.4 1.7-2.4 2.3.8 8.1 2.2 16 2.8 24 .3 4.6 4 4.1 6.4 5.6 0 0 0 .1 0 .1-2.4 2-3.2 4.4-2.9 7.6.6 7.6.2 15 4.7 22 2.7 4.2 2.6 10.3-.7 15.2-1.1 1.1-2.2 2.2-3.3 3.3-1.2 0-2.4 0-3.5 0-1.9-.8-3.8-.8-5.7 0-9.3.1-9.5 0-9.2-9.1.2-4.4 2.1-8.8 2-13 0-6.4-.9-12.9-1.8-19.3-.6-4.2-1.8-8.3-2.7-12.4.4-.8.7-1.6 1.1-2.4-1.8-1-2.6-2.7-2.7-4.6-.3-6.1-2-12.2-.6-18.4 0-.4 0-.7 0-1.1-.2-1.6.9-2.4 2-3 5.1-2.8 14-1.2 16.5 3" style="fill:#303139"/><path d="m401 491c.1-3.8.4-7.6.1-11.4-.2-1.9-1.9-3.7-2.6-5.6-1.2-3.6-2.4-7.3-3-11-.7-4.5-.7-9-1.1-13.5-.4-4.8 3.3-2.8 5.5-3.3.8 1 1.4 2.5 2.4 3 2.1 1 6.1 1 6.3 2.1 1.1 4.8 1.5 9.8 1.5 14.7 0 5.3-.8 10.6-.9 15.9-.2 8.2 0 8.2-8.2 9.1" style="fill:#455d64"/><path d="m425 601c-1.8-1.6-3.7-3.2-5.5-4.8-3.7 1.7-3.1-2.2-4.6-3.4-7.9-4.5-13-19.5-9.1-26.5 1.5.9 3 2.5 4.5 2.5 4.2 0 8.4-.7 12.6-1.2 0 1.9 0 3.8 0 5.7-1.1-.7-2.2-1.4-3.3-2.1 5.8 7.4 12 14.6 3.3 23.9.7 1.9 1.4 3.9 2.1 5.9" style="fill:#435460"/><g style="fill:#6b7b8e"><path d="m406 566c-1 10.2 3.2 18.7 9.1 26.5-1.9 0-3.9 0-5.8 0-3.4-7.3-6.9-14.5-10.3-21.8.1-.9.1-2.4.5-2.5 3.6-1.2 3.4-3.9 3-6.8 1.1 1.5 2.3 3 3.5 4.6"/><path d="m397 562c-.7 1.8-1.5 5.1-2 5.1-8.5-.6-16.9-1.7-25.4-2.7-3.3-.4-3.7-2.1-2.4-4.7 10 .8 19.9 1.6 29.8 2.3"/></g><path d="m431 533c-.5.5-.8.9-1.1 1.3-.4-.3-1-.6-1.1-1.1-.1-.3.5-1 .8-1.1.4-.1.9.5 1.4.9" style="fill:#5c6976"/><path d="m383 379c-7.1-5.5-7.6-6.4-6.9-14.5 2.3 2.1 4.6 5.5 7 .1.4-.8 2.2-.9 3.3-1.5 5.6-3.4 11.3-6.8 16.7-10.6 1.2-.8 1-3.5 1.7-5.2.6-1.3 1.5-2.5 2.4-3.7.7-1 2.1-2.1 2-2.9-1.3-6.2 2.8-4 5.1-3 4.5 2 7.4 5.4 6.5 10.8-1.9 10.9-5.4 20.7-16 26-1.5.8-3.1 1.5-4.6 2.3-4 3.3-12.8 4.3-17 2.1" style="fill:#829595"/><path d="m393 413c-6.1-3.8-12.3-3.6-18.4 0-4.3 3.5-8.7 7-13 10.5-4.3-11.9-3.4-14.2 7.7-19.9 1.8-.9 3.5-2.1 5.3-3.2.2-.2.4-.5.6-.7 7.8-3.1 15.8-4.7 23.9-1.1 2.1.9 4.2 2 5.4 4.1 4.3 5.4 9 10.7 12.7 16.5 1.1 1.7-.7 5.1-1.1 7.7-2.1-.7-4.4-1-6.1-2.2-4.2-2.9-8.2-6.2-12.2-9.3-1.5-1.3-3.3-1.6-4.8-2.4" style="fill:#4d627d"/><path d="m374 401c-4 1.6-8.1 2.9-11.9 5-3 1.6-4.5 1.3-4.1-2 .5-4.8 1.5-9.5 2.2-14.3 1.6-1.5 3.5-1.7 5.5-1.8 1.1 0 2-.5 2.8-1.3 2-2.1 4.4-3.6 6.9-4.9 1.8-.9 3.6-1.5 5.4-.4 5.3 3.6 11.4 5.9 16.9 9.2 1.8 1.1 3.2 2.6 3.8 4.8.7 1.6 1.4 3.1 2.1 4.7 0 2.4-1.5 1.8-2.6 1.2-9-5.2-18-3.1-27-.2" style="fill:#4e627d"/><path d="m402 395c-7.2-4.3-14-9.3-21.7-12.4-2.4-1-6.9 3.5-10.5 5.4-3.8-5.9-8.8-11-10-18.3.2-.5.5-1 .9-1.3.8.8 1.5 1.6 2.3 2.4 2 2.7 4.1 5.4 6.1 8 .6-.4 1.1-.8 1.7-1.2.1-1.9.2-3.9.3-5.8 3.3 1.6 3.8 6.3 8 7 1.3-.1 2.5-.2 3.8-.3 5.7-.7 11.3-1.3 17-2 .8.8 1.5 1.6 2.3 2.3-3.5 2.7-7.8 1.2-11.8 2.7 5.7 3.9 11.7 7.1 17.7 10.4 6 3.3 11.3 7.8 17.8 10.9 2.3-3.3 1.3-5.8-1.8-8-5.3-3.7-10.5-7.6-16.4-10.5-1.9-1-4.6-1.4-4.4-4.5 12 2.2 21.4 8.8 28.4 18.5 1.7 2.3 1.4 5.2 5.5 5.3 1 0 2.5 4 2.6 6.2.1 1.7-1.4 4.4-2.8 4.9-1.3.5-3.5-1.3-5.1-2.3-9.9-5.5-19.8-11.5-29.8-17.4" style="fill:#2f434c"/><path d="m403 380c6.5 4 12.9 8 19.4 11.9 5.4 3.2 9.4 6.8 3.9 13.3-13.4-8-27-16.2-41.9-25 6.6-.5 12-.9 17.4-1.3.4.4.8.8 1.2 1.2" style="fill:#495e66"/><path d="m458 495c.8 7.2-2.8 8-6.9 8.4-3.1.2-4.4-1.3-4.4-4.4 0-3.5 4.7-6.9 9.5-6.3 1 0 1.8 2.3 1.8 2.3" style="fill:#485d67"/><path d="m374 401c7.9-4.4 16.2-4.5 24.6-2 1.6.5 3.4.6 5 1 .1 1.1.2 2.2.2 3.3-9.4-6.2-19.6-4.5-29.8-2.3" style="fill:#273c56"/><path d="m420 336c-.5.8-1.1 1.6-1.6 2.4-5.7-6.5-12-2.9-18-1 .1-1.4-.3-3.4.4-4 3.9-3.3 15.2-1.7 19.3 2.6" style="fill:#788a92"/><path d="m379 379c-5.4.8-7.1-2.6-8-7 0-1.7-.1-3.4-.1-5.1.2-10 .2-8 7.9-7.3-5.4 2.8-7 7.9-4 13.4 1.2 2.2 2.8 4 4.2 6" style="fill:#778c94"/><path d="m391 276c-4.2-8-2.6-15.7 1.5-23-.1 1.7 0 3.4-.3 5-.3 2.1-1.4 4.1-1.4 6.1.1 2.7.9 5.5 1.3 8.2-.3 1.4-.7 2.6-1.1 3.9" style="fill:#414a4f"/><path d="m401 342c.2 1.9.5 3.7.7 5.6-.2-1.9-.5-3.8-.7-5.6" style="fill:#788a92"/><path d="m427 662c.8-1.5 1.7-3.1 2.5-4.6.7.1 1.5.3 2.2.4 2.8.3 6.2-1.5 7.5 3.3 1.1 4.2.1 7.2-3 9.7-.3.1-.7.1-1 .2-3.7.3-6.4-1.1-7.9-4.6v-.1c-1.5-1.3.3-2.9-.3-4.3" style="fill:#24303a"/><path d="m429 654c-1.9 1-3.7 2-5.6 3 0-1.5 0-3.1 0-4.6-.1-1.6-.2-3.1-.4-4.7 3.7-7.2 5.4-15 6.1-23 .1 5 5 5.4 7.8 7.8 0 8.1-.1 16.3-7.9 21.5" style="fill:#566371"/><path d="m377 333c-.5-1.5-1.1-3-1.6-4.5 1 1.2 2 2.5 3.1 3.7-.6.3-1 .6-1.5.8" style="fill:#26333d"/><path d="m356 149c1.2 1.5 2.4 3 3.6 4.5-1.8 1.3-3.6 2.6-5.4 3.9.4-2.5.8-5 1.2-7.5.1-.3.4-.6.6-.9" style="fill:#aeb7b1"/><path d="m418 747c-2.8 1.3-5.7 3.8-7.5-1.3-1.9-5.2 1.4-6.1 5.2-6.8 2.4 2.2 4.5 4.5 2.3 8.1" style="fill:#636c66"/><path d="m427 666c2.6 1.5 5.2 3 7.9 4.6-2.7-.7-5.4-1.5-8-2.2 0-.9.1-1.6.1-2.4" style="fill:#657b92"/><path d="m318 653c-1.4 2.2-2.5 4.7-4.3 6.4-.6.6-4.6-.9-4.6-1.7-.2-2.7.6-5.5 1-8.2 2.6 1.2 5.3 2.3 7.9 3.5" style="fill:#34353f"/><path d="m292 727c-4.6 5.5-10.4 8-17.6 6.8 5.9-2.3 11.7-4.5 17.6-6.8" style="fill:#565455"/><path d="m321 616c4.1 1.3 2 4.1 1.6 6.5-.8 5 .6 6.7 5.4 6-3.1 2.9-6.1 5.6-9 8.4-.4-.4-.8-.9-1.2-1.3 1.1-6.5 2.2-13 3.2-19.6" style="fill:#40505c"/><path d="m430 625c.4 8.3-1.1 16-6.1 23 1.6-6.9 3.2-13.9 4.8-20.8-.6-1.1-.8-2.2 0-3.4.3-.7.6-1.5.9-2.2.1 1.2.3 2.3.4 3.4" style="fill:#344550"/><path d="m423 641c-1.1 1.8-2 3.4-2.9 5-.5-1.6-1.5-3.3-1.5-4.9 0-1.6 1.1-3.2 1.7-4.9.8 1.5 1.6 2.9 2.7 4.8" style="fill:#272d33"/><path d="m428 624c0 1.1 0 2.2 0 3.4-.4-1.9-.7-3.7-1.1-5.6.4.7.7 1.4 1.1 2.2" style="fill:#8da1a8"/><path d="m427 662c.1 1.5.2 2.9.3 4.4-.1-1.5-.2-2.9-.3-4.4" style="fill:#657b92"/><path d="m319 648c.5 2.3.9 4.6 1.4 6.8-.4-2.2-.9-4.5-1.4-6.8" style="fill:#616c74"/><path d="m313 621c-.1 2.3.1 4.6-.4 6.9-.3 1.2-1.6 2.1-2.5 3.2-.6-1-1.6-2-1.8-3.1-.3-2.1-.4-4.2-.1-6.3.2-1.3 1.2-2.5 1.8-3.8 1 .9 1.9 1.9 2.9 2.8 0 0 .1.3.1.3" style="fill:#253337"/><path d="m341 434c0-9.6 0-19-.1-28.9.4-.7.9-1.5 1.3-2.2 1-1.4.1-3.8 2.2-4.6 9.2-2.9 12-1.3 12.6 7.7.5 8.5 1 17 1.2 25.6.1 7.3-5.9 16.4-12 18.6-1.2.4-2.7-.1-4.1-.2-1.5-1.7.6-4.1-1.1-5.8.1-3.4.1-6.8 0-10.2" style="fill:#4d627b"/><path d="m374 415c.8 5.5 1.5 10.9 2.3 16.4.3 2.2.7 4.4 1 6.6-5.1-2.2-10.3-4.3-15.3-6.6-.5-.3-.7-2.8-.1-3.5 3.8-4.5 8-8.6 12-12.9" style="fill:#455c66"/><path d="m357 393c-.7.9-1.5 2.6-2.3 2.7-1.7.1-4.2-.1-5.2-1.2-3.8-4.7-7.3-9.6-10.5-14.7-.5-.8.4-3.3 1.4-4 1-.8 3.7-1 4.3-.3 4 5.1 7.7 10.4 11.4 15.7.3.3.4.9.9 1.8" style="fill:#425367"/><path d="m333 389c2.1 2.9 4.4 5.7 6.1 8.9.7 1.4.1 3.4.1 5.2-2-.4-4.9-.1-5.8-1.3-2.5-3.5-4.1-7.6-6.1-11.4 1.5-2.1 3.5-2 5.7-1.4" style="fill:#3d5066"/><path d="m361 369c0 .4 0 .9-.1 1.3-1.8.8-3.2-1.4-6.1-.2 3.2 5.7 6.5 11.2 10.7 16.2.9 1.1 2.9 1.4 2.3 3.5-2.3 0-4.6.1-6.9.1 0-.4 0-.8 0-1.3-2.7-5-5.5-10-8.1-15.2-.8-1.6-2.4-4.3-1.8-5 1.6-2 4.1-3.2 6.3-4.7 1.3 1.8 2.5 3.5 3.7 5.3" style="fill:#2b3c4f"/><path d="m335 387c.7-1.6 1.5-3.1 2.2-4.7 2.4 3.4 5 6.7 7.1 10.2.5.8-.4 2.5-.6 3.7-1.1-.2-2.7-.1-3.2-.8-2-2.6-3.7-5.5-5.5-8.4" style="fill:#405469"/><path d="m333 389c-1.9.4-3.8.9-5.7 1.3-1.1-.9-2.3-1.7-3.4-2.6 1.9-5.6 2.7-5.8 6.4-2 .8.8 1.7 1.5 2.6 2.2 0 .3.1.7.1 1.1" style="fill:#87706d"/><g style="fill:#3d5066"><path d="m341 444c.4 1.9.7 3.9 1.1 5.8-.3-1.9-.7-3.8-1.1-5.8"/><path d="m344 399c-.7 1.5-1.5 3.1-2.2 4.6.7-1.6 1.5-3.1 2.2-4.6"/></g><path d="m328 362c-2.4-2.2-2.4-4.1.6-5.6 2.9-1.4 5.8-2.5 8.7-3.8.2.4.1.8-.3 1.1-.3.8-.7 1.6-1 2.3-2.6 2-5.3 4-8 6" style="fill:#829499"/><path d="m360 326c.1 1.9.1 3.8.2 5.7-.8 1.2-1.6 2.3-2.4 3.5-3.5-1.5-2.7-4.4-2.5-7.2 1.6-.6 3.2-1.3 4.7-2" style="fill:#6e4450"/><g style="fill:#293845"><path d="m356 328c.8 2.4 1.6 4.8 2.5 7.2-1.6 0-3.1 0-4.7 0 1.6-1.7-.4-3.1-.4-4.6.8-.9 1.7-1.7 2.6-2.6"/><path d="m364 343c0-2.1 0-4.2 0-6.4.1 0 .3 0 .4 0 0 2.1 0 4.2 0 6.4-.1 0-.3 0-.4 0"/></g><path d="m337 354c0-.4.1-.7.3-1.1.7-.4 1.4-.8 2.1-1.2-.8.8-1.6 1.5-2.4 2.3" style="fill:#384552"/><path d="m353 331c.9.7 1.7 1.4 2.6 2.1-.7.9-1.4 1.7-2.2 2.6-1.2-1.2-2.3-2.4-3.5-3.6 1.1-.5 2.1-.8 3.1-1.1" style="fill:#4b6377"/><path d="m379 516c3.9 2.9 7 5.3 10 7.6-.6.6-1.2 1.1-1.7 1.7-2.7-2.9-5.2-5.7-8.4-9.3" style="fill:#25323d"/><path d="m321 340c2-.4 3.9-.7 5.9-1.1-2.2 1.6-4.5 3.2-6.7 4.7-.3-.2-.5-.5-.8-.7.5-.9 1-1.9 1.6-2.9" style="fill:#4a2e1f"/><path d="m365 323c0 .4 0 .8 0 1.2-1.5.7-3.1 1.5-4.6 2.2 1.5-1.2 3.1-2.3 4.6-3.4" style="fill:#6e4450"/><path d="m343 471c5.4 1.9 10.8 3.8 16.2 5.8-.2.5-.3 1-.5 1.5-5.8-1.8-11.5-3.6-17.3-5.5-.1 0 .2-1.2.3-1.8.5-.6.9-.5 1.3 0" style="fill:#2f414a"/><path d="m343 471c-.4 0-.8 0-1.2 0 4.4-.4 8.8-1 13.3-1 3.5 0 7 .9 10.5 2.4-7.6-.5-15-1-22.6-1.4" style="fill:#293e47"/><path d="m362 488c3.8.9 7.5 1.8 11.3 2.6-.1.4-.2.8-.2 1.2-3.8-.8-7.6-1.6-11.3-2.4 0-.5.1-.9.2-1.4" style="fill:#303139"/><g style="fill:#25323d"><path d="m388 494c1.9 0 3.8 0 5.7 0-1.9 0-3.8 0-5.7 0"/><path d="m415 469c-.5.4-1.1.8-1.6 1.2-.2-.3-.6-.9-.5-1 .5-.5 1.1-.9 1.7-1.4.1.4.2.7.4 1.2"/></g><path d="m393 413c1.6.8 3.1 1.6 4.7 2.3-1.5-.8-3.1-1.5-4.7-2.3" style="fill:#303139"/><path d="m393 472c-.4.4-1.4 2-2.6 2.4-3 .9-4.8-.8-5.2-3.7-1-7.5-2.1-15-2.7-22.7-.4-4.8 2-10.8-.2-14.3-3.5-5.7-1.4-11-2.2-16.5-.2-1.4 1.5-3.2 2.3-4.7 1.4 1.2 3.7 2.3 4 3.7 1.2 6.5 2 13 2.8 19.7 1.3 11.5 2.4 23 3.8 36" style="fill:#483d44"/><path d="m391 477c2.3 2.3 4.6 3.5 4.9 5.2.7 4.1.6 7.5-5.8 7.5-6.1 0-6.3-3.6-5.8-7.2.3-1.8 3.7-3.1 6.7-5.5" style="fill:#465d66"/><path d="m405 449c1.4 2.2 2.7 3.3 2.6 4.2-.2 1.2-1.3 2.4-2.1 3.5-.7-.9-2-1.7-2.1-2.6-.1-1.2.7-2.6 1.6-5.1" style="fill:#21363e"/><g style="fill:#25323d"><path d="m407 471c0-3 0-5.9 0-8.9.4 0 .8 0 1.2 0-.1 3-.3 5.9-.4 8.9-.3 0-.5 0-.8 0"/><path d="m419 596c.1-.7.2-1.4.4-2.1.4.2.9.4 1.3.7-.5.5-1.1 1-1.7 1.4"/></g><path d="m367 389c-5-6.5-10-12.9-15-19.5-.2-.2 1-1.9 1.8-2.3 1-.5 2.5-.8 3.5-.4 1.1.5 1.9 1.8 2.8 2.7 1.7 3.1 3.6 6.1 5.1 9.2 1.5 3 2.7 6 4.1 9.1-.8.4-1.6.8-2.3 1.2" style="fill:#425269"/></g></g></svg>