<svg xmlns="http://www.w3.org/2000/svg" viewBox="0 0 1266.1 848" style="enable-background:new 0 0 1266.1 848"><g><path d="m515 433c-2.2-1.5-4.3-4.2-6.5-4.3-4.1-.2-8.2.7-12.4 1.3-.6-.2-1.3-.1-2 .3-8.5.6-17 1.1-25.6 1.7-5.5.6-11 1.1-16.5 1.7-.7-.1-1.4-.1-2.1-.2-3.8.4-7.6.8-11.4 1.3-2.1-5.7-7.2-2-10.7-3.4-3.2-4-6.4-8-9.5-12-1.5-2.1-3-4.3-4.6-6.4-.5.4-1 .8-1.5 1.2-.7-1.2-1.4-2.4-2.1-3.7 1.9-2.4 3.8-4.8 5.7-7.3-.4-1.7-.6-3.5-1.2-5.1-2.2-5.5-5.3-10.7-6.9-16.4-4.1-15-7.6-30-11.4-45-.4-1.5-1.8-2.7-2.7-4-1.2-1.6-2.4-3.1-3.6-4.7 0-1.8.4-3.6 0-5.3-1.4-5.9-3.3-11.7-4.5-17.7-2.5-11.5-4.7-23-7-34.5 1.1-3.9 2.2-7.9 3.4-11.8 4.1-5.3 2.8-10.3.2-15.8-5.6-12-10.3-24.3-15.8-36-1.3-2.9-4.3-5.1-6.5-7.6-2-1.1-4.1-2.1-6.1-3.2.9-6.3-4.4-8.4-7.9-11.8-1.5-1.4-2.9-2.8-4.5-4-.7-.5-1.7-.7-2.6-1-.8-.8-2.2-1.6-2.2-2.4-.2-8.5-.2-17-.3-25.5 0-2.7.1-5.4.1-8.1 0-2.7-.5-5.5.1-8.1 2.3-11-3.5-16.7-13-20-.3-1.6-.6-3.1-1-4.7 3.4-10 2.6-19.5-3.5-28-.4-2.3-.7-4.6-1.1-6.9 1-9.9-4.3-16.2-12.2-21-1.1-.7-2.2-1.5-3.3-2.3-3.4-1.2-6.8-2.5-10.2-3.7-2.1-.6-4.3-.7-6.4 0-.7.1-1.4.1-2.1.2-4.3 1-8.5 1.9-12.8 2.9-.5 0-1.1.2-1.6.4-5.6.8-10.5 2.4-10.4 9.5-1.2 2.7-2.3 5.5-3.5 8.2-.4 1.7-.8 3.3-1.2 5-1.9 2-2.9 4.4-2.9 7.2 0 .1 0 .2 0 .3-6.7 6.3-9.5 13.7-6.6 22.9-.8 3-1.5 5.9-2.3 8.9-4.7 6.3-9.3 12.6-14 18.9-1.2 1.9-2.6 3.8-3.7 5.8-.9 1.7-2.6 3.9-2.2 5.4 1.1 4.6 3.1 8.9 4.7 13.4 1.1 1.9 2.2 3.9 3.3 5.8-.7.4-1.5.8-2.2 1.2-1.1.8-2.2 1.6-3.2 2.4-1.2-.4-2.4-.9-3.7-1.3-1.6 0-3.2 0-4.8.1 0 0 0 0 0 0-3.3 2.3-6.8 4.3-9.8 6.9-1.5 1.4-2 4-2.9 6.1-2.5 1.6-4.7 4.1-7.4 4.5-9 1.6-13.7 8.2-18.6 14.7-9.4 12.6-18.7 25-28 37.9-.7 1.3-1.5 2.6-2.2 3.9 1 4 2 7.9 3 11.9 0 .3.1.6.3 1 3.7 10 7.4 20 11 30-.5 2.8-1.3 5.7-1.4 8.5-.6 19.9-1 39.7-1.7 60-.9 24-2 48-3 72-.5 8.1-1 16.3-1.5 24.4-.4 2.1-.8 4.3-1.1 6.4-.8 1.6-1.4 3.2-1.4 5-.2 18-2.3 36-3.4 54-.4 6.6-1.6 13-1.3 19.8.3 5.4 1.8 6.6 6.5 4.3 5.9-2.7 11.2-2.1 16.8.6 2.1 1 4.4 2.8 7 .9.1-.2.2-.4.3-.6 6.4-4.7 13.4-5 20.8-1 1.6.9 3.5 1.4 5.2 2 .8.4 1.7.7 2.5 1.1 1.8 7.7 5.2 11.6 10.3 11.8-3 4-2.9 8.3-1.2 12.8.3.7.2 1.5.3 2.3 0 4.3-.7 8.9.2 13 1.5 6.5-2.3 7.3-6.9 8.2-2.2.4-4.3 1.4-6.5 2.2-2.2 3.5-4.4 7-6.6 10.5-.1.9-.1 1.8-.2 2.6.3 1.9.7 3.8 1 5.7-.7 1.9-2.1 3.7-2.1 5.6.1 6.4.8 12.7 1.2 19-1.6 4.7-3.2 9.3-4.8 14-.4 1.8-1.3 3.6-1 5.3.7 4.9 1.9 9.8 2.8 14.7 1.4 8.6 2.7 17.2 4 25.8-1.2-.6-2.4-1.2-3.6-1.8-.4 1.6-1.3 3.2-1.2 4.7.2 4.6 1.2 9.2 1.2 13.7-.1 7.9-.8 15.9-1.1 23.8-.5 13-.9 25.9-1.4 38.9-.2 0-.5 0-.7.1-1.4.7-2 1.9-1.7 3.4-2.2 3.2-4.3 6.4-6.5 9.5-2.3 3.7-6 7.1-6.7 11-.7 4.2 3.9 8.5 1.8 13.5-.5 2.6-.9 5.3-1.4 7.9.5 0 .9.1 1.4.1 0-2.6 0-5.3 0-7.9.4 0 .8 0 1.2 0 0 3.9 0 7.8 0 11.6 0 0 0 0 0 0 .2.2.4.4.6.6 1.3 1.2 2.5 2.7 4 3 6.9 1.4 13.9 2.7 21 3.4 2.6.3 5.4-.2 8.1-.6.8.3 1.7 0 2.6-.3 2.3-.1 4.7-.1 7-.2 3.9-2.2 9.7-2.1 10.4-8.4-.4-.9-.5-1.8-.5-2.8.2.9.4 1.9.5 2.8.2-4.7 1.3-9.7-3.7-13-.3-.2 0-1.4.1-2.2 4-2.9 5.3-7.2 3.4-11.3-6.4-14-2.6-28-.7-42 .3-2.4.7-4.7 1-7.1 2.8-1.5 6.1-2.2 6.2-6.7 0-11.4.5-22.9.7-34 .1-2.7.1-5.4.2-8 .4-1.2.8-2.4 1.2-3.6.7-1.1 1.4-2.3 2.1-3.5 0-1.4-.4-2.8 0-4.1 1.2-4.6 2.6-9.1 4-13.6.7-.7 2-1.4 2-2.2.5-5.8 1.7-11.7 1-17.4-.6-4.7 1.3-7.6 3.9-10.6.7-.1 1.4-.2 2.1-.3 3.6-.1 6.8-.5 8.3-4.7 1.4-3.9 1.6-6.8-2.3-9.6-.8-.6.6-4.3 1-6.6.3-1 .6-2.1.8-3.1.8-1.2 1.2-2.7 1.2-4.5.1-.3.1-.5.2-.8.1.1.1.3.2.4 9.2-3.1 17.5-7.8 24.8-14-1-3.2-4-3.7-6.5-4.8.1-.1.2-.2.2-.3 6.5-2.2 8.7-7.3 8.8-13.6.1-13.4 0-26.9.1-40 0-2.6-.7-5.6 2.5-7.2 3.7.3 9.3-2.2 9.1 4.6-.4 12.7 2.1 25.3 1.1 37.9-.4 5.7 1.3 9.4 6.5 11.6 0 2.3-.1 4.7-.1 7 0 2.8 0 5.7 0 8.5 0 3 .7 6.2-.3 8.8-1.1 3-2 4.9 1.6 6.2 0 .8 0 1.6 0 2.4-1.1 1.5-2.4 2.8-3.2 4.5-1.8 3.6-3 7.5-5 10.9-3.3 5.5-7.1 10.8-10.7 16.2-.3.4-.6.8-.9 1.2-1.9-.4-2.1 1-2.4 2.4.4 2.4.4 5.1 1.4 7.3 5.2 11.9 10.5 23.7 16 35.4 1.7 3.5 3.6 6.9 5.5 10.3 0 0 0 .1.1.1.1.3.3.6.5.8.2.4.4.8.7 1.1.1 1.8 1.1 3.5 1.7 5.2 1.3 3.3 3 6.3 4.7 9.4.2.3.5.7.7 1.1-.4 2.1-.6 4.3-1.8 5.3-8.9 7.2-9.5 12-1.6 19.5 0 .1-.1.2-.1.2-.7 3.3 2.3 6.4.3 10-3.2 5.6-4.2 11.9-3.7 18.3 0 .1.1.3.1.4-2.3-.3-3.5 1.2-4.3 3.2.6 2.8.8 7.8 2 8.1 6.2 1.5 12.7 1.7 19 2.4 2.4.8 4.8 1.6 7.2 2.4 6.4 2 12.8 4 19 6.1 4.7 6.1 11 8.3 18.4 7.6 3.7-.3 7.3-.8 11-1.2 1.7-.3 3.5-.3 5-1 3.9-1.8 7.6-3.9 11.3-5.9.6-4 3.5-8.1-.8-11.8-.7-.4-1.5-.7-2.2-1.1-.5-1.5-1-3.1-1.5-4.6-.4-1.9-.9-3.8-1.3-5.7-.3-.4-.6-.9-1-1.3-.4-3.5-.7-7-1.1-10.5-2.3-1.6-4.4-3.6-6.9-4.7-3.3-1.4-6.7-2.2-6.2-6.8 0 0-1.3-.2-2-.2-.3.4-.7.6-1.2.7.4-.2.8-.4 1.2-.7-3.2-1.1-6.4-2.1-9.6-3.2.2-.3.5-.6.7-.9-6.8-4.9-6.5-12-6.4-19.3 0-1.5-1.3-3.1-2-4.6-.1-2-.1-3.9-.2-5.9 1.1-7.6 2.4-15 3.3-22.7.1-1.3-.1-2.6-.4-3.9l5.3-55-2.7-.4c.5-.3 1-.6 1.4-.8.4.4.8.9 1.3 1.3 0-1.2.1-2.4.1-3.5.8-1.7.9-3.3.1-5 0-.9 0-1.7.1-2.6-.5.2-1 .4-1.5.6-.4-.4-.8-.8-1.1-1.2 1.3-3.7 4.7-8.4 3.5-10.9-1.5-3.1-.7-4.8 0-7.2.7-2.3 1.1-4.5-.2-6.7-2.5.6-4.9 1.3-7.4 1.9-.1-.3-.2-.6-.3-.9 2.7-1.1 5.3-2.2 8-3.3 1.3-1.1 1.7-2 1.6-2.7.2-.3.4-.6.5-.9-1.1-.7-2.3-1.3-3.4-2-.8-1.2-1.6-2.4-2.4-3.6.8-.8 1.5-1.6 2.3-2.4 2.2-5.4-4.3-10.3-.9-15.8-5.1-4.5-.7-9 .2-13.4 1.4-2.3 2.7-4.6 4.1-6.9 4.3-5.7 8.7-11.4 13-17 .7-1.3 2.2-2.6 2-3.7-.8-6.4-1.9-12.8-2.9-19-.5-4.7-1-9.3-1.6-14-1.1-9.3-2.1-18.6-3.2-27.9 3.1.3 3.1-1.4 2.9-3.9-.2-3.3.2-6.7.4-10 3 7.4 11.7 10.4 19.3 7 2-.9 4.5-.3 6.8-.5 0 0 .3 0 .3 0l.3.1c.5-.3 1.1-.4 1.6-.4-.5.1-1.1.3-1.6.4 1.2.4 2.5.8 3.7 1.3.7-.9 1.5-1.8 2.2-2.7.7-1.7 1.3-3.4 2-5.1.3 0 .7 0 1 0 9.4-1.1 18.9-1 28-3 .7-.3 1.3-.8 1.7-1.3 7.2-.6 14.3-1.2 21.5-1.8 1.8 0 3.7 0 5.5 0 7.2-.8 14.4-1.6 21.7-2.4 3.2-.2 6.6.2 9.6-.7 1-.3 1.8-1 2.6-1.8.3-.2.6-.5.8-.9.9-.3 1.3-1.1 1.7-1.9.4-1 .7-2.1 1.1-3.1.2-.6 0-1.7-.1-2.8" style="fill:#e5e5e5"/><g><path d="m410 433c3.8-.4 7.6-.8 11.4-1.3.7.1 1.4.1 2.1.2.4.4.6.9.6 1.5-1.3 3.6-1.2 7.3-.6 11-.2 1.7-1.1 3-2.7 3.8-9.3 2-18.8 1.9-28 3-2.3 0-4.6.1-7-.1-1-.1-1.9-.3-2.8-.7-2.9-2-3.7-4.9-3.8-8.1 0-.6.1-1.1.2-1.7.4-3 3.9-5.7.7-9-.1-.5-.1-1 0-1.5 1.3-1.5 2.8-.4 4.3-.2.5.1.9.4 1.4.6 1.1.6 2.1 1.4 3 2.3 1.2 1.4 2.8 2.2 4.6 2.7.7.2 1.5.5 2.2.9 6.8 3.3 7.5 3.1 13-3.5.5-.3 1-.3 1.5 0" style="fill:#363034"/><path d="m383 450c.8.1 1.6.3 2.3.4.9 2 .3 3.5-1.7 4.4 1.6.9 5-1.5 5.1 2.5-1.5 1.1-3.5-.1-5 .9l-.3-.1c0 0-.3 0-.3 0-2.3.1-4.9-.4-6.8.5-7.7 3.4-16.4.4-19.4-7.2.8-1.4 2.1-1.8 3.6-1.6 3.3 2.2 5.1 6.6 9.7 6.3-2.9-2.4-5.7-5.6-10-6.6-2.4-2.4-2.3-5-.7-7.7 1.1-.1 2.3 0 1.9-1.8 1.1-1.8 2.8-2.2 4.7-1.9 1.5 1.1.7 3.4 2.5 4.3 1.5 1 3.5 1.6 2.8 4.1-.8 1.2-2.9 2-1.1 3.8 2.1 2 4.2 4.5 7.7 2.9 1.9-1 3.3-2.4 5-3.2" style="fill:#74646c"/><g style="fill:#968286"><path d="m303 788c-6.4-.7-12.9-.9-19-2.4-1.3-.3-1.4-5.3-2-8.1.9-2.2 2.1-3.7 4.8-3.2.9.4 1.4 1 1.1 2-2.9 5.2-2.3 6.7 3.2 8 1.7.4 3.4.6 5.1.9 4.8.7 7.6-1.6 9.1-5.8.8-.4 1.7-.4 2.5 0 .8 7.2 6 8.8 11.9 10 3.8.9 8.2 1.4 10.5 5.4.2.7 0 1.2-.6 1.5-6.4-2-12.8-4-19-6.1-2.5-.7-4.9-1.5-7.3-2.3"/><path d="m375 796c-3.8 2-7.5 4.1-11.3 5.9-1.5.7-3.3.7-5 1-3.7.4-7.3.9-11 1.2-7.4.7-13.7-1.6-18.4-7.6.2-.2.4-.4.6-.6.7-.4 1.6-.6 2.2-.1 9 7.3 19 4.6 28.9 3.1 1.2-.2 2.3-.4 3.4-.6 3.4-.1 6.2-1.6 8.9-3.6 1.1-.2 1.4.5 1.7 1.3"/></g><path d="m440 430c8.5-.6 17-1.1 25.6-1.7 1-.5 2-.7 2.8.4-.2 1.4-1.3 2.1-2.4 2.1-8.3.4-16.5 2.9-24.9.9-.7-.4-1.1-.9-1.1-1.7" style="fill:#2d7688"/><path d="m468 429c-.8-.1-1.6-.1-2.4-.2 4.8-.6 9.6-1.8 14.4-1.6 2.2.1 4.3 2.8 6.5 4.3.1 1.1.3 2.2.4 3.3-5.3-5.1-12.7-3.4-18.9-5.8" style="fill:#396e82"/><path d="m440 430c.1.3.1.6.1.9-4.7 4.1-10.2 3.6-15.7 2.9-.2-.2-.5-.5-.7-.7-.1-.5-.1-.9-.2-1.4 5.5-.6 11-1.1 16.5-1.7" style="fill:#2f8c97"/><path d="m383 458c1.6-.4 3.2-.8 4.7-1.2.4-.4.8-.4 1.2-.2-.7.9-1.5 1.8-2.2 2.7-1.3-.5-2.5-.9-3.7-1.3" style="fill:#f0e6f5"/><path d="m133 280c-3.7-10-7.4-20-11-30-1-2.4.6-3.6 2.2-4.7 6.1-4.2 12.9-6.2 20-7 3.9-.4 4.7 1.6 3.9 5-1 4.4-3.1 8.4-4.3 13 11-8.3 21.6-17 34-22.3 2.1-.9.7-5.2 4.3-4 1.1 1.7 1.4 3.6 1.5 5.5-4.7 9.1-11.7 16.5-18.4 23.9-3.7 4.1-5.5 8.1-5.3 13.6 1 22.6-.7 45-1.3 68-.8 30-2.5 60-3.7 90-.1 1-.5 2-.7 3-.3 3.7 0 7.4-.7 11-1.3 4.7-.5 9.4-.7 14-.2 5.2.3 10.5-.2 15.7-.8 2.7-1 5.4-1 8.2.5 15.2-1.3 30-1.7 45-.1 2.5-.4 5.1-1.7 7.3-2.6 1.9-4.9.1-7-.9-5.6-2.7-10.9-3.3-16.8-.6-4.8 2.2-6.3 1-6.5-4.3-.3-6.6.9-13.2 1.3-19.8 1.1-18 3.1-36 3.4-54 0-1.8.5-3.4 1.4-5 .4-2.1.8-4.3 1.1-6.4.5-8.2 1-16.3 1.5-24.4 1.6-18.9 5-37.6 5.5-57 .2-9.9 1.7-19.7 3.3-29.5 2.8-17 4.2-34.4 8.2-51 .9-3.8 2.9-7.2 3.2-11.7-4.8 2.3-8.7 4.8-10.6 9.6-.4 1-.8 2.6-2.1 2.4-1.8-.1-.6-2.2-1.3-3.2" style="fill:#2a1f23"/><path d="m167 598c2.2-3.5 4.4-7 6.6-10.5 2.7-.8 5.3-1.1 7.9.4 1.9 1.8 4 3.4 4.1 6.4-1.2 1.3-2.2 1-3.5-.4 1.2 2.1 4.6 2.5 3.4 5.7-3.9 1.1-5.4-2.2-7.5-4.2-4-3.7-5.2-3.4-6.6 1.8-.6 2.1-.8 4.2.7 6.1 1.1 1.4 1.7 2.6-.2 3.8-.5.2-1.1.3-1.7.3-.9-.1-1.7-.3-2.3-1.1-.3-1.9-.7-3.8-1-5.7 0-.9.1-1.8.1-2.6" style="fill:#6d3d2f"/><path d="m161 771c.2 0 .5-.1.7-.1 4.4-4.8 4.5-4.8 6.9.3.3 3.1-1.4 5.4-2.9 7.9-1.3 2.2-.6 3.2 1.8 3.3 2.9.1 5.7 0 8.6-.1 4.9.2 9.8-.9 14.6.9 2 2.8-.8 2.8-2.1 3.1-2.4.7-5 .4-7.5.3-2.6-.1-4.6.5-5.7 3.1-.4.5-.9.8-1.5 1.1-6.9.6-13.8 1.3-19.9 4.9-1.2.7-2.5.9-3.8 0-2.7-4.8.6-8.1 2.8-11.8 2.2-3.2 4.3-6.4 6.5-9.5-.5-1.5.1-2.7 1.5-3.4" style="fill:#534244"/><path d="m150 820c0-3.9 0-7.8 0-11.6-.6-.6-.8-1.4-.2-2 .6-.6 1.5-.6 1.7.4.4 1.8 1 3.4 2 5-3.2-4.2-1.3-8.9-1.3-13.5 1.6-3.6 3.4-4.2 5.4-.4 1.1 1.9 2.5 3.5 4.5 4.4 5.2 2.3 6.7 6.1 4.9 11.4-1.8 2.9-5.7.9-7.7 3.3-2.5.8-4.2 2.7-5.9 4.5-1.4.3-2.4-.6-3.4-1.5" style="fill:#ccb4b3"/><path d="m203 817c-.7 6.3-6.5 6.1-10.4 8.4-2.3.1-4.7.1-7 .2-1.4.5-2.7.8-3.8-.5 0-3 2.7-5.2 2.1-8.4.5-1.5 1.5-2.4 3.1-2.5 6.4 1.3 10-3.4 14.6-7 2 3.4 0 6.9 1.4 9.8" style="fill:#9a7f7e"/><path d="m153 799c.3 5.3.7 10.5 1 16.3-1.1-2.5-2.3-5.2-3.5-7.8-.1-.1-.2-.2-.3-.4-.3.4-.5.8-.8 1.3-.4 0-.8 0-1.2 0 2.1-5-2.5-9.3-1.8-13.5.6-3.9 4.3-7.4 6.7-11-.8 3.8-1.6 7.7-2.4 11.5 1.1.9 1.4 2.5 2.3 3.6" style="fill:#ab9c9d"/><path d="m182 824c1.2.4 2.3.9 3.5 1.3-3.6.3-7.2 1.3-10.7.9-7-.7-14-2-21-3.4-1.7-.4-3.1-2.3-4.6-3.5 1.2.4 2.3.8 3.5 1.2.6-.5 1.4-.9 2.1-.7 7.9 1.9 16 2.8 24 2.8 1.2 0 2.3.5 3.1 1.4" style="fill:#aba0a4"/><path d="m148 808c0 2.6 0 5.3 0 7.9-.5 0-.9-.1-1.4-.1.5-2.5 1-5.2 1.4-7.8" style="fill:#ab9c9d"/><path d="m274 49.7c1.1.8 2.1 1.6 3.3 2.3 7.9 4.8 13 11 12.2 21-3.2-3-7.2-3.1-11.4-3.2-11.2-.5-22.3-2.3-33-4.4-.4 0-.8-.2-1-.1-.4.2.1.3.2.4.8.7 1.4 1.6 1.6 2.7.1.9-.1 1.7-.5 2.4-4.1 2.1-7 5.5-9.9 8.9-1.7 1.9-3.3 3.9-5.9 4.7-.9.1-1.6 0-2.4-.5-1.6-2.6-.2-4.5 1.4-6.2 2.1-2.3 3.9-5 6.1-7 3.6-3.3 3.1-5.8-.6-8.3-1.3-.9-2.6-1.8-3.3-3.2-.1-7.1 4.7-8.7 10.4-9.5 1.1-.4 2.6-.9 2.6.8 0 4.5 3.5 4.1 5.5 3 2.8-1.4 7.6-1.8 6.2-7.2.7-.1 1.4-.1 2.1-.2 2.1-.8 4.2-.7 6.4 0 3.5 1.1 6.9 2.3 10.3 3.6" style="fill:#2c2325"/><path d="m230 58.9c2.6 1.9 5.3 3.5 7.6 5.7.7.7.4 3.3-.4 4.3-2.8 3.6-6.2 6.8-9.1 10.4-.8 1-.9 2.7-1.3 4.1 1 .9 2.3 1.9 1 3.3-1.3 1.2-2.4 0-3.3-1-1.6-1.8-1.7-4.2-2-6.4.1-2.8 1-5.2 2.9-7.2.4-1.7.8-3.3 1.2-5 1.1-2.7 2.3-5.4 3.4-8.2" style="fill:#735243"/><g style="fill:#433633"><path d="m255 46c1.3.6 2.6 1.2 4 1.9-2.5 2.1-4.8 4.1-7.3 5.9-3.5 2.5-6.9 2-9.9-.8-.8-.8-.8-2.4-1.1-3.7 4.7-1.1 9.5-2.2 14.3-3.3"/><path d="m263 45.9c-2.1 0-4.2 0-6.4 0 2.2.1 4.3.1 6.4 0"/></g><path d="m121 233c9.4-12.6 18.8-25 28-37.9 4.9-6.6 9.6-13 18.6-14.7 2.7-.5 4.9-3 7.4-4.5.6-1.8 1.8-2.4 3.6-2 4.1 2.7 6 7.2 7.8 11.4 5 12 9.5 24.3 13.4 36.8.3 1.1.6 2.3.5 3.5-.3 4.7-4.2 5.4-7.6 6.8-2.7 1.2-5.5 1.9-8.4 2.2-.5-.4-.8-.9-1-1.4-.1-9.6-3.1-18.7-5.2-27 .9 5.7 3.7 12 4.4 18.7.2 1.7.9 3.4-.7 4.8-.6 5.9-6.3 6.2-9.8 8.8-9.2 6.9-18.7 13.5-28 20-.6.4-1.3.7-3.1 1.7 2.1-6.1 3.7-11 5.5-16 1.4-3.8 2.1-6.7-3.7-4.4-6.1 2.3-12.3 4.4-18.3 6.8-1 .4-1.5 2-2.3 3-1.1-4.3-2.2-8.6-3.3-12.9.7-1.3 1.5-2.6 2.2-3.9" style="fill:#403134"/><path d="m331 197c2.2 2.5 5.2 4.7 6.5 7.6 5.5 12 10.2 24.4 15.8 36 2.6 5.6 4 10.6-.2 15.8-1.1 3.9-2.2 7.9-3.4 11.8-.1 2.1-.7 4.2-1.5 6.1-2.6 6.2-3.5 12.6-2.1 19 .5 2.5.6 5-.1 7.4-3.3 2.4.4 5.9-1.5 8.5.6-.1 1-1 1.8-.3 1.9 2.4 1.4 5.1 1 7.8-.9 3.6-1.4 7.3-2.1 11 1.4-.9-.7-3.5 1.7-3.9 3.5 3.4 1.9 7.5 1.7 11.4-1.5 3.9-2.2 8-2 11.8 1.1-1.8-.9-4.7 1.1-6.9 4.2 3.1 2.2 7.4 2.2 11.3-2.1 8-.3 15.9.8 23.9 2 1.7 1.6 3.9 1.4 6.2-1.1 5-.8 10 .1 15 .5 3.1 1.8 7.6-2.4 8.6-5 1.1-4.8-3.9-5.5-7.1-1.8-7.4-3.9-14.6-6.6-21.8-2.1-5.5-1.2-11.2-1.1-16.8 0-5.3-.6-9.4-6.7-11.2-4-1.1-3.8-4.6-2.6-8.2 4.4-13 3.2-25.6-3.1-37.7-.8-1.6-1.5-3.1-1.6-4.9.3-1.3 1.3-2 2-3 2.9-10.2 2.6-20.6-.3-30.5-3.7-12.8-1.9-25 .1-37.7.9-5.3 1.2-10.7 2.6-15.2.8 2.7-1.6 5.9-2 9.3-.7 6.1-1 12.4-3.7 18-.9 1.9-.8 3.7-.3 5.7.4 1.5 1 3.3-.2 4.4-2.4 2.1-4.2 3.7-1.7 7.1 1.1 1.5-.9 2.2-2.2 2.4-4 .7-6.2-2.7-6.5-7.4-.8-13.6 5.2-25.5 8.1-38 .4-1.9 1.2-3.7.1-5.6 0-5.1.9-9.9 3.8-14.3.9-.5 1.8-.6 2.5.2 2 1.6 4.1 2.7 6.1 3.8" style="fill:#342e32"/><path d="m347 336c-.4-3.9-.8-7.8-1.1-11.8-1-2.3-.9-4.6-.1-7-.4-2.8-.7-5.5-1.1-8.3-1-2.3-.9-4.6-.1-7 0-7.7-.5-15.4.2-23 .4-3.8 3-7.3 4.6-11 2.3 11.5 4.5 23 7 34.5 1.3 5.9 3.2 11.8 4.5 17.7.4 1.7 0 3.5 0 5.3.8 1.9.9 4.3 3.6 4.7.9 1.3 2.3 2.6 2.7 4 3.9 15 7.3 30 11.4 45 1.6 5.7 4.6 10.9 6.9 16.4.7 1.6.8 3.4 1.2 5.1-1.6 2.1-3.8 1.6-5.9 1.4-5.5-.2-9.2 3.4-13 6.5-2.8 2.3-5.1 5.2-7.9 7.6-1.9 1.6-3.8 3.5-6.7 2.6-2.2-1.7-2.2-4.1-2.1-6.4.6-10.5-1.4-20.9-.7-31.4-.4-2-.7-4-1.1-5.9-.9-7.8-2-15.5-1.3-23.3-.4-3.9-.7-7.9-1.1-11.8-.8-1.3-.7-2.8.1-4.3" style="fill:#4d4750"/><path d="m356 419c6.4-5.4 12.7-11 19-16.2 1.3-1 3.7-.8 5.5-1.1 1.5 2.1 2.5 4.2 1 6.8.7 1.2 1.4 2.4 2.1 3.7.2 2.4-2 2.4-3.3 3.2-5.4 3-5.6 7.1-.4 10.4.4.4.7.9.9 1.4.2.8.2 1.6-.5 2.3 0 .5-.1 1-.1 1.5-1.6 2.4-4.4 3.4-6.5 5.3-1.6.6-3.4 0-4.9.9-.9.5-1.8.7-2.7.6-1.5.9-2.9 1.7-4.4 2.6-.3.6-.7 1-1.4 1 0 2.3 0 4.7-.1 7 .3.3.4.5.3.7-.1.2-.3.3-.4.3-1.1.5-2.3.9-3.4 1.4 0 0 .1-.1.1-.1-3.9-4.5-4.6-9.4-2.3-14.9 3.9-2.4 8.2-4.6 4.9-10.4.4-3.2-2.1-2.8-3.9-3.2-1.8-1.2-1.1-2.2.3-3.2" style="fill:#2a1d1b"/><path d="m380 428c-1.4-.9-2.8-2.4-4.2-2.4-3.7-.1-3.6-1-1-3 .3-.2.9-.3 1-.6 2.1-6.2 2.1-6.2 7.6-9.1.5-.4 1-.8 1.5-1.2 1.5 2.1 3 4.3 4.6 6.4.3.7.7 1.4.5 2.2-.4.7-1.1.9-1.8 1.3.8-.1 1.3-.9 2.1-.9 1.5 2.4 3.7 4.9 1.3 7.6-2.5 2.7-5.8 2.5-8.9.9-1-.4-1.8-1-2.7-1.2" style="fill:#c5b3bf"/><path d="m389 397c-6.8-5.9-7.4-14.7-10-22.5-.7-2.1-1-4.5-1.8-8.1 4.4 11 8.3 20.7 12 30.4l-.2.2" style="fill:#43516a"/><path d="m381 409c-.3-2.3-.7-4.5-1-6.8 2.2-.2 4.5-.3 6.7-.5-1.9 2.5-3.8 4.9-5.7 7.3" style="fill:#ede9ef"/><path d="m365 331c-3.5.2-3.8-2.1-3.6-4.7 1.2 1.5 2.4 3.1 3.6 4.7" style="fill:#858daa"/><path d="m390 397c.7 1.1 1.3 2.3 2 3.4-.5.2-1 .5-1.5.7-.2-1.3-.5-2.6-.7-3.9 0 .1.2-.2.2-.2" style="fill:#38415a"/><path d="m356 419c.1.8.2 1.7.3 2.5-1 4.4-1.9 8.7-.4 13.2.1.3.1.5.1.8.4 5 .8 10 1.2 15-.2 3.5-.6 6.9-.4 10.4.2 2.5.1 4.1-2.9 3.9-1.1.8-2.3 1.5-3.6 1.9-.5.2-1.1.4-1.6.5-4.7 1.1-9.3 2.3-14 2.6-4.1.1-8.1 1.5-12.2 1.2-4.4 0-8.8.3-13.2-.3-3.7-.5-5.5.5-4.8 4.6.3 1.7.5 3.5-.9 4.9-3 .9-4.7-.5-4.8-3.3-.2-4.4-1.4-8.3-4.2-11.8-.8-1-.9-2.6-.8-3.9.5-14-1.2-27.9-1.1-41.9 0-5 2.2-10-.1-14.9-.2-.7-.5-1.7-.1-2.2 6-7.2 4.5-15.5 3.6-23.7-.4-16.9-2-33.8-3.4-50.6-.3-3.7-.5-7.4.2-11 .1-.7.4-1.3.8-1.8 1.5-1.5 3.5-1.9 5.4-1.6 5.4.9 7.1-1.4 6.5-6.5-.2-1.9-.1-3.9-.1-5.8.1-1.9 0-3.8.8-5.6.6-1.2 1.7-1.9 2.9-2.4.6-.2 1.2-.4 1.9-.5 4.7.4 9.5.4 12.4 5 1.5 1.8 3.5 3.4 4.3 5.5 4.4 11 4.3 22.7 3.8 34.4 0 .6-.2 1.1-.5 1.6-3.5 6.4-3.4 6.1 3.4 9.1 1.9.8 3.6 3.5 4 5.6.7 3.2.6 6.6.1 9.9-1.1 8.6 3 16 5.2 23.9 1.3 4.4 1.9 9.1 3.2 13.5.4 1.4 1.8 2.5 2.8 3.7.6-1.3 1.7-2.5 1.7-3.8-.2-4.6-.8-9.2-1-13.9-.1-1.8.7-3.7 1.1-5.5.8 11.6 1.6 23 2.5 34.7-.1.8 1.2 1.6 2 2.5" style="fill:#30282d"/><path d="m343 583c-.8.8-1.5 1.6-2.3 2.4 1.3 3.3-1.5 3.9-3.4 4.8-2.2 1-4.5 2.3-7.1 1.8-2.8-1.2-5.7-.1-8.6-.6-1.3-.2-3-.3-3.1-2 0-1.9 1.5-2.3 3.3-2.1.7-.1-.5-1.2-.1-.6.1.1 0 .3-.4.3-3.4.5-6.8 1.4-10.3.8-1.2-.2-3-.2-3-2 0-1.4 1.5-1.7 2.6-1.8 2.5-.3 4.9-1.2 7.4-1.3 4.9-.1 9.6-1.5 14.5-1.7-5-.3-9.8-1.3-14.6-2.4-1.2-.3-3.1-.3-2.9-2.1.3-1.6 2-1.5 3.4-1.5 2.7 0 5.4.8 8 .6-1.7-.3-3.5-.2-5.3-.5-6.9-1.1-6.3-1.1-5.1-7.8 1.8-10.3 6.4-20.5 1.9-31-1.9-4.6 5-10.9 11.7-11.3 4.5 2.6 4.8 7.6 6.8 11.7 1.4 2.9 1.5 6.5 4.6 8.5 4.3 2.5 1.4 5.9 1.2 9-.9 4.5-5.3 8.9-.2 13.4-3.4 5.4 3.2 10.3 1 15.7" style="fill:#4d4751"/><path d="m342 554c-.5-2.8-1-5.5-1.4-8.3-4.5-7.2-6.6-15.4-9.3-23.3 5.5-7.2 7.4-16 11-24 1.5-3.3 3.2-6.5 4.5-10 1.2-3.4 3.5-3 6.8.7 2.7 12 4 24.5 5.3 36.8.2 2-1.3 3.6-2.4 5.2-3.6 5.3-7.7 10.2-10.3 16-1.5 2.4-2.9 4.7-4.2 7" style="fill:#cac8d7"/><path d="m346 547c2.2-4.6 3.5-10 6.9-13.7 4.1-4.5 4.7-8.9 3.9-14.2-1.5-9.9-3-19.7-4.5-29.6-2.5-5.3-3.2-11-3.7-16.8-.2-2.4-.5-4.7 1.3-6.6l-.1-.2c3.2-1.1 2.7 1.3 3 3.2 1.5 7.9 1.6 16 3.4 23.8-.2 4.8 1.6 9.5 1.3 14.3.9 7.5 3.8 14.9 1.6 22.7-4.4 5.8-8.7 11.5-13 17" style="fill:#edecf3"/><path d="m355 493c-1.1-7.5-2.2-15-3.5-22.6-.3-1.6-1.5-3-2.4-4.5 1.3-.3 2.5-.6 3.8-.8 1.1 9.3 2.1 18.6 3.2 27.9-.4.5-.7.5-1.1 0" style="fill:#7c747d"/><path d="m359 530c-.7-7.6-1.4-15.3-2.1-22.9.4-.5.8-.5 1.2 0 1 6.4 2.2 12.8 2.9 19 .1 1.1-1.3 2.4-2 3.7" style="fill:#827e87"/><path d="m358 507c-.4 0-.8 0-1.2 0-.5-4.7-1-9.3-1.5-14 .4 0 .7 0 1.1 0 .5 4.6 1 9.3 1.6 14" style="fill:#75707a"/><path d="m323 689c.6-.1 1.5.1 1.7-.2 3.9-6.2 5.8-6.5 12.5-2-1.8 9.5-2.8 19-3.9 28.8-1.3 1.9-3.4 2.6-5.5 2.7-6.2.2-9.5 3.3-10.5 9.3-.2.9-.8 1.7-1.5 2.4-.8.6-1.8.7-2.7.2-3.2-1.9-5.8-.8-8.4 1.2-2.8-2.9-1.6-6.2-1-9.4.9-3.8-.3-7.4-1-11 .1-.9.5-1.6.9-2.3 2.6-4.3.1-7.8-1.6-11.5-2.6-5.7-.1-10.8 6.4-13.6 2.5 5.8 7.9 3.5 12.2 4.3.9.2 1.7.6 2.4 1.2" style="fill:#30292e"/><path d="m307 683c-1.7 1.8-.2 6.1-4.5 6 0 2.3-.4 4.6 0 6.8.8 3.8 2.1 7.5 3 11.2.1.4-1 1.1-1.6 1.7-.5.8-.7-2.1-1.2-.1-.1.5.1 1.1-.3 1.6.8 3.8 1.6 7.6 2.4 11.4-2.9 1.7-6.8-2.3-9.8 2-.9 1.3-1.8-2.5-3-3.8-1.7-3.1-3.4-6.1-4.7-9.4-.8-2.3-2.3-4.4-1.6-7 .2-1.1.4-2.2 1.3-3 2.5-.4 2.4 1.7 3.1 3.1 1.9 2.3 3.2 5 4.6 7.5 0 .1.4.1.4.1.3-.2.5-.6.6-.9 2-4.5-.8-5.1-4.2-5.3-.5-.3-.9-.7-1.2-1.1-5.1-15.9.4-30 6.6-44.5 1.1-2.5 2.4-4.9 3.6-7.3 1-1.8 1.4-3.6.2-5.5-1.9-3.1-.9-6 .7-8.8.7-1 1.6-1.8 2.8-2.2 1.2-.3 2.4-.3 3.5.3.2.2.4.4.6.7.1.8.1 1.5.2 2.3 3.2 6 1.6 12.6 1.5 18.8-.1 6.8-1.2 13.5-1.1 20.3 0 1.7-.2 3.7-1.9 5.1" style="fill:#261817"/><path d="m307 683c.5-14.8 1-29.6 1.5-44 5.5 0 10.9.1 16.4.1 1.2.7 1.2 1.8 1 3-2.2 14.7-5.1 29.4-4.8 44 0 1-.4 1.9-1 2.6-2.5 0-5.1-.1-7.5.1-4.6.4-6-1.9-5.6-5.8" style="fill:#b9a9b5"/><path d="m339 634c-9.8 4.2-20 1.7-30 2.4 0 0 0-.2 0-.2-.1-2.9 3.1-2.2 4.2-4 .8-1.4 2.4-4.4 3-6.5.3-1.1 1.5-1.7 2.7-2 6.6 1.4 12.8-1.7 19.3-1.9 5.7 5.3 5.7 5.8 1.1 12.2" style="fill:#c5b4b2"/><path d="m367 761c.4 3.5.7 7 1.1 10.5-2 1.7-3.9 1.6-5.8-.1 2.2-7.4 1.1-9.1-6.7-12.2-3.7-1.5-8.8-2.2-7.1-8.4.8-1.1 2.4-.5 3.3-1.6.7.1 2 .2 2 .2-.5 4.7 2.9 5.5 6.2 6.8 2.6 1.2 4.7 3.2 7 4.8" style="fill:#484962"/><path d="m320 689c1.6-15.5 3.2-31 4.8-46.6.1-1.1 0-2.2 0-3.4.5 1.5 1.6 3.1 1.4 4.6-1.3 15-2.7 30-4.1 45-.6 0-1.4 0-2.1 0" style="fill:#e2dee8"/><g style="fill:#515568"><path d="m332 716c.8-7.8 1.5-15.7 2.5-23.4.3-2 1.5-3.8 2.3-5.7.3 2.2 1.2 4.5.9 6.6-.9 7.6-2.2 15-3.3 22.7-.6-.3-1 .4-1.5.4-.4-.1-.7-.2-.9-.6"/><path d="m335 722c.7 1.5 2 3.1 2 4.6 0 7.2-.4 14.4 6.4 19.3-.2.3-.5.6-.7.9-3.8.9-5.2-2-6.9-4.3-1.8-6.8-4.7-13.5-.8-20.5"/></g><path d="m335 722c.9 7 1.8 13.9 2.6 20.9-.6.5-1.3.5-2.1.3-1.4-.8-2.4-2.2-2.6-3.7-1.3-7.8-2.5-15.7.7-23.4.4 0 .8 0 1.2 0 .1 1.9.2 3.9.2 5.9" style="fill:#d0d9e5"/><path d="m336 742c.5 0 1 0 1.6-.1 1.7 1.3 3.4 2.6 5.1 3.9 3.2 1.1 6.4 2.1 9.6 3.2-.8.5-1.7.9-2.5 1.4-1.1.3-2.3.2-3.4-.1-4.4-1.4-9.9-1.7-10.4-8.3" style="fill:#bfc7d7"/><path d="m339 634c1.2-4 3.2-8.1-1-11.6.2-.4.6-.7 1.1-.8.5 0 .9.2 1.2.6.4.4.8.8 1.1 1.2 3 3.1 2.2 6.2-.1 9.2-.7.5-1.5 1-2.3 1.4" style="fill:#eae4ec"/><path d="m341 632c0-3.1 0-6.2.1-9.2.5-.2 1-.4 1.5-.6-.1 3.7-.2 7.4-.3 11.2-.5-.5-.9-.9-1.3-1.4" style="fill:#545060"/><path d="m290 79.9c6.1 8.8 6.8 18.3 3.5 28 .3 1.6.6 3.1 1 4.7 5.4 6.5 7.6 14.7 11.2 22 .1 1.7.1 3.4.9 4.9.3.4.5.8.8 1.1 0 2.7-.1 5.4-.1 8.1-.5 4.7-.4 9.6-1.1 14.3-.4 2.9.3 6.3-3 8.2-3.1-2.6-2.4-6.3-1.7-9.2 3.2-12.8.9-24.5-6-35.5-1.5-2.4-2.5-5.2-2.6-8.2-.1-.7-1.5-.2-.7-.1.1 0 .2.1.2.2 1.2 3-1.3 3.6-3 4.6-2.9 1.5-6.1 2.4-9.1 3.8-5.1 1.5-7 5-6.4 10.2.4 3.7-.3 7.4-1.5 10.9-1.1 3.2-3.5 3.4-5.5.6-.9-1.3-1.6-2.8-1.6-4.3-.5-9.1-3.6-17.9-2.8-27 .4-5.5-.7-10.8-1-16.2 0-2.9.6-5.8.6-8.6.1-9.8 8-12.9 14.4-17.2 2.1-1.4 3.7.1 4.8 1.9 1.7 2.8 3.3 5.7 5.6 8.1 2.2-1.4 1-4.5 3.1-5.6" style="fill:#474047"/><path d="m323 194c-1.2 4.6-2.4 9.3-3.7 13.9-.8 7.9-2.9 15.3-6.6 22.3 0 0-5.3-.4-5.3-.4-3.4.5-5.1-1.7-6.2-4.3-1.1-2.7-1.6-5.5-5.1-6.4-2.7-.7-.6-4-2.2-5.5-.4-2.1.4-3.9 1.1-5.7 1.2-2.6 2.5-5.1 3.6-7.7 3.7-7.7 6.8-15.8 11.4-23 .9.3 1.9.4 2.6 1 1.6 1.2 3 2.7 4.5 4 .5.6.7 1.3 1 1.9.5 1.8 2 2.6 3.5 3.4 1.9 1.9 4.5 3.6 1.4 6.6" style="fill:#c1aea9"/><path d="m305 136c-3.5-7.8-6.9-15.6-10.4-23.4 9.4 3.4 15.2 9 13 20-.5 2.6-.1 5.4-.1 8.1-.3-.1-.5-.1-.8-.1-1.1-1.5-1.4-3.1-1.7-4.7" style="fill:#7a8a9f"/><path d="m310 177c-3.5 7.9-7 15.8-10.5 23.7-.4-.4-.7-.8-.9-1.4-.1-3.4 1.4-6.5 3-9.2 3.4-5.6 4.3-10.7-.3-16 .1-1.2.6-2.1 1.8-2.7 1.5-7.4 2.9-14.9 4.4-22.3.1 8.5.1 17 .3 25.5-.1.9 1.4 1.7 2.2 2.4" style="fill:#6c646a"/><path d="m323 194c-.7-2-1.4-4-2.1-6-1.9-.7-3.3-2-3.9-4 0-.6 0-1.2 0-1.8 3.4 3.4 8.7 5.5 7.9 11.8-.6 0-1.2 0-1.9 0" style="fill:#766c6e"/><path d="m340 622c-.5-.1-1-.1-1.4-.2-3.9-.3-7.3 1.8-11.2 2.2-3.3.3-6.5.3-9.7-.6-1.9-3.4.4-4.6 2.9-5.7 4.4-1.6 9.1.5 13-1-1.1-.2-2.6.8-4.2.4-5.1-4.1-5.1-5.5-.1-8.5 1.5-.1 3 0 4.5 0 1.3 0 2.5-.8 3.1-.7-1.7.8-4.2.8-6.8.7-2.3-2.7-4.8-5.4-5.4-9-.5-2.8 2.2-3.2 4.2-3.8.8 0 1.5-.3 2.3-.3-.4-.1-.7.1-1.1.1-5.6.7-11.4 3.1-16-2.2 1.8-3 4.8-1.4 7.3-1.7 2.1-.2 4.2.1 6.2-.3.6-.2 1.3-.1 1.9.1 3.5-1.9 7.1-3.8 10.6-5.6.8 1.2 1.6 2.4 2.4 3.6 2.2 1.5 4.6 2.9 1.3 5.6-2.7 1.1-5.3 2.2-8 3.3.1.3.2.6.3.9 2.5-.6 4.9-1.3 7.4-1.9 1.3 2.2.9 4.4.2 6.7-.8 2.4-1.6 4.1 0 7.2 1.1 2.3-2.3 7-3.6 10.7" style="fill:#cabcbc"/><path d="m344 595c-.4-1.9-.9-3.7-1.3-5.6 1.1.7 2.3 1.3 3.4 2-.6 1.2-1.3 2.4-2.1 3.6" style="fill:#eeeef6"/><path d="m344 604c-.1-2.2-.2-4.5-.2-6.7.1 2.3.1 4.5.2 6.7" style="fill:#eff0f8"/><path d="m362 771c2 .3 3.9.7 5.9 1 .3.4.6.9 1 1.3-.3.6-.5 1.2-.8 1.7.2 1.2-.3 2.6 1.1 3.4.5 0 .8.2 1.1.5.5 1.5 1 3.1 1.5 4.6.1.4.2 1-.1 1.1-4.1 1.8-5.4 4.7-3.7 8.9.3.9-.2 1.9-.7 2.8-9.1 3.8-18.2 2.9-27-.2-.4-.5-.5-1.1-.4-1.8 6-1.9 12 0 18-.5 3.6-.3 5.7-1.2 4.1-5.3-.2-.5-.3-1-.3-1.6-.7-3.4-5-2.5-6.3-5.2-4.7-3.9-11.2-3.7-16-7.1.6-4.9 3.9-8.8 8-8.5 5.1.6 10.6 1 14.8 4.9" style="fill:#807e8c"/><path d="m368 795c0-.4 0-.8-.2-1.1-2.5-5.4-1.5-9.2 4.8-10.7.7.4 1.5.7 2.2 1.1 1.7 3.5 1.8 7-.3 10.5-2.7 1.5-5.4 3.1-8.1 4.6-1-2 2.7-2.4 1.6-4.4" style="fill:#bbb3be"/><path d="m374 795c.1-3.5.2-7 .3-10.5 4.3 3.6 1.4 7.8.8 11.8-.4-.4-.7-.8-1.1-1.3" style="fill:#7d7483"/><path d="m368 774c.4-.4.7-.8 1.1-1.1.4 1.9.9 3.8 1.3 5.7 0 0-.4-.1-.4-.1h-.4c-1.3-1.2-2.5-2.5-1.6-4.5" style="fill:#484962"/><g style="fill:#6d616f"><path d="m380 428c.2-.6.4-1.3.7-1.9.6.5 1.1 1.4 1.7 1.5 2.7.3 5.4.3 8.1.5-.4-2.4-.8-4.7-1.1-7.1l.1.1c0-1 0-1.9 0-2.9 3.2 4 6.4 8 9.5 12-.1.2-.3.4-.4.7-2.8 1.5-4.9 3.7-6.6 6.3-1.6-1.1-3.2-2.2-4.9-3.3 1.1-2.9-1.6-1.6-2.5-2.2h.1c-1.9-.8-3.8-1.6-4.8-3.6v-.1"/><path d="m410 433c-.5.1-1 .2-1.5.3-2.1-.2-4-.7-6.1-.8-1.6 0-3.5-.3-3.3-2.8 0 0 .2-.2.2-.2 3.5 1.5 8.6-2.2 10.7 3.5"/></g><path d="m422 444c.4-3.6.8-7.3 1.2-10.9 0 0 .3.5.3.5 10.9-.2 21.6-1.8 32.5-2.6 6.6-.5 13-1 19.7-1.9 6.7-.9 9.8 3.2 8.1 10-2.5 3.4-6.4 2.1-9.6 2.6-2.3.3-4.6.2-6.8 1.2-9.3.4-18.7.4-27.9 2.3-4.4.4-8.9-.3-13.3.4-1.8.4-3.1-.4-4.2-1.6" style="fill:#04b1db"/><path d="m399 430c1.6.5 3.2.8 4.8 1.4 1.6.6 3.1 1.4 4.6 2.2-2.4 7-6.7 8.5-13 4.6-1-.6-2.1-.9-3.1-1.3-.2-4.9 2.8-6.4 6.8-6.9" style="fill:#c1b7c4"/><path d="m373 436c2.3-1.5 4.7-3 7-4.5 6.9 3.1 0 6.1 0 9.2-1.5 1.6-3.6 1.4-5.4 1.9-.6.1-1.2.1-1.7 0-3.6-2.3-1.8-4.4.1-6.6" style="fill:#c2b1ba"/><path d="m383 450c-1.7 1.2-3.4 2.3-5.1 3.5-1.4.3-2.4-.3-3.1-1.4-.8-1.1-1.3-2.4-1.6-3.7-.9-4-.6-4.4 4.2-4.4.7.2-.2-1.3-.1-.5-1.2 0-2.9.8-2.6-1.7l-.1.1c2-.8 3.9-1.2 5.8.2.8 2.6 1.7 5.2 2.6 7.9" style="fill:#c2afb8"/><path d="m389 457c-.4.1-.8.1-1.2.2-1.9-.5-3.8-1-5.7-1.4.8-1.6 1.7-3.4 2.6-5.1 2.3 0 4.6-.1 6.9-.1-.9 2-1.7 4.2-2.6 6.4" style="fill:#ae9fa6"/><path d="m422 444c5.8.2 11.6.4 17.4.7 1.4-.6 2.8-.9 4.1.3-7.5.6-15 1.3-22.6 1.9.4-1 .8-1.9 1.1-2.9" style="fill:#50738e"/><g style="fill:#c3b3c0"><path d="m385 431c1.6-.5 3.2-.9 4.8-1.4.2.3.4.6.6.9-1 .9-2 1.8-2.9 2.7-.9-.7-1.7-1.5-2.5-2.2"/><path d="m380 428c1.6 1.2 3.2 2.4 4.8 3.6-1.5-.5-3.1-.9-4.6-1.4-.1-.7-.2-1.4-.2-2.2"/></g><path d="m380 442c-1.9-.1-3.8-.1-5.8-.2 2-.4 3.9-.8 5.9-1.2 0 .4 0 .9-.1 1.4" style="fill:#55444d"/><path d="m483 440c1.8-7.6-.9-10-8.6-9.1-11 1.4-22.3 2-33.5 2.8-5.7.4-11.4.3-17 .5 5.4-.9 10.8-1.7 16-2.6 9.3-.8 18.6-1.6 27.9-2.5 1.5 0 3.1.2 4.6 0 6-.9 10.9.5 14.2 5.8-.4 1-.7 2.1-1.1 3.1-.5 1-1 2.2-2.5 2" style="fill:#1dddea"/><path d="m444 445c-1.3-.1-2.7-.2-4-.3 9.4-.8 18.7-1.6 28-2.4 1.1-.5 2.2-.6 3.1.4-7.2.8-14.4 1.6-21.7 2.4-1.8-.1-3.6-.1-5.5-.1" style="fill:#2d6d8b"/><path d="m471 443c-1-.1-2.1-.3-3.1-.4 5.1-1 10-2 15.2-2.9.8-.7 1.7-1.3 2.5-2-1.7 1.6-3.1 4.1-5.1 4.6-2.9.9-6.3.5-9.5.7" style="fill:#227da2"/><path d="m360 450c.1-.3.1-.7.1-1.1 4.3 2.3 8.6 4.6 12.9 6.9-6.7 2.4-10.7 0-13-5.8" style="fill:#c3b1b6"/><path d="m374 442c1.3.6 2.6 1.3 4.3 2.1-9.9-.1-2.1 5.7-3.3 8.5-3.8-.2-5.1-2.3-4.5-5.9-1.2-1.1-2.3-2.2-3.5-3.3 1.4-1.9 2-3.9 1-6.2 1.6-.3 3.1-.7 4.7-1 1.1 1.8-3.9 4.9 1.3 5.8" style="fill:#55444d"/><path d="m371 446c1.5 2 3 3.9 4.5 5.9.7.4 1.5.7 2.2 1.1 0 .7-.1 1.4-.1 2.1-2.8-1.4-5.8-2.7-8.4-4.4-1.1-.7-1.7-2.4-2.5-3.6 1.5-.3 2.9-.7 4.3-1.1" style="fill:#c6b2ba"/><path d="m368 437c.8 1.1 2.4 2.5 2.2 3.3-.3 1.2-2.1 1.9-3.2 2.8-.4-1.6-.9-3.3-1.3-4.9.7-.4 1.5-.8 2.3-1.2" style="fill:#beadbd"/><path d="m360 442c.5-.3.9-.7 1.4-1 .7.4 1.3.8 2 1.3-.7.6-1.3 1.1-2 1.7-.6-.7-1-1.4-1.4-2" style="fill:#c3b2b5"/><path d="m368 795c.9-.6 1.7-1.2 2.6-1.8.2.2.4.5.6.7-1.6 1.8-3.2 3.7-4.7 5.5-4.5.8-9 1.9-13.6 2.5-8.2 1.1-16 .1-22.4-6-4.5-1.9-8.9-4.6-13.6-5.5-6.5-1.2-10.3-3.5-9-10.7 1.4-3 2.5-.3 3.8.2.4.4.7.8 1.1 1.2 2.2 3.2 5.8 1.5 8.6 2.6 1.8.6 3.8 1.2 5.1 2.6 3.9 4.5 8.6 7.4 14.4 8.5 8.9 2 18 3 27 .2" style="fill:#e4d1d0"/><g style="fill:#725b60"><path d="m311 781c-1.3-.4-2.5-.9-3.8-1.3-.7.1-1.5.1-2.2.2-4.7 5.5-5.9 5.8-12.4 2.9.6-2.3.6-2.3 3.9-3-2.2-2.9-4.4-5.8-2.5-9.5.8-1.2 2-1.9 3.5-2.2 4.6.4 4.6-3.2 5.2-6.2 5.4-3.5 5.4-3.5 8.8 1.7.6 1.2 1.5 2.1 2.1 3.2.1.5.1 1 0 1.5-1.9 4.1.1 8.9-2.6 12.7"/><path d="m286 775c.2-.3.3-.7.1-1-.4-6.5.6-12.7 3.7-18.3 2.1-3.7-1-6.7-.3-10 4.9-8.8 10.5-10.5 16.3-5 .3 1.3.1 2.4-1 3.2-1.8.7-3.3-.6-5-.8-1.4-.2-2.7-.1-3.6 1.2-.6.9-.5 1.8.2 2.6 1 1.1 2.2 1.6 3.6 1.1 1.3-.4 2.3-1.4 3.5-1.9 6.2-.4 2.8 3.7 2.8 6.2-1.7 1.7-3.8 2.5-6.1 3.1-6.6 1.7-7 2.5-5.3 9.1.3.9.8 1.7 1.1 2.7.1 1.3-.7 2-1.7 2.7-2.9-.3-3.4-2.3-3.7-4.8-1.2 3.7.1 7.4-1.3 10.9-.3.5-.7.8-1.3 1-.3-.1-.5-.2-.8-.2-.2-.9-.7-1.4-1.2-1.8"/></g><path d="m292 782c4.8 2.3 8.9 1 12.7-2.2 1.1 5.3-2 7-6.4 6.9-3.6-.1-7.3-.6-10.8-1.5-1.5-.4-3.8-2.4-3.6-3.3.3-2 2-3.7 3.2-5.5 0 0 .2-.2.2-.2 1.1 1.1 1.4 2.7 2.6 3.7.9.6 1.5 1.4 2.1 2.1" style="fill:#dac3c1"/><path d="m168 771c-2-4.5-4 .1-6.1-.1.4-13 .9-25.9 1.4-38.9.3-7.9 1-15.9 1.1-23.8 0-4.6-1-9.1-1.2-13.7-.1-1.6.8-3.2 1.2-4.7 1.2.6 2.4 1.2 3.6 1.8.9.5 2 .2 2.9.6 1 .4 1.9.9 2.8 1.5.7.5 1.3 1.2 1.8 1.9 1.7 10.7 4.5 21.4 2.9 32.4-.1.6-.4 1.2-.7 1.8-3.7 9-2.9 18.7-4.5 28-.8 4.8-1.2 9.7-5.2 13.2" style="fill:#403033"/><path d="m170 692c-.7-.4-1.5-.8-2.2-1.3-1.3-8.6-2.6-17.2-4-25.8-.8-4.9-2.1-9.8-2.8-14.7-.2-1.7.7-3.5 1-5.3.7-.4 1.2-.2 1.5.5 2.4 13 5 26 7.4 39 .3 1.9.9 3.8.3 5.7-.2.7-.6 1.2-1.2 1.5" style="fill:#705e71"/><path d="m168 607c.8 0 1.6 0 2.4.1.4.4.5.9.4 1.4-2 4.3-1.7 8 2.4 11 .8.6 1.2 1.5 1.1 2.5 0 2.3-5.4-1.2-3.4 3.2-.1 1.5-1.1 2.7-1.5 4.2-.2.7-.5 1.4-1 2-.4.3-.9.5-1.4.3-.4-6.4-1.1-12.7-1.2-19 .1-1.9 1.5-3.7 2.2-5.6" style="fill:#705e5d"/><path d="m167 631c.3 0 .7-.1 1-.1.2.2.4.4.6.6.8 4.9-1.9 8.6-4.1 12.5-.4.4-.9.7-1.5.8-.3 0-.5 0-.8.1 1.6-4.5 3.2-9.2 4.8-13.9" style="fill:#5e4649"/><path d="m133 280c.5.8.9 1.6 1.5 2.5 1-9 9.2-10.5 15.7-16-2 7.7-3.8 13.9-5.1 20-2 9.6-3.8 19.3-5.4 29-1.4 8.8-2.5 17.6-3.5 26.4-.9 7.9-1.6 15.8-2.4 23.7-1.2 13-2.2 26-3.7 39-.6 5.2-2.2 10.3-3.3 15.4 1-24 2.2-48 3-72 .7-19.9 1-39.7 1.7-60 .2-2.9 1-5.8 1.5-8.6" style="fill:#403132"/><path d="m154 432c.4-16.7.7-33.4 1.2-50 .7-21.9 1.6-43.8 2.3-66 .5-16 .7-32 1.3-48 .1-2.5 1.9-5.3 3.6-7.4 6.8-8.8 13.9-17.5 20.8-26 .4-.4.7-.4 1.1-.1 2.4 3 .8 6.1.5 9.1-.9 8.5-3.4 16.9-1.4 25.5.6 9.2.9 18.3-.1 27.5-1.4 4.5-1.8 9.1-1.8 13.8 0 10.3-.2 20.6.1 30.9.7 27-1.6 54-1.3 82 .1 7.8-1.9 9.6-9.7 9.8-4.9.1-9.7-.1-14.6.1-.7.1-1.4-.2-2-.6" style="fill:#3e2c30"/><path d="m175 537c-1.8-.7-3.6-1.1-5.2-2-7.8-4.2-15.2-3.6-21.9 1.9.9-17.9 1.9-35.8 2.8-53.7 1.5-1.3 3-1 4 .5 2.2 3.4 4.9 2.7 8 1.5 3.4-1.3 7.2-1.4 10.7-1.8 4.4-.4 1.9 3.8 2.4 6-1.2 11.4-1.2 22.8-2.5 34-.2 2.1-.2 4.3.4 6.4.3 2.3 2.3 4.3 1.3 7" style="fill:#6c7491"/><path d="m175 487c-.1-1.3-.2-2.5-.2-3.7-5.2 1.2-10.3 2.7-15.5 3.5-1.6.2-3.5-1.4-5.2-2.4-1.2-.6-2.2-1.4-3.4-2.2.4-2.4.8-4.8 1.2-7.2 1.4-.2 2.2 1.5 4.6 1.2-4.4-5.3-2.5-11.7-4.6-17.2.2-4.8.5-9.6.7-14.4 2.9 2.6 1 6.2 2.2 10.2 4-2.5 4.4-6.3 4.5-9.9.2-4.6.2-9.3 2.8-13.4 1.4-.4 2.8-.2 4.2-.2.1.1.4.3.4.4-4.4 7.4-2.4 16-4.5 24 2.6-1.5 3.7-5.3 7.5-4.5 1.2 3.9 2.1.4 3.1-.1 2.4-1.1 4.9-1.3 7.5-.9.5.3.8.8.9 1.3 0 1.3-.8 2.3-1.9 2.6-4.6 1.4-3.7 4.4-2.3 7.5.3 1 .5 2 1 2.9.9 1.6 4.9 1.9 2 5.3-1.5 1.6.8 2.2 1.8 2.7 1.3.7 3 1.4 3.9-.6.5-1 0-2.4 1.2-3.2.9-.3 1.7-.1 2.5.5 2.2 5.5 1.6 7.9-3 8.1-6.5.3-8.7 4-10 9.3-.3.6-.8.7-1.4.3" style="fill:#5b4040"/><path d="m162 433c-.8 6.9-1.2 13.9-2.5 20.6-.4 1.9-3.7 3.2-6.8 5.7 0-5.7 0-9.7 0-13.7.1-3.8.3-7.6.4-11.3 1.9-1.7 4.4-1.1 6.6-1.8.8-.2 1.7-.4 2.3.5" style="fill:#a48286"/><path d="m152 460c.8 1.6 2 3.1 2.4 4.7.8 3.1 1.2 6.4 1.8 9.5.3 1.8.8 3.5 1.2 5.3-1.8-1.2-3.7-2.3-5.5-3.5.1-5.3.1-10.7.1-16" style="fill:#9d8785"/><path d="m185 235c-.4 0-.8.1-1.1.1-.4-1.6-.8-3.1-1.2-4.7-1.5-8.5-3-17-4.5-25.5 3.7 9.7 7.5 19.4 6.8 30" style="fill:#604c4f"/><path d="m160 433c-2.3.4-4.7.8-7 1.2.3-.5.6-1 .9-1.5.4 0 .9 0 1.3-.1 1.6-.4 3.2-.9 4.8.4" style="fill:#5b4040"/><path d="m187 565c-.1-.8 0-1.6-.3-2.3-1.6-4.5-1.7-8.8 1.2-12.8.2-.1.5-.3.7-.4 7.8-1.3 13-7.5 19.8-10.6 1.6-.7 3-1.8 4.4-2.9 2.9-2.2 5-1.5 7.3 1.2 4 4.6 7 10.2 12.4 13.5 1.7 2.3 2.3 5 1.4 7.7-3.9 11.6-2.4 23.6-3.5 35.4-.5 4.2-3.3 5.8-7 6.8-6.1 1.5-12.3 1.4-18.5 1.2-3-.7-6.4-.5-8.9-3 .5-2.4 2.1-1.3 2.7-1.3 0 0-.7-1.9-.5-2.6.1-.3-.7-.3-.9-.8-.7-1.8 4.5-1.2 1.6-3.9 2.4-3.3 2.3-5.8-1.7-8-2.4-1.3-2.1-1.8 1.5-4.2-4.2 0-8 .6-5.4-6.1 1.3-3-2.8-5.8-6.3-6.9" style="fill:#3d2e30"/><path d="m187 565c.9-.4 2.3-1.3 2.6-1 2.3 2 4.8 4 6.3 6.6.6 1-1.4 3.5-2.5 6 2 .1 4.2 0 6.3.4 1.1.2 2 1.4 2.9 2.1-1.1.2-2.2.4-3.3.6-.8.1-1.7 0-3.6 0 7.2 3.6 8.2 7.3 4 11.2-2.6 0-5.2-.4-7.7-1.5-2.7-1.3-5.5-1.7-8.2-.1-.4.3-.9.6-1.3.8-2.9-.5-5.8-1-8.7-1.6 2.2-.8 4.3-1.8 6.5-2.2 4.6-.9 8.4-1.8 6.9-8.2-.9-4.3-.2-8.8-.2-13" style="fill:#634b4c"/><g style="fill:#675e6e"><path d="m188 549c-5.1-.2-8.5-4.1-10.3-11.8.3 0 .5-.1.8-.1 3.9 1.6 3.8 6.7 7.7 8.4.5.2.9.5 1.3.9.8.8 1.4 1.6 1.2 2.9-.2-.2-.5-.3-.7-.3"/><path d="m175 537c-.7-2-1.5-3.9-2.2-5.9.3-.1.5-.1.8-.2 3.1 1.4 4.9 3.4 4 7.1 0 0-.1.1-.1.1-.8-.4-1.6-.8-2.5-1.1"/></g><path d="m172 607c-2.1-9.7-2.1-9.7 2.1-16.2 4.2 3 8.4 6 12.5 9 1-.8 2.1-.7 3.1 0 .3.5.5 1 .6 1.6.4 3.6-.3 5.9-4.7 3.6-1.1-.6-2.3-.2-3 .9-.7 1-.8 2.2-.1 3.3.7 1.2 1.8 1.2 3.1.9 1.7-.4 3.7-2 5 .6.8 1.7.9 3.4-.2 5-1.4 2.1-3.8 2.5-5.7 1.6-4.9-2.6-11.4-3.3-12.7-10.3" style="fill:#9e4e35"/><path d="m172 607c4 3 7.9 6.1 12 8.8 1.2.7 4 .6 4.8-.2 1-1.1.7-3.4.9-4.2-3.3-.2-5.9-.3-8.6-.5.1-2.3-.6-5.8.6-6.7 1.6-1.2 4.7-.3 7.2-.3.1-.3.4-1.6.6-3 3.1-1.2 5.9 0 7.9 2.1 2.3 2.6.2 5.2-1.1 7.5-2.3 4.3-3.8 9.9-10.6 8.7-4.6-.8-8.5-3.2-12.2-6-1.6-1.2-3.5-2.5-3-5.1.1-.4.1-.7.1-1.1.4.1.8 0 1.3 0" style="fill:#633324"/><path d="m189 600c-1-.1-1.9-.2-2.9-.4-2.5-2.4-5-4.7-7.5-7.1.2-.3.4-.6.6-1 2.1 1.2 4.2 2.4 6.3 3.6.3 0 .5.1.8.1 1.5.7 2.9 1.4 3.3 3.3 0 .7-.2 1.1-.6 1.5" style="fill:#edbdb1"/><path d="m186 595c-1.1-1.9-2.1-3.7-3.2-5.6 0 0-.2-.1-.2-.1 2.7-1.8 4.1.4 5.8 1.7.3 2 1.6 4.6-2.4 4" style="fill:#c9ab93"/><path d="m178 728c-.8-9.3-1.5-18.7-2.4-28-.2-1.9-.7-3.7-1.1-5.6.4-.5.9-.8 1.5-.9.6-.1 1.2-.1 1.7 0 3.7 1.2 7.5 2.1 11.2 3.1 7.1 1.9 13.5.5 19.4-3.7.7-.5 1.5-.8 2.4-.9-.1 2.7-.1 5.4-.2 8-.9 11.8-3 23.4-4.9 35-.3 2.1-.5 4.2-2 6-.3 2.4-.7 4.7-1 7.1-1.9 14-5.7 28 .7 42 1.9 4.2.6 8.4-3.4 11.3-1.3.6-2-.1-2.7-1-.5-1-.5-2.1-.3-3.1.7-2.2-.2-3.8-2.1-4.9-.5-.2-1-.5-1.5-.6-5.8-1.3-12-.1-17.6-3-1.1-3.7.2-4.9 4.1-4.7 4.1.2 8.2-.6 12.2-1-3.1-5.1-3.8-10.9-4.1-16.7-.4-9.5.2-19 1.6-28.4 1-6.6.3-7.3-6.3-8.1-1.9-.5-3.9-.4-5.2-2.2" style="fill:#291e21"/><path d="m198 801c.6.4 1.3.7 1.9 1.1 0 .8-.4 2-.1 2.2 5 3.3 3.9 8.3 3.7 13-.5-2.6-1-5.1-1.6-8-4 3.7-7.6 9.2-14.5 6 1.1-1.6 2.9-1.9 4.4-2.7 3.2-1 4.4-3.3 4.4-6.5.1-1.9-.1-3.9 1.8-5.2" style="fill:#695552"/><path d="m218 667c-1.3 4.5-2.8 9.1-4 13.6-.3 1.3 0 2.7 0 4.1-.7 1.2-1.4 2.3-2.1 3.5-4.9.6-3.1-3-2.8-4.9 1.6-9.7 3.4-19.3 5.5-28.9.6-2.8 1.5-5.6 1.7-8.5.3-1 .7-1.9 1.6-2.4 1.5.2 2.5 1.2 2.6 2.7.2 7 .9 14.2-2.5 20.8" style="fill:#a38482"/><path d="m217 647c-2.5 12.9-4.9 25.8-7.3 38.8-.2 1 .9 2.2 1.5 3.3-.4 1.2-.8 2.4-1.2 3.6-.4.4-.9.8-1.3 1.2-2.6 2-4.2 1.5-4.6-1.9-.1-1.2.1-2.3.3-3.5 2.4-12.3 5.3-24.6 7.6-37 .3-1.7.9-3.4 2.2-4.6 1-.6 1.9-.6 2.8.1" style="fill:#624444"/><path d="m203 741c2.3-13.7 4.6-27.3 6.9-41-.3 11.4-.7 22.9-.7 34-.1 4.5-3.4 5.2-6.2 6.7" style="fill:#291e21"/><path d="m178 728c13.6.9 14.3.9 12.7 14.2-1.7 13.9-1.2 27.4 1.4 41-5.5 0-11-.1-16.6-.1-2.2-2.7-1.9-5.9-1.5-8.9 1.8-12.5.4-25 1.6-37.5.3-2.9.2-5.8 2.3-8.2v-.6" style="fill:#675355"/><path d="m192 814c-1.5.4-3 .8-4.5 1.3-.8.7-1.7 1.4-2.5 2.2-6.3 3.4-12.4 1.7-18.5-.5-.9-.9-1-1.9-.3-2.9.7-5.4 0-9.8-6.6-11.2-1.5-.3-2.4-3.2-3.7-4.8-.4-.6-1-1.1-1.5-1.7-.3.9-.7 1.7-1 2.6-.8-1.2-1.5-2.4-2.3-3.7 7.3-3.4 14.7-6.9 23-5.6 4.2 3.8 7.4 7.9 5.4 14.2-.6 1.9.5 3.3 2.6 3.9 1.1.3 2.2.7 2.9 1.8.5.7.2 1.5.4 2.3 0-.8-.1-1.6.2-2.3.2-.6.6-1 1.1-1.3 4.3-.4 3.4 3.8 5.1 5.7" style="fill:#9c8082"/><path d="m178 729c-.4 4.8-.8 9.6-1 14.5-.5 13.4-.9 26.8-1.4 40-3.3 0-6.6 0-9.9 0-3 0-3.2-1.2-1.8-3.6 1.7-2.9 3.2-6.1 4.8-9.1 2.1-11.8 4-23.6 6.3-35 .4-2.4 2-4.4 3-6.6" style="fill:#988186"/><path d="m187 808c-.6 1.6-1.2 3.2-1.5 3.9-1.2-1-2.8-3.3-4-3.1-5.2.8-4-2.9-3.6-5.1.7-4.4 1.7-8.4-3.4-11-.6-.3-.4-2.2-.5-3.3.5-.1 1-.1 1.4-.2 6.6.8 13.2 1.6 19.8 2.4-1.9 4.7-.7 10.5-5.5 14-1 .7-1.8 1.6-2.7 2.3" style="fill:#695552"/><path d="m166 816c6.2.4 12.5.8 18.7 1.1-.8 2.4-1.5 4.8-2.3 7.2-9.9.3-19.8 0-29-3.6.3-3.6 2.3-5.1 5.9-4.7 2.3-1.5 4.7-1.4 7 0" style="fill:#cdb5b6"/><path d="m166 816c-2.3 0-4.7 0-7 0 .4-.8.7-2.1 1.2-2.2 1.9-.3 3.9-.1 5.8-.1 0 .8 0 1.6 0 2.3" style="fill:#ab9c9d"/><path d="m290 79.9c-.5 3-.9 6-1.6 10.7-3.2-4.7-5.6-7.8-7.4-11.2-1.7-3.1-3-5.1-6-1.4-.4.4-.8 1-1.3 1.1-10.5 3.4-10 12.3-10.6 20.8-.8 2.4-2.2 4-5.1 3.4-2.6-.6-3.1-2.6-3.4-4.8-.1-1.4-.3-2.8-.1-4.1 1.5-8.2-1.5-14.3-8.1-19-1.1-1.4-2.8-2.6-2-4.8 0-.8 0-1.6 0-2.4 4.3-.3 6.5 3 9.1 5.4 8.6 8.2 8.6 8.3 18.4 1.5.8-.6 1.6-1.1 2.3-1.9-10.9-.9-21.9-1-30.9-8.5 1.6-.1 3.2-.6 4.8-.4 11.4 1.2 22.8 2.7 34 3.6 3.9.3 5.3 2.4 6.8 5.1.1 2.3.5 4.6.9 6.9" style="fill:#251715"/><path d="m247 74c.7.6 1.5 1.2 2.2 1.8 5 3.9 9.2 8 7.1 15.3-.5 1.8-.3 3.9-.1 5.8.2 1.7 1 3.4 1.5 5.1 1.8-.7 3.6-1.4 5.5-2.2 1.2 14.6 2.4 29 3.6 43.7.1 1.1.5 2.3 1 3.3.6 1 1.6 1.8 2.4 2.7.4-1 1-1.9 1.2-2.9.5-3.4 1.4-6.9 1-10.3-.7-6.6 2.3-9.7 8.3-10.8.2.2.3.4.5.7.3 1.9-1.2 2.7-2.4 3.7-4.1 3.5-3.7 8.3-3.5 13 .1 3.1 3 1.5 4.5 2.4 4.2 4.3-.2 8.7.2 13-4.6 6.7-7.4 14.3-11.3 21.4-2.9 3.8-4.4 8.3-7.1 12.2-2 1.3-1.1 5.2-4.5 5.4-7-12.2-15-23.8-22.6-35.7-1.3-2.1-2.9-4.1-3.7-6.5-1.7-9.4-4.1-18.6-7-27.7-1.7-5.5-.1-7.1 4.8-5.7-.9-.7-1.7-1.2-2.7-1.6-9.1-3.2-9.2-4.1-8-13.4.6-4.7.3-9.5 3-14.2.1-.3-1.5.3-.7.2.2 0 .2.2 0 .5-1.8 3-1.3 7-4.2 9.4-3-9.6.1-17.2 7.3-23.6 1 2.5 2 5.1 3 7.6.4-.2.8-.3 1.2-.5-.2-.9-.4-1.7-.6-2.6.7 0 1.4 0 2.1.1 3.5 7 2.5 14.7 2.8 22.7 5.4-2.1 8.3-5.6 9.5-10.6 1.2-4.9 2.3-9.8 2.6-14.9.5-2.6.6-5.3 3.1-6.8" style="fill:#413338"/><path d="m247 74c-1.2 7.2-2.5 14.4-3.6 21.6-1 6.7-6 10-11 13-.4.2-2.3-1-2.3-1.6-.3-7.9-.5-15.7-.6-23.6 3.5-3.7 6.8-7.4 10.5-10.9 1.2-1.1 3.1-1.4 4.7-2 .8 1.2 1.6 2.3 2.4 3.5" style="fill:#634a4d"/><path d="m243 65c7.8 2.2 15.4 4.6 23.3 6.3 3.5.8 7.4.1 11.7 1.4-4.9 3.2-9.7 6.7-14.8 9.5-1.2.6-4-.7-5.4-1.9-4.7-3.7-9.1-7.8-13.6-11.7-.5-1.2-.9-2.4-1.2-3.6" style="fill:#443331"/><path d="m232 155c8.4 12.5 16.8 24.9 25 37.5.8 1.1.5 3 .7 4.5 3.2 4.8.6 10.6 2.4 15.6-.1 10.9 1.6 21.6 1.5 32.5 0 2.1.2 4.3-.7 6.3-.7 1.4-1.9 1.7-3.3 1.6-4.7-4.2-6.2-10.5-9.8-15.4-5.5-7.5-9.6-15.9-14.8-23.7-4.7-7-4.8-6.9-12.6-4.7-1.2-.5-1.8-1.3-1.8-2.6 3.3-5.3 8.1-9.3 12.9-13.3 4.2-3.5 4.3-4-.6-6.8-10-5.6-19.9-11.4-27.9-19.8-1.3-1.3-3.3-2.2-2.7-4.7.7-.4 1.5-.8 2.2-1.2 2.7-1 4.3 1.1 6.1 2.4 4 2.8 7.8 5.8 11.9 8.5 5.4 3.6 5.7 3.4 7.1-3.1.7-3.2.9-6.6 1.9-9.7.4-1.6.8-3.1 2.4-3.9" style="fill:#bca9b2"/><path d="m232 155c-1.4 6.2-2.8 12.5-4 18.7-.6 3.3-1.4 4.3-4.7 1.9-6.8-5.2-13.9-9.9-20.8-14.8-1.1-1.9-2.2-3.9-3.3-5.8 7.7-.2 10-5.8 12-11.9 1.4-4 4.5-7.2 6.3-11 1.7-3.5 1.9-6.3-.4-9.7-2.1-3.1-4.6-6.5-3-10.8.8-3 1.5-5.9 2.3-8.9 1.5-4.1 3-8.3 4.5-12.4.4.1.7.2 1.1.3-.3 1.3-.7 2.5-.9 3.8-.9 5.5-1.7 11-2.5 16.5-.6 4.7 2.8 6.2 6.2 7.7 3.1 1.4 6.1 2.8 9.2 4.2-.2.6-.4 1.1-.7 1.7-1.6-.5-3.2-1.1-4.7-1.6-1-.4-2-.8-3.1-1.2-.2 1.3-.7 2.7-.5 3.8.5 2.4 1.7 4.8 2.2 7.2 1.7 7.5 3.1 15 4.7 22.4" style="fill:#2a1f23"/><path d="m200 162c9.5 10.8 21.6 18.2 34 24.8 3.3 1.8 3.5 2.8.8 5.1-5.4 4.7-10.7 9.6-16 14.4-2.8-.6-3.2-3.2-4.3-5.1-3.5-6.5-6.9-13-11.2-19-.3-.4-.6-.9-.9-1.3-.9-1.9-1.9-3.7-3.3-5.3-1-1.3-1.8-2.6-2.5-4-.6-2.3-3.7-4.6 0-6.9 1.1-1 2.2-1.8 3.3-2.6" style="fill:#f5edf5"/><path d="m214 112c2 4.1 4.1 8.2 5.8 12.5.6 1.6 1.1 3.8.5 5.2-3.5 7.7-7.4 15.2-11.2 22.7-2.3 4.7-6.4 3.1-10 3-1.6-4.4-3.6-8.8-4.7-13.4-.4-1.5 1.2-3.7 2.2-5.4 1.1-2 2.4-3.9 3.7-5.8 4.5-6.2 9.1-12.5 13.8-18.8" style="fill:#413034"/><path d="m179 175c-1.1.5-2.3 1-3.4 1.4.9-2.1 1.4-4.7 2.9-6.1 2.9-2.7 6.5-4.7 9.8-6.9.4.4.6.9.7 1.4-1.7 5.1-7.7 5.9-10 10.2" style="fill:#76726e"/><g style="fill:#786269"><path d="m197 164c.5 2.3 1 4.7 1.5 7-5-.3-6-3.5-5.8-7.7.2-.2.4-.5.6-.7 1.3.5 2.5.9 3.7 1.4"/><path d="m188 165c-.1-.6-.1-1.1-.2-1.7 1.6 0 3.2 0 4.8-.1-.1.1-.3.3-.4.4-1.2 1.3-2.5 2.1-4.2 1.4"/></g><path d="m160 433c-1.6-.1-3.2-.2-4.8-.3 5.3-.4 10.7-1 16-1 5.4 0 7.4-1.8 7.4-7.5.1-38.9.6-78 1.2-117 0-3.5 1.5-7 2.3-10.5 4.3-4.3 10.2-4.3 15.7-5.3 8.5-1.5 9.4-2.2 9.4-10.7 0-4.6-.9-9.2-1.4-13.9-.5-3.8-2.5-4.3-5.7-3.1-3.6 1.4-7.2 2.9-10.9 4.2-2.1.8-4.2 2.1-6.7.9-.4-4.2-1.3-8.5-1-12.6.6-7.2 2-14.3 3-21.5 3.5-1.5 7.1-2.9 10.6-4.6 1.7-.8 3-2.3 4.4-3.5.3.1.6.3.9.4 3 3.1 3.6 7.3 4.8 11 4.9 15.3 9 30.7 7.8 47-.2 3.2 1.7 5.5 2.6 8.3.1 3.1-.1 6.2-.1 9.3 0 9.7 0 9.7 9.5 9.8 1.8 0 3.5 0 5.3.1 2.2.2 4.3.4 5.5 2.6.7 1.5.9 3 .8 4.6-.7 15.6 1.8 31 1.2 46.7-.3 8 1.3 15.9 1.5 23.9.2 4.6 1.7 8.7 5.4 11.8 3.9 3.3 4.4 8.1 4.6 12.8.3 5.4-.2 10.9.4 16.3-1.3 11 1 22 .8 33-.1 3.9-.7 7.5-5.2 8.7-16.5 2.3-32.9 2.7-49-.3-2.5-.5-5-.8-6.7-3-.8-.1-1.5-.2-2.3-.2-2.5-4.4-6.8-3-10.6-3.1 0-1.2-.1-2.4-.1-3.6 5.3-1.9 5.2-6.2 4.7-10.7 0-.4 0-.8 0-1.2.1-.2.2-.4.3-.6.7-.9 1.6-1.7 1.6-3-2-7.1-3.1-7.8-10.2-7.1-1.1-2-.2-3.7.6-5.4.3-.4.8-.7 1.2-1-.9-.6-1.5.5-2.3.5-2.1.3-3.9-.1-5.2-1.9-1.7 0-3.3 0-5 0-.6.1-1.3.1-1.9.1" style="fill:#2b2024"/><path d="m188 165c1.4-.4 2.8-.9 4.2-1.3 1.8 2.7 3.7 5.3 5.5 8 .6 1 1.2 2.1 1.9 3.1 1.2 2 2 4.3 3.6 6.2 5.1 9 11.3 17.7 14.7 27.7-3.6 7-9.7 12-14.4 18.2-1.1 1.4-2.6 1.7-3.7-.3 0 0-.2 0-.2 0-5.8-17.7-10.5-35.8-20.8-51.7.9-1.6 1.5-3.5 2.8-4.8 1.7-1.9 4.1-3.4 6.4-5.1" style="fill:#e0baa2"/><path d="m323 298c-4.2-1.4-8.4-2.7-12.6-4.1-2.5-2.1-2.6-5.3-2.7-8-.3-8.1-2.3-16-1.5-24 .1-1.1.5-2.1 1.2-2.9 10-2.2 17.6 3.2 18.3 13 .1 1.9.1 3.9 0 5.8-.3 6 .4 12-.5 18 0 .3-.1.7-.1 1-.6.4-1.4.8-2.1 1.2" style="fill:#bfa398"/><g style="fill:#30282d"><path d="m324 278c-.1-.6-.2-1.2-.2-1.7-.5-13.4-2.3-15.2-16.4-16.9-3-.5-2.8-3-2.6-5 .9-8.6 2.6-17 7.1-24.6 2.4-7.4 4.8-14.8 7.2-22 .4 1.6 1.4 3.4 1 4.7-2.5 8.8-5.6 17.5-7.8 26.4-1.2 4.9-1.4 10-1.1 15 .3 3.8 3.5 4.5 7.2 3.6-5.4-4.4-5.3-4.3.2-8.1.8-.5.7-2.4.8-3.7.3-2.7.2-5.4.7-8 1-5.1 2.4-10 3.5-15 1-4.3 1.9-8.5 3.9-12.6-1 8.6-2.1 17.2-3.1 25.8-.6 5.4-1.4 10.8-1.6 16.2-.1 1.6 1.6 3.3 2.5 4.9.3.6 1.3 1.1 1.2 1.5-1.9 10.4 2.6 20.7.8 31-.5 2.5-1.6 5-2.4 7.4 0 0 .1-.1.1-.1-1.4-6 .2-12.4-1-18.6"/><path d="m348 353c.4 7.8.8 15.6 1.3 23.3-2.2-7.7-3.8-15.4-1.3-23.3"/><path d="m347 336c0 1.5 0 3.1 0 4.6 0 2.3 0 4.5 0 6.8-.5 0-1 0-1.5-.1.5-3.8 1-7.6 1.5-11.3"/><path d="m346 318c0 2.3 0 4.6.1 7 0 1.5 0 3 0 4.4-.5 0-1 0-1.5-.1.4-3.8.9-7.6 1.4-11.3"/><path d="m345 302c0 2.3.1 4.6.1 7 0 .2 0 .4-.1.6-.1.2-.2.3-.2.5-.3-2.8-.6-5.6-.8-8.4.3.1.7.2 1 .3"/></g><path d="m360 425c3.8 7.5 3.4 8.4-4.6 10.5 0 0 .1-.2.1-.2-3.8-5.4-2-9.7 4.5-10.3" style="fill:#ebe5ee"/><path d="m360 425c-4.5 2.1-7.9 4.7-4.5 10.2-3.7-3-3.6-10.4.2-13.7 2.4-.1 6.4-2.2 4.3 3.5" style="fill:#837f94"/><path d="m367 421c.2 2.5.4 4.9.6 7.4-.6.1-1.1.1-1.7.2-.3-2.5-.7-4.9-1-7.4.8 0 1.4-.1 2.1-.2" style="fill:#ccc5c6"/><path d="m389 421c-1 1-2 2-3.1 3-.4-.9-.8-1.8-1.2-2.7 1.5-.1 2.9-.1 4.3-.3" style="fill:#786a76"/><path d="m293 317c1.3 18.8 2.5 37.6 3.8 56 .1 2.1 0 4.3 0 6.4-8.9 4.8-18 7.4-28 3.5-3-1.2-6.6 0-9.5-1.9-1.6-1.8-2.4-4-2.5-6.4-.4-12.8-1.8-25.5-2.6-38-.6-11.2-2.2-22.3-2.3-33.6 0-4-3.8-5.1-5.7-7.6-1.5-1.9-5.1-2.9-3.9-5.8 1.1-2.7 4.4-1.6 6.8-2 9.1-.6 18.2 1.3 27.3 1.3 2.8 0 5.4.9 7 3.4 1.9 4.3 1.1 8.8 1 13.2-.2 5 .4 8.9 6.5 9.4.9.3 1.7 1 2.2 1.9" style="fill:#c1acb5"/><path d="m332 523c2.8 7.7 5.6 15.5 8.4 23-.9-.5-2.3-.7-2.6-1.5-2.8-6.1-5.4-12.3-8-18.4-4.2-1.3-8.4.3-12.6 0-2.5-.1-3.3 2.4-4.3 4.3-2.5 4.8-4.7 9.9-8 14.3-1.1 1-2.2 2.4-4 1.5-1.7-.9-1.4-2.6-.9-4.1.5-1.7.8-3.4 1.4-5 .9-1.5 3-1.9 3.6-3.8 1.7-3.7 1.8-7.5.9-11.4-1-4.3-3.9-7.9-4-10.5.6 2 1.4 6 2.1 10 .1.9.1 1.7.1 2.6-1.3 4.2.3 9-2.5 12.9-3.1.6-3-1.7-3.2-3.6-1-8.8-2.8-17.2-9.8-23.5-1.8-1.6-2.2-4-2.4-6.4-.4-3.7-.9-7.3-3-10.5-.9-1.4-1-2.9-.8-4.5.6-4.8-1.1-9.2-1.8-13.7-1.1-7.5-5.3-14.7-2.3-22.7 6.2-1.5 8.2-6.3 9.7-11.8 2.4-8.9 1.1-18 2.3-27-4.1-2.8-1.8-6.6-1.6-10 .1-1.3.3-2.7 1.9-3.4 2.8.7.2 3.6 1.9 4.7.8 1.9 2.2 3.8 2.2 5.7.2 10 .1 20 .1 30 0 7 0 14 0 21 0 1.5-.2 4.1.5 4.4 5.4 2.8 3.8 7.6 4.3 12 .1 1 2.2 1.9 3.4 2.8 5.7.6 7.1 5.3 9 9.5.9 2 .8 4.2 1.5 6.2.8 5.7.4 11.5.4 17.2 0 2.7.1 5.1 3.6 5.4 4.6 1.8 10.2.6 14.5 4.1" style="fill:#241613"/><path d="m292 404c-.7-1.2-1.4-2.3-2-3.3-.5 3.1-2.6 7.5-1.2 9.2 3.9 5 1.9 10.2 1.8 15-.2 6.7-1.9 13.3-3.2 19.9-1 5.2-4 7.9-9.5 7.1-5.8 2-8.1.6-7.8-5.3.2-3.8 0-7.7.5-11.5 1.4-5.8.8-11.9 2.2-16.6.1-1.9-1.2-1.3-.4-1.4.2 0 .3.2.2.5-.1 1.3.7 3-.8 3.7-1.5.7-2.5-.8-3.3-1.7-3.4-4.2-10.2-6.7-7.2-14 .2-.9-1.3.1-.5-.1.2 0 .2.2.2.6-.2 1 .4 2.4-1.4 2.7-3.9-5.6-1.6-12.4-3.2-18.4-.6-2.2-.2-4.6.1-6.9.4-1.3.6-2.9 2.6-2.8 7.9.7 15.7 2 23.6 2 4.7 0 9.3-2.1 14-3.3.3 4.2 1.6 8.6.8 12.6-.9 4-3.6 7.9-5.5 11.9" style="fill:#3f2f33"/><path d="m312 230c-1.7 6.6-3.8 13-5.1 19.8-.6 3.1.3 6.5.6 9.7 0 .7 0 1.5 0 2.2-1.4 4.6-.6 9.1-.1 13.7.6 6.3 1.2 12.7 1.3 19-.8.4-1.6.7-2.3 1.1-8 .5-15.7-1.5-23.5-3.2-2.2-3.4-.5-6.9-.1-10.2 1.2-9.1 3-18-.9-26.9-.6-1.4-.7-3.1-.3-4.6 2.1-7.9 2.6-16 5.8-23.7 1.5-3.1 2.2-6.4 3.8-9.4.8-1.5.9-3.9 3.5-3.8.6 1 1.3 2 1.8 3 .3.5.4 1.6.5 1.6 4.7-.7 4.4 2.5 5 5.7 1 5.2 4.3 5.9 8.6 2.5.4 1.1.9 2.3 1.4 3.5" style="fill:#bb9d8e"/><path d="m332 523c-5-.9-10-1.8-15-2.7-.1-.6 0-1.4.5-1.5 6.5-2.3 7.1-7.4 7.6-13.4.7-8.2 2.3-16.4 4.6-24.5.6-2.3 1.7-4.4 3.3-6 1.8-1.7 1.7-3.7 1.5-5.8 5.1-.8 10-1.6 15.2-2.4.8 7.8 1.6 15.6 2.5 23.4-1-.8-2.1-1.7-3.1-2.5-.6 1.1-1.2 2.2-1.7 3.4-2.1 5-4.3 10-6.2 15-1.6 4.2-2.7 8.7-4.6 12.8-.7 1.7-2.9 2.8-4.5 4.1" style="fill:#c0b2bb"/><path d="m335 469c.6 1.4 2.1 3.7 1.8 3.9-7.8 6.8-6.1 16.9-8.8 25.5-.7 2.4-1.4 5-1.1 7.4.7 7.5-1.6 12.7-9.4 14.5-3.9.5-5.3-.8-5-5 .5-6.4.1-12.8.1-19-1-2.4.3-2.9 2.4-3.3.7-.1 1.6 2.5 1.4.1-.7-8.3.5-16 5.7-22.8 4.3-.3 8.6-.7 12.9-1.1" style="fill:#b9a4aa"/><path d="m306 301c0 .4 0 .8 0 1.2 0 4.3 1.5 9.9-.6 12.3-1.8 2.1-7.8.4-12 .4-2.7 1-5.2-.7-7.9-.7-2.1 0-1.8-1.7-1.9-3-.5-5.4 0-10.8-.2-16.2-.1-2.8 1.6-3.3 3.7-2.9 5.1.8 10.3 1.8 15.4 2.5 4 .6 2.7 4.1 3.5 6.4" style="fill:#b89888"/><path d="m322 470c-2 8.3-4 16.5-6 24.5-.6.2-2.1.8-3.5 1.3-1.7-6-3.1-12.2-9.2-15.5-1.8-10.8-1.8-10.8 8.9-10.5 3.3.1 6.5.2 9.8.2" style="fill:#b29797"/><path d="m306 301c-.3-4.6-3-6-7.3-6.2-3.1-.1-6.3-.4-9.1-1.4-5.3-1.9-6 .6-5.6 4.9.1 1.3 0 2.7 0 4.1 0 10 0 10 9.3 12.6-.1.5-.2 1-.3 1.5-10.2-1.5-10.2-1.5-10.3-11.8 0-3.9 0-7.8 0-11.7-.5-.7-.4-1.3.4-1.7 7.7 1.2 15.4 2.5 23 3.7 0 2-.1 4-.2 6" style="fill:#70544b"/><path d="m309 294c-.9-10.2-1.9-20.3-2.7-30.5-.1-.7 1-1.5 1.5-2.2.9 10.8 1.8 21.6 2.6 32.4-.5.1-.9.2-1.4.3" style="fill:#75594e"/><path d="m304 544c2.7-5.1 5.7-10 8-15.3 1.4-3.2 3.5-4.4 6.6-4.1 3.7.4 7.4 1.2 11.2 1.8-6.1-1.1-8.6 4.5-11 7.7-1.6 2.2 1.6 7.7 1.9 11.8.2 3.4-.6 7-1.1 10.5-.5 3.8-1.1 7.6-1.8 11.4-.4 1.9-1.3 3.6-2 5.4 3 .8 5.9 1.8 8.9 2.3 2.1.4 4.2.1 6.4 1.4-5.1 0-10.2 0-15.3 0 0 .3 0 .6-.1.9 6.9.9 13.7 1.8 21.5 2.8-6.2 4.6-13 3.3-19 4.3-5.1-.6-10-.9-13.5 4-3.7 1.8-6.3-1.6-9.6-1.9-.9-.2-1.7-.5-2-1.5 2-5.2 3.9-10.5 7.1-15 1.5-2.1 2.2-4.1 1.5-6.5-2.3-7-1.7-13.7 2.5-19.9" style="fill:#463a40"/><path d="m304 588c3.5-5.9 8.5-5.8 14-3.6-3 .5-6 1-9.1 1.6 0 .2 0 .4 0 .6 4.9 0 9.9 0 14.8 0 .1.3.1.6.2.9-1.6.5-3.2.9-4.9 1.4 0 .3 0 .5 0 .8 3.6.6 7.1 1.2 10.7 1.7-.4.1-.7.2-1.1.3-7.6 0-15.3 2.3-22.7-.9-.6-.2-1.2-.5-1.6-1-.5-.6-.6-1.2-.3-1.8" style="fill:#3a2c26"/><path d="m340 553c-.5 5.3-.9 9.9-1.3 14-2.8-1.7-2.8-6.5 1.3-14" style="fill:#8fa3be"/><path d="m336 742c2.2 5.1 7 6.1 11.6 7.3-4.3 4.3-10.2 5.9-15.2 8.8-2.1 1.3-4.5-.5-6.3-2-1.1-.9-2.3-1.9-2.9-3.3-1.8-5.1-2.7-10.4-3.5-15.7-.5-3.1-1.6-5.5-4.8-6.5-.3-.3-.4-.6-.3-1 0-.4.1-.5.2-.5.9-10.9 8.4-13.5 17.6-14 .4 0 .8 0 1.2.1.3 9-2.2 18.3 2.4 26.9" style="fill:#77707c"/><path d="m314 730c.1.4.2.9.3 1.3.9.8 1.3 2 1.2 3.1-1.1 8 2.5 14 8 19 .8.7 1.5 1.5 2.3 2.2.1 4.1 1.3 8 1.5 12 .1 2.1.3 4.5-1.7 5.8-2.4 1.6-4.3-.3-6.4-1.2-.9-.4-1.4-2.5-2.9-.9-2.3.3-3.1-1-3.2-3 0-.3-.1-.6-.1-1-.8-.7-1.2-1.9-2.4-2.3-1.7-4.9-5-3.5-8.2-2.1-2.6 1.5-4.2 3.6-4.3 6.7-1.2.4-2.4.7-3.6 1.1-.3-.2-.5-.4-.4-.6.1-.3.1-.4.2-.4.3-.8.7-1.7 1-2.5-.9-6.2 1.1-10.3 6.3-12 1.7-.6 3.3-1.1 4.2-2.8-.1-1.3 0-2.6-.3-3.8-.1-.5-1.2-.7-1.8-1-1-1.2-1-2.3 0-3.5.4-.8.9-1.6 1.3-2.4-.2-3.5-3.2-7-.1-10.5.5-5.3 2.5-5.5 9.1-1.3" style="fill:#463a3f"/><path d="m305 731c0 3.5 0 7 .1 10.5-5.3-3.5-9-2.9-12.6 1.8-.8 1-1.7 1.9-2.6 2.8-8.3-7.6-7.8-12.6 1.3-19.9 1.6-1.3 1.5-4.6 2.2-7 1.2-.1.6 6.1 3.6.9.5-.8 5.3.9 8.1 1.4-.1 3.2-.1 6.3-.1 9.5" style="fill:#36201b"/><path d="m303 710c-.4-2.2-.7-4.5-1.1-6.7.6-.1 1.1-.2 1.7-.3.3 1.8.6 3.7.9 5.5-.5.5-1 1-1.5 1.5" style="fill:#918588"/><path d="m288 701c-.1 1-.2 2-.4 3-1.2 1.3-2 .7-2.6-.5-7-15.9-14-31.7-21.4-47-1.1-2.2-1-4.5-.1-6.7 2.6-3.6 5.2-7.3 7.7-11 1.3-1.9 2.7-3.9 5.5-3.6 5.5 2.8 10.8 6.2 16.3 9.1 4 2.1 5.6 5.1 4.2 9.6-.9 3-1.6 6-2.5 9-3.2 10.2-6.2 20.4-5.2 31.4.2 2.4.4 5-1.5 7.1" style="fill:#e0c9ca"/><path d="m288 701c-.3-16 1.6-31.9 7.5-47 1.7-4.4.5-7-3.7-9.2-5.4-2.9-10.5-6.4-15.7-9.7-1.4-3.9 1.2-6.3 3.6-8.2 2.2-1.7 4.3.7 6.2 1.8 1.6 1 3 2.5 5 2.7 2.7.7 5.4 1.7 8.1 2.5 1.9.5 4.2.9 4.3 3.7-1 3.5-3.9 7.1 1 10.2.3.2-.6 2.7-1.2 4.1-2.7 6-5.7 11.9-8.2 18-4.5 11-5.6 22.5-3.5 34-.3.4-.6.4-.9 0-.9-1-1.7-2.1-2.5-3.2" style="fill:#ae9592"/><path d="m322 619c-1.2 1.5-2.4 3-3.6 4.6 0 .3 0 .5 0 .8 0 .8-.1 1.6-.1 2.4.5.3 1.1.7 1.6 1-3.6 2.8-7.3 5.6-10.9 8.4-1.1-.1-2.3-.1-3.4-.2-3.3-.4-6.4-1.5-9.4-2.9-.3-.3-.5-.9-.3-1 2.4-1.4 4.5-3.1 5.1-6.1 2 0 3.7 1 5.5 1.2-2.3-.9-5.2-.9-7.2-2.8 1-3.7 1-7.5 1.5-11.2 1.2-2.5-1-3-2.3-4-.5-.3-.9-.6-1.3-1-.9-1.1-2-2.1-1.1-3.7.5-.3 1.1-.4 1.6-.5 5.1 1.7 10 3.9 15.6 4.6 3.1 2.3 2.7 5 .8 7.9-.7-.4.2.1-.5.2-.4.1-.3.3.2.4 3 .1 6-.6 8.2 1.9" style="fill:#bb9e94"/><path d="m264 649c-.1 1.8-.8 3.9-.2 5.4 7 16 14.2 32 21.4 47.9.2.5 1.2.7 1.9 1 .4 2 .8 4.1 1.2 6.1-3.2-5.7-6.6-11.2-9.4-17-5.6-11.7-10.8-23.5-16-35.4-1-2.2-.9-4.8-1.4-7.3.2-1.5.5-2.9 2.6-2.3.2.5.2 1.1-.1 1.6" style="fill:#716075"/><path d="m290 704c.3 0 .6 0 .9 0 .4.1.9.3 1.3.4 6-.7 5.7 2.9 4.6 6.9-.9 1.2-1.7 3.6-3.3.5-1.2-2.6-2.3-5.2-3.5-7.8" style="fill:#9685aa"/><path d="m296 632c3.1 1.2 6.3 2.3 9.4 3.5-.7.5-1.5 1-2.2 1.5-4.4-1.7-8.8-3.3-13-5-.3-.6-.2-1.1.4-1.5 2.2-1 4.1-.7 5.5 1.5" style="fill:#644842"/><path d="m297 711c.3-3.6-.2-6.5-4.6-6.9 1.7-.2 3.4-.3 5.1-.5-.2 2.5-.4 5-.5 7.4" style="fill:#ae9592"/><path d="m318 624c0-.3 0-.5 0-.8 6.9-.5 13.9-1 20.8-1.5-.3 0-.6.2-.8.3-6.6 2.1-13 4.6-20 2" style="fill:#7b6a68"/><path d="m317 771c1.8.4 3.9.5 5.5 1.3 2.9 1.5 4.1.6 3.9-2.3-.2-4-.9-7.9-1.2-11.9-.1-.8.8-1.6 1.2-2.4 3.4 3.1 6.3 2.3 9.8-.2 3.4-2.4 7.5-3.7 11.4-5.5.7.4 1.4.8 2.1 1.2-1.2 5.8 3.5 6.1 6.9 7.3 4.9 1.6 9.2 3.6 8.7 9.7-.1 1-1.8 1.9-2.7 2.9-3.7-.9-7.6-1.4-11-2.7-6.5-2.5-9.1 1.2-11.2 6.2.4.5.4 1.1 0 1.6-4.1 4.6-9 2-13.7 1.6-3.5-1.7-8.2-1.9-9.6-6.8" style="fill:#312a2e"/><g style="fill:#35323c"><path d="m279 159c-.1-1.8-.2-3.6-.2-5.4 0-2.5.2-5.1.2-7.6.2-4.4 2-8.5 2.4-12.8.2-2.5.4-4.9-1.2-7.1 2.6-1.2 5.3-2.2 7.8-3.6 1.8-1 3.2-2.6 4.9-4 1.9 4.3 3.6 9.8 6.7 14.4 6.1 8.9 4.9 18.2 3.3 27.9-.6 3.6-.2 7.4-.3 11-.4.8-.9 1.5-1.3 2.3-2.8 4.5-7.7 6.4-11.9 9-1.9 1.2-4 .8-4.8-1.5-2.3-6.8-5.1-13.5-6.3-20.6-.3-.8.2-1.5.7-2.1"/><path d="m305 136c.5 1.5 1.1 3 1.6 4.5-.5-1.5-1-3-1.6-4.5"/></g><path d="m295 213c-2 4.3-4.1 8.6-6.1 12.9-.6.2-1 .1-1.2-.5-.2-2.3.8-4.2 1.4-6.3 2.2-4 2.2-9.3 6.5-12.2.3.1.5.2.8.3-.5 2-1 3.9-1.4 5.8" style="fill:#705a5b"/><path d="m299 199c0 .5.1 1 .1 1.4-1.1 2.3-2.3 4.7-3.4 7 0 0-.3-.3-.3-.3-1.4-3.8-.1-6.5 3.6-8.1" style="fill:#6f5e63"/><path d="m317 184c1.3 1.3 2.6 2.7 3.9 4-1.3-1.3-2.6-2.7-3.9-4" style="fill:#efe6e6"/><path d="m299 199c-1.2 2.7-2.4 5.5-3.6 8.2-2 4.3-3.9 8.6-5.9 12.9-2.6-.1-3.5 2.1-5.1 3.4-1.6 1.2-3.8.6-3-1.3 3-7.5-2-13.2-4.3-19-2.1-5.4-3.1-10.7-2.9-16.4.1-2.7.9-5.8-.7-8-2.1-2.9-4.1 2.6-6.5.6 3.2-6.3 6.4-12.7 9.8-19 .4-.8 1.6-1.3 2.4-1.9 2.1 7 4.1 14 6.2 21 .8 2.6 1.8 3.5 4.4 1.5 3.7-2.7 7.8-5 11.7-7.5 6.5 4.4 5.8 9.6 1.9 15.5-2 3.1-3 6.8-4.4 10" style="fill:#c9c1cc"/><path d="m313 616c-.1-2.4-.2-4.8-.3-7.2-.4-1.2-.2-2.3.2-3.4 1.7-4.6.2-7.2-4.5-8.6-1.9-.5-5.6-.4-4.2-4.4.7-.3 1.5-.7 2.2-.4 7.1 2.4 14.2 4.8 21.8 4.8-2.6 1-3.1 2.6-1.7 5.1 1.2 2 2 4.3 3 6.4.2.2.3.4.2.6-.1.2-.2.3-.3.3-5.1 2.4-2.3 4.8 0 7.2-5.5 3.1-10.9 2.1-16.4-.4" style="fill:#c3afaa"/><path d="m329 597c-8.7 1.8-16.5-2.3-24.7-3.9-.3-.1-.5-.2-.8-.2-1-.8-2.2-1.7-1.4-3.1.5-1 1.5-.8 2.3-.2h-.1c3.3 2.3 7.5 2.3 10.8 4.5 6.9.4 13.8.9 20.5 1.3-1.9.5-4.2 1-6.6 1.6" style="fill:#776160"/><path d="m313 616c5.5.1 11 .2 16.5.3 2.4-.2 4.7-.4 7.1-.6.1.5.1 1 .2 1.5-5.2.5-10.3 1.1-15.5 1.6-4.2-.6-8.4-1.2-12.6-1.8.1-.5.1-1 .2-1.5 1.3.3 2.7.4 4.1.5" style="fill:#776361"/><path d="m315 594c-3.6-1.5-7.2-3-10.8-4.5 8.2.9 16.4 1.7 24.6 2.6-4.6.6-9.2 1.2-13.8 1.9" style="fill:#ac9387"/><path d="m330 609c-.1-.3 0-.6.1-.9 3-.4 6.1-.8 9.1-1.2.1.5.1.9.2 1.4-3.1.2-6.3.4-9.4.7" style="fill:#6c5d5e"/><path d="m317 771c3.2 1.8 6.4 3.7 9.6 5.5 4.4 2.1 8 5.3 12 8 5.7 3.8 11.6 6.3 18.6 3 1.7-.8 3.7-1.3 5.7-.5.7 2.4 1.4 4.9 2 7.3-1.8.4-3.6 1.3-5.3 1.2-6.4-.1-12.7-.6-19-.9-4.6.8-8.4-.7-11.5-4.2-2.4-2.8-5.2-5.2-9-6.1-3.2-.2-6.9 1-8.8-3 0 0 .1.1.1.1.8-4.4 1.6-8.7 2.4-13 1 .9 2.2 1.8 3.3 2.7" style="fill:#e4d2d4"/><path d="m363 787c-10.2 5.3-19.5 4.2-28-3.6-2.6-2.4-5.5-4.6-8.2-6.9 4.6-.3 9.3-.6 13.9-.9 5.3 1.1 10.3 2.8 15 5.3 1.9 2.5 4.9 3.4 7.1 5.5-.1.2 0 .4.1.6" style="fill:#b7a9af"/><path d="m320 784c2.6 1.5 5.8 2.4 7.6 4.5 3.4 4 7.4 5.7 12.4 6.2 0 .2 0 .4 0 .7-5 .9-8.9-.7-12.4-4.5-2.1-2.3-5-4-7.5-6-.4-.2-.5-.3-.4-.6.1-.1.2-.3.3-.3" style="fill:#8c7488"/><path d="m355 781c-4.9-2-9.9-4-14.8-5.9 0-.4-.1-.7-.1-1.1 5.5 2.3 11 4.6 16.5 6.9-.5.5-1.1.5-1.6.1" style="fill:#5d555c"/><path d="m355 781c.5 0 1-.1 1.5-.1 1.9 1.7 3.9 3.3 5.8 5-2.4-1.6-4.9-3.3-7.3-4.9" style="fill:#575251"/><path d="m368 774c.5 1.5 1.1 3 1.6 4.5-1-1.8-2-3.5-3-5.3.5.2.9.5 1.4.8" style="fill:#ced8ed"/><path d="m320 784c0 .3 0 .6.1.9-3.2-.9-8.1 2.6-9.4-3.5 3.1.9 6.2 1.8 9.3 2.6" style="fill:#725b60"/><path d="m295 769c.1.3.1.7.2 1 1.3 3.7 2.7 7.5 4 11-1.3.1-3.9.4-6.4.7-.8-.3-1.7-.6-2.5-.9-.9-1.5-2.6-2.8-1.2-4.8.2-4.4.4-8.7.7-14.5 2.4 3.3 3.8 5.4 5.2 7.4" style="fill:#968286"/><path d="m298 769c-2.4-4.7-.8-6.8 4.3-6.7 2.6 5.4 1.8 6.5-4.3 6.7" style="fill:#e2c4cb"/><path d="m306 770c-1.7.5-3.5 1.1-5.6 1.7 2.5-2.7 4.6-5 6.7-7.2 1.8 2.3.4 3.9-1.1 5.5" style="fill:#d8c4c2"/><path d="m306 770c.4-1.8.7-3.6 1.1-5.5.6.6 1.9 1.7 1.8 1.9-.8 1.3-1.9 2.4-2.9 3.6" style="fill:#463a3f"/><path d="m311 765c.8.8 1.6 1.5 2.4 2.3-.8-.8-1.6-1.6-2.4-2.3" style="fill:#312a2e"/><path d="m306 752c-.3 1.7 2 5-2.9 3.8-2.5-.6-5.2.4-5.4 4.2-.2 2.3-1.4 4.6-2.2 6.9-1.1-3-2.9-6-2.9-9.1 0-1.2 3.9-2.6 6.2-3.6 2.4-.9 4.8-1.5 7.2-2.2" style="fill:#a1898d"/><path d="m304 744c0 1.2 0 2.3 0 3.5-1.8 1-3.9 3.3-5.2 2.8-2-.7-3.4-3.1-5-4.8 2.1-1.3 4.1-3 6.3-3.7 1-.2 2.6 1.5 3.9 2.2" style="fill:#a88c93"/><path d="m289 777c.4 1.6.8 3.2 1.2 4.8-.7-1.6-1.4-3.3-2.2-4.9.3 0 .6 0 1 .1" style="fill:#5d4244"/><path d="m173 693c-.8-.3-1.5-.7-2.3-1 .1-.2.3-.3.4-.5.6-6.7.4-13.4 1.6-20 .4-2 0-4.3 2.1-5.7 1.1-.2 1.9.5 2.5 1.3 1.4 4.8-.7 9.3-1.2 14-.2 3.6-.4 7.3-1.8 10.7-.3.5-.8.9-1.3 1.2" style="fill:#7f6460"/><path d="m175 694c-.3 0-.7.1-1 .3-.5-.4-.9-.7-1.4-1.1 0 0 .4-.2.4-.2 1.1-.8-.7-4.2 2.6-3.2.8 1.5.8 3-.6 4.2" style="fill:#a48180"/><path d="m175 666c-1.1 7.5-2.1 15-3.2 22.6-.2 1.1-.7 2.1-1 3.1-2.5-13.7-5.1-27.3-7.5-41-.3-1.8-.1-3.8-.1-5.7.2-.3.4-.6.5-.9 8 .7 12.8 6 13 14.4-.3 2.6.6 5.5-1.8 7.5" style="fill:#d9bdbe"/><path d="m168 629c.7-1.2 1.5-2.4 2.2-3.5.9-.5 1.6 0 2.3.5 4.2 4.3 9.1 7.2 15 8 8.2 2 16.6 2.6 25 1.9 2.2-.2 4.6-.5 6.8.6 3.7 4-.6 4.7-2.6 6.4-9.5.8-19 1.1-28.4-.4-4-.6-7.3-2.6-10.6-4.5-.5-.3-1-.6-1.5-.9-2.8-2.9-6.5-4.6-8.3-8.1" style="fill:#a6816e"/><path d="m170 608c5 3.2 10 6.5 15 9.7.2 3.1-2.2 3.5-4.4 4.1-2.5.3-3.5-2.1-5.4-2.8-.7-.5-.5.8-.3 0 .1-.1.3-.1.5.2 1.3 1.5 5.6 2.5.8 4.9-1.1-.1-2.3-.1-2.4-1.6-2.8-3.2-7.4-5.5-6.2-10.9.4-1.3 1.6-2.4 2.3-3.6" style="fill:#e3bca2"/><path d="m174 622c.6.2 1.2.4 1.7.6.6.2.8.6.7 1.2-.5 1.3-1.4 2.3-2.7 2.9-.8.3-1.6.1-2.3-.4-.5-.4-1-.9-1.5-1.3-1.1-1.6-2.1-3.2-4.1-6.2 3.8 1.5 6 2.3 8.2 3.2" style="fill:#dbb7ab"/><path d="m168 629c2.7 2.3 5.4 4.7 8.2 7-4.2 1.3-6.1-1.6-8-4.4 0 0-.2-.3-.2-.3-.1-.8-.1-1.6 0-2.3" style="fill:#5e4649"/><path d="m168 632c2.7 1.5 5.3 3 8 4.4 2.4 1.4 3.3 3.3 3 6.2-.4 4.3-1.4 8.4-1.6 12.7-.1 1.5-.3 3.2-2.4 3.4 1-8.7-6.6-10.3-11.7-13.9 1.6-4.2 3.2-8.5 4.7-12.8" style="fill:#a5817e"/><path d="m183 269c6.7-2.5 13.5-5 20-7.6 2.8-1.1 4-.4 4.1 2.6.4 8.1 1 16.2 1.1 24.4 0 1.2-1.8 3.3-3.1 3.6-7.5 1.9-15 3.3-22.7 4.9.2-9.3.3-18.6.4-27.9" style="fill:#ab8069"/><path d="m175 487c.4-.1.8-.1 1.2-.2.6.5 1 1 1.2 1.7-.1 12.3-1.5 24.6-2 36.9-.1 1.8-.7 3.4-2.3 4.5 0 0-.2.2-.2.2-.4-2.4-1.3-4.7-1.2-7 .6-11 1.5-22 2.4-33.4-.1-.9.5-1.8.9-2.7" style="fill:#675e6e"/><path d="m177 489c-.1-.5-.2-.9-.2-1.4.4-9.1.8-9.7 9.9-10.2 6.1-.4 2.9-4.4 3.3-7.1 15 3 30 4.5 45.6 2.7 3.5-.4 7-.3 10.4-.5 1.3 6.8-.7 11.3-7 12.2-9.3 1.3-12.5 6.6-13.7 15-1.1 7.9-3.2 15.7-5.2 23.4-.7 2.9-1.6 5.7-4.3 7.4-8.3 5.5-16.6 10.9-25 16.2-1 .6-2.1 1-3.3.4-.4 0-.8-.1-1.2-.1-1.8-2.5-.4-4.9.4-7.2 3.3-9.6 7.6-18.7 12-27.8 3.1-6.2 2.7-7.6-3.3-11.2-4.3-2.6-8.9-4.7-13.2-7.4-2.2-1.1-4.3-2.2-5.3-4.5" style="fill:#a68382"/><path d="m167 433c1.8.3 3.7.6 5.5.9 1.5-.4 1.8.3 1.5 1.6-.5 1.8-.9 3.7-1.4 5.5 0 .3 0 .5 0 .8-3.6 2.9-3.8 2.8-5.1-2.2 0 4.5 6.7 7.2 3.5 12.5-.2.2-.4.4-.6.6-3 2.3-5.9 4.6-8.8 6.9-2-4.6 1.5-23 5.4-26.6" style="fill:#a48383"/><path d="m167 462c-.4 2.8-1.9 6-1 8.3 1.8 4.6-.8 6.2-3.7 8.1-1.2-1.9-3.6-4.2-3.2-5.7 1-4.2 3.2-8.1 5.1-12 .3-.6 1.4-.9 2.2-1.3.2.8.3 1.7.6 2.6" style="fill:#a28386"/><path d="m177 467c.9-.2 2-.2 2.7-.7 5.1-3.7 6.9-.9 7.9 3.9.1 1.8.2 3.6.3 5.4-1.8-.1-3.9.3-5.4-.4-1.9-1-3.2-3-4.8-4.5 1.1-.4 2.2-.9 3.8-1.5-1.6-.9-3.1-1.5-4.5-2.2" style="fill:#a7857f"/><path d="m181 452c3.5 8.9 3.2 9.6-4.7 10.7-5-6.4-.1-8.5 4.7-10.7" style="fill:#a68380"/><path d="m181 451c-2.7.4-5.5.8-8.2 1.1-.2-.2-.5-.4-.7-.6-1.9-6.7-.2-8.9 7.1-8.5.6.2 1.1.5 1.6 1 1.8 2.3 2.1 4.6.2 7" style="fill:#a18487"/><path d="m174 477c.4 6.2-3.4 7.3-8.7 7 1.1-1.3 2-2.4 2.9-3.5.8-1.7 1.7-3.5 2.6-5.5.7.5 1.9 1.3 3.2 2" style="fill:#9d8588"/><path d="m156 463c1.2-1.7 2.1-2.9 2.9-4.2.6 1.7 1.5 3.3 1.5 5 0 1.2-1 2.5-1.6 3.7-.8-1.3-1.7-2.8-2.8-4.5" style="fill:#a58680"/><path d="m170 461c.6-2.1.9-3 1.2-4 1.4 2.3 2.8 4.6 4 7 .1.3-1 1.2-1.5 1.9-1.3-1.7-2.6-3.5-3.7-4.9" style="fill:#807782"/><path d="m163 483c-1.8 1.2-2.8 2.5-3.7 2.4-1.3-.1-2.5-1.3-3.7-2 1.2-.8 2.3-2 3.6-2.3.9-.2 2.1.9 3.8 1.9" style="fill:#9d8382"/><path d="m168 480c-2-.8-3.9-1.6-5.9-2.3 1.6 1.6 6.2-4.2 5.9 2.3" style="fill:#aa8882"/><path d="m168 472c.2-1.6.3-3.2.6-4.7 0-.1 1.4.1 2.1.1-.5 1.6-.9 3.2-1.4 4.9-.4-.1-.9-.2-1.3-.3" style="fill:#a18a89"/><path d="m167 462c.8-.1 1.7-.2 2.5-.2-.2 1.5-.4 2.9-.6 4.4-.5 0-.9.1-1.4.1-.1-1.5-.3-2.9-.5-4.3" style="fill:#a28386"/><path d="m176 473c-1.2-.6-2.4-1.1-3.6-1.7.4-.5 1-1.4 1.2-1.3 1.1.5 2.1 1.2 3.1 1.8-.2.4-.4.8-.7 1.2" style="fill:#a28587"/><path d="m173 452c-1 1.2-2.1 2.3-3.1 3.5.3-1.2.5-2.3.8-3.5.7-.7 1.5-.7 2.3 0" style="fill:#9a8686"/><path d="m174 477c.5-.4 1-.8 1.5-1.2.2.8.3 1.7.5 2.5-.7-.4-1.4-.9-2-1.3" style="fill:#967779"/><path d="m187 547c8.8-5.7 17.7-11.3 26.3-17.3 2.1-1.5 3.9-4.2 4.6-6.7 2.7-10.5 5.2-21 7.3-31.8.7-3.7 2.3-5.5 5.7-6.1 1-.2 1.9-.7 2.8-.8 7.8-.3 11.3-4.7 11.8-12 1.2-2.1 3.3-4.2 3.3-6.4 0-9.3-.7-18.6-.9-27.8-.1-2.2.7-4.5 1.1-6.8.2-1.4.7-2.6 1.6-3.7 4.7-5.4 8.9-11 9.9-18.3.2-1.6.4-3.2.6-4.9-1.6 9 7.4 10.9 11 17.8.3-2.9.4-4.5.6-6 .5.1.9.1 1.4.2-.6 6.2-1.1 12.3-1.7 18.5-6.4.1-6.8.6-6.3 7.1.1 1.8.7 3.7-.6 5-6.4 6.4-6.1 15.3-9.1 23-.8 2.2-1 4.9-2.8 6.3-5.8 4.7-4.6 10.7-3.1 16.6.9 3.7.5 5.9-2.5 8.6-6 5.3-9.8 11.9-7.1 20.4.5 1.6.9 3-1 4-2.9.7-4.3 2.6-5.3 5.4-2.1 5.9-3.6 11.9-3.2 18.3-1.6-.8-3.5-1.3-4.6-2.5-3.1-3.4-5.8-7.2-8.9-10.6-.6-.6-2.9-.3-4 .4-6.7 4-13 8.3-19.8 12.2-1.4.8-3.4.4-5.1.6-.8-1-1.4-1.8-2-2.6" style="fill:#231511"/><path d="m174 627c.7-.8 1.5-1.7 2.2-2.5 6.1-2 11.4 3.1 16.9 1.7-4.5.3-9.2-.2-12-5 1.5-1.1 3-2.3 4.4-3.4 4.5.5 10-4.9 11-11.6.8-5.3-4.8-3.5-7.2-5.3-.1-.3-.1-.5-.1-.8 0-.4 0-.9 0-1.3 4.5-.7 8.2 2.5 12.6 2.2 6.2 1.6 12.6.1 16.7.7-3.1-.2-8.3.2-13.6-.1-.8-.3-.9-.8-.5-1.5 6.2-.4 12.4-.6 18.6-1.2 3.4-.3 6.6-1.5 6.3-6 .4-.4 1-.7 1.6-.9 6.1 1 7 2.3 4.9 7.4-.8 1.9-.9 3.5-.5 5.6 1.4 7.3-.8 10.2-7.5 12.9-8.5 3.4-17 2.5-22.6 2.4 5.1-.3 13.5 1.5 21.5-2.1 2.6-1.2 4.5-1 4.2 2.7-.1 1.3-.6 3.1.9 3.7 3.6 1.3 3.3 3.7 2.4 6.6-.9 3.3-3.1 4.8-6.4 5-1.2.1-2.3.5-3.4.7-11.6-.3-23 1.1-34.8-1.3-5-1.1-9.8-2.6-13.9-5.9-1-.8-1.9-1.4-1.7-2.7" style="fill:#aa806b"/><path d="m230 593c-.3 0-.6.1-.9.1.8-10.5 1.6-21 2.2-31.6.2-3.9-.2-7.8-.4-11.7-4.1-8.4 1.7-15.5 3.3-23 .2-.8 3.2-.9 4.9-1.3 2.3 2.2 1.6 5 1.8 7.7.8 13.6-1.2 27-1.3 40.6 0 7.4 4.5 11 9.2 15.2 1.3 1.1 2.9.8 4.4.5 2.6 1.5 6.3 1.6 7.4 5.2-7.4 6.3-15.7 11-24.8 14-1.6-3.8-2.6-7.2.2-11.2 1.9-2.8-.6-4.7-6-4.5" style="fill:#707190"/><path d="m188 592c-1.8-.8-3.6-1.6-5.4-2.4 2.4-1 5-2.9 7.3-2.7 3.5.4 6.8 2.4 10 3.7 0 .8 0 1.6.1 2.4.1.7.4 1.3.6 2.1-.6.1-1.9.3-4.3.7 2.4.5 3.6.7 4.8 1 0 .2 0 .4 0 .7-1.6.1-3.1.1-4.7.2-6 2.9-6.1-3.2-8.5-5.7" style="fill:#523a3b"/><path d="m188 592c2.8 1.9 5.6 3.8 8.5 5.6 2.8.8 5.5 1.6 8.3 2.4 0 .3 0 .6 0 .9-.8 1.4-2.5.2-3.4 1.2-4-1.1-7.9-2.2-11.9-3.4-1.2-1.2-2.4-2.3-3.5-3.5.6-1 1.3-2.1 2-3.2" style="fill:#846457"/><path d="m177 489c6.7 3.8 13.5 7.5 20 11.5 6.8 4.1 6.5 4.3 3.3 11.4-4.7 10.4-9 20.9-13.4 31.4-.5 1.2-.6 2.6-.9 3.9-2.6-3.1-5.2-6.3-7.9-9.4-1.5-2.4-3-4.7-4.6-7.1 1.2-13.9 2.3-27.8 3.4-41.7" style="fill:#ddc1c2"/><path d="m215 647c-3.1 14.6-6.2 29-9.4 43.8-.6 2.8.2 4.1 3.2 3.1-4.2 4.5-9.6 6.5-15.5 5.7-5.8-.9-11.5-2.9-17.2-4.5-1.8-6.4-.2-12.6.8-18.9 1.7-10.7 2.4-21.5 4.9-32 1-2.7 3-2.5 5.2-2 8 1.7 16 1.9 24 .9 3-.3 5.6 0 3.8 4" style="fill:#a48180"/><path d="m187 808c.7-1.3 1.5-2.6 2-4 1.2-3.2 2.1-6.5 3.4-9.7.5-1.1 1.8-1.8 2.7-2.7 1.2 1.8 2.6 3.5 2.4 5.8 0 1.1.1 2.2.1 3.3-.1 1.9-.3 3.8-.2 5.7.4 4.5-1.4 6.9-5.9 7.3-1.4-1.8-3-3.7-4.5-5.7" style="fill:#9f817b"/><path d="m183 644c-2.3 16.8-4.6 33.6-6.9 50-.4-.1-.9-.2-1.3-.3 0-1.5 0-3 0-4.5-.8-2.3-.3-4.6-.3-6.8 3-11.2 2.3-23 4.6-34 .4-1.9 0-3.9 1.5-5.5 1.4-.7 2 0 2.4 1" style="fill:#624444"/><path d="m198 798c-.8-1.9-1.6-3.9-2.4-5.8 2.2 1.3 5 2.4 2.4 5.8" style="fill:#695552"/><path d="m236 608c-.8 2.8-1.5 5.7-2.3 8.5-.4 2.3-1.8 6-1 6.6 3.9 2.8 3.6 5.8 2.3 9.6-1.5 4.2-4.7 4.6-8.3 4.7-.5-.2-.9-.6-1.2-1.1 2.7-1.8 5.6-3.3 7.9-5.4.7-.7.1-2.9 0-4.4-1.3.2-2.6.4-4.2.6.4-2.9.8-5.7 1.3-9.4-11.2 5.1-22 3.7-32.8 3 0-.6 0-1.1 0-1.7 2.4.3 4.8.7 7.2.8 2.5.2 5.1.5 7.6.1 5.1-.7 10.3-1.3 15.2-2.9 6.6-2.1 7.9-6.4 5.1-13-.4-.9.2-2.4.8-3.4 3.6-5.9 3.5-6.1-3.2-7.6 1.9 0 3.9-.3 5.6.3.8.3 1.7 3 1.2 3.8-2.2 3.7-1.8 7.3-1.2 11" style="fill:#5d4249"/><path d="m217 642c.8-1.4 1.6-2.9 2.4-4.3 1.7-.9 3.3-1 4.9.1-2.6 3.1-4.5 5.9-3.9 10.6.7 5.7-.5 11.6-1 17.4-.1.8-1.3 1.4-2 2.2.7-6 1.6-12 2-18 .1-1.5-1.3-3.2-2-4.8-1-.9-.9-2-.4-3.1" style="fill:#624444"/><path d="m225 637c-1.6 0-3.3-.1-4.9-.1-11 .3-22 1.8-32.8-2.3.4-.5.9-.5 1.5-.1 12.4.4 24.8.8 37 1.2.4.4.8.7 1.2 1.1-.7 0-1.4.1-2.1.2" style="fill:#5d3522"/><path d="m217 642c.1 1 .3 2.1.4 3.1-.1.6-.2 1.3-.2 1.9-.7 0-1.5 0-2.2 0-1.1-1.1-2.1-3-3.3-3.1-8.4-.6-16.8-.9-25-1.1-1.1 0-2.3 1.1-3.4 1.8-.3-.4-.7-.8-1-1.2-3.1.4-1.9 3-2.3 4.7-1.6 6.6-.6 13.6-3.6 19.9-.4-.4-.8-.9-1.2-1.3.1-2.6.2-5.3.4-7.9.9-6.1 2-12.2 2.7-18.3.1-1.3-1.1-2.7-1.7-4 12.6 7.7 26.7 6 40.6 5.5" style="fill:#65453f"/><path d="m267 179c2.4-1.4 4.7-2.7 7.1-4.1.5 3.1 1.8 6.3 1.5 9.3-1 8.2 1.8 15.6 4.9 22.8 2.2 5.2 6.4 9.9 1.1 15.9 3.8 0 3.3-7.6 8-3.1-.7 2-1.4 4-2.1 6-.2 1.3-1.1 2.1-1.9 3-.9.9-1.7 1.8-2.6 2.7-1.8 1.9-3.7 3.6-5.3 5.6-4 4.8-7.5 9.8-10.7 15-.6.3-1.2.4-1.8.4-1.4-.1-2.6-.5-3.3-1.9-.8-1.9-.8-3.8-.6-5.7.7-11-1.2-22-1.2-33-.3-7.1-2.7-14.3.5-21.3 2-3.8 4.2-7.7 6.4-11.7" style="fill:#c2b4be"/><path d="m281 126c2.7 1 4.2 2.5 3.1 5.7-1.6 4.7-2.8 9.4-4.2 14.2-5.8 2.7-5.5 2.7-5.9-3.6-.5-6.8 1.9-12 7-16.3" style="fill:#474047"/><path d="m261 191c.4 7 .7 14 1.1 21 0 0-.4.4-.4.4s-.6-.1-.5 0c-.5-.3-1 0-1.6.1-.5.1-.8-.1-.9-.5-.4-5.1-.7-10.2-1.1-15.4 1.1-1.9 2.2-3.8 3.4-5.7" style="fill:#877581"/><path d="m220 209c6.4-5 7.3-5.2 11.7 1.6 7.8 11.8 15.2 23.9 22.6 35.9 1 1.5 1.1 3.6 1.6 5.4-.3.4-.8.7-1.3.8-.5-.1-1-.3-1.5-.6-.4-.4-.7-.8-1-1.3-6.3-8.4-13-16.4-21.3-23-1.1-.7-2.3-1.3-3.4-2-4.5-3.8-5.1-9.8-7.9-14.6-.1-.3-.1-.5-.2-.8 0-.6.2-1 .7-1.3" style="fill:#f8f0f7"/><path d="m255 252c.3-.1.7-.2 1-.3 1.1 0 2.3 0 3.4 0 1.3-.8 2.5-.8 3.7.2 1.1.1 2.2.2 3.3.3.4.1.6.3.6.8 3.3.1 6.5-.1 9.6-1 1.8-.3 3.5-.4 5.1.6 1.2 2.2-.8 2.7-1.9 3.4-5 3.3-9.6 7.1-14.6 10.5-5.8 4-7.9 3.5-11.8-2.8 2-3.8.4-7.9 1.6-11.7" style="fill:#423437"/><path d="m263 252c-1.2-.1-2.4-.1-3.7-.2-.3-13.2-.7-26.4-1-39.6.4 0 .7 0 1.1 0 1.9 5-.7 10.5 1.4 15.5.8 7.1.2 14 .3 19.3-.4-5.3 1-12.6-.7-19.9-.5-5-.9-10 .2-14.9.3 0 .7 0 1 0 .6 13.3 1 26.5 1.4 39.8" style="fill:#73616a"/><path d="m220 209c0 .3-.1.6-.1.8-1.3.8-2.5 1.1-2.6-1-3.9-7.7-7.9-15.3-11.7-23-.8-1.7-1.5-3.4-2.2-5.2 4 6.5 8 13 12 19.5 1.2 2 2.2 4.1 3.3 6.1.4 1 .9 1.9 1.3 2.8" style="fill:#876e6c"/><path d="m203 181c-1.2-2.1-2.4-4.1-3.6-6.2 1.2 2.1 2.4 4.1 3.6 6.2" style="fill:#7d6666"/><path d="m261 409c1.9 10.3-6.5 15.3-11.5 22-.4-4.3-1-8.7-1.2-13-.3-6.6.3-13.2-7.1-17-1.6-.8-2.3-4.4-2.5-6.8-1.2-26.3-2.2-52.7-3.3-79 4.9-5.1 3-11 2.2-16.8.1-3.2-1.8-6.9 2.3-9.1.4.1.7.3 1 .5 14.7 7 12.7 21 13.6 33.5 1.2 17.9 2.8 35.9 3.9 53.8.1 2.1-.8 4.2.1 6.3.9 8.5 1.7 17 2.5 25.7" style="fill:#bda7ae"/><path d="m217 209c.9.3 1.7.7 2.6 1 .5 1 .4 2.2.6 3.3-1.7 6.5-6 11.7-9.4 17.3-1.9 3.2-2.1 5.2.8 8 4.7 4.3 9.5 8.6 13.9 13.2 3.1 3.3 7.5 1.7 10.7 3.8.9.9 1.5 2 1.9 3.1 1.4 4 1.8 8.2 1.7 12.4-.1 3.6 0 7.3-.1 11-.1 7-2.5 9.3-9.6 8.6-2-.2-1.1.7-1.3 1.4-4.7 2.1-9.5 3.6-14.5 1.1-1-1.6-2.9-3.3-2.8-4.8 1.4-21.7-5.3-41.7-11.9-61.7 1.2-.4 2.7-.5 3.5-1.4 4.7-5.4 9.2-10.9 13.9-16.3" style="fill:#ad8269"/><path d="m215 293c4.8-.7 9.7-1.3 14.5-2 .1-.1.2-.4.4-.4 8.3-1.6 8.3-1.6 8.4 8.7 0 .6.1 1.1-.1 1.7.3-.7 0-1.7 1-2 .3 4.6.9 9.2.7 13.7 0 .9-2.9 1.7-4.5 2.6-5.1-.3-10.3-1.2-15.4-.9-4.8.3-6.2-1.4-5.8-5.9.5-5.2.6-10.3.8-15.5" style="fill:#ad816b"/><path d="m173 441c2-1.1 4-2.2 6-3.3 1.9 3.8 3.8 7.5 5.7 11.3-3.4.3-2-4.2-4.7-4.6-1.6-1.2-3.5-.4-5.3-.6-1.9-.2-2.8-1-1.7-2.8" style="fill:#a98882"/><path d="m180 444c1.6 1.5 3.1 3.1 4.7 4.6-1.2.8-2.3 1.6-3.5 2.4-.4-2.3-.8-4.7-1.2-7" style="fill:#5b4040"/><path d="m174 435c-.5-.5-1-1.1-1.5-1.6 1.8-.3 3.6-.7 5.4-1 .1.6.2 1.2.3 1.8-1.4.2-2.8.5-4.2.8" style="fill:#aa9191"/><path d="m324 278c.3 6.3.6 12.5.9 18.8-.3-6.3-.6-12.5-.9-18.8" style="fill:#342e32"/><path d="m239 271c-.6-4.3-1.1-8.7-1.7-13-.6-2.8-.9-5.5 2.6-6.8 3.2-.7 6.4-.8 9.6.1.9 2.8.9 2.8-3.8 3.7 1.9 3.8 8 3.7 8.5 8.9 4.2 6.3 8.6 3.9 13 .3 4.8-3.8 9.8-7.4 14.7-11-1.4-.9-3.5.5-4.8-1.2 5.9-6.6 5.9-15.3 7.9-23.3 1-.7 2-1.5 2.9-2.2.3.1.6.1.9 0-.9 3.9-1.8 7.8-2.6 11.8-1.6 7.7-2.5 15-1 23 1.6 8.4-.7 17.5-1.3 26.3-.1 1.3-.2 2.7-.3 4-.1.6-.3 1.1-.4 1.7-2.2-.9-4.4-2.3-6.7-2.5-9-.7-18-1-27-1.5-3.1-1.6-7.4 1.4-9.9-2.6-.5-5.2.4-10.6-.5-15.9" style="fill:#38282a"/><path d="m240 287c3.1.8 6.3 1.6 9.4 2.4-2.1.1-4.2.2-6.3.3.1.5.1 1.1.4 1.2 13.5 6.3 10.6 19 11.6 30 1.9 19.9 3.2 39.9 4.7 59.8-.4.8-.9 1.6-1.3 2.4-.7-7.7-1.5-15.4-2.1-23-1.5-18.8-2.9-37.6-4.6-56-.2-2.3-1.9-4.8-3.5-6.7-2.4-2.7-5.5-4.9-8.2-7.3-.9-.9-.7-1.9-.1-2.8" style="fill:#6f5c63"/><g style="fill:#2c2125"><path d="m283 589c0-2.3.1-4.7.1-7-5.2-2.2-6.9-5.9-6.5-11.6 1-12.6-1.5-25-1.1-37.9.2-6.8-5.4-4.3-9.1-4.6-3.2 1.6-2.5 4.6-2.5 7.2-.1 13.4 0 26.9-.1 40-.1 6.3-2.3 11.4-8.8 13.6-2.4 3.1-3.9 3.1-7.6.5-9.5-6.7-8.8-15.9-8.5-25.5.5-13 .6-26 .9-39-.5-3.4-1.2-6.7-1.3-10-.2-7.3 6.2-10.7 9.8-15.8.8-1.2 1.8-2.7 1.7-4-.3-3.3-1.3-6.6-1.8-9.9-.5-3.3.8-5.6 3.1-8.4 3-3.6 4.9-8.7 6-13.4 1.4-6.2 2.5-12.3 7.2-17.2 1.1-1.1-.2-4.3.2-6.4.4-2.3 1.2-4.8 2.6-6.5.6-.6 3.6.9 5.4 1.5 0 3.7.7 7.5-.1 11-1.5 6 1 7.2 6.1 6.7 1.9 10 5.2 20 5.3 30 .1 8.2 4.9 15 4.2 23-.1 1.1.9 2.9 1.9 3.4 6.7 3.8 6.5 11.4 9.7 17 1.2 2.2.3 5.6.6 8.4.1.8 1.1 1.5 1.7 2.2-.1 1.9-.3 3.8-.4 5.7 0 1 0 2 0 3 .9-.6 1.8-1.2 2.7-1.7-3 7.7-3 15.3-.2 23 .3.7-.3 1.9-.7 2.7-3.1 5.5-6.3 10.9-9.5 16.4.3 3.7-1.1 7.3-.9 11 .1 1.9-1 2.8-2.8 3.1-1.2.2-2.3.1-3.4-.1-1.4-.4-2.3-1.8-3.8-2-.1-3.2-.1-6-.1-8.8"/><path d="m303 521c-1-3.7-2.4-7.3-3-11-.2-1.3 1.3-3 2-4.5.4 1.3.7 2.6 1.1 3.9 1.4 4 2.9 7.9 4.4 11.8-1.5.7-3 .8-4.5-.1"/></g><path d="m303 521c1.5.1 3.1.1 4.6.2-.4 4.1-.8 8.3-1.2 12.4-3.3-.4-2.7-3.2-3.1-5.2-.3-1.7.4-3.4-.2-5.1 0-.7-.1-1.5-.1-2.3" style="fill:#6f7181"/><path d="m303 524c1.1 3.4 2.2 6.9 3.3 10.3-1.5.9-3.1 1.8-4.6 2.6.5-4.2.9-8.6 1.3-12.9" style="fill:#2c2125"/><path d="m290 599c.5-1.7 1.1-3.4 1.6-5.1.8-2.6 1.5-5.3 2.2-7.9.7 0 1.4 0 2.1 0 3.5 1.5 5.3 5.1 8.4 7.1 0 0-.1-.1-.1-.1 1.9.9 3.6 2.1 5.6 2.8 7.4 2.4 8.1 4 4.9 11.2-.3.7-.8 1.3-1.2 2-5.3-1.5-10.6-3-16-4.4-3.1-1.2-6.6-1.6-7.5-5.6" style="fill:#5f3529"/><path d="m304 593c-2.8-2.4-5.6-4.7-8.4-7.1 2.8.8 5.5 1.6 8.3 2.4.2.3.3.7.1 1 0 1.3 0 2.5 0 3.7" style="fill:#ac9387"/><path d="m324 753c-6.8-2.8-10-8-9.6-15.4.1-2.3.3-4.6.5-6.9 3.7-2.4 5 .3 5.6 3.1 1.2 6.4 2.3 12.8 3.5 19" style="fill:#ab9ea8"/><path d="m264 648c3.9-5.8 8-11.5 11.6-17.5 2.1-3.4 3.2-7.3 5-10.9.8-1.6 2.2-3 3.3-4.5-1.2 6.5 1.4 11.6 5.9 16 0 .5 0 .9 0 1.4-1-.4-2.2-.6-3.1-1.2-7.3-4.9-7.2-4.9-11 3.6-3.9 4.9-7.7 9.8-11.6 14.7 0-.5 0-1.1-.1-1.6" style="fill:#6b555e"/><path d="m290 631c-8.5-5.7-8.5-5.7-5.9-16 2.8-.8 1-1.6 0-2.4v.1c-2.7-2.7-1.6-5 .5-7.4 2.2-2.4 3 .6 4.1 1-1-2.2-6.3-3.3-2.1-7.4 1.1 0 2.1-.1 3.2-.1 2.5 1.9 4.9 3.7 7.4 5.6-.6.1-1.2.2-1.7.4 0 1.9 1.6 2.4 2.7 3.3 1.4 1 2.6 2.2 3.5 3.6-.8 4.2-1.5 8.3-2.3 12.5-2.3 1.2-3.8-1.4-5.6-1.2 1.9 1.5 5.5.7 6.8 3.8 2 3.3 2 3.3-4.6 5.7-2.1-.6-4-1.1-6-1.5" style="fill:#b38b79"/><path d="m301 627c-3.4-1.5-6.8-3-10.2-4.5.2-.4.3-.8.5-1.2 2.9 1 5.7 2.1 8.6 3.1 2.8.9 5.7 1.7 8.5 2.6-.1.4-.2.9-.3 1.3-2.3-.5-4.7-.9-7.1-1.3" style="fill:#724f40"/><path d="m302 612c-1.2-1.2-2.4-2.4-3.5-3.6 1.1 1.1 2.3 2.4 3.5 3.6" style="fill:#774840"/><path d="m298 608c-.9-1.1-1.8-2.2-2.7-3.3.9 1.1 1.8 2.2 2.7 3.3" style="fill:#613a38"/><path d="m176 668c1.2-8.4 2.3-16.9 3.5-25.3.1-.7.9-1.2 1.3-1.8.4.9.7 1.7 1.1 2.6-1.6 10-3.1 20-4.7 30-.5 3.4-1.4 6.7-2.1 10-.7 0-.8-.8-1.2-1.2.7-4.9 1.4-9.7 2.1-14.4" style="fill:#a68687"/><path d="m174 682c.4.4.8.8 1.2 1.2-.1 2.3-.3 4.5-.4 6.8-.7 1.2-1.3 2.3-2 3.5.5-3.9.8-7.7 1.2-11.5" style="fill:#d1b4bd"/><path d="m188 635c-.5 0-1 .1-1.5.1-6.3-.3-11-3.5-14.9-8.1.7 0 1.4 0 2.2 0 4.7 2.7 9.4 5.4 14.2 8" style="fill:#62362c"/><path d="m181 621c4.9 1.9 9.7 3.9 16 6.4-7.7-1.2-14.2-2.1-20.7-3.1-.1-.4-.2-.8-.2-1.2.4-.7 1.3-1.9 1.3-1.9-1.7-1.4-3.5-2.6-4.6-4.8 2.6 1.5 5.4 3 8.2 4.6" style="fill:#7d5644"/><path d="m173 441c2.3 1.2 4.7 2.4 7 3.6-7.9.3-8.6 1.1-7 8.2-.8 0-1.6 0-2.4 0-1-3.2-2.2-6.3-2.8-9.6-.4-2.4-.1-4.9.6-7.3.5 2.4 1 4.8 1.4 7.2 1.1-.8 2.2-1.4 3.2-2.1" style="fill:#5b4040"/><path d="m229 526c-1.1 4.6-2.1 8.7-3.2 12.7-.1.4-1.5 1-1.6.9-.9-.9-2.4-2.2-2.2-3 .8-3.9 2.1-7.8 3.4-11.6.2-.5 1.7-1 2.3-.8.7.2 1 1.4 1.3 1.8" style="fill:#767284"/><path d="m204 611c8.3-1.7 16.5-3.4 24.8-5.1.1.5.2 1 .3 1.4-8.3 1.7-16.5 3.3-24.8 5-.1-.3-.2-.8-.3-1.3" style="fill:#683d2e"/><path d="m201 602c1.1-.4 2.3-.8 3.4-1.2 5.6.1 11 .2 16.7.3.2 0 .3.2 1.5.9-7.9 0-14.7 0-21.6 0" style="fill:#5d372b"/><path d="m220 629c-4.6 0-9.2 0-13.8 0-.3-.2-.4-.5-.4-.8.1-.3.2-.4.3-.4 4.3 0 8.6.1 12.9.1 1.1-.5 1.3 0 1 1.1" style="fill:#58350e"/><g style="fill:#7d5644"><path d="m206 628c0 .4.1.8.1 1.2-2.1-.2-4.2-.3-6.2-.5.1-.6.1-1.2.2-1.8 1.9.4 3.9.7 5.9 1.1"/><path d="m220 629c-.4-.4-.7-.7-1.1-1.1 1.7-.4 3.4-.7 5.2-1.1.1.6.2 1.2.3 1.8-1.5.1-3 .2-4.4.4"/></g><path d="m287 599c.5 1.8.7 3.8 1.6 5.3 1 1.8 2.7 3.1 4.9 5.5-3.5-1.6-5.8-2.7-8.1-3.7-.3 2.2-.6 4.5-1 6.7-3.6-1.3-2.8-3.2-1.7-6.2 1-2.6.2-5.8.3-8.8 1.4.5 2.7.8 4 1.2" style="fill:#614644"/><path d="m284 613c1.3.5 2.6.9 4 1.4 0 .3-.1.7-.1 1-1.3 0-2.5 0-3.8 0-.1-.8-.1-1.6-.1-2.4" style="fill:#4b312d"/><path d="m285 229c.4.9 1.2 1.9 1 2.7-.9 4.7-1.5 9.5-3.2 14-.9 2.5-3.5 4.4-5.3 6.6-3.1 2.1-6.3 1.7-9.6.3.2-1.2.1-2.8.8-3.7 2.8-3.9 5.8-7.7 8.7-11.5 2.4-1.7 4.6-3.5 5.7-6.4.7-.6 1.3-1.3 1.9-2" style="fill:#564b4e"/><path d="m268 252c3.2-.1 6.4-.2 9.6-.3 1.5.4 2.9.8 4.4 1.2-1.9.2-3.8.3-5.8.5-3 .4-6.1.9-9-.3-.2-.3-.3-.5-.5-.8.4-.1.9-.2 1.3-.3" style="fill:#998b91"/><path d="m283 231c-1.9 2.1-3.8 4.3-5.7 6.4 1.9-2.1 3.8-4.2 5.7-6.4" style="fill:#38282a"/><path d="m261 228c-.4-5.1-.8-10-1.3-15.2.4 0 .8 0 1.2 0 .1 5.1.1 10 .1 15.2" style="fill:#bcaaaa"/><path d="m240 252c-1 2-1.9 4-2.9 5.9-.3-.8-.6-1.6-.9-2.4-3.9-5.4-4.9-11.7-6.2-18 2.6-2 .7-3.9-.1-5.8-.8-2-2.3-4.4 1.6-5.1 7.4 8.1 14.8 16 22 24-4.4 2.2-9.2-.4-13.7 1.2" style="fill:#7c6668"/><path d="m254 264c-4-3.2-8-6.3-12.5-9.8 3.3-.6 6.1-1.1 8.9-1.6 1.1-1.2 2.4-.8 3.7-.3.4.1.8.2 1.1.3.8 3.9 3.4 8.1-1.2 11.4" style="fill:#655152"/><path d="m231 227c-3.4 3.5.6 5.8 1.6 8.4 1.7 4.2-1.3 1.5-2.3 1.8-3.5-2.6-4.4-6.4-4.6-10.5.4-.9.9-1.6 2.1-1.2 1.1.5 2.1 1 3.2 1.5" style="fill:#634437"/><path d="m228 225c-.5.5-1.1 1-1.6 1.5-5-2.9-5.2-8.3-6.8-13 0-1.2.1-2.4.1-3.6 2.8 5.1 5.5 10.2 8.3 15.2" style="fill:#876e6c"/><path d="m254 252c-1.2.1-2.5.2-3.7.3-3.4-.1-6.8-.2-10.2-.4 4.6-.4 9.1-.8 13.7-1.1 0 .5.1.8.2 1.2" style="fill:#bea7aa"/><path d="m267 253c3 .1 6 .2 9 .3-3.8.4-7.6.9-11.4 1.3-.1-.4-.1-.8-.2-1.2.9-.1 1.7-.2 2.6-.4" style="fill:#38282a"/><path d="m261 228c.6 7.3 1.1 14.7 1.7 22-.5 0-1.1 0-1.6.1-.1-7.4-.1-14.8-.1-22" style="fill:#c3b1b0"/><path d="m240 287c0 1 0 1.9-.1 2.9-.3 3-.6 6-.8 9-.2 1.9-.4 3.7-.5 5.6-.3 0-.6 0-.9 0 0-2.1 0-4.2 0-6.2-.1-7.9-.1-7.9-8.2-7.3-1.2-.1-2.5-.3-3.7-.4 13-2.3 13-2.3 13-15.7 0-1.3.1-2.7.2-4 .3 5.3.6 10.7.9 16" style="fill:#5f3f2e"/><path d="m220 213c2.3 4.4 4.5 8.7 6.8 13 1.4 3.4 2.8 6.9 4.2 10.3 1.8 6.2 3.6 12.5 5.4 18.7-5.4.9-9.5-.4-13.2-4.9-4-4.9-9.4-8.7-13.8-13.2-1-1-1.3-3.7-.6-5 3.5-6.5 7.4-12.7 11.2-19" style="fill:#e3bda6"/><path d="m279 287c-4-4.5-8-8.9-11.9-13.5-.7-.8-1.2-2.9-.7-3.3 3.5-3.6 7.2-7.1 11-10.3 2.2-1.8 4.3-2.1 4.2 2-.1 8.2 0 16.4 0 24.6-.9.2-1.8.3-2.7.5" style="fill:#45363d"/><path d="m251 286c.8-2.1 1.1-3.7 1.9-4.9 2.1-2.7 4.5-5.1 6.7-7.6 2.1 3.4 4.3 6.7 6.2 10.2.1.2-1.6 2.1-2.6 2.2-3.7.3-7.6.1-12.2.1" style="fill:#655456"/><path d="m244 279c-.5-5.5-1-10.6-1.4-15.8-.1-.8.6-1.7.9-2.5.8.4 1.8.5 2.3 1.1 1.7 2.1 3.4 4.2 4.7 6.5 2.6 4.3.7 7.2-6.5 10.7" style="fill:#634f4e"/><path d="m337 683l-12-1 4-44 12-2z" style="fill:#e0c9ca"/></g></g></svg>