<svg xmlns="http://www.w3.org/2000/svg" viewBox="0 0 1266.1 848" style="enable-background:new 0 0 1266.1 848"><g><path d="m1073 407c-.5-1.4-1.1-2.7-1.6-4.1.3-.7.5-1.4.8-2.1-.3-8.6-.7-17.3-1-25.9-.2 2.5-.3 5.1-.5 7.6-.1-2.5-.2-5.1.5-7.6.3-4.7.6-9.4.9-14-.3-2-.4-4.1-.4-6.1.1 2 .3 4.1.4 6.1.1-8.9.1-17.9.3-26.8 0-1.6.9-3.2 1.5-4.8.3-.1.6-.3.9-.6 1-1.7.5-3.5.3-5.3-.6-4.3-1.4-8.5-1-12.8-.2-1-.4-1.9-1-2.7 0-.6 0-1.2 0-1.9-.2-.4-.5-.7-.8-1-.3-.3-.7-.7-.9-1.1v.1c-.5-.3-.8-.7-.9-1.3 0-.2 0-.4-.1-.5.2-.2.3-.4.5-.6-.1-2.8-2.6-5.5-1.4-8.2 2.9-6.9 1.4-13-.3-20-1.8-7.3-3.6-14.8-4-22.4-.4-6.3-2.1-12.8-.3-18.8 1.2-4.1.9-7-1.5-10-3.9-5-6.3-10.5-5.6-17 .2-2-.6-3.9-1.7-5.6-2.7-4.6-5.4-9.2-8.4-13.6-2.2-3.1-4.5-6.4-4.1-10.5.4-4.5-2-6.7-5.9-7.9-4.6-1.4-9.2-3.1-13.8-4.4-4.5-1.2-7.4-3.5-7.8-8.3-.2-.2-.4-.3-.6-.4 0 0 .1-.1.1-.1 0-.1 0-.1 0-.2.1-.2.3-.3.4-.5.3-.8.4-1.5.3-2.2.5-2.1 1-4.1 1.6-6.2 2.4 3.7 3.7 7.5 5.3 11.3.6 1.4 1.6 2.6 2.7 3.7.3.3 2.3-.5 2.3-.9.2-1.8.1-3.6-.3-5.3-.2-.8-1.5-1.3-1.9-2.2-2.5-5.1-5.1-10.2-7.3-15.4-1.4-3.5-2.4-7.2-3.5-10.9.1-.7.1-1.4.2-2.2 0-.8-.1-1.6-.4-2.3-.3-.3-.6-.7-.9-1-1.9-7-3.8-14-5.7-21 .1-.7.3-1.4.5-2.1.2-3.6-.6-7.2-1.2-10.7 2.7 9 5.7 17.9 5.8 27.5 0 2 .7 3.9 2.2 5.4 1.2 1.1 2.6 1.5 4.1.9 1.5-.5 1.8-1.8 2-3.2.2-2.1-.4-3.9-1.3-5.8-1.3-2.7-2-5.6-2.6-8.6-3-14.8-6-29.7-10.9-44-1.7-4.9-3.4-9.8-8.4-12.5-.3.1-.7.2-1 .2-2.9-4-5.7-8.2-8.8-12-1.3-1.6-3.6-2.5-5.4-3.7-7.1-2-13.9-2.1-20 2.7-1.6.4-4.1.3-4.5 1.2-2.5 5.3-7.5 5.1-11.6 4.8-8.2-.6-12.4 4.9-16.3 10-3.8 5-5.9 11.4-8.8 17-1.1 2.1-2.9 4-3.5 6.2-1.9 7.1-3.1 14.4-5.2 21.4-3 9.9-3.8 19.8-1 29.8.8 2.6 2.1 5.2 2.5 7.8.9 5.8.4 11.5-2.7 16.9-1.2 2-1 4.8-1.2 7.3 0 .8 1 1.7 1.6 2.5.4-.8.9-1.6 1.1-2.5 1.6-8.1 3.2-16.2 4.7-24 3.1.8 5.5 1.3 7.9 1.9.4 1.3.7 2.6 1.1 3.8-.3 2.9-1.1 6-.6 8.8.6 3.4-.9 4.5-3.6 5.3-1.3.4-2.5 1.2-3.7 1.9 1.6.3 3.2.6 4.9.7.6 0 1.2-.5 1.9-.6.7-.2 1.5-.3 2.2-.4 0 .8.2 1.7-.1 2.3-3.9 7.4-5.5 16.7-15.5 19.4-.5.1-.9 1.1-1.3 1.7.7.2 1.5.7 2.1.6 4.1-.5 7.7-1.6 9.6-5.9 1.5-3.5 3.6-6.7 5.5-10 .3-.4 1.2-.5 1.8-.7.6.3 1.1.7 1.6 1.1-.5 0-1.1-.7-1.6-1.1-1.6 4.2-5.2 8.3-.5 12.8-.2 0-.4.1-.6.3-3 3.3-6 6.6-9.1 9.9-.3.3-.7.6-1 1-.1 2.6-.1 5.3-.2 7.9-2.3 1.9-4.8 3.6-7 5.6-1.2 1.2-2.5 2.8-2.8 4.4-1.3 7-2.6 14-3.3 21-1.2 12.3-1.9 24.7-2.9 37-.1 1.1-.4 2.3-.9 3.3-3.1 6-6.3 11.9-2 18.6-2.7 4.4-5.5 8.8-8.1 13.3-.6 1-.6 2.5-.8 3.7-.4 2.3-.3 4.8-1.1 6.8-2.9 6.8-6.1 13.5-9.2 20-.2.4-.4.7-.6 1.1 0 .6-.1 1.3-.1 1.9s0 0 0 0c-.4.7-1 1.3-1.3 2-3.6 9.6-7.2 19-10.7 28.9-.4.4-.7.8-1.1 1.1-1.6 3.3-3.3 6.5-4.9 9.8-1.1 1.8-2.1 3.6-3.2 5.4-1.3 2.3-2.4 4.7-3.9 7-1.5 2.4-3.4 4.6-5.1 6.8-.2.4-.4.7-.6 1.1-.1.3-.2.6-.3 1-.6.3-1.3.6-1.9.9-2.9-2-4.6-.1-6 2.1-5.6 1.3-11 2.9-16.7 3.9-4.4.8-7.1 2.8-8.2 7.1-3.9 5.6-7.1 11-5.2 18.5.8 3.4 1.3 5.6 5.1 5.4.7.6 1.5.5 2.3.1l.2.1.2-.1c2.6 1.8 6.3 1.3 7.4 6 8.4 35.7 17.2 71 25.9 107 16.4 67 32.8 134 49 201 1.9 8.3 3.8 16.7 5.7 25-10.7 4-21.3 8-32 12-3.5 1.3-6.7 3.1-10 4.7-2.5 2.3-5.5 5-1.7 8 3.1 2.5 7.1 4.4 11 5.2 14.8 3.3 29.7 4.3 44.7 1 2-.7 4.3-.7 6-2 5.8-4.3 11.9-5 18.4-2 1.2 0 2.3 0 3.5 0 2.7-1 5.6.2 8.3-.7 4.6-.8 9.1-1.6 13.7-2.3 4.6-2.4 2-6.5 2.2-9.9 0-.3 0-.7.1-1 .7-1 1.3-2 2-3 .4-.1.5-.4.5-.8.2-.9.4-1.8.6-2.8.6-2.9.6-5.8 0-8.6 3.1-2.5 3.5-5.9 2.7-9.5-1.5-6.7-3.7-13.4-4.6-20-1.2-9.2-1.8-18.5-2.2-27.8-1.1-23.8-2-47.6-3-71 4.6 6.3 8.9 12.9 14.2 18.6 6.5 6.9 7 14.4 5.9 23-.8 6.7-2 13.5.5 20 2 8.9 4.9 17.7 5.7 26.8.4 4.5 1.8 8 5.3 10.7 0 0 .1 0 .1 0-.8.9-.7 2-.4 3.1.3.2.6.4.8.7-.1 0-.2-.1-.3-.1-.7 4.7-1.4 9.3-2.1 14-.8 6.3-1.7 12.7-2.5 19-.4 1.4-.8 2.8-1.2 4.2-.1 1.4-.1 2.8-.2 4.2-1.6 8.5 1.8 14 10 14.5 6.6.3 13.3-.6 20-1 5-4.6 12.2-8.3 14.5-14 3.9-9.9 4.1-20.9-.2-31.4-.7-7.7-1.5-15.4-2.2-23 .2-.1.3-.3.5-.4 1.6-2.9.1-6.4 1.6-9.2 3.2-6.4 1.9-12.2-1.2-18-1.5-3-2.7-6.2-1.1-9.6 1.6-3.6 1.7-7.4 1.7-11.3 0-4.8-.5-9.7.3-14.5.6-3.8-.2-6.8-2.6-9.7-3.5-4.2-5.5-9.1-6.6-14.4-1.5-7.5-3.6-14.8-6.6-21.9-3.3-7.8-6.4-15.8-7.2-24.3-.4-4.3-2.3-7.1-6-9-2.3-1.2-5.1-2.5-5.5-5.4-1.1-7.2-3.3-14-1.2-21.7 8.7-31.6 17-63 25.7-95 1-3.7 2.7-7.2 2.4-11.2-.1-.5-.2-.9-.4-1.1 1.4-1.6 2.9-3.2 4.3-4.8.6-.5 1.2-1 1.8-1.5 1.9-1.4 3.8-2.7 5.7-4.1.6 2.5 1.2 5 1.8 7.5.2-1.1.4-2.1.6-3.2 0 1.1-.1 2.1-.6 3.2.1 1.4.2 2.7.2 4.1 0 1-.1 2.1-.1 3.1.2.2.5.4.7.7.4 1.7.8 3.4 1.2 5.1.1-.4.3-.9.4-1.4 0 .5-.1 1-.4 1.4 1 3.8.4 7.1-2 10.6-2.6 3.8-6.4 8-3.1 13.5 5.3 1.2 7.3-2.6 9.6-6.3-.7 2.8-2.4 5.3-2.6 7.8-.2 2.1.8 5.5 2.4 6.4 2.7 1.6 5.2-.1 6.6-3.1 1.1-2.3 2.6-4.5 4-6.7 3-4 5.9-8 8.9-12 .3-.3.5-.7.7-1 2.9-7.4 3.4-15 3.1-22.9-.1.2-.2.5-.4.7.1-.3.2-.5.4-.7-.2-.7-.4-1.4-.7-2.1-1.4-1.2-.6-2.5-.3-3.8-.7-4.1-1.3-8.1-2-12.2 2-2.3 3-4.6.3-7.1-.1-1-.1-1.9-.2-2.9.9-1.3 1.9-2.7 2.8-4 .1-.6.1-1.1.2-1.7-.1 0-.1-.1-.2-.4-.2-.4-.1-.6.3-.8.1-.3.3-.7.4-1 2.6-.8 3-2.1 0-3.7m-149-279c-.7-.3-1.3-.7-1.9-1.1-2.1-1.8-2.3-4.2-2.3-6.8-.1-3 .2-6-.4-8.9-1.1-5.5-.5-10.8.7-16-.5 4.3-1.3 8.5-.4 12.8.3.4.6.7.9.9.2.5.5 1.1.7 1.6.5 2.3 1.1 4.5 1.6 6.8-.3.6-.5 1.3-.6 2-.4 1.5-1.6 3.3.9 4.1-.9 2-.2 3.4.8 4.7m6.5 594c-.4 4.1-3.1 6.8-5.8 9.4-2.3 2.4-4.7 4.7-7.1 6.9-1.5 1.6-2.6 3.5-2.6 5.7-.1 6.2-.6 12.5.4 18.7 0 0 0 .1.1.1-.3 0-.5.2-.6.3-1-5.9-2.8-11.7-4.2-17.5-.3-1.2-.4-2.8-2.3-2.7-.1 0-.2 0-.2 0 .3-.3.7-.6 1-1 .4-3.1-.6-6-1.3-8.8-7.4-30-14.4-60-21.7-90-13.6-56-27-113-40.5-170-3.4-14-6.9-28-9.8-42 0-.8 0-1.5.2-2.2.1-.5.3-.9.4-1.4.3-1.7 1.5-3.5-.1-5 5.3-.6 10-3 15.5-3.7 2.8-.3 4.7-.5 6.3 2 1.3 1.6 2.9 2.9 5 2.8 4-.2 3.8 2.1 3.3 4.8-1.5 8 .3 16.3-2 24.3-.8 2.7.7 5.4 4.1 5.6 3.5.1 4.6-2.6 3.7-5.1-2.4-6.5-.4-12.9-.5-19.3-.1-6-.5-12 .5-17.9.1-3.3.8-6.1 4.3-7.6 2.3-1 3.4-3.2 3.7-5.6.4-2.9 1.4-5.8 1.2-8.8-.2-3.7 1-6.7 3.5-9.4 1.4-1.5 3.4-3 1.8-5.6-.1 0-.1-.1-.2-.1 1.8-2.3 3.6-4.7 5.4-7 .3 0 .5 0 .8 0 1.9-1 2.7-2.4 1.6-4.5 0 0-.1 0-.1 0 1.8-1.6 3.6-3.1 5.4-4.7-.1 3.6-.8 7.2-1.1 10.7-1.1 10.3-1 20.7-2.7 30.9-.6 9.4-1.6 18.7-2.6 28-.4 3.7-.3 7.2.8 10.7.2.5.5.9.7 1.2-.2 1-.3 2.1-.5 3.1.3.8.3 1.5.4 2.3-.1-.8-.2-1.5-.4-2.3-.1 1.6-.2 3.2-.3 4.8-1.2 9.3-2.1 18.7-3.6 28-2.8 18.3-.1 36.4 1.4 54.6-.2.3-.4.5-.6.7-.9 3-.7 6 0 8.9 5.5 23 10.9 46 17 68.9.5 1 2.1 1.4 1.4 2.9 0 .6.1 1.1.4 1.6.3.7.3 1.4.2 2.2-.1 1.3.2 2.5 1.1 3.4.4.1.6.2.7.4 0 .1 0 .2 0 .2 0 .2-.2.4-.5.6-.2.8 0 1.6.6 2.1.9.8-.3 1.3-.2 2-.5 3.1-.5 6.1.9 9 1.3 1.5 1 3.1.1 4.7-.6 3.5-.6 6.9.7 10.2.7 1.3.9 2.6.5 4-.1.7-.1 1.5.1 2.2.5 1.8.3 3.6.2 5.4.2 2.8-.6 5.7 1.4 8.2.1 0 .2-.1.2-.1.5 7.4-.2 15.2 2 22 3 9.6 8 18.5 12.2 27.7.4.4.4.5.3.5m118-335c-.5.5-1.5.3-1.8 1.1.6 1 1.1 2 1.7 3 0 .5 0 1.1 0 1.6-1.4 6.3-2.7 12.7-4.1 19-2.2 0-3.4 1.3-4.3 3-2.3-26.3-3-52.7-4.9-80 .3 1.8.9 2.4 1.5 3 .3.2.6.3.9.4.6 2.3 1.3 4.6 1.9 6.9 2.1 8.6 4.1 17.2 6.1 25.8v-.1c.7 4.6 2.9 9 2.2 13.8.3.9.6 1.7.9 2.5" style="fill:#e3e7e5"/><g><path d="m883 283c-4.3-6.7-1.1-12.7 2-18.6.5-1 .8-2.2.9-3.3 1-12.3 1.7-24.7 2.9-37 .7-7.1 2-14 3.3-21 .3-1.6 1.6-3.2 2.8-4.4 2.1-2.1 4.6-3.8 7-5.6 3.6.3 2.6 3.5 3.5 5.5 1.3-1.3 2.4-2.7 3.8-3.8 1.4-1.1 2.7-3.2 4.6-2.5 2 .7 2.1 3.2 2.6 5.1.3 1 .3 2-.5 2.8-4.5 7.6-9.3 15-11 23.9-.1.5-.2 1-.4 1.5-1.8 10.2-3.7 20.3-5.2 30.5-1.3 8.9-1.8 17.8-.1 26.8 2.1 10.4 3.6 21 3.2 31.7-.7 18.5.3 37 1.4 55 .9 15-3.2 28.6-6.4 42.6-.1.6-.4 1.3-.5 1.9-.4 3-3.1 6.5-.2 8.9 3.1 2.6 7.2 2.1 10.9.3 1.5.5 2.1 2.1 3.4 2.8 4.2 2.2 7.1.7 7.6-3.9.8-6.2 1.1-12.5 2-18.8.3-2 .3-4 1.7-5.6.4-.4.9-.5 1.5-.4 2.3 2.6 2.3 5.9 2.4 8.9.1 6 1.5 11.9 1.2 17.8 0 .8 0 1.7.2 2.5.5 2.1 2.1 2.4 3.8 2.3 1.7-.1 2.2-1.3 2.2-2.8 0-1.7.1-3.3-.1-5-1.1-7.2-1.4-14.5-1.8-21.8-.9-14.4-2.4-28.8-3.6-43-.8-9.6-1.4-19-2-28.8-1.1-16-3-32-3.5-48-1.1-32.4 8.9-61 26.7-88 .5-.7 1-1.3 1.7-2-2-.8-5.2 2-6-2 2.3-2.3 4.9-3.9 8.1-4.5 7.1-1.5 12.5 2.3 17.7 6.2 2.8 2 4.4 2.1 4.7-1.8 1.1-12.2 8.4-21 16-29.7 2.1.1 5 2.4 5.1-2.3 0-.9 1.2-.9 1.9-.2.4 4.8 3.3 7.1 7.8 8.3 4.6 1.3 9.2 3 13.8 4.4 4 1.2 6.4 3.4 5.9 7.9-.4 4.1 1.9 7.4 4.1 10.5 3.1 4.4 5.8 8.9 8.4 13.6 1 1.8 1.9 3.6 1.7 5.6-.7 6.6 1.7 12 5.6 17 2.4 3.1 2.8 6 1.5 10-1.8 6-.1 12.5.3 18.8.4 7.6 2.3 15.2 4 22.4 1.7 7 3.3 13.2.3 20-1.2 2.7 1.3 5.4 1.4 8.2-1.9 2.7-7.5 3.6-9.8 1.4-.5-.5-1-1.1-.7-1.7.7-1.4 2.1-.5 3.6-.9-6.2.5-12 .9-17.7 2.5-.5 0-.9-.1-1.4-.3-3.1-.2-4 2.5-6 4.6 1.6.6 3.8 0 3.9 2.2.1 1.5-.7 2.5-1.8 3.4-.9.7-1.9 1.4-2.8 2.1-4 2.7-4.7 2.4-5.7-2.2-.3-1.3-.6-2.6-1.6-3.6-6.2-6-8.8-13.4-9-21.9-.1-4.7-1.9-9.3-4.6-13-2-2.8-2.8-5.4-2.6-7.1-.1 1.9.4 5.1 1.9 8.3 2.2 5.1-.7 9.7-2.5 14.3-4.4 11.3-9.6 22-14.6 32 3.8-6.2 9.2-12.3 13.6-19 1.3-2 3.2-1.8 4.1.6 1 2.8 2.2 5.6 2.7 8.6.2 1.1.7 3.1 1.5 2.9 5.7-2.1 9.6 6.1 15.6 2.6 1.7-1 3 .9 3.3 2.7.5 2.4 2 2.8 4.1 2.2 2.5-.6 4.8-.7 7.3.5 2.9 1.4 4.4 0 4.5-3.1 0-1.3-.3-2.7-.2-4 0-5.4 1.1-6.2 6.7-5.1-5.3-1.1-7.5-.9-13.9 1.3-1.6.5-3.5 1.5-4.4-.4-.7-1.5 1.1-2.6 2.3-3.5 7.4-5.5 15.5-5.1 23.8-2.9.7.2 1 .8.9 1.6-4 2.2-7.6-1.8-11.6-.3 4.1-1.7 7.8 2.9 12 .1 1.7.7 2 2.2 2.3 3.7-.4 4.3.4 8.6 1 12.8.3 1.8.7 3.6-.3 5.3-1.1 1.3-2.5.6-3.8.7-10.5-.1-20.5 1.4-29.4 7.3-.4.4-.8.7-1.3 1-1.3.6-2.6 1.1-3.9.2-.6-.6-1.1-1.2-1.5-3 1.9 27.3 2.6 53.7 4.9 80 .2 1 0 2.1-.7 2.8-4.4 3.8-5.3 9.4-7.4 14.3-1.4 1.3-3.1 2.4-2.9 4.7-1.2 3.4-3.5 6.2-5.5 9.2-1.5 2.2-1.3 3.7 1.8 3.8 1.8.1 3.7-.4 4.2 2.2.3 4-1.4 7.5-2.4 11.2-8.6 31.7-17 63-25.7 95-2.1 7.5.1 14.5 1.2 21.7.5 2.9 3.2 4.2 5.5 5.4 3.7 1.9 5.6 4.7 6 9 .9 8.5 3.9 16.5 7.2 24.3 3 7.1 5.1 14.4 6.6 21.9 1.1 5.3 3.2 10.2 6.6 14.4 2.4 2.9 3.2 6 2.6 9.7-.8 4.8-.3 9.6-.3 14.5 0 3.9-.1 7.7-1.7 11.3-1.6 3.4-.4 6.6 1.1 9.6 3.1 5.9 4.4 11.7 1.2 18-1.4 2.8.1 6.3-1.6 9.2-1.1 1.1-2.5 1.9-3 3.7-2 7.1-10 13-17.7 13.5-1.7.1-3.4-.2-5 .2-3.7.8-6.2-.6-7.5-4-.7-1.7-2.1-2.4-3.6-3.2-3.6-2.7-4.9-6.2-5.3-10.7-.7-9.1-3.7-17.9-5.7-26.8-2.5-6.7-1.3-13.6-.5-20 1-8.7.5-16.2-5.9-23-5.5-5.9-10-12.9-14.8-19.4-.5-1.5-.6-3-.2-4.4.6-2.1.8-4.7 2.9-5.5 2.3-.9 3.9 1.3 5.4 2.8 1.5 1.6 3.4 2.7 5.3 3.8 5.5 3 8.2 1.7 8.9-4.4.3-2.4 1-4.5 2.2-6.6 3-5.4 2.6-10.9.2-16.3-.8-1.7-1.9-3.5-1.3-5.2 2-6.2-.1-11.9-1-17.9-.6-4.1-2.3-6.7-6.1-7.5-5-1.1-6.4-4-6.1-8.7.3-5.8-2.1-10.4-6.5-13.9-3-2.4-5-5.7-8.2-8.1-3-2.2-6-3.1-9.7-2.5-7.5 1.2-10.2-1.1-9.3-8.5 1.4-12 .7-24 2.5-36 .7-4.7 2.3-9 3.3-13.5 1.1-4.8.3-8.8-2.6-12.7-2.5-3.3-4.9-6.7-7.4-10-3.3-4.5-1.4-8.9 2.2-9.3-2.9 1.7-7-1.8-11.6-.7-4.5 1.1-8.7-1.8-13-3-.9-.2-2-.6-2.7.4-.1.4-.2.7-.3 1.1 2.5 1.4 5.3.7 8 1.5 5.4 1.6 9.5 4.7 12.7 9.2.2.5.2 1-.1 1.5-1.7 2.6-4.7 2.6-7.8 3.3 1.9 1.5 3.4.9 4.9 1.1 3.1.4 5.4 1.4 6.1 4.8.4 2.1 1.6 3.6 3.4 4.7 5.6 3.4 7.8 7.6 6.3 14-2.8 12-3.1 24.3-3.3 36.6-.1 3-1 5.9-1 8.8 0 1.6-1 2.9-2.6 3.4-1.5.5-2.9-.4-3.3-1.6-2.6-6.7-8.3-6.2-13.8-6-6.1.2-12.3-.6-18.4 1.3-6.1 1.9-8.1 5.5-6 11.7 4.6 13.7 9.3 27.4 14 41 4.5 13 6.7 26.4 6.6 40-.1 8.5 1.4 16.9 1.5 25.4 0 1.5.4 3-.5 4.4-3.2 2.9-1.3 6.8-1.8 10.2-.4 2.4 1 5.4-2.5 6.6-2-2.5-1.2-5.4-1.4-8.2.1-1.8.2-3.6-.2-5.4-.1-.7-.2-1.5-.1-2.2.4-1.4.2-2.7-.5-4-1.3-3.3-1.3-6.8-.7-10.2.9-1.6 1.2-3.2-.1-4.7-1.4-2.9-1.3-5.9-.9-9-.1-.7 1.1-1.3.2-2-.7-.6-.9-1.3-.6-2.1.7-.5.7-.9-.2-1.2-1-.9-1.3-2.1-1.1-3.4.1-.7.1-1.5-.2-2.2-.3-.5-.4-1.1-.4-1.6.6-1.5-.9-1.9-1.4-2.9-6.1-22.9-11.6-45.9-17-68.9-.7-2.9-.9-5.9 0-8.9 1.1-1.1 1.6-2.3 1.6-4.1-.3-19.6 3-38.7 6.8-57.8.4-1.8.7-3.7 1.7-5.2 3.7-5.4 1.3-11.5 2.3-17.2.2-1.4-1.4-1.7-2.3-2.3-2.6-1.7-5.8-2.7-7.3-5.8-1.2-3.5-1.2-7-.8-10.7 1-9.3 2-18.7 2.6-28 1.7-10.2 1.7-20.6 2.7-30.9.4-3.8 1.1-7.5 1.2-11.3-.1-5 .9-9.9 1.4-14.8.6-6.5.7-6.3-5.2-8.4-4.5-1.6-9.5-2-13-5.7-.3-.4-.5-.9-.6-1.4 3.3-5.8 3.1-13.6 9.9-17.5 2-1.1 1.9-3.6 1.1-5.4-1.2-2.8 0-5 .6-7.6 1.9-6.5 6.3-12 6.4-18.8" style="fill:#482935"/><path d="m998 155c-.3.5-.7 1-.9 1.6-.4 1.1-.7 2.2-1.1 3.3-1.3-.6-2.6-1.3-3.9-1.9-3.6-3.6-6.6-7.7-10.8-10.6-.2.2.5.5.5.9.4 2.2.8 5-1.8 5.5-2.7.6-2.1-2.7-3-4.2-.4-2.2-.6-4.4-1.2-6.5-.7-4.8-.7-9.6-2.7-14-1.3-2.9 1.3-4.4 2.7-5.8 3.8-3.7 4.9-8.1 5.1-13 .1-2.8-1.1-4.6-3.6-5.3-2.7-.8-3.7 1.3-4.7 3.3-2.4 4.8-1.8 10-2.5 15.2-1.2 8.7-.9 17.6-4.1 26-1.1 3-2.5 5.8-4.4 8.3-1.2 1.6-2.6 3.2-2.8 5.2-1.3 9.5-7.7 15-15 20-.9.5-1.8 1-2.8 1.1-4.4.5-7.5 2.3-7.7 7.2 0 .4-.5.8-1.1.9-3.5-5.5-3.8-5.5-8.4.2-.4.5-.9.9-1.5 1.3-1.1.5-2.1 1-3.3.6-1.6-2.4 1.1-5.1-.7-7.5-.1-.4-.2-.9-.3-1.3.3-3.5-2.2-5.1-4.6-6.8-1.2-1.2-2.1-2.5-1.6-4.4.1-.2.3-.3.6-.3.5-.2 1-.5 1.4-.2 3.2 2 6.4 3.1 9.4-.4.3-.4 1.3-.2 1.9-.2.7 0 0-.9.2-.3 0 .1-.1.1-.5.2-1.7.2-3.9 0-4.3-1.7-1.1-4.6-3.7-7.9-7.7-10.2-.6.2-1.5.2-1.8.7-1.9 3.3-4 6.6-5.5 10-1.9 4.3-5.6 5.4-9.6 5.9-.7.1-1.4-.4-2.1-.6.4-.6.7-1.6 1.3-1.7 9.9-2.7 11.5-12 15.5-19.4.3-.6.1-1.5.1-2.3-.7.1-1.5.2-2.2.4-.6.2-1.3.7-1.9.6-1.6-.1-3.2-.5-4.9-.7 1.2-.6 2.4-1.5 3.7-1.9 2.7-.8 4.2-1.8 3.6-5.3-.5-2.8.4-5.9.6-8.8 4.2-6.3 11.8-8.3 18.6-5 4.5 2.2 9.2 3.6 11.7 8.7 1.3 2.6 4.4 2.7 6.3.4 1.6-1.9 3.9-3.6 4.6-5.7 1.6-4.9 5.6-8.7 6.4-13.9.4-4.8 1.1-9.6 1.5-14.4.7-7.3-2.1-12.3-9.1-13.5-7-1.3-10.2-5.4-11.4-10.6 1 2.9 1.3 7.1 2.3 11.2.5 1.9 1 4.5-1.6 5-2.4.5-3.2-2.1-3.7-3.9-1.1-3.7-1.6-7.4-1.8-11.3-.2-5.9-1.9-7.3-7.8-6.5-4.4.6-8.8 1.9-13.3 1.3-2.1-.3-3.3 1.1-4.5 2.6-1.9 2.6-2.8 5.6-4 8.5-2.1 6.8-3.4 13.7-2 20.9.6 2.9.3 5.9.4 8.9.1 2.5.3 5 2.3 6.8.6.4 1.3.8 1.9 1.1.8.2 1.5.5 2.2.8 1.5 1.6 3.6 3.1 0 4.7-2.4-.6-4.8-1.2-7.9-1.9-1.5 7.8-3.1 15.9-4.7 24-.2.9-.7 1.7-1.1 2.5-.6-.8-1.6-1.7-1.6-2.5.1-2.5 0-5.3 1.2-7.3 3.1-5.4 3.6-11 2.7-16.9-.4-2.7-1.8-5.2-2.5-7.8-2.9-10-2-19.9 1-29.8 2.1-7 3.3-14.3 5.2-21.4.6-2.2 2.4-4.1 3.5-6.2 2.9-5.7 5-12 8.8-17 3.9-5.1 8.1-10.5 16.3-10 4.1.3 9.1.6 11.6-4.8.4-.9 2.9-.8 4.5-1.2 2-.2 3.8 1 5.9.7 2.1-.4 4.1-.9 6.3-.6 6 2.4 11.8 5.4 16 10.4 2.2 2.6 4.2 3.2 7.1 2.3 5 2.7 6.7 7.6 8.4 12.5 4.9 14.4 8 29 10.9 44 .6 3 1.3 5.8 2.6 8.6.8 1.8 1.5 3.7 1.3 5.8-.1 1.4-.5 2.6-2 3.2-1.6.6-3 .2-4.1-.9-1.5-1.5-2.2-3.4-2.2-5.4-.1-10.7-3.9-20.5-6.7-30.6-.7-4.8-2.1-9.6-2.8-14.4-.5-.8-1.2-1.6-.1-2.5.1-.6.3.6-.2.2-1 1.2.4 2 .6 3 .9 5.5 1.7 11 3.4 16.3.6 3.8 1.5 7.5 1.3 11.3-.7 2.8-1.2 5.5-.3 8.4.9 3.1.9 6 0 9.3-1.1 4.2.1 8.6.3 12.9.2 3 .3 5.8-.7 7.6.4-1.3 1.4-3.5 1-5.9-.2-1.1.3-2.1 1.6-2.1 1.6.1 1.2 1.4.9 2.2-.5 1.9-.4 3.7-.4 5.6 0-4.1 1.3-8.2-.3-12.2-.4-1-.3-2.5.9-3.1 1.5-.8 2.4.6 3.3 1.6.4.7.5 1.5.4 2.3-.2 3.8-.8 7.6-1.2 11.4-.5 4.9-.8 9.9 1.5 14.6.7 1.3 1 2.8.4 4.3-.3 0-.5.2-.7.4" style="fill:#62422c"/><path d="m884 745c-16.4-67-32.8-134-49-201-8.7-35.6-17.5-71-25.9-107-1.1-4.7-4.8-4.2-7.4-6 .2-.3.3-.7.6-.8 6.1-1.2 11.3-4.1 16.2-7.7 2.2 1.6.9 3.5.5 5.4-.1.5-.3.9-.4 1.4-.2.7-.2 1.5-.2 2.2 2.9 14.2 6.4 28 9.8 42 13.6 57 27 113 40.5 170 7.2 30 14.2 60 21.7 90 .7 2.9 1.7 5.8 1.3 8.8-2 2.6-4.7 2.4-7.5 1.9" style="fill:#663d29"/><path d="m976 779c.4-1.4.8-2.8 1.2-4.2 1.2.3 2.5 3.1 3.6-.4 2-6.8 4.2-13.8 4.3-20.7.1-3.9.6-9.3-3.8-12.4-.4-1.3-.4-2.5.8-3.5 1.8-.3 3.7-1.7 4.1 1.9.3 2.9 2 4.2 5.9 4.4 6.2.3 11.5-1.8 16-4.7 2.4-1.5 6.6-3.5 5.8-8.2-.5-3 1.3-3.7 3.9-3.5.7 7.8 1.5 15.7 2.2 23.5.3 5.4 1.1 10.8 1.4 16.3 1 20.9-18.7 31-33 29.4-7.9-.9-12-5.6-12.2-13.7-.1-1.4 0-2.8 0-4.2" style="fill:#711523"/><path d="m819 423c-4.6 5.3-10.4 7.7-17.3 8.1l-.2.1-.2-.1c-.8.3-1.5.4-2.3-.1-3.9.1-4.3-2-5.1-5.4-1.8-7.5 1.3-13 5.2-18.5 3.9-2.1 8.1-3.4 12.4-4.5 4.7-1.2 8.6-3.8 12.6-6.4 1.5-2.2 3.1-4.1 6-2.1.2.2.3.5.3.8 0 .3 0 .4-.1.4-1 1.5-2.4 2.8-1.8 4.9.5 3.1 2.2 5.4 5.3 7-.6-4.8-2.9-9.2-1.9-14 .1-.3.2-.6.3-1 .2-.4.4-.7.6-1.1 1.7-2.3 3.6-4.4 5.1-6.8 1.4-2.2 2.6-4.6 3.9-7 1-1.8 2.1-3.6 3.2-5.4 2.2-.1 2.3 2.1 3.4 3.2 3.3 3.4 6.6 6.8 12.6 6.7-7.1-5.1-13-10.2-11-19.7.4-.4.7-.8 1.1-1.1 3.2-.1 4.9 2.9 7.8 3.5 5.9 2.8 12.3 2.3 18.5 3.6 1.1 2.1.3 3.5-1.6 4.5-7.8-.3-15.4-1.8-22.6-5.6 5.1 5 10.5 9.4 16.6 12.7 1.6 2.5-.4 4.1-1.8 5.6-2.5 2.7-3.8 5.7-3.5 9.4.2 3-.7 5.9-1.2 8.8-.4 2.4-1.5 4.6-3.7 5.6-3.5 1.5-4.2 4.3-4.3 7.6-1.1 6-.6 12-.5 17.9.1 6.4-2 12.8.5 19.3.9 2.5-.2 5.2-3.7 5.1-3.4-.1-4.9-2.8-4.1-5.6 2.3-8 .5-16.3 2-24.3.5-2.7.6-5.1-3.3-4.8-2.2.1-3.7-1.2-5-2.8-1.6-2.4-3.5-2.3-6.3-2-5.7.5-10.5 3-15.8 3.6" style="fill:#34241b"/><path d="m909 134c-.4-1.5-.8-2.9-1.1-4.4-1.6-1.7-3.1-3.3-1.9-5.9.6-1 3 2.4 2.6-1.1-.1-.6-.2.1.1-.5 1.3-2.1 3-5.5 4.9-5 2.8.8 1.5 4.3 1.1 6.6-.3 1.7-.6 3.3-.6 4.6-.4-2.7.9-5.5 1.3-8.4.5-3.4 4.9-4.3 7.4-1.7 1.1 1.1 2.1 2.4 2.3 3.8.8 4.9 6 3.3 8.3 5.9.5.6 1.1-.8 1.7-1.3 2.8-2.3 4.9-5.4 7.7-7.8 5-4.2 13.8-2.1 15.9 3.9-1.4 2.8-2.6 5.6-4.1 8.3-1.9 3.5-3.6 7.1-6 10.3-1.2 1.6-3.4 3.1-5.2 3.3-1.6.1-4.1-1.5-4.7-3-1.5-3.4-3.8-5.1-7.2-6.2-2.1-.7-4.1-3.1-6-3-4 .3-8 1.6-11.9 2.8-1.4.4-2.5 1.7-3.7 2.5-.2-1.1-.6-2.4-.9-3.7" style="fill:#b7906b"/><path d="m954 784c-.2 3.4 2.4 7.4-2.2 9.9-4.6.8-9.1 1.6-13.7 2.3-2.7.9-5.6-.3-8.3.7-1.2 0-2.3 0-3.5 0-6.5-3.1-12.7-2.4-18.4 2-1.8 1.3-4 1.3-6 2-15 3.3-29.9 2.3-44.7-1-3.9-.9-7.9-2.8-11-5.2-3.8-3-.8-5.7 1.7-8 .5.3.9.7 1.2 1.2 2.7 7.1 9.6 7.4 15.4 8.3 7.8 1.3 15.9 1.6 23.9 1.5 10-.2 18.6-4.8 27.4-8.6 6.7-2.9 13.4-4.8 20.8-4.4 4.2.2 8.3 0 12.4-1.2 1.6-.5 3.4-.8 5 .5" style="fill:#503f37"/><path d="m1051 472c-3 4-5.9 8-8.9 12-1.3 2.2-2.9 4.3-4 6.7-1.4 3.1-3.9 4.7-6.6 3.1-1.6-.9-2.5-4.3-2.4-6.4.2-2.6 1.9-5 2.6-7.8-2.3 3.7-4.3 7.5-9.6 6.3-3.4-5.4.5-9.6 3.1-13.5 2.4-3.5 3-6.7 2-10.6 1.3-1.9-1.3-5.2 1.6-6.1 2.5-.8 3.1 2.4 4.6 3.7 4.8 4.1 5.1 5.8 1.6 11 2.1-2 2.2-4 2.4-5.9.6-5.1.7-5.1 6.2-4.4 2.6 1.9 3.7 5.3 7.1 6.7 1.9.8.1 3.4.3 5.1" style="fill:#bb9772"/><path d="m914 178c3.4 1.6 6.8 3.2 5 8.1-.2.2-.4.4-.5.5.2-.2.4-.3.5-.5 3.1 2.7.7 5.4 0 8.1 0 .2.1.4.1.6.2 1.1.4 2.2.4 3.3-.8 8-4.7 14.8-8.9 21-3.2 4.8-3.2 9.4-1.5 14.5 1.1 3.3 2.2 6.6 4 9.6.2.5.3 1 .2 1.5-1 2.3-1.6 4.7-2.2 7.1-.5 2.1-1.6 3.7-4.2 2.9-3.9-7.8-4.5-16.2-3.7-24.7.2-2.1-.1-4.3.8-6.3h-.1c2-6 5-11.5 8.5-16.7 1.5-2.3 1.6-5 2.7-7.3-.3-2.4-.6-4.8-1-7.8-3.6 3.2-6.5 5.8-9.2 8.2-1-2.6-2-5-3-7.4.1-2.6.1-5.3.2-7.9.3-.3.6-.7 1-1 4.9.4 9.1-.7 10.9-6.1" style="fill:#757172"/><path d="m848 787c3.4-1.6 6.7-3.3 10-4.7 10.6-4.1 21.3-8.1 32-12 1.1-1 1.7-2.6 3.5-2.6 1.8-.2 3.6-.5 5.3-1.3 2.4-1.1 3.8.5 5.1 2 1.4 1.6 1.3 3.4.2 5-1.7 2.5-3.8 4.9-6.5 6-6.4 2.7-12.8 5.2-19.8 6.4-7.3 1.3-14.7 2-22 3.1-2.5.3-5.3 1.3-7.3-1.4-.3 0-.4-.2-.5-.4" style="fill:#921c2b"/><path d="m858 365c-2.3-1.4-4.5-2.9-6.8-4.3 3.6-9.6 7.1-19.3 10.7-28.9.3-.7.8-1.3 1.3-2 2.4-1.5 2.1 1.1 3 2 0 .3 0 .6.1.9 1 2.7 3.7 3.2 5.8 4.3 1.9 1 2.9 2.2 1.5 4.3-4.6 7.3-8.5 14.9-12.8 22.4-.5.9-1.5 1.7-2.8 1.3" style="fill:#edcca6"/><path d="m976 783c3 11.3 9.3 14.8 20.6 12.3 8.6-1.9 15.4-6.5 20.6-13.2 2-2.6 2.6-6.6 2.8-10 .4-6.9.2-13.9.3-20.9 4.3 10.4 4.1 21.5.2 31.4-2.2 5.7-9.5 9.4-14.5 14-6.7.4-13.3 1.3-20 1-8.1-.4-11.6-6-10-14.5" style="fill:#523735"/><path d="m866 332c-1-.7-2-1.3-3-2 0-.6.1-1.3.1-1.9.2-.4.4-.7.6-1.1 3.1-6.7 6.3-13.4 9.2-20 .9-2.1.8-4.5 1.1-6.8.2-1.3.2-2.7.8-3.7 2.6-4.5 5.4-8.9 8.1-13.3 3.6 3.3-.1 6-1 8.7-1.5 4.6-5.8 9.4-5 13.3 1.3 6.6.2 10-5.2 14.3-3.1 2.5-3.8 8.3-5.7 12.7" style="fill:#603d49"/><path d="m966 31c1.8 1.2 4.1 2 5.4 3.7 3.2 3.9 6 8.1 8.9 12.2-2.1 4.7-4.2 1.9-5.7-.2-4.1-5.9-10.5-8.5-16.4-11.8-2.6-2.5-4.7-1-6.8.9-1.8-.7-3.6-1.4-5.5-2 6.3-4.9 13-4.8 20-2.8" style="fill:#825b41"/><path d="m893 768c-1.1.5-2.2 1.1-3.4 1.6-1.9-8.3-3.8-16.7-5.7-25 2.3-.3 4.6-.6 6.9-.9 1.9-.1 2 1.5 2.3 2.7 1.4 6 3.3 11.8 4.2 17.9-.1 2.8-2.3 3.1-4.3 3.7" style="fill:#837671"/><path d="m913 161c.5.4 1.1 1.1 1.6 1.1 3-.1 5.5 1.3 5.8 4.6.4 5.3 2.8 6.1 7.1 4.4.3-.1.7 0 1 .1.3.1.5.4 1.3 1.1-1.5.6-2.7 1.2-4 1.6-.8.2-2.2-.2-2.4.2-3.9 7.3-7.4.9-11-.3-4.6-4.4-1-8.6.6-12.8" style="fill:#855c3f"/><path d="m914 178c.7 3.7-3.7 8.1-7.3 7.4-1.3-.3-2.5-.8-3.7-1.2 3-3.3 6-6.6 9.1-9.9.7 1.2 1.3 2.5 1.9 3.7" style="fill:#99918f"/><path d="m930 797c2.8-.2 5.5-.5 8.3-.7-2.8.2-5.5.4-8.3.7" style="fill:#e0e1e0"/><path d="m903 184c-.3.3-.6.6-1 1 .4-.3.7-.6 1-1" style="fill:#99918f"/><path d="m950 638c1 24 1.9 48 3.1 72 .4 9.3 1 18.6 2.2 27.8.9 6.8 3.1 13.4 4.6 20 .8 3.6.4 7-2.7 9.5.6 2.9.6 5.8 0 8.6-.2.9-.4 1.8-.6 2.8 0 .4-.1.6-.5.8-.7 1-1.3 2-2 3-2.1-2.5-.1-4.7.3-7.1.9-4.9.2-5.3-4.4-4.5-12.4 2.3-24.8 3.2-36-4.2-1.6-1.1-3.2-1.4-5.2-.9-2.4.6-5.4 2.8-6.5-1.7-1.6 1.1-3.1 1.4-4-.8-1-6.2-.5-12.5-.4-18.7 0-2.2 1.1-4.1 2.6-5.7 2.4-2.3 4.8-4.5 7.1-6.9 2.8-2.6 5.4-5.3 5.8-9.4 4-3.3 2.9-6.8 1.4-11-5.7-16.4-11.7-32.7-12.8-50-.1-2-.3-4 1.2-5.7-.7-11-1-22-2.1-33-.9-9.1-1.1-18.3-4.3-27.3-5.5-15-9.6-30.7-14.8-46-1.5-4.3-3.6-8.3-1.7-12.7.7-1.6 2.4-3.6 3.8-3.8 10-1 20-1.8 30-1.9 2 0 3.9 3.6 6 5.4 1 .9 2 1.7 3.1 2.5.4-1.1 1.2-2.2 1.3-3.4 1.5-14.9 3-29.8 4.3-44.8.2-2.6-.7-5.2-.6-7.8 0-3.8-3-3.6-5.3-4.7-1.7-.8-4-3.2-3.9-4.7.3-5.5-3.2-4.8-6.5-4.9-1.8 0-3.6 0-6.1 0 1.5-2.8 1.4-5.9 5.8-4.4 1.2.4 3.3-1.7 5-2.6.5-.5 1.1-.5 1.7-.2.3.2.4.4.4.6 0-.1-.1-.2-.2-.3-.7-.7-1.3-.6-1.9-.1-1.1-.4-2.7-.5-3.1-1.2-3.9-7.4-10.8-7.5-17.8-7.8-.8 0-1.6-.9-2.4-1.3.8-.2 1.5-.4 2.3-.6-.3-.9-.7-1.8-1.4-3.8 5.5 1.5 10.3 3 15.2 4.1 1.2.3 2.8-.9 4.2-1.4.4-.1 1.1-.6 1.1-.6 3.2 5.2 7.7 2 11.6 1.9.1 2.9.1 2.8-2.6 3-.7.1-1.9.6-1.9 1-.1 2.2-.5 4.7.4 6.5 1.7 3.2 4 6.1 6.5 8.7 4.6 5 6 10.7 3.5 16.9-4.8 11.8-4.9 24-4.7 36.6.1 4.3-.7 8.6-.9 12.9-.1 4.7 2.3 7.2 6.5 5.9 8.1-2.6 12.6 2 17 7.2 2.1 2.5 5.6 4.2 6.9 6.9 1.9 4 2.6 8.7 3.3 13 .4 2.7.5 4.6 4 5.1 6 .9 7 3.9 8.4 9.6 1.7 6.4 1.6 12.4 1 18.8-.4 3.6 2.4 7.3 2.7 11 .3 3.1-.9 6.3-1.6 9.4-.6 2.7-1.6 5.3-2.3 8-.5 1.8-.6 5.2-1.1 5.2-2.9.2-6.3.3-8.8-.9-3.7-1.9-6.9-4.9-10.9-7.9-1 3.6-1.7 6.7-2.5 9.9" style="fill:#3e222b"/><path d="m904 224c-.5 10.6.2 21 4 31 2.5 2.3 2.4 5.3 2 8.3 0 11.6 1.1 23 1.9 34.8 1.2 17.9 3 35.8 4.6 53.6 0 .3 0 .7.1 1 4 20.3-.4 40-5.1 60-.9 3.8-.7 8-3.4 11.3-.7 3.4-3 3.5-5.9 3.1-9.4-1.5-9.4-1.4-7-10.7 1.9-7.6 4.3-15 5.7-22.7 1.1-6.3 1.5-12.8 1.4-19-.3-23-.8-46-1.5-69-.2-5.5-.4-11-1.8-16.3-4.9-18-.5-35.5 2.6-53 .5-3.7 1.5-7.5 2.4-11.4" style="fill:#b1acb1"/><path d="m908 424c1.5-7.4 3.1-14.9 4.3-22.3 1.7-10.4 3.7-20.9 4.4-31.4.4-7.2-1.2-14.5-1.9-21.7-1-9.7-2-19.4-2.8-29-1.4-17.3-2.6-34.6-3.8-52-.1-1.4.5-2.8.8-4.2 1.4-.6 1.8-2.2 3.2-2.9 4.1-2.1 6.8-.7 7.3 3.8.7 7.1-1.2 14.2-.8 21.3.1.7.8-.1.2.1-.1 0-.2-.1-.2-.4.3-2.6-.5-5.3.5-7.9 3.2.9 2.4 3.7 2.5 5.8.2 7.6-.1 15.3.1 22.9.7 21.8 3.4 43 7.1 64.8 1.7 9.8 2.9 19.6 4.2 29.5.9 9.8 1.8 19.6 2.5 29.4 0 .5-2.3 1.8-3.5 1.7-2.1-.1-5.4 1.7-5.7-2.5-.4-6.3-.5-12.6-1.1-18.8-.4-3.9-1.3-7.7-2-11.5-.3-3-1.4-5.9-1.5-9 .2 3 1 6 1.5 8.9-1 8.6-2.1 17.2-3 25.9-.3 3.1-.7 5.8-4.8 5.1-3.4-.8-8.3.6-7.5-5.5" style="fill:#767374"/><path d="m1055 362c-.3 4.7-.6 9.4-.9 14-1 3.8-.3 7.6-.4 11.4-.1 5.1-1.8 7-6.8 6.9-5.2-.1-10.2-1.3-14.6-4.2.3-1.9-.3-3.7-.7-5.6-.2-1.1-.4-2.3.5-3.3.6-.6 1.3-.3 1.8.1 1.1 1 1.8 2.2 1.2 2.8-1.8-11.3-6.4-22.6-8.4-34.5.1-.5.5-.9 1-.9 4.9 1.4 2.8 5.9 4 8.7-.5-4.2-1.4-8.6-.8-13 .5-3.9-.6-6.5-5.2-6.3-.8 0-1.6-.4-2.2-1 9.1-6.8 19.6-8.3 30.6-8 1.3 5.1.3 10.2.5 15.3.4 5.9-.3 11.8.4 17.6" style="fill:#c6a984"/><path d="m1056 307c0 1.3 0 2.6 0 4-.6-1-1.2-2-1.8-3-8.5-4.3-19-2.5-25.3 3.7 5.7-.5 12.3-1.1 19-1.7.1.5.1 1 .2 1.4-.1.2-.3.5-.4.5-8.3.5-8.2.4-7 9 .2 1.3-.6 3.4-1.6 3.9-1.4.7-3.3.3-5 .2-2.2-.1-4.3-.5-6.4-.3-2.9.3-5.8 1.5-5.5-3.4 0-.5-2-1.5-3.1-1.5-3-.1-6.7 3.7-8.6-1.9-.2-.6-3.2-1.1-3.8-.6-2.5 2.2-3.4.9-4.2-1.4-1.1-3.3-2-6.6-3.1-9.8-.3-1-.9-1.9-1.3-2.8-.6.7-1.2 1.5-1.7 2.2-5.2 7.4-10.5 14.7-16.6 21.6 2-4.9 4-9.8 6-14.6 4.3-10 8.7-20 12.9-30.4.6-1.4.6-3.3.3-4.8-.7-4-1.6-8-1.7-12 2.6 5.8 5.3 11.6 7.9 17.4.6 1.3 1.1 2.8 1.1 4.1.1 8.7 1.9 16.5 9.2 22.4 1.5 1.2 1.4 4.5 2.1 7.3 2-1.3 4.3-2.6 6.4-4.3.6-.5.7-1.7 1.1-2.5-.8.1-1.7.2-2.5.2-.9.1-1.8.1-2.7.2.3-.9.5-1.9 1-2.6 1.6-2.1 3.4-4.1 5.2-5.9.2-.2 1.4.7 2.2 1.1 6.7-2.5 13.5-2.5 20.5-1-1.6.1-3.1.2-4.7.3 3 2 6 3.2 9.1.7.2.2.3.4.3.7.1.6.5 1 .9 1.3v-.1c.2.4.6.7.9 1.1.2.6.5.9.7 1.3" style="fill:#361d28"/><path d="m933 400c-3.3-20-6.4-40-9.8-61-3.3-19.4-3-39-3.1-58 0-1.3-.5-2.5-.8-3.8-1.4-5.8.2-11.7-.9-17.5.6-6.5 2.2-12.7 5-18.6 4.7-9.9 7.2-20.6 12-30.5 3.5-7 8-13.3 12.7-19.5.6-.5 1.2-.9 2-1.1.8 0 1.5.2 1.1 1.3-6.1 11.9-13 23.6-18.2 35.9-8.7 20.9-10 43-8.1 65 1.3 14 2.2 28 3.2 42 1.4 18.7 2.9 37 4.4 56 .2 2.9.3 5.9.4 8.9" style="fill:#b2abb0"/><path d="m985 251c-5.2 3.9-10.4 7.8-15.6 11.7-.3-.3-.6-.7-.9-1 4.1-3.4 8.2-6.7 12.4-10-.1-.2-.3-.5-.4-.7-1.4.5-2.8 1-4.7 1.7.4-1.2.8-2.1 1.4-3.8-3.4 1.9-6 3.5-8.8 4.9-.6.3-1.7-.4-2.5-.7.4-.6.7-1.5 1.3-1.9 4.3-2.5 8.7-4.8 13-7.2 1.2-.7 3-1.7 3-2.5-.1-1.4-1.1-3.2-2.2-4-2.7-1.8-5.9-2.8-8.7-4.6-2.8-1.9-5.4-4.2-7.9-6.5-.6-.5-1-2.1-.6-2.6.5-.8 1.8-1.5 2.8-1.5 1.3-.1 2.6.5 3.8.8 5.8 1.4 6.6.6 5.9-5.3-.6-5.8-.9-11.5-1.4-17.4 1.4.6 2.5 1.1 4.4 1.9 0 1.8-.7 5.1.2 7.9 1 3.3 3.5 6.2 1.3 10-.3.5 1 1.9 1.6 2.9 2.7 4.6 5.6 9.1 8.1 13.8 4.4 8.2 6.1 17 5.6 26.5-1.2-4.1-2.7-4-4.8-.9-2.5 3.7-5.2 7.2-7.7 11-1.5 2.3-2.7 5.6-5.8 2.7-1-.9-.6-4.2.1-6.1 2.5-6.3 5.4-12.3 8.1-18.5-.3-.2-.6-.3-1-.5" style="fill:#321c26"/><path d="m1054 446c.2.7.4 1.4.7 2.1-.8 1.3-.7 2.9-1.2 4.3-1.1 3.6-1.7 3.8-6 3.1-.5-.1-1.3 1.3-2.4 1.3-1-.1-2-.2-3-.4-4.4-.8-5.7-3.6-2.8-6.9 2.3-2.6 3.6-5.2 3-8.1 0 6.3-.3 6.6-6.9 7.8-1 .2-2 .6-2.6 1.4-2 2.6-4.7 2.7-7.7 2.5-.1-1.4-.2-2.7-.2-4.1 1.6-3.5-.7-7 .1-10.8.5-2.1.4-3.1 2.5-3.8 1.4-.5 1.9-1.9 2.1-2.5-.6 3.2-5.6 3-7.1 6.2-.4.2-.8.4-1.3.4-.4 0-.8-.2-1.2-.4-.2-.1-.3-.2-.5-.4-.3-.2-.6-.5-.9-.8-.1-.1-.3-.3-.4-.4-.3-.3-.5-.5-.8-.8-.1-.1-.2-.3-.4-.4-.5-.6-.9.3-1.4.1-1.1-.4-2.5-.6-2-2.4.6-6.4 3-11.9 8-16 1-2.3 2.3-4.3 5.3-4.1 2.6 2.2 3.8 5.4 5.5 8.2 3.8 6.4 8.8 10.3 16.8 8.3.8-.2 1.6 0 2.3.6.7 4.1 1.3 8.1 2 12.2-.1 1.4-.9 2.7.5 3.9" style="fill:#bb9772"/><path d="m943 182c4.1-3.9 8.2-7.8 12.2-11.7.4-.3.9-.8.9-1.2.2-9.5 8.7-15.6 10.3-24.4 1.3-7.3 1.6-14.8 2.6-22 .7-5.3 1.4-10.7 3-15.8.5-1.7 4.7-4.1 5.6-3.6 2.2 1.3 4.6 4.1 4.8 6.4.6 6-2 11.2-6.5 15.4-1.3 1.2-1.7 2.3-.9 4.6 1.4 4.1 1.3 8.8 1.8 13.2-2.5-.1-2.4-2.3-3.2-3.8-2.5 6.3-4 12.6.6 18.8.4.8.5 1.7 0 2.4-5.5 7.5-10.2 15.5-17.2 21.8-1.2 1.1-2.6 1.4-4 1.9-2.7 1.3-5.4 2.7-8.1 4-1.7 2.9-4 5-7.5 5.4-.5-.2-.7-.5-.8-1 1.7-3.6 3-7.6 6.4-10.3" style="fill:#c7a883"/><path d="m937 193c2.7-1.7 5.3-3.3 8-5 2.5.1 5 .2 7.7.4-.3.5-1 1.5-1.7 2.6-.4-.3-.7-.7-1.1-1-.3.4-.7.7-.9 1.1-9.7 12.4-16.4 26.3-21 41-2.7 8.6-5.9 17-8.9 25.6-1.7.5-3.5.9-5.2 1.3-1.2.3-2.5 1.4-3.6.1-1-1.2-1.4-2.7-.8-4.2 1.4-3.6 2-7.5 3.7-11l-.2-.3c-1.2-1.6-.7-3.2-.1-4.7 5.3-14 9.4-28.8 19.3-40.7 1.5-1.8 2.5-4.1 4.8-5.4" style="fill:#757172"/><path d="m875 536c-1.6-18.4-4.4-36.8-1.5-55 1.4-9.3 2.4-18.7 3.6-28 .4.3.4 1.1.6 1.2.6.2 0-.1 0-.2-.1-1.9.4-3.9-.3-5.7.2-1.4.4-2.9.6-4.3 3.1 1.8 6.3 3.5 9.3 5.5 1.5 1 4.9 2.1.5 4.1-.6.3-1.2 1.8-1.1 1.8 4.8 3.6.9 7.4.2 11-2.4 12.4-5.7 24.7-7.6 37-1.5 9.8-1.4 19.8-2.3 29.6 0 1-1.2 2.1-2 3.2" style="fill:#623846"/><path d="m953 184c7-8.7 14-17.3 21-26 1.3-2.7 2.3-5.6 4.1-8.1.5 1.1 1 2.2 1.4 3.3.4-.1.9-.2 1.3-.3-.5-2.7-1.1-5.5-1.6-8.2.3-.3.7-.6 1-.8 3.9 4.7 7.8 9.4 11.7 14-2.5 3.6-4.8 7.5-7.7 10.8-5.9 6.6-6.8 14.9-8.4 23-.1.6-.3 1.2-.5 2.3-1.9-1.3-3.6-2.4-5.1-3.5-5.1-4.1-10.6-6.9-17.3-6.6" style="fill:#767374"/><path d="m884 362c-2.3 2-4.6 3.9-6.8 5.9-6.8 1.6-13-.1-19.3-2.8 2-3 4.1-5.9 6-9 2.6-4.2 4.7-8.8 7.5-12.8 2-2.8 2.4-4.3-1.1-6.1-1.7-.8-2.7-2.9-4-4.5 5.4 2 10.6 4.5 16.2 6 3.2.8 4.1 2 3.7 5-.9 6.1-1.5 12.2-2.2 18.3" style="fill:#c5a780"/><path d="m914 724c-4.4-9.6-9.6-19-12.8-29-2.2-6.9-1.4-14.8-2-22 .3-4.4.6-8.7.8-13 .1-2.1 0-4.1 3-3.8.8 16.8 3.9 32.9 11 48 2 4.3 3.2 9 3.7 13.7.3 1.8-2.3 4-3.7 6.1" style="fill:#56303a"/><path d="m940 411c7 8.3 13 15.4 18.8 22.5.3.3-.9 2.6-1.1 2.5-5-1.3-10-2.5-14.9-4.5-1.3-.5-1.7-3.8-1.9-5.8-.4-4.5-.5-9.1-.9-14.7" style="fill:#633b4a"/><path d="m1016 447c-1.6 1.7-3.2 3.5-4.7 5.2-9.6-1-9.6-1-3.7-9.4 1.2-1.8 2.3-3.7 3.4-5.5 3.8-2.1 4.4 1.2 5.6 3.4.4 2.2-.6 4.2-.6 6.3" style="fill:#b99c78"/><path d="m1023 337c10.3-.1 8.5-1.4 8.7 8.9 0 2.1 0 4.2 0 6.3 0 2.1 0 4.3 0 6.3-1.6-3.2-3.1-6.5-4.7-9.8-3.6-2.8-4.2-6.9-4.4-11-.1-.3.1-.5.4-.7" style="fill:#eccaa4"/><path d="m1023 338c1.5 3.7 3 7.4 4.4 11 0 0-.3.3-.3.3-.4 5 .6 10 1.5 14.9.5 2.7 1.8 5.4-.4 8-2-8.6-4-17.2-6.1-25.8-.6-2.4-1.3-4.7-2-7.1 1-.4 1.9-.8 2.9-1.3" style="fill:#a6947b"/><path d="m915 200c.1 1.4.7 3.1.1 4.2-3.6 6.7-7.5 13.2-11.3 19.8.7-2.6 1-5.4 2.1-7.9 2.5-5.5 5.4-10.9 8.2-16.3.1-.1.3-.2.4-.2.2.2.3.3.5.4" style="fill:#b4a6a8"/><path d="m1016 441c-1.7-1.3-3.4-2.6-5.1-3.8-1.2-3.1.2-4.3 3.2-4.3 1 .7 2 1.3 3 2 .4-.3.7-.2 1 .1.4.3.7.7 1 1 .4.3.7.7 1 1 .4.3.7.7 1 1 2.1 3.3-.9 4.7-2.8 5.7-2 1-2.1-1.3-2.3-2.7" style="fill:#c3b5b2"/><path d="m1055 362c-.3-5.1-.7-10.2-.8-15.3-.2-5.8-.1-11.7-.1-17.5 1 .3 1.9.5 2.9.8-.6 1.7-1.6 3.5-1.7 5.2-.2 8.9-.2 17.8-.3 26.8" style="fill:#827569"/><path d="m1054 308c-1.1.5-2.3 1.5-3.3 1.4-3.2-.4-6.3-1.3-9.5-2.6 4.3.4 8.5.8 12.8 1.2" style="fill:#361d28"/><path d="m897 642c0-1 0-2-.1-3 1.5 1 3.1 1.9.1 3" style="fill:#3e222b"/><path d="m899 664c-.2-1.8-.4-3.6-.7-5.4.2 1.8.4 3.6.7 5.4" style="fill:#56303a"/><g style="fill:#3e222b"><path d="m893 617c-.1-.6-.2-1.2-.3-1.9.3-.1.5-.2.8-.3-.1.7-.3 1.4-.5 2.2"/><path d="m898 657c0-1-.1-2-.1-3 0 1 0 2 .1 3"/><path d="m894 620c-.2-.6-.3-1.3-.5-1.9.2.6.4 1.3.5 1.9"/><path d="m896 628c-.1-.3-.1-.6-.2-1 .2.2.4.4.5.6 0 .1-.2.3-.3.4"/><path d="m895 625c-.2-.3-.2-.6-.1-1 .1.2.3.4.4.7 0 0-.2.2-.3.3"/></g><path d="m959 123c-2.1-1.4-4-3.1-6.3-4.1-3.4-1.5-6.7-1.5-9.5 1.6-2.9 3.3-6 6.4-8.3 8.9-2.5-.4-4.9-.4-6.9-1.3-1.4-.6-2.4-2.5-3.3-3.9-.9-1.4-1.2-3.1-2.3-4.3-.8-.9-2.5-1.8-3.6-1.6-1 .2-2.3 1.8-2.5 3-.7 3.8-.9 7.7-1.5 12.5-3.8-5.6.4-10.8-1.1-16-1.9 2.8-3.7 5.4-5.5 8.2-.3-.3-1.2-1-2.2-1.8-2.8-.8-1.5-2.6-1.1-4.1.6-4.1 4.3-5.3 7.1-7.3.9-.6 1.9-1.3 2.4.4-.2.4 0 .7.3.5.1-.1-.4-.5-.3-.9-1.6-2.2-4-1.9-6.2-2.1-2.1-.2-4.3.3-5.9-1.7-1.2-6.2.9-12.3.7-18.5.8-2.2 1.5-4.4 2.6-6.4 1.8-3.3 3.5-6.2 8.6-5.2 3.8.7 8-.6 12-1.1 7.2-.9 8.4.3 8.9 7.5.4 5.1 1.6 10 2.5 15.2.8-.1 1.7-.3 2.5-.4-.5-2.8-1.1-5.7-1.6-8.5-.5-2.9-.9-5.9-1.4-9.5 1 1.2 1.9 1.9 2.2 2.8 2.3 5.3 5.8 8.1 11.8 9.2 7.2 1.3 10 7.2 9 14.5-.3 4.6-.6 9.6-1.1 14.5" style="fill:#c6a883"/><path d="m937 193c-.8 1.3-1.4 2.7-2.3 3.8-11.3 13.8-16.7 30.4-21.9 47-1.9-4.2-4-8.2-5.7-12.5-1.6-4.1-.4-7.7 1.7-11.6 3.9-7.4 6.7-15.3 10-23-.4-1-.6-1.9.2-2.8 1-.3 2-.7 2.9-1 .8-.5 2-.6 2.1.2 1.1 4.9 3.8 2.7 6.4 1.7 2.2-.9 4-2.8 6.6-1.9" style="fill:#c8a882"/><path d="m997 124c1.4 4.4 2.5 8.9 4.2 13 2.1 5.3 4.8 10.3 7.3 15.4.4.9 1.7 1.4 1.9 2.2.4 1.7.5 3.6.3 5.3 0 .4-2 1.1-2.3.9-1.1-1-2.1-2.3-2.7-3.7-1.5-3.8-2.8-7.6-5.3-11.3-.8 3-1.5 6.1-2.3 9.1-1.2-5.9-4.4-11.3-3.1-17.7.8-4.3 1.3-8.8 2-13.3" style="fill:#7a543a"/><path d="m937 193c-3.6 1.7-7.2 3.4-10.7 5.2-2.2 1.1-3.6 1.5-2.6-2 .2-.8-1.1-2.2-1.7-3.3 1.9-2 3.7-4.3 5.8-6 2.7-2.3 4.8-2.3 4.3 2.2-.1.6 0 1.2.5 2.2-1.9-9.7 6.5-6.9 10.5-9.2-2.1 3.6-4.1 7.2-6.1 10.9" style="fill:#a17c62"/><path d="m927 145c-9-.7-9-.7-10.5 5.8-2.8-3.2-3.6-7.2-1.7-9.4 2.7-3.3 6-1.9 9-.7 3.6 1.5 7.2 3 10.3 5.3 1.1.8.5 4 .7 6.1-2.5.1-5.4 1.1-7.2 0-1.9-1.2-4.8-4-.6-7.1" style="fill:#bfa07b"/><path d="m990 98c2.2 8.1 4.4 16.2 6.6 24.3-.9-.4-1.7-.7-2-.8-.3 5.5-.6 11.2-.9 16.8-.2 0-.4 0-.7 0 0-3.1 0-6.2 0-9.3-.1 0-.3-.1-.4-.1-1 4-2.1 8.1-3 11.6-.3-7.9-1.5-16-.5-24 .6-4.7.1-8.8-.3-13.2-.1-1.7.8-3.5 1.2-5.3" style="fill:#7a543a"/><path d="m978 150c-1.4 2.7-2.8 5.4-4.1 8.1-1-.4-2.9-.7-3-1.2-1.4-6.9-1.5-13.6 2.4-20.3 1.2 2.3 2.3 4.4 3.4 6.5.3 2.2.8 4.5 1.3 6.9" style="fill:#edcea7"/><path d="m983 87c-6.1-6.6-8.7-15-7.6-23 .5-3.9-1.6-8.3 1.7-13 2 12.7 3.9 24.4 5.9 36" style="fill:#8f6648"/><path d="m955 93c-9.1-2.4-13-8.2-16.3-15 1.8-.6 3.3-1.3 4.9-1.5.8-.1 2.3.9 2.5 1.6 1 4 2.4 5.6 4.8 7.8 1.6 1.5 2.3 4 4.1 7.2" style="fill:#c4a483"/><path d="m899 95c-.7 8.3-1.4 16.7-2.2 25.5-2.3-4-1.6-15.9 2.2-25.5" style="fill:#f4e8d7"/><path d="m990 83c-.3.9-.6 1.9-.9 2.8-.9-5.7-1.9-11.4-2.8-17 1.1 4.8 2.4 9.5 3.7 14.3" style="fill:#b29480"/><path d="m951 35.8c1.8-1.2 3.5-2.3 5.3-3.5.5.9 1 1.7 1.5 2.6-2.3.4-4.6.6-6.8.9" style="fill:#c2946d"/><path d="m987 114c.3 2.7.5 5.3.8 8-.3 0-.6.1-.8.1-.4-2.6-.8-5.2-1.1-7.8.3-.1.7-.2 1.1-.3" style="fill:#7a543a"/><path d="m986 69c-.3-.6-.7-1.3-1-1.9.2-.1.5-.2.7-.2.1.7.2 1.4.3 2.1" style="fill:#b29480"/><path d="m905 129c.4.2.8.4 1.3.6-.4-.2-.8-.4-1.3-.6" style="fill:#b7906b"/><path d="m1027 413c1.4-6.4 2.7-12.8 4.1-19 3.1.8 5.5 4 9.1 2.6-3.3-.7-6.7-1.3-9.1-4.3-.6-1-1.1-2-1.7-3 .3-.8 1.3-.6 1.8-1.1.9-.3 1.2 0 1.1.9 4.7 1.3 9.3 3.1 14 3.9 4.8.8 6.9-1.6 7.1-6.5.1-3.4.4-6.9.6-10.3.3 8.6.7 17.3 1 25.9-4.7 2.1-9.6 2.4-14.9 1.1 4.8 2.4 9.6-1.1 14 1 .5 1.4 1.1 2.7 1.6 4.1 1.7 1.5.7 2.7-.4 3.9-.1.3-.3.7-.4 1-.4.1-.5.4-.3.8.1.3.2.4.2.4-.1.6-.1 1.1-.2 1.7-.9 1.3-1.9 2.7-2.8 4-5.4 3.7-6.5 3.7-11.6.5-2.9-1.8-5.3-4.3-8.2-6.2 1.5 4.4 5.5 6.2 8.9 8.8 3.9 3 7.5 1.9 11-.2 2.7 2.5 1.8 4.8-.3 7.1-10.8 2.4-14.8.6-20.6-9.2-1.3-2.6-2.8-5.2-4.3-7.7" style="fill:#3e2c23"/><path d="m1054 404c-5.1.3-10.3.5-15.4.8 0-.6-.1-1.2-.1-1.8 5.4-.3 10.9-.7 16.3-1-.2.6-.5 1.3-.8 2" style="fill:#b3a08d"/><g style="fill:#e2e7e5"><path d="m1055 412c.1-1.3.3-2.6.4-3.9 3 1.6 2.6 2.9-.4 3.9"/><path d="m1055 414c0-.4.1-.8.1-1.2 0 .4 0 .8-.1 1.2"/></g><g style="fill:#482935"><path d="m1056 307c-.3-.3-.5-.7-.8-1 .3.3.5.7.8 1"/><path d="m1055 306c-.3-.4-.6-.7-.9-1.1.3.4.6.7.9 1.1"/><path d="m1054 305c-.3-.4-.6-.8-.9-1.3.2.4.6.8.9 1.3"/></g><path d="m1025 453c2.8-1.8 5.6-3.5 8.5-5.3.4-.3 1-.7 1.4-.5 8.4 3 6.1-3.5 6.7-7.5.1-.5.2-.9.2-1.4.4.1.9.2 1.3.2-.8 3.3-1 7-2.6 9.9-2.6 4.7-2.4 5.8 2.9 6.7.4.1.7.6 1.1.9-.2.2-.3.3-.4.5-1.2.8-2.8.5-4.2 1.8 1.2 1 2.9.4 3.8 1.5.2.4.2.9-.1 1.3-4-.6-6.7.1-6.1 5.3.2 1.6-1.3 3.4-2.8 4.8.3-1.2.6-2.4 1-3.6 1.1-2.9 1.7-5.5-2.5-6.3-.5-.1-1.1-.4-1.3-.7-3.8-7.8-4.1-1.9-5.1 1.3-.4-1.7-.8-3.4-1.2-5.1-.1-.5.1-.9.4-1.2.3-.4.6-.7.9-1.1-.4.3-.7.7-.9 1.1-.2.4-.6.6-1.1.5.1-1 .1-2 .1-3.1" style="fill:#745d4b"/><path d="m1016 441c.7.8 1.4 1.6 2.1 2.3 1-1.8 2-3.6 3-5.4 3.4-2.8 6.8-5.6 10.2-8.4.2 0 .4.1.5.1-1.8 2.3-3.6 4.6-5.5 7.1.3.2 1.3 1 2.3 1.7-.5 0-1 0-1.5-.1-.6 3.5-1.2 6.9-1.8 10.4-.6-2.5-1.2-5-1.8-7.5-1.9 1.4-3.8 2.7-5.7 4.1-.6.5-1.2 1-1.8 1.5 0-1.8 0-3.8 0-5.8" style="fill:#876e59"/><path d="m1025 456c.2-.1.4-.2.6-.1l.2.2c0 .2 0 .4-.1.6-.2-.3-.5-.5-.7-.7" style="fill:#bb9772"/><path d="m899 764c3.5.4 6.9 4 10.7.3.5-.5 2.8.3 4 1.1 7.5 4.9 15.4 7.8 24.6 5.9 4.9-1 10.4 1 14.8-2.8.1-.1 2.8 1.7 2.7 2.6-.3 4-1.2 8-1.8 12 0 .3 0 .7-.1 1-8.2.7-16.6.6-24.7 2.3-7.7 1.6-15.3 4.5-22.4 8-11.2 5.5-22.7 5.6-34.5 4-6.8-1-13.6-2.6-20.3-4.2-3.4-.8-4.9-3.2-3.9-6.8 8.4-.9 16.8-1.5 25-2.8 6.1-1 12.2-2.4 18-4.5 3.9-1.4 7.4-4.1 10.7-6.6 1-.7 1.5-3.4 1-4.4-.7-1.4-2.3-3.1-4.7-1.1-1.1.9-3.3.3-5.1.4 1.3-1.1 2.5-2.1 3.8-3.2.4-1 1-1.6 2.1-1.2" style="fill:#69131e"/><path d="m980 756c.7-4.7 1.4-9.3 2.1-14 1.2.7 3.4 1.2 3.4 2 .7 6.2 2.5 12.4-.3 18.8-1.7 3.8-1.9 8.3-3.1 12.3-.5 1.5-1.9 2.8-2.9 4.2-.6-1.4-1.1-2.8-1.7-4.2.8-6.4 1.7-12.8 2.5-19" style="fill:#90202d"/><g style="fill:#69131e"><path d="m957 776c0-2.9 0-5.8 0-8.6 0 2.8 0 5.7 0 8.6"/><path d="m956 780c.1-.3.2-.6.5-.8-.2.3-.3.6-.5.8"/></g><path d="m875 372c-2 2.6-3.9 5.1-5.9 7.7-5.2-.9-15.9-9.8-17.2-14 7.5 2.1 15.3 4.2 23 6.3" style="fill:#bb9d7e"/><path d="m1044 461c0-.3 0-.6-.1-.9 2.8-.8.7-2.8 1.1-4.2 1.4.1 2.7-3.6 4.3-.2.9-.7 2.1-1.3 2.7-2.2 1.1-1.7 2-3.7 2.9-5.5.3 7.8-.2 15.5-3.1 22.9-.2.4-.4.8-.7 1.1-.5-2.5.1-5.6-4.2-5.6-1.1-.1-2-3.6-2.9-5.4" style="fill:#7f6f61"/><path d="m1052 423c-2.9 6.7-7.2 3.8-11 1.3-3.5-2.3-6.8-5.1-9.8-8-1.1-1-1-3.2-1.9-6 7.8 4.8 12 15 22.5 9.8.1 1 .2 1.9.3 2.9" style="fill:#b69c7f"/><path d="m1054 446c-.1-1.3-.2-2.6-.3-3.8.1 1.2.2 2.5.3 3.8" style="fill:#7f6f61"/><path d="m1051 472c.2-.4.5-.7.7-1.1-.2.4-.5.8-.7 1.1" style="fill:#bb9772"/><path d="m942 140c2-3.6 3.9-7.2 6.1-10.7.4-.7 1.9-.7 2.9-1.1.1 1 .6 2.4.2 3.1-2.1 3.5-4.4 6.8-6.7 10-.9-.4-1.7-.9-2.5-1.4" style="fill:#8b613e"/><path d="m913 244c-.9 3.6-1.7 7.2-2.6 10.9-.7 3-1.2 5.6 3.5 3.2 1.4-.7 3.4-.2 5.1-.2 0 6.3 0 12.6 0 18.8 0 3.3 0 6.5 0 9.8-.4 0-.7 0-1.1 0 0-7 .1-14 0-21 0-1.7-.5-3.5-.8-5.2-2 .5-4 1-6 1.5-.8.2-1.5.7-2.3 1-.3-2.6-.6-5.3-.9-7.9.7-1.5 1.4-3.1 2.1-4.6 1-2.1 2-4.1 3-6.2" style="fill:#535052"/><g style="fill:#62422c"><path d="m919 194c-.1.9-.2 1.9-.2 2.8 0-.9.1-1.9.2-2.8"/><path d="m918 187c-.1.1-.1.3-.2.4.1-.1.1-.3.2-.4"/><path d="m918 187c.3-.3.7-.7 1-1-.3.3-.7.7-1 1"/></g><g style="fill:#482935"><path d="m919 462c.7.9 1.4 1.8 2.1 2.7-.6 0-1.8.2-1.8.1-.2-.9-.2-1.9-.3-2.8"/><path d="m976 617c-.1.3-.2.7-.4.8-.2.1-.5-.2-.8-.3.1-.3.2-.7.4-.8.2 0 .6.2.8.3"/></g><path d="m945 768c.3.1.7.2.8.4.1.2-.2.5-.3.8-.3-.1-.7-.2-.8-.4-.1-.2.2-.5.3-.8" style="fill:#69131e"/><g style="fill:#482935"><path d="m919 462c-.7 0-1.3 0-2 0 .7 0 1.3 0 2 0"/><path d="m896 451c.4.1.9.2 1.3.4-.4-.2-.9-.3-1.3-.4"/><path d="m877 448c.4 2.3.7 4.6 1.1 6.8-.3 0-.6.1-.9.1-.1-.7-.3-1.5-.4-2.2 0-1.5.1-3.1.2-4.7"/><path d="m923 398c-.8-3.2-1.6-6.4-2.4-9.6.4-.1.8-.2 1.2-.2.4 3.2.8 6.5 1.2 9.8"/><path d="m920 381c-.4-1.3-.8-2.5-1.2-3.8.3-.1.6-.1.9-.2.2 1.3.2 2.7.3 4"/><path d="m920 381c.4 1.3.8 2.5 1.1 3.8-.3.1-.6.1-.9.2 0-1.4-.1-2.7-.2-4"/></g><path d="m1032 389c-.4-.3-.7-.6-1.1-.9-.3-.8-.6-1.5-.9-2.3.6-4.8-1.6-9.2-2.2-13.8v.1c-1.1-8.1-2.2-16-3.3-24 .6.4 1.4.8 2.2 1.3 3.5 12 8 23.9 8.9 36.6-.5.1-1 .2-1.4.3-.2-.8-.2-1.7-.5-2.5-.2-.7-.7-1.3-1.3-2.3-.2 3-.4 5.3-.5 7.7" style="fill:#eccba6"/><g style="fill:#482935"><path d="m1028 303c-.4.2-.7.5-1.1.7-.1-.1-.2-.3-.3-.4.5-.1.9-.2 1.4-.3"/><path d="m949 191c.3-.4.6-.7.9-1.1-.3.4-.6.8-.9 1.1"/></g><path d="m878 397c.3.8 1.1 1.8 1.1 2.7-.1 3.2-1.8 5.3-5 5.5-.6 0-1.6-1.8-1.8-2.8-.8-3.9 2.1-4.6 5.7-5.4" style="fill:#fefefe"/><g style="fill:#876e59"><path d="m1019 436c-.3-.3-.7-.7-1-1 .3.3.7.7 1 1"/><path d="m1020 437c-.3-.3-.7-.7-1-1 .3.3.7.7 1 1"/><path d="m1018 435c-.3 0-.7-.1-1-.1.3.1.7.1 1 .1"/><path d="m1021 438c-.3-.3-.7-.7-1-1 .3.3.6.7 1 1"/></g><path d="m980 107c-2.8 1-4.8 1.7-6.7 2.3 1.2-4.2 1.7-4.4 6.7-2.3" style="fill:#896b47"/><path d="m1031 392c3.9 1.4 7.7 2.8 11.7 4.2-5.9 2.8-8 2.3-11.7-2.6 0-.5 0-1 0-1.6" style="fill:#b59c88"/><path d="m1028 372c.7 4.6 1.5 9.2 2.2 13.8-.7-4.6-1.5-9.2-2.2-13.8" style="fill:#a6947b"/><path d="m1031 388c-.6.4-1.2.7-1.8 1.1.6-.4 1.2-.8 1.8-1.1" style="fill:#eccba6"/><path d="m921 107c6.2-.6 12.5-1.3 18.7-1.7.7 0 1.6 1.4 2.3 2.2-.9.5-1.9 1.3-2.8 1.4-2.1.2-4.2.1-6.5.9 1.2.4 2.5.6 3.5 1.2.7.5 1 1.6 1.6 2.4-.5-.3-1-.8-1.5-.8-2.1-.2-5.2-1.2-6.3-.2-2.6 2.5-2.8-.5-4-1.1-1.7-.8-3.3-1.7-5-2.6 0-.5 0-1.1 0-1.7" style="fill:#6f5034"/><path d="m904 111c-.3-.7-.6-1.4-.9-2 2.3-.1 4.6-.2 6.8-.3 3.4-.1 5.2 1.4 5 5-.3.5-.5.5-.7 0-.4-.3-.8-.6-1.3-.9-3.5 1.8-6.2-.2-8.9-1.8" style="fill:#5e3f26"/><g style="fill:#b7906b"><path d="m904 111c3 .6 6 1.2 9 1.8-2.3 2.4-4.6 4.7-6.9 7.1-.7-3-1.4-6-2.1-8.9"/><path d="m920 116c.9-1.6 1.8-3.2 2.7-4.7.4.2.7.4 1.1.6-.9 1.6-1.8 3.1-2.8 4.7-.3-.2-.7-.4-1-.6"/><path d="m914 114c.2.1.5.1.7 0-.1.2-.3.5-.4.7-.1-.2-.2-.4-.3-.7"/></g><g style="fill:#62422c"><path d="m927 190c-.4.3-.8.5-1.1.8.3-.3.7-.5 1.1-.8"/><path d="m927 190c.1-.2.3-.3.4-.5 0 .1 0 .2-.1.2-.1.2-.2.2-.3.3"/><path d="m922 143c-1.6 0-3.2 0-4.8 0 0-.1 0-.3 0-.4 1.7 0 3.3 0 5 0-.1.1-.2.2-.2.4"/></g><path d="m1050 415c-2.4 0-4.9 0-7.3 0 0-.3 0-.7 0-1 2.4 0 4.9 0 7.3 0 0 .3 0 .7 0 1" style="fill:#a28973"/><path d="m1045 456c1.9 2.8 1.7 3.9-1.1 4.2-1.8-.5-5.1-1.2-5-1.5.4-4.2 3.8-2.2 6.1-2.7" style="fill:#bb9772"/><path d="m1034 459c-.1-1.6-.3-3.3-.3-4.9 0-.1 1.1-.2 1.7-.3.1 1.7.3 3.4.4 5.1-.6 0-1.2 0-1.8.1" style="fill:#b4aaa1"/><path d="m1026 456c1.1-1.1 2.2-2.3 3.3-3.4.4.5.8 1 1.2 1.5-1.4.7-2.9 1.4-4.3 2.1 0 0-.2-.2-.2-.2" style="fill:#bb9772"/><path d="m850 362c-.5 10 6.3 15.2 14 19.8-6.9 2.9-14.6-1.3-18.9-10 1.6-3.3 3.3-6.5 4.9-9.8" style="fill:#cab090"/><path d="m824 396c-3 2.3-5.8 5.2-9.2 6.6-5 2-10.5 3-15.7 4.4 1-4.3 3.8-6.3 8.2-7.1 5.6-1 11.2-2.6 16.7-3.9" style="fill:#685446"/><path d="m832 393c1.3 5.4 2.5 10.7 4 16.7-4.9-2.1-8.4-4.5-8.8-9.8 1.3-1.5 4.4-2 2.7-5 0-.3.1-.6.2-.9.7-.4 1.3-.7 1.9-1" style="fill:#a88367"/><path d="m799 431c.8 0 1.5.1 2.3.1-.8 0-1.5 0-2.3-.1" style="fill:#663d29"/><path d="m833 391c-.2.4-.4.7-.6 1.1.2-.4.4-.8.6-1.1" style="fill:#a88367"/><path d="m864 327c-.2.4-.4.7-.6 1.1.3-.4.5-.7.6-1.1" style="fill:#edcca6"/><path d="m818 429c-.3.4-.5.8-.8 1.2.3-.4.6-.8.8-1.2" style="fill:#e4e7e6"/><path d="m842 415c-1.7-4.3-3.5-8.6-4.9-13-1-3.1.1-4.9 3.8-3.5 1.1.4 2.2.5 3.4.8 3.7.8 7.3 1.5 2.7 6-.3.3.6 1.7 1 2.6-2.4 2-2.9 5.7-6 7.1" style="fill:#a78261"/><path d="m842 415c2-2.4 3.9-4.7 5.9-7.1 2.9 2 3.5 4.8 2.2 7.8-.8 1.7-2.6 3-3.9 4.5-1.4-1.8-2.8-3.5-4.2-5.2" style="fill:#e2e1e0"/><path d="m802 424c-.9-6.5 2-9.6 7.7-8.5.8.2 1.4.7 2.2 1-.5.8-.8 1.7-1.5 2.3-1 .9-2.1 1.6-3.2 2.3-1.7 1-3.5 1.9-5.2 2.9" style="fill:#7e6e67"/><path d="m860 398c.6 5.9-.4 7.4-5.6 8.5-1.8-5.3.2-8 5.6-8.5" style="fill:#dddfdc"/><path d="m830 395c.6.7 1.2 1.3 1.8 2-1.5 1-3 2-4.5 3.1-1-2.8.2-4.3 2.7-5.1" style="fill:#dfc2a1"/></g></g></svg>