<svg xmlns="http://www.w3.org/2000/svg" viewBox="0 0 1266.1 848" style="enable-background:new 0 0 1266.1 848"><g><g><path d="m752 402c-1.2-6.6-.4-13.6-.5-20.4-.1-.4-.3-.8-.4-1.3 0-.2-.1-.5-.2-.7-.2-2.1-.4-4.2-.6-6.3 0-1.9-.2-3.9-.6-5.8v.1c-.9-3.7-.8-7.4-.1-11-2.6-7.3-5.2-14.6-7.8-21.9-.4-2.3-.8-4.6-1.1-6.9 0-.1 0-.1 0-.2-1-1-2-2-3-3 0 0 0 0-.1 0-.3-1.8-.7-3.7-1-5.5-1.9-8.5-3.8-17-5.7-25.6-1-8.7-3.6-17.6-2.6-26 1.5-13 1.2-25.4-2.9-37.8-.1-.4-.3-.8-.4-1.1 0-.3-.1-.6-.3-.9-.1-.7-.2-1.3-.3-2-.3-.4-.5-.7-.8-1.1 0 0 0 0 0 0-.6-.5-1.7-.4-2-1.5-10.9-7.1-21.9-14.3-32.8-21.4-.5-2.2-2.6-2.9-4.2-3.9-.6-.3-1.1-.7-1.7-1.1-2-3.8-2.1-8.8-6.4-11.3-.1 0-.1 0-.2 0-1-1.6-2.7-3.2-2.5-4.6.6-5.6-2.4-8.7-6.7-11-.7-.2-1.1-.6-1.5-1.1-.3-.3-.6-.6-.9-.9-.1-1.8-.8-3.8-.3-5.5 1.5-5.9 3.4-11.7 5.1-17.6 5-2.4 6.3-7.3 8.7-11.7 1.9-3.5.4-4.1-1.8-5-2.2-.9-4.6-1.5-6.9-2.2-1.4-7.3-2.8-14.7-4.2-22-.8-.7-10.4-15.9-12.5-16.7-4.6-1.7-9.5-2.4-14.3-3.5-3.9-.2-8.1-1.3-11.8-.4-8.9 2.1-16.9 6.8-22.6 13.6-6.5 7.9-11.2 17-11.6 28-.3 9.2 2.6 16.9 7.8 24 2.3 1.4 5.7 2.3 6.5 4.2 1.1 2.6.1 6.1 0 9.2 0 .5-.2 1-.3 1.4-4.7 4.3-9.4 8.7-14 13 .5-.3.9-.5 1.4-.8-.4.3-.9.6-1.4.8-.2 2.8-.7 5.6-.5 8.3.1 2.3 1 4.5 1.5 6.7-.5.6-1 1.3-1.4 1.9-16 8.8-30 20.3-44.5 31.9-6.1 5-10 10.6-10.9 18-.6 5.1 0 10.3-.1 15.5-.1 3.7.1 7.7-1 11.2-4.7 14.8-9.9 29.5-14.9 44-.3.9-.3 1.9-.3 2.9 0 3.3.2 6.5.2 9.8-1.6 4-5.2 7.5-3 12.5-.9.8.3 2.3-1 3-.3.7-.5 1.4-.8 2.1.2.3.4.7.4 1-.1-.3-.3-.7-.4-1-.1.6-.1 1.2-.2 1.9-.3.4-.7.8-.8 1.2-4.4 20.6-8.7 41-13 61.9-.3 2-.6 3.9-.9 5.9-.1.3-.1.7-.2 1-.7 2.9-1.3 5.8-2 8.7-.4 2.1-.8 4.1-1.1 6.2-.3.7-.5 1.4-.8 2.2.2 1.6.2 3.1.1 4.6 0-1.5-.1-3.1-.1-4.6-.7 4.6-1.5 9.2-2.2 13.8-.2 1.1-.5 2.2-.7 3.3-2.7 3.9-2.5 7.8 0 11.7.9 2.9 1.7 5.8 2.6 8.7 0 .2.1.3.2.5.3.6.7 1.3 1 1.9l.1.1c0 0 0 0 0 0 .5.6.7 1.2.1 1.9.2.4.3.7.5 1.1.3.6.7.9 1.2 1.1 2.1 2 4.1 3.9 6.2 5.9.7.6 1.5 1.3 2.2 1.9 7.2 6.4 11 5.7 15-2.9-.3-.7-.7-1.4-1-2.1-3.1-2.8-6.2-5.6-9.2-8.4-1.4-2.5-2.7-5-4.1-7.6-.1-.3-.1-.6-.2-.9-.2-.4-.4-.8-.6-1.2-.1-1-.2-1.9-.3-2.9.3-.5.6-.9.9-1.4.4-1.2.9-2.4 1.3-3.7.5-.6 1.4-.5 2-1 4.7.5.3 3.3 1.2 4.7.3 2.9-.1 6.1 1 8.7.9 2.2 3.2 4.9 5.3 5.2 3.5.6 5.2-2.7 5.3-5.8 0-2.6-1.1-5.3-1.8-8 0-2.8.3-5.7 0-8.4-.3-2.8-.6-5.7-1-8.5 1.4-2.4-.5-4.8-1-7.2 0-.3-.1-.5-.1-.8-.3-.4-.5-.7-.8-1.1-.4-.7-.7-1.3-1.1-2-.6-1.7-1.1-3.4-1.7-5.1.2-1.3.4-2.6.6-3.8-2.9 1.7 6.9-18.3 5.8-14 2.3-4.1 20.5-47 21-47l.2.2c.6-1.1 1.1-2.1 1.7-3.2 1.4-2 2.8-3.9 4.2-5.9.3-.7.6-1.4.9-2.1-.1 0-.2-.1-.2-.3-.1-.2 0-.4.3-.5-.1.3-.1.5-.1.8 0-.3.1-.5.1-.8.2-.3.5-.5.7-.8.3-.1.6-.2.9-.5.5-.5.9-1.1 1.2-1.8.9-1.9 2.2-3.7 3.5-5.3 1.6-1.9 1.7-3.8-.4-5.5.9-.6 1.8-1.2 2.6-1.8.1-.1.2-.1.3-.2s-.2.1-.3.2c.2 0 .3-.1.3-.2 6.3-1.2 2.1-6 3-9.1.5-.6.4-1.4 1-2 .5-.8 1.1-1.5 2-2 .5-.6 1.4-.5 2-1 .3-.3.6-.6.9-.9 0-.7.1-1.4.1-2.1.4-1.4.7-2.7 1.1-4.1 1.3-1.7 2.6-3.4 3.9-5.2.5.9.9 1.7 1.4 2.7.1 1.1.6 2.3.6 3.3 2.6 6.5 5.6 12.9 5.1 20-1.4 4.7-1.9 10-4.5 13.9-4.8 7.2-4.7 13.9-.9 21 1 .3.8 1.4 1.3 2 .3 2.9-.9 5.7 2.3 8.6 1.8 1.7.6 6.7.7 10.3-2.3 2.2-5.4 3.9-6.8 6.6-2.6 5.2-4.3 10.8-6.3 16.3-1.9 2.3-5.4 4.5-5.5 6.9-.4 8.9-4.8 16-8.4 23.6-1.4 2.9-2.3 6.1-3 9.2-2.7 12-4.6 24.4-8 36-2.7 9.7-2.2 13.2 6.6 17.9 2.6 1.4 5.5 2.2 8.3 3.3.1 10 .4 20 .3 29.9-.1 5.1-3.4 10.3.5 15.2-.2 2.3-.7 4.7-.5 6.9 1.3 15.9-2.3 31-4.5 46.8-1 6.8-4.3 13.4-4.7 20-.5 7.8 1.8 15.8 1.6 23.7-.4 12.5.3 25.3-7.2 36.5-.4.5-.6 1.3-.5 1.9.3 10.2.7 20.5 1.1 30.7-.3.3-.6.6-.9 1-1.1 3.2-2.2 6.4-3.3 9.7-2.2 2.2-4.3 4.4-6.5 6.6-.4.9-.8 1.8-1.3 2.7-.4.9-.9 1.7-1.4 2.5.5-.8.9-1.6 1.4-2.5-4.9 4.1-9.8 8.2-14.6 12.4-.7.6-1 1.6-1.5 2.5-5.2 3.7-6.9 9.4-8.9 15-3.8 5-2.8 10.8 2.8 12.7 6.2 2.1 12.7 3.1 19 4.6 5.7-.4 11.4-.9 17-1.3 9.7-6.6 17-16.6 29.7-19 5.9-1.1 7.7-4.4 6.4-10.4-.6-2.8.5-4 2.1-5.5 5.9-4 4.8-10.2 5.2-16 1.1-5 2.3-10 3.2-15 .2-1.4-.8-3-1.3-4.6-.6.2-1.2.4-1.8.6.4-.4.9-.8 1.3-1.2.6-1.2 1.1-2.4 2.1-3.3 5.9-4.6 5.3-10.7 3.8-17 0 0 0 0-.1 0 3.2-6.6 3.1-6.8-3-12.5-.5-1.6-1-3.3-1.6-4.9-.4 1.3-.8 2.5-1.2 3.8.1-1.3.4-2.6 1.2-3.8 0-.4 0-.9 0-1.3-.9-2.8.8-5.2 1.2-7.8 0 0 0-.1.1-.1 0 .1.1.1.1.2 1.7.3 2.9-.8 3.7-2 3.4-5.3 7.2-10.4 8-16.9-.2-.2-.4-.4-.6-.5 2.3-5.5 2.2-11 .2-16.7-1.1-3.2-1.6-6.5-2.3-9.8.2-.9.4-1.8.7-2.5.5-4.1 1.3-8.2 2.3-12.3.8-3.3 1-6.6-.6-9.7-.1-.7-.1-1.3 0-2 .1-.4.3-.8.4-1.2.3-.6.5-1.2.6-1.9.1-.6 0-1.2-.3-1.8 1.9-5.2 3.8-10.4 5.6-15.5.7-6.7 1.3-13.3 2-20 1.1-1.1 1-2.8 2.1-3.9 1.3-2.7 2.5-5.4 3.8-8.1-.2-1.5.3-2.8.8-4.1-.3 1.4-.6 2.7-.8 4.1.1-.3.2-.5.2-.8.2-.4.5-.8.8-1.1 2.1-7.3 4.1-14.6 6.2-21.9 0 0 0 0 0 0 .6-1 1.3-2.1 1.9-3.1 1.3 6.4 6.5 6.7 11.5 7.2 1.4.6 2.9 1.3 4.3 1.9.4.5.8 1 1.1 1.5 5.3 14.6 10.5 29 15.8 43.8.3 1.1.6 2.2.9 3.3 1.9 6.1 4.4 12 .8 18.5-.7 1.3.3 3.8 1.1 5.5 2.3 4.9 4.9 9.6 7.3 14.5.3.9.6 1.6 1 2.3.4.9.8 1.7 1.2 2.6-.3 2.3-.6 4.6-1 6.9-2 14-2.5 28 3.5 41 5 10.7 8.1 21.6 10 33 .9 5.2 2.8 11 1.3 15.6-2.9 8.5-3.1 16.8-2.8 25.4 1.9 4.7 3.9 9.4 5.8 14 .7 2 1.4 3.9 2.1 5.9-.1.7-.2 1.3-.2 2-1.4 6.2-1 11.6 6.1 14.2.4 1 .7 2 1.1 2.9 0 .3 0 .7.2 1 1.1 10.7 4.3 14.5 14.6 14.8 8.7.2 17.4-1.1 26-1.7 6.6-4.3 8.5-11.5 4.1-16-.1-2.3-.1-4.5-.2-6.8 1-4.7-2.3-7.3-5.2-9.9-2.9-2.7-3.6-5 .3-7.3.3-.3.7-.6 1-.9.1-.3.1-.6.2-.9.2-.4.4-.8.7-1.2 0-.7 0-1.3 0-2-1.1-2.6.1-5.5-.7-8.1-.1-2-.1-3.9-.2-5.9-.3-.3-.7-.7-.8-1.1.5-3.6-.9-6.2-4-8-.4-.3-.8-.5-1.3-.8-1.3-2.4-2.5-4.8-3.8-7.2-.3-.4-.6-.7-.9-1.1-1.3-2.9-2.7-5.8-4-8.7.5-3.2 1.6-6.5 1.4-9.6-.7-11.2-1.7-22.4-2.7-33.6-.4-2.3-.4-4.6-.5-7 .2 2.3.3 4.6.5 7 .1-4.6.2-9.1.3-13.7.2-2.8.5-5.5.7-8.3-.7-2.2-.6-4.5-.1-6.7-.9-2.7-1.8-5.5-2.7-8.2 0-5.6 0-11.3-.1-16.9.3-.7.6-1.4.9-2.1-.8-7.2-.6-14.5 0-21.7-1.6-1.1-3.2-2.1-4.8-3.2-1.1-1.3-2.1-2.6-3.2-3.9-.2-.4-.5-.8-.7-1.2-.1-1.3-.2-2.6-.3-3.9-.3-.4-.5-.7-.7-1.1-.1-.7-.2-1.3-.3-2 0 0 0 0 0 0-.6-1-1.2-2-1.8-3.1-2-2.3-2.2-5.1-2.2-7.9.5-.6.4-1.5 1-2 .4-1 .8-2.1 1.1-3.1.5-1.4 1-2.8.9-4.1-.2-10.2-.9-20.5-1.3-30.7 0-1.3.1-2.7.1-4-.8-1.3 0-2.8-.7-4.1-.4-14.3-.7-28.6-1.1-42.9 1-1.6 2-3.2 3.1-4.8 0-.1 0-.2 0-.4 0 .1 0 .2 0 .4 0-.2 0-.4 0-.6.2-1.2 1.3-2.9 0-3.2 0-5.1 0-10.2 0-15.3-.6-.6-.7-1.2-.2-1.9-.4-2.4-.7-4.9-.9-7.3 0-.4 0-.9-.1-1.2-.6-7.3-1-14.6-3.9-21.5-.4-1-.3-2.4.1-3.4 2.7-7.8.1-13.7-6.1-18.5-1-.6-2-1.2-3.1-1.9-2.6-1.6-5.2-3.3-7.9-4.9.1-.1.2-.2.3-.4 0-5.4-.7-10.9 1.1-16.3 1.6-2.7 4.6-5.5 4.3-8-.7-7.1-2.8-14-4.4-21 .2-.2.4-.6.6-1-1.5-8.1-.5-16 1.7-23.8-.1-1.1-.1-2 .1-3 .2-.6.4-1.1.6-1.7.9 1 2 1.9 2.8 3 1 1.4 1.9 3 2.8 4.5.9 1.8 1.9 3.4 2.6 5.3 2.2 5.9 4.8 11.6 6.2 17.7 1.7 7.3 2.4 14.8 3.5 22-.8 1.2-1.4 2.5-2.3 3.7-6.2 9.1-4.4 16.5 5.1 21.5 2.4 1.3 4.5 3.2 6.7 4.8 1.6 5.8 3.6 11.6 4.8 17.6 1 5.1 2.7 10.6-1.8 15.3-.8.9-.6 2.8-.9 4.2-6.1 8.8-7.1 19-9.6 29-.4 1.4.2 4.2 1.1 4.6 1.5.7 3.7.3 5.4-.4 4-1.5 3.1-5.1 3.6-8.4.4-2.4 2.5-4.5 3.8-6.7 2.6 1.6 5.7 2.5 5.8 6.6.2 8.2-2.1 15.2-9.4 19.4-4.3 2.5-4.7 6.3-3.5 9.7.6 1.6 4.5 2 6.9 3 3-1.4 6-2.8 8.9-4.2 6.5-5.5 12-11.6 12.2-20.8.2-.7.6-1.6 0-2 0-1.7-.1-3.5-.1-5.2.6-4 1.2-7.9 1.8-11.9.1-.4.3-.7.4-1.1.5-.9 0-2.1.7-3 0-4-.7-8.2.3-11.9 2.7-7.8 2.1-15.4.6-23.4" style="fill:#e3e7e5"/><g><path d="m576 192c-.5-2.2-1.4-4.5-1.5-6.7-.1-2.8.3-5.6.5-8.3 1.8-.6 2.6-2.5 4.3-3.3.5-.1.9-.1 1.4.1 2.3 1.2 4.2 2.8 6 4.6 3.7 3.8 7.4 7.5 11.2 11.2 4.5 3.7 9.4 6.8 13.3 11.2 1 1.2 2.9 2 2.1 4.1-6.1 1.6-12 .1-17.8-.8 1.3.8 3.1.1 4.6.8-.1 2-1.6 1.5-1.8 1.5 3.1-1.2 6.6 1.5 10.5 1.4.9 0 2.2 1.1.9 2.5-13.9.7-27.8 1.4-38 2.1 8 .1 19.3.9 30.5 2.1 6.8.7 12.8-1.1 16.6-3.8-5.7 4.4-14 4.5-22.6 2.9-3.3-.6-6.6-.1-10-.2-1.5-.1-3.2.4-4.6-1.1 9.4-1.2 18.8-1.4 28-1.9 2-1.4.8-2.1-.6-2.7-1.5-.7-3.3.5-5.5-1.8 11.4-.9 22-2 31.6-2.4-3.2.4-7.5.4-11.9.7-1.4.1-3.3 1-3.9-.8-.5-1.5.8-2.7 1.9-3.8 4-4.3 9.3-6.9 14-10.3.9-.7 2.1-1 2.3-2.4 3.2-4.6 8.3-7 12-11 3.2 1.7 1.5 3.9.5 5.8-1.3 2.6-3.8 4.1-6 5.7-.2.2-.4.3-.6.4.2-.1.4-.3.7-.5 1.4-.9 2.6-2.1 4.2-2.6.9-.3 2.4-.7 2.7.2 1.8 6.2 4.7 1.8 7.2.9.3-.1.6-.2 1-.2 4.3 2.5 4.4 7.5 6.4 11.3.5.4 1.1.8 1.7 1.1 1.7 1.1 3.9 1.8 4.3 4.3-1.4 2.1-2.9.6-4.3 0-1.4-.6-2.6-1.5-4-2.1-1-.4-2-.5-2.6.6-.5.9 0 1.7.6 2.3 7.2 6.7 14 13.9 24.6 15.3 5.5.8 10.5 3.2 15.7 4.9 1.9.6 3.5 1.9 4.5 3.8.7 1.7.7 3.6 1.3 5.3.1 2.1 1 4.5-1.8 5.7-1.2-.9-.4-2.3-.9-3.5 1.3 7.4 0 14.2-3 20.8-6 11.3-11 23-19 33-1.6 2 1 3 .1 4.2-3.3 4.3-2.9 9.8-5.3 14.3-1.2 2.3-1.7 4.2-1.4 6.5-2.2 7.8-3.2 15.7-1.7 23.8-1.1 2.3-2.1 1.6-2.9-.2-.9-2.5-1.2-5.1-2.3-7.5-.3 0-.5 0-.6.1-2.5 2.6-7.1 4.4-7.6 7.5-.5 3.8 4.7 4.8 7.3 7.2 4 3.7 6.7 7.5 6.5 13.3-.1 4.3-2 7.2-4.9 9.9-2.5 2.3-4.8 4.6-3.4 8.6.8 2.2-1 3.3-2.7 4.1-2.5 1.2-5.3 1.9-7.9 3 1.2-.4 2.3-.7 3.5-.9 7.9-1.6 7.9-1.6 9.3-9.3.9-4.8 1.8-5.8 5.2-5.6-1.8 5.3-1 10.8-1.1 16.3-.2.4-.6.7-.9 1-4.6 2.6-8.9 6.1-14 7.6.7 1.1 2.7 1.3 2.9 3.1-8 7-17.8 9-27.8 10.5-1.9.3-3.6-.6-4.9-2-1.7-1.5-3.1-3.5-5.1-4.6-4.3-2.4-8.6-2.8-13.2-.4-4 2-7.5 4.9-11.5 6.8-9.6.5-18-2.8-26.4-7.2-.8 0 .5-2-1.1-1.1-1.4-1.3-3.1-2.3-4.8-3.1-1.4-1.5-3.8-2.6-2.4-5.4v.1c1.7-3.3-.6-7.1 1.3-10.4.2-.4.4-.5 0-.5-4.8-.9-3.2-5.2-4.3-8.1v.1c-.5-.6-.4-1.7-1.3-2.1-3.8-7.2-3.9-13.9.9-21 2.6-3.9 3.1-9.2 4.5-13.9.6-7.3-2.5-13.7-5.1-20 0-1.9-1.7-4.5.3-5.5 2.2-1.1 3.8 1.5 5.2 2.9 6.4 6.6 13 12.7 21.5 16-.8-1-3.6-2.1-1.9-3.8 1.9-1.9 3.8.4 5.7 1.4-1.6-1.4-3.5-2.3-5.4-2.8-9.6-2.7-16.2-9.5-22.6-16.5-1.8-2-3.2-4.2-5.9-5.1-1.7-.6-2.5-2.1-2.7-3.9-.1-.7-.3-1.3-.4-1.9-.5.5.3 1.1 0 1.6-.2.5-.4.8-.8 1.1-3-.2-4.2-2.7-5.8-4.7-1.1-1.3-1.9-3-3.5-3.8-.3.2-.4.5-.3.9.8 1.3 2 2.3 2.7 3.6.8 1.5 3.2 3 1.7 4.7-1.6 1.8-3.8 0-5.3-1.1-4.4-3.2-9.5-5.5-13-10.6-.7 2.7 1.5 3.1 2.3 4.3.7 1.1 2.1 2 1.2 3.4-.8 1.2-2.1.3-3.2.2-3.1-.2-5.6-3.2-9.1-1.5 4 .5 7.7 1.4 11.5 2.4 4.6 1.3 6.5 4.8 7.9 8.9.8 2.3-.3 3-2.6 2.8 3 .9 4 3.3 4.5 5.9.4 2 .5 4.1-1.4 5.5-1.8 1.4-3.5.3-5.1-.7-2.1-1.3-4.3-2.4-6.5-3.6-4-2.3-7.9-4.7-11.3-5.8 3.8.8 7.1 4.8 11.7 6.4 1.9 1 4.6 1.8 5.2 3.4 1.3 3.4 5.3 5.3 5 9.5-.1 1-.6 1.8-1.6 2.2-3.4-.7-5.9-3-8.6-4.8-3-2.1-6-3.9-9.5-5.2 2.5 1.4 5.5 1.8 7.4 4.4-2.7 2.2-4.6-.9-6.7-.9 5.9 2.6 12 4.6 17.5 8 .3.7.2 1.3-.3 1.8-1.1 1.2-3.2 1.8-1.1 4.2 2.3 2.6 2.8-1.4 4.4-.7 2.2 1.7 2 3.6.4 5.6-1.3 1.7-2.6 3.4-3.5 5.3-.3.6-.7 1.2-1.2 1.8-.3.4-.8.5-1.2.5-1.9-1.2-1.1-2.9-.6-4.4.4-1.3.7-2.6-.2-3.8-.8-1.1-1.4-3.1-3.2-2.4-1.5.5-1 2.2-.8 3.5.2 1.5.7 2.9 0 4.4-2.8 1.8-2.8-1.3-4.1-2.2-.1-.3-.2-.7-.3-1-.1-.1-.3-.2-.4-.4.3.3.4.6.3 1-.5.7-1.2.8-2 .7-.4-.1-.7-.3-1.1-.5-1.3-.8-2.7-1-4.1-1.3-.5-.1-.9-.3-1.3-.5-2.9-3.1-6.5-4-10.7-4-5.6 0-6-.7-4.1-6 .4-1.2.8-2.5 1.2-3.7-.1-3.3-.2-6.5-.2-9.8 0-1 0-2 .3-2.9 5-14.7 10.2-29.4 14.9-44 1.1-3.5.9-7.4 1-11.2.2-5.2-.4-10.4.1-15.5.9-7.5 4.8-13 10.9-18 14.2-11.6 28-23 44.5-31.9 1.6-.8 3.2-.6 4.7.3.8.5 5.4 1.6 6 1.5-3.1-2.7-7-2.1-9.7-4.5" style="fill:#ce89a5"/><path d="m526 721c-.4-10.2-.8-20.5-1.1-30.7 0-.6.2-1.4.5-1.9 7.5-11 6.8-24 7.2-36.5.3-7.9-2.1-15.9-1.6-23.7.4-6.8 3.8-13.3 4.7-20 2.2-15.5 5.8-30.9 4.5-46.8-.2-2.3.3-4.6.5-6.9 0-2.1 1.1-1.6 2-.8 2.3 2.2 3.8 5 4.6 8 .4 1.4.2 2.7-1.3 3.4-1.7.7-1.8-1.3-2.9-1.9.3 2.3-1 5.1 1.6 6.3 2.3 1 4.9.7 6.7-1.5.2-.4.5-.7.7-1.1.8-3.9-3.4-4.9-4.6-7.6-.3-.3-.6-.7-.9-1-1.4-1.7-2.8-3.3-4.1-5-.7-.8-1.2-1.6-.2-2.6 1-1 1.9-.5 2.6.3 4.3 5.3 10.9 8.2 14.5 14 1.2 2 3.5 1.7 5.1 2.7.9.6.1 1.4.3 2.1.2.3.4.6.6.8.3.2.5.4.6.7 0 0 .4-.2.4-.2s-.5.1-.5.1c-.2-.3-.4-.5-.7-.8-.4-.4-.6-.9-.3-1.5.3-.3.6-.6.9-.9 3.6-2.8 7.2-4.3 10.8.1.7.9 2.1 1 3.2 1 2.9-.1 4.7 1.3 5.8 3.9 2.8 16.4.3 22-16.4 31 2.1-1 4.2-1.9 6.5-2.5 3.8-.9 7.6-1.6 7.8-6.9.1-1.4.7-4.2 3.7-3.4.4.6.5 1.3.5 2-.1.7-.3 1.3-.6 1.9-.1.4-.3.8-.4 1.2-.1.7-.1 1.3 0 2 1.5 3.2 1.3 6.4.6 9.7-.9 4-1.8 8.1-2.3 12.3-.8 1.9-.5 4.3-2.8 6.2-2.7-6.1.9-11.5-.1-17-3.8 3.8-8.8 5.8-13.9 8.6 2.8 2.6 4.7 5.5 4.8 9.1 0 1 .5 1.7 1.3 1.9 6.3 1.4 6.9 7 8.7 11.7 1.2 3.2 1.2 6.8 4 9.3-.8 6.5-4.6 11.6-8 16.9-.8 1.2-2 2.3-3.7 2-1.8-2.1 0-3.7 1-5.3 1-1.5 2.3-2.9.9-5.5-2.2 2-4.5 3.8-6.7 5.6-3.6 2.9-6.3 5.9-2.9 10.8 1.3 1.9 1.1 4.4-.6 6.4-2.4-1.3-1.8-3.7-3.1-5.2 1 4.4-.2 9.3 3.7 13 3.2 3.2 1.8 6.9-.4 10-2.3 3.3-3.5 6.7-2.8 10.7-3.2 3.6-7.5 2.6-11.5 2.7-3.2-1.6-6.6-3-8.4-3.6 1.7.4 4.6 2.1 7.8 3.3 5.8 1.7 10.6-.1 14.7-4.2.5-.2.9-.4 1.4-.5 6.6-1.8 6.5-1.8 7.5-8.8.2-1.4-.5-4.1 2.7-3 1.5 6.3 2.1 12.3-3.8 17-1.1.8-1.6 2.1-2.1 3.3-1.7 2-3.9 3-6.3 3.8-2.1.1-4 .9-5.3 2.4-6.7 7.3-14.4 4.6-22 2.2-4.5-1.3-8.5-3.3-13-3.2" style="fill:#91889e"/><path d="m694 464c-1 1.6-2 3.2-3.1 4.8-5.1 2.4-9.7-.2-14.4-1.5-3.8-1.1-7.3-3.1-11.4-3.4-1.6-.1-2.9-.9-3.6-2.3-5.8-10.6-12.2-20.9-19-30.8-.4-.5-.5-1.2-.7-1.8-1-1.8-.6-5.6-2.4-5.2-2.9.6-.1 3.5-.3 5.4-.1 1.3.2 2.6.2 3.9.6 6.4-.7 12.6-2.2 18.7-1.3 5.2-1.9 10.5-1.7 15.8 0 1.3.3 2.6-.8 3.6-1.8 1-2.1 2.5-1.7 4.5.4 1.9 1 3.7.7 5.7-.5 1.5-1.6 2.3-2.9 3-.9.4-1.8.7-2.7 1.1-.5.2-1 .3-1.5.5-4.3 1.2-8.9 1.1-13.2 2-7 1.5-12-2.3-16.9-6.3-1.3-1-2.1-2.1-1.3-3.8.9-1.6 2.5-2.4 3.8-3.5.4-.4.7-.9.8-1.5 0-.6 0-1.2-.1-1.8-.5-2-1.4-3.8-1.6-5.9.2-5.9 4-10.7 5.1-16.4 1.3-4.4 2.2-9 3.5-13.4.7-2.3.1-3.6-2.3-4.6-4-1.6-8-3.3-12.3-3.8-3.4-.2-7 .9-10-1.6-.7-.6-2-.5-2.9-.2-11.7 3.5-23 7.6-27 22-1.7 6.2-4 12.3-5.4 18.6-.3 1.5-.7 2.9-.3 4.4 0 .5-.2 1-.4 1.5-1.5 2.3-1.6 5-1.6 7.6.2 6.7 0 13.4-1.3 20-.5 2.1-1.2 4.1-.7 6.3.1.5.1.9 0 1.4-.4 1.2-1 2.1-2.5 1.7-2.8-1.1-5.7-1.9-8.3-3.3-8.8-4.8-9.4-8.2-6.6-17.9 3.4-11.9 5.3-24 8-36 .7-3.1 1.6-6.3 3-9.2 3.6-7.6 8-14.7 8.4-23.6.1-2.4 3.6-4.6 5.5-6.9 1.4-.4 1.7.7 1.8 1.6.1 1.2.5 2.2 1.9 2.5 7.2 1.9 14.2 0 21.3-.5.5-.2 1-.3 1.5-.4 2.9-.2 5.8-.8 8.6-1.3.7-.1 1.3-.3 2-.5 1.7-.4 3.3-1 4.7-2.1 2.7-1.6 3.7-4.8 6.2-6.4 2.6-1.7 5.1-3.6 7.8-5.1 10-5.7 14-5.1 22.3 3.4.7.7.3 2.1 1.5 2.4 4.9 1.2 8 5.2 11.9 7.9 4.7 5 10.7 8.2 16.4 11.9 4.5 3 9.2 4.5 14.4 1.8 4.3-1.1 8.3-3.4 12.8-3.6 2.8 2.7 3.8 6.6 7 9.3 1.6 1.3 1.1 5.7-.4 8.5-2.9 5.8-1.2 11.8-1 17.7 0 .7.1 1.9 1.3 1.6 5-1.3 1.8 2.2 2.2 3.6" style="fill:#302b37"/><path d="m707 707c1.3 2.9 2.7 5.8 4 8.7 0 .2 0 .5-.1.7.1 2.4.3 4.8-.4 7.1-2.4 4.3-5.1 8.5-9.6 11.8 1.9.5 3.6-.6 4.9.6.2.5.3.9.2 1.4-.2.5-.4 1-.7 1.4-.4.4-.8.6-1.4.7-4.1.2-7.7 1.6-11 3.9-3.8 2.6-8.3 3.5-12.8 3.7-6.5.3-10.6-3.3-12.2-10-.6-2.5-.3-5-.5-7.4.1 2.3-.2 4.6.3 6.9.3 1.4.7 3.1-1.5 3.4-.3-8.6 0-16.9 2.8-25.4 1.5-4.5-.5-10.4-1.3-15.6-1.9-11.4-5-22.4-10-33-6.1-12.9-5.5-27-3.5-41 .3-2.3.6-4.6 1-6.9 2.1-1.7 4.1 0 6.1.3 7.9 1.1 15.6 4.1 23.7 3.9 3.4-.4 5.8 1 7.4 3.8 1.3 2.2 3.7 3.3 4.9 5.4.5.8.1.3.6.1 3.5-1.3 4 1.2 4.4 3.8.2 3.4.2 6.8-1.8 9.7-.6.9-.7 2-1.4 2.8.9-.4.3-1.6 1.1-2.1.5-.6.3-1.9 1.4-1.7 1.2.2 1.4 1.4 1.3 2.3-.4 3.4-1.8 6.4-3.5 9.2-1 1.7-1.7 3.6-2.8 5.3-4.7 7.5-3 13.7 2.4 20 4 4.8 6.8 10.6 6.5 17.4-.3 3.1 2.2 5.7 1.6 8.8" style="fill:#85798b"/><path d="m643 571c-5.3-14.6-10.5-29-15.8-43.8-.9-2.3.1-3 2.3-2.9 3.7.3 7-1.3 10.4-2.5.6-.3 1.2-.5 1.8-.7 2.9-.8 6.9-.5 7.7-4.2.9-4.8.5-9.8-.8-14.5-.5-1.9-2.9-1.2-4.3-1.8-2.4-1.2-2.6-3.7-3.3-5.9-.2-.8-.4-1.6-.5-2.4 0-.8.1-1.6.6-2.3 1.4-.9 2.6.1 3.7.7 4.6 2.4 9.4 1.4 13.3 1-2.9-.2-6.8-.4-10.5-1.3-2.2-.5-4.3-1.3-4-4.2.3-2.6 2.2-3.7 4.6-3.7 8.3-.2 16.6-.6 24.9.3 2 .2 3.9.4 5.9.2 3.6.3 4.7 2.6 4.7 5.9.3 16.6 2.2 33 3.7 49.7.4 3.7-1.4 6.4-3.7 8.9-4 4.4-8.3 8.6-12.8 12.8 2.1-.3 3.8-1.2 5.7-1.6 1.6-.4 3.6-2.4 4.9-.4 1.2 1.8 0 3.8-1.5 5.3-.7.5-1.5.5-2.3.5-.6 0-.8.7-.3.3s.2.9.4.2c.5.5 1 1 1.7 1.3 1.9.5 3.9 1 5.8 1.5 2.1 2.9 5 5.4 3.8 9.6-3 .8-5.6-.3-7.7-2.2-2.7-2.5-5.6-2.9-9.1-1.9-8.2 2.3-16.3.8-24.3-1.4-1.8-.4-3.4-.3-5-.5" style="fill:#9f9ab2"/><path d="m643 571c1.2-.5 2.8-1.8 3.7-1.4 9.2 3.6 18.4 4.2 27.9 1.3 1.6-.5 3.8.5 5.5 1.2 3.1 1.3 6 3 9 4.6 2 2.1 1 4.3.2 6.4-1 2.4-2.4 4.7-3.7 7.7 5.8-3.9 8.1-8.8 7.9-15-.1-1.9-1.5-4.4 1.8-5.1.1.7.2 1.3.3 2 .2.4.4.8.7 1.1.1 1.3.2 2.6.3 3.9.2.4.5.8.7 1.2 1.1 1.3 2.1 2.6 3.2 3.9-.6 3.4-.7 6.8 0 10.2.3 1.3.2 2.9-1.2 3.5-1.8.8-1.3-2-2.7-2.1-2.3 2.8-3.3 4.7-.5 8.6 4 5.8 4.7 13.3 6.2 20 .2.9.2 1.8-.1 2.7-1.6 1.4.1 1.8.8 2.4.5 2.4 1.9 5-1.6 6.3-.2-2.2.1-4.9-3.6-2.3-.4.3-3.7-3.8-5.8-5.5-2-1.6-4.4-2.8-6.7-4.2-.4.3-.7.3-1.1.1-.1-2.9-1.5.9-2-.3-8.2-.9-16-3.4-24-5-2.8-.6-4.1-2.1-4.9-4.6-2.5-4.8-5.1-9.6-7.3-14.5-.8-1.7-1.8-4.2-1.1-5.5 3.6-6.5 1.1-12.4-.8-18.5-.4-1-.7-2.1-1-3.2" style="fill:#948aa2"/><path d="m649 176c-3.8 3.7-7.5 7.3-11.3 11-1.9 2.9-5.1 4-7.8 5.8-4.3 3.1-8.6 6-11.8 10.3-1.4 1.8-2.9 2.7-5 .9-5.4-4.5-10.8-9.1-16.2-13.6-.5-5 .1-10.2-2.1-15-1.4-3.2-2.9-6.3-5.7-8.6-.7-.8-1-1.7-.2-2.7.1-.5.3-1 .3-1.4.1-3.1 1.1-6.5 0-9.2-.8-2-4.2-2.9-6.5-4.2-.6-5.3-2.6-10.8 2.1-15.4 1.1-1.1.6-2.4.2-3.7-.7-2.5.6-2.9 2.7-2.5 1.5.7 2.5 2.1 3.7 3.2 1.2 1.7 2.8 3.1 3.7 5.1.4-1.9 1.6-3.4 2.7-4.9 5.8-4.1 10-3 11.9 3.4 1 3.4 3.1 5.3 6.3 6.3 7.2 2.2 13.6 0 17.7-6.1 1.1-1.7 2.1-3.5 4.5-3.3 2.6.1 3.6 2.1 4.4 4.2 1 2.8 2.1 5.6 2.6 8.6-.4 4.5-3.8 7.1-8 5.6-2.6-.9-5.3-1.8-6.9-2.9 3.9 1 7.1 5.3 12.2 5.6 5.2 5.6 4.3 13.6-1.8 15.6-2.3-.4-4.5-.8-6.1 1.5-1.3 2.3-2.9 4.3-5.9 3.4-3-.9-4.5-3.2-4.9-6.2-.8-5.5.2-10.2 6.4-13.3-5.4-.6-8.7 1.7-10 6-1.1 3.4-.7 6.9-.8 10.4-.1 2.1.3 4.3-.8 6.3-4.9 1.8-13-1.6-17-7.2-2-2.9-3.3-6.1-4.1-9.6-.4-1.7-.9-3.4-1.9-4.8 1.8 4.5 2.8 9.3 4.7 13.9 2.3 5.3 5.6 9.8 9.7 13.8 3.6 3.6 8.3 3.7 13 3.8 3.2 0 5.8.7 4.3 4.3-.2-5.5 7.6-5.7 8.3-11 .5-.5 1.2-.8 1.9-.8 2.8 4.3 5.2 2.3 7.6-.4.9-1 1.9-1.9 3.3-2.1.2-.1.4 0 .6.1" style="fill:#7e5138"/><path d="m540 509c.6-.7 1.3-1.4 1.9-2.1 2.6-.2 1.9 1.8 1.9 3-.1 3.5.4 7 1 10.4.8 4.3 2.8 5.4 6.7 3.8 3.8-1.5 7.1-1.4 10.2 1.4 1.5 1.4 3.3 1.5 5.1.9 3.2-1.1 6.6-1 9.9-.8 3.8.2 6.7 1.6 7.6 5.8.8 3.4 2.9 4.3 6 2.7.4-.2.9-.5 1.4-.6 2.1-.8 4.4-1.4 6.1.4 2 2 .2 4-.8 5.8-6.8 5.6-7.8 13.3-7.7 21.4 0 4.5-1.9 8.3-4.4 11.8-2-.9-4.1-1.7-6.1-2.6-.6-.2-1.6-.1-1.8-.5-3.6-5.8-7.9-2.8-12-.9-8.5-3.5-13.4-11.4-20.3-16.9-.5-.4-1-1-1.4-1.6-.3.3-.6.5-.9.8 1.9 2.2 3.8 4.5 5.6 6.7l.1.1c2 2.5 4.1 5.1 6 7.7.1.1-.7.9-1 1.3-1.1 5.4-5.4 4.2-8.7 3.7-1-.1-1.9-3.4-2.2-5.4-.3-1.8.2-3.7 1.4-5.7.7 1.6 1.3 3.1 2.1 4.9 1.3-4.2-1.3-9.5-4.8-10.3-3.9-5-.6-10-.5-15.2.2-10-.1-20-.3-30" style="fill:#9a94ad"/><path d="m529 358c-.6 1.1-1.1 2.1-1.7 3.2l-.2-.2c-.6-.1-1.7-.5-1.8-.3-2.9 4.1-6.2 8.1-8.5 12.5-2.1 4-3.1 8.6-4.5 13-.4-.2-.8-.5-1-.9 1.5-5 3.1-10 4.6-15-7.5 16-14.7 32-17.8 50-.4 4.7-3.4 5.6-7.4 5.3-2.2-.2-4.2 1-6.2 1.7-1.4.5-3.3 1.5-3.4-1.4.7-2.9 1.3-5.8 2-8.7.2-3.6 3.4-4.1 5.7-5.5.6-.3-.5-.7-.1-.2-2.1 1.8-3.7 1.7-4.5-1.2 4.3-20.6 8.7-41 13-61.9.1-.4.5-.8.8-1.2 1.1-.5.5-1.2.2-1.9.3-.7.5-1.4.8-2.1 1.3-.7.1-2.2 1.1-3 3.6 1.8 3.8 5.7 5.4 8.8 1.2 2.3 1.7 4.9 2.2 7.5-1-5.6-3.2-10.8-6-15.8-1.9-3.3-.4-4 2.7-3.9 3.6.2 6.6 1.8 9.5 3.7.4 0 .9.1 1.3.1 1 .3 2.2-.2 3.1.7h-.1c1.7.7 3.7.6 5.1 2h-.1c2.4.9 4.4 2.2 5.8 4.3 1.8 2.7 3.4 5.4.2 8.3-.9.6-.8 1.4-.3 2.2" style="fill:#c4b7b1"/><path d="m731 461c-.2 9.2-5.7 15.3-12.2 20.8-3 1.4-6 2.8-8.9 4.2-2.4-1-6.3-1.4-6.9-3-1.3-3.5-.8-7.2 3.5-9.7 7.3-4.3 9.5-11.3 9.4-19.4-.1-4.1-3.2-5-5.8-6.6-1.3 2.2-3.4 4.3-3.8 6.7-.6 3.2.3 6.9-3.6 8.4-1.7.6-4 1-5.4.4-.9-.4-1.5-3.2-1.1-4.6 2.6-9.9 3.6-20.4 9.6-29 .9-3.1 3.3-2.3 4.5-.9 5.5 6.2 13.6 9 19.6 14.4 1.6 3 1.1-.7 1.9-.6.4-.3.8-.2 1.1.1-.6 4-1.2 7.9-1.8 11.9-2.6 0-1.8-2.3-2.5-3.6-.3-.6-.7-1.2-1.4-1.2-1 0-1.5.7-1.6 1.5-.3 1.9-1 4.4.6 5.6 2.1 1.6 1.5 3.3 1.2 5.3 1-1.3 1.5-3.2 3.5-2.6.7.2.3 1.3.1 2.1" style="fill:#835439"/><path d="m588 128c-.7.5-1.4 1-2.1 1.5 3.3 2.9-.5 4.2-1.1 6.3-1.1 3.5-.9 7.4-1.3 11.2-.1.7-.5 1.4-.7 2.1-5.2-7.2-8.1-14.9-7.8-24 .4-11 5.1-20 11.6-28 5.7-6.9 13.7-11.6 22.6-13.6 3.7-.9 7.8.2 11.8.4 4.8 1.1 9.7 1.9 14.3 3.5 2 .7 3.4 3.3 5.1 5-.3.3-.6.6-.9.9-1.2-.4-2.4-.8-3.6-1.2-8.1-4.3-15.4 1.5-23 2-1.1.1-2.2.6-3.3 1-3.5.9-4.7 4.3-6.9 6.6-6 5.7-10 12.6-13.5 20-.9 1.9-1.2 3.8-.7 5.8-.3.1-.4.3-.4.6" style="fill:#423d3e"/><path d="m726 770c.1 2.3.1 4.5.2 6.8.2.4.6.9.5 1.4-.3 3.8-5.3 8.7-9 8.5-2.7-.1-5.2.5-7.8 1-6.6 1.2-13.2.7-19.6-1.2-3.8-1.1-6.8-3.2-8.9-6.6-.1-.3-.2-.6-.2-1 .1-.5.3-.9.4-1.4 1.4-7.2 5.6-12 12.4-14.6 6.2-.6 12.2-3 18.6-2.3 6.1.7 11.8 2.1 13.4 9.4" style="fill:#3d2d25"/><path d="m489 771c2-5.5 3.7-11.3 8.9-15 2.1-2.5 4.7-3.8 7.9-4 2.3.2 4.5.8 6.8.9 3.6.2 7.2.6 8.8 4.7.3.7 1.3.9 2.1 1.3 2.2 1 4.1 2.4 5.2 4.6 1.2 2.3 2.2 4.7 2.9 7.3.2.4.5.7.8 1.1.6.7 1.4 1.4.8 2.4-4.8 5-10.6 7.3-17.5 7.2-7.9.7-15.3-1.2-22.4-4.4-2.5-1.1-5.6-2.3-4.3-6.1" style="fill:#382820"/><path d="m526 721c1.8-.3 3.7-1.1 5.3-.7 6.6 1.6 13 3.9 19.6 5.2 1.9.4 4.4-1.5 6.5-2.5 2.9-1.3 5.7-2.8 8.6-4.2-.2 2.9-5.3 3.3-3.5 7.3.2.4-1.2 1.4-2.1 1.9-3.3 3.2-7.9 3.6-11.8 5.5-4.1 2-8 5.2-13.8 4.8 3.8.8 5.9 2 6.9 5.5 1.6 5.8 6.8 7.6 12 8.4 3.1.4 3.1 1.3 1.1 3.2-2 2.4-4.1 2-6.2.2-5.2-1.2-8.3-5.2-11.5-8.9-1.6-1.8-3.2-3.3-5.7-3.5-1.9-2.2-6.6-.9-6.7-5.4 1.7-2.7 4.6-2.8 8.3-3.5-3.8-.7-6.5-2.6-9.6 0-1.3 1-1.6.6-1.5-2.9 1.1-3.2 2.2-6.4 3.3-9.7.1 0 .4-.4.7-.7" style="fill:#877478"/><path d="m516 780c6.7.3 12-3 16.9-7 6.2-5.8 13.6-9.8 21.3-13.3 2.7-1.2 5.7-2.1 6.6-5.5.1-.4.3-.8.6-1.2 1.4-1.1 2.1-4.7 4.6-1.1-1.6 1.5-2.7 2.7-2.1 5.5 1.2 6-.5 9.2-6.4 10.4-12.6 2.4-19.9 12.5-29.7 19-5.7.4-11.4.9-17 1.3-1.5-1.8 3.2 1 1.2-1.8-1.9-2.8 0-5.1 4.1-6.3" style="fill:#755a4b"/><path d="m552 417c-.5-.8-1.2-1.5-1.5-2.3-.3-.9-.4-1.9-.5-2.9 2.1-5.5 3.7-11 6.3-16.3 1.4-2.7 4.5-4.4 6.8-6.6 1 1.7 2 3.4 3 5.1.6 1 1.4 1.9 1.9 2.9.7 1.3 2 2.6.9 4-1.3 1.8-2.8.2-4.3 0 7.3.6 11.3 6.3 16.5 10.2 1.2.9 2 1.7.9 3.2-1.8 1.3-4.3-.2-6 1.7-7.8.8-15.9 1.2-24 1" style="fill:#786987"/><path d="m681 780c6.9 5.8 15 7.6 23.9 7 5-.3 10.4.2 14.9-1.5 2.7-1 4.1-5.6 6.1-8.6 4.4 4.6 2.5 11.8-4.1 16-8.7.6-17.4 1.9-26 1.7-10.4-.2-13.6-4-14.7-14.7" style="fill:#65544b"/><path d="m502 433c.3.4.5.7.8 1.1.1 3 3.3 6 .2 9.1-2.2.1-2.9-1-2.3-3 .1-.5 1.1.1.9-.8-.3-.2-.7-.4-1-.7-1.3-.6-2.5-.6-3.7.1-.4.2-.8.4-1.2.5-.2 0-.4 0-.6 0-.4-.1-.7-.6-1-.5-.6.1 0-.2.1.4 0 .4 0 .9-.1 1.3-.2 1.3-.7 2.5-1.4 3.6-.7 1-.8 1.5.5 2.5 2.4 1.9 3.7 4.6.7 7.3l.1-.1c-.6.5-1.5.4-2.1 1h.1c-4.1.6-8.5 3.1-11.7-2-.8-1.3-3.4.2-4.2-1.9.2-1.1.5-2.2.7-3.3 1.6-4.5 3-9 2.2-13.8.3-.7.5-1.4.8-2.2 1.1-2.6 3-4.5 5.8-5.3 1.2-.3 2.3-.3 2.7 1.2-.1 1.5-1.3 2.7-1.2 4.2-.3.6 1 .1.3.1-.2 0-.1-.2 0-.5.1-.3 0-.7.2-.9 2-1.9 11-1.6 13.4.3v-.1c.3 1 .1 2 1 2.4" style="fill:#c5b7b1"/><path d="m525 738c2.4 1.7 4.7 3.3 7.1 5-.5 6.9-4.3 12-9 16.8-1.7-1.1-5.6-.1-3.9-4.2-1.9-.5-3.7-1.1-5.6-1.4-2.6-.5-5.1-.9-7.7-1.3-1-2.1.9-2.9 1.9-4.1 2.1-2.5 4.9-4.5 6.2-7.7.4-.9.8-1.8 1.3-2.7 3.2.1 6.4-2.1 9.7-.4" style="fill:#415f64"/><path d="m666 740c.4-3.6.8-7.1 1.2-9.9.7 2.7 1.6 6.1 2.6 9.4 1.6 5.1 5.8 7.2 10.5 6.5 4.9-.8 9.4-3.5 14.3-4.9 3.3-1 6.8-1.3 10.2-1.9 1 2.6-.7 4.7-1.3 7-3.3 1.2-5.7 4.8-9.8 3.8-.3-.2-.5-.4-.7-.6 0 .1.1.2.2.3-1 2.2-3.2.9-4.7 1.8-.4.2-.8.3-1.3.3-2.3 0-4.3.8-6.3 1.7-.4.2-.8.3-1.3.4-2.5 1.4-5 2.9-7.6.4-2.1-4.9-4.1-9.6-6-14.3" style="fill:#b19ca1"/><path d="m693 764c-5.9 3.2-9.6 8.2-11 14.8-1.7-.2-1.4-2-2.2-2.8v.1c-1.5-5-2.4-10.2-6.1-14.2.1-.7.2-1.3.2-2-.1-3.6 1.9-5.4 5.3-5.3 2.8.1-.7-1.5.5-1.6 2.6-1.1 5.3-1.7 8-2 2-1 4.1-.8 6.1.1-4 4.1-.4 8.6-.8 12.9" style="fill:#b09d98"/><path d="m516 780c-2.1 1.7-5.4 3-2.9 6.7-.8.5-1.6.9-2.4 1.4-6.4-1.5-12.9-2.5-19-4.6-5.6-1.9-6.5-7.7-2.8-12.7 1.5 1.6 2.7 3.9 4.5 4.7 7.2 3.4 14.8 5.1 22.7 4.5" style="fill:#57483d"/><path d="m504 481c.3.7.7 1.4 1 2.1-3.9 8.6-7.8 9.3-15 2.9-.7-.7-1.5-1.3-2.2-1.9-1.4-3.4.5-5.2 3.1-6.8 2.6-1.5 3.8-.1 5.8 1.6 1.6 1.5 4.9.7 7.3 2.1" style="fill:#b8aaa5"/><path d="m491 465c1.4 2.5 2.7 5 4.1 7.6 1.1 3 .7 4.6-3 3.4-.4-.1-.4-.1-.6.2-1.6 2.6-3.5 3.3-6.8 2.5-1.6-.4-3.1-.1-4-1.7-.2-.4-.3-.7-.5-1.1.6-.7.4-1.3-.2-2l.1.1c-.3-3.4-.3-3.4 2-3.9 0 0 .2.6.2.6.5 0 .3-.2.2-.6-1.1-4.8 3.4-4.8 5-3.8 2.6 1.8 2.2-1.3 3.5-1.3" style="fill:#beb0ab"/><path d="m589 164c.3.7.6 1.4.8 2 .4.3.6.6.6 1.1 0 .9-.1 1.9-.1 2.8-.2 2.9.6 6-1.2 8.7-.4.4-.8.7-1.3.8-.8.1-1.5-.2-2.2-.5-1.8-1.7-3.7-3.3-5.5-5-1.7 1-3.4 2-5.1 3 4.6-4.3 9.3-8.6 14-12.9" style="fill:#aa7686"/><path d="m525 738c-2.2.4-4.4 1-6.6 1.2-1 .1-2.1-.6-3.1-1 2.2-2.2 4.3-4.4 6.5-6.6.1.8.2 1.6.3 2.6 2.8-3.4 7.3-3 13.6.9-3.6 1-7.2 2-10.7 2.9" style="fill:#ad979f"/><path d="m481 477c1.6.4 3.3 1.4 4.6 1 2-.5 3.8-2 5.7-3.1.3-.2.9-.3 1.1-.1 3.4 2.5 2.6-.6 2.9-2.2 3.1 2.8 6.2 5.6 9.2 8.4-2.2.9-5.5-3.4-6.7 1.6-.7-.5-2-1.1-1.9-1.4 1-2.8-.6-3.5-2.8-3.8-.1 2.5-6.6 1.1-3.6 5.7 0 0-.8.6-1.2 1-2.4-2.4-4.8-4.8-7.3-7.1" style="fill:#857672"/><path d="m476 451c2.4.7 6.2-1.4 6.7 3.4 0 .3.9.7 1.4.7 2.6 0 5.3-.1 7.9-.1-.4 1.2-.9 2.4-1.3 3.7-6-1-8.3.7-9.1 6.7-.2.4-.6.7-1 .8-1.3-.3-1.6-1.4-2.1-2.4-1.1-2.4-1.1-2.4-2.4-1-2.6-4-2.8-7.9-.1-11.8" style="fill:#857871"/><path d="m518 341c-1.3 0-2.6-.1-4-.1l-.4-.2.2.4c-.5.3-1.2.9-1.5.7-2.6-1.5-5.1-3.2-7.8-4.5-.8-.4-2.1.3-3.2.4.2.9.4 1.9.7 2.8 1.7 4.3 3.6 8.5 5.3 12.8.4 1.1.4 2.5.5 3.6-2.7-5.6-5.4-11.3-8.1-17-2.2-4.9 1.4-8.5 3-12.5-.5 2.7-.9 5.4-1.4 8 2.8.2 5.7-.3 8.3.6 3.2 1.2 5.7 3.4 8.4 5" style="fill:#8e7275"/><path d="m488 428c-3.9-1.1-5.9 1.1-7.3 4.2 0 .1-.3 0-.5 0-.1-.1-.2-.2-.4-.3.4-2.1.8-4.1 1.1-6.2.8.2 1.6.7 2.3.5 4.1-1 8.1-2.2 11.8-3.1-1.9-2.4.7-2.6 2.8-3 .5.9-.9 3.8 2.1 2-.1 1.2-.3 2.5-.5 3.8-.3.4-.7.8-1.2.9-2.9.7-6 .3-8.8 1.5-.5.2-1 0-1.4-.3" style="fill:#887a75"/><path d="m674 762c6 3 6.9 8.3 6.1 14.2-7.1-2.6-7.5-8-6.1-14.2" style="fill:#5d4f4b"/><path d="m653 613c2.3 3.6 5.8 4.4 9.8 5 6.8 1 13.5 2.7 20.3 4.1.5.1.8.4 1.1.8.3 0 .6.1.8.1-4.9-.5-9.9-.8-14.8-1.6-5.1-.9-10-2.3-15-3.5-.7-1.7-1.5-3.3-2.2-4.9" style="fill:#5f5468"/><path d="m514 741c-1.5 2.6-3 5.3-4.6 7.9-.9 1.4-2.3 2.7-3.4 4-2.7 1-5.4 2-8 3 .5-.8.8-1.9 1.5-2.5 4.8-4.2 9.7-8.3 14.5-12.4" style="fill:#8b8986"/><path d="m491 465c-.8 1.3-.5 3.5-3.5 2.3-1.6-.7-5.6-.6-4.5 3.7.1.3-.3.7-.5 1-.3-.4-.5-.8-.8-1.1-.6 1.1-1.1 2.1-1.7 3.2-.4-.7-.7-1.4-1.1-2-.8-2.4-.7-4.5 1.8-5.9.2-.1.3-.2.4-.4 2.8-2 6.5-2.8 8.7-5.7.1 1 .2 1.9.3 2.9.2.4.4.8.6 1.2.1.2.2.5.3.8" style="fill:#81746f"/><path d="m576 192c4.3 1.4 8.6 2.7 12.9 4.1-.2.6-.4 1.1-.5 1.7-1.4-.5-2.9-1.1-4.8-1.8.4 1 .6 1.8.9 2.6-3.4-1.6-6.7-3.2-10-4.8.6-.6 1-1.2 1.5-1.8" style="fill:#9f5f75"/><path d="m640 523c-3.7.9-7.5 1.8-11.2 2.8-.8.2-1.4 1.1-2.1 1.6-.4-.5-.8-1-1.1-1.5-1.4-.6-2.9-1.3-4.3-1.9 2.6-2.4 5.8-1.4 8.7-1.6 2.9.3 5.7-.9 8.6-.4.5.2 1 .5 1.4 1" style="fill:#887e59"/><path d="m481 466c-.6 2-1.2 3.9-1.8 5.9-.9-3.1-1.8-6.2-2.7-9.2.9-1.3 1.8-3.6 3.1-.3.5 1.3 1 2.4 1.4 3.6" style="fill:#c0b3ad"/><path d="m680 753c.7.4 1.4.8 2.5 1.5-2.9 1.9-7.8.6-8.4 5.4-.7-2-1.4-3.9-2.1-5.9 2.7-.4 5.3-.7 8-1" style="fill:#7a6b6a"/><path d="m560 370c1.5 2.8 2 5.9 4.7 8.5 1.5 1.4-1 6.9-1.7 10.5-.1-3.6 1.1-8.6-.7-10.4-3.1-2.9-2-5.7-2.3-8.6" style="fill:#937281"/><path d="m484 410c2.4.3 4.8.5 6.2.7-1.7 1.6-4 3.9-6.4 6.3-.1.1-.3.2-.4.2-.1 0-.3-.1-.4-.2.2-2.4.6-4.7 1-7" style="fill:#8a817b"/><path d="m479 434c0 2.4.2 4.9 0 7.3-.2 2.4-.7 4.8-1.1 7.2-.4-.2-.8-.5-1.2-.7.8-4.6 1.5-9.2 2.3-13.8" style="fill:#817774"/><path d="m500 340c-.4 1-.7 2-1.1 3 .4-1 .7-2 1.1-3" style="fill:#8e7275"/><path d="m680 776c.7.9 1.5 1.9 2.2 2.8-.4.1-.8.1-1.1.2-.3-1-.7-2-1.1-3" style="fill:#65544b"/><path d="m498 345c.3.6.5 1.2.8 1.9-.3 0-.7 0-1 0 .1-.7.1-1.3.2-1.9" style="fill:#8e7275"/><path d="m559 368c.4.7.9 1.4 1.3 2.1-.4-.7-.8-1.4-1.3-2.1" style="fill:#937281"/><path d="m480 474c.1.7.1 1.3.2 2-.1-.7-.1-1.4-.2-2" style="fill:#857672"/><path d="m526 721c-.3.3-.6.7-.9 1 .3-.3.6-.7.9-1" style="fill:#91889e"/><path d="m609 318c5.9 3.3 15.6.1 17.4 10-29.9-.2-52-15.6-72-37 42.6 10.6 85 8.2 126-5.8-2.8 3.8-24.4 17-33.9 20-12.6 4.5-25 8.4-37.9 12.6" style="fill:#ac6780"/><path d="m560 312c-1.1-1.9-2.1-3.9-3.1-5.7-1.3 1.8-2.6 3.5-3.9 5.2-.8-.7-.6-1.9-1.7-2.9-1.3 6.7-7.1 10-10.4 15.3-.6.9-1.7 1.5-3 1.5-2.2-2.6-4.4-5.2-6.3-7.5.2 0 1.3.2 3.2.5-2.7-1.9-4.8-3.3-6.8-4.8-.3-.3-.5-.6-.6-1 0-.4.1-.8.3-1.1.2-.1.3-.2.5-.2 2.3 1.2 4.7 2.5 7 3.6 1.1.5 2.4.7 3.6 1 .3-1.4 1.3-3 .9-4.1-.9-2.1-2.4-4.1-3.9-5.8-.9-1.1-2.3-1.7-3.2-3.3 1.7.6 3.4 1.2 5.7 2-1.8-5-3.1-9.4-8.9-10.4-4.5-.8-8.8-2.1-13.2-3.2.1-.6.2-1.2.4-1.8 4.9.8 9.7 1.6 14.8 2.4-1.2-1.2-2.3-2.9-3.8-3.5-3.3-1.3-.5-2.7-.4-4.1 1 .4 2.2.7 3 1.3 5.1 3.8 10 7.7 15 11.6.4-.4.7-.8 1.1-1.1-1.6-2.1-3.4-4.1-4.9-6.3-.5-.8-.4-2-.6-3.1 1-.1 2.5-.6 2.9-.1 2.8 2.9 5.4 6 8.1 9.1-.3-1.7-.6-3.5-.8-5 11.6 14.4 24 27.7 43 33-.3.6-.7 1.1-1 1.7-2.8-1.1-5.7-2.1-8.5-3.2-.2.2-.3.5-.5.7 1.9 1.6 3.7 3.1 5.6 4.7-13-2.5-21-12-30-20.9.3 2.4.4 4 .6 5.5" style="fill:#ac6881"/><path d="m607 355c-1.1.1-2.5.7-3.4.3-10.2-5.1-20.4-10.4-30.4-15.8-3.2-1.7-3-5.2-2.9-8.2 0-.5 2.4-1.6 3.1-1.3 11.7 5.7 23.3 11.6 35 17.3 4.6 2.2 9.5 3.8 14.3 5.7 1.4.6 2.8 1 4 1.9 1.1.8 1.9 2 2.9 3.1-1.3.3-2.8 1.1-4 .8-4.8-1.1-9.6-2.5-14.4-3.7-1.5-.3-2.9-.1-4.3-.1-.3-.2-.5-.4-.6-.4.1 0 .3.2.6.4" style="fill:#ad6883"/><path d="m713 294c1.9 8.5 3.8 17 5.7 25.6.5 4.6 0 4.8-5.9 3.8-4.7-19.3-12-38-7.5-59-2.7 1-3.2 3-4.8 3.9-.9.5-1.8 1.3-2.7.7-.9-.6-.9-1.7-.8-2.7.3-2.9 2.1-5.2 2.7-8 .1-.5.2-1 .4-1.5 3.3-5.7 2.7-12.5 4.8-18.5.3-2 .6-4 .8-6.1-.4-.6-.6-1.1-.1-1.8.4-.5.9-.2 1.3 0 4 11 4.6 22.3 3.2 33.8-1.3 10.2.3 20 2.9 29.9" style="fill:#f7b1c9"/><path d="m701 257c0 .3 0 .6-.1 1-3.2 6.7-5.7 13.7-10.8 20.6 2.3-2.4 2.8-6.4 5.6-5.2 2.8 1.3.4 4.4-.2 6.7-.4 1.6-1.3 3-2.2 4.5-1.1 1.9-1.7 3.6.9 4.9 1.7.8 1.5 2.4 1 3.9-.5 1.6-1.2 3.1-1.9 4.6-2.2 5.3-3.7 10.6-2.2 16.4.5 2.2 2.2 5.4-.5 6.8-2.8 1.4-4-2.1-5.7-3.6-.5-.4-1-.9-1.4-1.5-1.4-1.9-.9 1-1.6.7-.9-1.5-1.8-3.1-2.8-4.5-.8-1.1-1.9-2-2.8-3-.5 1.3-.9 2.6-1.4 3.9-.3-.7-1-1.6-.8-2.1 1.5-4.1 3.1-8.2 4.7-12.3-.4 0-1.3 0-2.3 0-.3-.4-.5-.7-.8-1.1 2.3-1.5 4.6-3.1 6.9-4.6-.3-.4-.7-.8-1-1.2-.7.2-1.3.5-2 .7.3-1 .3-2.1.8-3 6.5-11.2 13-22.3 19.5-33.4.7-.2.8.4 1.1.8" style="fill:#ad6880"/><path d="m673 338c1.6 7.1 3.8 14.2 4.5 21.5.3 2.6-2.9 5.5-4.5 8.3-5.1 1.3-4.2 5.8-3.9 8.9.3 2.9-.4 4.1-2.7 4.8-4.1 1.2-8.2 2.1-12.3 3.1-.2-.5-.3-.9-.5-1.4 2.9-1.2 5.8-2.4 8.8-3.6 1.9-.8 3.2-1.3 2.1-4.3-.7-1.7 1.1-4.7 2.4-6.7 2-3.2 5.9-4.8 6.2-9.7.4-7.2-3.2-11.4-8.5-15-2.4-1.7-4.6-3.7-6.9-5.6 2-1.9 4.1-3.8 6-5.8 1.6-1.7 3-3.5 5-5.9 1.6 4.5 2.9 8 4.3 11.5" style="fill:#f5b0ca"/><path d="m671 202c11 7.2 22 14.3 33 21.5.2 1.1 1.4.9 2 1.5.1.2.2.3.3.5 0 .2 0 .4-.1.6-.2.4-.4.6-.8.8-.2 0-.4 0-.6.1-6.1-2.3-12-5.2-18.5-6.8-7.3-1.8-13.8-4.5-19.3-9.6-2.2-2-4.7-3.8-6.6-6-1-1.2-1.1-3.2-1.6-4.8 1.7-.1 3.5-.7 5-.4 2.5.6 4.9 1.7 7.2 2.6" style="fill:#f7b0ca"/><path d="m642 334c.3 1.3.7 2.5.9 3.4 3.6-3.9 6.7-7.6 10.2-10.9 2.4-2.2 5.3-3.9 8.1-5.7.8-.5 2-.6 3-.9 0 1.2.1 2.5-.2 3.7-.2.8-.8 1.4-1.3 2.1-3.9 5-7.9 9.9-11.8 14.8 2.8 1.2 5.6 2.4 8.5 3.6-.1.4-.3.7-.4 1.1-3-1.1-6-2.2-9-3.2-.1.3-.3.5-.4.8 4.6 2.8 9.3 5.6 14.8 8.9-1.7 0-2.4.2-2.9 0-6.8-2.5-13.5-5.1-20.3-7.7-.8-.3-1.7-.2-2.3-.7-.9-.7-1.6-1.7-2.4-2.6 1.1-.2 2.2-.7 3.2-.6 1.8.2 3.5.6 5.3 1 0-3.2-8.7-2-3.1-7.3v.2" style="fill:#ae6984"/><path d="m582 414c-4.9-3.6-9.7-7.2-14.6-10.7-2-1.4-4.1-2.7-5.7-4.9 2 1 4 1.9 6.6 3.1-.9-3-1.7-5.2-2.4-7.4 1.7 1 3.4 2 5 3 8.4 4.7 17.2 7.7 26.9 7.8-2 2.4-3.9 4.8-5.9 7.2-3.4.5-6.3 3-9.9 1.9" style="fill:#554a63"/><path d="m641 414c-4-2.8-8-5.5-11.8-8.4-.6-.4-.5-1.7-.8-2.6 2.2.5 4.7 2.1 6.5 1.5 8.6-2.8 17-6.2 25.6-9.4 1.5-2.2 4-3 5.9-4.5 2.3-1.8 4.1-3.8 5.1-6.5.3 0 .5.1.8.1 2.7 1.7 5.4 3.3 8 5 .1.2.3.4.4.6-.1.2-.2.4-.2.7-.1.1-.3.3-.3.3-6.5-1.5-10.2 3.2-14.7 6.4-8.4 2.4-13.8 9.3-20.5 14.2-1.3.8-.9 4-4 2.6" style="fill:#624e61"/><path d="m538 326c3.6-4.5 7.2-9.1 10.9-13.6.4-.5.8-1 1.2-1.5.7-1.1-1.8-4.3 1.9-3.1.8.2.8 2.9 1.1 4.4-.8 1.3-.7 2.7-1.1 4.1 0 .7-.1 1.4-.1 2.1-.3.3-.6.6-.9.9l.1-.1c-.6.6-1.5.4-2.1 1.1l.1-.1c-.9.5-1.6 1.2-2.1 2.1v-.1c-.6.5-.5 1.5-1.1 2.1l.1-.1c-1.7 2.8 1.4 7.2-3.1 9.1-.9.8-2.5.6-3 2-.7 1.5-1.5 3-2.3 4.6-5.5-6.1-5.5-6.1-.8-9.6 0-.7-.7-1.3-.1-2 .7-.9 1-1.6 1.3-2.3" style="fill:#f4b1c6"/><path d="m647 168c.3.3.6.6.9.9.4.5.9 1 1.5 1.1 4.3 2.4 7.3 5.5 6.7 11-.2 1.5 1.7 3.3 2.7 4.9-1.7 1-3.4 2.3-5.3 3-1.1.4-2.4.1-3.7.2 0-1.3 0-2.6 0-4-2.1.8-4.5 1.8-6.9 2.7 1.5-1.7 3.5-3.2 4.5-5.1 1-2 1.1-4.6 1.6-6.9h-.1c-1.4-.6-2.6-1.4-3.5-2.6-2-2.5-1.7-4.4 1.6-5.4" style="fill:#efb0c4"/><path d="m613 204c1.5-.7 3.2-1.1 4.6-2.1 6.7-4.9 13.4-9.9 20-14.9-.4 1-.4 2.4-1.1 2.9-5.8 4.2-11.7 8.3-17.6 12.3.3.4.5.8.8 1.2 6.4 0 12.9 0 19.3 0 0 .2 0 .3 0 .5-11.3.9-22.6 1.8-33.4 2.6 2.2.6 5 1.3 7.7 2 0 .4 0 .8-.1 1.1-1.1.1-2.3.2-3.4.3-3.7-1-7.3-2-11-2.9-1.3-.3-2.6-.2-4-.8 1.3-.2 2.7-.5 4.3-.8-2.3-.5-4.4-1-6.4-1.5 0-.3.1-.7.1-1 3.7.5 7.4 1.2 11 1.3 3.2.5 6.2 0 9.2-.2" style="fill:#9f5e75"/><path d="m588 179c.4-3.3.9-6.7 1.3-10 .3-.7.2-1.5.7-2.1 0-.3-.1-.6-.1-.9 6 4.4 7.4 10.9 8.1 17.6.2 2.2-.6 4.4-1 6.7-3.8-3.8-7.6-7.5-11.4-11.3.8 0 1.6 0 2.4 0" style="fill:#613d2b"/><path d="m610 210c-5.2.7-10.3 1.5-15.5 1.9-4.1.3-8.3.1-12.4.7 8.9.4 17.7 1.3 26.6 1.1 3.2-.1 6.4-2.5 9.5-3.8 1.6-.7 3.2-1.4 4.9-1.7-6 4-12 7.7-19.9 7-12.7-1.2-25.4-1.7-38-3.3 15-.6 30-1.3 45-1.9" style="fill:#9f5e75"/><path d="m535 348c-.3.3-.6.7-.9 1-.3.2-.4.3-.3.5.1.2.1.3.2.3-.3.7-.6 1.4-.9 2.1-4.4 0-3.4-3.5-4-6-.4-2.3-1-4.6-.9-6.8 0-1.2 1-2.6 2-3.5.3-.3 2.1.8 2.9 1.6 2.3 2.2 3.8 4.6 1.5 7.8-.4.6.2 2 .4 3" style="fill:#f7b0c6"/><path d="m537 328c0 .7 0 1.3.1 2-6.6-2.8-13-5.7-19.7-8.5.2-.4.4-.9.6-1.3 2.3 1 4.6 1.9 7 2.9.1-.3.3-.5.4-.8-2.9-1.6-5.8-3.1-8.7-4.7.3-.5.6-1 .9-1.5 6.3 4 12.9 8 19.4 11.9" style="fill:#a15e78"/><path d="m671 384c1.6 3.9-1.8 5.3-3.8 7-2.1 1.7-4.7 2.7-7.2 4-1.1-.5-2.1-1.1-3.2-1.6.7-.9 1.3-2.2 2.2-2.7 3.9-2.4 8-4.5 12-6.7" style="fill:#f4afc8"/><path d="m637 375c-13.5 3.5-26.9 7-39 10 4.3-4.4 23.6-8.6 39-10" style="fill:#9e5b76"/><path d="m647 388c-16.7.7-33 1.4-50 2.2 0-.3 0-.7 0-1 16.6-.8 33-1.5 49.8-2.3.1.3.1.7.2 1.1" style="fill:#93516b"/><path d="m529 346c1.3 2 2.7 4 4 6-1.4 2-2.8 3.9-4.2 5.9-.4-.4-1.2-1.2-1.2-1.3 4.7-6.1.1-9.1-4-12.3-.4-.3-.5-.8-.7-1.3.6-.3 1.3-.6 1.9-.8l.3-.3c1.3 1.4 2.6 2.8 3.9 4.1" style="fill:#8b656e"/><path d="m603 201c-4-.5-10.4 3.8-11.2-5.4 4.2 2 7.7 3.7 11.2 5.4" style="fill:#91546a"/><path d="m528 313c0 .5 0 1 0 1.4-4.7-2.6-9.4-5.2-14-7.8.2-.4.3-.8.5-1.2 4.6 2.2 9.2 4.4 13.9 6.6 0 0-.3.3-.3.3l-.4.3.4.4" style="fill:#9c5974"/><path d="m648 382c-5.7-.3-11.4-.7-17-.7-2.9 0-5.9.5-8.8.7 8.8-.7 17.5-1.4 26.3-2-.2.7-.3 1.4-.4 2" style="fill:#8f4d66"/><path d="m701 257c-.3-.3-.7-.7-1-1 1.7-7.3 3.4-14.6 4.9-20.9 0 .3.2 1.7.3 3.1-1.4 6.2-2.8 12.5-4.2 18.8" style="fill:#a05c74"/><path d="m648 382c-4.6 1-9.1 2.2-13.8 2.9-3.1.4-6.2.1-9.3-.2 7.7-.9 15.4-1.8 23-2.7" style="fill:#96536b"/><path d="m633 196c2.2-1.8 4.4-3.5 6.6-5.3.3.3.5.5.8.8-1 .9-2 1.9-3.9 3.7 2.6-.6 4-.9 5.4-1.2.1.3.2.6.3.9-2.8.8-5.6 1.6-8.4 2.4-.3-.4-.5-.9-.8-1.3" style="fill:#96556f"/><path d="m656 354c3.3-1.6 7 3 10-.7.4.5 1.2 1 1.1 1.4 0 .5-.9 1.3-1.3 1.2-3.3-.5-6.6-1.2-9.9-1.9" style="fill:#96516d"/><path d="m649 327c1.6-1.7 3.2-3.4 4.8-5.1.4.4.7.8 1.1 1.1-1.9 1.4-3.8 2.7-5.7 4.1l-.2-.1" style="fill:#ae6984"/><path d="m707 230c-.3.7-.6 1.4-.9 2.1-.4-1.7-.8-3.4-1.1-5.1h.1c.4-.2.7-.5 1-.9h.1c.3-.3.6-.2.9.2.1.7.2 1.3.3 2 .4.5.4 1 .3 1.5-.4.1-.5.2-.7.3" style="fill:#a05c74"/><path d="m622 382c-1.7.4-3.3.8-5 1.3-.1-.4-.1-.8-.2-1.2 1.7-.1 3.5-.1 5.2-.1" style="fill:#8f4d66"/><path d="m523 343c-1.7-.7-3.4-1.4-5.1-2 1.7.7 3.4 1.4 5.1 2" style="fill:#8b656e"/><path d="m656 354c-.8-.1-1.5-.3-2.3-.4.1-.1.2-.4.3-.4.7.2 1.3.5 2 .8" style="fill:#96516d"/><path d="m571 397c.3-.3.6-.5.9-.8.1.2.2.4.4.5-.4.1-.9.2-1.3.3" style="fill:#554a63"/><path d="m643 188c-.3.2-.7.5-1 .7-.1-.1-.2-.2-.3-.4.4 0 .9-.2 1.3-.3" style="fill:#efb0c4"/><path d="m665 198c.3.3.6.5.9.8-.2-.2-.6-.5-.9-.8" style="fill:#f7b0ca"/><g style="fill:#ae6984"><path d="m643 333c.3-.4.6-.7 1-1.1l.3.3c-.4.3-.7.6-1.1 1l-.2-.2"/><path d="m644 332c.3-.3.7-.7 1-1l.3.3c-.3.3-.7.7-1 1-.1-.1-.3-.3-.3-.3"/><path d="m645 331c.3-.3.7-.7 1-1l.3.3c-.3.3-.7.7-1 1-.1-.1-.3-.3-.3-.3"/><path d="m646 330c.3-.3.7-.7 1-1l.2.2c-.3.3-.7.7-1 1 0 0-.2-.2-.2-.2"/><path d="m647 329c.3-.3.7-.6 1-1l.2.2c-.3.3-.6.7-1 1 0 0-.2-.2-.2-.2"/><path d="m648 328c.3-.3.7-.7 1-1 0 0 .1.1.2.2-.3.3-.7.7-1 1 0 0-.2-.2-.2-.2"/></g><path d="m536 346c-.2.3-.5.7-.7 1 .2-.3.5-.7.7-1" style="fill:#f7b0c6"/><g style="fill:#8b656e"><path d="m525 342c-.3-.3-.7-.7-1-1l.3-.3c.3.3.7.7 1 1 0-.1-.3.3-.3.3"/><path d="m524 341c-.1-.3-.2-.6-.3-.9.2.2.4.4.6.5.1 0-.3.4-.3.4"/></g><path d="m642 334c.3-.3.7-.7 1-1 0 0 .2.2.2.2-.3.3-.7.7-1 1 0 0-.2-.2-.2-.2" style="fill:#ae6984"/><path d="m682 317c-.1-1.3-.3-2.5-.4-3.8.3-.3.7-.7 1-1 2.7 2.9 5.3 5.8 8.4 9.1-.4-2.1-.5-3.7-.9-5.2-2.3-7.9.4-15 3.7-21.9.9-1.8 2.3-3.6-1.5-3.9-3.4-.2-1.7-2.4-1-4 1.7-3.9 3.6-7.7 5.4-11.5-.4-.3-.8-.6-1.3-.9-2 2.7-4.1 5.4-6.1 8-.4-.2-.7-.4-1.1-.6 4.3-7.7 8.6-15.3 12.9-23-.9 3.4-1.8 6.8-2.7 10.2.3.1.5.3.8.4 1.3-1.6 2.5-3.4 3.9-4.8.9-.9 2.3-1.5 3.5-2.2.2 1.3.6 2.5.5 3.8-.2 2.8-.6 5.6-.9 8.3-1.3 11.8 1.4 23 4.8 34 1.4 4.8 1.6 9.9 2.3 14.8.6 2.1-.9 2.4-2.4 2.7-3.2.6-6.4 1.3-8.7 1.6-1.5.4-.5 1-.9.5-.1-.1 0-.2.4-.3 2.6-.7 5.2-.7 7.7-1.5 2.7-.9 3 .8 3 2.8 5.2 1.7 5.3 2.1 2.3 7-2.2 3.5-5.2 6.4-8.1 9.3-1.3 1.4-3.2 2.4-3.4 4.6 6.3-1.4 11-4.6 13.9-10.5.2-.4.4-.8.6-1.2.2-.4.5-.8.8-1.1.1-.2.3-.4.4-.5.8-.9 1.4-1.9 2.5-2.5.5-.1 1-.1 1.4.1.9.7 1 1.6.9 2.7-.9 2.7-3.1 4.7-4.4 7.3 1.2-.4 2.4-1.7 3.7-.5.8.8.5 1.9.1 2.8-2.2 4.9-.9 9.8.1 14.7 3.2 15.2 6.4 30.4 9.1 42.7-.7-5-.7-12.8-.9-20.7.2-.5.6-.8 1.1-1 .5-.1 1 .1 1.4.4.1 6.8-.7 13.8.5 20.4 1.4 8 2.1 15.6-.1 23.6-1 3.7-.3 7.9-.3 11.9-.7.9-.1 2.1-.7 3-.1.4-.3.7-.4 1.1-.2 0-.5 0-.7.1-2-1.7-1.3-4-1-6.1.4-2.6.7-5.2.2-8.4-2.3 5.7.4 11-1.3 16-6.8-5-13.6-10-20.5-15-.8-.6-2.5.1-3.8.2.3-1.4 0-3.4.9-4.2 4.5-4.7 2.8-10.2 1.8-15.3-1.2-5.9-3.1-11.7-4.8-17.6-2.9-4.7-3.6-10.2-5.1-15.4-1.4-4.9-3.3-9.6-4.5-14.6-1.1-7.4-1.8-14.9-3.5-22-1.4-6.1-4-11.8-6.2-17.7-.5-1.9-1.5-3.6-2.4-5.4" style="fill:#ce89a5"/><path d="m634 469c.8-6.9 1.6-13.7 2.3-20.6.6-5.4 1.1-10.8 1.6-16.3 2.5-.2 1.8-4.2 4.7-4 4.4 7.1 10 13.7 12.9 21.3 4.8 13 15.9 15.5 26.9 18.5 2.7.7 5.5.8 8.3 1.1.4 14.3.7 28.6 1.1 42.9.8 1.3-.1 2.8.7 4.1 0 1.3-.1 2.7-.1 4-.6.2-1.1.1-1.5-.4-1.4-1.6-1.7-3.6-1.6-5.6.5-10.7-1.4-21-1.1-31.9 0-1.8 1-4.6-1.4-5.2-2.3-.5-3 2.2-3.9 3.9-.2.4-.5.9-.8 1.3-4.1 2.6-9.1 3-12.6.9-2.7-1.7-5-.5-7.3-1.3-3.3-1-6.9-.3-10.4-.4-2.9-.1-6 .1-8.4-3.2 4.5-2.5 9.5-1.5 14-2.8 4.5-1.2 8.9-2.6 13.6-3-5.3.1-10.5 1.4-15.8 1-1.3-.1-2.7 0-4-.3-1-.2-2.2-.4-2.3-1.5-.2-1.2 1-1.6 1.9-2 2.8-1.3 5.8-.9 8.4-1.1-1.1-.5-2.9.7-4.4-.8.8-2.1 2.9-1.5 4.3-2.4-7.6 3.1-16.2.7-23.8 4.2-.4.4-.9 0-1.3-.4" style="fill:#9f9ab2"/><path d="m682 482c.4-1.5.3-3.5 1.3-4.5 1.4-1.5 3.5-2.2 5.3-3.3.4 1.8 1.2 3.5 1.3 5.3.5 11.7.7 23.5 1.2 35 .1 1.8.7 3.5 1.1 5.3.3 10.8.8 21.5 1.4 32 .1 2.1-.8 3.9-1.5 5.7v-.1c-.6.5-.5 1.5-1 2.1-.1 2.9.2 5.6 2.2 7.9.6 1 1.2 2 1.8 3.1-.4 3.6-.5 7.3-1.2 10.8-1.1 5.5-4.6 9.1-9.9 11.5 1.8-5.8 3.4-11 5-16.3-1.6-3-3.3-6-4.9-9-1.7-1.9-3.9-1.2-6-1-.3-.7-.7-1.3-1-2 .1-.5.4-.9 1-1 1.1-1.6 2.1-3.1 3.6-5.3-5.5 1.7-10 3.1-14.7 4.5-.1-.3-.2-.5-.3-.8 3.4-3.3 6.9-6.5 10.3-9.8 9.8-9.6 9.5-9.6 8.1-22.9-1.4-13.3-2.1-26.7-2.9-40-.2-2.4-.2-4.6-2.9-5.5.1-.4.3-.6.6-.8.4-.3 1-.4 1.4-.7.2-.1.4-.3.7-.6" style="fill:#c2bfd4"/><path d="m701 627c0-1 .1-2.1.1-3.1.3-.3.7-.5 1.2-.4 2 .4.5 2.7 1.9 3.4.9 2.7 1.8 5.5 2.7 8.2-.5 2.2-.7 4.5.1 6.7-.2 2.8-.5 5.5-.7 8.3-1.3-1.5-.3-3.3-.8-5.2.5 6.5-.4 12.7.5 18.9.9 11.2 2 22.4 2.7 33.6.2 3.2-.9 6.4-1.4 9.7-1.1-4.4-1.5-9.1-3.4-13.2-3-6.6-6.6-12.9-10.6-18.9-1.5-2.4-2.4-3.9-1-6.6 3.3-6.8 6.3-13.7 9.3-20.6.4-.8 0-2 0-3-.5.4-1 .8-1.5 1.2.3-3.7.7-7.3 1-11 0-2.3 0-4.7.1-7-.3-.2-.4-.4-.4-.6 0-.3.1-.4.2-.4" style="fill:#aea0b0"/><path d="m680 390c0-.3 0-.6-.1-.9 1 .6 2 1.2 3.1 1.9-1.7 5.6-1.3 11 0 16.7-.2 1.2-.8 2.1-1.6 3.1-3.8 4.6-5.7 4.8-10.2.9-.9-.7-1.9-1.3-2-1.6.5.7 2 1.4 3.1 2.6 1 1 2.6 1.9 1.7 3.7-.9 1.9-2.6 2.8-4.5 2.4-3.8-.8-7.2-2.4-10.5-4.4-1.4-.8-2-2.4-1.6-3.9 1.6-5.3 2.1-11.3 7.7-14.5.4-.3.9-.5 1.2-.8 3.5-4.6 7.8-7.1 13.7-5.2" style="fill:#a38ca7"/><path d="m682 408c-1.5-5.7-3.9-11.5.9-16.9 6.2 4.8 8.8 10.7 6.1 18.5-.4 1-.5 2.5-.1 3.4 4 9.7 3.2 20 4.9 30-.5.7-.4 1.4.2 1.9 0 6.4 0 12.8 0 19-.1-1-.1-2-.3-3.5-1.2 1-2.1 1.9-3.7 3.3-.7-8.9-3.8-16.8 1.3-24.9 1.1-1.7 2.4-5.1-2.1-7-2.3-1-3-5.4-4.5-8.2-1.8-5.1-3.1-10.3-2.7-15.9" style="fill:#3f3b46"/><path d="m702 624c-.3 0-.6 0-.9 0-1.7-6-3.3-12-5.3-18-.5-1.4-2.4-2.2-3.4-3.4-.5-.7-1-2-.7-2.6 1.4-2.9 3.2-5.7 5.2-9.3.7 2.3 1.1 3.8 1.6 5.3.2 0 .4 0 .7 0-.2-1.8-.7-3.6-.5-5.3.3-2.6 1-5.1 1.5-7.6 1.6 1.1 3.2 2.1 4.8 3.2-.6 7.2-.7 14.5 0 21.7-.3.7-.6 1.4-.9 2.1-1.3 3.7-2 7.4-1.3 11.4.2.9.1 1.8-.8 2.5" style="fill:#bbb3c4"/><path d="m694 362c2.5 7 5.2 14 7.5 21 1 2.9 1.4 6 2 9-2.2-1.6-4.3-3.5-6.7-4.8-9.5-5-11.3-12.4-5.1-21.5.8-1.2 1.5-2.4 2.3-3.7" style="fill:#fcfbfb"/><path d="m726 770c-2.6-5.4-7.4-7.3-12.8-8.4-2.7-2.9-4.2-6.5-5.8-10 0-1.7 1.1-2.6 2.4-3.2 1.6-.6 3-1 4.6.3 3.4 2.6 5.1 1.7 5.3-2.7.4-7.3.4-14.6-4.9-20.7.1-.5.5-.8 1-.9.5 0 1 .1 1.4.3 3.1 1.8 4.5 4.4 4 8 .1.5.5.8.8 1.1.1 2 .1 3.9.2 5.9.9 2.7-.4 5.5.7 8.1 0 .7 0 1.3 0 2-.3.4-.5.7-.7 1.2 0 .3-.1.6-.2.9-.3.3-.6.6-1 .9-3.9 2.3-3.2 4.7-.3 7.3 3 2.6 6.3 5.1 5.3 9.9" style="fill:#c1b8ad"/><path d="m692 558c0-10.7 0-21.3 0-32 0-2 .1-4 .1-6 .2 0 .4 0 .7 0 .5 10.2 1.1 20.4 1.3 30.7.1 2.5-1.4 4.9-2.1 7.3" style="fill:#8a8992"/><path d="m702 624c.4-4.7.9-9.4 1.3-14 0-.1.2-.2.4-.2.1 0 .3.2.4.2 0 5.6 0 11.3.1 16.9-.7-.9-1.5-1.9-2.2-2.9" style="fill:#6e656d"/><path d="m705 608c0-7.2 0-14.5 0-21.7 0 7.2 0 14.5 0 21.7" style="fill:#727474"/><path d="m706 664c-.4-6.6-.9-13.2-1.3-19.8.4 0 .7 0 1.1-.1.2 2 .3 4.1.5 6.1-.1 4.6-.2 9.2-.3 13.8" style="fill:#827d80"/><path d="m716 725c-.5 0-1 0-1.4 0-.6 1.7 1 4.1-1.7 5.2-.5-.2-.9-.5-1.1-1-.8-3.9-.7-7.8-.7-11.7.2-.2.3-.4.5-.6 1.3 2.4 2.5 4.8 3.8 7.2.4.2.6.5.6.9" style="fill:#85798b"/><path d="m693 568c-.7-2.6-1.5-5.3-2.2-7.9.8 2.6 1.5 5.3 2.2 7.9" style="fill:#8a8992"/><path d="m723 748c-.2-2.7-.5-5.4-.7-8.1.2 2.7.5 5.4.7 8.1" style="fill:#cdbebf"/><path d="m707 642c0-2.2 0-4.5-.1-6.7.1 2.2.1 4.5.1 6.7" style="fill:#827d80"/><path d="m693 516c-.2-1.4-.5-2.7-.7-4.1.2 1.3.4 2.7.7 4.1" style="fill:#c2bfd4"/><path d="m691 560c.3-.7.7-1.4 1-2.1-.3.8-.6 1.5-1 2.1" style="fill:#8a8992"/><path d="m694 445c-.1-.6-.1-1.3-.2-1.9 0 .6.1 1.2.2 1.9" style="fill:#302b37"/><g style="fill:#cdbebf"><path d="m722 734c-.3-.4-.5-.8-.8-1.1.2.3.5.7.8 1.1"/><path d="m722 751c.2-.4.5-.8.7-1.2-.2.4-.4.8-.7 1.2"/><path d="m721 753c.3-.3.7-.6 1-.9-.3.3-.7.6-1 .9"/></g><path d="m711 716c.3.4.6.7.9 1.1-.9.3-1.3.1-1-1l.1-.1" style="fill:#85798b"/><path d="m716 725c-.2-.3-.4-.6-.6-.9.4.3.8.5 1.3.8-.2 0-.4 0-.7.1" style="fill:#cdbebf"/><g style="fill:#c2bfd4"><path d="m696 574c-.2-.4-.4-.8-.7-1.1.3.3.5.7.7 1.1"/><path d="m697 579c-.2-.4-.5-.8-.7-1.2.2.4.4.8.7 1.2"/></g><path d="m602 101c2-2.3 4-4.7 6-7 10.6 3 20.8 7.5 32 7.7 1.8 0 3.6-.1 5.3.2.9.2 1.6 1.3 2.4 2-3 2-3.1 4.2-2.4 7.9.9 4.9 3.3 9.3 3.8 14.2-5.4 2.5-11 3.6-17 2.6-.4-.3-.7-.8-.9-1.2-.5-2.4-2.4-2.9-4.3-3.4-6.6-1.7-13-.5-19.5 1-3.7.9-7.3 2.1-11 2.3-3.4-2-1.7-4.9-.7-7 3-6.2 4.8-12.7 6.4-19.3" style="fill:#84553a"/><path d="m632 128c5.7-.7 11.4-1.4 17-2.1 1-.8 2-.7 2.9.2 2.3.7 4.7 1.2 6.9 2.2 2.2.9 3.7 1.5 1.8 5-2.4 4.4-3.8 9.3-8.7 11.7-1.4.8-2.7.1-4 0-.5-.1-1-.3-1.5-.3-.3.1-.6.2-.9.4-.4.3-.9.5-1.4.1-1-3.5-1.9-7-3.2-10.4-.4-1-1.6-2.3-2.6-2.3-1 0-2.3 1-2.9 2-5 7.8-11 10.3-20 7.7-3.4-1-6.1-2.7-6.9-6.8-1.3-6.1-5.2-7.1-10.4-3.1-.2 0-.5.1-.7.1-.5.1-.9.1-1.4.1-1.6-.1-3.4.1-4.8-1-1-1-2.1-2.1-3.1-3.1l-.2-.4c2.4-1.9 5-2.6 7.9-1.2 10.7-2.8 21-6.8 32.6-3.8 2.5.7 4.9 1.6 3.5 5-3.5-.5-7-.4-10.6-1.4-2.8-.8-6.4-.4-8 2.4-1.4 2.4-.3 5.1 1.8 7.1.5.4 1.1.8 1.7 1.1 2.1.9 4.2.6 6.4.5 5.4-.2 7.3-2 8-7.4.1-.9 0-1.7.7-2.3" style="fill:#452b1b"/><path d="m732 382c0 9 0 18 0 27 .2.1.5.1.7.2-1-3.5-2.1-6.9-2.8-10.4-3.3-15.2-6.7-30-9.6-45.5-.6-3 .9-6.4 1.5-9.9-1.8 1.2-3.8 2.5-5.7 3.8-.2-.3-.5-.6-.7-.8 2.6-3.5 5.1-7 7.7-10.6.2-.4.6-.6 1-.7 2.6 7.3 5.2 14.6 7.8 21.9-.7 3.7-.8 7.4.1 11v-.1c.7 4.6.4 9.3 0 13.9" style="fill:#fab0cb"/><path d="m647 144c1.6.3 3.3.6 4.9.9-1.7 5.8-3.6 11.7-5.1 17.6-.4 1.7.2 3.7.3 5.5-4.5 3.8 1.4 5.4 1.8 8.1-3.2 2.7-6.4 5.3-9.9 8.2-.4-2.2-.8-3.8-1.1-5.4-.2-1.1.5-1.3 1.3-1.4.4-.1 1.1 1.3 1.2-.3.1-.8.3-1.5.5-2.3 1.2-2.8-2.7-5.1-.8-8 4.8.5 4.4-3.8 4.5-6.1.2-2.5-1.6-5.2-2.6-7.8-.6-1.1 0-2.2.7-2.5 3.5-.9 3.7-3.9 4.3-6.5" style="fill:#9e6f6a"/><path d="m640 102c-7.7.9-15 .4-22-3.8-3-1.9-6.7-2.6-10-3.9 7.4-1.4 14.8-2.9 22.3-4 1.8-.2 3.8 1.2 5.7 1.9-1.3-.1-2.7 0-4-.2-1.3-.2-2.7-1.1-3.7-.7-1.4.5-2.6 1.8-3.5 3.1-.2.2 1.1 2.1 2.1 2.5 4.3 1.8 8.8 3.4 13.2 5.1" style="fill:#b8b8b8"/><path d="m652 126c-1-.1-1.9-.1-2.9-.2-2-5.8-4-11.7-6-17.5-1.6-4.7 2.6-3.5 4.7-4.4 1.4 7.4 2.8 14.7 4.2 22" style="fill:#a17250"/><path d="m713 294c-.4.2-.9.4-1.3.6-.8-10.6-3.7-20.9-2.4-31.9 1.2-9.7 1.8-19.8-2.3-29.4-.4-1-.2-2.3-.3-3.4.4-.3.7-.3.9.2 4 12.4 4.4 24.8 2.9 37.8-1.1 8.5 1.5 17.4 2.5 26" style="fill:#b7939f"/><path d="m731 461c-.6-.3-1.1-.6-1.7-.9-.8 1.7-1.7 3.4-2.5 5.1 1.8-4.6-3.2-7.4-2.9-11.5.2-2.6-1.1-6.3 3.1-6.6 4.1-.3 2.3 3.5 3 5.5.2.4.6.8.8 1.2.1 2.4.1 4.8.2 7.2" style="fill:#a87552"/><path d="m711 329c-.3-.8-.7-1.5-1.2-2.7-3.1.5-7.4 1.2-11.6 1.9-.1-.4-.2-.8-.2-1.2 3.8-.7 7.6-1.4 11.4-2.3 1.3-.3 2.4-1.3 3.6-2 1.7-1.5 6.4 2.1 5.9-3.3.3 1.8.7 3.7 1 5.5-.2.1-.3.3-.5.4-2.8 1.3-4.9 4.2-8.4 3.7" style="fill:#ac6c83"/><g style="fill:#9c7a84"><path d="m732 382c-.1-4.7-.1-9.3-.2-14 .4 4 .8 8.1 1.2 12 .3.7.4 1.4-.2 1.9-.3.1-.6 0-.8 0"/><path d="m732 368c0-3.7 0-7.4-.1-11 .1 3.7.1 7.4.1 11"/></g><g style="fill:#ac6c83"><path d="m724 335c-.3.2-.7.5-1 .7-.4-.6-.8-1.2-1.1-1.8-1.5-2-.5-3.7.4-5.5.2-.2.4-.3.6-.5.3 2.4.7 4.7 1.1 7.1"/><path d="m720 325c1 1 2 2 3 3v-.1c-2.8.9-3.8-.1-3-2.9"/></g><path d="m733 441c.2-1 .4-2 .7-3-.2 1-.5 2-.7 3" style="fill:#eeb2c8"/><path d="m706 225c-.7-.5-1.3-1-2-1.5.7.5 1.4 1 2 1.5" style="fill:#ce89a5"/><path d="m708 230c-.3-.1-.6-.1-.9-.1.1-.6.1-1.3.2-1.9.2.6.4 1.3.7 2" style="fill:#f7b1c9"/><path d="m733 382c.1-.6.1-1.3.2-1.9.2.7.4 1.3.7 2h-.4l-.5-.1" style="fill:#fab0cb"/><path d="m707 226c-.3 0-.6-.1-.9-.2 0-.3 0-.6 0-.9.4.3.7.7.9 1.1" style="fill:#ce89a5"/><path d="m650 170c-.5-.4-1-.8-1.5-1.1.5.4 1 .7 1.5 1.1" style="fill:#9e6f6a"/><path d="m575 683c6.2 5.9 6.2 5.9 2.7 13-.4 1.6-1.2 3.2-1.1 4.8.2 4.6-.5 8-6.3 7.3-1.2-.1-2.5.6-3.8.9-.3-.2-.4-.5-.3-.8-.4-.5-.4.2-.6.2-.6.5-1.1 1.1-2 .6-3.6-2.4-.8-5 0-7.3.6-1.7 2-3 2.9-4.6 2-3.6 1.8-6.7-2.2-8.7-2.3-1.1-3.3-2.2-.7-4.1.3-.2.5-1.5.4-1.6-5.1-2.9-.9-6.5-.3-9.9.8 2.4 1.6 4.9 2.4 7.3.3-.1.6-.2.9-.3-.8-2.6-1.1-5.4-2.5-7.7-1.5-2.4-1.2-3.7.8-5.4 2-1.7 3.8-3.7 5.8-5.4 1.9-1.6 3.8-3.1 5.8-4.8 2.4 2.6 2.6 5 .1 7.8-1.2 1.2-1.6 3.1-2.4 4.8v-.1c-.4 2.6-2.1 5.1-1.2 7.9 0 .4 0 .9 0 1.3-1.5 2.3-1.1 5-1.5 7.5 1-.9-1.3-5.9 3.1-2.7" style="fill:#bbb3c3"/><path d="m585 573c3.2-8.3 2.9-17 4.3-25.6.5-3.1 4.3-5.6 6.7-8.4 2.6-1.3 3.4-4.3 5.7-5.9 3-.3 1.6 1.8 1.4 2.9-.3 2.7-2.7 4.9-2.2 7.9-1.3 2.7-2.5 5.4-3.8 8.1-1.1 1.1-1 2.9-2.1 4v-.1c-1.3 2.2-1.7 4.5-1.6 7 .2 4.3-.1 8.7-.4 13-1.9 5.3-3.9 10.7-5.8 16-1.6 3.2-3.2 6.5-4.6 9.3-4.4 1.1-9.6 2.4-14.7 3.6-.4-.3-.8-.6-1.2-.9 14-5.9 22-15.2 18.3-30.9" style="fill:#bcb6c9"/><path d="m566 752c-1.3.3-2.7.7-4 1-3.9.9-5.6-1.4-5.2-4.6.7-5.2-.4-10.7 2.3-15.9.5-1-.6-3.8.9-5.5.8-.8 1.7-1.6 2.9-2.8-1.4.1-2.3.1-4.2.3 2.9-2.3 5-3.9 7.2-5.6 2.4-.8 4.7-1.7 7.1-2.5.5 1.5 1.5 3.2 1.3 4.6-.8 5.1-2.1 10-3.2 15-.1-.1-.4-.2-.4-.3.2-.5-.2-.5-.1-.3.4 6-.4 11.7-4.6 16.5" style="fill:#d3c3c4"/><path d="m584 621c.9 4 1.4 8.1 2.7 11.9 2.1 5.9 2.1 11.6-.4 17.3-5-3.1-3.7-9.1-6-13.5-1.4-2.8-2.3-5.5-5.8-5.9-3.9-.5-2.5-4.1-3.7-6.2-.8-1.6-1.9-3-3-4.4-.5-.7-1.4-1.1-2.1-1.7.8-.6 1.4-1.3 2.3-1.8 5.3-3.1 10.5-6.1 15.7-9.2-.4 5.1-.9 11.2-1.6 18.6.9-2.5 1.4-3.8 1.9-5.1" style="fill:#b6acbf"/><path d="m548 722c-5.5-1.5-11.2-2.7-16.6-4.6-1.3-.5-2.1-2.8-3.1-4.2 1.4-.4 3-1.3 4.3-1.1 4.5.6 9 1.7 14.2 2.7-2.5-1.5-4.4-2.7-6.3-3.8.1-.3.2-.5.3-.8 4.3 1.7 8.7 3.4 13 5.4.6.3 1 2.9.5 3.2-1.8 1.5-2.5 5.7-6.3 3.2.1-.6 1.7-1.2.3-1.8-1.4-.6-3.2-.1-4.5-1 1 1.5 4.2-.3 4.2 2.8" style="fill:#686074"/><g style="fill:#63586e"><path d="m567 708c-.1.3-.2.7-.3 1-4.4 3.6-9.2 5.8-14.9 3 4.2-.4 8.8 1.2 12-3 .6-.4 1.3-.7 1.9-1.1.5-.3.9-.3 1.3.1"/><path d="m552 712c-3.1-.9-6.2-1.8-9.3-2.7.2-.6.4-1.2.6-1.8 2.9 1.5 5.8 3 8.7 4.5"/></g><g style="fill:#9a94ad"><path d="m565 569c0 .3 0 .7 0 1 0-.3 0-.7 0-1"/><path d="m565 570c.3.3.7.7 1 1-.3-.3-.7-.7-1-1"/><path d="m566 571c.3.3.7.7 1 1-.3-.3-.7-.7-1-1"/><path d="m567 572c.1.1.3.2.4.2-.1 0-.3-.1-.4-.2"/></g><g style="fill:#bcb6c9"><path d="m587 594c-.3.4-.5.8-.8 1.2.3-.4.5-.8.8-1.2"/><path d="m586 596c-.3.4-.5.8-.8 1.2.2-.4.5-.8.8-1.2"/></g><g style="fill:#a29eb8"><path d="m602 534c-2 1.7-4 3.4-5.9 5.1.4-1.6.7-3.1 1.1-4.7-1.9.2-4.1 0-5.6.8-5.1 2.9-7.1 2-8.7-3.8-.4-1.6-2.2-3.8-3.6-3.9-4-.3-8.3-.2-12.2.7-2.6.5-4.5 1.4-6.4-1.5-2-2.9-5.1-2.7-8-1.4-6.2 2.7-9 .9-9.6-5.9-.4-4.1-.8-8.2-1.2-12.3h.1c-.6-2.1-.6-4.2 0-6.3.4-8.4.6-16.9 1.2-25.3.1-1.6 1.7-3.1 2.6-4.7 5.3-2.7 10.6-5 16.9-3.6 4 .9 8.5.4 12.2 1.6 7.2 2.2 14.2 1.5 21.4 1.5 1.7 0 3.3.5 4.5 1.8 0 .6 0 1.2 0 1.8-.2 0-.3.1-.5.1 0 .2 0 .3 0 .5-.1.1-.2.3-.3.4-1.3 1.1-2.5 2.2-3.8 3.2-1.3.6-2.6.7-3.9.4-8.9-1.7-17.9-1.1-27-1.2 5.1 1.6 10.3 1.1 15.3 2 4.8.9 10-.9 14.7 2-8.5 2.5-17.2 1.7-25 2.6 6 .9 12.7.7 19.4-1.3 4.5-1.3 5.7-.2 5.9 4.4.2 6.4-.9 8.1-7 10.3-9.2 3.4-18.9 4.5-28.5 5.4 6.1-.7 12 .9 18 1.1 4.4.6 8.7 1.4 12.5 3.9 1.4.9 3.1 1.7 1 3.6-11.2 1-22.3 1.1-29.9 1 4.5-.1 12.5.3 20.6-.5 3-.1 6.1.2 9.1-.2 1.2-.4 2.3-1 3.5-1.1.7-.1 1.3-.3 2-.5 2.2-.8 4.2-2 6.4-3 .6-.3 1.1-.6 1.7-1 .7-.5 1.5-.8 2.4-.7.9.3 1.3.9 1.3 1.8-.1.3-.3.5-.4.8.2-.2.5-.3.8-.2 1 .6 1.5 1.5 1.8 2.5.2.7.2 1.4.1 2.1-.4 2.7-2.6 4.8-2.8 7.5-.8.9-1.4 1.8-1.6 3-.4 4.1-2.2 1.3-3.9.6-.2 3.8.8 7.3-.6 10.6"/><path d="m546 470c-.3-.7-1.1-1.5-1-2 2.5-8.8 4.1-17.9 7.9-26 2.3-5 7.6-8.9 12.2-12.5 3.2-2.4 7.5-3.4 11.4-4.9 1.7-.6 3.6-1.1 5.3-.8 1.8.4 3.3 2.2 5.1 2.6 1.6.4 3.5-.3 5.2-.6 8.5 5.3 14.4 11.9 12 22.9-1.8 5.6-3.5 11.3-5.3 16.9-.8 1.3-2 1.9-3.4 2.2-2.8.3-5.5.3-8.3-.1-7.1-1.2-14.5-1.5-21.5-3.5-.1 0-.3-.1-.4 0 3.5 2.6 0 2.2-1.2 2.7-.6.3.2.2-.5 0-6.2-1.1-11.8 1.3-17.6 3.1"/></g><path d="m682 408c.9 5.3 1.8 10.6 2.7 16-4.1 1.4-8.3 2.8-12.4 4.2-5.3.5-10.5-.4-15.5-2.1-5.5-3.9-10.9-7.9-16.4-11.8 2.5-2.3 5.1-4.5 7.4-7.1 4.7-5.3 10.4-8.8 17-11-2 4.4-4.1 8.8-6.1 13.2-.3.7-.9 2.1-.7 2.3 3.2 2.1 6.4 4.2 9.9 5.9 1.2.6 3-.3 4.5-.5-.3-1.2-.1-2.7-.9-3.5-2.1-2.2-4.5-4.1-6.7-6.1.3-.4.6-.8.9-1.2 1.1.9 2.3 1.8 3.4 2.8 6.9 6.4 6.9 6.4 12.9-1.1" style="fill:#7a6a86"/><path d="m604 508c-2.3 1.1-4.7 2.1-7 3.2-.2.1-.4.2-.6.3-.2-.1-.4-.3-.6-.4-.2-.9.1-1.6.8-2.2-.7-.2-1.2.4-1.8.3-2.7-.4-5.2-.9-7.6-2.8-2.4-2-6.1-.3-9.2-1.3-6.7-.5-13.4-1.1-20-1.6.1-.2.1-.4.2-.6 10.5-2.5 21-4.8 31.6-7.4 3.7-.9 5-4.6 3.6-8.5-.1-.3.1-.6.1-.9.2-.9.5-1.7.8-2.6-1.5 0-3-.3-4.4 0-2.2.5-4.2 2.2-6.4 2.2-6.2.1-12.5-.4-18.7-.6 0-.6 0-1.3.1-1.9 9.7-.5 19.3-.9 29-1.4-11.2-.3-22.3-.9-33-3.7.1-.9.2-1.9.3-2.8 11.7 1 23.5 2 35 3-.1 1-.1 1.9-.2 2.9 2.1 2.4 1.4 5.4 1.3 8.1-.1 3.6 1.1 6 4.3 7.6 2.6 1.3 5.2 3 7.4 5 .8 1.4-.1 2.3-.8 3.3-.3.3-.7.6-1.1 1-.7.4-1.4.7-2 1.1-.5.1-.8.4-1.1.7" style="fill:#77778f"/><path d="m682 482c.1.3.1.6 0 .9-.5.6-1.5.4-1.9 1.1-.3.1-.6.1-.9.1-2.6 0-5.2-.1-7.7-.1-8 0-16-.2-23.9 0-1.2 0-2.3 1.7-3.4 2.6 1 .8 2 2.1 3.1 2.3 5.6 1 11.3 1.7 16.9 2.9-7.8 1.3-15.6 3.8-23-1-.9.2-1.4-.4-1.7-1-.9-3.2-.4-6.5-.5-9.8-.1-3.2-.1-6.3-3.9-7.6-.6-.2-1-.8-.5-1.5 0-.7-.1-1.4-.1-2.1 8.5-4.9 17.9-2.5 27-3.4-1.8.6-3.5 1.1-6.7 2.1 3.6.3 5.6.4 8.5.6-5 1-9 1.9-13 2.7.1.5.1.9.2 1.4 6.7-.5 13.5-.9 20-1.4 1.1-.1 2.3-.2 3.3.1.6.2 1 1.2 1.5 1.8-.6.4-1.2 1-1.8 1.1-9.4 1.6-18.9 3.1-28.4 5.3 8.6.6 17.2 1.2 26.4 1.9-1.1.7-1.7 1.1-2.4 1.5.1.3.1.5.2.8 4-.4 8.3-.8 12.6-1.3" style="fill:#7a7990"/><path d="m609 503c-1-.6-1.8-1.4-2.9-1.8-9.8-3.5-11-11.3-9.9-20 1.9 1 3.8 2.2 5.8 3 2.6 1.1 5.3 2.8 7.9 2.7 6.1-.1 12.2-1.2 18.3-1.9.3 3.2-2.3 6.5.8 9.7 1.1 1.2.1 2.8-2.1 2.2-5.3 1.4-10 4.6-13.8 3.9 3.6.5 8.5-2.2 13.7-4 1.2.8 2.6.3 3.9.6 1.5.4 2.5 1 1.6 2.7-7.5 3.8-15 6.3-23.3 3.1" style="fill:#d2c23d"/><path d="m596 467c1-.4 2.1-.8 3.1-1.2.6 2 1.3 4.1 1.9 6.1-3.6 0-7.2.2-10.8-.2-7.6-.7-15.3-1-22.7-2.8-7.6-1.8-14.5.6-21.6 1.7 0-.2.1-.4.1-.6 2.8-1.4 5.5-3.5 8.5-4.1 3.6-.7 7.5-.2 12.6-.2-2.2-.7-3.1-1.1-4-1.4.1-.4.1-.8.2-1.3 7.9 1.2 15.9 2.4 23.8 3.6 3 1.4 5.9.9 8.9.4" style="fill:#7e7a91"/><path d="m632 499c-1.7-.7-3.3-1.4-5-2 3.1-1.9.6-3.1-.7-3.8-2.2-1.2-1.9-2-.5-3.7 1.1-1.2 1.5-3 2.2-4.6.6-.5 1.4-.4 2.1-.8 1-.7 2-1.4 2.9-2.2 1.5-1.6 1.1-5.4 4-4.8 3.1.7 1.7 4.1 2.1 6.4.5 3-.4 5.9 0 8.9-1.1 5.4-2.5 6.7-7.1 6.6" style="fill:#faf047"/><path d="m604 449c-.4-2.2-1.2-4.4-1.1-6.5.3-3.7-1-6.3-3.7-8.7-2.7-2.4-4.9-5.1-7.4-7.7 5 1.5 10 2.9 14.9 4.6.8.3 1.8 2.3 1.6 3.2-1.2 5.1-2.8 10-4.3 15" style="fill:#787890"/><path d="m638 492c-.1-3.3-.1-6.5-.2-9.8-.1-1.4-.3-2.9-.3-3.5-1.5 1-3.1 2.1-4.7 3.2-.6-2.7-1.1-5.3-1.7-8-.5-2.5.8-3.2 3-2.9 4.5 1.2 5.9 4.3 5.6 8.7-.2 3.3.1 6.5.1 9.8-.7.9-.1 2.6-1.8 2.5" style="fill:#c3b543"/><path d="m643 428c-.8 1.4-1.5 2.8-2.5 4-.3.4-1.4 0-2.2 0-.3-1.9-.1-4.1-1-5.6-1.6-2.7-.1-3.4 1.8-4.3 3.4-1.6 2.2 1.6 2.9 2.8.5.9.7 2 1 3.1" style="fill:#7c778e"/><path d="m552 417c1.4-.3 2.8-.9 4.2-.9 6.7-.1 13.3-.1 20-.1-8 2.2-16 2.9-24 1" style="fill:#746937"/><path d="m657 426c5.2.7 10.3 1.4 15.5 2.1-5.8 3.6-10.8 1.7-15.5-2.1" style="fill:#7d7045"/><path d="m582 414c3.3-.7 6.6-1.3 9.9-2-1.6.7-3.3 1.4-4.9 2.2-.4.2-.7.5-.9.8-3.4.4-6.8.7-10 1.1 1.9-.7 3.9-1.4 6-2.1" style="fill:#746937"/><path d="m542 501c0 2.1 0 4.2 0 6.3 0-2.1 0-4.2 0-6.3" style="fill:#9a94ad"/><path d="m630 484c-.7.3-1.4.5-2.1.8.8-.3 1.4-.6 2.1-.8" style="fill:#d2c23d"/><path d="m600 475c0-.3 0-.6 0-.9.2-.1.5-.1.7-.1-.2.3-.5.7-.7 1" style="fill:#7e7a91"/><path d="m586 415c.3-.3.6-.5.9-.8-.3.3-.6.5-.9.8" style="fill:#554a63"/><path d="m610 512c-.1-.6-.1-1.3-.2-1.9-.5-1.3-.8-2.7-.8-4.1.3-2.2 1.7-2.6 3.6-2.2 1.9.4 4 .3 5.8 1.1 7.1 3 14.5 2.8 21.9 2.3 1.5.6 3.4 1.3 2.8 3.4-.6 1.8-2.5 1.1-3.9 1-2.8-.2-5.4-1.1-4.7 3.8.4 2.8-1.3 6.1-3.4 8.5-3.2.1-6.4.2-9.6.3-5-.5-10.2-.8-11.5-7.2-1.9-1.7 1.2-3.3 0-5" style="fill:#d1c135"/><path d="m602 534c0-4 0-8 0-12.5 1.4 1.3 2.3 2.2 2.6 2.5 1.3-1.5 2.4-2.7 3.5-3.8-2.1 7.3-4.1 14.6-6.2 21.9-.3.4-.6.7-.8 1.1 0 .3-.1.6-.2.8.7-3.2 1.3-6.3 2-9.5 0-.1 0-.4-.1-.4-.3-.1-.6-.1-.8-.1" style="fill:#9a94ad"/><path d="m566 752c0-.5-.2-1.2 0-1.5 4.8-5 4.1-11.4 4.7-17.6.1 1 .3 2.1.4 3.1-.3 5.8.8 12-5.1 16" style="fill:#978e8f"/><path d="m593 576c.3-6.7-1.9-13.7 2-20-.6 6.7-1.3 13.3-2 20" style="fill:#858488"/><path d="m575 683c-4.5-1.3-.9 3.6-4.4 4.2 1-3.3 1.9-6.2 2.8-9.1.6 1.7 1.1 3.3 1.6 4.9" style="fill:#857e8a"/><path d="m610 512c4.8 1.7-1.7 3.3-.1 5-.6 1-1.3 2.1-1.9 3.1.6-2.7 1.3-5.4 2-8.1" style="fill:#9a94ad"/><path d="m574 677c.4-2.6.8-5.2 1.2-7.9-.4 2.7-.8 5.3-1.2 7.9" style="fill:#857e8a"/><path d="m595 556c.7-1.3 1.4-2.7 2.1-4-.7 1.3-1.4 2.6-2.1 4" style="fill:#858488"/><path d="m601 543c.3-.4.5-.8.8-1.1-.3.3-.5.7-.8 1.1" style="fill:#bcb6c9"/><path d="m671 721c.5-.8.8-2 1.4-2.2 2.7-1 5.5-1.4 8.1-2.6.7-.3.7-2.4.8-3.2 6.9.3 14.4.7 21.9 1 .1.4.1.8.2 1.2-3.6 1.1-7.2 2.2-10.8 3.3 0 .4.1.8.1 1.2 1.9-.2 3.9-.6 5.8-.5 1.4.1 2.7 1.1 4 1.8.2.1.3.4.4.6-.4.2-.9.4-1.3.6-1.8 1.1-3.5 2.2-4.9 4.2 2.5-1 4.9-2.1 7.1-3-3.1 5.1-5.7 6.9-11.7 6.4-7.8-.4-15.5-2.3-21-8.8" style="fill:#5d5565"/><path d="m711 716c.3.3.7.6 1 1 .3 4.3.6 8.7.9 13-.8.8-.2 1.9-.8 2.7-.1.2-.2.4-.4.4 0-.1.2.1.3.1 0-.3 0-.5.3-.7.4-.8-.1-1.8.7-2.4.7-1.7 1.3-3.3 2-5 4.6 2.4 5.2 7 5.8 11.4.5 3.8.5 7.7 0 11.4-.3 1.7-2.3 3.2-3.9 4.5-.2.2-1.9-1.9-3.1-2.4-1.2-.6-2.7-.5-4.1-.7-.7.4-1.5.5-2.2.9-2.1 1.4-4.3 1.6-6.1-.4-2.2-2.4 2.8-1.7 1.7-3.8.6-2.3 1.2-4.6 1.8-7 0-.3.1-.6.1-.9.3-.3.7-.6 1-.9l.1-.1c.1-4.7 1.6-9 3.8-13 .4-2.7.7-5.4 1.1-8" style="fill:#cdbebf"/><path d="m710 724c-1.3 4.4-2.5 8.7-3.8 13-2.4-.1-4.9-.2-7.3-.3 3.8-4.3 7.4-8.5 11-12.8" style="fill:#b19ca1"/><path d="m700 646c-.1.7-.3 1.5-.4 2.2-.1-.1-.4-.2-.4-.2.3-.7.5-1.3.8-2" style="fill:#aea0b0"/><path d="m706 737c-.3.3-.7.6-1 .9.4-.3.7-.6 1-.9" style="fill:#b19ca1"/><path d="m641 508c-10 2-19.4-.2-28.6-4-.5-.2-1.8 1.2-2.7 1.9-1.2.2-1.9-.6-2.7-1.2.5-.7 1.1-1.3 1.6-2 8.1.8 15.9-.6 23.3-3.9 3.8-.8 5.6-3.4 6.2-7 .6-.8 1.2-1.6 1.8-2.4.3.5.6 1 .9 1.4.1.6.2 1.3.3 1.9.1.5.5.8.6 1.3.8 2 1.6 3.9 2.4 5.9 1.3 1.7 2 3.6 1.4 5.9-1 1.7-2.3 2.9-4.5 2.2" style="fill:#362f2f"/><path d="m645 506c-.2-1.9-.5-3.9-.7-5.8 4.1-.8 6.3.2 5.9 5-.2 2.9.2 5.8.4 8.7.4 5.6-1 7.3-6.4 8.3-1.3.2-2.6.7-3.8 1-.5-.1-.9-.1-1.4-.2.3-2.6 2.7-2.5 4.3-3.4 4.4-2.5 5.4-9.5 1.7-13.6" style="fill:#b1a448"/><g style="fill:#948aa2"><path d="m678 567c2.1-.2 5-5.2 6 1-2-.3-4-.6-6-1"/><path d="m678 564c-.3.3-.7.7-1 1-.5 0-1.1.1-1.6.1.8-.4 1.7-.7 2.6-1.1"/></g><path d="m642 494c-.2-.4-.4-.8-.6-1.3.2.5.4.9.6 1.3" style="fill:#7a7990"/><path d="m505 459c.6 2.7 1.8 5.3 1.8 8-.1 3.1-1.8 6.4-5.3 5.8-2.1-.4-4.4-3.1-5.3-5.2-1.1-2.6-.7-5.8-1-8.7 1.2-2.1 2.6-3.6.7-6.7-2.2-3.7-3.4-8.4-1.8-13 .3-.3.7-.3 1 0l.2.2c2 1.6 2 4 2.7 6.1.8 2.4 2.7 4 4.3 5.8 2.5 1.9 1.6 5.2 2.7 7.8" style="fill:#c4b8b1"/><path d="m490 460c-.4 5.7-5 5.1-8.7 5.7-1.5-3.9.2-6.2 3.6-8.2 2.6-1.6 4.4-1.6 6 1-.3.5-.6 1-.9 1.5" style="fill:#c0b3ad"/><path d="m498 426c.5-.1 1-.2 1.5-.3.6 1.7 1.1 3.4 1.7 5.1-2-.1-4-.2-6-.2-2.1 0-4.2 0-6.7 0 .4 1.3.8 2.5 1.2 3.8-5.2-.2-5.2-.2-1.5-6.6.3 0 .6 0 1 0 2.8-.9 6-.4 8.8-1.8" style="fill:#94857f"/><path d="m494 439c.4 3.2.5 6.5 1.2 9.7.3 1.3 2.4 2.4 2.4 3.6 0 1.3 3.7 2.8 0 4.2-1 .4-1.7 1.5-2.5 2.3-.9-1.4 3.5-4.2-1.2-4.7.9-4.5.7-4.8-3.1-5.8-.4-.1-.8-1.9-.5-2.6 1.1-2.4 2.5-4.5 3.7-6.7" style="fill:#857871"/><path d="m505 459c-1.1-2.1-2.2-4.2-3.3-6.4-.1-.1 0-.3.1-.5.1-.1.2-.2.4-.3 1.4-2.8-.1-5.9.9-8.8 0-3 0-6 0-8.9.7 5.5 1.5 11 2 16.4.1 2.8-.1 5.7-.1 8.5" style="fill:#968c84"/><path d="m509 395c3.2 5.2-.9 9-3.2 13 1-4.4 2.1-8.7 3.2-13" style="fill:#a69b91"/><path d="m543 333c1-3 2-6 3.1-9.1-1 3.1 3.3 7.9-3.1 9.1" style="fill:#b08893"/><path d="m522 372c-1.1 2.8-2.2 5.7-3.2 8.5-.5-.2-.9-.4-1.4-.6 1.4-2.7 2.8-5.5 4.2-8.2l.4.3" style="fill:#a5a099"/><path d="m511 385c.3.3.6.6 1 .9-1 3-2.1 5.9-3.1 8.9h-.1c.7-3.3 1.4-6.6 2.2-9.8" style="fill:#a5988d"/><path d="m527 361c-1.1 2-2.1 4-3.2 5.9 1-2.1 2-4.1 2.9-6.2.1.2.3.3.3.3" style="fill:#a69e96"/><path d="m540 335c-2.1-5.2 2.4-.7 3-2-1 .7-2 1.4-3 2" style="fill:#b08893"/><path d="m552 316c-.5-.2-1-.4-1.4-.6.8-1.2 1.7-2.3 2.5-3.5-.4 1.3-.8 2.7-1.1 4.1" style="fill:#ac6881"/><path d="m522 372c.7-1.6 1.5-3.2 2.2-4.8-.6 1.7-1.2 3.4-1.8 5.2 0 0-.4-.4-.4-.4" style="fill:#a69e96"/><path d="m502 433c-.6.1-1.1.1-1.7.2.2-.8.4-1.5.6-2.3.4.7.8 1.4 1.1 2.1" style="fill:#94857f"/><g style="fill:#ac6881"><path d="m547 322c.7-.7 1.4-1.4 2.1-2.1-.7.8-1.4 1.5-2.1 2.1"/><path d="m546 324c.4-.7.7-1.4 1.1-2.1-.4.7-.8 1.4-1.1 2.1"/><path d="m549 320c.7-.4 1.4-.7 2.1-1.1-.7.4-1.4.8-2.1 1.1"/></g><g style="fill:#887a75"><path d="m500 422c.3-.7.7-1.3 1-2-.4.6-.7 1.3-1 2"/><path d="m502 418c-.3.7-.7 1.3-1 2 0 0 .1.1.1.1.3-.7.6-1.4.9-2.1"/><path d="m502 418c.1-.4.1-.9.2-1.3.2.1.3.2.5.2-.2.3-.5.7-.7 1.1"/></g><path d="m492 455c.7-.3 1.4-.7 2.1-1-.7.4-1.4.7-2.1 1" style="fill:#857871"/><path d="m534 350c0-.3.1-.5.1-.8-.2.3-.2.6-.1.8" style="fill:#8b656e"/><path d="m491 464c-.2-.4-.4-.8-.6-1.2.2.3.4.7.6 1.2" style="fill:#beb0ab"/><path d="m551 319c.3-.3.6-.6.9-.9-.3.2-.6.5-.9.9" style="fill:#ac6881"/><g style="fill:#85798b"><path d="m699 626c-.8-.9-1.7-1.7-2.5-2.6.4-.4.8-.8 1.2-1.3.9.8 1.8 1.6 2.8 2.4-.6.5-1 1-1.5 1.5"/><path d="m684 623c-.4-.3-.7-.5-1.1-.8.8-.6 1.6-1.2 2.5-1.8.1 0 .6.6.9 1-.8.6-1.6 1.1-2.3 1.6"/></g><path d="m696 583c-.1.2-.3.3-.4.5 0-.1-.1-.3-.1-.4 0-.3.2-.6.2-.9.1.2.2.5.3.8" style="fill:#c2bfd4"/><path d="m646 575c-.1 0-.2.1-.4.1 0-.1-.1-.3-.1-.4 0 0 .2-.1.3-.1.1.1.1.2.2.4" style="fill:#9f9ab2"/><path d="m701 627c0 .3.1.6.1.9-.2.1-.5.3-.7.4.2-.4.4-.8.6-1.3" style="fill:#85798b"/><path d="m636 179c-.9 2-1.5 4.3-2.9 5.9-1.9 2.2-4.5 3.8-5.9 4.9-1-.9-2.3-3-3.5-2.9-12.7 1.3-19-6.8-23.7-16.5-3-6.3-4.7-13.2-7-19.8.6-.2 1.1-.5 1.7-.7 1.5 3.3 3.3 6.5 4.3 9.9 2.6 9.4 8.9 15 19 16 6.1.1 12.3.4 18 3.2" style="fill:#5c3c28"/><path d="m636 179c-6-1.1-12-2.1-18-3.2.3-5.6.3-11.3 1-16.9.5-3.8 6-8.6 9.6-8.8 1.1 0 2.4.9 3.1 1.8.2.3-.7 2.3-1.4 2.6-5.3 2.1-6.1 6.3-5.1 11 .5 2.2 2.6 4 4 6.1 1.6-1.3 3.1-2.7 4.7-4 2.5 2.4 0 4.4-.8 6.5 3.1 1.3 6.3-.6 8.9 1.6-.3.6-.6 1.2-1 1.8-.2.5-.5.5-.9.3-.7.3-1.4.6-2.1.8-.6.2-1.2.3-1.9.4" style="fill:#aa9790"/><path d="m642 176c-3.8 0-7.6-.1-11-.1 1.3-3.5 2.1-5.7 3-8 2.1-.3 4.2-.6 6.2-.9.6 3 1.2 6 1.8 9" style="fill:#c9bab0"/><path d="m647 144c.4 3 1.4 6.1-3.2 6.8-.7.1-1.2 1.4-1.8 2.2-6 0-13.6-6-12.3-9.5.9 4.4 12 6.8 14.4 3.3.3-.4 0-1.2-.1-1.8.4-.4.7-.8 1.1-1.2.3-.1.5-.3.6-.6.5.2.9.5 1.3.8" style="fill:#53301c"/><path d="m591 131c1.9-.1 3.9-.1 5.8-.2.3.3.7.6 1 .9-.9 1.6-1.7 3.2-2.8 5.2-1.3-1.8-2.7-3.9-4-5.9" style="fill:#aea39a"/><g style="fill:#91889e"><path d="m548 558c-.1.4-.3.8-.4 1.3-.1-.1-.4-.2-.3-.3.2-.3.4-.7.7-1"/><path d="m553 567c-.1-.1-.3-.2-.4-.2.1 0 .3.1.4.2"/></g><path d="m498 389c1.6-5 3.2-10 4.8-15-1.3 5.3-2.7 10.7-4 16-.4-.2-.7-.5-.8-.9" style="fill:#8c7e79"/><path d="m498 389c.3.3.5.7.8 1-1 3.3-2 6.6-3 10 .7-3.7 1.5-7.4 2.2-11" style="fill:#887a76"/><path d="m503 374c.1-1.1.1-2.2.2-3.3.3.1.7.2 1 .3-.4 1-.8 2-1.2 3" style="fill:#8c7e79"/><path d="m496 400c-.1 1.1-.1 2.1-.2 3.2-.3-.1-.6-.2-1-.3.4-.9.8-1.9 1.2-2.9" style="fill:#887a76"/><path d="m730 444c-.3-6.3-.7-12.7-1-19 .7-.1 1.5-.2 2.2-.2 2.7 3.1 1.4 7.1 1.4 10.7 0 2.3-.4 4.6-.5 6.9-.7.5-1.4 1-2.1 1.6" style="fill:#eeb2c8"/><path d="m596 127c-2.6.4-5.3.8-7.9 1.2-.5-1.1-1.7-2.4-1.4-3.1 3.7-8.8 7.5-17.6 15.4-23.7-.3 2.8-.1 5.8-.9 8.4-1.5 4.8-3.6 9.4-5.4 14-.2.9.1 2.1.2 3.1" style="fill:#b2aeaf"/><path d="m708 752c1.6 3.2 3.3 6.5 4.9 9.7-6.6.8-13.3 1.5-19.9 2.3-.9-1.9-2-3.7-2.7-5.6-1.2-3.3-.7-5.9 3.4-6.5 4.7-2.7 9.5-1.2 14.3.1" style="fill:#3e717b"/><path d="m562 754c-1.2 1.7-2 4.1-3.7 5.1-8.3 4.8-16.8 9.3-25 13.9-.7-.4-1.3-.7-2-1.1l.1.1c-1-2.6-2.1-5.3-3.1-7.9-.3-2.4 1.8-2.5 3.1-3.1 5.8-2.6 11.5-5.5 18-5.9 1.7-.2 3.3 2.7 5 0 2.6.1 5-2.5 7.8-1.1" style="fill:#c6b4a7"/><g style="fill:#ab9494"><path d="m549 755c-7 3-14 6-21 9-1.6-1.4-3.3-2.9-4.9-4.3.7-1.3 1.5-2.7 2.2-4 2.3-4.3 4.5-8.5 6.8-12.8 1.7.7 3.6 1 4.9 2.1 4.1 3.2 8.1 6.7 12 10"/><path d="m562 754c-2.6.3-5.2.6-7.8 1 .4-.3.8-.6 1.2-.9-.5-.2-.9-.7-1.4-.6-6.5.5-12.5-4.3-13.6-10.9-.1-.8-1.4-1.7-2.3-2.1-1.6-.8-3.4-1.2-4.7-1.6 8.8-3.9 17.8-7.9 26.8-11.9 0 2.1-2.5 5.1 3.2 5.2-1.5.6-2.3.6-2.3.9-1 5.3-2.2 10.5-2.7 15.8-.1 1.2 2.5 2.7 3.8 4.1-.1.3-.1.7-.2 1"/></g><g style="fill:#91889e"><path d="m528 722c.4-.2.7-.5 1.1-.7 0 0 .2.2.2.3-.4.2-.9.3-1.3.4"/><path d="m528 722c-.1.1-.2.3-.3.4.1-.1.2-.3.3-.4"/></g><path d="m503 443c.2 3 3.2 6.3-.9 8.8-5.5-2.5-5.9-7.7-6.8-12.6.3-.1.5-.2.8-.2 2-1 4-2.7 6 .1l-.1-.1c.2.3.3.5.2.7-.1.2-.2.3-.3.3.4 1 .8 2 1.1 3" style="fill:#edded3"/><g style="fill:#968c84"><path d="m502 439c-2 0-4 0-6-.1 2-3.4 4-2.7 6 .1"/><path d="m502 440c0-.3.1-.7.1-1 0 .3 0 .7-.1 1"/><path d="m495 439c-.3 0-.7 0-1 0 .3 0 .7 0 1 0"/></g><g style="fill:#7a6b6a"><path d="m708 752c-4.8-.1-9.6-.1-14.4-.2-1.9-.3-3.9-.6-5.8-.9 1.7-.7 3.3-1.3 5-2 3.4-1.1 6.7-2.1 10-3.2.8.3 1.6.7 2.4 1-1.2.8-2.4 1.5-4.4 2.8 3.4-.2 6-.3 8.7-.5-.6 1.1-1.1 2.1-1.6 3"/><path d="m688 751c-2.7.7-5.4 1.3-8 2 2.7-.7 5.3-1.3 8-2"/><path d="m693 749c-.4-.1-.9-.3-1.3-.4.1-.1.2-.3.3-.4.3.3.6.5 1 .8"/></g><path d="m590 167c-.2.7-.4 1.4-.7 2.1.3-.7.5-1.4.7-2.1" style="fill:#7e5138"/><path d="m580 174c.1-.1.1-.3.2-.4 0 .1-.1.3-.2.4" style="fill:#ce89a5"/><path d="m480 460c-.8-2.4-1.4-3.6-1.5-4.9 0-.7.9-1.4 1.4-2.1.8 1.1 1.9 2.1 2.3 3.3.1.7-1 1.7-2.2 3.7" style="fill:#c4b5ac"/><path d="m514 341c-.1-.2-.2-.3-.4-.5.2.1.3.2.5.4.1-.1-.1.1-.1.1" style="fill:#c4b7b1"/><path d="m498 426c.1.4.3.9.4 1.3-3.1.2-6.2.3-9.3.5 3-.6 5.9-1.2 8.9-1.8" style="fill:#c5b7b1"/><path d="m645 506c.8-.4 1.7-.8 2.5-1.2.3 2.3.5 4.5.8 6.8.8 4.5-.6 7.7-5.1 9.3-1.5.5-2.9 1.4-4.4 2.2-2.6.3-5.2.6-7.8 1 .5-1.9 1.1-3.8 1.4-5.7.3-2.3.3-4.7.5-7.7 1.7 0 4.7 0 7.7 0 .7 0 1.4-.2 2.1-.3-.5-.6-1-1.2-1.6-1.8 1.3-1 2.6-1.8 3.9-2.6" style="fill:#fbf049"/><g style="fill:#ce89a5"><path d="m541 287c.4.1.9.2 1.3.3-.4-.1-.8-.2-1.3-.3"/><path d="m552 296c.1.1.3.1.4.2-.1-.1-.3-.1-.4-.2"/><path d="m528 313c-.1-.1-.3-.3-.4-.4.1 0 .3-.1.4-.1 0 .2 0 .4 0 .5"/><path d="m607 355c-1.1-.4-2.1-.7-3.2-1.1.2-.3.3-.6.5-.8.9.6 1.8 1.3 2.7 1.9"/><path d="m706 226c-.3.3-.6.6-1 .9.4-.3.7-.6 1-.9"/></g><path d="m588 179c.1.1.3.1.4.2-.1-.1-.3-.2-.4-.2" style="fill:#aa7686"/><path d="m720 325c1 1 2 2 3 3-.3 2-.7 4-1 6-.3 0-.6-.1-.8-.1-1.3.6-1.2 2.3-2.2 3.1-.3.4-.6.7-1 1-2 4.2-5.7 6.4-9.5 8.6-1.3.7-2.7 1.2-3.9 2.1-.3.3-.7.5-1 .7-.3.2-.7.4-1.1.6-.2 0-.4 0-.6 0 .5-1.3.7-2.8 1.6-3.8 3.3-4 7-7.8 10.3-11.9 1.3-1.6 4.7-5.2-1.7-3.6-.2 0-.6-.9-.9-1.5 2.9-1.4 5.9-2.8 8.8-4.2" style="fill:#f6b0c8"/><path d="m708 346c3.4-2.6 6.7-5.3 10-7.9-.3 8-7.9 8.9-12.5 12.8-.8.7-2.1.8-3.2 1.2-.1-.7-.2-1.3-.3-2 .4-.2.7-.6 1-1 1.5-1.2 3.6-1.6 4.9-3.1" style="fill:#ac6c83"/><path d="m712 423c.7-2 1.4-4 2.1-6.1 3 1.1 6.6-2.2 9.5 2 1.2 1.8 4.6 2 7 3-.2.5-.4.9-.6 1.4-3.2-1.4-6.5-2.5-9.6-4.2-5-2.9-6.5.3-8.4 3.9" style="fill:#91506a"/><g style="fill:#ac6c83"><path d="m719 337c.3-1.2.7-2.4 1-3.6.4.2.8.3 1.2.5-.8 1-1.5 2-2.2 3.1"/><path d="m718 338c.3-.3.7-.7 1-1-.4.3-.7.6-1 1"/></g><path d="m680 484c.6-.4 1.3-.7 1.9-1.1-.6.3-1.2.7-1.9 1.1" style="fill:#9f9ab2"/><path d="m680 390c.1.1.3.1.4.2-.1-.1-.2-.1-.4-.2" style="fill:#624e61"/><path d="m632 128c1.7 6.6-1.5 11-8.3 11-2.5 0-5.1-.6-7.6-1 1.8-2.6 2.7-6.1 6.2-6.5-2-.5-3.7.4-4.7 2.9-.5 1.2-1.2 2.4-2.7 2.7-4.7-1-2.2-5.3-3.4-7.9-.2-.3 2.8-2.7 4.6-3.3 5.5-1.7 10.8-.4 15.9 2.1" style="fill:#84553a"/><path d="m652 131c-.3 1.1-.7 2.2-1 3.3 1 .2 1.9.4 2.9.7.8 1.9.4 3.5-1.1 4.9-3.1-.2-6.8 1.4-8.1-3.3-1.4-4.8 1.9-7.8 8.5-7.4.3 1 .3 1.8-1.2 1.8" style="fill:#9d7758"/><path d="m615 137c.5-1 1.1-2.1 1.6-3.1 1.2-2.2 1.5-6.1 5.7-3.1.6.4 2.2-.7 3.9-1.3-3.6 3-6.8 5.7-10 8.5-.4-.4-.7-.7-1.1-1" style="fill:#b08765"/><path d="m653 140c.4-1.6.7-3.3 1.1-4.9.7.6 1.4 1.3 2.2 1.9-1.2 1-2.2 2-3.3 3" style="fill:#f5f7f4"/><path d="m652 131c.4-.6.7-1.2 1.1-1.8.9.6 1.8 1.2 2.8 1.8-1.3 0-2.6 0-3.9 0" style="fill:#f3e7e1"/><path d="m646 143c0 .4-.2.5-.6.6.2-.3.4-.5.6-.6" style="fill:#9e6f6a"/><g style="fill:#7e5138"><path d="m598 132c-.3-.3-.7-.6-1-.9.3.3.7.6 1 .9"/><path d="m640 178c.3-.1.6-.2.9-.3-.3 0-.6.1-.9.3"/></g><g style="fill:#91889e"><path d="m567 708c-.4 0-.8 0-1.3 0 .8-.9 1.6-1.8 2.3-2.6.2.2.4.4.7.5-.5.6-1.1 1.3-1.7 2.1"/><path d="m548 722c-2-.9-4-1.8-6-2.8 3 0 6 0 9 0 .1.3.2.6.3.9-1 .6-2.2 1.3-3.3 1.9"/></g><path d="m580 517c-3.8 0-7.6.1-11.4 0-3.4-.2-6.7-.7-10-1.7 7.2.9 14.4-3.6 21.6-.2-.1.6-.2 1.3-.2 1.9" style="fill:#9a94ad"/><path d="m583 513c-8.6 0-17.2 0-25.9 0 0-.2 0-.5 0-.7 11.6-.5 23-1 34.8-1.5.4-.2.7-.4 1.1-.6.6-.2 1.3-.1 1.9 0 .4.2.7.4 1 .7l.1.1c.3.3.2.7-.1 1-1.3.1-2.7.1-4 .2-2.9.9-6-.5-8.9.8" style="fill:#6f6980"/><g style="fill:#9a94ad"><path d="m596 511c-.4 0-.7-.1-1.1-.1-.6-.4-1.2-.4-1.8 0-.4 0-.8 0-1.1 0-3.3-1.6-6.5-3.3-9.9-4.8-1.3-.6-2.7-.7-4.1-1 2 0 4-.2 6 0 2.1.3 5-1.5 6 2.4.2.7 4 .4 6.1.6.3.4 1 .4 1.1 1-.5.6-.8 1.2-1.2 1.9"/><path d="m583 513c3-.3 6-.5 9-.8-3 .3-6 .5-9 .8"/><path d="m607 505c.9.4 1.8.8 2.7 1.1 0 1.3 0 2.6.1 3.9-.6-.7-1.3-1.4-1.9-2.1-.3-.7-.6-1.3-1-2 .1-.2.1-.6.1-.9"/><path d="m608 508c-.3.4-.6.9-1 1.3-.1-.1-.2-.2-.4-.4.5-.3 1-.6 1.4-.9"/><path d="m604 508c.3-.3.7-.6 1-.9-.3.3-.7.6-1 .9"/><path d="m596 512c0-.3.1-.6.1-1 .3 0 .6.1 1 .2-.4.2-.8.5-1.1.8"/></g><path d="m600 474c-.1-.1-.2-.1-.3-.2-.1 0 0-.2-.1-.2.1.1.3.3.4.4" style="fill:#7e7a91"/><g style="fill:#706c82"><path d="m580 439c.2 11.7-2 13.5-20.4 14.9 4.1-1.7 6.9-3.1 9.8-4 5.6-1.8 9.6-4.8 10.6-10.9"/><path d="m580 439c.6-2.8 1.3-5.6 2-8.6.9 1.8 1.5 3.1 2.1 4.5.4-.2.8-.3 1.3-.5-1.1 2.1-2.1 4.1-3.5 6.7 0-1.7 0-3 0-4.6-.8 1.1-1.3 1.8-1.9 2.5"/></g><g style="fill:#747087"><path d="m563 442c4.6-1.2 9.2-2.4 13.8-3.6.1.5.3.9.4 1.4-4.6 1.1-9.2 2.2-13.8 3.4-.2-.4-.3-.8-.4-1.2"/><path d="m577 438c-2.7.4-5.3.8-8 1.1 0-.4-.1-.8-.1-1.2 2.7-.3 5.5-.7 8.2-1-.1.4-.1.8-.1 1.1"/></g><path d="m596 467c-2.9-.1-5.8-.1-8.7-.2 2.8.1 5.7.2 8.7.2" style="fill:#2f2c41"/><path d="m586 430c.1.3.2.6.2.9 0 .3-.2.5-.3.8-.1-.3-.2-.6-.2-.8 0-.3.1-.6.3-.9" style="fill:#302b37"/><path d="m597 509c-.4-.3-.7-.7-1.1-1 1.1-.1 2.2-.2 3.3-.3.1.2.1.4.2.6-.8.2-1.6.4-2.4.7" style="fill:#a29eb8"/><path d="m627 497c-5.4 2.5-10.7 4.9-17.4 3.7 6.1-1.3 11.8-2.5 17.4-3.7" style="fill:#97870d"/><g style="fill:#85798b"><path d="m671 721c.1-.1.2-.3.2-.4 0 .1-.1.3-.2.4"/><path d="m712 733c.3-1 .6-2 1-3 0 0 .1.1.1.1-.4.9-.8 1.9-1.1 2.9"/><path d="m711 735c-.1.4-.2.9-.4 1.3-.2-.1-.5-.3-.5-.4.2-.4.5-.7.7-1.1l.2.2"/><path d="m712 733c-.3.7-.6 1.4-.9 2.1 0 0-.2-.1-.2-.1.4-.7.7-1.4 1.1-2"/></g><path d="m531 772c.3-.2.6-.4 1-.7-.4.3-.7.5-1 .7" style="fill:#382820"/><g style="fill:#ce89a5"><path d="m708 346c-1.6 1-3.3 2-4.9 3.1 1.6-1.1 3.3-2.1 4.9-3.1"/><path d="m703 349c-.3.3-.7.6-1 1 .3-.4.6-.7 1-1"/></g><path d="m593 511c.6 0 1.2 0 1.8 0-.6 0-1.2 0-1.8 0" style="fill:#a29eb8"/></g></g></g></svg>