<svg xmlns="http://www.w3.org/2000/svg" viewBox="0 0 1266.1 848" style="enable-background:new 0 0 1266.1 848"><g><path d="m1062 203c-1.5-5.3-3.4-.6-5.1-.5-.5-.8-.9-1.5-1.4-2.3s0 0 0 0c0-.1-.1-.1-.1-.2-8.7-13.5-21-22.4-35.5-29-.8-.4-1.5-.7-2.3-1.1-1.5-1.1-4-.1-4.9-2.4-11.4-8.5-22.8-17-34-25.5 0-2.4.8-5.3-.2-7.2-3.5-6.8-4.8-13.8-4.6-21.4.2-6.9-.1-13.8-.2-20.7.5-1.2.9-2.4 1.4-3.6 2.3-5.5 4.2-11 1.4-17-1.6-4.2-3.2-8.3-4.9-12.5-.3-1.5-.7-3.1-.9-4.6-.6-4.1-1.9-1.3-3.1-.4-.4-.9-.9-1.8-1.3-2.7.2-.2.3-.3.3-.6 6.1-3.3 2.1-8.1 1.4-12-1.1-6-2.5-12.2-10-13.4-.8-.4-1.6-.8-2.3-1.1-6.9 0-13.8-.1-20.6-.1-5.5 0-11 .2-16.4-.1-5.6-.3-9 2.3-11.8 6.8-8.5 13.4-13.3 27.7-11.9 43.8.3 8.2.6 16.4.9 24.6 0 .4 0 .9 0 1.3 0 1.9.1 3.8.1 5.7.3 6.9.9 13.8.8 20.6-.1 4 1.4 5.5 5.1 5-.1.7-.2 1.3-.3 2-.3-.1-.6 0-.8.3-.8 1.8-.9 3.2-.2 4.1-.1 1.2-.2 2.4-.4 3.5-.8 3.5-1.1 8.6-3.5 10-12.2 7.6-24.9 14.3-37 21.3-3.2 2.3-7.7 4-9.4 7.2-2.8 5.1-7 7.1-11.7 9.5-1.7.9-2.6 4-3.1 6.3-.8 3.2-1.1 6.6-1.6 9.9-.7-1-1.5-1.9-2.2-2.9-1.7-2.3-3.3-2.5-3.8.6-1 6.9-1.6 13.9-2.4 20.8 0 .4 0 .8 0 1.2.3.4.3.9.3 1.3-.1-.4-.2-.9-.3-1.3-.2.3-.3.7-.2 1.1 0 2 0 4.1 0 6.1-.2.9-.3 1.8-.5 2.7 0 9 0 18 0 27 .1 1 .3 1.9.4 2.9 0 1.5 0 3.1 0 4.6.1 2.3.2 4.5.3 6.8 0-2.4 0-4.8 0-7.2.1-.3.2-.6.3-.8.4 2.7.5 5.3-.3 8 .5 3.2 1 6.5 1.4 9.7-.2 6.9-.3 13.8-.5 20.8-2 2.7-4 5.3-6 8-.1 1-.4 2-.8 3 .3-1 .5-2 .8-3-6.5 9.3-7.6 19.5-4.9 30 .2 3.1.4 6.3.7 9.4.4 3.9.9 7.8 1.3 11.7 0 1.6.1 3.3.5 4.9.1 1.1.2 2.1.3 3.2.8 4.3 1.4 8.6 1.6 13-.5-4.3-1.1-8.7-1.6-13 .3 6.4.7 12.8.7 19 0 6.6-.5 13.2-.8 19.8-.1 4-.2 8-.3 12-.3.9-.5 1.8-.8 2.7-.2.3-.3.5-.5.9-.2.4-.2.8-.1 1.2-.3 2.5-.5 4.9-.8 7.4-.4.3-.5.9-.1 1.4.5 1.2 1 2.4 1.5 3.5.2 3.8.5 7.6.7 11.4.5.5 1.1.9 1.6 1.4.3.5.7.9 1.2 1 1.1.9 2.2 1.8 3.3 2.8 5.2 4.3 10.9 3.8 16.6 2.6 1-.1 2.1-.3 3.1-.7.5-.8.9-1.6 1.4-2.4-.6-2.2-1.2-4.4-1.6-5.9 2.1-.5 4.2-.9 6.4-1.4 4.8-2.3 4.3-6 2.6-10 .3-2.9.6-5.8.7-8.7.2-4.5 2.9-9.5-2.4-13-2-4.1-4.1-8.2-6.1-12.4.5-1.7 1.4-3.5 1.3-5.1-.5-6.4-1.4-12.8-2.1-19 2.4-11.4 4.9-22.7 7.3-34 .3-.9.6-1.8.9-2.7 1.8-7.2 3.5-14.4 5.5-21.5 1.6-5.6.5-10.2-3.9-14 1.1-6.7 2.2-13.5 3.3-20 .6-3.8 3.9-7.7-.1-11.5h-.1c5.6-2.9 6.3-4.1 3.4-8.8.1-.1.2-.1.3-.2 7.8-6.5 5.9-15.9 7.4-23.9-.3 4 0 8.5 2 12.5 5.4 10.3 7.3 21.4 7.3 32.9.1 1.8 0 3.6.7 5.3 0 .4-.1.9-.1 1.3 0 5.2-.1 10.5-.1 15.7-1 4.2-.6 8.5-.1 12.8 0 .1.1.1.1.2 0 5.4 0 10.8-.1 16.2-.5.1-.9.3-1.4.6-6.1 5.1-12.2 10.2-12 19 .2 11.3.7 22.5 2.4 33.7.1.7.4 1.4.9 1.9 0 .3-.1.6-.1.9 0 2.1.1 4.2.9 6.1.2.2.3.4.5.7-1.2 2.4-2.3 4.7-3.5 7.1-1.3 6.6-2.6 13.3-3.8 19.9-1.2 13.5-2.7 27-3.5 40.5-.5 8.5 0 17 .1 25.5 1.2 4.1 2.4 8.2 3.5 12.3.3 1.8.6 3.6.8 5.3 1.5 13.8 2.9 27.6 4.4 41l-.1.1c-.9 11.4-.9 22.9 0 34 1.9 9 3.9 18 5.8 27 1.1 10.6 2.2 21 3.4 31.7.1 1.5.2 2.9.5 4.4.1.7.1 1.4.2 2 0 3.2.1 6.5.1 9.7 0 16.6-.1 33-.1 49.8 0 3.5-1.6 4.6-4.8 4-4.7-1.9-5.7-1.4-5.9 3.3-.2 5.4-.3 10.9-.4 16.3-2.8 3.9-5.6 7.8-8.5 11.7-2.5 1.7-5 3.5-7.5 5.2l-.1-.1c-1.1 2.2-3.4 2-5.2 2.6-.7.3-1.4.7-2.1 1-.5.5-1 .8-1.5 1.1.5-.4 1-.8 1.5-1.1-6 .8-10 4-11.7 10.3 1.7-.1 3.2-.2 4.7-.2 0 0 0 0 0 0s.1 0 .1-.1c-.1.6-.1 1.2-.2 1.8-3.6 1-7.3 2.2-10.9 3.1-4.1 1-7.6 2.4-7.9 7.4-.2 2.4-.3 4.7-.5 7.1-6 4.8-5.3 11.9 1.4 15 3.1 1.4 6.3 2.6 9.5 3.9 8.3.4 16.6.6 24.8 1.4 9.4.9 16.5-2.2 21.7-10.2 3-4.6 7.5-5.9 13-6.2 6.4-.4 12.9-1.5 19-3.5 12-4.1 13.9-16 4.4-24.6 0-2.1 0-4.2 0-6.3.5-3.2 1.6-6.2-3.9-3.5-3 1.5-7.4 4.2-10.4-.9 2.7-.1 5.4-.3 8.1-.4 1.7-1.1 3.4-2.2 5.2-3.3 0 0 0 0 0 0 5.5-6.8 5-13.7-1.5-19.6-1.7-1.5-3.1-3.4-4.7-5.2 0 0 0 0 0 0-.4-4.4-.9-8.7-1.3-13 .8 1.4 1.6 2.8 2.4 4.2 1.3-8.7 1.4-17 1.2-25.5-.1-4.3-.5-8.6-.8-12.9.2-.8.2-1.6-.2-2.5 2.3-7.3 4.5-14.7 6.8-22 4.7-1 2.3-4.7 2.7-7.4-.2.5-.4 1-.6 1.6.1-.6.3-1.1.6-1.6 3.8-2.9 8.6-16.2 7.2-20 0-.1-1.5.2-2.3.4-1.6-8.2-3.3-16.5-4.9-24.7.8-4 2.8-8.3 2-12-1-4.4-3.6-8.4-5.8-12.4 0-.1 0-.2 0-.3.2-.4.5-.8.8-1.2 1.6-1 3.5-1.4 4.9-2.6 1.8-1.6 2.2-3.7 2-5.9-2.6-17.7-1.7-35.6-2.3-53-.3-10 2.3-18.8 6.5-27.5 3.8-7.8 10.2-8.3 15.7-1.6 2.5 3.1 4.1 7.1 8.2 8.7.8 2.1 1.5 4.1 2.3 6.2.2 1 .3 2 .6 2.9 3.8 11.9 7.7 23.7 11.4 35.6.4 1.4.3 3 .3 4.6.1 2.8-.1 5.6.5 8.3.7 3.1 2 6.1 3.1 9.1.3 7.6.7 15.3 1 22.9.1 1.4.2 2.7.4 4.1.7 2.6 1.3 5.3 2 7.9.8 3 1.5 5.9 2.3 8.9.1.4.1.8.3 1.1 1 3.8 2 7.5 2.9 11.3 3 15.5 6 31 9 46.6 0 .5.1 1.1.3 1.7 1.7 10 3.4 20 5 30 .2 2.4.4 4.8.6 7.2 1.4 15.8 2.8 31.6 4.3 47 .3 3.7-.7 5.9-4.8 5.5-.1 0-.1.1-.2.3-.7 1.2-1.8 2.4-1.6 3.4 1.3 9.1 1 17.9-3.4 26-3.5 4.4-6.2 10-10.6 12.8-4.1 2.5-5.4 4.8-5 9 0 .2.1.3.1.4-.1 0-.1.1-.2.1 0 0 0-.5 0-.5-6.6.3-9.8 3.9-10.7 10.3-.4 3.2-1.8 6.4-2.8 9.5-2.5 7.2-.9 11.2 6.2 14.9 18.3 0 36.6 0 54.9 0 1.2 0 2.4 0 3.7 0-.5-4.1 1.2-6.9 4.8-8.9 3.9-2.1 7.6-4.4 11.3-6.9 5.9-4 6.8-10.4 2.3-15-.5-1.9-1-3.8-1.5-5.8-.7-2-1.3-4.1-2-6.1-1.3-4.5-2.5-8.9-3.8-13.4.6-5 .7-10-.1-15 .1-.4.1-.7-.2-.9-1.6-8-3.3-9.5-9.6-8.7-.4-2.4-.9-4.8-1.3-7.2-1.2-4-.9-8.1-.2-12 0-2.3 0-4.6.1-7 .1-10 .2-20.3.2-30.4.4-6.4.7-12.7 1.1-19 4.4-3.8 1.8-8.4 1.4-12.7 0-2.2-.1-4.5-.1-6.7 1.2-5.2 2.4-10.5 3.6-15.7 0 0 0 0 0 0 .8-3.7 1.7-7.3 2.5-11 .9-1.6 1.7-3.3 1.1-5.2 4-10-1.1-18.3-5.4-26.8-2-4-3.8-8-5.7-12 .9-1.2-2-6.3 3.2-3.3.5-.8 1.4-1.7 1.3-2.5 0-1.2-1.4-2.9-1-3.6 2.8-4.8-.9-7.3-3.4-10.2-1.6-1.3-3.2-2.5-4.8-3.8-.4-3.2-1-6.4-1.3-9.6-.6-8.3-1.5-16.7-1.5-25 .1-17.9.9-35.7 1.2-53.6.1-5.3 2.3-7.8 7.4-8.2 3.1-1.7 6.3-3.4 9.4-5.1 2.1-1.6 4.2-3.3 6.3-4.9 3-2.8 5.9-5.6 8.9-8.4.3-.8.7-1.5 1-2.3-.1-.6-.1-1.2 0-1.8 0 .6 0 1.2 0 1.8 1.2-2.1 2.4-4.3 3.6-6.4.4-.7.9-1.4 1.3-2.1 3.4-3.3 4.1-6.5-.1-9.7-.4-1.6-.8-3.2-1.2-4.9-1.2-2.9-2.4-5.9-3.6-8.8.7-5.7 1.4-11.4 2.2-17 .5-.7.6-1.3.6-1.8.3-.7.5-1.5.8-2.2-1-3.1-1.1-6.3.1-9.4 1-5.8 2.3-11.5 3.8-17-1.3 5.7-2.6 11.4-3.8 17v-.1c0 0 0 0 0 0 4.5-14.6 9-29 13.5-43.7 2-4.2 5.1-8.2 5.6-12.6.8-7.2-.1-14.6-.3-21.9-1.5-4.1-3-8.3-4.4-12.4-.4-3.6-.8-7.3-1.1-10.9.1-2.4.1-4.7.2-7.1 2.9.4 5.7.9 8.6 1.3 1.5-8.2 3-16.3 4.5-24.5.2-20-4.3-39.9-9.7-59m-38.8 112c.1 0 .1.1.1.1-.9.4-1.5 1.2-1.8 2.1 0 .4 0 .7-.1 1.1-.5.9-1 1.7-1.6 2.6.3-.1.6-.1.9-.1-.2.3-.5.6-.9.9 0-.2 0-.5 0-.7-.1.3-.2.6-.3.9-.2.1-.4.2-.7.3-.2.6-.4 1.2-.5 1.8 0 .9 0 1.7 0 2.6-.4 3.8-.4 7.6-.1 11.4-.1 15-.2 30 .3 45 .2.7.4 1.4.8 2 .1.1.1.2.2.4-2.3 6.3-2.6 12.6 0 18.8-.2.1-.4.2-.6.3-2.6 1.7-4 4.2-3.9 7.1.2 4.2-1 8-2.2 11.9-.1 0-.2 0-.3 0 0 .1-.1.2-.1.2-1.7 1.5-3.5 3.1-5.2 4.6-.2-.4-.4-.7-.6-1.1-.8-5.1-1.7-10.3-2.5-15.4-1.5-8.7-3-17.5-4.5-26-.9-4.4-1.8-8.9-2.8-13.3.1 2.3.2 4.6.4 7-.6-2.3-1.1-4.5-.4-7-1.5-7-3.1-13.9-4.6-20.9-1.7-4.4-3.4-8.8-5.1-13.2.4-2.5 1.4-5 1.2-7.5-.4-4.5-2.1-8.9-2.1-13.4 0-5.4 1.3-10.8 2.1-16.3 1.4-4.9 2.8-9.7 4.1-14.6 1.6-6.4 3.1-12.7 4.7-19 0 0 0 0 0 0v-.2c.1-.1.1-.3.1-.4 2.3-6.8 4.6-13.5 6.9-20.3.1 0 .1 0 .2 0 1.3.1 1.6 1.1 1.7 2.1 1.8 13.2 10.3 24 12.8 37 .1 0 .1 0 .2 0-.9 1.3-.1 2.6.3 3.8 2 3.4 3 7.4 5.6 10.4.2.1.4.1.6.2-.8.3-1.7.5-2.6.5-1.4 5-1.6 9.7.3 14.4" style="fill:#e5e5e5"/><g><path d="m932 844c-7-3.7-8.7-7.6-6.1-14.9 2.5-2.5 3.2-.3 4.1 1.5.5 1.9 1.6 3.5 3.3 4.1 15 5.6 30 9.2 45 .3 3.8-2.2 7.1-5.2 11.3-6.6 2.1-.7 4.2-1.6 6.5-.8 1.1.8.9 2.1.1 2.5-5.5 3.1-7.7 8.3-9.4 13.9-18.4 0-36.8 0-55 0" style="fill:#2b262d"/><path d="m987 844c-1.7-8.3 3.9-12 9.8-15.8.2-1.2 1-1.8 1.9-2.4 1.5-.9 3.2-1.5 3.7-3.4 1.2-1.7 2.1-3.6 2.4-5.7.9-1.8 1.6-3.8 4.3-3.4 4.5 4.6 3.6 11-2.3 15-3.7 2.5-7.4 4.7-11.3 6.9-3.6 2-5.3 4.8-4.8 8.9-1.3-.1-2.5-.1-3.7-.1" style="fill:#3e3c3a"/><path d="m921 502c-.8-2.1-1.5-4.1-2.3-6.2-4.1-1.7-5.7-5.7-8.2-8.7-5.5-6.7-11.9-6.2-15.7 1.6-4.2 8.6-6.8 17.5-6.5 27.5.6 17.8-.3 35.7 2.3 53 .1 2.3-.3 4.3-2 5.9-1.4 1.3-3.3 1.6-4.9 2.6-.3.4-.6.7-.8 1.2 0 2.3.1 4.7-1.6 6.6-3.4 3.2-4.1 6.4.1 9.6 1 .7 1 1.7-.1 2.4-3.2 1.1-5.7.4-7.3-2.8.9-7.5-1.8-13.4-6.7-19-3.8-4.4-5.5-10.3-6.4-16-.4-2.8-.5-5.7-2.7-7.8-.4-.2-.7-.5-1.1-.5-4.9-.9-10 .5-13.7-5.5-2.7-4.7-3.6-9.2-3.8-14.3.4-3.5.9-7-.3-10.5-.3-1-.4-2-.4-3-.6-10.3-1.7-20.6-1.4-30.9.6-21 2.6-42 9.8-62 2.9-8-.6-13.7-5.2-19.3-.8-2-.9-4-.9-6.1.2-1.8.4-5.1 1.6-4.8 2.9.7 5-1.6 8.1-.5 5 1.8 5.6.8 5.1-4.5-.2-2-.6-4-1-6-1.4-7.7 1-13.8 7.8-17.6 5.9-3.3 8-7.9 7.7-14.5-.9-17.3.9-34.5 4.2-51 1.7-8.7 6.5-15.4 12.9-21.4 6.4-6 13.3-10.5 21.9-12.2 7.1-1.4 12.8-6 19-9 2-.9 3.8-2.4 6.3-1.7.6.3.9.8 1 1.5-.7 2.7-3 3.7-5 5-14 8.6-21.3 21.7-22.8 37.6-1.1 11.7 3.2 22.3 11 31 2.4 3.9 6.3 6.1 9.7 9 1.7 1.5 4.4 2.3 4.2 5.3-4 2.4-6.5-1.4-9.7-2.3-.5-.3-1-.6-1.4-1-2.3-2-4.2-4.4-6.3-6.6-.8-.8-1.4-2.2-2.8-1.9-1.4.3-1.8 1.7-1.9 2.9-.4 6.1-1.2 12 .1 18.2 2.4 10.5 5.3 20.9 5.4 31.7 0 5.2 3.7 7.2 7.7 8.2 5 1.3 7 4.2 7.3 9 .4 7.7 2.8 14.7 8.5 20.3 1.7 1.6 1.4 3.7-.5 4.6-3.3 1.6-2.4 4.1-2.9 6.9-1.4 9.4.3 18.7-.4 28-.5 7.1 2.7 13.5 5.1 19.9 1.9 5-.2 8.7-1.4 12.8-.7 2.5-3.3 1.5-5.5.6.1 3.3 1.8 5.7 3.6 7.7 4.6 5 4.1 11 1.9 16-2.7 5.9-.1 9.2 3.4 12.5 3.1 2.9 3.7 5.3.3 8-2.1 1.6-4.6 3-7.2 1.1-2.8-2.1-.4-4.4.5-6.7.4-.2-1.1-1-.5-.4.2.2 0 .3-.3.5-2.3 2-3.2.7-3.6-1.5-.9-5.6-2.3-11-4.8-16-.5-.9-.7-2.2 0-2.9 1.7-1.8.9-1.9-1-2.8-2.6-1.2-3.4-8.2-1.9-11.8.6-1.5 2.2-2.4 2.3-4.1-2.2 1.3-2.3 5.3-6.1 5.3" style="fill:#372528"/><path d="m936 257c-4.5 2.1-9 4.5-13.6 6.4-6 2.5-12 4.7-18.2 7.1-2.1.8-4.4 1.3-6.1 2.5-13.2 9.8-22.8 21.6-23 39-.3 15.3-1.8 30.6-2.2 46-.2 6.3-5.2 7.7-8.9 10.4-6.2 4.6-8.2 8.5-6.8 15.8.3 1.4.7 2.7.9 4.1 1.2 10 1.2 10-8.7 7.8-3.2-.7-6.1-.9-6.1 3.7-1.5-.1-2.1-1.2-2.3-2.4-1.7-11.2-2.2-22.4-2.4-33.7-.2-8.9 5.9-14 12-19 .5-.3 1.1-.6 1.7-.7 1.7-.7 4.2 1.4 5.3-1.2 1.1-2.6 1.3-5.4-.5-8-1.7-2.4-4.4-4.1-5.2-7.2-.5-4.5-.9-9.1.3-13.5 6.1-3 6.1-9.5.2-15.9-.9-1.8-.8-3.7-.9-5.6 0-11.5-1.9-22.6-7.3-32.9-2.1-4-2.3-8.5-2-12.5-1.5 8 .4 17.4-7.4 23.9-2.8 1.4-.6 6.1-4.5 6.7-2.6-2.4-1.9-5.6-2-8.6-.1-5.5-.2-10.9.1-16.4.2-4.3 2.7-7.5 5-10.7 2.1-3 1.6-5.1-1.8-6.6-2.8-1.2-5.4-2.6-8-4.2-1.2-.8-2.6-1.2-3.7-2.2-1.6-2.3-3.5-4.4-6-5.9-4.3-2.7-6.5-7.1-8.1-11.8-.8-2.4-.3-3.9 2.3-4.6.5-3.3.7-6.7 1.6-9.9.6-2.3 1.4-5.4 3.1-6.3 4.7-2.4 8.9-4.4 11.7-9.5 1.7-3.2 6.2-4.8 9.4-7.2 10 9.5 18.4 20.4 27.7 30.6 1.8 1.9 3.1 4.3 2.7 7.2-.7 3-2.1 5.8-3.8 8.3-2.8 4-1.4 6.6 2.2 9.1 5.6 3.9 11.9 5.5 18.5 5.3 18.7-.4 37 1.7 56 1.3 6.7-.1 13.4.8 19.8-2.2 1.2-.6 2.8-.8 3.9.6.9 1.1.5 2.5-.3 3.4-7.5 7.6-13.3 16.9-24.5 19.5" style="fill:#50373a"/><path d="m924 342c3.3 1.2 6.5 2.4 9.8 3.6.2.3.3.5.5.8.2 1 0 1.8-.8 2.4-1.3.9-3.6 2.1-2.6 3.6 4.3 6.9 4.5 15.4 9.2 22 .1.1.4.1.7.2 2.1-2.2 1.8-5.2 2.7-7.8.8-2.2 1.9-4.7 4.5-3.9 2.1.6 1.1 3.2.8 4.9-1.2 6.2-1.8 12.4-1.3 18.8.2 2.6.7 5.3 3.5 5.8 9.5 1.4 9.9 9.1 11 15.8.7 4.1 1 7.7 4.4 10.8 2.9 2.7 1.3 6.2-.3 9-3 4.9-4.8 9.8-2.1 15.5 1.2 2.5-1.2 5.1-.4 7.6.7-6.7 3.3-9.5 9-9.6.5.3.8.8.9 1.4-.3 2.8-3 4.8-3 7.7-.5 2.2-1.6 4.1-2.7 6.1-1.2 2.2-.2 3.4 1.8 4.2 1.7 4.4-2.1 3.6-3.6 3-4.8-1.8-5.1.7-4.9 4.3.7 18.5-1.7 37-.4 56 .4 5.8-1.2 11.9-1.5 17.9-.1 2.1-3.3 4.1-.2 6.4.4.3-.5 1.4-1.2 1.9-.6.1-1.2.1-1.8 0-11.3-2.3-11.9-1.8-14.7 9.4-.5 1.5-1.1 3-2.5 4-.8.3-1.2 0-1.3-.8-1.1-3-2.4-6-3.1-9.1-.6-2.7-.3-5.5-.5-8.3-.1-1.5.1-3.1-.3-4.6-3.7-11.9-7.6-23.8-11.4-35.6-.3-.9-.4-1.9-.6-2.9 1.6-2.5 3.2-5.1 5-7.4.7-.9 2-1.4 3-2.1-.1 1.1 0 2.2-.3 3.3-1 3.3-3.1 6.6-3 9.9.2 6.9.7 7 7 4.6.1.4.4 1 .4 1.1-6.8 3.4-2.7 8.6-2 13 .6 3.6 2.1 7.1 3.4 11 .5-.8 1.2-1.7 2.3-3.2.4 2 .7 3.8.9 5.5.2 1.4.2 2.8.2 4.2 2.2-1.2 4.5-2.5 6.7-3.7-.8-1.4-1.3-3.3-2.5-4-4.9-2.9-6-7.8-3.6-13.2 3-6.8.5-12.7-3.4-18.6-1.6-2.5-1.7-6-2.5-9 .6-.1 1.1-.3 1.7-.4 1.2 1.3 2.4 2.5 3.6 3.8.5-1.6.6-3.6 1.6-4.8 4.4-5.7-.7-10.8-2.2-14.7-3.5-8.8-2-17.5-2.6-26-.4-5 .8-10 .8-15 0-1.6-1.3-3.3-2.3-5.3 1.9-1 4.5-2.3 7.7-4-8.7-6.3-10.4-15.2-11-24.4-.2-3.5-1.4-4.7-5-5.4-7.3-1.3-9.2-4.8-9.9-12-.8-9-2.9-17.8-4-26.8-.9-7.3-1.5-14.7-1.6-22 0-1.7 2.4-3.5 3.7-5.2 1.1 1.1 2.1 2.1 3.2 3.2 2.3 2.3 4.7 5 7.2 7.7-.8 1.6-2.7 2.4-3.3 4.1-.1.5-.3 1.1 0 1.6.2-.6 0-1.3.3-1.9.7-1.5 2.2-2.4 3-3.8" style="fill:#372a2f"/><path d="m875 135c.2-.2.5-.3.8-.3 2.2-1.4 4.6-2.6 7.3-2.6 12.2 0 24.3-.5 36.5.3.4.1.8.2 1.1.5 2.5 2.4.7 4.6-.4 6.7 4.3-.2 4.5 2.9 5.2 6 1.9 9.1 4.4 17.7 10.4 25.5 3.1 4.1 7.7 9.2 4.9 16-1 2.5.8 3.7 3.4 3.3 1.8-.3 3.4-1.3 5.3-1.1 3.5 2.9.6 5.3-1.2 6.8-10.2 8.1-19.5 17-30 24.6-6.7 4.6-13.9 8.4-20.5 13-5 3.5-12.3 3.2-15.9-1.5-5.8-7.6-13.9-13-18-21.9.1-8.1 5.3-13.6 9.4-19.6-3.6-1.4-8.7-3-8-7.8.6-4.5 6-3.9 9.7-4.2 7.2-.7 7.3-.5 7.4-7.8.1-6.8 2.5-13 3.1-19.8.6-7.4.3-8.7-6.7-10.2-4.1-1-4.9-2.6-3.5-6" style="fill:#281f29"/><path d="m930 24.8c.8.4 1.6.8 2.3 1.1 7.8 6.8 9.7 15.7 8.7 25.5 0 .2-.1.4-.3.6-2 6.6-6.7 11.6-10.8 16.9-3.1 4-5.4 8-6.6 12.8-.5 13.7 0 27.5-.2 41 0 2.8.5 5.7-1.4 8.2-6.6 2.1-13.3.6-19.9.9-4.3.2-8.5.2-12.8-.1-2.3-.5-2.5-1.9-1-3.4 1.8-1.9 2.5-4.1 2.7-6.6 1.6-3.8 3.3-7.5.7-11.6.6-3 3.6-1.6 5.2-2.9 4.1-4.5 4-6-.5-9.5-1.4-1.1-3-2-4.2-3.3-.8-1-1.1-2.2-1.2-3.6 1.1-9.6 1.7-19.4 1.8-29 .2-19.5 6.8-28 25.5-36 .8-.3-.3-1 .2-.3.1.2 0 .4-.4.5-3.1.7-6.4 2.9-8.6-1.6 7 .1 13.9.1 20.8.2" style="fill:#3a2927"/><path d="m884 656c-2.3 7.4-4.5 14.7-6.8 22 .5 1 .4 1.9.1 2.9-1.3 10.6-3.2 21-2 31.9 0 .7-.3 1.3-.7 1.9.4 4.4.9 8.7 1.3 13 1.9 4.8-1.5 4.1-4.4 4.3-7.8.5-12.2 7-10 14.3.8 2.7 3 3.7 4.6 5.3 1.7 1.8 4.1 1.2 6.2 1.6 1.8.3 4.2-.5 4.6 2.5-2.7.1-5.4.3-8.1.4-1.4 3.7-3.8 3.3-6.7 1.7-7.7-4.2-10.4-16.3-5.3-24.6 1.6-2.5 4.4-5.1-.9-6.8-1.2-.5-2.2-1.2-2.9-2.3-.2-.4-.5-1-.4-1.1 4.7-4 2.6-9.4 2.4-14-.5-11.6-.2-23-.4-34.7-.1-5.8-1.2-11.3-4.4-16.2-.1-.7-.1-1.4-.2-2-1.3-7.4-.1-14.2 3.5-20.9 4.2-7.8 3.9-8.3-3-13.4-.5-.4-.5-1-.4-1.6 1.3-1.2 2.9-1.3 4.5-1.4 2.8-.1 5.5.3 8.3-.5.6-.2 1.1-.3 1.7-.5 3-.7 3.4-3.1 3.6-5.6.2-3.4 0-6.9.1-10.3.6-3.7 1.7-7 6.3-7.2 2.5.8 5 1.6 7.5 2.5 2.7-1.6 2.7-1.6 4 2.7.1 1.4.1 2.9.7 4.2 1.6 8.2 3.3 16.5 4.9 24.7 3.3 4.1-.5 7.5-1.3 11-.6 3-2.1 5.9-3.6 8.7-1.5 2.2-.2 5.5-2.8 7.3" style="fill:#2b2024"/><path d="m1002 772c.3.3.3.6.2.9.7 5 .6 10 0 15 1.3 4.5 2.5 8.9 3.8 13.4.2.6 0 1.1-.5 1.5-.6.2-1.2.2-1.8.2-9.3-2.5-17.5-10.7-18.4-18.2.1-6.8 1.9-13.5.3-20.3-1.3-2.5-3.9-2.6-6.2-3.3-2.3-.7-4.8-1.1-6.3-3.4-1.9-6.6-.7-13.3-.9-20-.2-6.5-.2-13 0-19.5.1-6.5-1.7-12-7.3-15.8-1.9-1.3-3-3.2-4.4-5-1.7-10-3.4-20-5-30-.9-2 0-3.5 1.8-3.6 6.1-.2 5.7-4.3 4.8-8.1-2.3-10.5-3.7-21-6.7-31.6-.3-1-.6-1.9-.6-3 .1-.6.3-1.2.7-1.7 1.4-1.1 3.1-1.4 4.5-.6 4.1 2.3 8.1 1.5 12-.3 4.1.1 6.1 3.6 8.9 5.7 1.7 1.3.9 3.2 0 4.9-1.5 2.9-2.4 5.8.8 8.4.6.5.7 1.5.5 2.3-1 3.8-3.5 7.7 2.8 9.6 1.4.4.5 3-.6 4.2-3.9 4-3 9.8-5.9 14.4-1.8 2.8 2.9 5.9 2.9 9.4.4 3.3 1.4 6.4 2.5 9.4 3.9 10.5 4.2 21.4 3.9 32.4-.1 3.8-.5 7.7.7 11.5.7 4.1.3 8.2.4 12.3.2 7-1.3 14.2 3.3 20.5 1.5 2.1.2 4.2-.1 6.3-1.2 7.2-1.6 14.3 1.6 21 1 1.2 1.5 3.4 3.8 1.9 1.3-6 1.8-12 1.3-18.2 0-1.9-.6-5 3.2-2.4" style="fill:#333037"/><path d="m875 135c0 2.2-.4 3.6 3.2 4 8.8.8 9.9 3.4 8.3 12.2-1.4 7.9-2.4 15.9-2.9 23.9-.2 4-1.5 5.2-5.4 5.1-3.6-.1-7.2.6-10.7 1.3-.5.1-1.1 3.2-.7 3.4 2.4 1.3 3.6 6.3 7.8 3.1.2-.1 1.6 1 1.9 1.8.2.6-.2 2.1-.7 2.3-8.1 3.6-9 11.7-11.9 18.6-.4.4-.8.4-1.2 0-5.6-7.1-11.3-14-16.9-21-4.1-5.2-8.3-10.3-12.4-15.5 12.5-7 25.3-13.7 37-21.3 2.4-1.5 2.6-6.6 3.5-10 .7-2.4.5-5 .7-7.6" style="fill:#3e2f3e"/><path d="m909 24.6c3.2.6 6.4 1.2 9.5 1.8-4.5 3-9.1 6-13.8 9.1-8.3 5.5-9.9 13.9-10.5 23-.7 11.2-1.8 22.4-2.7 33.6-2.3 1-3.8-.5-5.4-1.6-4.7-3.3-9.6-6.4-14.2-9.8-2.2-1.2-2.6-3.4-3-5.6-1.4-16 3.5-30 11.9-43.8 2.9-4.5 6.2-7.1 11.8-6.8 5.5.3 11 .1 16.4.1" style="fill:#59372e"/><path d="m883 767c9.5 8.5 7.5 20.5-4.4 24.6-6 2.1-12.6 3.2-19 3.5-5.5.3-10 1.6-13 6.2-5.2 8-12.3 11-21.7 10.2-8.2-.8-16.5-.9-24.8-1.4-3.2-1.3-6.4-2.4-9.5-3.9-6.8-3.1-7.4-10.2-1.4-15 7.5 7 16.8 7.7 26.4 7.2.6 0 1.3 0 1.9 0 3.4 0 6.9.3 10.3-.1 6.6-.8 12.5-2.5 16-9.3 3.3-6.4 10-6.8 16.3-7.6 3-.4 6.1.2 9-.9 4.6-1.8 9-3.8 10.2-9.4.5-1.8 1.1-3.9 3.7-4.1" style="fill:#382121"/><path d="m832 500c-.1-8.5-.6-17-.1-25.5.8-13.5 2.3-27 3.5-40.5 2.5-6.4 4.5-12.9 3.8-19.9 1.3-2.7 2.7-5.4 4-8.1 8.9 6.8 7.6 14.7 4.5 24.3-3.6 11-5.6 22.7-6.9 34-1.4 12.2-1.2 24.6-1.4 36.9-.1 6 .7 12 1.1 18-.7.7-.5 2.2-1.5 2.4-1.8.3-1.4-1.3-1.6-2.4-.4-2.4 0-5.1-2-7.1-1-4.2-2.2-8.3-3.4-12.4" style="fill:#50383e"/><path d="m794 316c2-2.7 4-5.3 6-8 .5-1.1 1.6 3 2.1-.3.3-2.4 1.6-4.5 4.3-5.1 2.9.7 4 3.4 5.9 5.2 1 1.3 1.5 2.8 1.7 4.4.1 3.2 1.8 6.3 1 9.5-.6 2.2-.4 5.9-4.7 4.1-1.4-2.1-.8-4.8-2.3-6.9 1.8 2.2.7 5.3 2.6 7.5.3.6.5 1.1.6 1.8 0 1-.2 2-.6 2.9-7.6 8.7-6.9 19.3-5.8 29.4 1.5 13.7 2.1 27.4 2.3 41 0 .7-.3 1.4-.8 2-6.5 2.5-5.9-3-7.2-6.4-.3-1-.4-2.1-.5-3.2-2.4-22-3.2-44-5.3-66-.5-1.5-1.5-2.9-2-4.4.9-2.4 2.3-4.9 2.7-7.6" style="fill:#a98e94"/><path d="m816 800c-7-.9-14.2-1.4-21-3-2.3-.5-3.9-3.9-5.8-5.9.2-2.4.3-4.7.5-7.1.8-.1 1.2 1.3 2 .8 6.9-4.6 15-7 21.3-12.6 2.1-1.6 3.9-3.8 6.4-5 2.9-.8 5.8-.7 8.7-.1 3.4.9 6.9 1.8 10.4 2.2 2.3.3 4.8.7 5.9 3.3-3.8 4.4-9.6 3.6-14.4 5.3-2.9 1-5.9 1.6-6.8 5.1-3.6 5.2-3.2 12-7.1 17" style="fill:#c63e19"/><path d="m846 620c-1.9-9-3.9-18-5.8-27-.9-11.4-.9-22.9 0-34l.1-.1c.6-1.5.8-3.1 1.2-4.6.9-3.8 3.2-4.8 6.7-3.2 5.2 5.4 3.3 12.6 4.7 18.9.6 2.9.3 6 .1 9.1-.5 11 .4 21.7 3.5 32 .7 2.3 1.3 4.7.5 7.1-.3.7-.7 1.2-1.4 1.4-2.3.4-4.6-.3-6.8.7-.9.3-1.9 0-2.8-.3" style="fill:#fa6626"/><path d="m854 724c.8.6 1.6 1.1 2.4 1.7 1.5 1.6.4 3.1-.5 4.4-4.7 6.4-5.8 13.8-6.2 21.3-.3 5.1-2.4 7.8-7.1 9.2-3.5 1-6.9 2.3-10 4.2-3.8 2.3-7.7 3.5-12.2 2.4-2-.4-4-.1-5.9.7-.9.8-1.8 1.4-3 1.7-1.5.1-3.4 1.1-4.1-.9-.7-1.9 1-2.7 2.4-3.5 2-1.3 4.5-1.6 6.2-3.4.7-.3 1.4-.7 2.1-1 1.9-.6 4.1-.4 5.2-2.6l.1.1c3.4-.5 5.5-2.7 7.5-5.2 2.8-3.9 5.6-7.8 8.5-11.7 2.5-4.9.9-10.2 1.3-15.4.2-3.3.8-5.8 5-4.2h-.1c2.6 1.7 6.2-.6 8.5 2.2" style="fill:#a0858b"/><path d="m960 697c9.3 4.5 14.2 11.3 13.6 22.3-.7 12.8-.2 25.6-.2 38-.1.3-.3.5-.4.8-3.3 1.7-6.8 0-10 .9-.9 0-1.8-.2-2.5-.7-.4-.3-.5-.6-.5-1 0-.4.1-.6.2-.6 4.1.3 5.1-1.8 4.8-5.5-1.5-15.8-2.8-31.6-4.3-47-.2-2.3-.4-4.8-.6-7.2" style="fill:#4b4751"/><path d="m801 287c-.5-3.2-1-6.5-1.4-9.7 1.4-4.8-.1-9.5-.7-14.3 0-9 0-18 0-27 .3-1.8.4-3.6 1.6-5.1 1.5-.7 2.9-.1 4.2.7 3.4 2.5 6.1 5.7 6.1 10 .2 14 .9 28-.4 42-.5 1.4-1.4 2.4-2.7 3.1-2.2.8-4.4 1.4-6.7.4" style="fill:#aa8c92"/><path d="m955 621c2.4 10.2 4.9 20.3 7.3 30.5.5 2.2 1.2 4.4 1.1 6.5-.2 3.6 1.5 9.1-5.8 7-.6-.2-1.8 1.6-2.8 2.5-3.1-16-6.2-32-9.3-48 .8-1.1 1.7-1.2 2.8-.5 1.8 1.9 4.9 0 6.7 2.3" style="fill:#463c46"/><path d="m892 121c.8 4.5-.6 7.9-5 9.8-3.5 1.5-7.1 2.5-10.9 1.4-3.8.5-5.2-.9-5.1-5 .1-6.9-.5-13.8-.8-20.6 1.2-.9 2.1-.1 3.1.3 6.4 4.5 13.3 8.4 18.7 14" style="fill:#583635"/><path d="m824 420c5.3 3.5 2.6 8.5 2.4 13-.1 2.9-.5 5.8-.7 8.7.2 2.3-1.1 1.6-2 .9-1.3-1-1.7-2.7-2.8-3.9-.8-.9-1.8-1.7-3.2-1.2-1.4.5-1.6 1.8-1.6 3-.1 4.2 0 8.3 5.4 9.3 1 .2 2 .6 1.5 2-2.2.5-4.3 1-6.4 1.4.4 1.4 1 3.7 1.6 5.9-.5.8-.9 1.6-1.4 2.4-2.7 1.1-5.5.8-8.3.2-.4-.5-.4-1.1-.1-1.6 1.1-1.2 3.1-.8 4.3-2.1-1.4-1.7-3.4-.7-5-1.3-3.9-2.8-7.6-1.6-11.4.2-.5-.4-.8-.9-.9-1.5 2-4.7.4-10.4 3.9-14.7.5-.3 1.1-.4 1.7-.2 1.5 1.5.9 3.3.7 5.1-.1 1.3.2 2.5 1.7 2.5 1.6 0 1.8-1.2 1.9-2.5.2-2.8.1-5.6.8-8.3 3.3-4.4 4.4-8.7 0-13.2-1.3-1.3-1.8-3.2-.6-5 1.7-1.1 2.6.2 3.5 1.2 4.8 4.8 10.6 4.7 15-.3" style="fill:#4f3c3a"/><path d="m854 724c-2.8-.8-5.7-1.5-8.5-2.3 3.3.7 4.9-.5 4.9-4 0-16.6.1-33 .1-49.8 0-3.2-.1-6.5-.1-9.7 6.1 2.6 5.7 8.6 5.9 13.4.5 13.9.1 27.8.4 41.6 0 2.4 2.3 4.8 2.1 7-.2 1.5-3.1 2.6-4.8 3.8" style="fill:#3c2f46"/><path d="m803 232c-.9-.4-1.7-.8-2.6-1.2-1.9-1.3-.1-3.3-1.1-4.8 0-.4 0-.8 0-1.2 2.5-5.4 1-11.6 3.4-17 .7-1.7.8-3.6 2.8-4.4.7 1 1.5 1.9 2.2 2.9-2.2 4.1 1.7 12.3 6.9 15.8 2.3 1.5 3.8 4.1 5.6 6.2 1.5 2.5 2 5.2-.2 7.2-2.3 2.1-4.4-.5-6.6-1.3-3.3-1-6.2-4.9-10.4-2.1" style="fill:#a68b92"/><path d="m792 324c.7.6 1.4 1.2 2.1 1.9 1.6 14.3 1.2 28.7 3 43 1 8.2.8 16.6 2.4 24.8-1.5 3.4-3.7 2.4-5.9.8 0-6.4-.6-12.8-1.8-19-.1-1.1-.2-2.1-.3-3.2-1.3-5.1.3-10.5-1-15.6-.6-4.5 1.2-9.2-1.8-13.4.4-6.6-1.8-13.5 3.3-19" style="fill:#f26c2a"/><path d="m791 429c.3-.9.5-1.8.8-2.7 1.7-2 .6-4.4.8-6.6.2-2.2-.2-4.4 1.7-6 2.2-2.6 3.7-5.9 6.7-7.8 1.8-1.8 3.6-2.2 5.4.1 2.8 4.2.8 8.5 0 12.7 0 5.7-4.3 9.7-6.4 14.6-.9 2.2-3 3-4.3.2-1-2.4-4-2.1-4.7-4.5" style="fill:#ac8d96"/><path d="m892 121c-6.5-4.4-13-8.8-19.5-13.2-1.2-2.1-1.7-4.6-2.5-6.9 0-.4 0-.9 0-1.3.3-1.7 1.7-1.7 3-1.9 7.4 2.5 13.9 6.4 19 12.3 4.6 3.7 2.7 7.4 0 11" style="fill:#f36224"/><path d="m846 620c.7-.2 1.3-.5 2-.7.4.9 1.9.1 2 1.4 2.2 2.1 8.4-1.2 7.3 5.3-.5 3.1-.8 6.5-2.2 9.2-3.4 6.6-5.9 13.3-5.3 20.9-1.2-11.9-2.5-24-3.8-36" style="fill:#47323f"/><path d="m848 551c-6.2-1-4.4 5.6-7.4 7.7-1.5-13.8-2.9-27.6-4.4-41-.2-1.8-.5-3.6-.8-5.3.9 2.1 2.4 4.1 2.5 6.2.2 3.3 1.2 2.1 2.6.9 0 .8 0 1.6.1 2.4.9 3.2.8 6.5.1 9.8-2.4 7.7 4.1 11.9 6.9 17.6.4.9 3.3.6 5.1.8 2.5.3 5 .7 7.5 1.1-4.1 3-8.1 2.3-12.2.1" style="fill:#583847"/><path d="m801 287c2-.3 3.9-.5 5.9-.8 2.3 2.6 3.7 5.4 3.1 9-.5 1.1-1.4 1.7-2.3 2.3-1 .7-1.6 1.6-1 2.9.3.9.9 1.8.2 2.8-4.2 3.1-4.5 6.5-.9 10.4-1.8-1.9-3.6-3.8-5.4-5.8 0-6.9.2-13.9.4-20.8" style="fill:#513947"/><path d="m791 429c2.5 1.3 4.9 2.5 7.8 4 1.8-3.8 4.3-8.9 6.8-14 .2-.1.4-.2.6-.4.2.1.3.3.5.4.6 1.7.8 3.7 1.8 4.9 4.2 4.8 4.3 9.2-.4 13.5-2.9-2.2-.6-6.3-3.4-8.7-2.4 2.1-1.7 5.6-3.5 8-3.1 2.7-4.1 8.5-10.2 6.6-.5-1.2-1-2.4-1.5-3.5-.3-.6-.3-1.4.3-1.5 5.2-1.6 5-3.9 1-6.8-.5-.4-.5-1-.2-1.6.1-.3.3-.6.4-.9" style="fill:#705760"/><path d="m814 773c-7.1 4.1-14.2 8.3-21.4 12.3-.5.3-1.7-.9-2.6-1.4.3-5 3.8-6.4 7.9-7.4 3.7-.9 7.3-2 10.9-3.1 1.6-1 3.2-2.2 5.2-.4" style="fill:#ee6326"/><path d="m791 443c3.2-2.4 6.3-4.8 9.5-7.2.2.2.5.3.7.5 1.3 1.6 1.1 3.1-.4 4.5-1.3 5.2-2.6 10.5-3.9 15.7-3 1.2-4-.7-4.3-3.1-.2-2.1-.2-4.3 0-5.9-1.1 1.8 1.1 4.8-1 6.9-.1-3.8-.3-7.6-.6-11.4" style="fill:#ac8e99"/><path d="m876 132c3.6-.5 7.3-.9 10.9-1.4 11.3-.1 22.7-.1 34-.2 1-.6 1.9-.5 2.8.2.7 2.4-.1 3.3-2.5 2.5-15.2.3-30.4.6-45.6.8.2-.5.3-1.2.4-1.9" style="fill:#1274a2"/><path d="m792 375c.8 6.4 1.6 12.9 2.4 19.3 4.4 6.6 3.3 13 .1 19.8-.9.6-1.7.7-2.6 0 .3-6.6.8-13.2.8-19.8 0-6.5-.5-12.9-.7-19.3" style="fill:#4b3f81"/><path d="m939 809c-.4-4.2.9-6.4 5-9 4.5-2.7 7.2-8.4 10.6-12.8.2.2.4.3.7.5 1.4 3.6-1.3 6.1-2.6 8.9-.9 2-2.8 3.5-2.1 6.1-2.3 4.2-6.1 6.4-10.6 7.5-.5-.2-.8-.6-1-1.2" style="fill:#7769af"/><path d="m928 831c-.8-.5-1.6-1.1-2.4-1.6.9-3.2 2.3-6.3 2.8-9.5.9-6.4 4.1-10 10.7-10.3 0 0 0 .5 0 .5.3.8.2 1.7-.5 2.2-5 3.7-6.6 8.8-6.5 14.8 0 1.4-.3 2.8-1.2 3.9-1 .6-2 .6-2.9 0" style="fill:#903d7e"/><path d="m790 430c1.7 1.4 4.2 2.4 4.9 4.2 2.4 5.9-3.4 4.4-5.9 5.9.3-3.4.6-6.8 1-10" style="fill:#998096"/><path d="m960 758c.1.2.1.4 0 .6 3 8.6 1.8 17.4.8 26-.3 2.4-2.3 4.8-5.8 3.6 0 0-.2-.3-.2-.3 4.3-8.3 4.6-17.2 3.4-26-.2-1.3 1.2-2.6 1.8-3.9" style="fill:#8572bf"/><path d="m845 722c-3.2-.2-3.8 1.6-3.9 4.5 0 4.5-.5 9.1-.9 13.6-.1.5-1 1-1.5 1.5.1-5.4.2-10.9.4-16.3.2-4.7 1.2-5.2 5.9-3.3" style="fill:#7c5f6c"/><path d="m799 235c0 9.8 0 19.7 0 29.5.8 2.2 1 4.4-.2 6.5 0-14.4 0-28.9.1-43 1.2 2.4 1 4.9.1 7.3" style="fill:#7156a8"/><path d="m873 99c-1.2.3-2.5.6-3.7.8-.3-8.2-.6-16.4-.9-24.6 1.1 1.4 2.2 2.9 3.3 4.3.8 3.8-1.4 7.8.7 11.6-3.4 2.9 1.1 5.3.6 7.9" style="fill:#c76c88"/><path d="m805 204c-1.3 5.8-2.4 11.5-3.9 17.3-.4 1.5-1.5 2.8-2.3 4.2.8-6.9 1.4-13.9 2.4-20.8.5-3.3 2.1-3 3.8-.7" style="fill:#8268a5"/><path d="m792 324c-.8 6.5-1.7 12.9-2.5 19.4.6 1 .5 2-.3 2.8-2.6-10.8-1.5-21 4.9-30-.7 2.6-1.4 5.3-2.1 8" style="fill:#976ca4"/><path d="m840 559c0 11.4 0 22.9 0 34 0-11.5 0-22.9 0-34" style="fill:#806dbb"/><path d="m816 762c-2.6 2-5.3 3.9-8.6 6.4 2 .2 3.2.3 4.4.4 0 1.5-.8 2.4-2 3.1-.3.1-.5.1-.8.2-1.5.1-3.1.2-4.7.2 1.7-6.4 5.6-9.5 11.7-10.3" style="fill:#776e90"/><path d="m809 461c2.8.4 5.7.8 8.5 1.2-6.8 1.6-13.6 3.2-19.7-1.9 0-.6.2-1.1.7-1.5 3.7-.3 7.2.4 10.5 2.2" style="fill:#827376"/><path d="m948 619c-.7 0-1.5.1-2.2.1-1-3.8-2-7.5-2.9-11.3-.3-.9-.5-1.9-.2-2.8 3.3-1.7 3.8.8 4.1 2.9.4 2.6 1 5 2 7.5.2.6.2 1.3.1 1.9-.1.7-.4 1.2-.9 1.7" style="fill:#e5546a"/><path d="m789 346c.1-.9.2-1.9.3-2.8.7 4.1 1.4 8.3 2.2 12.4-.7.6-1.3.6-1.8-.2-.2-3.1-.5-6.3-.7-9.4" style="fill:#d65375"/><path d="m814 773c-1.7.2-3.5.3-5.2.5.1-.6.1-1.2.2-1.8 0 0-.1.1-.1.1 2.5-1.6 5-3.2 7.3-5.2 1.3-.2 2.1.3 2.7 1.5-1.7 1.6-3.3 3.3-4.9 4.9" style="fill:#c25c78"/><path d="m937 563c.4.3.9.5 1.3.8 3.3 6.2 1.4 12.8 1.5 19-.2 1.2-.7 2.3-1.7 3-.4-7.7-.7-15.4-1.1-23" style="fill:#795ccc"/><path d="m938 586c.1-1 .2-2 .4-2.9 4-1.1 3.8 2.6 4.9 4.6 1 2.1 0 3.4-2.3 3.8-1.1 0-2-.3-2.6-1.3-.1-1.4-.2-2.8-.4-4.2" style="fill:#e35f60"/><path d="m791 455c.2-3 .4-5.9.6-9.2 2.7 3.6-2.4 9.9 4.6 11.3 0 0-.1-.1-.1-.1.9.6 1.9 1.2 1.3 2.5-.2.2-.3.3-.3.6-2-1.7-4.1-3.4-6.1-5.1" style="fill:#78606d"/><path d="m790 355c.6.1 1.2.1 1.8.2 0 5.5 0 10.9 0 16.4-.6-5.6-1.2-11-1.8-16.6" style="fill:#926eb6"/><path d="m792 414c.7 0 1.5 0 2.2 0 .6-.5 1.1-.4 1.5.3-5.1 2.9-1.3 8.1-3 11.8-.1.1-.3.2-.5.2-.2 0-.4-.2-.5-.3.1-3.9.2-7.9.3-12" style="fill:#705760"/><path d="m943 605c-.1 1-.2 2-.3 3-.9-3.3-1.7-6.6-2.6-10 .4-.6 1-.8 1.7-.8 3.5 2.1 2.8 4.8 1.2 7.8" style="fill:#a277c1"/><path d="m870 101c.8 2.3 1.7 4.6 2.5 6.9-.8-.4-1.6-.8-2.4-1.2 0-1.9 0-3.8-.1-5.7" style="fill:#c76c88"/><path d="m831 753c-.9 4-3.3 5.8-7.5 5.2 2.5-1.7 5-3.5 7.5-5.2" style="fill:#866bbd"/><path d="m799 271c.1-2.2.1-4.3.2-6.5 0 4.4 0 8.9.1 13.3-.2-2.3-.2-4.5-.3-6.8" style="fill:#7e6660"/><path d="m938 590c.8.1 1.5.2 2.3.4 1.8 2.4 2 4.7.1 7.2 0 0-.4.4-.4.4-.7-2.7-1.3-5.3-2-8" style="fill:#a277c1"/><path d="m799 235c0-2.4-.1-4.8-.1-7.2-.1-.4 0-.8.2-1.1.4 1.6.7 3.2 1.1 4.8-.4 1.1-.8 2.3-1.2 3.5" style="fill:#6d5a63"/><path d="m823 758c-1.7.9-3.5 1.7-5.2 2.6 1.7-.9 3.5-1.7 5.2-2.6" style="fill:#866bbd"/><path d="m1030 200c.5.8.9 1.5 1.4 2.3 2.1 4 0 8.6-3.9 7.5-8.2-2.3-14.8 2.3-22 3.5-3.9 1.3-7.4 3.2-10.3 6.1-2.7 2.6-5.2 1.4-7.7 0-3-1.6-1.8-4.1-1.2-6.4.9-3.4 4.4-5.3 4.8-9.6-.8 4.5-3.8 7.1-5.6 10.3-2.1 3.9-6.2 4.2-8.1.2-4.4-9.2-11.3-16-18.5-23-1.6-1.5-2.1-3.4-1.4-5.6 4.4-5.7 9.6-10.5 16.5-13 2.8-1 4.8-2.9 7.2-4.4 3.6 0 6.5 2.4 9.9 3.1 8.3 4.2 17 7.8 22.9 15.5.7 1 1.9 1.5 3 2 5.4 2 9.3 5.7 11.2 11.2.5 1.8 1.4-.7 2 .3" style="fill:#3f353b"/><path d="m1047 263c-1.5 8.2-3 16.3-4.5 24.5-6-3.6-12-1.2-18.2-.3-1.8.7-3.5 1.5-5.4 2-8.1 1.5-11.8-.3-13.3-8.1-2.5-13.7-5.6-27.3-8.3-40.9-.8-4 .1-8.1 4.1-10.6 9.2 1.5 17.3 5.5 24.7 11 2 1.5 4.2 2.5 6.6 3.1 2.2.6 4 .5 4.6-2.3.3-1.5.7-3.5 2.9-3.3 2.2.3 2.5 2.4 2.9 4.2 1.9 9 3.1 18 1.2 27-.6 3-.8 6.1-.9 7.8-.3-3.4 1.3-7.9 1.7-12.6 0-.9.7-1.7 1.9-1.6" style="fill:#756f7a"/><path d="m1047 263c-1.2 5.6-2.4 11.2-3.7 16.9-.3 0-.6-.1-.9-.1.4-6.8 1.1-13.6.9-20.4-.2-6.8-1.4-13.5-2.3-20.4-1.2.4-1.9.4-1.9.6-.6 2.2-1.3 6.3-1.7 6.3-3.4-.3-6.9-.7-9.9-2.2-5.6-2.8-10.7-6.5-16.2-9.5-2.1-1.1-4.9-.9-7.2-1.7-.9-.3-1.5-1.7-2.3-2.6 1.9-6.6 5.1-9.6 13.4-12.2-8.9 1.8-12.7 8.2-16.3 14.8-1.2 2.1-1.4 4.7-3.2 6.5-3.3.6-3.7-1.6-2.7-3.6 2.1-4.4 1.8-9.1 1.8-13.7 1.2-5.1 6.4-5.7 9.7-8.5 6.2-1.8 12.3-3.7 18.5-5.4.9-.3 1.9-.3 2.9-.2 1.3.2 3.6 1.1 3.7.9.9-1.7 1.3-3.6 1.8-5.5 1.7-.1 3.6-4.9 5.1.5 5.6 19.4 10 39 10.5 59" style="fill:#7e7e8d"/><path d="m1034 304c1.5 4.1 3 8.3 4.4 12.4-.4.4-1 .5-1.5.4-1.5-1.2-.6-3.3-1.9-4.2.1.9 1.2 2 .9 3.4-.2.6-.6 1-1.1 1.3-1.4.6-2.9.7-4.4.8-4.6.5-5.6 4.4-6.6 7.8-2.1 7.2-3.5 14.6-4 22-.1.6-.2 1.2-.4 1.9-1 4.4-2.2 8.7-1.8 13.3 0 1.7-.1 3.3 0 5-2.4 11.6-2.3 23.7-5.2 35-.8 2.9-3 4.3-5.5 3.1-2.8-1.4-5.5-.3-8.3-.7-1-.2-1.9-.5-2.6-1.2-.5-.9-.5-1.8-.3-2.8 1.2-2 1.3-4.1 1-6.4-2.1-12.9-.2-25.4 3.9-37.7 1.1-3.1 1.3-6.3 1.5-9.6.1-1.7-.1-4.2 2.1-4.5 2.2-.2 2.6 2.1 3.1 3.9.2.8 0 1.6.1 2 3.1-4.4 4.8-9.4 4.6-15-.1-1.5.4-3.4 2.5-3.6 1.5-.2 1.9 1.2 2.6 2.5-1.3-6.3 3-11.6 2.6-17.6 3-6.2 7.3-10.6 14.3-11.7" style="fill:#726a70"/><path d="m1034 304c-4.4 3.7-8.9 7.4-13.3 11-.6 1.8-1.7 3.2-3 4.5-1.3 1.3-2.6 2.6-3.9 4-2.2 2.2-3.9 4.7-5.3 7.4-.7 1.3-1.3 2.8-1.9 4.1-.4.9-.9 1.8-1.4 2.7-.5.9-1.1 2-2.1 1.9-1.4-.1-1.8-1.5-2-2.7-.7-4.4-.4-8.9-.3-13.3.1-3.5-.8-6.3-3.8-8.4-1.8-4.7-1.6-9.4-.2-14 8.1-.8 11.8-9.2 19-11.3 1.7-.5 3.5-.9 5.2-1.4 4.9-1 8.7.9 11.7 4.6.4 3.7.8 7.3 1.1 10.9" style="fill:#32252a"/><path d="m987 731c-.4-5.6-1.4-11.2-.9-16.7.8-10.6-2.2-20.3-5-30-.8-2.7-1.1-5.5-1.6-8.3 2.8-.4 3.3 2 4 3.7 1.8 4.6 3 9.3 2.7 14.4-.2-21 5.7-41 10-61 1-4.5.6-8.7-1.7-12.9-3.6-6.8-7.6-13.5-11-20.4-1.2-2.4-2.8-4.6-.8-7.3.5-.5 1-.8 1.7-1 5.2-.2 3.3 4.7 5.1 7 1.9 4 3.7 8.1 5.7 12 4.3 8.4 9.4 16.7 5.4 26.8.5 1.9-.2 3.6-1.1 5.2-.8 3.7-1.7 7.3-2.5 11-.4-.2-.4-.7-.7-.9-1.6 5.6-1.4 11.5-3.6 16.9 0 2.6-.1 5.1-.5 7.6-1 3.9-.7 7.9-1.2 11.8.1 3.1-.6 6.1-.8 9.2-.3.7-.6 1.3-.8 2-.8 8-.1 16-.4 24-.3 2.4.3 5.1-2 7.2" style="fill:#58696e"/><path d="m991 478c-5.1.3-7.3 2.9-7.4 8.2-.3 17.9-1 35.7-1.2 53.6-.1 8.3.9 16.7 1.5 25 .2 3.2.8 6.4 1.3 9.6.5 1.5 2.9 1.8 2.4 4-.5.4-1 .7-1.6.9-1.7.3-3.2.1-4.7-.7-2.8-1.8-3.3-4.8-3-7.5 1.1-11.5-1.7-23-.9-34 1.2-17.4-.2-35 2.3-52 3.6-4.7-.7-5.8-3.5-7.6 0-1.5 1-1.9 2.2-2.2 3.3.4 6.6.4 9.9-.4 1.4.7 3.2 1.4 2.7 3.7" style="fill:#61615e"/><path d="m1002 772c-.5.6-1.5 1.1-1.5 1.8-.8 7.1-1.5 14.2-2.3 21-1.6-.8-3.2-1.6-5-2.2-5.7-9.7-4-19.5-.9-29.5 6.4-.7 8 .7 9.7 8.7" style="fill:#4f4445"/><path d="m990 173c-3.2-1.3-6.4-2.5-9.6-3.8-2.5 1.6-4.3-.2-5.9-1.6-9.3-8-18.8-15.7-28-23.4-.8-.6-1.3-1.5-1.4-2.6.5-1.7 1.3-3.2 2.6-4.4 3.5 0 3.5 3.3 4.9 5.3 11.4 8.5 22.8 17 34 25.5 1 2.2 3.4 1.3 4.9 2.4.8.4 1.5.7 2.3 1.1 0 3.4-2.2 1.5-3.7 1.5" style="fill:#525067"/><path d="m1015 459c-3 2.8-5.9 5.6-8.9 8.4-1.3-.3-2.8.3-3.9-.9-1.6-4.3-5-3.5-8.3-3-.6 0-1.2 0-1.8-.1-2.7-.7-5.7-.9-7.4-3.5-.9-2.3-.9-4.5.2-6.7.2-.3.5-.8.8-.8 9.1-.5 18.4-3.9 27.3.7.6.6 1.1 1.2 1 2.1-.4 1.5-1.1 3 1 3.8" style="fill:#585a6d"/><path d="m990 173c1.2-.5 2.5-1 3.7-1.5 14.3 6.8 26.9 15.8 35.6 29.4-.2 1.4-.4 2.9-.8 6.1-1.2-3.3-1.5-5.3-2.6-6.5-2.8-3.2-5.8-6.2-9-9.1-2.1-1.9-4.5-3.7-6.9-5.3-6.6-4.4-13.3-8.7-20-13" style="fill:#5f5d51"/><path d="m1037 316c.6 0 1.2.1 1.9.1.2 7.3 1.1 14.7.3 21.9-.5 4.4-3.7 8.4-5.6 12.6-3.1 1.9-.8 7.4-5.4 8.3-.4-.5-.6-1-.8-1.5-.4-6.6 3.3-11.9 5.6-17.6 2.3-5.7 4.6-11 2.4-17.4-.7-1.9 0-4 .6-5.9v-.5c.3-.5.7-.5 1 0" style="fill:#b98333"/><path d="m922 80c3.1-5.4 6.1-10.9 9.4-16 2.6-4 5.7-7.7 8.6-11.5.4.9.9 1.8 1.3 2.7 1.2 3.8-2.5 5.4-3.6 8.2-2.6 2.4-3.2 6.3-6 8.6-1 .8-2 1.6-2.9 2.6-.9.9-1.6 1.9-2.1 3.1-.2.5-.4 1-.6 1.5-.8 1.7-.7 4.1-3.5 3.9-1.2-.9-1.6-1.8-.6-3" style="fill:#278aab"/><path d="m941 51c-.6-3.3-.9-6.7-2-9.9-1.9-5.3-4.4-10.4-6.6-15.6 7.6 1.2 9 7.4 10 13.4.6 4 4.6 8.8-1.5 12" style="fill:#544b39"/><path d="m953 142c-1.5-1.9-3.1-3.8-4.6-5.8-2.6-2.4-1.4-6-2.7-8.8-.7-6.7-.2-13.4-.3-20-.1-3.3.4-6.6-.4-9.8-.2-1-.2-1.9.1-2.9.6-1.3 1.5-2 3-1.9.1 6.9.4 13.8.2 20.7-.2 7.6 1.1 14.6 4.6 21.4.9 2 .1 4.9.1 7.3" style="fill:#d2ceac"/><path d="m989 597c-1.6-2.1-3.2-4.2-4.8-6.3.4-4.5 0-9.2 2.2-13.5 2.5 2.5 2.5 2.5 1.7 9.4.7-3.1-.1-6.3 1.1-9.3 2.5 2.9 6.1 5.4 3.4 10.2-.4.7 1 2.4 1 3.6 0 .8-.9 1.7-1.3 2.5-5.3-2.9-2.4 2.1-3.3 3.4" style="fill:#d7d4c8"/><path d="m999 404c4.1 0 8.1-.1 12.2-.1 1.4-1.2 3.1-1.3 4.8-.7 1.6 1.1 4 1.8 2.2 4.5-.7 5.7-1.4 11.4-2.2 17 1.6 5.2-2.2 1.1-3.2 1.8-.5.1-1 0-1.6-.1-.5-.4-.7-.8-.8-1.4.8-4.1 2.4-8.1 2.9-12.3.2-1.7.6-3.3-1.7-3.8-4.1-1.7-8.9.2-12.9-2.4-.5-.8-.6-1.7.3-2.5" style="fill:#684b1e"/><path d="m1014 427c.9-.5 1.7-.9 2.6-1.4 1.2 2.9 2.4 5.9 3.6 8.8-1.3 2.1-.5 3.9.5 6 1.4 3.1 2 6.4-1.4 8.9-.7.1-1.4-.1-2-.5-2.6-7-5.7-14-3.3-21.8" style="fill:#b3d1cf"/><path d="m1019 408c-.8-1.3-1.5-2.5-2.3-3.8-1.5-15.9 3.6-30 9.4-44.7.5-1.1 1.4-1.9 2.8-2 .1.6.1 1.2.2 1.7 1 2.8-.7 5.1-1.5 7.5-3.1 9.2-5.5 18.5-7.1 28v-.1c-1.2 3.2-1.1 6.3-.1 9.5-.5 1.3-1 2.6-1.4 3.9" style="fill:#e49945"/><path d="m1020 395c2.2-9.7 4.3-19.5 6.6-29 .5-2.1 1.3-4.2 2-6.3 1.3-3 2.6-5.9 4-8.9 0-.1.4 0 .5 0 .2.1.3.3.4.4-4.5 14.8-9 29.4-13.5 44" style="fill:#895e13"/><path d="m992 763c-1.4-1.6-3.8-3.1-4.1-4.9-.8-4.8-.7-9.7-.9-14.5 1.4-2.3.2-4.8.8-7.1.4-.5.9-.8 1.6-.8.7.1 1.1.5 1.2 1.2 0 2.3 0 4.6-.1 7-.7 4-1 8.1.2 12 .4 2.2.8 4.6 1.3 7" style="fill:#4f4445"/><path d="m991 478c-.8-1.2-1.7-2.4-2.5-3.6 0-.3.1-.5.1-.8.5-1.3 1.3-2.5 2.4-3.4.8-.4 1.6-.7 2.5-.8.6-.1 1.2-.1 1.8-.1 2.5.2 5 .3 5.2 3.7-3.2 1.6-6.3 3.3-9.5 5" style="fill:#6c6a6d"/><path d="m951 72c2.8 5.9.9 11.5-1.4 17-.8 1-1.9 1.1-3.1 1-1.2-.6-2.9.1-3.6-1.6 3.7-4.8 6.1-10 4.6-16.2 1.1-2.4 2.3-1.5 3.5-.2" style="fill:#6e6158"/><path d="m1033 293c-4-1.1-8.1-2.2-12-3.4-1.3.2-1.6-.5-1.4-1.6 1.7-.9 3.4-1.7 5.2-2.2 2.8-.7 5.7-1.2 8.5.1 0 2.4-.1 4.8-.2 7.1" style="fill:#7b7276"/><path d="m1000 473c-1.8-.8-3.7-1.6-5.5-2.4.4-1.3.1-1.8-1.3-1.4-.5-.1-1-.3-1.4-.6-.8-1.4-.3-2.6.3-3.9.3-.5.7-.9 1.2-1.1.3 0 .7-.1 1-.1 4.1-1.5 6.1 1.8 8.8 3.8 1.1.3 2.2.6 3.4.8-2.3 1.6-4.4 3.3-6.5 4.9" style="fill:#39373c"/><path d="m951 72c-.9 0-1.8.1-2.7.1-3.5-1.1-6.6.5-9.9 1.3-.4-.4-.6-.9-.7-1.5-.1-4.3 3.5-4.6 6.3-5.8.1-1.7-2.5-2.1-1.9-3.9 1.1-1.3 2.5-2.2 4.1-2.7 1.6 4.1 3.2 8.3 4.8 12.5" style="fill:#774f26"/><path d="m946 59.7c-1.3 1-2.7 2-4 3-1.8 1.5-3.6 1.5-5.6.3 1.8-2.8 3.7-5.5 5.5-8.3 1.2-.9 2.5-3.7 3.1.4.3 1.5.7 3 1 4.6" style="fill:#323b4c"/><path d="m992 668c1.3-6.6 2.5-13.2 4.1-21.5.4 3 .5 4.4.7 5.7-1.2 5.2-2.4 10.5-3.6 15.7-.3.6-.7.6-1.2.1" style="fill:#424b62"/><path d="m1009 813c-1.2 1.4-2.3 2.7-3.5 4.1-2.2 2.9-4.7 5.3-8.7 5.1-.8-.6-1-1.4-.9-2.3 1.5-3.6 5.7-4.2 7.7-7.2.3-.4.5-.9.8-1.3.7-1.4.7-3.1 1.7-4.3.5-.3 1-.2 1.3.2.6 1.9 1.1 3.8 1.6 5.7" style="fill:#694b99"/><path d="m991 737c-.4-.2-.8-.4-1.1-.6-2.4-9.6-1.2-19-.6-28.9.5-.7 1.2-1 2-1-.2 10.2-.3 20.4-.3 30.5" style="fill:#9ca03d"/><path d="m1015 459c-1.2.6-2.5 1.2-4.7 2.3 1.3-3 2.2-5 3.1-7.1-1-1.4-1.3-3-.7-4.6.4-.9 1.1-1.5 2.1-1.9.6-.2 1.2 0 1.6.5 1.4 2.9-1 5.6-.4 8.4-.3.9-.7 1.7-1 2.4" style="fill:#afbecc"/><path d="m991 707c-.4.3-.8.5-1.3.8-2.2-3.3-1.6-6.8-.3-10.2.1-3.2.1-6.4.2-9.5.5-.6 1.2-.7 1.9-.5.2.1.4.3.6.4-.3 6.3-.7 12.6-1.1 19" style="fill:#626038"/><path d="m1034 286c-3 .3-5.9.6-8.9.9-.5-.2-.9-.5-1.1-1 6.3-1.5 12.7-3.5 18.5 1.5-2.7-.5-5.6-1-8.5-1.4" style="fill:#4d4754"/><path d="m993 675c.4 4.3 3 8.9-1.4 12.7 0 0-.3.2-.3.2-1.5-3.1-1.1-6.2-.5-9.4.6-1.2.9-2.7 2.2-3.5" style="fill:#bfd042"/><path d="m990 578c0 3.7 0 7.4 0 11-.2 0-.5 0-.7 0-.7-3.8-1.4-7.5-2.1-11.3-.7-1.2-1.3-2.4-2-3.6 1.6 1.3 3.2 2.6 4.8 3.8" style="fill:#8b9bab"/><path d="m1019 449c.2-3 .3-6 .5-9 .2-1.9.5-3.8.7-5.8.4 1.6.8 3.2 1.2 4.9 1.9 3.2 1.6 6.4.1 9.7-.4.7-.9 1.4-1.3 2.1-.9-.3-1.5-.8-1.2-1.9" style="fill:#6770ba"/><path d="m946 89c1.2-.1 2.3-.2 3.5-.2-.5 1.2-.9 2.4-1.4 3.6-.7.6-1.4 1.2-2.1 1.9-.9.4-1.7.4-2.6 0-1.3-1.1-3.1-2-2.5-4.3 1.6-1.3 3.5-.2 5.1-1" style="fill:#b06845"/><path d="m1021 448c0-3.2-.1-6.4-.1-9.7 4.2 3.2 3.5 6.4.1 9.7" style="fill:#d4e08b"/><path d="m1002 788c0-5 0-10 0-15 0 5 0 10 0 15" style="fill:#4f4445"/><path d="m1019 449c.4.6.8 1.3 1.2 1.9-1.2 2.1-2.4 4.3-3.6 6.4 0-2.9-.1-5.7-.1-8.6.4-.5.9-.5 1.4-.2.3.2.7.4 1.1.5" style="fill:#525664"/><path d="m991 756c-.1-4-.1-8.1-.2-12 .1 4 .1 8.1.2 12" style="fill:#333037"/><path d="m993 675c-.5 1.3-.9 2.6-1.4 3.8-1.1-.8-.4-2.3-1.2-3.3.4-2.4.8-4.8 1.2-7.2.4 0 .8 0 1.2-.1.2 2.4.2 4.6.2 6.8" style="fill:#333848"/><path d="m1020 404c0-3.2.1-6.3.1-9.5-.1 3.2-.1 6.4-.1 9.5" style="fill:#8a610b"/><path d="m1008 807c-.3 0-.6 0-.9 0-2-1.2-2.7-2.7-1.7-4.9.2-.4.4-.8.5-1.2.8 2 1.4 4.1 2.1 6.1" style="fill:#7f8494"/><path d="m999 641c.4-1.7.8-3.5 1.1-5.2-.4 1.7-.8 3.5-1.1 5.2" style="fill:#c3cb91"/><path d="m992 170c-1.6-.8-3.3-1.6-4.9-2.4 1.6.9 3.2 1.6 4.9 2.4" style="fill:#5f5d51"/><path d="m928 831c.7-.2 1.4-.3 2.1-.5 3.7 2.7 7.5 5.1 12.3 5.2 7.3 2.4 14.9 1.9 22.4 1.9 1.6.1 3.1-.1 4.5-.9 3.9-1.6 7.2-4.3 10.6-6.7 5-3.5 10.3-6.2 16.7-5.4 1.2.4 2.6.7 2.3 2.5-.8.4-1.6.9-2.5 1.3-7.1 1.1-13 4.7-18.6 9-9.2 7-19.7 4.5-29.8 3.7-5.3-.4-10.5-2.4-15.5-4.5-1.9-.7-3-3.6-4.5-5.6" style="fill:#401710"/><path d="m997 826c-5 1.7-10.2 3-15 5.2-4.1 1.9-7.9 4.7-11.8 7.1-4 1-3.9-2.2-3.7-4.3.5-5.6.9-11.2 1.3-16.8.2-3.3 2.6-5.3 5.2-7 .5-.4 1.1-.6 1.7-.9 1.8-.6 3.5-1.2 5.4-.9 3.5 1.8 5.8 5 8.5 7.7 2.5 2.5 5.2 4.5 8.3 5.9 3-1.5 6.1-3 9.1-4.4-1 2-1.9 3.9-2.9 5.9-1 3.3-4.2 1.2-6.1 2.5" style="fill:#c74a1e"/><path d="m997 826c2.1-.8 4.1-1.6 6.2-2.5-1.2 1.2-2.3 2.5-3.5 3.7-.9-.4-1.8-.8-2.7-1.2" style="fill:#2b262d"/><path d="m1004 213c-3 2.7-5.9 5.4-8.9 8.2-5.4 6.8-8.5 14.4-8.6 23-1.4 7 .1 13 5.5 18 2.3 2.1 1.1 6.5 1.7 7.2 3.4 4 1.6 8.2 1.7 12.3 0 1.4-.2 2.8-1.2 4-.5.3-1.1.4-1.7.2-2.5-13-11-23.9-12.8-37-.1-1-.4-2-1.7-2.1-3.3.5-5.6 2.7-8.2 4.4-1.5.9-2.8 2-4.2 3-7.6 1.1-15.4.6-23 2.5-2.2.5-4.6 3-7.3.9 0-.3 0-.7 0-1 6.9-5.8 13.7-11.6 20.5-17.5 1.4-1.3 2.6-2.9 3.6-4.8-13.3 5.6-26.9 2.6-40 2.6-16 0-32-.9-47.8-2.5-5.2-.5-10-4.4-14.8-7.3-.9-.6-.9-3.9-.2-5.5 1.6-3.9 3.7-7.5 5.7-11.3.4 0 .8 0 1.2 0 5.2 5.6 11 10.7 15.5 16.8 6.3 8.4 11.2 10.3 19.9 3.2 11.3-9.3 23.8-17 35.7-25.6 4-2.9 7.8-5.9 11.4-9.3 1.5-1.4 2-3.9 3-5.8 1-5.6 5-4.2 8.6-3.7.8 1.8 1.1 4.1 2.4 5.3 7 6.4 13.9 12.7 17.5 21.9 1.7 4.4 4.7 3.6 7-.2 2.6-4.5 5.4-8.9 8-13.4.6.3 1.2.7 1.8 1-1.9 3.4-3.7 6.8-5.8 10-3.2 4.8-2.9 7.6 1.6 8.9 1.1.3 2.7-.3 3.8-.9 3.5-2 6.8-4 10.3-5.8" style="fill:#362729"/><path d="m848 551c4-.1 8.1-.1 12-.2 2.4 7.4 4.6 14.8 7.1 22 .7 2 2.1 3.9 3.6 5.4 4.8 4.8 6.3 10 3.8 16.5-1.6 2.4-3.2 4.9-4.8 7.3-2.3 5.5-.5 12.2-5 17-.4.1-.8.2-1.2.4-2.4.3-4.8.8-7.1-.3-6.5-19.8-4.1-40.5-6.4-60.8-.2-2.5-1.3-5-2.1-7.5" style="fill:#cf3f17"/><path d="m933 346c-5-4.4-10-8.8-15-13.2.9-2.5 2-4.7 5.2-4.7 4.1.7 6.6 4.3 10 6.1 1-1 .8-1.8.8-2.6 0-1.2-.1-2.4.1-3.6.7-6.4 15.8-14.4 21.9-11.7 1.3 3.8.8 7.7.5 11.6-1.8 6.1-8.5 7-12.5 11 4.6 4.6 10.7 2.1 15.7 4 2.2 1.8 3.2 4.3 4.4 6.7.1.6-.1 1.2-.5 1.7-.5.3-1.1.6-1.7.7-7.6 1.5-14.9-1.1-22-2.4-2.5-.8-4.9-1.6-6.6-3.7" style="fill:#d46129"/><path d="m924 329c-1.8 1.3-3.6 2.6-5.4 4-7.7-8-11.5-17.9-11.5-28.5-.1-18.7 8.3-33.4 24.4-43 1.5-1 3.1-1.9 4.6-2.9 8.6-2.8 17.2-5.3 26.5-3.9 1.3.2 2.7-.6 4-.9 2.5 1.8 3 3.4-.6 4.2-2.7.6-5.5.7-8.3.7-4.1-.9-8-.2-11.9 1.2-23.7 7.8-36.8 32-27 56.9.5 1.3 1 2.6 1.1 4.1-.1 2.7-.2 5.3 3.4 5.8 1 .7 1.4 1.5.7 2.7" style="fill:#d04721"/><path d="m887 604c-.5-1.5-1-2.9-1.4-4.4.1-2.5-1.4-4.4-2.7-6.4-1.6-2.5-3.2-5.1-2.2-8.3.5-2.4 1-4.9 1.5-7.3 2.4 4.7 5.7 9.3 6.8 14.3.8 3.7-1.3 8-2 12" style="fill:#e6ddc1"/><path d="m881 585c1.6 4.9 3.2 9.8 4.9 14.7-1.1-.8-2.2-1.7-3.2-2.5-6.7-2.6-7.3-7.2-1.7-12.2" style="fill:#66594b"/><path d="m841 531c0-3.3 0-6.5-.1-9.8 0 3.3 0 6.6.1 9.8" style="fill:#50383e"/><path d="m887 576c-1.7.7-3.3 1.4-5 2.2 1.7-.8 3.4-1.5 5-2.2" style="fill:#e6ddc1"/><path d="m803 232c.1-1.4-2.3-4.7 2.1-3.1 3.4 1.2 6.9 2.3 9.8 4.4 5 3.5 5.5 1 5.2-3.3 0-.6.1-1.2.2-1.8 1.1.5 2.3.9 3.4 1.4-.3 3.1-.4 6.2-1.8 9.1-2.2 11.3-3.2 22.9-5.1 34-.8 4.6-.7 9.5-5.9 11.8-.7.2-1.3.1-1.9-.4 0-12.8-.2-25.5.2-38 .1-5.8-1.4-10.5-6.2-14" style="fill:#6d5a63"/><path d="m829 250c.1 7.1.1 14 .3 21 .1 1.9.6 3.9 1 5.8.8.8.9 1.6 0 2.4h.1c-1 2.3-2.2 4.4-4.1 6.1-.4.7-.7 1.4-1 2.2-.9 2.5-1 6.9-4.2 6.1-2.9-.7-1.8-4.7-1.1-7.4.4-8.1 1.4-16.2-1.3-24-2.3-6.8 1.1-13.2 1.1-19.8 0-1.2.4-2.4.4-3.6 2-2.9 3.1-.2 4.1.8 2.9 2.7 3.5 6.6 4.7 10.2" style="fill:#6d5b5a"/><path d="m829 250c-2.7-4.1-5.5-8.1-8.2-12.2-.4-.2-.6-.4-.5-.6.1-.3.2-.4.3-.4.8-2.4 1.6-4.9 2.4-7.3 3.6 1.8 7.1 3.8 10.8 5.4 3.1 1.4 3.2 2.9 1.3 5.5-2.2 3-4 6.4-6.1 9.6" style="fill:#a78b8e"/><path d="m853 329c4.2 3.2 7.5 6.4 6.3 12.9-1.1 5.8-3 4.9-6.4 2.4-1.1-5.1-1.3-10.2.1-15.3" style="fill:#e9672d"/><path d="m853 298c3.9 1.6 7.3 13 4.4 15.7-.6.5-3-.9-4.5-1.4-1-4.8-1.2-9.5.1-14.3" style="fill:#ef633a"/><path d="m853 298c0 4.8-.1 9.6-.1 14.4.1 5.4.1 10.8.2 16.3 0 5.1-.1 10.2-.1 15.3-.5.3-1 .7-1.5 1 .1-15.4.1-30.8.2-46 0-2.4.6-4.8.9-7.2.2 2.1.3 4.2.4 6.4" style="fill:#7e60b6"/><path d="m831 280c0-.8 0-1.6 0-2.4.9-2.5 1.7-5.1 2.6-7.6 3.8 5.7 3.5 6.8-2.6 10" style="fill:#ede6bc"/><path d="m883 767c-.6 1-1.5 1.9-1.8 3-2.5 8.6-7.5 12.6-16.4 13-2 .1-4.1-.2-6.1.2-6.1 1.2-12.2 1.8-15 9-2.7 6.6-9.6 6.8-15.5 7.7-3.6.6-7.3.1-10.9.1.7-6.2 2.5-12 5.5-17.6.6-3.5 3.5-4.1 6.3-4.9 5.8-1.6 12-2.1 17.4-5.2 1.3-.4 2.5-.3 3.7.1 4.8 3 10 4.8 15.8 4 2.5.1 3.8-1.6 5.2-3.3.3-.4.7-.8 1-1.3 3.1-3.1 3-7.5 4.5-11.3 2.1-1.8 4.3-5.1 6.4 0 0 2.3 0 4.4 0 6.5" style="fill:#c63e19"/><path d="m883 761c-2 .1-4 .2-6 .4-1.7 4-1.9 8.7-4.8 12.3h-.1c-1.9 1.3-3.6 2.8-5.1 4.6-6.2.7-12.2.6-16.9-4.4-7.2-2.7-14.8-3.9-22.4-5.2-3.1 0-6.2 0-9.2-.1-.9-.4-1.8-.7-2.6-1-.7.5-1.5.6-2.3.2 2.1-.4 4.2-.9 6.3-1.3 3.2-.6 6.5-.8 9.6-1.7 2.1-.6 3.9-2.3 6-2.8 8.4-2 12.9-6.1 13.4-15.8.3-6.8 4.6-13.4 7.1-20 7.1 1 7.3 1.5 2.8 7.3-5.8 7.6-3.7 20 4.2 24 1.4.7 3.6-.4 5.5-.7 3 5.1 7.5 2.3 10.4.9 5.7-2.8 4.6.3 4.1 3.4" style="fill:#67555b"/><path d="m865 752c-5.9-3.4-6.7-8.9-4.5-14.5 2.1-5.2 6.5-8.1 12.6-7.6.9.1 2-1.7 3-2.6 1.5 1.7 3 3.6 4.7 5.2 6.4 5.8 7 12.8 1.5 19.6-5.8 1-11.5 3.6-17.3-.1" style="fill:#4d3e35"/><path d="m875 715c-.1-.5-.1-.9-.2-1.4-1.9-11.2 1.4-22 2.4-33 .1-.8.3-1.5.4-2.3.3 5.1.9 10.2 1 15.3.2 8.4 0 16.9-1.2 25.5-.8-1.4-1.6-2.8-2.4-4.1" style="fill:#fdf6fa"/><path d="m887 649c1.3-4.1 2.7-8.2 3.9-12.4.6-2.4.7-4.9 1-7.4.8-.1 2.2-.5 2.3-.4 1.4 3.9-3.4 17.2-7.2 20" style="fill:#e3dea4"/><path d="m865 752c4.8-.3 9.6-.8 14.4-1 .9 0 1.9.7 2.8 1-1.7 1.1-3.4 2.2-5.2 3.3-3.9-1-8-2.2-12-3.3" style="fill:#67555b"/><path d="m884 656c.9-2.5 1.8-4.9 2.7-7.4-.4 2.7 2 6.4-2.7 7.4" style="fill:#e3dea4"/><path d="m992 468c.5.1 1.1.2 1.6.2.4.8.6 1.6-.5 2.1-.7 0-1.5 0-2.2-.1-.8.2-1.6.4-2.5.3-5.2-2.6-6.8 2-9.3 4.8-1 .4-2 .7-3.1 1.1.1 2.3-2.4 3.1-2.8 5.1 2.4 2.1 5.4-.9 7.8 1-.4 8-.9 16-1.2 24-.5 11.3-1 22.7-1.2 34 0 2.8 1.3 5.5 1.8 8.3.3 2 .3 4 .2 6-.3 5.8-.9 11.6-.9 17.5 0 1.7 1.5 3.4 2.3 5.2-1.5 4.1-2.7 8.2-1.4 12.6.1 4.6-2.4 5.6-6.3 4.4-.9-1.4-.8-2.9-.3-4.4 2.9-5.6 2.3-10.7-2.1-15.5-5.4-6-9.4-13-13.9-19.7-1-1.5-3-3-1-5.2.2-.6.7-1.6.5-1.6-3.6-2.4-.5-4.6-.2-7.1.7-6.8.5-13.8.6-20.6.1-6.1 0-12.2 0-18.3 0-7.8-.1-15.7 0-23.5.1-5.4.2-10.8.7-16.2.1-.6 2.5-1.4 3.8-1.3 2.1.2 4 1.1 6.1 1.7 0 0 .2-.2.3-.4-.5-.3-1-.5-1.4-.8-.1-.9.4-1.8 1.2-1.9 6.4-1 8.2-5.8 9.4-11.2-.2-3.7 1.9-5.3 5.3-5.6 1.7 0 2.4 1.1 3 2.4.2.5.3 1.1.3 1.6-.1 1.3.2 2.6.3 4 0 .8-.3 1.6-.8 2.3 0 2.4.1 4.9.1 7.3 1.1 2.2 4.2 1.1 5.3 3.2.9 1.5.1 2.9.5 4.2" style="fill:#3c3338"/><path d="m940 348c7.7.9 15.4 1.7 23 2.6 2.1 1.6 2.6 4 3 6.4 2.2 11 4.1 22 6.3 33 .3 1.4-2 3.2.6 4.4 1.1 1.4 1 3 .7 4.7-1.4 4.1-.2 9-3.9 12.4-1.3 1.2.5 1.6 1 2.1 5 6.5 4.3 13.3 1.1 20-1.2 2.6-2.7 4.7.8 6.5.4.5.4 1 .3 1.6-8.4.1-7.7 7-8.7 13.4-1.3-1.6-2.7-2.7-2.6-3.3 2.9-8.3-5-17.7 3.2-25.6 2.2-2.2 3-6.1-1.6-8.6-1.5-.8-2.2-3.6-2.6-5.6-1.1-4.8-1.6-9.8-2.7-14.6-.3-1.1-2.1-2.4-3.5-2.7-10.4-2.3-8.2-2.6-8.7-13.3-.3-5.9 1.2-11.9.9-18.4-1.7 4.9-3.3 9.8-5 14.6-.6.1-1.2.3-1.7.4-2.5-5.7-4.9-11.3-7.4-17-.9-2.2-1.6-4.5-2.8-6.4-2.7-4.3-1.5-6.5 4-7 1.9-1.2 4.1.1 6.2 0" style="fill:#3e3139"/><path d="m957 550c6 8.8 11.8 17.8 18 26.4 3 4.2 3.3 9.8-.3 14-1.3 1.8-.9 4.4-2.4 6.1-1.6 3.9-3.2 7.8-3.2 12.2-.1 10.2-2.6 11.7-13 8.4-1.8-2.5-1.4-5.4-1.4-8.2-.1-9.7 0-19.4 0-29-.1-12.9-1.7-15-13.7-19-.6-.2-1-.6-1.4-1.1.4-2.2 1.2-4.3 1.1-6.5-.3-4.4 2.6-5.3 5.6-5.2 3.4.3 7 1.4 10.6 2.1" style="fill:#d55c22"/><path d="m940 560c11.9-.1 16.9 4.8 16.9 16.7.1 13.5 0 27 0 40.6-2.8 2.3-5.6 2.2-8.4-.1-.9-2.9-1.6-5.8-2.7-8.6-.5-1.3-1.5-2.3-2.2-3.5-.8-2.5-1.7-4.9-2.5-7.4 0-2.4-.1-4.8-.1-7.2 1.6-2.1.9-4.4-2.3-7.4 0-6.4-.1-12.8-.1-19 .5-1.3.9-2.6 1.4-3.9" style="fill:#fc772a"/><path d="m979 448c.3 8.1-.9 9.5-11.2 13.3-2.8-.5-4.1-1.6-2-4.5 1.4-2 2.3-4.3 3.4-6.4.8-4.7 3.7-5.8 7.9-4.6 1 .3 1.7 1.1 1.9 2.2" style="fill:#827f89"/><path d="m979 448c-.4-.4-.8-.9-1.3-1.3-4.9-1.2-4.9-1.2-4.6-3.7 0-.4 0-.8 0-1.2 0-.4-.1-.8-.2-1.2-1.1-7.6-.1-9.8 5.7-12 1 0 2.7.3 2.6 1-.2 4.9 3 9 2.8 13.8-1.3 1.9-4.9 1.4-5 4.7" style="fill:#827d87"/><path d="m973 443c1.5 1.2 3.1 2.5 4.6 3.7-3.5-.4-7-.7-8.5 3.6 1.3-2.4 2.6-4.9 3.9-7.3" style="fill:#3e3139"/><g style="fill:#372528"><path d="m921 346c.4 1.5.7 3 1.1 4.5-.8 0-2.2 0-2.2 0-.1-1.5-.1-3-.1-4.5.4-.4.8-.4 1.2 0"/><path d="m940 348c-2.1 0-4.2 0-6.3 0 0-.8 0-1.7.1-2.5 2 .9 4.1 1.7 6.2 2.5"/></g><path d="m921 346c-.4 0-.8 0-1.2 0 1.2-1.2 2.4-2.4 3.7-3.7-.8 1.3-1.6 2.5-2.5 3.7" style="fill:#3e3139"/><path d="m958 186c-2.9 1.2-5.7 2.4-8.6 3.7-1.1.5-2.1 1.4-3.3 1.5-2.3.3-4.6.1-6.9.2.1-2.3.2-4.6.2-6.9 0-1.4.5-3.1-.1-4.2-3.4-6.3-7.5-12.3-10.6-18.8-2.3-4.8-4.2-10-4.7-15.3-.5-4.8-1.7-6.7-6.6-5.5-1.1.3-2.5-.5-3.8-1.4 3.5-.9 7.6-.7 7.7-5.7.8-.9 1.6-1.8 2.3-2.7.1-.4.2-.7.3-1.1 1.3-11.7.4-23.5.5-35 .1-5.9.2-11.7 1.7-17.4 1.3-1 1.7-2.5 2.3-3.9 1-1.1 2.1-2.1 3.1-3.2 2 3.4 1 7.1 1.1 10.7.1 4.7 1.1 8.8 4.9 11.9 1.8 1.5 4.4 1.2 6.2 2.8.4.6.6 1.2.8 1.9.8 10.7.4 21.4.5 32-.4 3.5.5 6.8.9 10.2 0 .3-.1.6-.1.9 11.8 9.4 23.6 18.8 35 28-1.1 1.4-2 3.5-3.4 3.9-8.1 2.2-13.6 8.2-19.7 13.2" style="fill:#2e293a"/><path d="m813 312c-.5-1.2-.9-2.4-1.4-3.6-.5-.6-.4-1.1.1-1.6.6-.2 1.2-.2 1.8.1 8.1 8 12.5 17.7 13 29 .4-3.9.9-7.7 1.7-11.4.9-4-.9-7.6-1.4-11.4.1-.6.5-1.1 1-1.4 4.4 3.8 5.5 8.4 3.9 14-2 7.1-3.7 14.3-5.5 21.5-3.1-.1-.8-2.7-1.8-3.8.5 2.1-.9 4.5.9 6.5-2.4 11.4-4.9 22.7-7.3 34-.5-.1-.9 0-1.2.4-1.2 4.1-1.7 8.6-6.2 10.7-.5-.4-.8-.9-1-1.5 1.9-10.8 5.7-21 7.6-31.9 1.3-7.4 2.6-14.8 3.6-22 .9-6.4-.2-12.6-3.3-18.3-1.7-3-3.2-6.1-4.5-9.3" style="fill:#513d40"/><path d="m821 287c0 2.1 0 4.1 0 6.2.4.1.7.1 1.1.2.9-2.9 1.9-5.8 2.8-8.7 0-.1.3-.2.5-.2.2 0 .3.2.5.3 3.5.7 4.3 3.4 4.8 6.4-1.1 6.7-2.2 13.5-3.3 20 0 0-.3.1-.3.1-3.6-.3-5.1-3.3-6.9-5.7-2-2.8-3.9-5.5-7.5-6.3-.5-.2-1-.4-1.5-.7-1.1-.8-2-1.8-2.4-3.2-.8-3.1-1.6-6.2-2.4-9.3.8-.5 1.5-1.1 2.3-1.6.4 0 .8 0 1.2 0 .5-.4 1-.5 1.5-.2 2.2 2.2 1.8 6.4 5.6 7.4 1.8-1.1 1.1-3.5 2.4-4.8.5-.4 1.1-.4 1.6-.1" style="fill:#342124"/><path d="m824 420c.1 1.4.3 2.8.4 4.5-1.1-.2-2.9-1.1-3.6-.5-7.6 5.3-11.2-.1-14.9-5.4-.8-3.8.2-7.1 2.7-10 3.3 1.3 6.2-.1 9.3-1 2 4.1 4.1 8.2 6.1 12.4" style="fill:#6d5c5c"/><path d="m823 452c-7.4-1.4-8.8-3-8.4-11.2.1-1.9 1.5-3.7 2.3-5.5 2 1.3 4.1 2.6 6 4 1 .7 1.8 1.8 2.7 2.7 1.7 4 2.1 7.7-2.6 10" style="fill:#725d5c"/><path d="m818 408c-2.5 2.4-4.7 6.1-8.4 1.4-6.5-3.2-1.9-7-.7-10.7 6.3-2.3 5.2-8.2 6.2-13 .3-1.5-.6-3.3.8-4.6.4.9.8 1.7 1.2 2.6.7 6.4 1.6 12.8 2.1 19 .2 1.6-.7 3.4-1.2 5.1" style="fill:#2e1f17"/><path d="m839 414c.4 2.8 1.2 5.7 1 8.5-.2 3-1.2 6-2.2 8.9-.3 1-1.7 1.7-2.6 2.5 1.3-6.7 2.5-13.3 3.8-19.9" style="fill:#4a3183"/><path d="m831 291c-1.6-2.1-3.2-4.2-4.8-6.4 1.6-1.7 3.1-3.4 4.7-5.1 4 3.8.8 7.6.1 11.5" style="fill:#efeac3"/><path d="m825 350c-.8-.2-2.4-.6-2.4-.7.4-3.3 1-6.5 2.2-9.8.4 2.6.7 5.2 1.1 7.7-.3 1-.6 1.9-.9 2.8" style="fill:#6f5b5e"/><path d="m872 92c-3.2-4-2.8-8-.1-12 6.4 4.2 12.9 8.4 19.3 12.7.5.7 1 1.5 1.5 2.2 1 3.8 3.1 7.7-1.7 10.6-7.4-2.9-14.2-6.8-19-13.4" style="fill:#f46227"/><path d="m872 92c6.1 4.2 12.2 8.4 18.4 12.6 2.2 1.4 5.8.9 6.2 4.7-1.7.4-3.4.9-5 1.3-6.1-3.8-12.2-7.5-18.3-11.3-1.2-2.3-2.4-4.5-3.6-6.8.7-.2 1.5-.4 2.3-.5" style="fill:#602c1c"/><path d="m922 80c.4.9.8 1.7 1.2 2.6 2 16.2 1.9 32.5.1 48.7 0 0-.2-.2-.2-.2-.9 0-1.8 0-2.6-.1.2-15 .3-30 .6-45-.1-1.8.6-3.7.9-5.6" style="fill:#039c82"/><path d="m897 109c-2.1-1.6-4.1-3.1-6.2-4.7.8-3.3 1.6-6.5 2.3-9.8 1.8 1.2 3.7 2.2 5.4 3.6 4.4 3.5 3.8 7.4-1.5 10.9" style="fill:#c4451e"/><path d="m881 635c-2.2-2.7-4.3-4.2-4.8-6.1-.2-.9 2.8-3.8 3.9-3.6 1.8.3 4.1 2.2 4.8 3.9.4 1.1-2 3.1-3.9 5.8" style="fill:#655b55"/><path d="m877 680c-.8 11-1.6 22-2.4 33-2.1-11.2-.8-22 2.4-33" style="fill:#e2dae6"/><path d="m865 619c1.7-5.7 3.3-11.4 5-17 0 3.8.3 7.6-.1 11.4-.3 2.7-.8 5.9-4.9 5.7" style="fill:#47150b"/><path d="m857 619c2.4.1 4.7.2 7.1.3-2.7.3-5.5.7-8.2 1-.4-.1-.6-.3-.5-.6.1-.3.1-.4.3-.4.4-.2.8-.2 1.3-.3" style="fill:#47323f"/><path d="m855 620c0 .4.1.7.3 1.1-1.7.1-3.4.1-5.2.2-.7-.5-1.3-.9-2-1.4 2.3 0 4.6.1 6.9.1" style="fill:#cf3f17"/><path d="m975 595c1.6-1.6 3.2-3.2 4.8-4.7 1.7-.9 2.7-.2 3.5 1.3 1.9 4.7 3.5 9.6 5.7 14 2.6 5.3 6.4 10 8.3 15.4 1.3 3.8.8 8.6.1 12.8-3.7 19.8-7.7 39.6-11.3 57.7-1.7-4.1-4.1-10-6.6-16.2-1-1.7-2.1-3.3-3-5-.5-1-1.2-2.4-.8-3.1 2.6-5.2 5.4-10.2 8-15.4.2-.5-.9-2.5-1.5-2.5-4.7-.2-6.4-2.1-2.9-5.8 3.9-4.1-1.4-6.7-1-10.2.2-1.8.1-4.1 1.1-5.2 2.1-2.3 1.8-3-.8-4.3-2.2-1.1-4-3.1-6-4.6-1.2-8.3-1.8-16.5 2.4-24.3" style="fill:#373945"/><path d="m974 758c4.4 1.7 8.9 3.3 13.3 5-2.2 7.3-1.5 14.9-1.4 22.4 3.6 8.5 10.6 13.3 18.6 16.9 1.1 3.2 2.1 6.4 1.3 9.8-3.2 3.9-7.8 5.7-12.2 7.8-6-2.6-8.7-9-14-12-4.6-2.4-9.7-3.9-14.2-6.6-.5-3.7 3.4-5.1 4.1-8.1 2.3-8.3 2.9-16.7 2.9-25.3 0-3.2-.7-6.5 1.7-9.3v-.5" style="fill:#7f8494"/><path d="m975 595c-.8 8.1-1.6 16.3-2.5 24.4-4.2 2.4-8.3 3.8-12.8.6-1-.7-2.7-.3-4.1-.4-.1-.3-.2-.7-.3-1 2.3-1.9 5.1-1 7.5-.9 4.2.3 6.1-.7 6.2-5.6.1-5.8.2-11.8 3.2-17 .9-1.6 1.8-3.1 2.7-4.7.1 1.5.1 3.1.1 4.7" style="fill:#532917"/><path d="m986 786c-2.9-7.7-3-15 1.4-22.4-.5 7.5-1 14.9-1.4 22.4" style="fill:#32355f"/><path d="m988 736c-.4 2.5-.9 5-1.3 7.5 0-4.4-.1-8.9-.1-13.3.1-9.1 0-18.2.2-27.4 0-1.9.7-3.8 1.1-5.7 1.1 12.9.8 25.9.1 38.9" style="fill:#5c6aac"/><path d="m955 621c-2-2.2-6.2 4.1-7.2-1.9 0 0 0-.6 0-.6 2.5-.6 5-1 7.1 1 0 0 .2.3.2.3-.1.4-.2.8-.1 1.2" style="fill:#532917"/><path d="m1005 812c-.4-3.3-.8-6.5-1.3-9.8.3 0 .7 0 1 .1.5 1.6 1.1 3.3 1.6 4.9-.3 1.6-.8 3.2-1.3 4.8" style="fill:#b3c8c9"/><path d="m993 793c1.7.7 3.3 1.5 5 2.2-1.7-.7-3.3-1.4-5-2.2" style="fill:#7f7d8a"/><path d="m823 783c-2 5.7-4 11.3-6 17-.4 0-.8 0-1.2.1 2-5.7 3.9-11.4 5.9-17 .5-.6 1-.6 1.3 0" style="fill:#951e04"/><path d="m813 312c8.2 8.9 11.4 19 8.8 31-3.8 17.3-7.6 34.5-11.5 51.8 0 1.1-.4 2.3-1.4 2.4-1.6.3-1.9-1.2-2-2.4-.4-4.5.5-8.8 1.5-13.2 2.5-11.4 4.6-23 4-34.8-.3-6.4-1.3-12.8-1.9-19-.1-.4-.1-.8-.1-1.2-.3-.4-.4-.7-.3-1 .1-.3.3-.5.4-.5 4.1 1.2 3.4-2.2 3.4-4 .1-2.9-.6-6-.9-9.1" style="fill:#6f5b5c"/><path d="m806 402c-.3-.7-.9-1.5-.9-2.2-.9-15.8-1.6-31.6-2.6-47-.6-8.6.6-16.6 7.2-22.9 3.7 9.9 3.8 20 2.7 30.4-1 9.5-3.4 18.7-5.2 28-.6 3-.6 6.1 0 9.1.3 1.8.6 3.5-1.2 4.9" style="fill:#705b62"/><path d="m806 402c1.8-13.8 4.2-27.5 5.1-41 .6-10.3-.8-20.7-1.4-31 .1-.7.2-1.5.3-2.2 4.8 10.9 4.3 22.4 3 33.7-1.2 10.5-3.7 20.9-5.4 31.4-.1.4-2.1 5.5 2.2 1.9 0 0 .2.1.2.1 1.8 1.7.2 3.4 0 5-1.3 3.2-4.2 6.4-.2 9.8-1.2 3.2-2.4 6.4-3.6 9.6-.4 0-.7 0-1.1-.1-.1-4.4-.2-8.9-.3-13.3-.7-1.3.7-1.8 1.1-2.7.2-.3.2-.5.1-.8" style="fill:#4b3443"/><path d="m799 394c-1.1-10.4-2.5-20.8-3.2-31-.8-12.5-1-25-1.5-37.5.7 4.1 1.8 8.2 2.2 12.3 1.5 18 2.7 36 4.1 54 .1.8-.1 1.6-.2 2.4-.6.3-1.1.1-1.4-.4" style="fill:#974e17"/><path d="m799 394c.4.1.9.3 1.3.4.1.8.2 1.5.3 2.2.1 3.3 1.5 6.5 1.1 9.8-2 2.5-4 5.1-6 7.6-.5-.1-1-.2-1.5-.3 1.8-6.6 1.6-13 .2-19.7 1.6.1 3.1 0 4.6 0" style="fill:#453324"/><path d="m809 296c.8.9 1.6 1.7 2.3 2.6 1.4 2.8-.6 5.5 0 8.3 0 .5 0 1.1-.1 1.6-1.6-1.6-3.2-3.2-4.8-4.8-.4-.8-.9-1.7-1.3-2.5 0-1.4 3.4-1.7 1.2-3.8 1-.5 1.8-.9 2.7-1.4" style="fill:#6f5b5e"/><path d="m802 407c-.4-3.3-.8-6.5-1.2-9.8 2 1.9-.1 7.7 5.7 5.9-.4.9-.7 1.8-1.1 2.7-1.1.4-2.3.8-3.4 1.2" style="fill:#705b62"/><path d="m810 325c0 .5-.1 1-.1 1.5-1-2.9-1.9-5.7-2.9-8.6.5-.1 1-.3 1.6-.4.4 2.5.9 5 1.4 7.5" style="fill:#6b5256"/><path d="m823 783c-.4 0-.8 0-1.3-.1 1.7-1.9 3-4.9 5-5.6 5.4-1.9 11.2-2.8 16.8-4.1 1-.8 2-.8 3 .2-5.5 1.6-11 2.9-16.5 4.8-2.5 1-4.6 3.2-7 4.8" style="fill:#921f07"/><path d="m847 773c-1-.1-2-.1-2.9-.2-5.3-1.6-10.6-3.3-16-4.9 7.5 1.7 14.9 3.5 22.4 5.2-1.2 0-2.4 0-3.5-.1" style="fill:#592928"/><path d="m814 767c.8-.1 1.5-.2 2.3-.2-2.4 1.6-4.9 3.2-7.3 4.8 1-1.1 1.9-2.2 2.9-3.3.7-.5 1.4-.9 2.1-1.3" style="fill:#eae0ba"/><path d="m974 759c-.1 12.3 1.1 24.6-3.7 36.4-2.3 1.7-4.7 2.4-5.8-1-3.6-11.7-4.1-23.6-1.6-35.5 3.8 0 7.5 0 11 .1" style="fill:#ada4ac"/><path d="m963 759c0 7-.3 14 .1 21 .3 4.6 1.4 9.3 2.6 13.8.3.9 3 1.1 4.6 1.7-1.6 1.9-3.3 3.8-4.9 5.7-.4 1.4-1.5 2-2.7 2.5-1.6.4-3.9.6-4.2-.9-.3-1.5.1-1.9-1.4-1-2.1 1.2-4.1 2.7-6.6 1.1-.2-.9-.9-2-.6-2.7 1.8-4 3.8-8 5.8-12 1.6-2.4 4.4-4.7 4.6-7.3.7-7.4.3-14.9.4-22.4.7.1 1.5.2 2.3.4" style="fill:#a59399"/><path d="m800 436c1.1-3.5 2.1-7 3.2-10.5.8 0 1.6 0 2.3.1.7 3.9 1.3 7.8 2 11.8-.2 2.8-.9 5.7-.4 8.3 1.1 5.2-2.8 4.1-5.3 4.9-.4-2-1-4-1.2-6.1-.1-1.1.4-2.3.6-3.5 1.5-2.3-.4-3.5-1.2-5" style="fill:#a88f92"/><path d="m798 459c-.4-.8-.8-1.7-1.3-2.5 3.4-3.4 6.8-6 11-1.2 1.1 1.5 2.1 3 1.1 5 0 0-.1-.1-.1-.1-3.5-.4-7.1-.8-10.8-1.2" style="fill:#ac8f96"/><path d="m827 430c-2.3 2.1-3.8 3.5-5.2 4.9-1.3-1.5-2.7-3-4-4.5 1.4-1.1 2.8-2.7 4.4-3.1 1-.3 2.5 1.3 4.8 2.7" style="fill:#715a61"/><path d="m809 461c-.4-1.7-.7-3.3-1.1-5 .4 0 .8 0 1.2.1 2.4.7 4.7 1.5 7.1 2.2-2.4.9-4.8 1.8-7.2 2.7" style="fill:#736063"/><path d="m811 447c0-3.9 0-7.8 0-11.7.7 0 1.4.1 2.2.1-.2 3.9-.4 7.9-.7 11.8-.4 0-1-.1-1.5-.2" style="fill:#ccb2c2"/><path d="m800 436c4.1 2.7 4.2 3.1 1.4 4.9-.3.1-.7.1-1 .2-.1-1.7-.3-3.4-.4-5.1" style="fill:#705760"/><path d="m806 297c1 .3 2 .7 3 1-1.4.9-2.8 1.9-4.2 2.8.4-1.2.8-2.5 1.2-3.8" style="fill:#b1958c"/><path d="m950 803c4.2-2.4 8.5-1.7 12.7-.3.9-.4 1.7-.5 2.5.3 0 .9-.2 1.6-.9 2.2-10.4 8.6-17.5 19.6-22.6 31.9-5 .1-9.5-.6-11.4-6.3.2-2.2.5-4.4.5-6.6 0-6.4 3.5-10.5 8.4-13.8 3.6-2.5 7.2-5 10.8-7.4" style="fill:#f46026"/><path d="m955 619c-2.4-.3-4.8-.7-7.1-1 0-.5 0-1 0-1.4 2.8 0 5.6 0 8.4.1.8 0 1.6.1 2.4.1 8.6.1 8.1 0 8.8-8.4.4-4.6 2.9-9 4.4-13.6-.7 6.2-1.6 12.3-1.9 18.5-.2 3.7-1.4 4.9-5 4.8-3.3-.1-6.7.5-10 .9" style="fill:#c36b3e"/><path d="m1020 288c.4.5.8.9 1.2 1.4-1.7.3-3.5.7-5.2 1-7.2.9-11.2-1.1-12.4-7.2-2.9-14-5.1-28.4-8.6-42-.2-1 0-2 .4-3 3.4-9.7 7.8-18.6 18.9-21.5.6-.1 1.2-.2 1.8-.2.2 0 .3.2-.8-.6-4.4 4.5-9 9.1-13.6 13.8-3.2 4-3.8 8.3-2.5 13.5 2.9 12.3 5 24.8 7.6 37 1.6 7.6 4.5 9.1 12.2 7 .4.1.7.5 1 1" style="fill:#4e4550"/><path d="m1020 288c-.4-.4-.8-.7-1.2-1.1 1.6-.5 3.2-1 4.7-1.4.4.3.8.7 1.1 1-1.5.5-3 1-4.6 1.5" style="fill:#413840"/><path d="m995 238c2.9 12.9 6.2 25.7 8.5 38.7 1.9 10.8 1.4 10.9 12 13.9-3.5 3.4-6.9 6.9-10.5 10-.7.6-2.2.4-3.4.3-1-.1-2-.6-3-.9-2.6-3.1-3.6-7-5.6-10.4-.4-1.3-1.3-2.7-.2-4.1.3-.1.7-.2 1-.3 2.2-1.1 2.9-2.8 2.8-5.4-.5-8-2.5-15.3-7.2-21.9-2.8-4-6.2-8.1-4.2-13.8.2-9.1 1.1-17.9 9.8-23.4-.3 4.4-.7 8.8-.9 13-.1 1.4.5 2.8.8 4.1" style="fill:#72676a"/><path d="m1017 319c1.2-1.2 2.4-2.5 3.7-3.7-.8 6.6-1.6 13.3-2.4 19.9-.1.5-.8 1.3-.9 1.2-.7-.3-1.7-.7-1.8-1.2-.3-1-.1-2.2-.1-4.3-2.7 8.8-5 16.5-7.3 24-.4 0-.9.1-1.3.1-.6-3.5-1.1-6.9-1.7-10.4-.4 0-.9 0-1.3 0-2.1 14.4-4.3 28.7-6.2 43-.4 2.7 1 5.6.8 8.3-.1 2-1.4 3.9-2.2 5.9-2.3-2.3-1.4-5.2-1.6-8-.2-3 .5-6.1-1.4-8.7-.3-.6-.6-1.3-.8-2-.6-19.7-.3-39-.2-59 .1-.6.2-1.2.5-1.8 2.5-.7 2.5-2.8 2.6-4.9.4-1.1 1-2 2.2-2.3 3.6-.4 5 1.1 4.9 4.9-.3 6-.1 12-.1 19 1.6-2.5 2.6-4 3.7-5.6 1 1.3.8 3 1.1 3.8-1.4-2.1 1-4.7.5-7.4 2-2.4 3.9-4.9 5.9-7.3 1.8-.6 3.1-1.7 3.4-3.8" style="fill:#6c646a"/><path d="m1028 358c-6.3 12.5-9.6 25.9-11 39.8-.2 2.3-.8 4.6-1.2 6.9-1.6 0-3.1 0-4.7 0 1.5-10 3-20.3 4.4-30.4.3-2 .3-4 .5-6.1 3.7-5.5 4.2-12.3 4.8-18.4.9-7.9 3.3-15.6 3.4-23.6.1-.6.3-1.1.5-1.7 1.6-2.2 3.1-4.5 4.8-6.6.4-.4.8-.7 1.2-1 1.6.1 3.1.2 4.7.3 3.6 10 1.1 19-3.3 28-1.8 4-2.7 8.4-4.1 12.5" style="fill:#d05017"/><path d="m1026 324c-1.6 10.5-3.3 20.9-4.7 31.4-.6 4.6.6 9.9-4.9 12.6-.1-1.5-.1-3.1-.2-4.6 1.5-4.6 1.4-9.4 2.4-14v-.6c1.8-6.3 1.9-13 3.9-19.3.8-2.2.2-5.1 3.5-5.5" style="fill:#c44d39"/><path d="m999 404c0 .9.1 1.7.1 2.6-.1.3-.2.5-.3.8-1.5 2.9-.7 6.1-.9 9.2 0 1.8 0 3.7-.9 5.3-3.3 1.5-6.6 2.9-10.3 1.6 1.3-3.9 2.5-7.8 2.3-12-.1-2.9 1.3-5.4 3.9-7.1 1.1-.6 2.2-1.1 3.5-.5.8 0 1.7.1 2.6.1" style="fill:#565171"/><path d="m1026 324c-1.6 5.6-3.2 11.3-4.8 16.9-.8 2.6-1.6 5.2-2.4 7.8 1.5-8.4 2.7-16.9 4.7-25.3.8-3.6 2.7-7.5 7.8-6.8-.2.4-.4.8-.5 1.2-2.3 1.5-3.4 4-4.8 6.2" style="fill:#75354c"/><path d="m997 404c-.8.4-1.6.9-2.3 1.3-3.2-6.9-3-13.8-.2-20.8.8 1.5 2.3 2.9 2.4 4.5.3 4.2.1 8.4.1 12.6 0 .8 0 1.6 0 2.4" style="fill:#4d3db0"/><path d="m1019 349c-.8 4.7-1.6 9.3-2.4 14 .7-4.6 1.5-9.3 2.4-14" style="fill:#75354c"/><path d="m1037 316l-.6.1c0 0-.5-.1-.5-.1-.5-1.9-1-3.8-1.5-5.7.4-.1.7-.2 1.1-.3.5 2 1 4 1.5 6" style="fill:#c2c3b7"/><g style="fill:#726a70"><path d="m1008 330c.3 4.2.6 8.4.9 12.6-.8 0-1.6.1-2.4.1 0-3 0-6.1 0-9.1.5-1.2 1-2.4 1.5-3.6"/><path d="m1017 319c-.6 1.4-1.1 2.8-1.7 4.1-.1.2-1.2-.2-1.8-.3 1.1-1.3 2.3-2.5 3.5-3.8"/></g><path d="m983 592c-1.2-.4-2.4-.9-3.5-1.3-.9-4.5-3.2-9.3 2.3-12.6 1.6 0 3.2 0 4.8.1-.7 4.5-1.4 9-2.2 13.5-.4 0-.9.1-1.4.3" style="fill:#8b9bab"/><path d="m988 736c-.1-13-.1-26-.2-38.9.4 0 .8-.1 1.1-.3.1 3.4.2 6.8.3 10.2 0 9.7-.1 19.4-.1 29 0 0-.6 0-.6 0l-.5-.1" style="fill:#202e6f"/><path d="m991 675c.4 1.1.8 2.2 1.2 3.3-.1 3-.2 6-.3 9.1-.7 0-1.5-.1-2.2-.1.4-4.1.8-8.2 1.3-12.3" style="fill:#332ea0"/><path d="m981 482c-.2 0-.4.1-.6.1-3.4 0-6.7.1-10 .1 1.9-2.1 3.8-4.3 5.7-6.4 2.5.6 5 1.1 8 1.8-1.1 1.6-2.1 3-3 4.4" style="fill:#8b8990"/><path d="m979 475c.9-6.6 4.5-8.4 10.5-6 1.4 2.1-.5 3.3-1.3 4.8 0 0-.1.1-.1.1-2.9.3-6 .7-9.1 1.1" style="fill:#8c8a98"/><path d="m947 129c.3 2.6.7 5.1 1 7.7-.9 1.4-1.7 2.9-2.6 4.3-.8-2.2-1.1-4.5-1.1-6.8.6-1.9.7-4.1 2.7-5.2" style="fill:#3829a0"/><path d="m986 453c0-.8 0-1.6 0-2.4 7.8-8.9 20-9.4 27.9-1.3-.1 1.6-.1 3.3-.2 4.9-4.2-.4-8.4-1.1-12.6-1.3-5-.1-10 .1-15 .1" style="fill:#828798"/><path d="m1003 467c-1.2.1-2.4.2-3.7.3.8-4.5-3.8-2.3-5.1-4.1 6.2-2.4 9-1.1 8.8 3.8" style="fill:#828397"/><path d="m996 455c2 .5 3.9 1 5.9 1.5-.9 1.2-1.8 2.4-2.8 3.6-1.3-1.3-2.6-2.5-3.9-3.8.3-.4.6-.8.8-1.3" style="fill:#8c8ea2"/><path d="m994 458c-1.1.7-2.3 1.9-3.4 1.9-.7 0-1.9-1.9-1.8-3 0-.8 1.5-2 2.5-2.2.9-.2 2.1.6 3.2 1-.2.7-.3 1.5-.5 2.3" style="fill:#8d89a1"/><path d="m1005 461c.5-2.1.9-4.1 1.4-6.2 0 0 1.4.3 2.1.4-.7 2.1-1.3 4.1-2 6.2-.5-.1-1-.2-1.5-.4" style="fill:#c9d5c8"/><path d="m991 464c-1.6-1.1-3.1-2.3-4.7-3.4 2.4.8 4.8 1.7 7.2 2.5-.1.4-.3.7-.5 1.1-.7.7-1.4.7-2-.2" style="fill:#828798"/><path d="m937 95c-6.2-4-6.3-10.3-6-16.6.1-2.6.4-5.2.7-7.9 1.6-2.4 3.2-4.7 4.8-7.1 1.8-.1 3.7-.2 5.6-.3 1.7 1.4 3.4 2.8 4.3 3.6-3 2.2-5.5 4-8 5.8-1.8 6.5-.5 12.6 2.9 18.4.7 1.3 1.4 2.5 2.1 3.8-.2.2-.5.4-.7.6-2 0-3.9.2-5.7-.3" style="fill:#d66125"/><g style="fill:#2f2387"><path d="m924 131c0-16.2 0-32.5-.1-48.7.8-1.7 1.6-3.4 2.4-5.1 0 16 .1 32-.1 48 0 1.8-1.4 3.6-2.2 5.4"/><path d="m928 73c-.8 1.3-1.5 2.6-2.3 3.9.8-1.3 1.5-2.6 2.3-3.9"/></g><path d="m947 129c-.5 1.7-1 3.3-1.5 5-2.6-8.7-1.1-17.5-.9-26.3.4-.9 1-1.1 1.8-.6.3 7.2.4 14.5.6 21.9" style="fill:#2e293a"/><path d="m947 107c-.3-.2-.6-.4-.9-.6-1.9-1.4-1.2-3.4-1.5-5.2 0-.6.1-1.3.2-1.9.1-1 .5-1.8 1.4-2.4.3 3.4.5 6.7.8 10" style="fill:#b06845"/><path d="m946 97c0 .9-.1 1.8-.1 2.7-2.4.7-1.5-1.9-2.5-2.6 0-.4 0-.8 0-1.2-.4-.3-.5-.6-.4-.8.1-.3.2-.4.4-.4.9.1 1.7.3 2.6.4-.1.6-.1 1.3 0 1.9" style="fill:#41435a"/><path d="m987 424c3.4-.3 6.7-.7 10-1 3.6-.2 4.8 3.1 7 4.8 3.3 1.4 6.1-.9 9.1-1.2.3 0 .6 0 .9 0 1.3 7.2 2.5 14.5 3.8 21.7-.5.1-.9.1-1.4.2 0 0 .1 0 .1 0-1.3-.8-3 .4-4-.6-7.2-7.1-14.4-2.9-21.5 0-1.8.7-3.9 2.6-5.3-.7 0-.4 0-.9.1-1.3-.2-1.8-1.1-3.7.2-5.3 4.4-5.2 3.6-10.6.6-16 0-.1.1-.3.3-.6" style="fill:#838294"/><path d="m1003 429c-2-1.9-4-3.8-6.1-5.8 0-2 0-4-.1-6 1.6-3.1-.9-7.2 2.5-9.9 0 0 .2.1.2.1 4.8.5 9.7 1 14.5 1.5 1.5 6.5-1.3 12-3.4 17.9-2.2 1.7-4.2 4.2-7.6 2.2" style="fill:#d05923"/><path d="m1010 426c1.3-5.9 2.6-11.9 3.8-17.8.7.4 2.1 1 2 1.3-1.5 5.5-3.1 11-4.8 16.5-.3.4-.7.4-1 0" style="fill:#e79c59"/><path d="m1010 426c.4 0 .7 0 1.1 0 .6.1 1.1.2 1.7.2-3 2.2-5.9 5.4-10 2.1 2.4-.7 4.9-1.5 7.3-2.3" style="fill:#67341e"/><g style="fill:#61615e"><path d="m988 474c.4-1.6.8-3.2 1.3-4.8.4.3.8.6 1.2.9-.8 1.3-1.7 2.6-2.5 3.9"/><path d="m993 470c.1-.7.3-1.4.4-2.1 1.2-.1 2.3-.1 4.4-.2-1.5 1.2-2.3 1.8-3.2 2.4-.5-.1-1.1-.1-1.6-.1"/></g><path d="m938 74c2.6-3.9 5.5-5.6 9.4-1.5 2.8 6.9 1.2 12.5-5 16.7-6.2-2.4-7.7-7.5-4.4-15.2" style="fill:#858698"/><path d="m938 74c0 5.5-2.4 11.6 4.4 15 .9.1 1.8.3 2.8.4-1.6.3-3.2.6-4.7.9-6-4.9-7-11.2-2.9-18.4.2.8.3 1.4.4 2" style="fill:#754d20"/><path d="m991 464c.7 0 1.3.1 1.9.1-.3 1.2-.7 2.4-1 3.6-.3-1.2-.6-2.4-.9-3.7" style="fill:#61615e"/><path d="m980 808c4.4 4 8.7 8 13 12 1.3.3 2.6-.8 3.8.2 0 .6-.1 1.3-.1 1.9-2.2-.7-4.8-.8-6.4-2.2-3.8-3.3-7.1-7.1-10.6-10.7-.3-.3-.4-.6-.3-.9.3-.2.4-.4.5-.4" style="fill:#733e26"/><path d="m997 820c-1.3-.1-2.6-.1-3.8-.2 4.2-2.4 8.4-4.9 12.6-7.3-3 2.4-5.9 5-8.8 7.5" style="fill:#b3c8c9"/><path d="m986 447c2.2-.2 4.4-.3 6.6-.8 4.5-.9 9-3 13.3-2.7 3.7.2 7.3 3.1 10.9 4.7-.8.4-1.6.8-2.4 1.2-.2 0-.5 0-.6-.1-9.6-8.6-18.4-2.2-27.3 1.4-.2-1.2-.4-2.4-.5-3.7" style="fill:#525664"/><path d="m942 837c3.8-7.6 7-15.6 11.5-22.7 2.8-4.4 7.7-7.5 11.7-11.2 4.5-1.2 8 1.5 11.3 3.6 3 1.9-.3 2.5-1.5 3.5-4.4 1.5-6.6 4.1-7 9.3-.4 6.5-.2 13.2-1.8 19.6-8-.6-16-1.4-24-2.1" style="fill:#c43c18"/><path d="m966 839c.5-7.2 1-14.3 1.3-21.5.2-4.9 2.4-7.4 7.4-7.4-4.8 2.8-6.8 6.8-6.2 12.5.3 2.9-1 6-.8 8.9.1 2.2 1.3 4.4 2 6.7-1.2.2-2.4.5-3.7.8" style="fill:#942003"/><path d="m975 810c-.1-1.3.3-3.4-.3-3.6-3.1-1.4-6.4-2.4-9.6-3.5-.7-.2-1.4-.3-2.2-.5.7-.5 1.5-.9 2.2-1.4 4.9 2.2 9.8 4.4 14.6 6.7 0 .4-.1.9-.1 1.3-1.5.4-3 .7-4.6 1" style="fill:#6e3328"/><path d="m958 257c2.5-.3 5.1-.5 7.5-1 .3-.1.3-1.8.5-2.7 1.2-.9 2.4-1.8 3.5-2.7 2.5-.6 6.7-4.5 5.3 2.7-3.3 3.5-4.9 7.6-4.1 12.5.3.7.7 1.4.3 2.2v.2c-.8.5-1.5 1.1-2.4 1.4-9.3 5-17.8 11.3-27 16.5-3.1 1.8-6.2 5.9-10 1.7-2.7-2.9-1.6-13 1.3-15.7 4.3-3.8 9.8-5.8 14-9.5 3.6-2.3 7.2-4.3 11-5.6" style="fill:#d2511c"/><path d="m986 245c3 6.7 6.4 13.2 8.9 20 2.1 5.8 3.3 11.9 4.5 18 .8 4-1.6 4.4-4.7 3.1.1-3.4.4-6.8.4-10.2 0-1-.6-1.9-1-2.9-.1-.1-.5-.2-.5-.2.9-9.1-9-14.3-8.5-23.3 0-1.6.6-3 .9-4.5" style="fill:#322929"/><path d="m971 268c-.6-.5-1.2-1.1-1.8-1.6.7-4.6 1.3-9.2 4.1-13 1.3-3.3 1.3-3.3-3.8-2.7 3-1.5 5.9-3 8.9-4.5-2.5 7.3-4.9 14.6-7.4 21.9" style="fill:#9e5c26"/><path d="m948 263c-4.6 3.2-9.2 6.4-13.8 9.6-2.4 1.7-3.4 13.2-1 14.5 1.2.7 3.8-.2 5.2-1.1 8.9-5.5 17.7-11.3 26.5-16.9 1.1-.7 2.5-1 3.8-1.5.9 5.3-2.9 9.7-2.7 14.9-.4 1.2-1.1 2.1-2 2.9-6.8 4-13.3 8.7-20.5 12-5 2.3-7 5.7-6.4 11 .2 2 .7 4.2-1 6 3.7-2.5 7.5-4.8 11.6-6.5 1.6-.4 3.2-.5 4.6-1.7.5-.3 1.1-.4 1.6-.5 1 .1 1.7.5 2.1 1.4.8 2.1.8 4.3.2 6.5-.2.6-.6 1.1-1.2 1.5-5.7 2.5-11.6 4.8-17 7.8-1.4.7-1.9 3.6-2.2 5.6-.4 2.6-.1 5.2-.1 9.1-4.3-3.3-8.2-6.2-12-9.1-.5-.7-1-1.5-1.5-2.2-2.1-.9-3.6-2.4-3.7-4.9-3.4-8.7-5.7-17.5-4.8-27 1.4-16 15.9-33 31.6-36.6 1.8-.6 4-1.4 5.2.6 1.5 2.3-1.6 2.9-2.3 4.6" style="fill:#372c30"/><path d="m966 352c1.5 7 3.1 13.9 4.6 20.9-1.5 4.8 1.8 9 1.8 13.6 0 .8.2 1.1-.1.4.4-.1.8-.3 1-.6 1.5 8.7 3 17.5 4.5 26 .9 5.1 1.7 10.3 2.5 15.4-3 1.4-4.3-.7-4.8-2.8-1.8-8.3-4.8-16.5-3.8-25-.4-1.7-.7-3.3-1.1-5-.8-.8-.8-1.6-.2-2.4-2.8-13.8-5.6-27.6-8.3-41.5.4-.1.8-.2 1.2-.1 1.5-.8 1.6 1.2 2.7 1.1" style="fill:#5b5458"/><path d="m966 352c-.8-.4-1.7-.8-2.5-1.2-.1-.3-.2-.7-.2-1-1.2-2-1.6-4.5-3.5-6.1-6.3-.8-12.7-1.6-19-2.3-.2-.6-.3-1.3-.5-1.9 4.9-3.5 9.7-7.1 14.6-10.6 1-1.1 1.3-2.9 3.2-2.9.6.1 1.1.5 1.5 1 2.7 3.7.9 7.9 1.4 11.9 1.6 4.3 3.3 8.7 5 13" style="fill:#483939"/><path d="m958 326c-.9.8-1.8 1.6-2.7 2.4 0-4.5-.1-8.9-.1-13.4.2-.4.3-.7.5-1.1 1.1-.8 2-.7 2.8.4.6 3.9 1.1 7.9-.5 11.7" style="fill:#f7af41"/><path d="m960 344c1.2 2 2.3 4 3.5 6.1-1.2-2.1-2.3-4.1-3.5-6.1" style="fill:#edad7a"/><path d="m948 263c1-2.8 3-6.1-2.8-5.3 4.3-.4 8.6-.8 12.9-1.2-3.3 2.2-6.7 4.4-10 6.5" style="fill:#362729"/><path d="m919 321c1.2 1.6 2.5 3.3 3.7 4.9-3.4.4-4.3-.9-3.7-4.9" style="fill:#d46129"/><path d="m811 285c-.4 0-.8 0-1.2-.1 6.6-5 4.4-12.8 5.9-19.4 1.9-8.4 2.6-17 3.8-25.5.1-.9.8-1.7 1.2-2.6.1.4.1.7.2 1.1-.4 4-1.2 8-1.2 11.9 0 4.6 1 9.3 1.1 13.9.2 7.7 0 15.4-.1 23-.4 0-.8 0-1.1.1-2.7-3.4-.1-7-.6-10.5-.3-2.4.1-4.8-.3-7.4-.9 4-.9 8-2 11.8-.7 2.5-1.6 5.7-5.7 3.5" style="fill:#4d3a3a"/><g style="fill:#8d373f"><path d="m872 773c.9-4.1 1.7-8.2 2.7-12.3 0-.2 1.4 0 2.1 0 .1 4.8 0 9.4-4.8 12.3"/><path d="m867 778c1.7-1.5 3.4-3.1 5.1-4.6-1.7 1.5-3.4 3.1-5.1 4.6"/></g><path d="m868 771c-1.2 1-3.2 3.7-5.7 4.4-3.2.9-7.8-4.2-7.7-7.9.2-4.2 3-5.2 6.7-5.3 4.4.1 6.7 2.2 6.7 8.8" style="fill:#311e1e"/><path d="m872 751c-5.8 0-9.6-3.4-9.6-8.6 0-4.9 4.4-8.7 9.8-8.5 4.8.2 8.2 4 8.4 9.3.1 5-3 7.8-8.6 7.8" style="fill:#685553"/><path d="m981 429c1.8-1.6 3.7-3.3 5.5-4.9 5 5.9 5 11.8-.1 17.7-.9 1-.9 2.8-1.3 4.3-.7-.7-1.4-1.5-2.1-2.2-.2-1-.1-2.7-.6-2.8-4.9-1.7-5.2-4.4-2.3-8.3.2-.2-1.4-1.8-2.2-2.8.5-2 1.8-1.6 3.1-1" style="fill:#504c61"/><g style="fill:#372a2f"><path d="m981 429c-1 .4-2 .7-3 1.1-6.8 1.1-3.6 7.7-6.1 11.2-5.6-.7-6-1.6-3.1-6.1 1.5-2.3 2.8-4.8 4.5-7.9-1.9.6-3 .9-4.2 1.3 6.6-5.7 2.2-10-1.2-14.8-.4-.5 1.1-2.3 1.5-3.6.9-3.5 1.6-6.9 2.5-10.4 1.7 8.3 3.2 16.5 5.1 24.7.3 1.3 2.2 2.2 3.4 3.3.2.4.4.8.6 1.2"/><path d="m965 392c.9 1.9 1.7 3.8 2.6 5.7-1 .4-2 .7-3 1.1-.6-2-1.2-4-1.8-6 .7-.3 1.5-.6 2.2-.8"/><path d="m966 389c0-1.9 0-3.9 0-5.8.4 0 .9-.1 1.3-.1.2 1.9.3 3.9.5 5.8-.5.1-1.1.1-1.8.1"/><path d="m971 392c.1.8.1 1.6.2 2.4-.7-.3-1.4-.5-2.1-.8.6-.5 1.2-1 1.9-1.6"/></g><path d="m946 100c0 1.9 0 3.7.1 5.6 0 9.2-.1 18.3-.1 27.5 0 2.4-.1 4.7-.1 7.1-.8-3.3-1.5-6.7-2.3-10 1.1-8.5.1-17 .6-25.5 0-1.6-1.9-4.4 1.8-4.7" style="fill:#41435a"/><path d="m946 100c-.4 3.9-1 7.8-1.3 11.7-.5 6.2-.8 12.3-1.1 18.5 0-11.3-.1-22.6-.1-34 .8.9 1.7 1.7 2.5 2.6 0 .4 0 .8 0 1.2" style="fill:#5b5b99"/><path d="m928 141c-.9-1.4-2.2-2.5-2-3 .4-1 1.7-1.6 2.6-2.4.6.9 1.7 1.7 1.7 2.6 0 .8-1.2 1.5-2.3 2.8" style="fill:#281f29"/><path d="m943 94c0 .4 0 .9 0 1.3-2.1-.3-4.2-.6-6.3-1 2.1 0 4.2-.2 6.3-.3" style="fill:#b06845"/><path d="m812 298c2.7 1.7 5.7 3.1 8 5.2 2.6 2.3 4.5 5.3 6.7 8.1 3.9 7.3 2.2 14.8.4 22.3-.2.9-1.2 1.7-1.9 2.5-.7-.7-1.9-1.4-1.9-2 1.4-11.3-5.9-19-11.3-27.6-1.7-2.8.2-5.6 0-8.5" style="fill:#6f5b5e"/><path d="m810 400c0-1.7 0-3.4 0-5 2.1-4.5 4.1-9 6.2-13.5 0 2.2-.1 4.4-.1 6.6-.1 4.9 1.4 10.7-6.1 11.9" style="fill:#6d5d54"/><path d="m812 298c0 2.8 0 5.6.1 8.5-.4-.1-.8-.2-1.2-.3-3.7-2.8-.7-5.5 0-8.3.3 0 .7.1 1.1.1" style="fill:#a38993"/><path d="m811 285c4.6.2 4.4-3.5 4.8-6.2.8-4.5 1.2-9.1 2.5-13.8 4.3 7.2 2 14.9 1.4 22.5-.8 2.2-1.8 6.2-2.5 6.2-5.1-.3-5.7-4.6-6.2-8.7" style="fill:#6b5a5c"/><path d="m996 630c-2.7 1.6-4.4 3.4-5.7 3.2-1.5-.3-2.7-2.4-4-3.8 1.4-1.1 2.7-3.2 4.1-3.2 1.6 0 3 1.9 5.6 3.8" style="fill:#8e98a9"/><path d="m998 801c1.7 2.3 5.2 4.9 4.8 6.7-.5 2.6-3.6 6.1-6.1 6.6-3.8.8-7.1-2-7.3-6.3-.2-4.6 2.6-6.6 7.5-5.7.4-.3.7-.8 1.1-1.3" style="fill:#4b4044"/><g style="fill:#5948a9"><path d="m994 385c-.4-9.2-.8-18.5-1.2-27.7-.1-3-.1-6.1-.2-9.1 0-2.4 0-4.9 0-7.3-.6-5.3-.7-10.6.1-15.8.4-1.3.9-2.5 1.3-3.8-.1 21-.1 42.5 0 63.7"/><path d="m994 321c.8-1.4 1.7-2.8 2.5-4.2 0 1.2.3 2.5-.1 3.6 0 .4-1.5.4-2.4.6"/></g><path d="m1026 324c1.5-2 3.1-4.1 4.6-6.1-1.5 2.1-3.1 4.1-4.6 6.1" style="fill:#c44d39"/><path d="m999 407c-.8 3.3-1.7 6.6-2.5 9.9 1-3.3-2.7-7.7 2.5-9.9" style="fill:#611229"/><path d="m993 325c0 5.3 0 10.6-.1 15.8.1-5.2.1-10.5.1-15.8" style="fill:#e1d9e3"/><path d="m961 339c-.8-4.1-1.5-8.2-2.3-12.4-1.5-5.7-.7-11.5-1.4-17.3-.4-3 1-6.4 4.8-7.5-.7 5.4-2 10.8-2.1 16.3 0 4.4 1.7 8.9 2.1 13.4.3 2.4-.7 5-1.1 7.5" style="fill:#e2e5a1"/><path d="m962 301c-4.3 5.5-3.3 11.9-3.2 18 0 2.2-.1 4.5-.2 6.7-.4 0-.7 0-1.1 0-.1-4.1-.2-8.1-.4-12.2-2-2-.2-5.2-2.1-7.2-.9-.1-1.8-.1-2.7-.2 0-3.4 3.6-3.1 5.2-4.9 3.6-4.7 3.4-11 6.7-15.8 1-.5 1.7-.2 1.9.9-1.3 4.9-2.7 9.8-4.1 14.6" style="fill:#5f3d14"/><path d="m967 287c-.4-.4-.7-.7-1.1-1.1-2.2-.9.8-2.4-.4-3.4 1.2-4.9 2.5-9.9 3.7-14.8.8.1 1.6.1 2.4.2-1.5 6.4-3.1 12.7-4.6 19" style="fill:#584e48"/><path d="m974 386c-.2.8-.4 1.5-.5 2.3-.5.1-.9.1-1.4.2-.3-5.3-.5-10.5-.8-15.8.8 4.4 1.8 8.8 2.7 13.3" style="fill:#3b3530"/><path d="m974 253c-1.4 4.4-2.7 8.7-4.1 13-.4-4.9-.3-9.7 4.1-13" style="fill:#e59050"/><path d="m959 303c-2 1.2-3.9 2.3-5.9 3.5-1 1.2-2.5 1.6-3.8 2.3-4.2 2.2-8.4 4.5-13.3 7.1 0-4.9-.1-9.2.1-13.6.1-1.2 1-2.8 2-3.3 8.5-5 17-9.7 25.7-14.6 1.6 4.2-1.6 7.5-2.4 11.2-.6 2.5-2.2 4.7-2.4 7.4" style="fill:#db5b26"/><path d="m959 303c.1-1.6-.2-3.4.3-4.9 1.4-4.6 3-9.2 4.5-13.7.5-.7 1.1-1.4 1.6-2.2.1 1.1.3 2.3.4 3.4-2.3 5.8-4.5 11.6-6.8 17.4" style="fill:#e4a64e"/><path d="m955 307c.7 2.4 1.4 4.8 2.1 7.2-.7 0-1.3 0-2 .1.1-2.4 0-4.8-.1-7.3" style="fill:#615f51"/><path d="m949 309c1.3-.8 2.5-1.6 3.8-2.3-1.3.7-2.5 1.5-3.8 2.3" style="fill:#5f3d14"/><path d="m989 432c-.6 2-.6 3.8-1.5 4.5-1.3 1-3.3 1.3-5 1.9.1-1.2.2-2.5.3-3.7.1-.8.3-1.6.6-2.2.9-1.4 1.9-2.8 2.9-4.1 1 1.1 1.9 2.4 2.7 3.6" style="fill:#827f95"/></g></g></svg>