<svg xmlns="http://www.w3.org/2000/svg" viewBox="0 0 1266.1 848" style="enable-background:new 0 0 1266.1 848"><g><path d="m807 433c-1.4-1-2.9-2-4.7-1.3-3.1-.8-6.3-1.6-9.4-2.4-8.8-2.6-17.5-5.2-26.3-7.8-2.7-.9-5.4-1.8-8-2.7-1.3-1.1-2.6-2.2-3.9-3.3.9-13.4 1.8-26.8 2.7-40 1.6-12 3.3-24 4.5-36 .3-2.6-1.5-5.4-2.3-8.2-3.1-1.2-6.2-2.5-9.3-3.7-.5-2.3-1-4.6-1.4-6.9s0 0 0 0c0-2 .3-3.9.1-5.9-1.7-12.6-3.4-25-5.3-37.8-1.2-8.1-2.8-16-4.2-24-.4-2.3-.7-4.7-1.1-7-.4-3.3-.8-6.5-1.3-9.8-.2-2.9-.5-5.8-1.1-8.7 0-1 0-2 0-2.9-.8-2.4-1.5-4.8-2.3-7.1h-.3c-1.5-1.1-2.2-2.7-2.9-4.3 1 1.4 1.9 2.8 2.9 4.3-.2-2.6-1.2-5.4-.5-7.7 2.7-8.7 4.5-17-2.8-24.4-.2-.2 0-.8 0-1.1.3-.9.6-1.7.9-2.6-.4-3.3 0-6.4.9-9.4-.3 3.1-.6 6.2-.9 9.4.9-4.7 1.8-9.3 2.6-14 .3-1.7.6-3.4.9-5.2 0 0 0 0 0 0 0-.7.1-1.4.1-2.1.1-1.6.2-3.3.4-4.9.2-2.7.2-5.2-3.7-4.8-.4-1.1-.8-2.3-1.2-3.4-.8.5-1.6 1-2.3 1.5 1-1.2 2.2-2.4 3-3.7.4-.6.1-1.6.2-2.4.5-2.4 1-4.8 1.5-7.1 2-10.7 3.9-21.4 5.9-32 .1-5.7-1.1-10.9-5-15.3-1-1.3-2.1-2.6-3.1-4-1.4-1.9-2.4-5-4.1-5.5-4.8-1.5-9.9-1.9-14.9-2.8-2.8-1.1-5.7-2.2-8.5-3.2-.7-.1-1.4-.2-2-.3-4.3-3.9-6.5-.6-8.7 2.6-.8 0-1.6.1-2.4.1-1.8 2.7-3.8 5.3-6.2 7.4 2.1-2.5 4.2-4.9 6.2-7.4-3.6 3.5-7.2 7-10.8 10.5-.4.4-.8.9-1.2 1.3 0 2.7 0 5.4 0 8.2-1.5 1.8.6 4.5-1.5 6.1-.3.4-.5.9-.8 1.3.8 1.7.7 3.3.1 4.8-.1-.1-.1-.1-.2-.2 0-1.5.1-3.1.1-4.6-.2 1.5-.3 2.9-.5 4.4-.5 1.2-1.1 2.4-1.6 3.7-.2-.1-.4-.1-.6-.2.4-3.8.9-7.6 1.3-11.9-2.2 7-4.2 13.2-6.2 19.4-3.9-1.9-7.9-3.7-11.8-5.6-1.8-1-3.5-2-5.3-3-.5-2-1.1-3.9-1.6-5.9 0 0 0 0 0 0-.5-1.5-1-3.1-1.6-4.6-2.2-12.6-4.4-25.3-6.6-37.9-.9-2.8-1.8-5.6-2.8-8.4-4.7-5.9-12.6-6.5-16.8-1.3-3.9 0-7.8.1-11.7.1 2 .2 4 .4 5.9.6-2 .1-4 .1-5.9-.6-4.1-4.4-9.1-2.9-13.9-2.1 0 .7 0 1.4 0 2-3.3 5.7-6.5 11.4-9.8 17-.2.5-.4 1.1-.6 1.7-.6 1.6-1.2 3.2-1.2 4.8 0 10.7.2 21.3.6 32 .2 3.7-.8 6.4-3.8 8.4 0 0 0 0 0 0s0 0 .1 0c1.7-.7 3.4-1.4 5-2.1-1.7.8-3.2 1.7-5 2.2-2.7 3.1-6.7 4.4-9.6 7.2-.3.4-.6.9-.9 1.3-5.1 7.6-10.2 15-15.3 22.7-.1 9.4-.2 18.8-.3 28 .4 9.5-2.8 17-9.7 23.9-4.5 4.5-7 11-10.2 16.9-1.2 2.1-1.7 4.6-2.6 6.9-.4.7-.8 1.3-1.1 2-4.2 9.1-1.8 18.5-1.1 27.8 1.9 1.6 3.8 3.2 5.7 4.8.8 1.2 1.7 2.4 2.5 3.6.7 10.2 1.5 20.5 2.2 30.7 0 1.7 0 3.3-.1 5-.3 5.1-.5 10.2-.8 15.4-.5.7-1.1 1.4-1.6 2.1 0 .1 0 .2.1.2-.6.8-1.3 1.6-1.9 2.4-.4 1.6-.8 3.2-1.2 4.8-.2 1.9-.3 3.9-.5 5.8-3.6-.5-5.8 0-6.1 4.7-.3 5.5-1.9 10.8-2.7 16.3-2.6 16.7-5.1 33.4-7.6 50-.3 1.7-.8 3.4-.9 5.1-.3 6 4.1 13.6-5.4 16.6-4.4 10.6-10.9 20.7-6.5 33 2.2 6.2 5.7 9.1 12.9 9.7 3.3 4.1 6.6 8.3 10 12.2 1 1.1 3.3 2.4 4.3 2 4.3-1.9 6.7-7.5 12.6-6.7.1 0 .4-1.8.6-2.7 5.9-5.1 5.1-6.6-6.2-12 2.1-.2 4.2-.1 6.2.2 5.6.6 7.3-1.1 5.7-6.3-.4-1.4-2.6-3-4.1-3.1-6.1-.4-8.4-3.9-7.8-9.3.6-5.3 2.1-10.5 3.2-15.8 1.6-1.9 3.3-3.9 4.9-5.8 1.3-10.3 2.6-20.6 3.9-30.9 1.1-.7 3.3-1.4 3.3-2.1-.1-5.3 5.4-10.5.3-15.9 1.6-10.2 3.2-20.3 4.7-30.5 1.2-3.1 2.3-6.1 3.2-8.4.3 1.5.8 4.3 1.2 7 0 2.9 0 5.8.1 8.7.2 4.1.4 8.3.7 12.4-1 2.2-1.9 4.4-2.9 6.6s0 0 0 0c-1.2 4-.7 8-.1 11.9 0 3.3-.1 6.6-.1 9.9-.2 8.3-.7 16.6-.5 24.9 0 1.3 2.9 3.5 4.7 3.7 6.4.9 7.8 2.5 6.4 9-.4 1.7-.8 3.4-1.2 5.1-10.7.3-10.7.3-9.1 10.9.4 1.2.8 2.5 1.1 3.7-1.9-.4-4.8-3.9-4.9 1.5-.4.3-.8.6-1.2.9-.8 2.9-1.8 5.8-2.3 8.8-.9 5.7-1.5 11.5-2.2 17.2 0 10.3.1 20.5.1 30.8 2 15.9 3.9 31.9 6 47.8.1.8 1.8 1.5 2.7 2.2 2.5 2.7 4.9 5.5 7.4 8.2 1.6 8.7 3.3 17.5 4.9 26 1.8 1.7 3.5 3.3 5.3 5 .3.3.5.7.8 1 0 0 0 0 .1 0-.4 1.5-.8 3.1-1.3 4.6-4.3-1.5-7.1-1.3-5.3 4.6.6 2 0 4.5.7 6.5 2 5.8-1.4 13 4.3 17.8 1.2 3.1 3.1 6 3.6 9.2 2.2 12.4 4.1 24.9 5.7 37 1.6 12.6 9 24 7.7 37 .6 4.2 1.2 8.5 1.8 12.7 2 14.9 3.6 29.8-5.4 43-3 4.5-6.2 9-9.1 13.7-.9 1.4-1.4 3.2-1.6 4.9-.1.7-40 32.4-38 43 7.2 2.8 14.4 3.2 21.5-.2.7-1.1 1.3-2.1 2-3.2h.3c0 0 .3 0 .3 0 1.2 1.5 2.4 3 3.6 4.4.4-1.2.8-2.4 1.2-3.6 1.2 2.4 2.3 4.7 3.5 7.1 1.7 3.9 4.8 4.7 9 5 6 .5 10-1.9 13.7-6.1 1.3-1.3 2.7-2.5 3.8-4 1-1.3 1.6-2.9 2.4-4.3 3.3-2.4 4.2-5.6 4.4-9.6.1-3.8.3-7.9 1.9-11.2 1.3-2.7 4.3-5.5 7.1-6.3 10.8-3 11-2.8 9.1-11.9-.4-1.7-2.6-3-3.9-4.6-.9-1.1-2.1-2.2-2.6-3.5-1.3-3.3-2.2-6.7-3.3-10 .4-1.2.9-2.4 1.3-3.6 4.6-1.5 5.9-4.6 5.9-9.4.2-19 .8-38 1.2-57 .9-1.9 1.2-4.1 2.4-5.9v.1c1.5-2.2.8-5.6 3.6-7.2.3-.9.7-1.7 1-2.6-.6-.9-.6-1.8-.5-2.8.2.9.3 1.9.5 2.8.1-1.1.3-2.3.4-3.4-.4-.7-.8-1.3-1.2-2-.1-.1-.1-.2-.2-.3-1.2-6-2.4-11.9-3.5-17.9 1.9-4.7 5.8-9.7 5.3-14.2-1.4-11-4.5-21.9-7-32.8.2-.7.3-1.4.3-2.1-1-5.9-.1-12-2.5-17.7-.2-.2-.3-.3-.5-.5.3-1.3.6-2.7.9-4 .7-1.6 1.1-3.5 1.2-5.3.4-1.8.7-3.6 1-5.4.1-.6-2.1-1.5-3.3-2.3-1.1-1.2-2.3-2.4-3.4-3.6 1.1-1.8 2.1-3.6 3.2-5.4.1-.1.2-.3.3-.5.9-1.8 2.4-3.2 3.6-4.8 4.8-4.4-.2-6-2.4-8.5 0 0 0 0 0 0-1.6-1.9-2.5-4.1-3.6-6.3-1.2-1.1-2.3-2.1-3.5-3.2-1.1-1.7-.9-3.3-.4-4.9 0 1.6.3 3.3.4 4.9.3-6.1 4.1-12.9-3.1-17.8-.3-.2.1-1.5 0-2.3-.5-5.3 2.2-8.5 6.9-10.4.2-5.6.9-11 .6-16.7-.6-9.7-.9-9.8 8.2-11.5 1.9-.4 5.4-.4 5.7.5 1.3 3.1 3 7.2 1.8 9.7-1.4 3.1-1 4.6 1.2 6.3 3.4 2.6 6.1 5.3 3.5 10-.5.9.1 2.3.2 3.5.8 4.7 1.6 9.4 2.4 14 1.6 5.4 1.5 10.6-1.7 15.5-.3.4-.2 1 0 1.7 0 .6.1 1.3.5 2.1.5.8 1.1 1.5 1.6 2.3 2.1 2.6 2.3 5.2.9 8.5-1.4 3.3-1.9 7-2.7 10.5-1.1 1.6.2 2.9.7 4.2.1.4.1.7.2 1.1-.1.4-.1.7.2 1.1 1.1 3.7 2.3 7.4 3.4 11-3.5 3.8-5.2 13-3.4 18-1.1 5-2.6 9.9-3.1 14.9-1 11.2-7.1 22-1.7 33.6.4.9 0 2.3-.1 3.5-1.2 8.8-2.4 17.6-3.6 26.4.2 1.7.1 3.6.7 5.2 4.2 11.4 6.5 23 5.7 35-.2 5.4-.4 10.9-.6 16.3-2 6.7.1 13.4 4.9 15.9-.2 3.9-.5 7.7-.6 11.6-.3 6.8-.4 13.6-.6 20.4-1.3.2-2.6.4-3.9.6 0 .4 0 .9 0 1.3 4.2.9 8.3 1.8 12.5 2.8 1.7-.6 3.4-1.8 5.1-1.8 2.3 0 4.6.9 7 1.3-.1-2.4-.2-4.7-.3-7.1-.1-.7-.2-1.4-.3-2.1 2.4.8 4.9 1.7 7.3 2.5.5.5.9 1 1.4 1.5-.9.7-1.8 1.3-2.7 2 3.3.8 6.5 2 9.9 2.4 1.9.2 4.1-1.3 6-1.1 5.2.5 6.7-1.7 5.8-6.4.1-1.5.1-2.9.2-4.4-.2-4.3-1.8-7-6.8-6.5-.7.1-1.9-.6-2.3-1.2-2.3-4.4-4.4-8.9-6.6-13.4.8-1.8 1.6-3.6 2.4-5.3 1.2-5.1-1.1-8.9-4.6-12.2-.7-1-1.4-2-2.1-3-4.8-4.9-7.1-10.7-6.3-17.7.3-2.7.1-5.5.2-8.3 1.4-9.7 2.8-19.3 4.3-29 2.6-17.7 5.1-35 7.7-53 1.1-2.3 2.2-4.5 3.4-6.8 1.2-2.2 2.4-4.4 3.6-6.6.8-1 1.5-2.1 2.3-3.1.7-2 2.3-4.2 2.1-6.1-.5-5.7-1.8-11.2-2.6-16.9-.2-1.6.2-3.3.6-4.9 1.1-3.8 2.5-7.6 3.6-11.4.7-2.3 1-4.8 1.4-7.1 1 .7 2.1 1.4 3.1 2.1 3.3 2.2 6.6 4.5 10.2 6.2 1.3.8 2.7 1.5 4 2.3 2.5 1.4 4.9 2.9 7.4 4.3 2.3.6 4.5 1.2 6.8 1.8 18 6 36.9 6.9 55.7 8.2 5 .4 7.9-1.1 8.9-6-.7-2.9.8-3.2 3.4-3.6 2.6-.4 5-2.1 7.5-3.3.8-5.5 1.7-11 2.5-16.5 1-1.8 2.5-3.5 2.8-5.4.8-6.7 1.4-13.5 1.7-20.3.1-1.8-.8-3.7-1.3-5.6h-.1c0 0 0 0 0 0s0 0 0-.1c0 0 0 0 .1.1.6-.5 1.5-1 1.6-1.5 1.1-11 2.2-22 2.9-33 .1-1.1-2.2-2.3-3.4-3.5-.7 0-1.3 0-2-.1.9-.6 1.8-1.2 2.6-1.8 1.4-1.2 3.7-2.3 3.9-3.8.8-5.5.9-11.2 1.2-16.7.1-7.7-.1-15.4.3-23-.2-4.8-1.9-7.7-6.6-9m-85-80c-1.1 2.2-1.5 4.4-1 6.8-.4 2.4-.7 4.9-1.1 7.3-.1.6-.2 1.3-.3 1.9-.6 3.8-1.3 7.6-1.9 11.5-4.4-6.2-12-10.2-14.5-17.7.5-1 .4-2.4.6-3.5.1-.6 0-1.2 0-1.8-.5-3.7-2.6-7.1-2.2-11-.1-4.7 0-9.5-.1-14.2 0-.9-.1-1.8-.3-2.7 1.1-7.2 2.2-14.4 3.4-21.6 0-.1 0-.2 0-.4.3-.1.5-.2.8-.3 1.2-.8 1.4-2.1 1.3-3.4 0-.1-.1-.3-.1-.4 2.4-2.6 1.3-6.5 2.5-9.6-.3 1.3-.1 2.6.4 3.8 2.3 7.2 4 14.6 6.7 21.8.6 1.6 1.2 3.3 3 4.2.3 0 .6 0 .9 0 0 0 0 0 .1 0-1.8 3.4-1.8 6.8.1 10.2-.4.3-.8.6-1 1.3-1.3 5.6 1.5 10.5 3 15.6.1.1.2.1.3.1-.4.7-.5 1.4-.6 2.1m36 65c1.4.9 2.9 1.7 4.3 2.6-1.5-.6-3.1-1.2-4.3-2.6" style="fill:#e5e5e5"/><g><path d="m507 221c.8-2.3 1.4-4.8 2.6-6.9 3.2-5.8 5.7-12.3 10.2-16.9 6.9-6.9 10-14.4 9.7-23.9 2.8 2.6 1.5 6 1.9 9.1.1 2.9-.1 5.9 0 8.8 0 1.2.1 2.4.2 3.6 0 3-1.9 4.4-4.9 4.6 2.5 4.6 8 5.6 9.8 10.2.3 3.8-2.3 6.6-3.5 9.8-3.7 10.5-3.1 13 4.3 18.3 1.8 1.3 4 2.7 3.9 5.6-3.5 8.7-2.2 17.8-2.6 26.8-.1.9-.3 1.8-.7 2.7-3.9 3.3-8.8 1.3-13 2.3-1.2-.2-2.2-.9-3-1.8-5.3-7.4-6.2-16.3-8.6-24.7-.3-1.5-.7-3-1.1-4.5-1.1-7.8-2.5-15.6-5.1-23" style="fill:#623c33"/><path d="m591 763c1.1 3.4 2 6.8 3.3 10 .5 1.3 1.6 2.4 2.6 3.5 1.3 1.5 3.5 2.9 3.9 4.6 1.9 9.1 1.7 8.8-9.1 11.9-2.8.8-5.9 3.6-7.1 6.3-1.6 3.3-1.7 7.4-1.9 11.2-.1 3.9-1.1 7.2-4.4 9.6-3.4 3.3-6.9 7.1-10.6 9.4-5.3 3.3-12 2.8-18 0-1.2-2.4-2.3-4.7-3.5-7.1-1.3-1.2-1.5-2.8-1.4-4.5.2-1.6.9-2.9 2.4-3.8 6.2-3.9 9.4-10.4 13.3-16 3.9-5.6 5.9-12.3 10.5-17.5 1.2-.3 2.4-.1 3.4.5 3.1 1.7 4.6.2 5.8-2.5 2.3-5 5.3-9.6 7.9-14.4.8-1 1.7-1.7 3-1.2" style="fill:#382422"/><path d="m517 419c-1.1 5.3-2.6 10.5-3.2 15.8-.6 5.4 1.7 8.9 7.8 9.3 1.5.1 3.7 1.8 4.1 3.1 1.6 5.2-.2 6.9-5.7 6.3-2.1-.2-4.1-.3-6.2-.2 11.3 5.4 12 6.9 6.2 12-.2 1-.6 2.8-.6 2.7-5.9-.8-8.3 4.8-12.6 6.7-1 .4-3.2-.9-4.3-2-3.5-3.9-6.8-8.1-10-12.2-1.3-1.6-1.6-3.4-.7-5.3 2.9-2.5 1.9.6 2.3 1-1.2-11.2 2.1-22.5 4-34 .6-3.6-.2-7.6 2.2-10.9 1.8-1.5 3.9-2.5 6.2-2.9 2.8-.6 3.9 3.2 7.6 2.4 2.4-.3 4.2 4.6 3 8.2" style="fill:#3b2622"/><path d="m543 557c-2.5-2.7-4.9-5.5-7.4-8.2-2.1-1.4-2.1-3.6-2.4-5.7-2.2-14.9-4.5-29.8-5.9-44.8 0-6.9-.2-13.7.1-20.6 5.7-2 15.2 3.5 17.3 10.2.7 2.1 1.2 4.2 1.2 6.4.5 18 2.3 36 3.7 54 .1 1.2 0 2.4-.1 3.5-.1.7-.2 1.3-.5 2-.6 1.2-1.6 2-2.7 2.7-1 .6-2.1 1.4-3.3.3" style="fill:#fdfcfd"/><path d="m619 782c.2-6.8.4-13.6.6-20.4.1-3.9.4-7.7.6-11.6-.3-.9-.5-1.8 0-2.7.5-.4 1-.6 1.6-.7 2.2.1 2.6 1.4 2 3.2-.7 2.3-.5 4.7-.7 7.1-.4 3.8.3 6.2 4.8 5.9 1.2-.1 3.2.2 3.1 2-.1 1.7-2 1.6-3.3 1.9-2 .6-4.3-.4-6.2 1.1.9-.6 1.7-.2 2.5-.1 8.2 1.2 13.3-3.8 12.4-12-.3-2.8-1.2-5.4-2.1-8-.9-2.6-1.1-5.1 1.7-6.8 5.6-1.5 9.7 1.7 13.8 4.7 2.5 1.9 1.1 4.6 1.4 7 2.2 4.5 4.3 9 6.6 13.4.3.7 1.6 1.3 2.3 1.2 5-.6 6.5 2.2 6.8 6.5-.1 1.5-.1 2.9-.2 4.4-3.6 6-12.8 7.5-18.9 3.1-.5-.5-.9-1-1.4-1.5-1.5-3.6-4-4-7.3-2.5.1.7.2 1.4.3 2.1-.2 4.2-1.9 6-6.3 4.8-2-.6-4.2-.3-6.3.3-3 .9-5.7.3-7.8-2.3" style="fill:#402e2c"/><path d="m560 66.9c3.3-5.7 6.5-11.4 9.8-17 2-1.9 4.4-2 6.4-.5 2.2 1.6 1.3 3.8.4 5.8-.5 1.1-.6 2.3-.7 3.4-5.4 10.8-2.5 20.4 4 29.5.8 3.5 2.7 6.4 4.6 9.3.3.6.5 1.2.6 1.9.4 5.9.2 11.8.2 17.6 0 3.1-.6 5.9-3.8 7.3-4.9 1.3-9.8.8-14.7.4-.9-.3-1.8-.7-2.3-1.6.2-3.2 2.9-2.6 4.8-3 2.5-.5 5.1.4 7.7-.2-4-.6-3.8-3.1-2.8-5.9 2.5-6.9.1-12.5-4.3-17.7-4.5-5.2-8.9-10.5-10.7-17.4-.5-3.9-.7-7.9.8-11.8" style="fill:#d50822"/><path d="m553 594c.4-1.6.9-3.2 1.3-4.8.3-.1.6-.2.8-.3 5.8 2.5 11.7 4.7 18.2 2.4 5.6.5 10.7-1 15.5-3.8 2-1.2 4-2.3 6.5-2.3.9.2 1.7.7 2.3 1.4 2.5 5.7 1.5 11.8 2.5 17.7 0 1.2-.3 2.4-.6 3.6-5.2 10.3-9.6 21-14.4 31.5-1.7.5-3-.1-4.1-1.4-1-4.8 1.9-8.7 2.9-13 .5-2.3 1.8-4.7-.6-6.5-6-4.5-5.1-10.5-3.8-16.6.2-1.1.7-2.2.6-3.4-3.7-1.6-7.3-.2-10.9.2-5.7.6-11.3.4-16.4-2.9-.3-.7-.3-1.2.2-1.8" style="fill:#261314"/><path d="m572 641c-6.3.3-6.7 3.8-6 9.2 2.6 20.9 4.7 42 6.7 63 1 10.6 2.1 21 1.5 31.8-.4 5.9-4.3 11.6-6.6 17.3-.6.6-1.1.6-1.5-.1 9.1-13.5 7.4-28.4 5.4-43-.6-4.2-1.2-8.5-1.8-12.7 1.3-13.2-6.1-24.6-7.7-37-1.6-12.5-3.6-25-5.7-37-.5-3.2-2.4-6.1-3.6-9.2.2-.2.4-.4.7-.6 5.9 2.6 9.9 8.8 8.8 13.6-1.8-.4-2 .2-1.9 2 .7 8.1 1.8 16 3.6 24 1.3 5.7 1.3 11.5 2.6 15.8-2.1-12.9-4.6-27-4.3-41.8 4.5-.7 8.9.9 13.4.9.6.2 1.1.5 1.6.8.9 1.4 1.8 2.7-.8 3.2-1.5.5-3.1-.3-4.4.8" style="fill:#a39aa2"/><path d="m538 333c-.5-2.7-1-5.5-1.2-7-.9 2.3-2 5.3-3.2 8.4-.8-.1-1.6-.4-2.3-.9-3.4-3.2-5.9-7.8-11.5-7.5-3.9-.7-7.8.2-11.6-.4.2-1.9.3-3.9.5-5.8 4.6 2.5 4.4-2 5.7-4 2.2-3.4-2.5-1.7-2.7-3.5.5-.7 1.1-1.4 1.6-2.1.6-1 1.3-1.9 2.5-2.3.6-.2 1.1-.3 1.7-.3 6.7-.8 11.8 2.5 16.3 7 .4.3.8.7 1.1 1.1.4.2.2 1 .9.8 0 0-.1-.7-.1-1.1.2-2.9-1.8-6.4 2.7-7.7.5.5.8 1.1 1 1.8.9 6.9.6 13.8.2 20.6-.1 1.2-.6 2.2-1.6 2.9" style="fill:#63453e"/><path d="m492 455c0 2 0 4 0 6-7.2-.5-10.7-3.4-12.9-9.7-4.4-12.4 2.1-22.5 6.5-33 9.6-3 5.2-10.5 5.4-16.6.1-1.7.6-3.4.9-5.1 1 .3 1.7.9 2.2 1.8 1.4 4.6.3 9.3 1.1 14-.7 3.6 4.5 6.4 1.5 10.3-1.8 2.3-2.8 5.1-4.3 7.6-.9 1.5-1.1 4-3.9 3.3-2-2.7.1-4.8.9-7.1.7-2.1 2.7-4 .9-6.5-10.3 8.4-12.5 26.5-4.4 36-4.3-6.8-3.1-18.2 2.5-22.7.4.3.8.8 1 1.3.4 3.6-1 7-1.4 10.5-.4 3.4-.5 6.8 2.9 9 .4.2.8.5 1.1.9" style="fill:#978d93"/><path d="m545 122c.3-.4.6-.9.9-1.3 2.9-2.9 7-4.1 9.7-7.3h-.1c2.1-.5 3.8-1.6 5.7-2.5 2.7 1.1 3.1 2.9 1.9 5.4-2.7 1.6-3.4 4.1-3.3 7 .2 5.6-2.3 10.7-3.4 16-.5 2.3-1.3 5.1-4.5 5.7-3.5-4.2-3.2-8.3 1-14.9-2.6.5-.8 5.4-4.7 4.7-1.8-2.7-.7-6.2-2.5-8.8-.7-1.3-.6-2.8-.7-4.2" style="fill:#ce0c29"/><path d="m774 573c-2.5 1.1-4.9 2.9-7.5 3.3-2.6.4-4 .7-3.4 3.6-1 4.9-3.9 6.4-8.9 6-18.8-1.4-37.6-2.3-55.7-8.2.3-1 .9-1.6 1.9-1.9 7.1.4 13.8 2.8 20.8 3.6 1.5.1 3.1.2 4.5.6 1.2.3 2.3.6 3.5.6 7.6 1 15.3 1.1 22.9 1.7 1 .1 1.9.3 2.9.2 1.7-.1 3.4-.7 3.5-2.5.1-2.3-2-1.9-3.5-2.1-3.1-.5-6.8 1.1-9.2-2.3.1-1 .6-1.8 1.5-2.3 2.8-1.3 5.7-1.1 8.6-.5 5.5 1.1 10.8.9 16.2-.5.8-.1 1.4.2 1.9.7" style="fill:#918c99"/><path d="m649 101c.3-.4.5-.9.8-1.3 2.1-1.7 0-4.3 1.5-6.1 0-2.7 0-5.4 0-8.2.4-.4.8-.9 1.2-1.3 4.6-2.4 8-6.2 10.8-10.5.8 0 1.6-.1 2.4-.1 5.4 2 5.4 2 1.3 5.9-.6.5-.8 1.3-1.2 2-10.6 8.6-11.9 20.8-12.8 33-.2.6-.6 1.1-1.1 1.4-1.1.7-2.2 1-3.5.6-3.5-3.1.9-6.2 0-9.3 1.1-1.9 1.7-4 .6-6.3" style="fill:#cec7cc"/><path d="m507 221c1.2.9 3.2 1.6 3.4 2.7 1.1 7 1.9 14 2.7 21 .8 4.2-2.4 3.7-4.8 4-2.8.4-3.3-1.7-3.4-3.7-.3-7.4-1-14.9.9-22 .4-.7.8-1.4 1.2-2" style="fill:#f30d38"/><path d="m677 71c2.8 1.1 5.7 2.2 8.5 3.2 4.5 7 1.2 11-6.9 10.5-3.4-.5-7.4.3-9.6-3.6-.4-3.2 2.8-5.5 2.4-8.9-.2-1.7 1.8-2.2 3.5-1.5.7.1 1.4.2 2.1.3" style="fill:#ee113d"/><path d="m493 398c-.4-.5-.7-.9-1.1-1.4 2.5-16.7 5-33.4 7.6-50 .8-5.4 2.4-10.8 2.7-16.3.3-4.6 2.5-5.1 6.1-4.7 4.1-.3 8.2-.6 12.3-.9-2.2 4.3-6.7 1.5-9.7 3.3-4.9.5-5.6 4.3-6.2 8.1-2.9 18.7-7 37-9.6 56-.3 2.2-.1 4.6-2.1 6.1" style="fill:#948b8e"/><path d="m549 829c4.5.1 8.9.3 13.4.1 1.6 0 4.6-.7 4.7-1.4 1-6.3 6.9-5.8 10.7-8.1-.8 1.5-1.4 3-2.4 4.3-1.1 1.5-2.5 2.6-3.8 4-3.6 4.3-7.6 6.6-13.7 6.1-4.1-.3-7.1-1-8.9-5" style="fill:#fafae1"/><path d="m528 478c0 7.1-.1 14-.1 21-.4.4-.7.3-1-.1 0-10.3-.1-20.5-.1-30.8.7-5.7 1.3-11.5 2.2-17.2.5-3 1.5-5.9 2.3-8.8.1.1.3.3.4.4 1.8 4.8-.9 31-3.7 35" style="fill:#857a82"/><path d="m527 499c.3 0 .7 0 1 .1 1.2 8.9 2.3 17.9 3.6 26.7 1.2 7.8 2.7 15.5 4.1 23-.9-.7-2.6-1.4-2.7-2.2-2-15.9-4-31.9-6-47.8" style="fill:#9d979d"/><path d="m529 183c-.1-3.2-.2-6.5-.3-9.7.1-9.4.2-18.8.3-28 1.1-.8 2.1-.8 2.9.3 2.2 11.8 1.8 23.6-.6 35.4-.2 1.1-.8 2.2-2.3 2.2" style="fill:#cc173e"/><path d="m505 223c0 6.6-.1 13.2 0 19.9 0 1.6.7 3.2 1 4.7 2.1-.9 4.1-1.8 6.2-2.7.4 1.1.7 2.2 1.1 3.3-.9 1.6-1.9 3.2-2.9 4.7-.4.4-.8.7-1.4.7-1.2-2-3.4-2.1-5.2-2.8-.6-9.3-3-18.7 1.2-27.8" style="fill:#8b263c"/><path d="m570 47.8c4.9-.8 9.8-2.4 13.9 2.1 3.6 1.1 7.3.2 10.9.6.7 0 1.1.4 1.3 1.1-.7 1.8-2.3 1.9-3.9 2.1-7-1-12.8 1.5-17.7 6.5 0-1.3-.5-3.1.1-4 4.6-6.8.2-6.6-4.6-6.3 0-.8 0-1.4 0-2.1" style="fill:#831e20"/><path d="m612 51c.9 2.8 1.8 5.6 2.8 8.4-3.5 0-3.9-3.3-5.6-5.2-1.2-1.4-1.5-3.6-4.1-3.8-1.5 1.8-.4 4.7-2.4 6.3-3.4-.8-5.1-3.6-7.2-5.9l.1.1c-.4-.2-.6-.4-.5-.7.1-.3.1-.5.2-.5 4.1-5.2 12-4.6 16.7 1.3" style="fill:#9c1d31"/><g style="fill:#f6f1e3"><path d="m648 781c6.7 1.3 13.3 2.2 18.9-3.1 1 4.7-.6 6.9-5.8 6.4-2-.2-4.1 1.3-6 1.1-3.3-.4-6.6-1.6-9.9-2.4 1-.7 1.9-1.4 2.8-2"/><path d="m619 782c5.4.4 10.9 1 16.3.9 1.4 0 2.7-2.5 4.1-3.8.1 2.4.2 4.7.3 7.1-2.3-.5-4.6-1.3-7-1.3-1.7 0-3.4 1.2-5.1 1.8-4.2-.9-8.3-1.8-12.5-2.8 0-.4 0-.9 0-1.3 1.3-.2 2.6-.4 3.9-.6"/></g><path d="m560 112c-1.7.7-3.5 1.5-5.2 2.2 3-2 4-4.7 3.8-8.4-.5-10.6-.6-21.3-.6-32 0-2.1 1.2-4.3 1.8-6.4 0 4.6.1 9.1.1 13.7 2.5 10.3 3.1 20.6.1 30.9" style="fill:#7c233d"/><path d="m515 290c-.7-10.2-1.5-20.5-2.2-30.7.3-.1.6-.1.9-.2 4.1 4.3 3.5 10 5.1 15.2 1.3 4.1-1.6 8.3.2 12.4.3.5.5 1 .7 1.6.3 1.5.3 2.9-.8 4-1.9.4-2.2-2.2-3.9-2.3" style="fill:#8f808a"/><path d="m675 70.9c-1.8 3.6-3.6 7.3-5.4 10.9-1.7 1-2.7.3-3.3-1.3.9-1.6 1.8-3.1 2.7-4.6-.4-.3-1.5-1.4-2.6-2.4 2.1-3.1 4.2-6.4 8.6-2.6" style="fill:#7f313e"/><path d="m532 145c-.8 0-1.5.1-2.3.1 5.1-7.6 10.2-15 15.3-22.7.4 1.1.8 2.3 1.2 3.4-4.8 6.3-8.1 13.8-14.2 19" style="fill:#ac293d"/><path d="m553 594c.1.3.2.7.2 1.1-.6 1.3-2.3 2.1-2.1 3.8-.1 2.9-.2 5.7.7 8.5 0 5 2.2 9.8 1.7 14.9-.3.2-.5.4-.8.6-5.7-4.9-2.4-12-4.3-17.8-.7-2-.1-4.4-.7-6.5-1.8-5.9 1-6 5.3-4.6" style="fill:#989199"/><path d="m512 312c1.5-.4 3-.8 4.9-1.2-.4 3.3 0 7.1-1.5 9.8-1.4 2.4-4.8 2.6-6.4-1 .4-1.6.8-3.2 1.2-4.8 1.1-.6 1.3 1.4 2.1.8 1.7-1.1-1-2.2-.1-3.4l-.2-.2" style="fill:#9b7871"/><path d="m543 557c.9-.4 1.8-.8 2.7-1.2.6-.4 1.1-.3 1.5.4-1.2 6.8 1.3 13.3 1.9 19.9.2 2.3 1.1 4.6.4 7-.5.5-1 .6-1.6.1-1.7-8.7-3.3-17.4-4.9-26" style="fill:#9a9288"/><path d="m663 74c-3.4 4-6.8 8-10.2 12-.2-.5-.4-1-.6-1.5 3.6-3.5 7.2-7 10.8-10.5" style="fill:#dad2d9"/><path d="m516 309c-.8.4-1.6.9-2.4 1.3.3-5.1.5-10.2.8-15.4.2-2.2 1.5-2.1 3-1.3 2 5.4.4 10.4-1.4 15.4" style="fill:#8f828c"/><path d="m546 817c0 1.5.1 3.1.1 4.6-.4 1.2-.8 2.4-1.2 3.6-1.2-1.5-2.4-3-3.6-4.4-.3-3.6 1.1-5.1 4.7-3.8" style="fill:#ebdfd4"/><path d="m700 576c-.5.4-.9.8-1.4 1.1-2.3-.6-4.5-1.2-6.8-1.8-2.5-1.4-4.9-2.9-7.4-4.3 6.2-1.3 10.9 2 15.6 5" style="fill:#847382"/><path d="m555 114c-3.2 2.4-6.4 4.9-9.7 7.3 3.2-2.4 6.5-4.9 9.7-7.3" style="fill:#8c232c"/><path d="m639 777c5.1-3.4 6-3.1 7.3 2.5-2.5-.8-4.9-1.7-7.3-2.5" style="fill:#f6f1e3"/><path d="m518 293c-1 .4-2.1.9-3.1 1.3 0-1.7 0-3.3.1-5 1.2.8 2.5 1.6 3.7 2.4.1.2.2.4.3.6-.1.5-.5.7-1 .7" style="fill:#ccb5bf"/><path d="m595 49.7c.1.4.2.8.3 1.2-4-.4-8-.7-12-1.1 3.9 0 7.8-.1 11.7-.1" style="fill:#f7f5f6"/><path d="m512 312c.1 1.6.2 3.2.3 4.8-.8-.7-1.5-1.5-2.3-2.2.6-.9 1.3-1.8 2-2.6" style="fill:#63453e"/><path d="m548 583c.4 0 .8 0 1.2 0 2.9 1 5.2 2.4 4.9 6 0 0 .1-.1.1-.1-2.1-2-4.2-4-6.2-5.9" style="fill:#8e897c"/><path d="m504 250c2.4-.3 4.9-.9 5.8 2.3.7.9.7 1.7-.2 2.5-1.8-1.5-3.7-3.2-5.6-4.8" style="fill:#f1e7ef"/><path d="m510 255c.1-.8.1-1.7.2-2.5 3.7.9 4 3.1 2.4 6-.9-1.1-1.8-2.3-2.6-3.5" style="fill:#967a93"/><path d="m614 45c.5.7.9 1.1 1 1.5 0 .3-.5.7-.8 1.1-.4-.4-.9-.7-1-1.2-.1-.3.4-.8.8-1.4" style="fill:#f0e7f6"/><path d="m710 223c0 1 0 2 0 2.9 1.6 7.5 1.4 15 1.2 22.6-.2 2.4-1.7 4.3-2.3 6.5-1.1 3.7-3.5 5.5-7.5 4.4-2-2.9-5.4-3-8.4-4.1-8.1-2.4-12.6-9.1-18-14.8-.4-.5-.7-1-1-1.5-3.5-5.7-7-11.4-5.2-18.5 1.5-2.1 1.6-4.8 2.6-7.2 3.1-7.3 9.2-11 15.9-14.3 2.7-1.3 4.6 0 6.3 1.8 2.7 2.9 5.8 5.3 9.3 7.2 1.6 2.6 1.9 5.9 4.6 7.8h.3c-.1 3.8-3.1 3.4-5.5 3.8-5.3.9-10.4 2.2-15.2 4.7-1.3.7-3.4 1.4-2.2 3.4.9 1.4 2.5.5 3.8 0 5.1-2.2 10.4-3.8 15.8-5 1.7-.2 3.7-1.2 5.5.4" style="fill:#e70d35"/><path d="m729 415c1.3 1.1 2.6 2.2 3.9 3.3 1.9 2.4 5 2.5 7.4 3.8.5.2 1 .4 1.4.7 2 1.7 4.3 2.6 7 2.8 1.9.3 3.6 1.2 5 2.5 3.3 2.9 7.7 3.9 11.2 6.5.6.6 1 1.3 1.4 2 2.6 5.7 2.4 6-3.7 6.3-2 .1-3.7 1.9-5.9.9-6.9-2.3-12.3-7.4-19-9.9-2.2-.8-4.3-3.2-6.9-.7-.8 2.1.9 3.2 1.9 4.4 2.9 3.6 1.8 5.5-2.5 6.1-1.1-1.5-3.1-1.4-4.4-2.5-1.3-4-.5-8.1-.7-12-.2-2.6-.9-4.9-2.3-7.1-.7-1-1.2-2-1.3-3.2.2-1.2 1.1-1.8 2.2-2.1 1.1.1 2.3.3 2.4-1.4.1-.2.2-.4.3-.7.4-.3.8-.5 1.3-.6.7.3 1.1.6 1.4 1" style="fill:#806b62"/><path d="m704 83c1 1.3 2.1 2.6 3.1 4 3.9 4.4 5.2 9.6 5 15.3-2 10.7-3.9 21.4-5.9 32-.5 2.4-1 4.8-1.5 7.1-2.5 1.4-3.8-.3-5-2.1.4-3.4-.4-7.1 2-10.2 1.1-1.5.2-3-.1-4.4 0-2.6 2.3-5.2-.1-7.8-.7-2.8.5-5.4 1-8 1.3-7.3-.1-13.8-6.1-18.8 1.3-3.5 5.2-4.6 7.6-7.2" style="fill:#9b898c"/><path d="m708 161c-.3 1.7-.6 3.4-.9 5.2-2 4.4-3.3 9-2.6 14-.3.9-.6 1.7-.9 2.6-3.7 1.5-6.1-.6-8.3-3.2-.4-.7-.7-1.6-1.3-1.9-5-2.5-4.1-5.2-.5-8-.4-1.4-2.3-.9-2.8-2.2-1.2-2-3.6-2.2-5.2-3.7-1-.9-2.4-1.7-2.2-3.2.3-1.7 2-1.7 3.3-1.8 1.9-.2 3.9-.5 5.7-1 5.6-.2 10.9.5 15.7 3.2" style="fill:#a2bc84"/><path d="m709 154c-.1 1.6-.2 3.3-.4 4.9-.6.5-1.3 1.1-2.1 1-15.6-3-31.7-3.3-46.8-9-.9-1.3-.9-2.6-.1-4 3-2.2 6.4-1.9 9.5-.8 3.8 1.4 7.6 1.6 11.4 2 9.4 2.6 19 4.1 28.5 5.9" style="fill:#db113d"/><path d="m697 179c2.4 1.3 4.8 2.6 7.3 3.9 0 .4-.2.9 0 1.1 7.3 7.4 5.6 15.7 2.8 24.4-.7 2.3.3 5.1.5 7.7-1.6-2.3-3.1-4.6-4.7-6.9-1.4-3.6.7-6.6 1.8-9.6 1.6-4.4.6-7.5-2.8-10.5-7-6.3-15.8-8.8-24.3-11.9-2.2-.8-5.8-.4-5.2-4.6 9.4-2.3 17 2 24.6 6.4" style="fill:#685f55"/><path d="m710 223c-7.7 2.4-15.3 4.8-23 7-1.3.4-2.9-.5-4.3-.8.4-1.6.4-4.4 1.3-4.7 6-2.4 12.2-4.2 18.2-6.3 1.9-.7 3.7-1.5 5.5-2.3.8 2.4 1.5 4.7 2.3 7.1" style="fill:#e0d5e4"/><path d="m675 240c4.2 4 8.3 8 12.6 11.8 1.4 1.2 3.3 1.7 5 2.6 2.3 1.8 4.5 3.6 7.4 4.4 3.9.9 6.5-.1 7.1-4.6.2-1.6 1.6-3.1 2.4-4.6 1.6-1.2-1.1-4.5 2.3-4.7.4 2.3.7 4.7 1.1 7-.5 1.4-.9 2.8-1 4.3-.1 1.1-.2 2.2-.6 3.2-3.9 7.4-6.1 8.1-13.5 4.4-9-4.5-16.4-10.8-22.6-18.6-1-1.7-1.8-3.4-.2-5.2" style="fill:#391d21"/><path d="m711 255c.7-1.2 1.4-2.4 2.1-3.6 1.4 8 3 16 4.2 24 1.9 12.6 3.6 25 5.3 37.8.3 1.9 0 3.9-.1 5.9-1.4.9-2.2.3-2.8-1.1-.1-.6-.1-1.2 0-1.9-2.6-18-5.2-35.9-7.8-53.9-.4-2.4 1.1-5.1-.9-7.3" style="fill:#948a9a"/><path d="m720 318c.8.3 1.5.7 2.3 1 .5 2.3 1 4.6 1.4 6.9.4 1.1-.3 1.7-1.1 2.1-6.5-.7-11.8 1.2-15.9 6.5-.8 1-2.1 1.9-3.6.9.8-6.7 6.8-11.7 15-12-4.9-2.6-10-1.1-14.7-2.9-1.7-.6-5-.3-2.9-3.9 6.6-1.7 13.3-4.2 19.5 1.5" style="fill:#584743"/><path d="m660 151c8.5 1.5 17 3 25.4 4.4 7.7 1.3 15.5 2.6 23 3.9 0 .7-.1 1.4-.1 2.2-5.5-.7-11-1.4-16.5-2.1-4.6 1.4-8.9-.7-13.2-1.4-6.3-1.1-12.9-1.5-18.8-4.2-.7-1-.7-1.9 0-2.8" style="fill:#431713"/><path d="m733 330c.8 2.7 2.6 5.5 2.3 8.2-1.2 12-3 24-4.5 36-1.1-.3-1.7-.9-2.1-1.9.1-9 2.4-17.8 3.2-26.8.4-4.6.6-8.9-.6-13.3 0-1.3.7-2 1.7-2.3" style="fill:#9c94a0"/><path d="m767 428c3.1.8 6.3 1.6 9.4 2.4 1.9-.7 3.3.4 4.7 1.3 4.7 1.3 6.4 4.2 6.1 9.1-.4 7.7-.3 15.4-.3 23-1.3.2-1.7-.7-2.1-1.7-1.1-6.2-.6-12.5-.4-18.7.1-5.2-2-7.8-6.8-9.4-3.6-1.2-7.8-1.2-10.7-4.2-.4-.6-.4-1.2.1-1.8" style="fill:#887f82"/><path d="m781 487c1.2 1.2 3.4 2.4 3.4 3.5-.7 11-1.8 22-2.9 33-.1.6-1 1-1.6 1.5-.2-.2-.4-.5-.6-.7-.6-6.7 1.9-13 2.1-19.7.1-5.1 2.4-10.5-2.1-15-.4-.4-.8-1-1-1.5-.1-.7.2-1.2.8-1.5.6.1 1.3.1 1.9.1" style="fill:#a4a0ab"/><path d="m709 154c-.3.9-.8 2.6-.9 2.6-9-2.3-17.9-4.7-26.8-7.1.6-.8 1.5-1.2 2.4-1.4 2.1-.3 4.3-.2 6.4.2 4 1.7 8.3 2 12.5 2.7 1.2.2 1.9-.1 2.2-1.3.2-.2.4-.3.6-.5 3.8-.5 3.8 2.1 3.6 4.8" style="fill:#79080b"/><path d="m730 373c.3.5.7.9 1 1.4-.9 13.4-1.8 26.8-2.7 40-.4 0-.8 0-1.1-.1-3.2-7.9-1.9-16.2-1-24 .6-5.8-.3-12.2 3.8-17.3" style="fill:#8f8999"/><path d="m786 463c.4.4.7.8 1.1 1.2-.3 5.6-.4 11.2-1.2 16.7-.2 1.4-2.5 2.6-3.9 3.8-.8.7-1.7 1.2-2.6 1.8-.2.2-.4.3-.6.5-3.6-2.2-2.9-4.8-.6-7.5 3.7 1.5 5.4.2 5.2-3.8-.1-2.7-.2-5.5.1-8.2.2-1.8-.4-4.2 2.5-4.5" style="fill:#a4a0ab"/><path d="m767 428c0 .5 0 .9-.1 1.4-4.9 1.1-9-1.4-13.4-2.7-2.2-.7-4.1-2.2-6.7-1.6-2.4 0-4.2-1.5-6.1-2.7h.1c-.8-.7-.8-1.4-.1-2.2 8.7 2.6 17.5 5.2 26.3 7.8" style="fill:#8f838e"/><path d="m700 139c1.6.8 3.1 1.6 4.7 2.4 0 .8.2 1.8-.2 2.4-.8 1.3-2 2.5-3 3.7.8-.5 1.6-1 2.3-1.5.4 1.1.8 2.3 1.2 3.4 0 0-.1.5-.1.5-3.6 1.3-7.2 2.4-10-1.3 1.7-2.9 4.4-5.3 4.6-9 .1-.2.3-.4.6-.6" style="fill:#493c24"/><path d="m712 245c-.8 1.6-1.6 3.1-2.3 4.7 0-7.7 0-15.4 0-23 .7 6.2 1.5 12.4 2.3 18.5" style="fill:#652a33"/><path d="m705 180c.5-5.1 1-10.3 1.5-15.4.4.5.8 1 1.2 1.4-.9 4.7-1.8 9.3-2.7 14" style="fill:#848968"/><path d="m733 330c-.5.5-1 .9-1.4 1.4-1.2.3-2.2-.2-3.2-.5-2-1.1-5.3.3-6.1-3.1.5-.5 1-1 1.4-1.4 3.1 1.1 6.2 2.4 9.3 3.6" style="fill:#8b7d88"/><path d="m741 421c0 .7.1 1.5.1 2.2-2.7-1.6-5.5-3.3-8.2-4.9 2.7.9 5.4 1.8 8.1 2.7" style="fill:#5d4a4d"/><path d="m781 432c-1.6-.4-3.2-.9-4.7-1.3 1.6.4 3.2.8 4.7 1.3" style="fill:#f7edfc"/><path d="m651 752c-2.1-7.3-6.8-10.6-15.3-10.8-.9.5-1.8.6-2.7 0-5.9-8.8-8-19-10.5-29-.4-1.7-.6-3.5-1-5.2.7-11.2 2.5-22.3 3.1-33.5-.4-5.9.8-11.6 1.6-17.3 1-2.5.8-5.3 1.3-7.9 1.3-5.6.3-11.4 1.7-16.9.1-1.6.1-3.1.3-4.7.4-3.4 2.4-4.8 5.7-4.3 4.4.7 8.9 1.3 13.3 2.4 2 1 3.5 2.1 2.9 4.9-1.6 7.3-2.2 14.8-3.7 22-2.6 6.1-2.8 12.6-3.8 19-2.4 15.8-5.6 31.4-5.4 48 .1 5.5 1.6 10 6.5 13 .6.1 1.2.1 1.8 0 .7 1 1.4 2 2.1 3 2.3 3.8 4.8 7.5 4.6 12.2-.9 1.9-1.7 3.7-2.5 5.4" style="fill:#dad5e4"/><path d="m656 617c-1.1 2.3-2.2 4.5-3.4 6.8-1.5.7-2.7 2.3-4.7 1.5-4.4-.8-8.9-1.5-13.3-2.2-3.5-.6-5.1-2.6-5.1-6 0-4.3-.5-8.6.5-12.9.5-1.3 1.2-2.5 2.3-3.3 4.9-3.4 7.2-8.1 6.9-14 0-1 .4-1.9 1.1-2.7 1.3-1 3-1.4 4.5-.9 4.1 1.4 8.1.1 12-.4 3.7 8.5 7 17 2 26-.5.9-.5 1.9-.7 2.8-.3 1.9-1.4 3.4-2.2 5.1" style="fill:#dbd3e0"/><path d="m700 576c-5.2-1.7-10.4-3.3-15.5-5-1.3-.8-2.7-1.5-4-2.3-3.6-1.8-6.9-4-10.2-6.2-1-.7-2.1-1.4-3.1-2.1-3.9-2-3.2-5.3-2.5-8.6 2-2.7 3.8-.6 5.4.4 3.8 2.3 7.4 5 11.5 6.8 2.3 1.3 4.7 2.2 7.2 2.9 6.7 2.6 13.9 3.3 20.7 5.5 5.5 2.2 11.3 3 16.8 5-.6 1.9 1.1 1.6 2 2 5.2 2.6 5.3 3.6.4 7-.9-.2-1.7-.5-2.6-.7-1.3-2-2.9-1.4-4.5-.5-7.3-1.4-14.4-2.8-21.6-4.2" style="fill:#d8ccd7"/><path d="m666 551c.4 3.1.8 6.1 1.2 9.2-.5 2.4-.7 4.8-1.4 7.1-1.1 3.8-2.5 7.6-3.6 11.4-.5 1.6-.8 3.3-.6 4.9.8 5.6 2.1 11.2 2.6 16.9.2 2-1.3 4.1-2.1 6.1-1.2-2.9-.6-6-1.2-8.9-.9-5-.1-10.5-3.5-14.9-5.3 4-11 1.1-16.6 1.2-.4-.6-.4-1.1.1-1.6 2.5-1.6 5.3-1.1 8-1.2 8.2-.3 13.6-5.5 14-13.6.2-5.3-.2-10.5-2.3-15.5-.7-2 0-3.4 2-4.2.9-.1 1.7.3 2.4.9.5.6 1 1.3 1 2.2" style="fill:#8f8183"/><path d="m650 625c.9-.3 1.8-.7 2.7-1-2.6 17.7-5.1 35-7.7 53-1.4 9.7-2.8 19.4-4.3 29-1.1-.3-1.7-1.1-1.8-2.2 1.9-17.2 4.3-34 7.8-51 1.4-7.9 2.9-15.8 4.2-23.7.1-.7-1.4-1.6-2.1-2.4.2-.7 1.3-.6 1.2-1.5" style="fill:#9d99a3"/><path d="m657 583c.7-.1 1.4-.2 2.2-.3.8 8 1.7 16 2.5 24-.8 1-1.5 2.1-2.3 3.1-.6.9-1 2-2.3 1.9.7-5.2 2-10.3 2.1-15.5 0-4.4-1.4-8.8-2.2-13.3" style="fill:#f6f2f7"/><path d="m640 704c.4.4.7.8 1.1 1.2 0 2.8.1 5.5-.2 8.3-.8 7 1.5 12.8 6.3 17.7-.1.6-.3 1.2-.4 1.9-5.5-3.3-8.6-8.1-8.1-14.6.3-4.8-1.5-9.9 1.3-14.5" style="fill:#857f89"/><path d="m654 747c-1.5-4.1-3-8.1-4.6-12.2 3.6 3.3 5.8 7.1 4.6 12.2" style="fill:#7e7a81"/><path d="m670 563c3.4 2.1 6.8 4.2 10.2 6.2-3.4-2-6.8-4.1-10.2-6.2" style="fill:#827888"/><path d="m658 612c.8-.6 1.6-1.3 2.3-1.9-1.2 2.2-2.4 4.4-3.6 6.6.4-1.6.9-3.2 1.3-4.7" style="fill:#97929d"/><path d="m780 525c.5 1.9 1.4 3.7 1.3 5.6-.3 6.8-.9 13.6-1.7 20.3-.2 1.9-1.8 3.6-2.8 5.4-.6-.3-1-.8-1.1-1.5 1.2-6.4 1.1-12.9 2.1-19.3.6-3.6-.1-5.3-4.3-5.7-9-.8-17.9-2.3-26.9-3.7-5.1-1-10.2-1.4-15.2-2.3-3.9-1.4-8.8 0-11.5-4.4-.1-.7.1-1.3.5-1.8 6-1.3 11.5 1.7 17.4 2.1 14 2 28 4.7 42 5.3" style="fill:#8e8a98"/><path d="m777 556c-.8 5.5-1.7 11-2.5 16.5-.2-.2-.4-.3-.6-.5-1.6-2.1-.7-4.5-.6-6.8.4-5.7-.2-6.6-5.9-6.7-8-.1-16-.5-23.8-2.3-.6-.4-.9-1-1-1.8 0-.7.4-1.4.9-1.8 4.3-1.7 8.6-.2 12.8.2 6.6.5 13.3.1 19.7 2.3.4.3.7.6 1 .9" style="fill:#8e8c9b"/><path d="m606 677c-.3.9-.7 1.7-1 2.6-2.8 1.6-2.1 4.9-3.6 7.2v-.1c-1.2 1.8-1.5 4.1-2.4 6v-.1c-1.5 2.6-1.9 5.5-1.9 8.5.1 15.8-.2 31.5.2 47 .1 5-1.5 8.3-5.4 10.8h.1c-4.7.9-3.8-2.8-4-5.2-.6-8 .3-16-.1-24-.6-10.8-.7-21.6-2.1-32-.8-5.9-.2-11.4 3.9-16.6 3.9-5.1 4.8-12 7.5-17.9.9-1.9 1.2-4.2 4.2-4.8 1.8 4.3 2 9 3.8 13.2l-.1-.1c1.2 1.6-.3 3.9.9 5.7" style="fill:#cab3bd"/><path d="m605 671c-1.5-4-3-8-4.6-12.5-2.1 5.6-4 11-6.3 16.4-1.6 3.5-3.9 6.6-5.7 10-.7 1.3-1.1 2.9-1 4.4.7 22 1.5 44 2.4 66 0 1.1 1.5 2.2 2.2 3.4-.4 1.2-.9 2.4-1.3 3.6-.7.4-1.4.8-2.1 1.3-3.8-6.1-1.5-12.9-2.2-19.4-.2-1.8-.1-3.9.7-5.8-.4-9.5-.8-18.9-1.1-28.4-1.3-20-3.7-40-5.1-60-.2-3.6-1.1-6.5-4.3-8.4-1.6 0-3.1-.1-4.7-.1 1.6-1.1 3.2-2.2 4.8-3.3 1.5-1.7 3-1.4 4.6-.3 1.1.3 2.1.6 3.2 1 1.3 5.9 1.5 11.9 2 18 .6 7 1.1 14 2.5 21 3-6.4 5.6-12.8 8.1-19.3.8-2.2 1-5.2 4.5-5.4 1 5.8 2.2 11.7 3.4 17.7" style="fill:#7b6570"/><path d="m610 677c1.2-8.8 2.4-17.6 3.6-26.4.2-1.2.6-2.6.1-3.5-5.4-11.5.7-22.5 1.7-33.6.4-5 2-9.9 3.1-14.9 1.4-1 2.3-.5 2.9.9-.5 3.3-1.4 6.5-1.7 9.8-1.2 5-2.1 10-3 15-.6 3.6-1.1 6.8 1.6 10.5 2.7 3.7-.6 5-4 4.9 3.6 8.2 5.9 17 8.9 25.5.3 2.1 2.2 3.3 2.9 5.1-.3 1.3-.8 2.3-2.3 2.6-1.8.1-3.2-.8-3.7-2.4-1.8-5.6-4.6-10.9-4.5-17-.1 4.5 0 9.1-1.1 13.5-2.6 10.3.6 19.9 3.8 29.4 2.4 7 1.9 13.8-.1 20.7-.5.5-1.1.6-1.7.3.8-12.2-1.5-23.8-5.7-35-.6-1.5-.5-3.4-.8-5.2" style="fill:#988f95"/><path d="m626 673c-1 10-1.9 20-2.8 30-.1 1.5-.2 3.1-.4 4.6 1.5 10.4-1.3 20.4-2.9 30.5-.5 3-.9 5.8.4 8.7-.1.8-.2 1.6-.3 2.4-4.8-2.5-6.9-9.2-4.9-15.9.6.1.9.4.9 1 0 .3 0 .5.1.8 0-.7 0-1.5.1-2.2.1-.6.3-1.2.4-1.8 2.3-17.5 4.1-35 5.6-52 .2-2 .4-3.9 2-5.4.5-.5 1.1-.6 1.8-.3" style="fill:#958c88"/><path d="m592 759c4.4-4.1 4.8-9.2 4.7-14.9-.3-14.8-.1-29.5.1-44 0-2.5 1.5-5 2.4-7.4-.4 19-1 38-1.2 57-.1 4.8-1.4 8-6 9.4" style="fill:#72606b"/><path d="m617 733c-.1.7-.3 1.3-.4 2 0 0-.6-.1-.6-.1-.2-.3-.5-.5-.7-.7.2-5.4.4-10.9.6-16.3.3 0 .7 0 1 0 2.5 5 .7 10 .1 15" style="fill:#8f7f92"/><g style="fill:#7b6c75"><path d="m602 687c1.2-2.4 2.4-4.8 3.6-7.2-1.2 2.5-2.4 4.8-3.6 7.2"/><path d="m599 693c.8-2 1.6-4 2.4-6-.8 2-1.6 4-2.4 6"/></g><path d="m606 677c-.4-2-.7-3.9-1.1-5.9.5.8 1 1.6 1.5 2.4-.1 1.2-.3 2.4-.4 3.5" style="fill:#7e6e7d"/><path d="m571 781c-6 9.9-11.9 19.9-18 29.8-1.1 1.7-3 3-4.6 4.4-1.1-.8-1.8-3.6-3.7-.3-2.1 3.6-2.4 3.4-6.8 1.9-.5-.2-.6.6-.9.8-.3.3-1.2.7 0 1.1 1.5.5 3 1 3.6 2.7-.7 1.1-1.3 2.1-2 3.2-7.2 1.9-14.3 1.3-21.5.2-2-10.9-1.4-11.8 9.6-12.4 3.5-.2 6.9.2 6.5-5-.1-.9 1.9-2 3.1-2.9 7.7-5.7 15.6-11 23-17.2 2-1.7 2.4-5.3 3.6-8.1.1-.3.8-.7 1.2-.6 1.9.2 3.8.5 5.7.8.5.7 1.3.8 1.3 1.6" style="fill:#553633"/><path d="m571 781c-.4-.5-.8-.9-1.1-1.4 1.5-1.9 3.6-3.5 4.4-5.7 4.5-11.5 8.8-23 13-34.7.5 8.4 1 16.8 1.5 25-2.8 5.4-5.7 10.6-8.2 16-1.6 3.6-3.2 5.1-6.6 1.8-.7-.8-2-.9-3.1-1.3" style="fill:#c5aebf"/><path d="m577 641c4.1-.8 5.8.3 6 5.1.9 19 2.4 38 3.6 57 .1 2.2-.1 4.3-.1 6.5-1.6-10.5-3.2-20.9-4.6-31.4-1.8-12.5-3.3-25-4.9-37.5" style="fill:#c8b7c0"/><path d="m540 821c-2.6-.7-5.2-1.4-7.7-2.1 1.6-1.7 3.4-3.6 5.1-5.4.7.9 1.7 2.4 2.7 3.8 1-1.7 2-3.5 3.1-5.1.6-.8 1.5-1.4 2.3-2.1.8 1.5 1.5 3 2.3 4.6-.8.9-1.6 1.7-2.4 2.6-1.6 1.3-3.1 2.5-4.7 3.8 0 0-.3 0-.3 0h-.4" style="fill:#534527"/><path d="m566 763c.5 0 1 .1 1.5.1-2.7 4.3-5.5 8.5-7.9 13-.8 1.4-.6 3.4-1 5.1-.3 1-1.1 1.8-1.6 2.7-.6-.8-1.7-1.6-1.6-2.4.2-1.7.7-3.5 1.6-4.9 2.9-4.6 6-9.1 9-13.6" style="fill:#959098"/><path d="m517 824c7.2-.1 14.3-.1 21.5-.2-7.2 3.4-14.3 2.9-21.5.2" style="fill:#534527"/><path d="m530 808c-1.1 1-2.1 2.1-2.3 2-1-.6-2-1.5-2.7-2.4-.1-.2 1.2-1.9 1.5-1.8 1 .4 2 1.2 3.5 2.2" style="fill:#fefefe"/><path d="m704 83c-1 4.1-3.6 6.2-7.8 6.4-6.4-.2-12.6-.7-17.5-5.5 7.6-1.3 8-1.9 6.3-9.2 5 .9 10 1.3 14.9 2.8 1.7.6 2.7 3.6 4.1 5.5" style="fill:#c31127"/><path d="m691 150c-2.3 0-4.7-.1-7-.1-8.1-.1-15.6-4.5-23.8-3.2-2.2 6.6-1.2 13 .9 19.4 2.1 7.9 2.3 15.4-3.3 22-1.3 1.1-2.8 1.7-4.2 2.7-2.1 1.1-3.8 2.8-5.6 4.4-.4.3-.9.6-1.4.9-3.8 2.2-7.2 5-11 7.1-.6.2-1.2.3-1.9.4-4.7.2-5.9-2.6-6.1-6.7-.2-4.6 1.2-9.4-1.5-13.7-1-8.5-2.7-16.9-3.2-25.5 1.4-7.2 4.6-13.6 7.8-20 3.4-6.8 2.7-13.2-2.1-19-3.4-6.3-3.4-6.3 1.8-7.4 3.9 1.9 7.9 3.7 11.8 5.6 2.4.5 4.7 1.1 6.7 2.7 1.8 1.2 3.6 2.4 5 4.2 2 2.3 3.6 5 4.9 7.8.4 1.1.5 2.2.6 3.4.2 6.1.2 6.1 9.2 7 .5.1 1.1.4 1.6.6 3.2 2.5 7.1.7 10.6 1.8.5.2 1.1.4 1.6.7 2.7 2.1 6.2.5 9 2.2.4.9 2.9 2.1-.3 2.8" style="fill:#e80d3d"/><path d="m603 56.9c.2-2.8.3-5.7.5-8.6 7.9-.5 7.1 8.1 11.7 11 2.2 12.6 4.4 25.3 6.6 37.9-1 1.4-.8 2.9-.6 4.5 1 7.7-2.1 14-6.7 20-5.8 1.6-11.7.8-17.6.7-3.8-.1-4.8-2.7-5-6-.2-3.7.4-7.5-1.5-11-.5-1.6-.7-3.2-.3-4.8 3.3-5.6 9.6-9 11.7-15.6.2-.5.4-1 .7-1.4 1.1-1.5 1.5-3.2 2.1-5 .2-.5.5-1 .8-1.4 3.9-4.7 3.2-9.5 0-14.2-.3-.4-.5-.9-.7-1.4-.5-1.4-.7-2.8-1.5-4.1-.1-.2-.2-.5-.2-.7" style="fill:#d60a29"/><path d="m614 121c2.6-7.4 6.3-14.5 5.6-22.6 0-.2.9-.5 1.4-.8.5 1.5 1 3.1 1.6 4.6-1.6 6.8 2.5 12.6 3 19 .1 1.1 1.2-1.4 2.2-.4 2.9 5.4 5.3 10.9 3.2 17.2-2.4 6.4-4.9 12.8-7.3 19-1.1.7-2.3.9-3.5.7-6.2-2-6.8-3.2-4.6-9.3 1.7-4.7 4.9-8.7 6.4-13.7-1.3 3-2.2 5.9-4.1 8.4-.6.7-.8 1.9-2.1 1.7-1.1-.3-1.3-1.3-1.6-2.3-.9-3.2.5-6.7-1.2-9.9-.5-.6-1.1-1.2-1.5-1.9-.3-2.4-.7-4.7-.2-7.1.6-1.4 2.2-1.6 2.7-2.9" style="fill:#634d47"/><path d="m648 120c-2-1.3-4-2.6-6-3.9 2-6.2 4-12.4 6.2-19.4-.5 4.4-.9 8.2-1.3 11.9.2.1.4.1.6.2.5-1.2 1.1-2.4 1.6-3.7.8.4 1 1 .3 1.7-.1 3-.2 6.1-.2 9.1 1.3 1.9 1.5 3.4-1.2 4.1" style="fill:#c8c0ce"/><path d="m627 121c-.4.6-.8 1.1-1.3 1.7-1.6-6.2-3.2-12.5-4.6-18.8-.1-.5 1.4-1.4 2.2-2.1.5 2 1.1 3.9 1.6 5.9.4 3.7 2.2 7.1 3 10.7.1.9-.3 1.8-.9 2.6" style="fill:#9c9b99"/><path d="m627 118c-.7-3.5-1.3-7.1-1.9-10.6 1.8 1 3.5 2 5.3 3-5.7 1.4-1 4.5-1.1 6.8-.1 1.8-.9 2-2.3.8" style="fill:#d60a29"/><g style="fill:#a097a1"><path d="m652 94c-.5 2-1 4.1-1.5 6.1.5-2 1-4 1.5-6.1"/><path d="m649 107c-.1-.6-.2-1.1-.3-1.7.2-1.5.3-2.9.5-4.4-.1 2-.2 4.1-.2 6.1"/></g><path d="m532 145c4.7-6.4 9.5-12.8 14.2-19 .8 3.2 1.6 6.5 2.5 9.7.7.7.7 1.5.3 2.4-.7.9-3 .3-2 2.7 1.6 3.9.5 7.6-1 11.4-1.8 4.5-.8 8.1 3.7 11 5.9 3.7 10.3 8.9 12.2 15.9.5 5.5.3 10.9.2 16.4 0 7.4-1.3 8.5-8.5 8.4-1.2 0-2.3-.1-3.5-.4-3.9-1.9-8-3.5-12-4.8-3-1.7-6.3-3.2-8.3-6.3 0-3.1 0-6.1 0-9.2.7-8.9 1.6-17.9 2.2-26.8.3-3.7.1-7.5.1-11.2" style="fill:#fd0b35"/><path d="m540 242c-2.1-1.8-4-3.8-6.3-5.2-5.4-3.2-6.3-7.9-4.3-13.2 1.8-5 4.1-9.7 6.2-14.6.4-.5.9-.8 1.5-.8 7 2.1 14 3.9 21 5.7 5.6 1.5 6 2.4 3.7 7.9-1.7 4-3.3 8-4.9 12-2.6 6.6-2.4 6.6 3.4 10.3 8.2 5.1 16.4 10 23.9 16.3.3.5.6 1 .8 1.6.4 1.7.5 3.5 1.1 5.2.4 1.4.5 2.9.5 4.4-.3 2.1 1.5 5-2.3 5.8-5.4-1-8.4-5.7-12.8-8.3-6-4.7-11.9-9.5-17.8-14.3-1.7-2-4-3.4-6.1-5-2.3-3-6.5-3.9-7.7-7.9" style="fill:#fdfcfd"/><path d="m554 254c5.9 4.7 11.7 9.5 17.6 14.2 1.7 2.5 4.4 3.8 6.3 6.1 2 2.4 1.8 3.8-1.3 4.6-1.6.1-2.8-.6-3.7-1.9-1.1-1.7-2.8-2.3-4.7-2.8-3.2-1.5-6.1-3.7-8.8-5.8-3.8-2.9-7.1-4.1-10.9-.8-2.5 2.2-2.3 9.4.5 12.6 3.1 3.5 6.2 7.2 10.2 9.7 3.1 1.8 5.8 4 8.3 6.5 1.8 2.4 6.4 4 5 7.1-1.6 3.8-6.1 2-9.5 2-1.7 0-3.5 0-5.2-.5-.6-.2-1.2-.5-1.8-.8-3.5-1.8-7.3-.7-10.9-1-2.9-.2-5.9-.1-7.7-3.2-1-2.2-1-4.6-.8-6.9.7-6.8-1.3-13.4-.9-20 .1-.8.2-1.6.3-2.3.7-.8.9-1.7 1-2.7 1-11.9 3.7-14.5 15.4-14.3.7-.1 1.2 0 1.6.3" style="fill:#d40a25"/><path d="m518 292c.1-1.3.1-2.7.2-4 2.2-2.5 3.8 0 5.3.9 1.9 1.1 3.3 3.1 4.2 4-2.7-1.8-4.5-7-10.2-5.5-.4-2-.9-4-1-6-.1-2.3.2-4.6.4-6.9 1.4-1.6 3.2-1.6 5-1.5.7.5 1.4 1 2.1 1.5 1.8.1 3.4.7 5.1 1.4 7.8 2.9 8.7 4.1 8.6 12.4-.1 3.9.6 7.8-.5 11.7-1.1 3.1-.9 6.5-1.2 9.7-.2 2.4-.5 4.6-2.7 6.1-4.3-5.1-9.8-7.4-16.4-7-.3-5.4.5-10.8 1.4-16-.1-.4-.2-.6-.3-.7" style="fill:#ccb5bf"/><path d="m553 254c1.4 2.6.9 3.5-1.9 2-5-2.6-11.9 1.7-12.3 7.5-.2 2.4-1.4 4.7-2.1 7 0-9.6-2.7-19.6 3.4-28.4 2.7 2.2 5.5 4.4 8.2 6.6.7 2.4 3.8 2.9 4.7 5.3" style="fill:#f70d36"/><path d="m536 209c-.2.2-.5.3-.7.3-3-2.3-6.1-4.4-8.8-6.9-1.2-1.1-1.7-3-2.5-4.6 1.2 0 2.6.3 3.6-.1 1.1-.5 1.8-1.8 2.6-2.8 3 .6 4.6 4.5 8.3 3.5 1.2.1 2.3.5 2.7 1.8-.7 3.5-1.7 6.9-5.2 8.8" style="fill:#3f2b24"/><path d="m522 273c-1.7.5-3.4 1-5 1.5-1.6-5.2-3.2-10.3-4.7-15.5-.8-2-1.6-4-2.4-6 1.2-1.7 2.4-3.3 3.6-5 2.8 8.4 5.7 16.7 8.5 25" style="fill:#f1e7ef"/><path d="m536 299c.3-5.6.8-11 .9-16.7 0-1-1.9-2.3-3.1-3-3.2-1.9-6.5-3.5-9.8-5.3 3.9-.4 7.9-.9 11.8-1.3 4 8.9 2 18.2 2.4 27.4-.2.2-.3.3-.5.5-.4.1-.9.1-1.3 0-.6-.5-1.1-.9-.4-1.6" style="fill:#41272d"/><path d="m539 199c-3.9.6-7.3.2-8.3-4.5-.4-.9-.7-1.9-1.1-2.8 2.7 1.7 5.4 3.4 8.1 5.2.8.5 1.9.8 1.3 2.1" style="fill:#7d282c"/><path d="m528 478c1.1-11.9 2.2-23.8 3.3-35.6.4-.3.8-.6 1.2-.9 1.8-3.9 3.9-.3 5.8-.2.5.2.9.5 1.3.8 2.1 2 4.2 4.1 7.3 4.6.8.4 1.5 1 2.2 1.6 8.3 4.8 11.9 11.7 13 21.6 2 18.3 3.5 36.5 3 54.9-.1 5.6-1.6 10.9-2.5 16.4-.1.6-.3 1.2-.6 1.8-4.8 3.5-7.5 9.6-14 11-1.2-19.9-2.3-39.7-3.8-60-.6-8.8-6.8-14.7-16.2-16.4" style="fill:#ceb5c1"/><path d="m536 360c1-2.2 1.9-4.4 2.9-6.6 4.3-3.5 9.2-2.1 13.6-1 9.2 2.3 18.4 2.5 27.5.2 2.2-.5 4.3-.9 6.2.6.8 11.4 5.7 22.4 2.7 34-3.8 3.3-8.7 2.6-13 2.7-8.7.2-17.5 3.7-26.3.1-1.9-1.1-3.9-1.7-6.1-1.9-6.4-.7-7.1-1.5-7-8.2.3-6.5-2.5-13-.5-20" style="fill:#d80a26"/><path d="m529 365c5.1 5.3-.5 10.6-.3 15.9 0 .7-2.1 1.4-3.3 2.1-.4.4-.9.5-1.4.3-1.3-2-4.3-1.5-5.5-3.7-.1-.6-.2-1.2-.2-1.7 2.7-6.9 1-14.4 2.5-21.4.3-.6.7-1 1.3-1.2 3.2 1.6 2.4 6.2 5.7 7.7.6.5.6 1.4 1.2 2" style="fill:#674645"/><path d="m586 354c-4 .8-8 2.1-12 2.1-6.8 0-13.6-.9-20.4-1.4-4.8-.3-9.6-.6-14.4-.9-.2-4.1-.5-8.3-.7-12.4-.1-2.9 0-5.8-.1-8.7.1-.8.2-1.6.4-2.4 3.5.9 2.5 3.9 2.8 6.2 1.7 12 1.6 12.5 13.5 14.7 9.2 1.7 18.7 2.9 27.6-2 1.2-.7 2.6-1 3.9 0 .9 1.7.9 3.3-.6 4.8" style="fill:#a10f20"/><path d="m517 419c-1.1-2.7-2.1-5.4-3.2-8.1-.4 0-.8.1-1.2.1-.2 1.2-.3 2.4-.5 3.5-2.1-1.8-4-3.5-5.9-5.2-1.1-2.2-.3-4.1 1.2-5.8.5-.4 1-.6 1.6-.6 4.2.4 7.9 1.9 11 4.6 1.6 1.5 1.1 3.8 1.8 5.6-1.7 2-3.3 4-4.9 5.9" style="fill:#2d1b1c"/><path d="m545 425c.4-1.7.8-3.4 1.2-5.1 1.4-6.4 0-8-6.4-9-1.8-.3-4.6-2.4-4.7-3.7-.2-8.3.3-16.6.5-24.9 1.7 1.8 1.5 4.3 2.2 6.5-.2 4.1-.4 8.3 0 12.4.4 4.7 2.4 7.2 7.5 6.9 3.7-.3 7.5-.2 11.2 0 2.1.1 4.4-.1 5.7 2.3-.9 2.3-3.1 2.1-4.9 2.8-5 .1-8.9 1.3-8.3 7.6.1 1.7-.7 3.4-2.3 4.6-.7.3-1.2.1-1.7-.4" style="fill:#7f6b6e"/><path d="m545 425c.6 0 1.2 0 1.8.1 2-1.8 4.4-1.5 6.8-1.5 1.3.1 2.6.4 3.7 1.2 1.3 3.3-1.1 3.7-3.2 4.1-2.7.5-5.5.2-8.3.3-3.6.1-7.2.1-4.7 5.5.2.5-.2 1.1-.6 1.6-1.7 1-3.2.6-4.7-.4-1.6-10.5-1.6-10.5 9.2-10.9" style="fill:#9d1927"/><path d="m537 388c-.5-1.9-.9-3.8-1.4-5.8.1-7.3.1-14.6.2-21.9.4 6.9.8 13.8 1.3 20.6.3 4 1.6 6.6 6.5 6.3 2.3-.1 4.7 1.6 7 2.4-5 2.6-9.5 1.9-13.6-1.6" style="fill:#8d1026"/><path d="m529 365c-.5-.4-.9-.8-1.4-1.2-1.9-7 1-13.6 1.6-20.4.3-3.6-.5-7.7 3.1-10.4.5.5.9 1 1.4 1.5-1.5 10.2-3.1 20.4-4.7 30.5" style="fill:#817279"/><path d="m522 413c-.8-1.5-1.5-3.1-2.3-4.6-.4-7.9 1.9-15.5 2.6-23 .1-1.3 1-2.5 2.4-3.2.4 0 .8 0 1.2.1-1.3 10.3-2.6 20.6-3.9 30.9" style="fill:#73636d"/><path d="m536 436c1.6-.1 3.1-.1 4.7-.2.5-.3 1.1-.5 1.7-.4.6.2 1 .6 1.1 1.2-.8 2.6-.4 6.5-5.2 5.2-.7-.6-1.9-.9-1.3-2.2-.3-1.1-.7-2.4-1-3.6" style="fill:#eecfd5"/><path d="m537 440c.4.7.8 1.5 1.3 2.2-2-.2-4.1-.5-6.1-.7 0-5.4 2.9-1.9 4.8-1.5" style="fill:#6a5f6a"/><path d="m508 404c-.6 1.9-1.2 3.8-1.8 5.7-1.8.9-3.6 1.8-5.4 2.6-.8.3-1.3.1-1.6-.7.6-23.6 7.2-46 11.6-69 .7-3.8.6-7.9 3-11.3 1.2-.8 2.5-.6 3.8-.1 2.1 1 3.7 2.5 5.2 4.3.4.5.7 1.1 1 1.7 1.8 6.2.3 12.2-1.4 18-.9 7.9-1.7 15.8-2.6 23.6-7.7 6.7-7.7 16.9-11.8 25" style="fill:#cdb7c2"/><path d="m499 412c.4.1.8.2 1.2.3-2.2 15.3-4.4 30.7-6.6 45.7-.4-.7-1.1-1.8-1.7-3-.3 0-.7-.1-1-.1-3-3.3-1.6-7.5-1.9-11.3.1-2.7.2-5.4.6-8 .7-5 4.8-8.7 5.4-13.7.2-1.2.6-2.5.5-3.7-.1-1.6-.7-3.1-1.1-4.6 1.1-1.9 2.5-2.7 4.6-1.6" style="fill:#583b38"/><path d="m591 537c1.2 1.1 2.3 2.1 3.5 3.2 1.1 2.2 2 4.5 3.6 6.3 1.4 2.7 4.7 4.8 2.4 8.5v-.1c-1.2 1.6-2.7 3-3.6 4.8v-.1c-1.1 2.2-4.1 3.2-4 6.2-.4 3.2 2.2 2.7 4 3.2 3.5 3.9 2.9 12.7-1.2 16.4-7.1 3.7-13.7 9-22.6 7.4-2.7-1.5-5.3.3-8 .1-3.1-.3-5.3-1.4-5.5-4.8-.2-4.3-1.5-8.4-1.1-12.7.9-2 .5-3.4-1.8-4.1-.5-.2-.9-.5-1.3-.9-1.8-1.9-3.9-3.3-6.1-4.6-2-2.9-1.9-6.3-1.9-9.6-.6-.1-1.1-.3-1.7-.4.6-.4 1.1-.7 1.7-1.1 5.5-2.9 8.8-8.3 13.7-11.9 1.9-3.2 1.5-6.8 2-10.3.6-4 1.9-6.9 6.9-7.1 2.8-.1 5.8-.6 8.7-1.5 2.2-.8 4.6-.4 6.8-1.4 3.7-1.8 5.3-.5 6.1 3.7.6 3.8-2.9 7.1-.6 10.8" style="fill:#d5ab8c"/><path d="m561 543c-4.6 4-9.1 7.9-13.7 11.9.2-.4.4-.8.7-1.2 4.3-3.5 8.6-7.1 13-10.7" style="fill:#7f5c56"/><path d="m634 741c.8.1 1.6.1 2.4.2.1 2-.5 4.4.3 6 3.3 6.8 2.2 13.2-.8 19.6-1.3 2.7-12 4.1-14.2 1.6-.3-.4.8-3 1.6-3.2 2.2-.6 4.6-.5 7.1-.6-.3-.4-.4-.8-.5-.8-2.7-.4-7.6-.5-7.6-1-.3-4.6.3-9.3.6-14 0-.6-.3-1.2-.5-1.8 2.2-5 6.6-6.1 11.6-6" style="fill:#67463f"/><path d="m634 741c-3.9 2-7.8 4-11.7 6-.4.1-.8.1-1.2.2-2.2-.3-3.9-.2-3.2-3.8 2.2-11.7 3.9-23.6 5.8-35.4 3.3 11 6.8 22 10.3 33" style="fill:#fcfbf8"/><path d="m633 773c-2.3 2.5-4.6 5.1-6.9 7.6-1.9-1.8-3.9-3.7-5.8-5.5 1.2-1.3 2.2-3.3 3.6-3.6 2.8-.6 5.8-.2 8.7-.2.1.6.2 1.1.4 1.7" style="fill:#5d3d32"/><path d="m613 123c-.2 2.4-.5 4.7-.7 7.1-4.3 3.5-9.6.7-14 2.4-3.4 4-1.5 8.4-.9 12.6.4 3.4 1 6.8-.8 10-3.1 2.1-6.4 2.5-10 1.6-1.4-1.3-1.5-3.1-1.6-4.8 0-1-.1-2 0-3-.1-5.1.4-10.2-.4-15.3-.2-2-1.1-3.2-3.3-3.1-1.9.1-3.9.1-5.6-1.2-1.6-4.3-6-2.9-9-4.6-.3-.3-.4-.6-.3-1 .1-.3.2-.5.3-.5 5-.1 9.9-.2 14.9-.3 2-.7 4.2-1.2 3.9-4.1-.9-7.3 0-14.7-1.1-22-1.2-1-1.7-2.3-1.7-3.9-3.5-15.4 2-28.7 10-41 1.2-.4 2.3-.7 3.5-1.1 4 .1 5.7 2.9 7.1 6 1.6 1.2 1.4 3.3 2.3 4.8 3.6 5.5 4.5 11 .1 16.6-1 1.8-.6 4.3-2.5 5.8-1.6 4.4-4.5 7.8-7.7 10.9-1.6 1.5-3 3.1-4.1 5 0 1.3.1 2.7.1 4 1.8 4.3 1.2 8.9 1.1 13.4-.1 3.5 1.2 5 4.8 4.8 4.7-.2 9.4 0 14-.1.8.2 1.5.5 1.6 1.4" style="fill:#c9b2bf"/><path d="m566 124c0 .4 0 .7.1 1.1 2 3.7 6.4 2.4 9.1 4.5 2.5 0 5.1-.2 7.6.3.9.2 1.5 2.1 2.2 3.2.8 5.6-.1 11.2.5 16.8 0 .8 0 1.6.1 2.5-.3.7 0 1.8-.8 2.1-1.6.7-2-.8-2.3-1.8-1-4.1-.5-8.2-.6-12.4-.1-7-1.1-7.8-7.9-7.6-3.7.1-5.5 1.4-5.4 5.2.1 3.3-.3 6.7.4 10 1.1 4.9 1.6 10.4 8.6 10.7 1 0 1.6 1.1 1.7 2.2-.7 2.5-2.7 3.7-4.7 5-1 0-1.9-.5-2.5-1.2-3.8-4.1-7.9-4.5-12.5-1.4-2.2-6-8-9.5-10.2-15.5 0-.9.2-1.7 1-2.3 1.5-2.3 3.7-4.4 4.3-6.9 1.3-5.6 2.2-11.4 2.7-17 .3-3.4 1-5.3 4.8-4.6 1.6 1.6 2.6 3.5 2.6 5.8.3.4.8.9 1.2 1.4" style="fill:#54352f"/><path d="m565 122c-.9-1.9-1.7-3.9-2.6-5.8-.7-1.6-1.4-3.3-2.1-4.9 0-10.3-.1-20.6-.1-30.8 3.1 4.3 6.3 8.5 9.3 12.9 3.1 4.6 6.2 9.2 8.7 14 .6 1.3-1.2 3.8-1.9 5.8-1.5 4.4-1.5 4.4 4 7.2-5.9.6-10.6 1-15.3 1.5" style="fill:#f80c31"/><path d="m592 51.9c-2 5.3-3.9 10.6-6.1 15.8-3.3 8-5.4 15.9-2 24.4.1.3-.8 1-1.2 1.5-2.7-.5-2.9-2.9-3.9-4.8-2.5-4.2-5.6-8.1-7.4-12.6-1-2.5-.2-6 .3-8.9.4-2.5 1.5-4.8 2.3-7.3 3.4-8.7 10.4-9 18-8.1" style="fill:#f7f5f6"/><path d="m584 97c.7 8.2 1.5 16.4 1.9 24.6 0 .5-3 1.1-4.6 1.6.9-2 2.5-4 2.6-6 .3-6.8.1-13.5.1-20" style="fill:#691b20"/><path d="m579 89c1.3 1.6 2.6 3.2 3.9 4.8.3 1.2.6 2.4.9 3.6-1.6-2.8-3.2-5.6-4.8-8.4" style="fill:#84221d"/><path d="m602 653c-3.2 7.7-6.4 15.5-9.7 23-.9 2.2-2.2 4.3-3.2 6.4-.7-.1-1.4-.2-2-.4-.7-14.6-1.4-29-2.1-43.7 4.5-10.5 9.1-21 13.6-31.6 3.6 1.7 2.2 5.3 3 8 2 6.6 2.6 13.5 4.4 20 1.8 6.8-2.4 12-4 18" style="fill:#cdb3bf"/><path d="m581 638c-1.5.1-3.1.2-4.6.3 0 0-.2-.5-.2-.5-2.7-5.7-1.5-11.6-.9-17.4.5-4.8-.9-7.5-5.6-8.6-4.6-1.1-8.8-3.5-12.9-5.8-2.7-1.5-4.8-1.2-6.7 1.2-.3-3.2-.5-6.5-.8-9.7 1.2-1 2.5-1.1 3.9-.6 8.4 2.9 16.7 2.2 25 .2 1.4-.3 2.7-.5 3.9.6-.9 3.4-2.7 6.9-2.4 10.2.3 3.3 1.9 7.5 4.4 9.3 2.8 2 3 3.2 2 6-2.1 4.7-3.6 9.7-5.2 14.8" style="fill:#cbb5c0"/><path d="m547 556c1 3.1 2 6.2 3 9.2 2.2 1.4 3.8 3.4 5.9 4.8 1 1 2.9 1.1 3.4 2.7.5 5 .6 10 1.5 15 .2 1.4 2.4 2.9 3.9 3.4 2.5.8 5.2.9 7.8 1.3-6.9 1.9-13.2.7-19-3.4-1.6-2-3.3-4-4.9-6-1.4-7.2-3-14.4-4-21.7-.1-1.6 1.6-3.5 2.4-5.3" style="fill:#fcf7d5"/><path d="m588 599c5.2.6 7.4 2.4 7.5 6.2.1 3.9-2.1 7-6 6.2-2.3-.5-5.2-3.5-5.6-5.8-.4-2 2.6-4.4 4.1-6.6" style="fill:#b09ba0"/><path d="m583 597c-4.6.8-9.2 2.4-13.8 2.3-6.4-.1-12.8-1.5-19-2.4 1.2-.8 2.3-1.6 3.5-2.4 8.5.3 17 .5 25.5.9 1.2.2 2.5 1.1 3.9 1.6" style="fill:#e9ded3"/><path d="m602 653c0-.8-.3-1.7 0-2.3 7.5-15.3-.5-29.4-3.5-43.9.4-.9.8-1.8 1.2-2.7 2.6 11.5 6 23 7.5 34.7.6 4.4-3.3 9.4-5.2 14.2" style="fill:#807178"/><path d="m596 585c3.4-5.3 3.5-10.8 1.2-16.4 1.2.8 3.4 1.7 3.3 2.3-.9 5.2-2.1 10.4-3.3 15.6-.3-.5-.7-1-1.2-1.5" style="fill:#81695d"/><path d="m550 607c-.3-4.3.9-5.8 5.4-3.5 5.9 3 12.2 5.2 18.2 8.2 1.5.8 3.1 3.1 3.1 4.8.1 7-.3 14-.5 21-4.7-.7-9.4-1.4-14-2.1-3-4.4-6-8.9-9.1-13.3-1-5.1-2-10-3-15.2" style="fill:#fdfcfc"/><path d="m562 635c.6 4.7 1.2 9.3 1.6 14 1.1 10.8 2.2 21.5 2 32.5-2.9-16.6-5.9-33-9-50.6 2.5 1.8 3.9 2.9 5.4 4.1" style="fill:#fcf7fb"/><path d="m586 349c-9.5 7.4-20.5 5.6-30.9 3.8-4.4-.8-11.3 1.4-13.5-4.7-1.6-4.5-1.2-9.7-1.8-14.5-.1-1.1-.6-2.2-1-3.2 0-7.2 0-14.5 0-21.7 1.2-4.4 4-6.5 8.6-5.8 3.4.5 7-1 10.2 1.2 4.9 2.2 10 1.4 15 1 7.7-.5 12.4 3.6 12.6 11.4.1 4.4 0 8.7.1 13 .6 5.6 1.2 11.2 1.5 16.9.1.8-.1 1.8-.9 2.5" style="fill:#da0926"/><path d="m533 333c-1.6 10.3-3.2 20.6-4.8 30.8-4.6-1-5-4.5-4.7-8.3-1.1-3.6.1-7.2.4-10.8.3-3 .5-5.8-1.7-8.2v.1c-1.1-1.7-2.3-3.2-4-4.4-1.9-1.3-4.1-2-6-3.3-.4-.4-.6-.8-.7-1.4 3.2-.9 6.4-1.8 9.6-2.6 6.2-.4 8.5 4.7 11.9 8.1" style="fill:#ceb6bf"/><path d="m558 304c-1.8 0-3.5 0-5.3 0-5.1-.1-10.4-1-13.5 4.6-.1-.3-.2-.7-.3-1.1-1.5-2.3-1-4.6-.2-7 0 0 .2-.2.2-.2 4.6.4 9.3.7 13.9 1.3 1.8.4 3.5 1.6 5.2 2.4" style="fill:#9b141e"/><path d="m519 293c-.5 5.4-1 10.8-1.4 16l-.5.2c0 0-.5-.1-.5-.1.5-5.1 1-10.3 1.5-15.4.3-.3.6-.6.9-.8" style="fill:#f4ebf4"/><path d="m536 299c.4.5.9.9 1.3 1.4.7 5.1-1.4 10-1.1 15.2-.5.5-1 .5-1.6 0-.5-.1-.9-.2-1.4-.3 1-5.5 1.9-10.9 2.8-16.3" style="fill:#836773"/><path d="m536 316c.5-5 1-10 1.5-15 .2 0 .4 0 .6-.1.1 2.3.1 4.7.2 7-.4 3.1-.9 6.2-1.3 9.4-1 .2-1.5 0-1-1.2" style="fill:#f1d2de"/><path d="m536 316c.4.4.7.8 1.1 1.2-.2 1-.3 1.9-.5 2.9-.6-1.3-1.2-2.7-1.7-4 .3.1.7 0 1.1-.1" style="fill:#ccb5bf"/><path d="m511 327c.1.4.4.7.8.7 1.4.9 3.3 1.2 2.9 3.6-2 8.9-4.1 17.9-6 26.8-2.4 11.3-4.6 22.7-6.7 34-1.2 6.5-2 13-3 19.7-1.5.5-3.1 1-4.6 1.5-.5-5.2-1-10.4-1.5-15.6 3.7-22.7 7.3-45 11-68 .8-4.7 4.3-2.7 7.1-2.6" style="fill:#fdfbfc"/><path d="m489 433c-5.7 9-5 17.5 2.1 25.3-8.4-1.5-13.8-12.2-10.7-22 1.8-5.6 4.1-11 6.7-16.4.6-1.3 2.9-1.8 4.4-2.7.5 1.8 1.7 3.8 1.3 5.5-.9 3.5-2.5 6.9-3.8 10.3" style="fill:#fbf7fb"/><path d="m491 443c.1 3.9.3 7.8.4 11.6-1.6-1.9-4.6-3.8-4.5-5.6.1-4.8 1.5-9.6 2.4-14.4.6-.3 1.1-.1 1.3.6.2 2.6-.5 5.2.4 7.8" style="fill:#f9f1f7"/><path d="m490 435c0 0-.5.1-.5.1-.1-.4-.3-.9-.4-1.3 0 0 0 .1 0 .1 2.2-3.9 4.4-7.8 6.6-11.7-1.5 4.2-3 8.4-4.5 12.6-.3.9-.7 1-1.2.2" style="fill:#efe1e6"/><path d="m551 145c-.1.8-.1 1.5-.2 2.3-2.9 1-3.3-1-3.4-3-.1-2.2-.7-4.6 1-6.6 0-.8.1-1.5.1-2.3 1.8-3.1 3.7-6.2 5.5-9.3-1 6.5-2 12.7-3 18.9" style="fill:#a00a17"/><path d="m743 556c9.2.5 18.3 1.2 27.5 1.3 3.9.1 4.8 1.6 4.4 4.9-.5 3.5-1 6.9-1.5 10.4-5.2.7-10.4 1.7-15.6 2-3.4.3-6.9-.3-10.4-.4-5 2.6-9.8.9-14.7-.6-.6-4.5 2.3-7.6 4.3-11 .3-.5.9-.8 1.1-1.4 0-.2-.7.1-1.1 0-1.1-.3-2.5-.7-2.5-2.1 0-1.3 1.3-1.8 2.4-2.3 1.9-.8 3.9-2 6.1-.7" style="fill:#e2e0f0"/><path d="m729 582c2.7-2.7 2.5-4.8-1.3-6.3-.5-.2-.6-1.2-.9-1.9.9-.9 2.1-1.5 3.2-1.1 5.4 1.6 11 1.4 16.6 2.6 3.3.3 6.6.4 9.9 1 1.9.4 5.2 1.6 5.1 2.3-.3 3.1-.9 6.4-5.6 5.9-7.2-.8-14.5-1.4-21.7-2.1-1.7-.1-3.5-.2-5.3-.4" style="fill:#dfd6e5"/><path d="m746 575c-6.6-.5-13.2-1-19.8-1.5-5.7-1.6-11.3-3.1-17-4.6-.3-.7-.1-1.2.5-1.6 7.6.8 15.3 1.3 22.3 5 5.1.6 10 1.1 15.2 1.7-.3.2-.8.6-1.2 1" style="fill:#7f737e"/><path d="m722 580c.8-.6 1.7-1.9 2.4-1.7.8.2 1.4 1.4 2.2 2.2-1.6-.2-3.1-.3-4.6-.5" style="fill:#dfd6e5"/><path d="m679 84c5.8 1.8 11.7 3.7 17.5 5.5 5.6 1.8 9.6 10.7 8.3 18-.6 3.4-1.2 6.9-1.8 10.3.8 2.6-.1 4-2.8 3.4-4-.9-5.4-6.8-2.5-9.8 3.3-3.5 3.1-5.1-1.5-7-7-2.8-14.3-4.3-21.7-5.3-3.7-.1-7.4-.2-11 0-2.3.1-4.5.4-3.3 3.7.3.4.6.8.9 1.3.6.8 1.1 1.7 1.7 2.5 4.2 2.6 9.6.3 13.8 3.2.5.4.9.8 1.2 1.4.9 3 .5 5.7-1.8 8.1-2.5 1.4-5.1.2-7.6.1-3.8-.4-7.5-1.3-11.3-1.8-1.5-.5-3.1-.9-3.9-2.5.3-4.7.8-9.4.9-14 .2-9.1 5.4-15 12-20 1.1.4 2.2.9 3.3 1.3 3.2.7 6.4 1.3 9.6 1.9" style="fill:#f8f5f7"/><path d="m648 120c.3-1.3.7-2.6 1-4 .9-.4 1.8-.8 2.6-1.1 3.4 3.9 7.1 6.9 12.8 7.2 3.8.2 7.3 1 10-2.6.7-1 2.4-1.3 3.8-1.3 6.6.6 13 2.1 19.3 3.8 1.7.7 3.6 1 5 2.5.5 1.3 1.8 3.4 1.5 3.7-3.3 2.8-1.6 7.4-3.8 10.5-5.8 1.9-10.9-1.8-16.5-2-3.5-.9-7.1-1.3-10.5-2.5-.5-.2-1-.5-1.4-.9-1-1.2.6-2.8-.8-3.9-4.3-3.7-10-2.4-14.9-3.9-1.3-.6-2.5-1.2-3.5-2.3-1.5-1.1-3.1-2.2-4.7-3.2" style="fill:#372725"/><path d="m678 120c-1 .6-2.1 1.1-3 1.8-.8.6-1.2 1.8-2.1 2.2-7 3.3-18.4-1.3-21.3-8.4.4-.1.8-.2 1.3-.2 1.2.5 2.4.9 3.6 1.4 3.8 1 7.6 2.5 11.7 1.4 2.4.3 4.8.6 7.2.8 1.2-.8 2.1-.6 2.6 1" style="fill:#6d5d50"/><path d="m656 188c5.3-6.4 5.1-13.8 3.7-21.4-.7-.8-.6-1.6-.1-2.5.6-.2 1.1-.2 1.6.1 2.6 3.1 2.1 7 2.6 10.6 3 .5 5-3.3 7.9-1.1 6.9 2.8 13.7 5.6 20.6 8.3 1.3.5 2.6.9 3.8 1.6 11.9 6.9 12.6 9.7 6.4 26-3-2-6.5-3.6-8.9-6.2-2.9-3.1-5.6-3.4-8.9-1.3-6.4 4.2-12.5 8.6-13.2 17.3-.1.6-1.2 1.2-1.9 1.8-2.3 5.1-.6 10.5-1.6 15.8-.3 1.8.9 2.9 3 2.5 1.5-.3 3.1-.7 4.4.6.4 1.5.8 3.1 1.2 4.6-2.1 12.7 1 24.6 5.7 36-.1 1.6-1 2.7-1.9 3.9-3.1 4.4-8.8 5.8-11.6 10.6-3.2-.5-6.1-1.4-7.7-4.6-.5-1.9-1.3-3.7-2.1-5.5-.6-2.4-2.2-4.5-2.8-6.9.2-3.7-1-6.9-3.9-9.3-.4-.7-.7-1.5-.8-2.3-.1-3.4-2-6-3.5-8.8-.4-.4-.7-.9-1-1.3-1.1-1.7-2.3-3.4-2.6-5.5-.3-2.6-.5-5.1.9-7.5.4-.5 1-.9 1.5-1.3 3.3-2 3-5.3 3-8.4.1-10.8-.3-21.6 1.2-32.4.7-5.1 1.7-9.9 5-13.8" style="fill:#483836"/><path d="m675 240c-1 .1-2 0-2.9.3-5.6 1.8-7 .6-6.1-5.2.8-4.7 1.4-9.4 2.2-14.2 0-.1.3-.1.5-.1.2 0 .3.2.5.3 1.9 6.3 3.9 12.6 5.8 18.9" style="fill:#391d21"/><path d="m700 259c-2.5-1.5-4.9-2.9-7.4-4.4 2.4 1.4 4.9 2.9 7.4 4.4" style="fill:#b41532"/><path d="m729 432c1-5.2 4.6-2.8 6.7-1.7 6.1 3.2 11.9 7 17.9 10.4 1 .5 2.3.4 3.5.6 6.4 4.1 7.8 3.7 14.6-3.3 3.8-3.3 6.5-2.1 8.4 2.1.9 8.2.3 16.4.4 24.6-.1 1.1-.3 2.1-.8 3.1-2.3 4.9-2.2 10.3-2.4 15.5-.4 8.8-.5 9.3-9.7 9.7-6.3 0-12.5-1.1-18.5-2.8-2.2-1.5-4.6-2.3-7.2-2.5-.5-.2-1-.4-1.5-.7-1.9-1.7-4.5-1.1-6.6-2.2-2.2-2.5-4.9-2.1-7.7-1.6-1.4.1-2.7.1-4.1-.1-2.5-.5-3.8-2-3.2-4.6.6-2.5 2.7-2.7 4.7-2 4.9 1.9 4.2-2.8 5.6-4.7 2.2-2.8-1.2-2.9-2.4-4-.4-.4-.9-.7-1.4-1.1-.5-.7-.6-1.5-.4-2.4 2.3-2.5 4.5.3 6.8 0 3.5 1.1 5.9 3.7 8.8 5.7 2.3 1.2 4.4 3.7 7.4 1.6 2.3-1.1 5.1-2 1.6-5-.9-.5-1.8-1.1-2.7-1.7-5.9-3.1-10.6-8-16.2-11.5-2.6-3.2-4.9-6.5-.8-10.2.6-.1 1.1-.1 1.7 0 2.3 1.9 4.5 3.9 7.4 4.7 2.5 1.6 5.4 2.5 7.4 4.8 2.1 3.1 5.8 4 8.5 6.2 1.6 1.3 2.9.4 4.1-.9 1.4-1.5 2-2.8.4-4.6-2.8-3.2-5.8-5.9-10.3-6.4-5.6-6.4-15-7.6-20-15" style="fill:#e80e3b"/><path d="m721 418c.5.7.9 1.3 1.4 2 3 8.1 1.7 16.7 2.7 25 .3 2.9 1 5.8 1.1 8.7.4 7.8-2.6 12.7-9.7 15.8-3.2 1.4-6.5 2.8-9.9 3.8-12.5-2.7-20.3-14.8-15.8-26 3.4-8.6 5.5-17 5-26.3-.1-1 .2-1.9.6-2.9 4.5-5.1 9.6-6.4 14.7-2.7 3.3 2.5 7.1.3 9.9 2.7" style="fill:#dcd3e1"/><path d="m779 468c0-.5 0-.9 0-1.4 1.3-8.3.2-16.7.6-25-.1-3.1-2-4.6-4.7-5.1-3.5-.7-6.8-2-10.3-2.6-3.7-2-8.1-2.6-11.6-5.1-1.4-.7-2.8-1.3-4.2-2-.7-.2-1.5-.3-1.8-1.2 2.5.2 5 .2 7.4.8 4.3 1.1 8.5 2.6 12.8 3.9 6.2 2.3 14.6 2.9 18 7.4 3.1 4.2.9 12.4 1 18.9 0 2.4 0 4.7-.1 7.1-.4 5.2-.7 10.5-1.3 15.7-.2 1.5-1.3 2.9-2.1 4.3-1.4-1.1-2.7-2.2-4.1-3.2-1.2-4.2-1.5-8.3.4-12.4" style="fill:#e2dde6"/><path d="m745 454c-2.2-1.5-4.5-3-6.7-4.5-2.6-1.3-5-3.1-7.2-5-.4-.4-1.1-.5-1.2-1.3 2.6-1.2 3.7-2.5 1.1-5.1-1.3-1.3-1.5-3.5-2.3-5.3 6.7 4.6 13.4 9.3 20 13.9 4.8.6 6.3 5.2 9.4 7.8.9.8 1 2.1.2 3.2-.8 1.1-1.9 1.6-3.1 1.1-3.3-1.6-7.5-1.6-10.3-4.8" style="fill:#866862"/><path d="m721 418c-4.8.8-8.9 1.2-13.3-2.8-1.5-1.4-7 1.6-10.6 2.6-1.1 1.8.5 4.2-1.5 6.3-3.9-3.4-1.6-7.3-1.2-11 .6-1.1 1.5-1.9 2.4-2.7 10.2-6.7 20-5.9 29 2.2.5.6.4 1.1-.1 1.6v-.1c-.5 1.1-.9 2.3-2.5 2.4-.6.6-1.4 1.1-2.2 1.5" style="fill:#2b2220"/><path d="m726 414c-.1-.3-.1-.6 0-.9-3.9-4.5-3-9.9-2.4-15 .9-7.2 1.6-14.3 2.2-21.5 1-8.4 2.8-16.6 3.8-25 .8-6.1 1.3-12-.4-18-.4-1.3-.6-2.7.4-3.9.7.5 1.4 1 2.1 1.4.8 3.9 2.5 7.9 2.1 11.7-.8 9.9-2.5 19.8-3.9 29.7-.9 13.9-1.9 27.7-2.8 41.6-.3 0-.7 0-1.1 0" style="fill:#f2edf8"/><path d="m707 473c2.6-1.3 5.2-2.7 7.8-3.8 9.1-4 11-8.6 9.6-18.6-1.4-9.9-1.3-20-1.9-30 1 3.1 2.4 6.2 3 9.5.7 4 .6 8.1.8 12 2 6.4 3.4 12.9 1.3 19.6-.4 1.4-1.5 2.2-2.6 3-.1.7-.2 1.4-.3 2.1-.5 1.5-1.9 2.1-3.1 2.8-3.3 1.7-6.9 3-10.4 4.4-1.6.3-3.1.3-4.2-1.1" style="fill:#f3e8f8"/><path d="m772 439c-6.8 9.5-6.3 8.7-14.7 2.3 2.7.8 5.7-2.5 8.3.5-.3-1.9-.5-3.8-.8-5.6 3.2-1.1 6.6-2.8 7.2 2.8" style="fill:#5a453e"/><path d="m772 439c-2.4-.9-4.8-1.8-7.2-2.8 0-.6 0-1.2 0-1.8-.7-1-.8-1.9.2-2.8 5.3 1.9 12.3.3 15 7.3-.4.5-.7.5-1 0-2.4-2.8-4.7-1.4-7.1.1" style="fill:#ac2446"/><path d="m726 462c.1-6.7.1-13.5.2-20 2.3-3.1 2 1.2 3.2 1.1.4.4.8.9 1.2 1.3-5.9 3.2-.6 6.3.1 9.5-2.6 3.3 1.3 6.7-.3 10-2.1.9-3.5.2-4.4-1.7" style="fill:#503758"/><path d="m765 432c-.1.9-.1 1.8-.2 2.8-3.9-2.2-7.8-4.4-11.8-6.6 4 1.2 8 2.5 12 3.8" style="fill:#6a2534"/><path d="m724 417c.8-.8 1.7-1.6 2.5-2.4-.2 1.6-.3 3.2-.5 4.7-.7-.7-1.4-1.5-2-2.3" style="fill:#f2edf8"/><path d="m747 425c.6.4 1.2.8 1.8 1.2-2.6-1.2-5.2-2.4-7.8-3.6 2 .8 4 1.6 6 2.4" style="fill:#5d4a4d"/><path d="m703 125c-1.6-.4-3.2-.8-4.8-1.2-1.8-5.3-5.6-8.2-11-9.4-3.6-.8-7.5-.7-10.4-3.5-.4-.1-.7-.2-1-.4-.4-.6-.3-1.1.3-1.6.8-.5 1.7-.7 2.6-.7 3.9.8 7.5 2.7 11.2 3.2-2.1-.9-4.8-.9-7.1-2.3.5-2.6 2.8-.8 4-1.7.8 0 0-1.2.1-.4.1.3-.1.4-.3.5-1.1.2-2.2.3-2.8-1 0-.6.3-1 .8-1.3 1.9-.7 3.9-.7 5.7.1 1.8.8 3.8.3 5.2 1.1-4.7-1.3-9.8-1.8-14.9-2.8-.5-.2-1-.4-1.5-.7-1.3-1.8-4.4-2.1-4.4-5.1 8.1 2.1 16.3 4.1 24.3 6.4 1.5.4 3.2 2.6 3.4 4.1.1 1.2-1.9 2.9-3.4 3.7-2.5 1.4-3.3 2.7-1.3 5 1.1 1.3 2.2 2.8 3.6 4.6.7-1.5 1.3-2.7 1.8-3.9 0 2.6 0 5-.1 7.3" style="fill:#8d7c86"/><path d="m709 102c0 1.5 0 2.9 0 4.4-.2 0-.4 0-.5 0 0-1.5 0-3.1 0-4.6.1 0 .3.1.5.2" style="fill:#76516f"/><path d="m672 173c-3 1.5-6.1 3-9.4 4.7-.3-4.8-.6-9.3-.9-13.9.3-.3.6-.7.9-.7 11 .7 21.8 1.9 31.9 6.8-.2.7-.2 1.9-.6 2.1-3.4 1.4-3.1 2.3.1 3.7 1.2.5 1.9 2.2 2.9 3.3-8.3-2.1-16.6-4.1-24.9-6" style="fill:#b2d2a6"/><path d="m660 154c8.8 1.4 17.7 2.8 26.5 4.2 1.9.3 3.7.8 5.5 1.2-2.3.6-4.7 1.1-6.8 1.6 2.1 2 4.5 4.3 6.8 6.5-6.6 2-12.5-1.8-18.8-2.2-2-.1-4.2-.7-6.3-1-5.1-.7-7.9-3-7.3-8.5-.2-.6 0-1.3.4-1.8" style="fill:#b2d4a7"/><path d="m660 154c.3 1.3 1 2.7.9 4-.2 3.5 1.4 4.8 4.8 5.2 8.8 1.3 17.5 2.9 26 4.4 1.8.6 3.5 1.2 6.1 2-1.7.3-2.7.5-3.7.7-10.9-2-21.9-4-32.8-6-.4-.1-.9-.1-1.3-.2-2.3-3.3-2.1-6.7-.2-10" style="fill:#445b2d"/><path d="m659 145c8.3 1.6 16.5 3.2 24.8 4.7-.8 0-1.7.1-2.5.1-7.1-.8-14.2-1.6-21.3-2.3-.9-.6-2.1-1-1-2.5" style="fill:#850b16"/><path d="m659 145c.4.8.7 1.7 1.1 2.5 0 1.2 0 2.3-.1 3.4 0 1 .1 2 .1 3 0 0 .1 0 .1 0 0 3.4.1 6.8.1 10-.1.8-.2 1.6-.3 2.3-4-6.8-3.2-14-1-21.3" style="fill:#dc158f"/><path d="m681 281c-4.5-8.7-7.3-17.9-7.1-27.7.1-3.1 1.5-6.2 2.2-9.2 7.3 5.9 14.2 12.2 21.9 17.5 6.8 4.7 8.1 3.9 12.4-3.2 3.6 4.9 2.5 10.9 3.4 16.4 2.3 13.9 4.4 27.9 6.7 41.8.1.3-.2.7-.5 1 0 0 0 .5 0 .5-6.7 0-13.4 0-20 0-1 2-1.9 4.1-4.2 5.2-1 .1-1.7-.2-2.4-.9-4.4-9.7-6.8-20-9.9-30-1-3.7-2.6-7.3-2.4-11.2" style="fill:#dcd2e1"/><path d="m720 318c-3.2-19.7-6.4-39.5-9.6-59 .1-1.2.2-2.3.4-3.5.7.5 1.8 1 1.9 1.6 2.8 19 5.6 38 8.2 58 .2 1.1-.5 2.3-.9 3.5" style="fill:#f6eff6"/><path d="m730 330c5.2 12.3 1 24.4-.5 36.6-.4 3.7-1.3 7.3-1.9 11-3.9.2-4.2-3-4.7-5.6-.6-3-1.1-4.9-5.2-4.6-5.4.4-9.2-3.7-9.8-9.3-.4-3.6-2.5-6.2-5.3-8.2-1.8-1.3-3.8-2.2-5-4.1-.5-4.9 2.6-7.3 6.4-9.2 1-1 2.2-1.8 2.9-2.9 3.9-5.9 9-8.3 15.9-5.9 2.4.7 4.8 1.5 7.2 2.2" style="fill:#dcd2e2"/><path d="m704 337c-2 3-3.9 5.9-5.9 8.9 1.1 1.5 1.3 3.1.2 4.7-.6.4-1.2.4-1.8 0-1.5-5.1-4.3-10-3-15.6 1-2.8 4.6-.9 5.9-3.4-4.7-1.8-5.4-4.9-2.6-8.9 1.2-1.3 2.5-2.6 3.7-3.9 4.2.8 8.4 1.3 12.5 2.3 3.4.8 6.6 2.1 10 4.4-10.2-1.6-15.8 2.9-19 11.5" style="fill:#7c685d"/><path d="m748 489c6.1.9 12.2 1.8 18.3 2.7 4 1.8 8.2-.7 12 .6-1.1-1.4-3-3 .3-4.4 3.9.6 5.4 3.1 5 6.7-1.1 10-2.4 20-3.6 30-7.4-.2-14.8.1-22-.6-6.9-.6-13.6-2.2-20.4-3.3 1.7-4.3 5.8-3.1 8.9-3.7.8.3.4-1.3.3-.5 0 .2-.2.1-.3.2-1.8.5-2.9-.6-3-2-.4-6-3-12.2.5-18 1.9-3.2 1.6-4.9-2.3-5.7-1.4-.3-3.3-1-2.9-3 .2-1.1 1.5-1 2.5-.9 2.2.1 4.6.2 6.7 1.6" style="fill:#e2e3f2"/><path d="m778 488c0 1.5 0 3 0 5-3.6-.4-8-.8-12.3-1.2 1.2 0 2.4-.2 3.5-.1 4.7.4 6.9-1.5 6.6-6.4-.2-4.3-.2-8.6.2-12.9.1-1.6 1.5-3.2 2.3-4.8-.1 4.1-.2 8.2-.4 12.3 0 2.4.1 4.8.1 7.2 0 .3 0 .6 0 .9" style="fill:#99282c"/><path d="m691 150c0-.7-.1-1.4-.1-2.1.4-1 1.3-1.3 2.3-1.4 1 0 1.8.3 2.5 1.1 3.3.8 6.5 1.7 9.8 2.5-.1 1.1-.3 2.2-.4 3.3-4.8-1.1-9.4-2.3-14-3.4" style="fill:#bd1420"/><path d="m695 147c-.5 0-1-.1-1.6-.1-4.1-1.4-8.7.1-12.5-2.4h.1c-.4-.4-.8-.8-1.2-1.3-1.4-3.8-1-6.8 3.5-8.1 5.6 1.1 11 2.2 16.7 3.4-.9 3.3 2.3 9-5 8.5" style="fill:#a0ba82"/><path d="m640 704c-.2 2.8-.2 5.5-.5 8.3-.9 8.1 1 15.2 7.3 20.8-6-1.8-9.7-6.4-9.3-13.5.9-13.5 2.4-26.9 4-40 1.1-9.1 2.8-18 4.3-27 0-.2.2-.4.3-.4.3 0 .7.1 1 .2-2.3 16.2-4.6 32.5-6.8 48.7-.2 1.1-.2 2.3-.3 3.4" style="fill:#f5f2f9"/><path d="m650 625c-.4.5-.8 1-1.2 1.5-3.1-.4-6.2-.9-9.4-1.3-8.1-1.1-8.1-1.1-8.6 6.8-1.9.2-1.9-1.3-2.3-2.4-.3-2.6-.3-5.2-.6-7.7.5-4.3.1-8.7.4-13 .1-2-.5-4.6 2.7-5 0 1.6.1 3.2 0 4.7-.2 13.3-.2 13.3 13.2 15.3 1.9.2 3.9.7 5.8 1.1" style="fill:#675c61"/><path d="m630 629c.3.7.7 1.4 1 2.2-.7 5.7-1.4 11.3-2.1 17-3.9-3.5-2.1-8.6-3.5-12.7-.5-2.5-.9-5 .7-7.3.8-.7 1.6-.7 2.5-.3.6.3 1 .7 1.4 1.1" style="fill:#a1949e"/><path d="m627 636c.7 4.3 1.5 8.7 2.2 13-.4 2.4-.8 4.8-1.1 7.2-1.4-.7-2.1-2-2.5-3.4-.2-5.6-2.2-11.5 1.4-16.8" style="fill:#786c74"/><path d="m626 653c.5.9.9 1.7 1.4 2.6-.5 5.9-.9 11.7-1.4 17.6-.4.1-.7.1-1.1.1-1.1.1-1.7-.1-1.1-1.4.3-.8.6-1.6.8-2.4-1.7-2.4-1.3-5-.9-7.6 1.1-2.6.4-5.7 1.7-8.3.2-.1.4-.3.6-.6" style="fill:#4a3a4d"/><path d="m631 603c-.4 3.8-.7 7.7-1.1 11.5-.3 2.5-.8 5-1.2 7.5-.3.1-.6.2-.9.3-.6-.3-1-.7-1.3-1.3-.6-1.5-.7-3.1-.6-4.6.7-6.5-.3-12.4-5.6-16.9-.8-.4-1.7-.8-2.5-1.2-1.8-5-.1-14.3 3.4-18 1-.6 1.9-1.7 3.3-1.4 5.2 1.9 11.2.8 15.9 4.2 0 .4.1.8.1 1.2 1.8 8.6-2.1 14.5-9.5 18.8" style="fill:#2a1b1b"/><path d="m722 468c1.1-.5 2.2-1 3.2-1.6 1.7.6 3.7.7 4.9 1.8 1.1 1 6.1 2.9.2 4.6-.2.1-.5.2-.5.3-.7 5.9-3.2 8.1-8.8 4.5-.1-.1-1.5 1.2-1.4 1.4.7 1.2 1.6 2.2 2.4 3.2 1.4 1.8 1.1 3.7.9 5.7-.1.5-.3 1.1-.5 1.6-1.6 2-1.5 4.6-2.3 6.9-.2.5-.5 1.1-.8 1.5-.1 10.2-3.3 20-3.3 30-.1.6-.3 1.2-.5 1.8-2.4 4.2-1.5 8.8-1.6 13.2 0 .9 0 1.8 0 2.7-.1 1.5-.1 3-.6 4.4-.2.6-.4 1.1-.8 1.6-2.1 3.6-.4 7.7-1.3 11.5-.3 1-.7 1.9-1.7 2.4-7.6 1.8-14.3-2.3-21.5-3.1-2.1-.9-4.2-1.7-6.3-2.6-1.6-3.9 1.8-2.9 3.5-3.7 3.5-.2 7.3.1 9.1-4 .3-.8.6-1.6 1.1-2.3 2-3 1-6.4 1.1-9.6 1.8-11.5 2.1-23 5.5-34.4 2.3-3.1 1.7-6.7 1.6-10.2.1-2.9-.3-5.8.9-8.6.8-.8 2.4-.6 1.9-2.9-.9-4.5-.1-8.8 4.9-10.7 3.5-1.6 7.7-2.6 10.7-5.7" style="fill:#de092d"/><path d="m686 558c-1.6.8-3.2 1.5-4.8 2.3-5.1-3-10.2-5.9-15.3-8.9-.6-.5-1.3-1-1.9-1.5.2-2.2 1.9-2.3 3.5-2.4 6.5 2.8 13.5 5 18.5 10.5" style="fill:#ac1a3e"/><path d="m688 563c7.3.8 14.6 1.5 21.9 2.3.7.7.8 1.5.2 2.3-.1.4-.2.9-.2 1.3-7.3-1.9-14.6-3.9-21.9-5.9" style="fill:#922934"/><path d="m663 548c-.9 1.4-1.8 2.9-2.7 4.3-.7 2-1.9 1.1-3.1.5-4.3-4.1-6.2-9.1-6.8-15-.8-8.4-1.7-16.8-3.3-25 .3-4.7-1.6-9.1-1.3-13.8.5-3.6-.3-7.1-.5-10.6-1-15.4 5.6-28 13.9-40 1-1.7 2.2-3 4.5-2.6 2.6 2 1.3 4.5.8 6.9-.8 3.6-3.1 6.6-4.2 10.4 5.2 1 8.4-3.7 13-3.5.6.1 1.1.3 1.5.6 1 4.7-2.8 7.4-4.6 11-.7 1.5-2.8 2.8-1.5 4.7 1.3 1.7 3.2.8 4.9.3 1.5-.4 3-1 4.5.1.4.4.7.9.9 1.4-.1 3-2.2 5.9-.6 9 1.1 4.8-.5 9.4-.8 14 0 1.6-.1 3.2-.5 4.8-3.1 12-4.4 24.7-9.4 36-1.1 2.5-1.8 5.3-4.7 6.3" style="fill:#dcd2e2"/><path d="m659 554c.5-.2 1.1-.5 1.6-.7.9.2 2.6.3 2.6.6.5 4.5 1.1 8.9 1.1 13.4.1 11-6.3 16.9-17.3 16.4-2.1-.1-4.3 0-6.4 0-5.6-1.1-11.2-2.3-16.7-3.4-.3-.6-.3-1.2.2-1.7 2.6-1.5 4.8-.8 6.3.3 3.2-8.5-.7-17.8 1.5-26.9 3.7-.7-.5-2.9.7-4.1 1.1-.8 2.3-.3 3.4-.4-.9-.1-2 0-2.7-.8-1.1-1.3-1-2.9-1.3-4.5-1.1-5.9 1-11.8-.7-17.7-.5-1.7-.1-2-2.3-1.5-2 .4-3.5.1-4.7-1.6-.3-.5-.4-1.1-.3-1.7 7.7-3.4 15.2-7.4 24-6.2 2.1 8.7 2.7 17.7 3.7 26.6.6 5.9 2.8 10.3 7.3 13.9" style="fill:#e3c9bd"/><path d="m663 548c3.9-13 7.8-26 11.7-39 .4-1.3.8-2.6 1.2-3.8 2.5 2.2 1.7 5.1 1.5 7.8-2.5 8.7-3.3 17.9-6.9 26.3-1.3 2.9-3 5.6-2.5 8.9-1.4.5-2.8.9-4.1 1.4-.4-.5-.7-1-.9-1.5" style="fill:#4e718f"/><path d="m776 555c-11-.6-21.9-1.2-32.9-1.7-.9.6-1.8.6-2.7.1-.8-.7-1.4-1.6-.9-2.6 3.4-7.1 3.3-15 4.6-22.6.3-1.6-.1-3.8 2.7-3.7 7.8 1 15.6 1.9 23.3 3 3.3.4 8.4.1 9.4 1.9 1.4 2.6-.1 6.8-.6 10.3-.9 5.1-1.9 10.2-2.9 15.3" style="fill:#e3e3f3"/><path d="m741 488c.3.8.5 2.1.8 2.2 5.8.5 5.2 2.6 3.6 7.6-1.7 5.4-.6 11.8-.5 17.7 0 .6 1.9 1.1 3.2 1.8-3.6 1.3-7.1 2.6-10.6 3.8-5.7-1.1-11.3-2.1-17-3.2-1.9.1-3.3-1.1-3.1-2.7.8-6.2-1-12.8 2.1-18.7v.1c1.1-2.3.1-5.3 2.4-7.2 2.2-6.3 3.6-7.2 10-4.9 3 1.1 6.4.5 9 2.6.4.1.5.3.5.6-.2.1-.3.3-.4.3" style="fill:#d8cad6"/><path d="m712 546c-.1-.7-.1-1.3-.2-2 1.7-4.7.2-10 2.4-14.6v.1c1.2-2.4.1-5.1.7-7.5.6-2.7 1.6-5.1 5.1-3.2 3.6 1.1 7.2 2.2 10.8 3.3 3.4 4.2 1.3 8.7.2 12.9-.9 3.7-2.4 7.1-.5 10.9 1.1 2.1-.1 3.4-2.1 4-1.7.5-3.3 1.4-5 1.9-4.4-.5-9.8.7-11.4-5.8" style="fill:#d1c4ca"/><path d="m724 551c2.1-1 4.1-2 4.6-2.2.3-4.5.4-8.2.8-12 .5-4.8 1.1-9.5 1.7-14.3 5.2.8 10.3 1.7 15.5 2.5-.5 3-1 6-1.6 8.9-1.4 6.5-2.9 12.9-4.3 19.4-1.5 1.8-3.2 1.6-4.8.2-.1-.6-.6-1.5.8-1.2-.4-.9-.9-.3-1.4-.1-1.2.6-2.4 1.1-3.7 1.3-3 .3-5.7.1-7.6-2.5" style="fill:#d9cedb"/><path d="m720 519c-1.5 1.4-3.5 2.5-4.3 4.1-1 1.9-1.1 4.4-1.5 6.6.8-10.4 1.6-20.8 2.5-31 .1-.8 1.5-1.4 2.3-2.1-.5 5.2-1.3 10.4-1.4 15.6 0 1.9 1.5 3.9 2.3 5.8.1.4.2.8.1 1.2" style="fill:#922a30"/><path d="m710 568c-.1-.8-.2-1.6-.2-2.3.1-.6.1-1.1.2-1.7 1.7-4-1.2-8.8 2.4-12.4l.1.2c1-1.4 2.5-1 3.8-.8 8.9 1.9 18 2.3 26.8 4.1.1.3.1.6.3.9-2.5 1-5.1 1.9-7.9 3 1.7.8 3 1.5 4.6 2.3-2.6 3.9-5.1 7.6-7.5 11.3-7.5-1.5-15-3-22.6-4.6" style="fill:#d7cbd5"/><path d="m743 555c-10.2-1.1-20.4-2.3-30.6-3.4 0-1.7 0-3.3 0-5 2.7 4.6 7.5 3.9 11.7 4.5 2.8.4 5.6.8 8.4 1.2 1.2-.4 2.3-.7 3.3.3 1.6.3 3.3.6 4.9.9.8.1 1.5.3 2.3.4 0 .3 0 .7 0 1.1" style="fill:#7e6c76"/><path d="m625 520c4.2.3 8.4.6 12.6 1 0 .2.1.4.1.6-1.8.4-3.5.7-5.4 1.1 4 7.5-3 17 4 24-.9.1-2.5.3-4.1.4-.2-.1-.4-.2-.7-.3-1.1-.7-2.3-.9-3.5-1.3-.5-.2-1.1-.4-1.6-.7 0 .4.4.3.6.4 1.4.6 2.9 1.1 4 2.1.6.9 1.6 1.6 1.2 2.9 0 9.3 0 18.6-.1 27.8 0 .3-1.4.8-2.1.7-2.1-.2-4.2-.6-6.3-1-4-2.4-4-7.2-6.1-10.7-.3-1.6-2.2-2.9-.9-4.8v.1c2.3-4.3 2.6-9.3 4.8-13.6 1.5-2.9-1.7-3.8-3-5.4-.5-.8-1.1-1.5-1.6-2.3-1.7-2.9 1-4.7 1.9-6.8 2.1-4.8 3.4-9.9 6.2-14.4" style="fill:#ddbca7"/><path d="m616 508c-.1-1.2-.7-2.6-.2-3.5 2.6-4.8-.1-7.5-3.5-10-2.2-1.7-2.6-3.1-1.2-6.3 1.1-2.5-.5-6.6-1.8-9.7-.3-.8-3.8-.8-5.7-.5-9.1 1.7-8.8 1.8-8.2 11.5.3 5.5-.3 11-.6 16.7-.6-.2-1.1-.7-1.4-1.3-1.3-5.6-.5-11.4-1.6-17-.6-3.1-1-5.4-4.9-4.9-1.1.2-2.6 0-3-1.3-.4-1.7 1.3-2.2 2.4-2.8 2.6-1.4 5.3-2.9 8.3-3 4.7-.2 5.5-2.8 4.8-6.8-.9-5.3-2.2-10.4-3.5-15.6-1-4.1-1.1-8.2.7-12.2 1.2-2.7 2.6-2.9 3.7.2-1.8 10.3 3.5 19.7 4.1 29.7.2 2.6 1.9 3.3 4.2 2.9 2.5-.5 5.1-.6 7.6-1.2 3-.1 7.8-3 8.5.1.9 4.2-4.6 3.4-7.5 4.4-1.1.4-2.9.3-3.1 1.4-.7 4.2 1.7 8.2.6 12.7-.5 1.8 2.3 2.9 4.2 3.7 2.4 1 4.9 1.6 7 3.1.8.6 1.8 1.2 1.6 2.3-.3 1.5-1.7 1.4-2.8 1.4-1.8 0-4-1.6-5.2 1.1-1.2 2.5 2.5 2.8 2.4 4.9-1.8 2-3.8 1.8-5.9.1" style="fill:#83624e"/><path d="m616 508c1.8-.4 3.7-.8 5.5-1.2 0-1.1.6-1.9 1.5-2.3 6.7-2.7 13-6.2 20.5-6.7 1.9.7-.5 2.8 1.1 3.7-2.8 4.1-7.8 4.3-11.7 6.1-4.2 2-9 2.6-12.6 5.8.9 2.2 2.4 1.2 3.6 1 6.4-1 12.6-2.9 19-4.3.9-.2 1.6-.6.1-1-.4-.1-.8-.2-1.2-.2-.5-.2-.9-.5-1.3-.9-.1-3.4 5.7-3.1 4.6-7.1 0-1.6.7-2.5 2.5-2.3.5 4.7 1 9.4 1.4 14-.4.6-.8.6-1.3.2-7.9 2.3-15.8 4.7-23.7 7-.2.2-.3.4-.5.6-1.3.7-2.7 1.3-4 2.1-.5.2-.9 0-1.2-.5-.7-4.7-1.5-9.4-2.3-14" style="fill:#3e6472"/><path d="m591 537c-.1-2.3-.7-4.6-.3-6.9.9-6.1 0-7.1-5.5-5.4-1.8.6-3.9.4-5.9.6-.5.3-1 .3-1.6 0 .4-2.9 3.3-3.8 4.9-5.8 1.9-2.3 2-3.9.1-5.8-1.2-2.4 2.4-2.2 2.2-4.1 2.7-2.3 5.4-4.8 9.5-3.7.2.2.3.4.5.6-4.7 1.9-7.4 5.1-6.9 10.4.1.8-.4 2 0 2.3 7.1 4.9 3.3 11.6 3 17.8" style="fill:#666967"/><path d="m618 522c.3 0 .6.1.9.1 3.4 3 3.1-1.8 4.9-2.3 0 0-.1.1-.1.1.4 0 .7 0 1.1.1-1.6 4.5-3.1 9-4.8 13.4-1 2.7-2.2 5.3-3.3 7.9-.2-1.3-1-3-.5-3.8 3.3-4.9 3.4-10 1.8-15.5" style="fill:#8d7468"/><path d="m619 544c4.1 1.5 6.1 3.5 2.9 8.1-2.2 3.2-3.2 7.3-4.8 10.9.9-3.5 1.3-7.2 2.7-10.5 1.5-3.3 1.3-5.9-.8-8.5" style="fill:#846d66"/><path d="m618 568c1.9 3.6 3.8 7.2 5.7 10.8 0 .4 0 .9 0 1.3-.8.2-1.7.5-2.5.7-1.1-3.7-2.3-7.4-3.4-11-.3-.7-.3-1.3.2-1.8" style="fill:#826b70"/><path d="m597 569c-1.4.9-2.8 1.8-4.3 2.8-.2-1.9-.4-4-.7-6.2.5-.7 1-.7 1.5-.1 1.2 1.1 2.3 2.3 3.5 3.5" style="fill:#8e7056"/><path d="m600 555c-.8-2.8-1.6-5.6-2.4-8.5 2.2 2.5 7.2 4.1 2.4 8.5" style="fill:#7a6561"/><path d="m594 565c-.5 0-1 .1-1.5.1 1.7-2 3.3-4 5-6-1.2 2-2.4 4-3.5 5.9" style="fill:#7e5f48"/><path d="m598 546c-1.2-2.1-2.4-4.2-3.6-6.3 1.2 2 2.4 4.1 3.6 6.3" style="fill:#775b55"/><path d="m618 568c-.1.6-.1 1.2-.2 1.8-.4-2.2-.7-4.3-1.1-6.5.5 1.5.9 3.1 1.3 4.7" style="fill:#79666d"/><path d="m597 559c1.2-1.6 2.4-3.2 3.6-4.8-1.2 1.6-2.4 3.2-3.6 4.8" style="fill:#755b43"/><path d="m624 672c.4.5.7.9 1.1 1.4-.9 6.6-1.7 13.2-2.6 19.7-1.8 13-3.7 26-5.6 39 0-5.1 0-10-.1-15.2 1.6-9.5.7-18.7-2.7-27.7-2.5-6.5-3.7-13-2.1-20 1.2-5.4 1.5-11 3.1-16.6 1.7 5 3.1 10 5.1 15 .7 1.6 2.5 2.8 3.8 4.2" style="fill:#fbf9f5"/><path d="m622 666c-3.2-9.2-6.4-18.5-9.5-27.6 1.9-.5 3.5-1 5.2-1.4-1-1.1-2-2.1-2.9-3.3-.6-.8-1.2-2-1-2.9 1.4-7.2 3-14.4 4.6-21.6 5.9 4.5 8.8 10.3 7.6 17.9-1.7 11.3-.8 22.9-2.1 34-.2 1.6 1.3 4.3-1.9 4.7" style="fill:#fcf9fb"/><path d="m622 666c1-14.3 2.6-28.5 2.6-42.8 0-4.7-4.1-9.4-6.3-14 .8-3.2 1.6-6.4 2.4-9.6 5.8 2.2 8.5 6 7.4 12.5-.6 3.2 0 6.6 0 9.9 1 2.1 1.4 4.1-.3 6-.3 2.4-.6 4.9-.9 7.3-.1 5.9-.2 11.7-.3 17.6-1.3 2.7.1 5.7-.8 8.4-.2 2.7-.4 5.4-.5 8.1-1.2-.9-2.3-2.1-3.3-3.3" style="fill:#d4c7d2"/><path d="m616 734c0 0 .6.1.6.1.1 1.4.1 2.9.2 4.3-.3 0-.6 0-1 0 0-1.5.1-2.9.2-4.4" style="fill:#f0e7f5"/><path d="m656 188c-5.6 16-4.2 32.6-4.6 49-.1 3.5-.6 6.2-4.7 6.7-2-1.5-2.4-4-3.8-5.9-.3-.4-.6-.9-.8-1.3-1.1-2-2.7-3.6-4.7-4.7-.5-.2-.9-.5-1.3-.8-2.2-1.9-5.6-1.6-7.5-4.1 5.8-3.4 3.4-8.2 2.6-13-.6-3.5-2.5-5.1-5.1-6.6.1-.9.5-1.6 1.1-2.3 2.3-2.2 5.5-1.6 8.2-2.8h.1c3.9-2 7.5-4.7 11.2-7.1 2.1-1.5 3.9-3.4 5.9-5 1.2-.7 2.3-1.4 3.4-2.2" style="fill:#d7cad9"/><path d="m628 206c-.4.3-.7.5-1.1.8-.5 1.1-1.3 1.9-2.4 2.4-1.9.7-3.8 1.5-5.8.3-1.7-4.9-3.1-9.7-2.8-15 .2-3.9-2.1-7.1-3.6-10.5-1-2.2-2.3-4.3-2.1-6.7.2-4-1-6.7-5.3-7.3 0-4.9 3.4-7.8 6.2-11.2 1.2-.8 2.6-1.2 4-1.7 1.9-.4 3.8-1.2 5.9-.5 1.2.2 2.5.4 3.7.6.9 8.5 1.8 17 2.6 25.6 1.9 7.7 2 15.4.7 23" style="fill:#d4bfcc"/><path d="m684 135c-.8 2.8-1.6 5.6-2.4 8.4-4.1.6-8 .4-11.8-1.5h.1c-.6-.5-1.4-.6-2.2-.6-8.4-.4-8.4-.4-9.7-8.3 0-.9-.1-1.9-.1-2.8 1.8-1.8 3.7-1.6 5.7-.5.5 2 2.3 2.9 3.7 4.3 2.8 2.8 4.7 2 6.1-1.3 3.5.8 7 1.6 10.6 2.3" style="fill:#add09b"/><path d="m664 132c-2.1-.3-4.1-.6-6.2-.9-1.6-2.4-3.1-4.8-4.7-7.2 1.3.5 2.5.9 3.8 1.4 4.3 1.6 9 1.4 13.3 2.7 1 .3 2.5.1 1.9 2 0 1.1 0 2.1 0 3.2-3 1.8-5.6.8-8.1-1.2" style="fill:#4a3b3c"/><path d="m627 118c.7-.3 1.5-.6 2.2-.9 5.5 5.1 6.8 15.4 2.6 20.3-1.6-5.6-3.2-11.2-4.7-16.7 0-.9 0-1.8-.1-2.7" style="fill:#b21030"/><path d="m628 206c-.3-7.7-.6-15.4-.8-23 .7 1.2 1.8 2.4 2 3.6.3 2.9.4 5.9.1 8.8-.7 5.3 1.3 7.7 6.7 6.8-2.7 1.4-5.3 2.7-8 4" style="fill:#712742"/><path d="m657 133c.4 7.8 7 7.2 11.9 8.9-1 .1-1.9.1-2.9.2-9 .3-9 .3-9-9.1" style="fill:#693e30"/><path d="m647 195c-3.7 2.4-7.4 4.8-11.2 7.1 3.7-2.3 7.5-4.7 11.2-7.1" style="fill:#98253a"/><g style="fill:#663c2a"><path d="m681 145c4.2.8 8.3 1.6 12.5 2.4-1.1.1-2.1.3-3.2.4-3-.9-6.1-1.8-9.3-2.8"/><path d="m669 142c3.9.5 7.9 1 11.8 1.5.1.3.1.6.1.9-4-.8-8.8 2.7-11.9-2.4"/></g><path d="m653 190c-2 1.7-3.9 3.3-5.9 5 2-1.7 4-3.4 5.9-5" style="fill:#98253a"/><g style="fill:#921734"><path d="m613 123c-5.5.1-11-.1-16.4.4-4.1.4-5.2-1.2-5.2-4.9.1-4.9-.1-9.8-.1-14.7.8 4.1 2 8.2 2.2 12.3.2 3.5 1.2 4.9 4.8 4.7 5.5-.3 11-.2 16.5-.3-.6.8-1.2 1.7-1.8 2.5"/><path d="m591 100c.3-1.2.3-2.8 1-3.6 3.5-4.2 7.2-8.2 10.8-12.3-.7 7.7-6.7 11.5-11.8 15.9"/></g><path d="m605 78c2.5-5.6 2.3-11-.1-16.6 5.9 6.1 5.9 11.4.1 16.6" style="fill:#961d34"/><path d="m605 61.7c-.8-1.6-1.6-3.2-2.3-4.8.7 1.6 1.5 3.2 2.3 4.8" style="fill:#9c1d31"/><path d="m603 84c.8-2 1.7-3.9 2.5-5.9-.8 2-1.6 4-2.5 5.9" style="fill:#921734"/><path d="m615 158c-1.1.4-2.1.8-3.2 1.2-3.6 1.7-7.5 1.9-11.3 1.4-2.9-.4-5.3-1.5-4.4-5.3 0-3.3 0-6.5 0-9.8-.6-4.9-1.3-9.7.3-14.5 5.3-.2 10.7-.3 16-.5.8 0 1.5.1 2.3.1 1.6 9.2 2.3 18.3.3 27.4" style="fill:#d7092a"/><path d="m615 158c-.1-9.1-.2-18.3-.4-27.4.8 4.3 1.6 8.5 2.5 13 2.2-4 4.4-8.2 6.7-12.3.4.2.7.3 1.1.5-2.4 5.9-4.6 11.9-7.3 17.6-1.8 4-.9 6.1 3.3 6.9-1.9.6-3.9 1.1-5.9 1.6" style="fill:#48362b"/><path d="m548 138c.8 3.2 1.6 6.4 2.4 9.6 3.2 5.2 6.5 10.4 9.7 15.6 1.8 2.1 1.5 4.7 1.5 7.1-.3 2.4.5 5.1-1.9 7-3.4-5.8-7.5-10.7-13.5-14.3-5.1-3-3.3-8.2-2-13 .8-2.9.6-6.2.6-9.3 0-1.4-.6-2.8-.9-4.2 1.4.5 2.8 1 4.1 1.5" style="fill:#d30926"/><g style="fill:#a6203a"><path d="m560 177c.1-2.6.3-5.2.4-7.8 2.3.8 2.6 2.9 2.6 4.8.2 6.9 1.9 13.7 1.3 20.6-.1 2.2-.3 4.5.3 6.7.2 1 .1 1.9-.2 2.8-.4.9-1.1 1.5-2 2-5.1.8-9.6-.6-14-3-.4-.6-.3-1.1.2-1.6 11.8.4 11.8.4 11.6-11.5.1-4.4-.1-8.7-.2-13"/><path d="m539 199c-.4-.7-.8-1.4-1.2-2.1 3.7 1.5 7.3 2.9 11 4.4-.1.1-.3.3-.4.5-2.9 1.7-5.2 1.2-6.9-1.8-.8-.4-1.6-.7-2.5-1"/></g><path d="m541 200c2.3.6 4.6 1.2 6.9 1.8 4.8 1.2 9.6 2.4 14.4 3.5 4.3-2.1 7.1 2.2 10.9 2.4.6.2 1.2.5 1.8.7 1.1.5 2.2.9 3.3 1.3 9 3 9.4 3 8 11.8-1.7 10.8-.5 21.6-1 32.4-.1 2.5.5 5.2-1.7 7.2-9.5-6-19-11.9-28.4-18-1.2-.8-1.8-3.7-1.4-5.2 1.9-5.8 4.2-11.5 6.7-17 1.5-3.3 1.5-4.5-2.5-5.4-7.4-1.8-14.6-4.3-22-6.6 1.7-2.9 3.4-5.8 5-8.8" style="fill:#ccb3be"/><path d="m584 261c.7-15 1.4-30 1.9-45 0-1-1.8-2.5-3-3.1-3.1-1.5-6.3-2.7-9.5-3.9.8-.7 1.8-1.2 2.7-.9 8.6 2.9 17.7 2.2 26.5 3.8.6.3.9.9.9 1.6-1.3 2-3.4 2-5.3 1.8-3.8-.3-6.4 1.2-8.4 4.3-.4.3-.9.6-1.4.8-2.5 11.6-.9 23.4-1.5 35-.1 2.4 1.3 5.7-2.6 6.8-.2-.4-.2-.7-.3-1" style="fill:#705862"/><path d="m584 262c.3-2 .9-4 1-6.1.5-12.3.9-24.5 1.3-36.8 0-.3.3-.6.5-.9.3.4.6.8.9 1.2 1.2 1.5 1.5 3.2 1.3 5-1.9 15.4-1.2 30.9.5 46 1.7 2 2.2 4.3 2.2 6.8-3.6 3.5-5.3 3.3-7.8-1 .4-1.6.9-3.2 1.3-4.8.7-1.6 1.1-3.1-.2-4.6-.4-1.7-.7-3.4-1-5.1" style="fill:#ceb6c0"/><path d="m584 277c2.4.5 4.9.9 7.3 1.4.7-.8 1.5-.8 2.4-.3 1.6 3.5.4 5.6-3.3 6.4-1.5.3-2.9 1.1-4.4 1.6-4.2-1.2-9.3-1.4-9.2-7.7.2-1 .9-2.3.5-2.9-1.5-2.4-3.4-4.5-5.2-6.8 4 2.7 7.9 5.5 11.9 8.3" style="fill:#b2172a"/><path d="m553 254c-1.6-1.8-3.1-3.6-4.7-5.4 2.1 1.7 4.2 3.5 6.2 5.2-.5 0-1 .1-1.5.2" style="fill:#9e303c"/><path d="m585 267c.4-.3.8-.5 1.1-.8-.3 1.8-.6 3.6-.9 5.4-.1-1.5-.1-3-.2-4.6" style="fill:#7e7f85"/><path d="m577 278c3.2 2.4 6.4 4.7 9.6 7.1 5.5 1.7 10.5 4.2 14.3 8.6 3.5 4 9 5.4 12.3 9.7 3.6 3.7 6.7 8.2 12 9.7 3 1.6 6.3 3 5 7.5-5 6.3-4.1 14.2-5.4 21.5-2.9 2.3-5.3.7-7.2-1.4-6.9-7.4-14.9-13.4-23-19-1.6-1.1-2-2.8-2.9-4.4-1.2-2.6-3.8-3.8-5.8-5.5-5.5-5.7-12.3-9.8-18.4-14.8-6.4-5.3-13-10.2-19-15.8-4.7-4.5-3-14 2.8-16.3 2.1-.8 5.3-.3 7.4.8 4 2.1 7.6 5 11.4 7.6 1.1 1.7 3.4 1.2 4.6 2.6.6.7 1.4 1.4 2.3 2.2" style="fill:#6e4a44"/><path d="m567 297c6.4 4.7 12.8 9.4 19 14 2.6 6.9 2 13.8.8 20.8-2.6 2.4-2.3-.7-3.1-1.7 0-4.5-.1-9-.2-13.5-.1-6.9-3.4-10.2-10.4-10.3-3.7-.1-7.5.2-11.2-.1-1.6-.1-3-1.5-4.5-2.2 4.8 0 9.7 0 15.4 0-2.4-2.8-4.2-4.9-6-7.1" style="fill:#86181f"/><path d="m574 276c-1.5-.9-3.1-1.7-4.6-2.6 1.5.9 3.1 1.7 4.6 2.6" style="fill:#b2172a"/><path d="m518 287c2.1.2 4.6-.2 6.1.8 3.2 2.2 5.8 5.1 7.9 8.7-1.7-1.5-3.3-3.2-5.2-4.4-2.6-1.7-5.4-3-8.2-4.5 0-.3-.2-.5-.6-.6" style="fill:#725b66"/><path d="m531 305c1 1.2 1.7 1.8 2 2.6.1.2-1 1.3-1.4 1.2-.6-.1-1.3-.8-1.5-1.4-.2-.5.4-1.2.9-2.4" style="fill:#6c5862"/><path d="m594 506c-3.2 1.6-6.4 3.1-9.6 4.7-6.2 2.9-12.4.5-18.6-.3-3.4-6.2-1.6-13-2.4-19.6-1.1-9.1-2.5-18.3-3.2-27.5-.4-5.1-3.1-8.5-7.4-11.3-2.1-1.3-4.4-2.6-6.3-4.3-.2-.4-.4-.6-.7-.8-6.4-2.8-3.3-7.1-1.8-11.2 4.7-4.4 10.8-2.4 16.2-3.2 7.1-1.1 14.3-1.8 21.4-2.9.6-.2 1.2-.4 1.8-.5 3.7-.3 7.5-.8 11-2 .5-.2 1.1-.3 1.7-.4 2.6-.1 5.1-1.5 7.7-.2 1.8 6.2-.6 11.2-4.7 15.6-.1-.2-.1-.4-.2-.6-.2-.2-.5-.3-.8-.5-.3 4-1.3 8.1-.8 12 .8 6.8 2.6 13.5 3.8 20 .5 2.7-.3 4.1-3.6 4.6-4.6.6-9 2.2-14.3 3.6 1.4.8 1.7 1.2 2 1.1 7-1.5 7.1-1.6 7.9 5.9.4 5.8.5 11.7.8 17.6" style="fill:#d6ac8d"/><path d="m547 447c11.6 3.6 14.8 12.5 15.6 23.6.9 12.8 2.4 25.5 3.6 38 .7 3.5.2 7 .5 10.4.2 2.8 2 3.5 4.5 3.6 2.3.1 4.8-.4 6.7 1.5.5.1 1 .2 1.6.3-2.8.6-5.7 1.9-8.5 1.8-6.1-.3-6.5 3.7-7.2 8.1-.4 2.7-1.6 5.2-2.4 7.8.8-14.6 2.3-29 2.1-43.7-.2-12.2-2.1-24.4-3.9-36.4-.5-3.3-3.3-6.3-5.6-9.1-2-2.3-4.6-4-7-6.1" style="fill:#7e5f5a"/><path d="m545 436c-1.9 3.9-2.7 7.6 1.2 10.8-2.5-1.6-5-3.3-7.5-4.9 1.5-1.9 3.1-3.8 4.6-5.7.5-.6 1.1-.6 1.7-.2" style="fill:#7f5e5b"/><path d="m537 388c4.5.6 9.1 1.2 13.6 1.7 9.8-.4 19.7-.9 29.5-1.3 2.5-.1 5.1-.2 7.6-.3 3.8 5.4 1.8 11.7 2.9 17.5-.1.7-.3 1.3-.6 2-1.6 2.5-4 3.9-6.8 4.6-5.2.6-10.5.3-15.7.3-1.9 0-3.9 0-5.3-1.8-6.8-.4-13.6-.9-20.4-1-3.4 0-5.2-.9-5-4.6 0-5.7.1-11.4.2-17" style="fill:#ceb6c0"/><path d="m590 407c-.5-6.4-1.1-12.9-1.6-19.3-.7-11.4-1.4-22.8-2-34 0-1.6 0-3.3-.1-4.9 0-.8 0-1.5 0-2.3-.6-4.8-.8-9.5 0-14.3.1-7.2.1-14.4.2-21.5 2 1.7 4 3.3 6 5 3.6 12.3 2.1 25.3 5 37.7 0 1 0 2 0 3 .1 6.1.2 12.2 0 18.2-.1 4.5.2 8.2 5.7 9.2 1.1.2 2 1.2 2.4 2.4-.1.4-.2.7-.5 1-2 2.2-7.3-1.4-7.4 3.6-.1 6-2.1 12.6 3.3 17.7.4.4.7.9.9 1.5-2.3 3-4.6 2.1-6.8 0-1.1-1.1-1.8-2.6-3.7-2.2-.5-.1-1-.3-1.4-.7" style="fill:#392924"/><path d="m525 382c-1.3 8-2.5 16-3.8 24-.1.8-.8 1.6-1.2 2.4-3.5-1.6-7.1-3.3-10.6-4.9.3-5.2 1.6-10.3 3.3-15.3 1.3-3.8 3.4-7 7.5-8.4 1.5.7 3.2 1.5 4.8 2.2" style="fill:#cdb6c2"/><path d="m520 380c-6.5 4.3-7.8 11.2-9.3 18-.4 1.9-1 3.8-1.4 5.6-.3 0-.7.1-1 .1 1.1-5.1 1.4-10.5 3.5-15 1.7-3.8 5.4-6.7 8.2-10 0 .4 0 .8 0 1.3" style="fill:#78606b"/><path d="m522 336c.8 3.1 2 6.2 2.2 9.3.2 3.2-.6 6.5-.9 9.7-.4 0-.7 0-1.1.1-.1-6.4-.2-12.7-.2-19" style="fill:#7c6470"/><path d="m590 407c.4 0 .8 0 1.2-.1 4.3.9 1.9 5.9 4.8 7.6.9 1.8-.3 2.6-1.5 3.4-.5.3-1 .5-1.5.7-2.7.6-5.3 1.4-7.8 2.3-1.1.3-2.2.5-3.3.6-2.5.5-5 1.1-7.5 1.8-2.3.6-4.7.4-7 1.2-1.5.3-3 .4-4.5-.1-3.2-2-.6-2.9.9-3.4 6.3-2.1 12.3-5.1 18.7-7-9.7 2.8-18.6 7.8-28.4 10.4-2.2 0-4.4.1-6.6.1.3-1.5 1.1-3.1.9-4.5-1.6-8.5 3.3-9.4 9.8-8.8 8.4-.5 16.7-.1 25-.2 3 .1 5.1-1.5 6.7-4" style="fill:#d5ae90"/><path d="m585 412c-9 0-18-.1-27-.1 1.6-.3 3.1-.7 4.7-1 7.5 0 14.9.1 22.4.1.3.2.4.4.3.6 0 .3-.2.4-.3.4" style="fill:#744a34"/><path d="m567 424c2.2-.4 4.4-.7 6.6-1.1 2.6-1 5.7 0 8-2.2.9-.1 1.8-.1 2.8-.2 2.9-1.1 6.3-.2 8.9-2.4 3.1-1.4 6.7-1.4 9.6-3.3 5.3-.4 10-4.6 15.7-2.4.6.3 1.1.7 1.5 1.3 1.3 3 1 5.9-.9 8.7-1.1 1.4-2.7 1.9-4.4 2.1-6.5.7-13 1.1-19 3.3-3.9 1.3-8.2.4-11.9 2.4-11 1.1-22 3.6-33 3.6-2.9 0-5.9.6-8.5 2.2-.4 0-.8 0-1.2 0-.8-2.1-1.5-4.3-2.3-6.4 2.3-.6 4.5-1.3 6.8-1.7 4.1-.8 8.3-1.5 12.4-2.3 1.1-1.4 2.5-1.1 3.9-.8 1.9-.4 3.8.7 5.4-.8" style="fill:#d90926"/><path d="m562 425c-1.5.1-3 .1-4.5.2-1.4-.1-2.7-.2-4.1-.4 9.9-4.1 19.8-8.1 29.8-12.2.2.6.4 1.1.6 1.7-7.3 2.8-14.5 5.6-21.8 8.4-.1.1-.4.3-.3.4.1.3.3.7.5 1 .4.4.3.7-.2.9" style="fill:#826347"/><path d="m542 436c1.7-.8 3.4-2.3 5.2-2.5 12-1.2 24.3-2.2 36.5-3.3-10.9 1.6-21.8 3.2-32.7 4.8-2.1.3-4.1.7-6.2 1.1-.5.1-1.1.1-1.6.2-.5-.1-.9-.2-1.2-.3" style="fill:#9d1927"/><path d="m518 360c.4.9 1.1 1.8 1 2.7-.3 3.1-.8 6.2-1.5 9.2-.1.5-1.5.8-2.4 1.1-.5-1.3-1.6-2.7-1.5-3.9.4-2.9 1.3-5.6 2-8.4.9-.2 1.6-.4 2.4-.7" style="fill:#5f4544"/><path d="m515 331c-1-1.2-1.9-2.4-2.9-3.6 2.1 1.2 4.2 2.3 6.4 3.5-.2.5-.6.9-1.1 1.1-.8-.3-1.6-.7-2.4-1" style="fill:#948b8e"/><path d="m517 332c.4-.4.7-.7 1.1-1.1 1.2 1.6 2.4 3.2 3.5 4.9-1.5-1.3-3.1-2.6-4.6-3.8" style="fill:#6f5b61"/><path d="m490 435c.4-.1.8-.1 1.1-.2 0 2.9.1 5.8.1 8.7-.4-2.8-.8-5.7-1.2-8.5" style="fill:#978d93"/><path d="m556 570c-2-1.6-4-3.2-5.9-4.8 1.9 1.6 3.9 3.2 5.9 4.8" style="fill:#856c47"/><path d="m591 568c-1.3 1.5-2.7 3-4 4.5-.3-.2-.6-.5-.9-.7 1.2-1.6 2.4-3.1 3.7-4.7.4.3.8.6 1.2.9" style="fill:#795238"/><path d="m560 573c-1.1-.9-2.3-1.8-3.4-2.7 1.1.9 2.3 1.8 3.4 2.7" style="fill:#8c7052"/><path d="m596 155c2 1.3 3.9 3.2 6.1 3.7 3.1.6 6.4.2 9.6.2-2.1 3.5-4.2 7-6.3 10.4-2.9 7.6-7.8 14-12.5 20.6-1.3 1.8-3.4 1.7-4.5-.2-4.5-7.9-10.5-14.9-14-23.4-.2-.5 0-1.2.4-1.6 1.6-1.2 3.2-2.5 4.8-3.7 2.2-2 3.4-5.3 7.2-5.1 3.1-.2 6.2-.6 9.2-.9" style="fill:#543830"/><path d="m586 156c-2.4 1.7-4.8 3.4-7.2 5.1-.4-.6-.8-1.7-1.3-1.8-2.6-.6-7-.1-7.6-1.5-1.8-3.7-2.2-8.2-3-12.4-.2-1.1-.1-2.4-.1-3.5-.2-12-.2-12 12.2-11.7 3.3.1 4.6 1.1 4.5 4.4-.1 5.5-.1 11 0 16.5 0 .2 1.2.4 1.8.6.3 1.4.5 2.9.7 4.3" style="fill:#ca0d26"/><path d="m575 129c-3.5-.6-9.3 3.5-9.1-4.5 3.2 1.2 9.3-3.7 9.1 4.5" style="fill:#f6f0ee"/><path d="m586 150c-.2-5.6-.3-11.2-.5-16.8.2 5.6.3 11.2.5 16.8" style="fill:#ca0d26"/><path d="m596 131c-.1 4.8-.2 9.7-.3 14.5.1-4.8.2-9.7.3-14.5" style="fill:#5a3548"/><path d="m574 165c5 8.5 10 16.9 15.6 26 5.3-7.6 10-14.6 15-21.6 5.3-1.3 5-1.2 6 5.1.6 3.5 2.5 6.8 3.3 10.4 1.4 6.4 2.5 12.9 3.7 19.3.3 1.6.2 3.4.3 5-.4 1.8-1.9 2.1-3.3 2.7-.6.2-1.1.4-1.7.5-3.5-.1-7 1.5-10.5-.2-10 .6-20-.3-29.7-3.5 0 0 .1.1.1.1-3.2-1.5-6.6-2.6-9.3-4.8-.1-.8-.2-1.5-.4-2.3-1-2 .1-4.3-.8-6.3-.8-8.8-1.6-17.6-2.4-26.3 0-2.1 0-4.2 0-6.4 1.9-4.9 7.3-5.7 11.4-1.5.9 1 1.8 2.3 2.7 3.6" style="fill:#cbb3bf"/><path d="m599 635c1.1 1.9 2.4 3 2.2 4-.2 1-1.6 2.5-2.5 2.6-.8.1-2.6-1.6-2.5-2.4.1-1.3 1.5-2.3 2.8-4.2" style="fill:#826975"/><path d="m587 608c1.5.3 3.1.6 4.6.8-.1.4-.2.8-.2 1.1-1.5-.3-3.1-.6-4.6-1 .1-.2.2-.6.2-.9" style="fill:#765f73"/><path d="m586 333c0 4.8 0 9.5 0 14.3-.7-5.6-1.4-11-2.1-16.7.7.8 1.4 1.6 2.1 2.4" style="fill:#a10f20"/><path d="m679 102c7.1 1.4 14.2 2.8 21.4 4.2-.1.7-.3 1.4-.4 2-5.4-.9-10.8-1.8-16.2-2.7-.8-.7-1.8-.6-2.8-.5.9.1 1.9-.1 2.7.6 1.2.6 2.3 1.2 4.7 2.3-2.7 0-4.3 0-5.9 0-.3 0-.5 0-.8 0-2-.1-4.1 0-6.1.4-2.7-.3-5.4-.4-8-.6-2-.6-4.1-.8-6.2-1-.5-.8-1-1.6-1.4-2.4 4.9-1.9 9.4.7 11.9.8-2.5.2-7-2.9-11.9-.8-.8-1.5-2.4-3.4-2-4.5.5-1.3 2.7-2.6 4.3-2.7 4-.3 8.1.1 12.2.3 1.4 1.6 3 3.1 4.5 4.6-6 .4-11.8-1.6-14.8-1.7 3-.1 8.7 2.2 14.8 1.7" style="fill:#b7b2b7"/><path d="m676 111c4.8 1.1 9.9 1.4 14.2 3.5 3.6 1.7 6.1 5.6 9.1 8.5-.6.3-1.2.7-1.8 1-6.6-1.3-13.3-2.6-19.9-3.9-.9-.4-1.8-.7-2.7-1.1.3-2.7.7-5.3 1.1-8" style="fill:#d0c4cb"/><path d="m661 107c1.9-.1 3.7-.2 5.6-.3 2.3 2.4 6.5-1 8.4 2.7 0 .3 0 .7 0 1-4.1-.5-8.3-.9-12.4-1.6-.6-.1-1.1-1.2-1.6-1.8" style="fill:#918e96"/><path d="m669 108c.6 1.8 1.8 3.7 1.4 4.1-1.2 1.2-2.9 2.1-4.6 2.6-.7.2-1.8-.9-2.7-1.4 1.4-1.3 2.7-2.5 5.9-5.3" style="fill:#766d78"/><path d="m668 118c-4.3-.2-8.5-.3-12.8-.5 0 0 0-.4 0-.5.3-.2.7-.3 1.1-.4 3.9.5 7.8 1 11.7 1.4" style="fill:#372725"/><path d="m664 132c2.7.4 5.5.7 8.2 1.1.4.2.8.3 1.2.5-.5 1.7-1 3.4-1.5 5.1-1.4-.6-3.1-1-4.2-2-1.5-1.4-2.5-3.2-3.7-4.7" style="fill:#dff5d9"/><path d="m672 129c-5.1-1.6-10.2-3.1-15.2-4.7 5.1.8 10.2 1.5 15.4 2.4 0 .1-.2 1.5-.2 2.3" style="fill:#7e5a60"/><path d="m629 321c-1.7-2.3-3.4-4.6-5.1-6.9-.2-.3-.5-.6-.8-.8-2-.8-4.6-1.5-4.2-4.1.5-2.9 3.4-1.6 5.4-1.9 6.2-1.1 12.6-1.3 18.7-3 4.8-1.9 10.3-.8 14.9-3.6-4.9 3-11 1.2-16 4.2-2.7.5-5.4 1.2-8.2.1-2-3 .3-3.5 2-4.2-1.2-.2-3.3.2-3.8-2-.4-2.1 1.5-2.6 2.9-2.9 3.7-.8 5-3.3 5.4-6.7.3-2.7.6-5.5 1.2-8.1 1.1-5.4 0-10-4-13.9-1-4.3 4.4-5.6 4.4-9.4.3-.6.7-1.1 1.2-1.4 1.6-.8 3.1-.6 4.5.5v.1c.9 3.5 3 6.4 4.7 9.5.1.7.1 1.5.2 2.2 1.9 3.1 3 6.5 4.5 9.7.8 2.3 1.7 4.7 2.5 7 .8 1.6.7 3.6 2.2 4.8 2.3 1.5 4.5 3 6.8 4.4 1.9 2.6-.3 6 1.7 8.6 0 2.6 1.1 4.9 2.2 7.2.3 1.2.5 2.4.5 3.7 0 4.8-.6 9.6 1.8 14 .4 1.3.5 2.6.6 4 .1 4.7 0 9.5.1 14.2-.5 3.9 1.7 7.3 2.2 11 .1.6.1 1.2 0 1.8-.2 1.9.1 4.3-2.3 5-2 .6-3.4-1-4.5-2.3-4.8-5.6-10.2-10.4-15.5-15.4-2.7-2.6-5.3-5.3-8-7.9-5.7-6.1-11.3-12.5-18.2-17.5" style="fill:#ec0d3d"/><path d="m643 256c-.2.2-.3.5-.3.8-4.1 8.3-10 11.2-19.3 9.6-1.6-.5-.4-2.7-2.7-3.7-3.3-1.3-2.9-5.3-1.9-8.3.8-2.1 2-5.2 5.6-3 1.2 1.9.7 4.3 1.3 6.3 1.1 1.8 2.3 1.7 3.3 0 .3-4 1-7.7 5.9-8.7 1.6-.3 2.5-1.7 2.2-3.5-2.6-2.4-5.4-4.5-6.7-7.9-.5-.6-1-1.3-1.5-1.8-1.3-1.7-5.8-.3-4.8-3.6.9-2.8 4.3-1.8 6.8-1.3.5.1.9.9 1.3.4-1-2.2-6.6 1.5-4.8-4.2 3.4.1 6.6.9 9.4 2.8h-.1c2.4 1.6 4.4 3.6 6 6 1.7 2 1.9 4.6 2.6 7.1-.1 2.8-.2 5.5-.4 8.3-.3 1.8.1 3.8-1.9 4.8" style="fill:#d7c5cf"/><path d="m669 303c-2.5-2.8-1.6-5.7-.5-8.7.5-1.3.7-3.1 1.7-4 2.6-2.3 5.6-4.3 8.4-6.3 2.9-1.6 2.7 1.1 3.2 2.5 1 3.4-.3 6.6-.8 9.9-.3 2.3-1.3 4.6-.6 7 .1 1.3-.1 2.5-1.3 3.4-.7.4-1.4.6-2.2.9-6 1.9-6.8 1.5-7.9-4.7" style="fill:#afd39e"/><path d="m680 304c.4-4.1 1-8.3 1-12.4 0-2.5-1.1-5-1.7-7.5.8-.9 1.5-1.7 2.3-2.6 1.2 3.6 2.3 7.2 3.5 10.8-.4.3-.8.5-1.2.6-2 3.5.1 8.4-3.9 11" style="fill:#848e7c"/><path d="m657 278c-1.5-3.2-3-6.5-4.5-9.7 4.5 1.8 4.8 5.6 4.5 9.7" style="fill:#921e2d"/><path d="m653 266c-3.6-2.2-5.6-5.1-4.7-9.5 1.6 3.1 3.2 6.3 4.7 9.5" style="fill:#9a192a"/><path d="m643 256c.7-1.6 1.3-3.2 2-4.8.8 1.6 1.7 3.1 2.5 4.7-1.5.1-3 .1-4.5.1" style="fill:#80254a"/><path d="m646 243c-.9-2.4-1.7-4.8-2.6-7.2 1.2 2.4 2.4 4.8 3.6 7.1 0 0-.5.1-.5.1h-.5" style="fill:#86757c"/><path d="m662 290c-.7-1.6-1.5-3.2-2.2-4.8.7 1.5 1.5 3.1 2.2 4.8" style="fill:#911f38"/><path d="m731 463c-.8-2.9-1.7-5.7-2.3-8.6 0-.1 1.5-.6 2.4-1 5.4 3.6 10.9 7.1 16.3 10.7-2 3.3-4.7 5.8-8.3 7.2-2.6-2-5.2-4-7.8-6.1-1.1-.6-1-1.4-.3-2.2" style="fill:#865858"/><path d="m745 454c3.5 1.2 6.9 2.6 10.4 3.7.7.2 1.7-.2 2.4-.7.2-.2 0-1.6-.5-2-2.8-2.8-5.7-5.5-8.5-8.2 4.2 2.6 8.5 4.9 12.3 7.9.6.5-.9 4.5-2.3 6.1-.8.9-3.8 1-5 .2-3.1-2-5.8-4.6-8.8-7" style="fill:#7b393e"/><path d="m739 472c2.8-2.4 5.5-4.8 8.3-7.2.8.4 1.7.8 2.5 1.3 2.7 3.3-.1 5.2-2 7.3-1.4.5-3 1.6-4.2 1.3-1.6-.3-3.1-1.8-4.6-2.7" style="fill:#644d47"/><path d="m741 487c-3.3-.5-6.8-.5-9.8-1.6-4.6-1.6-7.4-.4-9.1 3.9.1-2.3.2-4.7.2-7 1.5 0 3-.1 4.5-.2 2.3.9 5.2-.1 7.2 2.1 2.3 1 4.7 1.9 7 2.8" style="fill:#922a30"/><path d="m742 479c-2.7.3-4.3.8-5.7.6-1.7-.3-3.3-1.1-4.9-1.8-.1 0 .5-2.3.9-2.3 1.8-.1 3.8-.1 5.5.4 1.2.2 2.1 1.4 4.2 3.1" style="fill:#de092d"/><path d="m779 439c.3 0 .7 0 1 0-.3 8.9-.6 17.8-.9 26.7 0-8.9 0-17.8-.1-26.7" style="fill:#6c4225"/><path d="m748 473c.7-2.4 1.3-4.9 2-7.3 4 4.2 3.5 6-2 7.3" style="fill:#9d1f37"/><path d="m731 444c2.4 1.7 4.8 3.4 7.2 5-2.4-1.6-4.8-3.3-7.2-5" style="fill:#783232"/><g style="fill:#de092d"><path d="m734 484c-2.4-.7-4.8-1.4-7.2-2.1 2.7-.6 5.8-2.2 7.2 2.1"/><path d="m731 463c.1.8.2 1.5.2 2.3-2-.4-4-.7-6-1.1.4-.8.7-1.6 1.1-2.4 1.6.3 3.1.7 4.7 1.2"/></g><path d="m741 488c-.1-.3-.2-.7-.3-1 2.4.7 4.9 1.3 7.3 2-2.2-.4-4.6-.7-7-1" style="fill:#922a30"/><path d="m674 461c-1.9.8-3.7 1.8-5.7 2.4-3.3.9-6.8 1.6-10 2.4 2.4-7.1 4.5-13 6.5-19-2.5-5 2.1-8.7 2.4-13.2 2.5-2 6.9.4 8.4-3.7 1.5-1.3 1.7-3.1 1.6-4.9 0-.9 0-1.7.2-2.6 3.1-9.2 7.3-11.9 15.8-10.4.9.3 1.7.9 2.2 1.7 0 3.1 0 6.2 0 10.9 1-3.1 1.6-4.7 2.1-6.3 1.1 10.6-.2 20.4-4.9 30-4.5 9.4 2.5 19.4 14.7 24 1.6-.2 3.2-.4 4.8-.5.6 1 .7 1.9-.3 2.8-5.8 2.2-4.5 7.2-4.7 11.7 0 .1-1 .1-1.6.1-1.2-.5-1.4-2-2.5-2.5-.5-.3-1.2-.6-1.7-.3-6.5 4.2-13.8 3.3-21 3.7-1.3.2-2-.8-2.8-1.5.4-2.8.8-5.7 1.2-8.5 5.5-3.5 9.6-7.8 9.2-16.2-5.4 4.9-4.9 12-9.1 16.3-1.8.3-3.7.8-5.5.7-2.2-.1-4.4-.6-6.5-.9.5-1.6.7-3.4 1.6-4.9 2.4-3.9 5-7.7 7.5-11.6-.4-4.1 2.2-7.8 1.9-13-1.9 5-.6 9.7-3.7 13" style="fill:#44302f"/><path d="m698 350c.1-1.5.2-3.1.3-4.6 3.5 2.9 7 5.8 10.4 8.8.8.7 1.4 2.2 1.2 3.1-.7 2.9-1.1 5.5 2.6 6.5 2.4.6 5.1.7 7.3 1.8 1.8.9 3.3 2.6 4.4 4.3 1.5 2.3 2.4 5 3.6 7.5-.7 6.6-1.7 13.2-1.9 19.8-.2 5.4.4 10.8.7 16.2-9.2-6.1-18.6-8.7-28.5-1.7-1.8.4-2-1-2-2.1.1-7.3-1.8-14.3-2-21.5 0-2.1-.1-4.1 0-6.2.6-6.1-1.2-12.4 1.3-18.3 2.5-1.4 2.3.8 2.8 2.1.7 1.7-.7 3.9 1.4 5.1 1-1.2.5-2.6.6-4 .3-2.7-1.9-3.5-3.5-4.7-2.3-4.4-1.3-8.4 1.3-12" style="fill:#dfdbe9"/><path d="m695 388c.8 7.8 1.6 15.6 2.4 23.4-.7.5-1.5 1-2.2 1.6-.8 0-1.5-.1-2.3-.1-1.2-2-5.3-2.8-2.4-6.3 2-.6 3.2.4 3.8 2.2-1.2-5.4-1.5-10.8-1.9-16.2 0-1.8-.1-4.2 2.6-4.6" style="fill:#5d4943"/><path d="m712 475c.1-.9.2-1.8.3-2.8 3.2-1.3 6.4-2.7 9.6-4-3.3 2.3-6.6 4.5-9.9 6.8" style="fill:#aa2049"/><path d="m682 108c2.7 1 5.4 2 8 3 0 .2 0 .4 0 .6-4.3-.9-8.6-1.8-12.9-2.7-.2-.7 0-1.1.6-1.4 1.5.1 3-.5 4.3.5" style="fill:#c9b5c4"/><path d="m678 108c0 .3 0 .6-.1.8-.7.1-1.5.2-2.2.3-2.8-.9-5.6-1.8-8.4-2.7 3.3.4 6.6.8 9.9 1.2.4-.3.7-.2.8.4" style="fill:#f8f5f7"/><path d="m684 292c.4 0 .7 0 1.1 0 3.1 10.3 6.3 20.7 9.4 31-.3 0-.6 0-.9 0-1.7-.9-2.3-2.5-3-4.2-2.7-7.1-4.4-14.5-6.7-21.8-.6-1.6-.8-3.4.1-5" style="fill:#888297"/><path d="m697 322c.7 2.4-3.8 7.8 3.7 6.2.1 0 .7 1.1.6 1.6-.3 1.3-.6 3.4-1.4 3.7-1.4.5-3.2 0-4.9-.1-2.1-3.5-2.1-7.1-.2-10.7 0 0-.1.1-.1.1.8-.3 1.6-.6 2.3-.8" style="fill:#5e4f52"/><path d="m692 380c.7-4.4 1.5-8.8 2.2-13 .9-5.5 1.6-11 2.5-16.5.3 0 .7 0 1-.1.1 4.1.2 8.2.3 12.3-.1.5-.4.8-.9.8-.6 3.8-1.2 7.7-1.7 11.5-.3 2.5-.2 5-.3 7.5-1.7.3-3.4.2-3.1-2.4" style="fill:#928b97"/><path d="m711 323c-2.8.9-5.6 1.9-8.4 2.8-.1-.4-.3-.8-.4-1.2 2.7-.9 5.5-1.9 8.2-2.8.2.4.4.8.6 1.2" style="fill:#513b32"/><path d="m630 629c-.4 0-.8 0-1.2 0-.8-2.4-.9-4.8 0-7.1.5 2.4.9 4.7 1.2 7.1" style="fill:#f5e7ec"/><path d="m629 622c0 2.4 0 4.7 0 7.1-.4-.4-.8-.8-1.2-1.2.1-2 .2-4 .3-6 .3-.1.6-.1.9.1" style="fill:#675c61"/><path d="m626 662c.3-2.8.6-5.6.8-8.4-.2 2.8-.5 5.6-.8 8.4" style="fill:#786c74"/><path d="m627 583c3 3.5 6.1 5.6 6.1 7.7 0 1.7-3.4 4.6-5.6 5-3.6.5-6-2.3-5.4-6 .2-1.9 2.4-3.4 4.9-6.7" style="fill:#ccbcc4"/><path d="m704 483c.5 1.1.9 2.1 1.4 3.2-.2 3.2-.4 6.4-.7 9.6-1.8 3-.1 6.9-2.2 9.8-1.6 11.7-3.2 23.4-4.9 35-1.8 3.2-.2 7.2-2.3 10.3-.2.7-.4 1.4-.6 2.1-.7.7-1.6.9-2.5.8-3.1-.7-3.5-3.5-4.2-5.8-2.5-7.4-4.6-15-7.4-22.4-.2-.5-.4-1.1-.6-1.6-4.1-17.7-4.1-17.7 11.3-30 2.9-2.3 6.4-4.1 7.3-8.1.3-3.7 2.8-3.4 5.4-3" style="fill:#3daaca"/><path d="m694 553c.4.1.9.1 1.3.2-1.3 4.6-5.1 4.5-8.7 4.5-6-3.2-11.9-6.4-17.9-9.6-3.6-3.2.2-5.5 1-8.2 1.6 1.3 1.5 3.2 2 4.9 1.2 3.2 4.4 4.1 7 4.9 5 1.3 9.8 4 15.3 3.3" style="fill:#59acc2"/><path d="m715 530c-.8 4.9-1.6 9.8-2.4 14.6.8-4.9 1.6-9.8 2.4-14.6" style="fill:#922a30"/><path d="m703 506c.7-3.3 1.5-6.6 2.2-9.8-.7 3.3-1.5 6.6-2.2 9.8" style="fill:#9f105e"/><path d="m696 552c.8-3.4 1.5-6.9 2.3-10.3-.8 3.4-1.6 6.8-2.3 10.3" style="fill:#6f385d"/><path d="m712 551c-.8 4.1-1.6 8.2-2.4 12.4.7-4.2-2.7-9.1 2.4-12.4" style="fill:#85463b"/><path d="m722 489c-.8 2.4-1.6 4.8-2.4 7.2.8-2.4 1.6-4.8 2.4-7.2" style="fill:#922a30"/><path d="m668 434c-1.1 4.1-2.1 8.3-3.2 12.4-1.3.7-2.6 1.4-3.9 2-2.6 4.1-5.4 8.1-8.1 12.2-6.6 9.9-5.9 21-6.5 32-.1 2.1.8 4.4-2 5.4-7.6 2.9-15.2 5.7-22.8 8.6-1.4-.3-4-.6-4-.9 0-2.1.3-4.3 1.1-6.2.2-.4 2.7 0 4.1.2 1.3.2 2.5.7 4.2 0-2.7-1.1-5.6-2-8.2-3.3-3.6-1.8-9.8-2.5-4.8-9.1.6-.8-.6-3.2-1.3-4.7-1.8-4-2-6.6 3.7-6.7 3 0 5.9-1.4 8.6-3.3-2.6.4-5.3.7-7.9 1.1-1.5.7-2.9.9-2.2-1.4.4-1.3 2.2-1.6 3.1-2.5 1.4-1.3 4.1 1.3 4.6-1.9.5-3.1 1-6-.6-9.1-1-1.9-5-4.6.1-6.7 3.4 3.4 7.7 4.3 11.9 3.2 6-1.5 13.3 1 17.9-5.4 2.5-3.5 1.1-7.5 1.4-11.3.2-2.9-.2-5.8.5-8.7 1.5-3.8-.1-7.9 1.6-11.7 2-2.3 4.3-2.8 7-1.1 2.8 3.3 3.6 7.6 5.4 11.4.8 1.6-.5 3.5.3 5.2" style="fill:#e0c2b2"/><path d="m644 498c.7-6.4 1.9-12.7 2.1-19 .3-12.5 6.8-21.9 14.5-30.8-1.4 2.5-2.5 5.3-4.2 7.5-8.9 11.6-10 24.8-9.2 38.7.1 1.4 0 2.8 0 4.1-.7.7-1.3 1.4-2 2-.5.7-1 .7-1.6.2.1-.8.2-1.7.4-2.6" style="fill:#867578"/><path d="m700 487c-.4 1.2-.6 2.7-1.4 3.4-5.7 5.1-11.4 10.3-17.5 15-3.7 2.8-4.1 5.5-2.5 9.6 1.3 3.2 1.7 6.8 2.5 10.2-5.3-2-4.5-6.7-4.6-10.9-.1-2.8-.2-5.7-.3-8.5.1-1.4.2-2.8.4-4.2.8-.4 1.4.1 1.9.6 6.9-2.4 10.8-8.7 16.6-12.5 1.5-1.1 2.5-3.1 4.9-2.7" style="fill:#18718e"/><path d="m648 513c.4 0 .9-.1 1.3-.1 1 7 2.3 14 2.9 21 .6 7.2 2.1 13.9 7.1 19.4-5.2-.7-6.6-5.2-7.2-8.8-1.9-10.5-2.8-21-4.1-31.6" style="fill:#8f8183"/><path d="m674 461c.8-5.1 1.6-10.2 2.5-15.4.7.1 1.3.2 2 .3 2.5 5.5-.8 10.3-2.8 15.2-.6 0-1.2 0-1.7-.1" style="fill:#e6d6de"/><path d="m678 503c-.3-.4-.7-.9-1-1.3.3-5.1.6-10.2.9-15.3.8.3 1.6.5 2.4.7 2.2 5.5 1.1 12.6-2.3 15.9" style="fill:#4e718f"/><path d="m633 551c-.4-.6-.9-1.1-1.3-1.7-.3-.3-.4-.6-.4-1 0-.4.1-.6.1-.6.5-.5 1-.4 1.5 0 0 0-.1.1-.1.1 1.3.7 2.6 1.4 5.3 2.8-2.5.2-3.8.3-5.1.4" style="fill:#9c8072"/><path d="m677 514c1.5 3.6 3.1 7.3 4.6 10.9 2.9 8.4 5.3 16.9 8.2 25 1.3 3.6-.1 3.8-2.9 3.1-6.1-1.5-12.2-3.2-17.2-7.3 0-1.9 0-3.8 0-5.6 2.4-8.8 4.9-17.5 7.3-26.3" style="fill:#40bbd9"/><path d="m736 552c-1.1-.1-2.2-.2-3.3-.3 1.5-.3 2.9-.5 4.4-.8 0 .3.1.7 0 .8-.3.1-.7.2-1.1.3" style="fill:#e3e3f3"/><path d="m631 548c0 .5 0 1 0 1.6-2.9-2.1-5.8-4.1-8.6-6.2.3-.4.6-.8.9-1.1 1.6 1.1 3.3 2.3 4.9 3.4 1.3.3 2.5.7 2.8 2.3" style="fill:#86644d"/><path d="m631 548c-.9-.8-1.9-1.6-2.8-2.4 1.3.8 2.7 1.6 4 2.4 0 0-.6 0-.6 0h-.6" style="fill:#e3c9bd"/><path d="m622 453c.6 1.9 1.2 3.7 1.7 5.6.6 2.3 1.8 4.8 1.5 7.1-.4 3-.9 6.8-5.8 6.1-.5-.1-1.2 1.7-1.8 2.6-.3.2-.6.6-1 .7-3.9.5-8.2 2.3-11.4 1-1.8-.7-1.6-6.4-2.3-9.8-1.7-7.9-5.6-15.6-3-24 1.5-5.1 3.1-10.2 4.6-15.2 3.2-3.1 7.5-2.5 11.3-3.7 1.2-.3 2.4-.6 3.6-.9 4.2-.4 3.2 2.9 3.3 5 .3 7.9 0 15.8.2 23.7 0 .7-.3 1.4-.9 1.9" style="fill:#d7af93"/><path d="m644 501c.5-.1 1.1-.1 1.6-.2 4 6.1-3.2 4.8-4.8 7.2-4 1.4-8.1 2.4-12 3.9 4-1.3 8.1-2.6 12.2-3.8 1.2-.2 2.4-.7 3.5-.5 1 .3 1.9 1.4 2.8 2.1-.7.6-1.3 1.7-2.2 1.9-6.9 1.6-13.8 3.3-20.8 4.5-1.9.3-4-.5-6-.9 1.4-1.7 2.5-4.2 4.3-5 5.9-2.7 12-4.7 18.2-7.1 1.1-.4 2.1-1.4 3.2-2.1" style="fill:#48afc8"/><path d="m624 520c-.8 2.1-1.6 4.3-2.5 7-1-1.9-1.7-3.3-2.3-4.6 1.5-.9 3.1-1.6 4.8-2.4" style="fill:#dfbeb3"/><path d="m578 525c-2.7 0-5.4-.1-8 .1-3.7.3-5.4-1-4.9-4.8 2.3-2.9-1.9-8 2.5-9.8 3.2-1.2 6.8 1.1 10.3 1.3 1.7.1 3.6 0 5.1 1 4.5 1.9 4.9 4.7 1.2 7.5-2.1 1.6-4.2 3.2-6.2 4.7" style="fill:#378daf"/><path d="m583 513c-3.8-.3-7.9.1-11.4-1.1-4.1-1.3-5.5-.6-5.4 3.6 0 1.7-.7 3.3-1 5 .4-3.6.9-7.3 1.3-10.9 6.2.4 12.5.8 18.7 1.2-.8.7-1.5 1.4-2.2 2.2" style="fill:#395153"/><path d="m624 252c-5.7 4.4-5.7 7.5.2 11.5.2.1-.7 1.7-1.1 2.6-2.9 2.1-5.1.1-7.4-1.3-1.3-1.6-2.5-3.4-4.1-4.7-5.5-6.3-6.1-13.4-3.3-21 .6-1.5 1.7-2.8 2.7-4.1-.9 1-1.7 2-2.4 3.1-3.4 8.5-2.8 16.3 3.9 23 1 1 2.1 2 1.7 3.7-1.4 3.5-5 4.2-7.6 6.3-.4.3-.9.6-1.4.9-1.7.8-3.3 1.6-4.9 2.7-1.3.6-2.6 1.2-3.7-.1.8-4.8 5.6-6.2 8.1-10-4 .8-7.6 2.3-11.4 2.1-2.2-.1-5 .5-5.4-3-1.9-11.6-1.5-23-.4-34.8.3-2.9-.2-5.9 1-8.7.5-5.3 3.8-6.4 8.4-5.9 1.9.2 3.9-.2 5.9-.3 3.8-1.6 8-1 11.9-2.2h-.1c3.2-1.2 6.8-1.4 9.6-3.6.8-.4 1.5-.8 2.3-1.2.7 2.9 6.2-3.4 5.2 2.5-1 5.8 8.9 13.3-2.8 17.3-3.9 2.1-9-.1-12.3 3.3 3.4-1.7 7-3.7 11-1.5 2.2 1.5 4.3 3.1 6.7 4.8-3.2-.4-6-.7-8.9-1 0 .4-.1.8-.1 1.2 1.9.7 3.9 1.4 5.8 2.1-3.1 1.4-5.7 2.9-5.9 7.1-.2 4.6-5.4 2.9-7.7 5 1.1 2.9 6.2 0 6.4 4.2" style="fill:#ceb6c0"/><path d="m628 228c-4.6.8-9.3 1.6-13.9 2.5-.1-.5-.2-.9-.3-1.4 5.1-1 10.3-1.9 15.4-2.9 2.8 1.3 5.5 2.7 8.3 4-3.1-.7-6.3-1.4-9.5-2.2" style="fill:#77616d"/><path d="m643 236c-2-2-4-4-6-6 2 2 4 4 6 6" style="fill:#766573"/><path d="m624 208c-3.2 1.2-6.4 2.4-9.6 3.6 1.2-.6 2.5-1.3 3.7-1.9 2-.6 3.9-1.1 5.9-1.7" style="fill:#6b5e67"/><g style="fill:#6f4b51"><path d="m564 204c3.1 1.6 6.2 3.2 9.3 4.8-3.6-1.1-7.2-2.3-10.7-3.4.4-.5.9-.9 1.4-1.4"/><path d="m563 196c.3 2.1.5 4.2.8 6.3-.3-2.2-.6-4.2-.8-6.3"/></g><path d="m588 220c-.4 8.6-1 17.2-1 25.8 0 6.4.7 12.9 1.1 19.3 1.7 2.4 2 4.7 0 7.1-.8-6.9-2.2-13.7-2.3-20.6-.1-10.5.7-21 1.2-31.6.4 0 .7 0 1 0" style="fill:#705861"/><path d="m615 211c-4 .7-8 1.4-11.9 2.2 0-.3 0-.7 0-1 3.9-.5 7.9-.8 11.9-1.2" style="fill:#705863"/><path d="m589 272c0-2.4 0-4.7 0-7.1 6.3-.8 12.7-1.6 19.6-2.4-3.7 4-7.6 8.1-11.4 12.2-.1 2-1.1 3.2-3.2 3.2-.8.1-1.6.1-2.4.2-1-2.1-1.8-4.1-2.6-6.1" style="fill:#faf7f9"/><path d="m593 278c1.1-1.1 2.2-2.2 3.3-3.2 1.1-.5 2.2-1 3.4-1.4 1.6-1 3.9-.7 5-2.5 1.2-.7 2.6-1 3.7-1.9 4.1-3.4 8.1-4.4 13.5-2.1 3.9 1.6 8.6.7 12.8-.7 1.2-.4 2.2-.9 3.3-.1 5.3 3.3 6.5 7.8 4.9 13.8-1 3.7-.1 8.1-1.6 11.5-1.3 3-4.8 5.1-7.4 7.7 1.4.2 4.1.4 7.4.8-3.2 1.7-5.7 3-8.1 4.3 0 .5.2 1.4-.5 1.5-7 .4-14 1.8-20.9-1.3-4.7-3.6-9.4-7.2-14.2-10.7-3.9-2.9-7.9-5.6-11.9-8.3.7-.8 1.5-2.3 2-2.2 4.1.4 5-2.1 5.3-5.2" style="fill:#de0a2c"/><path d="m596 354c-1.3-10.9-2.7-21.8-3.9-32.8-.2-1.7.3-3.4.5-5.2 3.6 3.5 7.1 7.2 10.8 10.5 4.6 4.1 9.3 8.1 14.2 12 2.1 1.6 4.6 2.6 6.9 3.9 4 1.5 6.3 5.1 9.1 8 1.2 1.2 1.5 2.8-.1 4.1-12.5 1.5-25 2.6-37.5-.5" style="fill:#d90926"/><path d="m634 352c-3.2-3.3-6.4-6.7-9.6-10-2.2-5.5.7-17.6 5.1-21.8 1.4.4 3.3.4 4.2 1.3 5 5 9.7 10.2 14.6 15.4-4.6 3.8-3.5 8.7-2.4 13.4.5 2.1 1.4 4.1 2.4 5.9 2.1 3.6.9 5.3-2.8 6.1-3.5.2-5.8-1.5-7.4-4.5-.9-2.3-2.9-3.7-4.1-5.8" style="fill:#7e6359"/><path d="m566 279c-2.4 2-4.6 5.2-7.3 5.7-4.1.8-7.1-2.1-7.2-6.5-.1-4.2 2.8-7 6.5-6.7 2.8.3 5.3 3.1 7.9 4.8.1 1 .1 1.9.1 2.7" style="fill:#ccb6c0"/><path d="m612 304c7.2 0 14.3-.1 21.5-.1 3.2 0 6.3.1 9.5.1-5.8 1.6-11.6 3.3-17.5 4.6-1.8.4-3.8-.2-6.6-.4 2.1 2.3 3.5 3.9 5 5.4-6.1-.5-8.7-5.4-11.9-9.6" style="fill:#b7142c"/><path d="m615 423c-3.8 1.2-7.5 2.5-11.3 3.7-2.8.4-5.5.7-8.3 1.1 6.6-1.6 13-3.2 19.6-4.8" style="fill:#981e1b"/><path d="m584 430c4-.8 7.9-1.6 11.9-2.4-4 .7-8 1.5-11.9 2.4" style="fill:#9d1927"/><path d="m551 443c-.4.8-.7 1.4-1 2.1-.4-.3-1.1-.7-1-1 .2-.7.6-1.4.9-2.1.3.3.6.6 1.1 1" style="fill:#7e5f5a"/><path d="m585 412c0-.3 0-.6 0-1 1.6-1.2 3.2-2.4 4.8-3.6-1.6 1.6-3.2 3.1-4.8 4.6" style="fill:#795355"/><path d="m605 387c-1.1-.7-2.4-2-3.4-1.9-6.6.8-6.3-3.4-6.2-7.9.2-7 0-14-.1-21 3.9-2.2 8.1-1 12-1.1 6.1-.2 12.2-.2 18.2 0 3.9.7.8 4.3 1.3 4.6 2.7 1.4 4.3 3.1 3 6-.8 1.9-1 2.9 1.2 3.4.4.1.8.2 1.1.4 1.9.9 2.9 3 1.9 4.4-3.3 4.5 7.4 11.2-2.4 14.5-8 .5-16 .4-24 .1-.9-.2-1.8-.6-2.6-1.5" style="fill:#de0828"/><path d="m605 387c.5 0 1.1 0 1.6.1 6.3 1.2 12.7 1.1 19 1.3 1.5.3 3.1.7 4.6.7 4 0 6.2 1 5.2 5.9-.7 3.6 1.2 7.2 1.4 11 .2 4.4-1.5 6.6-6 6.6-2.7 0-5.5-.2-8.2.4-1.2.4-2.4 1-3.6.3-3.4-1.1-6.7-.6-10-.2-.6.1-1.1 0-1.7-.1-1.8-.6-3.7-.6-5.4-1.4-.2-.2-.4-.4-.6-.6-4.8-1-6-4.5-5.9-8.8 0-1.8 0-3.5-.1-5.3-.2-10.7-.2-10.7 9.7-9.9" style="fill:#d0bbc6"/><path d="m628 356c-10.7 0-21.4 0-32 0 0-.8 0-1.6 0-2.3 10.7 0 21.4.1 32 0 2 0 4-.9 6-1.4 1.6 1.7 3.2 3.4 4.8 5.1-3.7-.6-7.3-.3-10.8-1.4" style="fill:#9b1120"/><path d="m595 416c-1.4-2.8-2.8-5.5-4.2-8.3 2-.8 3.9-2.6 5.3 1.3.4 1.3 3.6 1.6 5.5 2.4 0 0-.1-.1-.1-.1 1.8 1.5 4.2-.2 6 1.2v-.1c1.1 2.1 0 2.9-1.9 3-1.6 0-3.1.1-4.4 1.3-2.3.7-4.3.7-6.2-.7" style="fill:#be9683"/><g style="fill:#962625"><path d="m595 416c2.1 0 4.3-.1 6.4-.1.5-.4 1-.3 1.4.2-3.2.8-6.5 1.5-9.7 2.3.6-.8 1.3-1.6 1.9-2.4"/><path d="m593 418c-3 .8-5.9 1.6-8.9 2.4 3-.8 6-1.6 8.9-2.4"/></g><path d="m582 421c-2.7.7-5.3 1.4-8 2.2 2.7-.8 5.3-1.5 8-2.2" style="fill:#613e23"/><path d="m562 425c.1-.3.1-.6.2-.9 1.5-.1 3-.2 4.5-.4.3.4.7.8 1 1.2-1.9 0-3.8 0-5.7.1" style="fill:#731317"/><path d="m619 413c.7-.3 1.4-.7 2.2-1 .3 0 .6 0 .8 0 1.6.4 2.5 1.2 1.9 3-2.1 4.9-.7 9.7.2 14.5-.3 1.1-1.1 2.1-1.1 3.4-.2 5.3.4 10.6-.3 15.8-.2 1-.7 2-1.6 2.6-.3-7.4-.5-14.9-.9-22.3-.2-2.5-1.2-4.9-1.8-7.3.2-2.9.4-5.8.6-8.7" style="fill:#6a3530"/><path d="m603 416c-.5-.1-.9-.1-1.4-.2 2-1.2 4-2.3 6.1-3.5 4 .4 7.9.8 11.9 1.2-5.6.8-11 1.7-16.6 2.5" style="fill:#823d3d"/><g style="fill:#f8f5f7"><path d="m679 102c-6.4 0-12.7 0-19 0 .1-1 .2-2 .2-3 6.3 1 12.6 2 18.9 3"/><path d="m660 104c5.2 0 10.3 0 15.5 0 0 .4 0 .8 0 1.2-5.2-.4-10.4-.8-15.5-1.2"/></g><g style="fill:#8d7c86"><path d="m684 106c-1.7-.1-3.3-.2-5-.2.1-.4.1-.8.2-1.1 1.6.4 3.3.8 4.8 1.3"/><path d="m678 108c-.3-.1-.6-.2-.9-.4 1.9.1 3.8.2 5.7.3-1.5 0-3.2 0-4.8.1"/></g><path d="m694 118c-1.4 1.1-2.3 2.2-2.6 2.1-1.8-1-3.4-2.2-5-3.3.6-.7 1.6-2.2 1.8-2.1 1.7.8 3.4 1.9 5.8 3.3" style="fill:#5f505e"/><path d="m646 362c4.5-2.6.1-5.4 0-8-.1-5.2-1.4-10.4-1.9-15.6 0-.3 2.8-.9 4.3-1.3 2.2 1.8 4.6 3.4 6.7 5.4 6.8 6.6 13.5 13.4 20.9 20.7.4-2.5.8-4.4 1.1-6.4-.4 11.3 10 15.5 15.2 23 1.1.8 2.2 1.6 3.2 2.4 0 2 .1 4 .1 6.1 0 3.8 0 7.6.1 11.3 0 3.3 0 6.6 0 10-1.7-1-3.1-1.9-4.6-2.7-2.2 1.1-4.4 2.6-6.3-.5-.2-1.3 3.7-.5 1.4-2.8-1.4-3.4-4.4-5.3-7-7.7-.4-.4-.6-.9-.7-1.5-2.7-.5 3.8-1.6-.2-2.2-2.4-.3-4.3-1.7-4.8-4.3 0-.9.2-1.6.9-2.2 1.5-.7 2.6.5 3.8.9 3.9 1.5 7.3.3 8.2-3 .9-3.1-.3-5.7-3.4-6.6-3.7-1.1-6 .9-7 4.4-.4 1.5-.4 3.2-1.8 4.3-3.1-1.1-1.1-3.3-1.7-5.6-.1 1.7.2 3.2-.4 4.5-1 .9-2.1 1-3.3.9-.6-.1-1.2-.3-1.7-.5-6.1-6.7-14.2-11.4-19.4-19-.7-1.1-2.3-1.9-1.7-3.8" style="fill:#89736c"/><path d="m679 307c-1.2 8-2.5 15.9-3.7 23.9-.5.3-.8.1-.8-.5 0-.9-.1-1.9-.1-2.8-2.3-4.9-1.3-10.2-2.4-15.3 0-.8-.1-1.6-.1-2.3 1.7-2.6 4.4-2.9 7.1-3" style="fill:#f1eee1"/><path d="m638 266c-5.4.7-11.2 2.9-16 1.6-5.2-1.4-8.9-1.2-12.9 1.9-1.1.8-2.8.9-4.3 1.3 2.8-1.9 5.5-3.8 8.3-5.8.7-.8 1.2-2 2.6-1.6 2.3.8 4.6 1.7 7 2.5 8.7 1.8 15-2 20-8.5-1.6 2.8-3.2 5.7-4.8 8.6" style="fill:#9a2335"/><path d="m643 304c1.1-.8 2.1-2 3.4-2.3 5-1.2 10-2.1 14.9-3.1-.2 3.2-6.4 5.4-18.3 5.4" style="fill:#b7142c"/><path d="m679 307c-2.4 1-4.7 2-7.1 3-.7-2.5-1.5-5-2.2-7.6.8 4.7 3.1 6 7.3 3.3.5-.3 1.5.1 2.2.2-.1.4-.2.7-.2 1.1" style="fill:#28331d"/><path d="m672 313c.8 5.1 1.6 10.2 2.4 15.3-.8-5.1-1.6-10.2-2.4-15.3" style="fill:#924c44"/><path d="m674 331c.2.2.5.4.8.5-.3 5.2-.7 10.3-1 15.5.1-5.4.1-10.7.2-16" style="fill:#7d6c62"/><path d="m624 252c-2.1-.5-4.3-.7-6.3-1.4-1.1-.4-2-1.6-3-2.4 1-1.1 2-3.1 2.9-3 5.1.4 7.2-1 6.8-6.7-.4-5.5 4.2-2.6 6.8-2.9.1.7.1 1.5.2 2.2.3 5.1 3.9 6.5 8.1 7.3-.7 2.1-1.6 6-2.2 5.9-7.3-.3-6.3 4.5-6.1 9-2.3 1.6-4.6 1.1-7 .3 0-2.8-.1-5.6-.2-8.3" style="fill:#db0b2f"/><g style="fill:#ceb6c0"><path d="m640 245c-4.9 0-10.4.6-8.1-7.3 2.7 2.5 5.4 4.9 8.1 7.3"/><path d="m624 260c2.3-.1 4.6-.2 7-.3-2.3.1-4.7.2-7 .3"/></g><path d="m685 406c1.9.2 3.9.4 5.8.7.8 2.1 1.7 4.1 2.5 6.2-7.4-2.1-11.7.7-14.4 9.5-.6.6-1.4.8-2.1.6-5.2-1.4-8.5.4-10 5.5-1.5-3.5-3.1-7.1-4.6-10.6-.4-.7-.6-1.5-.6-2.3 2.1-3.5-3.3-4.8-2.5-7.9 2.7-1.6 6-1.7 8.8-2.9 2.6-.6 4.9-3.2 7.9-1.2 2.8 1.8 6.9-.9 9.3 2.4" style="fill:#cf1337"/><path d="m678 503c.8-5.3 1.5-10.6 2.3-15.8 7.7-1.7 16 0 22.9-5.5.5.7.9 1.4 1.4 2.2-1.3 1.1-2.7 2.2-4 3.3-6.5 5.6-13 11.2-19.4 16.8-1.6 1.2-3.3 3.3-3.2-1" style="fill:#3fadca"/><path d="m667 429c.1-2 0-4 .5-5.8.3-1 1.7-2.4 2.5-2.3 3.1.4 6.2 1.4 9.3 2.1 0 .8-.1 1.6-.1 2.4-1.6 1.2-.7 3.6-2.3 4.8-1.4 4.1-4.3 5.3-8.4 4.1-.5-1.8-1-3.5-1.5-5.3" style="fill:#e40c31"/><path d="m679 478c1.7-5.2 3.2-10.4 5.3-15.4.5-1.1 2.9-1.7 4.5-2 .5-.1 1.8 1.5 1.9 2.4.8 6.6-4.6 13.4-11.8 14.9.1 0 .1.1.1.1" style="fill:#e50833"/><path d="m677 430c.8-1.6 1.5-3.2 2.3-4.8-.8 1.5-1.6 3.1-2.3 4.8" style="fill:#cf1337"/><path d="m697 363c.3-.3.6-.6.9-.8 4.2-1.1 2.8 2.2 3.3 4.1-1 2 0 4.3-.8 6.3-2.2 2.1-3.9 2.3-3.9-1.4-.1-2.8.3-5.5.5-8.2" style="fill:#5a5256"/><path d="m700 373c.3-2.1.6-4.2.8-6.3-.3 2.1-.5 4.2-.8 6.3" style="fill:#dcd2e2"/><path d="m669 546c6.3 2.5 12.6 5 20 7.9-3-10.6-5.5-19.8-8.1-28.9 2.8 7.8 5.5 15.7 8.5 23.5.7 1.9 2.6 3.4 3.9 5-6.3 2.4-18.6-1.3-24.3-7.5" style="fill:#1b728d"/><g style="fill:#a6212c"><path d="m622 452c.1-.9.2-1.8.3-2.7.3-.2.9-.5 1-.4 7.8 8.4 17 2.9 25.6 2.7.9 0 1.9-.5 2.9-.5.7.1 1.2.4 1.5 1-2.4 1.4-4.7 3.6-7.3 4.1-5.1 1-10.4 1-15.7 1.5-3.9.3-6.9-.9-8.5-4.6.2-.4.2-.8.2-1.1"/><path d="m655 430c-.1 5.7 0 11.3-.3 17-.1 1.6-1.2 3.1-1.8 4.6-.2-.2-.4-.3-.6-.5-1.9-2.5-1.2-5.5-1.3-8.4-.1-2.7-.1-5.4-2.6-7.3-.7-4.6 2.5-5.3 5.8-6 .3.3.5.4.8.6"/></g><path d="m656 418c-.5 4-.9 7.9-1.4 11.9 0 0 .1 0 .1 0-2.7-2.7-.3-6.9-2.8-9.7 0-3.4 2.2-7-1-10 1.1-2 2.9-1.9 4.8-1.5 3.4 2 1.5 5 1.4 7.7-.4.6-.7 1.1-1.1 1.6" style="fill:#7a4e45"/><path d="m620 490c5-2 10 7.4 15.7.5-.4 1-.9 2.8-1.2 2.7-4.9-.4-9.8-1-14.8-1.5.1-.6.2-1.1.3-1.7" style="fill:#866a5c"/><path d="m656 418c0-.4-.1-.9-.1-1.3 1.6-2.5 3.6-3.1 6-1-.1.8-.2 1.6-.3 2.5-1.9-.1-3.7-.1-5.6-.2" style="fill:#b8928d"/><path d="m641 508c-4.3 1.8-8.7 3.6-13 5.4-.2-.7-.5-1.4-.7-2.2 4.5-1.1 9-2.2 13.6-3.3-.1 0 .1.1.1.1" style="fill:#117797"/><path d="m612 262c-7.4-7.7-8.6-15.5-3.8-24.6.2.2.4.4.6.5-2.4 8-2.4 15.6 3.4 22.3.3.7.3 1.3-.2 1.8" style="fill:#7c636e"/><path d="m608 237c1-1.5 1.9-3 2.9-4.4.4.3.7.5 1.1.8-1.1 1.4-2.3 2.8-3.4 4.2-.1-.3-.3-.5-.6-.6" style="fill:#6d545f"/><path d="m605 271c-1.7.8-3.4 1.7-5 2.5 1.6-.8 3.3-1.6 5-2.5" style="fill:#872d38"/><path d="m612 262c0-.6 0-1.2.1-1.7 1.3 1.1 2.5 2.1 3.8 3.2-.9.5-1.8 1.1-2.6 1.6-.5-1.1-.9-2.1-1.3-3.1" style="fill:#897c7e"/><path d="m646 362c6.6 6.7 13.2 13.4 19.8 20 .6.6.8 1.6 1.2 2.4-.8 1-2 1.3-3.2 1.4-3.3.5-6.9-.8-10 1.3-.5.3-1.1.6-1.7.8-1.6.4-3.2.5-4.8.5-4.4-.6-9.1 1.5-13-1.7.4-1.2 1.5-2.9 1.1-3.5-2.5-3.6-3.5-7.2-1.3-11.2-1.3-.6-2.5-1.6-3.9-1.7-3-.4-3.9-1.7-2.3-4.3 2.7-4.2 2.5-4.8-2.6-5.3-1.1-.1-2.2-.3-4-.5 2.7-1.7 4.8-2.9 7-4.2 3.8-1.2 7.5-2.2 10.8 1.2 2.2 1.5 4.6 3.1 7 4.7" style="fill:#e40d32"/><path d="m634 387c5 .1 10 .2 15 .2-.1.7-.5 1.3-1 1.7-1.5.9-3.3.9-4.9 1.1-5.4.7-10.8 0-16-.3-6.6-.9-13-1.7-19.7-2.6 8.8 0 17.7-.1 26.7-.1" style="fill:#8b2838"/><path d="m627 390c5.5-.4 11-.8 16.6-1.2 8.2.8 14.4 8.3 11.7 14.7 5.3-2.6 9.7-1.8 13.2 2.9-3 .9-6.1 1.7-9.1 2.6-.7.9-1.8.4-2.6.7-1.8.4-3.7.8-5.5 1.2-2.3 2.6-5.7 1.4-8.4 2.7-4.5.6-9 .3-13.5.4-2.5.1-4.9-.8-7.2-1.5 0 0-.1 0-.1 0 3.2-.4 6.4-1.1 9.6-1.3 3-.2 5.6.1 4.2-4.4-.9-2.9-.9-6-1.2-9.1-.2-2 0-4.1 0-6.3-2.2-.4-4.9-.9-7.7-1.4" style="fill:#d8cddb"/><path d="m608 412c-2-.4-4-.8-6-1.2 1.9.3 4 .7 6 1.2" style="fill:#823d3d"/><path d="m648 435c3.6-.4 5.3 1 4.9 4.9-.4 3.8-.3 7.7-.4 11.5-7.9 1.3-15.7 3-23.6 3.5-2.2.1-4.6-3.7-6.9-5.7 0-5.8 0-11.7.1-17.5.5-.8 1.4-.9 2-.4 6.8 6.9 15 4.3 23 3.9.3-.1.6-.2.8-.2" style="fill:#e40a2e"/><path d="m653 420c.8.4 2.2.7 2.2 1.1.2 2.9.1 5.8.1 8.7-2.4 1.5-4.8 3.1-7.2 4.6 0 0 .1 0 .1 0-6.6 3.5-20.8.7-23.6-4.6-3.4-4.7-3.8-12.5-.6-15.7 1.3-1 2.8-1 4.3-1 .6 0 1.2.1 1.7.2 1.9.8 3.1 2.4 4.6 3.7 1.3 1.3 2.9 2.3 4.4 3.4.6.5 1.2 1 1.8 1.4 2.2 1.5 4.2.7 6.1-.7 1.8-1.1 3.7-2.6 6.1-1.1" style="fill:#d5c4cd"/><path d="m624 430c6.8 6.9 15.4 4.7 23.6 4.6-1.3.8-2.6 2.4-3.9 2.4-5.3.1-10.6.3-15.7-.6-2.3-.4-4.2-3.3-6.3-5.1.7-.4 1.5-.8 2.3-1.3" style="fill:#a81b33"/><path d="m629 414c-1.7 0-3.5 0-5.2-.1-.7-.7-1.3-1.4-2-2.1 2.5 0 4.9 0 7.4 0 .5.9.5 1.6-.2 2.2" style="fill:#d0bbc6"/><path d="m668 406c-5.5-1.2-10.9-2.4-16.4-3.7 3.2.5 4.1-.4 2.1-4-2.6-4.6-4.1-9.7-10.6-9.9 1.5-.1 2.9-.3 4.4-.4 3.5-1 6.5 2 9.7.6-.8-1.2-4.2 2-4.6-1.5l-.1-.3c3.5-2.1 7.7-1 11.4-2.2.8 0 1.7 0 2.5-.1.3.2.6.3.9.1 7.7 3.4 11.2 9.4 10.8 17.8-.5 1.6-1 3.1-3.2 2.2-2.3.5-4.6 1-6.9 1.4" style="fill:#e2daeb"/><path d="m674 386c0-1.8-.7-4 .1-5.2 1.6-2.2 4-5.1 6.2-5.1 2.5 0 6 2.2 7.1 4.5.9 1.9-.5 6-2.2 7.5-1.7 1.4-5.2.9-7.9.6-1.3-.2-2.3-1.6-3.3-2.3" style="fill:#e5e2f2"/><path d="m675 405c.8-.8 1.7-1.6 2.5-2.4-.1-2.2-2.1-4.8 1-6.5l.1-.3c3.4 2.4 6.7 4.9 8.4 8.9-.7.7-1.4 1.3-2.1 2-3.2-.1-6.5-.2-9.7-.4-.2 0-.3-.1-.5-.1.1-.5.2-.9.3-1.2" style="fill:#f0ebf2"/><g style="fill:#5c5158"><path d="m679 396c-.3 2.2-.7 4.3-1 6.5.4-8-4.9-12.8-10-17.6 1.4 0 2.7 0 4.1 0 1.2 1.2 1.9 2.6 2.5 4.2 2.8 1.4 5.5 2.7 7.8 3.8-.8.7-2.1 1.9-3.3 3.1"/><path d="m687 404c-2.8-3-5.6-5.9-8.4-8.9 2.8 3 5.6 5.9 8.4 8.9"/></g><path d="m674 389c-.8-1.4-1.7-2.8-2.5-4.2.1-1.7.3-3.4.5-5.9.8 2.9 1.4 5 2 7.1 0 0-.1-.1-.1-.1.1 1 .1 2 .1 3.1" style="fill:#cac4c8"/><path d="m656 409c.9-.2 1.8-.5 2.6-.7 3.8 1.1 5.6 3.1 3.3 7-2 .3-4 .7-6 1 0-2.4.1-4.8.1-7.3" style="fill:#e0c2b2"/><path d="m699 367c0 1.6 0 3.2 0 4.7-.1 0-.3 0-.4 0 0-1.6 0-3.2 0-4.7.1 0 .2 0 .4 0" style="fill:#928b97"/><path d="m633 418c-1.3-1.2-2.5-2.5-3.8-3.7 4-3.5 8.9-.8 13.3-1.8.1 0 .3-.2.3-.3 0-.2-.1-.4-.2-.6 2.6-.3 5.2-.7 7.8-1 5.1 1.3 5.5 3.2 1.8 9.4-1.9.9-3.7 1.8-5.6 2.7-2.5.7-5.1 1-7.6 0-.4-.3-.8-.7-1.3-1-.4-2.6-2.9-2.8-4.7-3.7" style="fill:#df0d31"/><path d="m664 385c-3.8.7-7.6 1.5-11.4 2.2 3.8-.8 7.6-1.5 11.4-2.2" style="fill:#7b2d39"/><path d="m653 387c2 .6 3.9 1.1 5.9 1.7-.1.3-.1.6-.2.9-3.6-.6-7.2-1.2-10.8-1.7.4-.3.7-.6 1.1-.9 1.3-.1 2.7 0 4 0" style="fill:#d8cddb"/><path d="m643 412c-.1.5-.1 1.3-.3 1.4-4.4.5-8.8.9-13 1.3-.3 0-.5 0-.8 0 .1-.7.1-1.4.2-2.1 4.7-.3 9.4-.4 14-.6" style="fill:#53313b"/><path d="m645 430c-2.5 1.6-3.9 3.2-5 3-1.2-.2-2.5-2-2.9-3.4-.2-.5 1.8-2.6 2.8-2.5 1.3 0 2.6 1.4 5.1 2.9" style="fill:#816f7f"/><path d="m633 418c2.7-.2 5.5-.5 4.8 3.8-1.6-1.3-3.2-2.6-4.8-3.8" style="fill:#8e2738"/><path d="m640 423c2.5 0 5.1 0 7.6 0-2.5 1.5-5 3.4-7.6 0" style="fill:#5e3636"/></g></g></svg>